%TF.GenerationSoftware,KiCad,Pcbnew,6.0.11+dfsg-1*%
%TF.CreationDate,2026-05-20T13:10:22+00:00*%
%TF.ProjectId,Lifedatalink_v1_revB_compat,4c696665-6461-4746-916c-696e6b5f7631,rev?*%
%TF.SameCoordinates,Original*%
%TF.FileFunction,Copper,L2,Inr*%
%TF.FilePolarity,Positive*%
%FSLAX46Y46*%
G04 Gerber Fmt 4.6, Leading zero omitted, Abs format (unit mm)*
G04 Created by KiCad (PCBNEW 6.0.11+dfsg-1) date 2026-05-20 13:10:22*
%MOMM*%
%LPD*%
G01*
G04 APERTURE LIST*
%TA.AperFunction,ComponentPad*%
%ADD10C,0.650000*%
%TD*%
%TA.AperFunction,ComponentPad*%
%ADD11O,2.300000X1.150000*%
%TD*%
%TA.AperFunction,ComponentPad*%
%ADD12C,12.000000*%
%TD*%
%TA.AperFunction,ComponentPad*%
%ADD13C,3.800000*%
%TD*%
%TA.AperFunction,ViaPad*%
%ADD14C,0.800000*%
%TD*%
%TA.AperFunction,ViaPad*%
%ADD15C,0.400000*%
%TD*%
%TA.AperFunction,ViaPad*%
%ADD16C,0.600000*%
%TD*%
%TA.AperFunction,Conductor*%
%ADD17C,0.152400*%
%TD*%
%TA.AperFunction,Conductor*%
%ADD18C,0.250000*%
%TD*%
%TA.AperFunction,Conductor*%
%ADD19C,0.300000*%
%TD*%
%ADD20C,0.350000*%
%ADD21C,0.200000*%
%ADD22C,0.300000*%
%ADD23O,1.650000X0.650000*%
%ADD24C,0.324999*%
G04 APERTURE END LIST*
D10*
%TO.N,GND*%
%TO.C,J1*%
X73695800Y-88982200D03*
%TO.N,Net-(J1-PadB2)*%
X72995800Y-88582200D03*
%TO.N,Net-(J1-PadB3)*%
X72995800Y-87782200D03*
%TO.N,+5V*%
X73695800Y-87382200D03*
%TO.N,Net-(J1-PadB5)*%
X72995800Y-86982200D03*
%TO.N,/BL654_USB_DP*%
X73695800Y-86582200D03*
%TO.N,/BL654_USB_DN*%
X73695800Y-85782200D03*
%TO.N,Net-(J1-PadB8)*%
X72995800Y-85382200D03*
%TO.N,+5V*%
X73695800Y-84982200D03*
%TO.N,Net-(J1-PadB10)*%
X72995800Y-84582200D03*
%TO.N,Net-(J1-PadB11)*%
X72995800Y-83782200D03*
%TO.N,GND*%
X73695800Y-83382200D03*
D11*
X72945800Y-81582200D03*
X72945800Y-90782200D03*
X69945800Y-81582200D03*
X69945800Y-90782200D03*
%TD*%
D12*
%TO.N,/ECG_LEFT_ARM*%
%TO.C,J6*%
X116713000Y-113538000D03*
%TD*%
D13*
%TO.N,GND*%
%TO.C,J19*%
X85227160Y-120042940D03*
%TD*%
%TO.N,GND*%
%TO.C,J20*%
X80594200Y-93929200D03*
%TD*%
D12*
%TO.N,/ECG_RIGHT_ARM*%
%TO.C,J7*%
X67818000Y-113538000D03*
%TD*%
%TO.N,/ECG_RIGHT_LEG*%
%TO.C,J18*%
X99568000Y-137668000D03*
%TD*%
D14*
%TO.N,GND*%
X73797160Y-110500160D03*
D15*
X76298140Y-113339320D03*
D14*
X78975550Y-115590642D03*
X109463840Y-116850160D03*
D16*
X107492042Y-110970060D03*
D15*
X82679540Y-74635360D03*
X72015500Y-95015500D03*
X86627525Y-86537792D03*
X100328357Y-121920011D03*
X88491689Y-90787736D03*
X100553337Y-116203230D03*
X80981202Y-88214700D03*
X86751160Y-116969540D03*
X97267061Y-105020721D03*
X100975160Y-114099340D03*
X79156982Y-91999222D03*
X102133400Y-91389200D03*
X85500000Y-76700000D03*
X99356262Y-117874188D03*
X91690734Y-93248234D03*
X96995953Y-121643790D03*
X96301560Y-105486200D03*
X88623570Y-115431645D03*
D14*
X76078651Y-91857213D03*
D15*
X98247200Y-91389200D03*
X90908243Y-117702730D03*
X84993766Y-113316734D03*
D14*
X95021400Y-83223100D03*
D15*
X93682077Y-112894185D03*
X100838000Y-91389200D03*
X81499115Y-77102619D03*
X87300313Y-81437590D03*
X83860457Y-89777531D03*
X70269100Y-92351350D03*
X99542600Y-91389200D03*
X93522579Y-95703795D03*
X91932760Y-121668540D03*
X82402569Y-82911271D03*
X88350774Y-85656238D03*
X86507320Y-89984580D03*
X95315344Y-113410350D03*
X100111560Y-117629940D03*
%TO.N,+3V3*%
X78298140Y-114339320D03*
X77826664Y-112507270D03*
D14*
X105961180Y-110238540D03*
X108424980Y-112798860D03*
X85613403Y-91721097D03*
D15*
X90891360Y-121668540D03*
X88072528Y-86486487D03*
D14*
X69334378Y-94338140D03*
D15*
X74173080Y-94866460D03*
X87914480Y-88508840D03*
X94488000Y-104775000D03*
X94457519Y-105664000D03*
X93247381Y-113352751D03*
X94472615Y-95660351D03*
D14*
X85156213Y-85623651D03*
D15*
X92847160Y-121617740D03*
X78613000Y-109727988D03*
X98892360Y-113540540D03*
X77754897Y-91100057D03*
D14*
X84769960Y-115369340D03*
D15*
X83911440Y-87708740D03*
D14*
X83045195Y-92436208D03*
D15*
X91359010Y-117163910D03*
X94142570Y-113317537D03*
X75872340Y-94096840D03*
X87599520Y-118798340D03*
D14*
X83058421Y-76550861D03*
X85855850Y-84739214D03*
%TO.N,+5V*%
X77330300Y-84927440D03*
X76206885Y-87855638D03*
X76403268Y-90262927D03*
X77431900Y-94513400D03*
D15*
X87847989Y-90074100D03*
D14*
%TO.N,+BATT*%
X92633800Y-95123000D03*
D15*
X89077800Y-95808800D03*
D14*
X82677000Y-95631000D03*
D16*
%TO.N,Net-(C10-Pad2)*%
X96072960Y-114099340D03*
D15*
%TO.N,Net-(C11-Pad2)*%
X95971360Y-112981740D03*
%TO.N,Net-(C12-Pad2)*%
X93018953Y-119157130D03*
%TO.N,Net-(C13-Pad2)*%
X95801194Y-117897235D03*
%TO.N,Net-(C13-Pad1)*%
X96277825Y-118176487D03*
%TO.N,Net-(C14-Pad2)*%
X100028972Y-114339070D03*
%TO.N,Net-(C14-Pad1)*%
X99982171Y-113568404D03*
X97160730Y-115843322D03*
%TO.N,Net-(C15-Pad2)*%
X91619818Y-119302121D03*
X96684418Y-119010374D03*
%TO.N,Net-(C15-Pad1)*%
X99118420Y-120469662D03*
X99120960Y-121973340D03*
%TO.N,Net-(C20-Pad2)*%
X96084726Y-118765355D03*
X100330000Y-120142000D03*
%TO.N,Net-(C21-Pad2)*%
X101279960Y-119306340D03*
X88960960Y-121719340D03*
X88963500Y-119072660D03*
%TO.N,/RLDINV*%
X93586232Y-118888084D03*
X90009468Y-119583886D03*
%TO.N,+1V8*%
X80856470Y-91265648D03*
D14*
X86417708Y-91211016D03*
X81726017Y-73949937D03*
X83506719Y-86210647D03*
D15*
X85181734Y-91042754D03*
X79936340Y-91607640D03*
X82214495Y-86210647D03*
X81862892Y-91160600D03*
X84675967Y-85037124D03*
%TO.N,/BL654_UART_RX*%
X71631412Y-94317089D03*
X88039127Y-87037888D03*
%TO.N,/BL654_UART_TX*%
X87756740Y-83819921D03*
X72052180Y-92351350D03*
%TO.N,/BL654_SWDIO*%
X73492360Y-92364050D03*
X85227508Y-89980754D03*
X97389989Y-91143989D03*
%TO.N,/BL654_SWDCLK*%
X83831939Y-90988046D03*
X74599800Y-92250256D03*
X96833773Y-91137911D03*
%TO.N,Net-(R8-Pad1)*%
X95532398Y-118774936D03*
X94377716Y-121643790D03*
%TO.N,/RLDIN*%
X89032364Y-117971303D03*
X94133515Y-119157627D03*
%TO.N,/RLDOUT*%
X94685683Y-119141215D03*
X91294268Y-118855829D03*
%TO.N,Net-(R15-Pad1)*%
X91943852Y-118846569D03*
%TO.N,Net-(R16-Pad1)*%
X90693535Y-118699515D03*
%TO.N,/TMP_ALERT*%
X94779140Y-92779727D03*
X95076553Y-91082480D03*
%TO.N,/~{ADS_PWDN_RESET}*%
X88434383Y-91528321D03*
X90603190Y-88493600D03*
%TO.N,/ADS_SPI_MOSI*%
X86768214Y-91957091D03*
X92982221Y-88771883D03*
%TO.N,/~{ADS_SPI_CS}*%
X87974930Y-91221627D03*
X90148805Y-91207073D03*
%TO.N,/ADS_SPI_SCLK*%
X93758934Y-88338012D03*
X84033092Y-92158827D03*
%TO.N,/ADS_SPI_MISO*%
X93362130Y-91192806D03*
X85037903Y-92205786D03*
%TO.N,/~{ADS_DRDY}*%
X89291594Y-91277627D03*
X90068317Y-88977911D03*
%TO.N,/ADS_CLK*%
X89017490Y-92248841D03*
X90616294Y-89047772D03*
%TO.N,/~{MAX_INT}*%
X86048230Y-83372388D03*
X88285100Y-83981152D03*
%TO.N,/BL654_USB_DP*%
X75903399Y-85871477D03*
D16*
X91835729Y-91241835D03*
%TO.N,/BL654_USB_DN*%
X91031800Y-91247700D03*
D15*
X75897614Y-86485810D03*
%TO.N,/TMP_ADD0*%
X96635687Y-91997770D03*
X95976562Y-91175035D03*
%TO.N,/BL654_I2C_SDA_HV*%
X95305880Y-92989400D03*
X95536044Y-88672819D03*
X90446886Y-86896579D03*
X83919060Y-88697450D03*
X78397099Y-89598500D03*
X90398600Y-85115400D03*
%TO.N,/BL654_I2C_SCL_HV*%
X77637534Y-90550184D03*
X82542431Y-90899408D03*
X90298379Y-84034510D03*
X92880180Y-92870020D03*
X92982221Y-83940217D03*
%TO.N,/BL654_I2C_SDA_LV*%
X85958865Y-85491483D03*
X82019779Y-88729610D03*
%TO.N,/BL654_I2C_SCL_LV*%
X82691128Y-85566410D03*
X84005988Y-84996587D03*
%TO.N,/BL654_I2S_SCK*%
X93809899Y-91975137D03*
X94220058Y-89184010D03*
%TO.N,/BL654_I2S_WS*%
X94219342Y-91225417D03*
X95077269Y-89072150D03*
D14*
%TO.N,/VIN*%
X77135124Y-89158936D03*
X70167398Y-96461580D03*
D15*
%TO.N,/WS2812_DATA*%
X97421700Y-88900000D03*
X70089987Y-95544640D03*
%TO.N,/MCP73831_STAT*%
X74692862Y-93967662D03*
X90020790Y-85725000D03*
%TO.N,Net-(SW1-Pad1)*%
X74917300Y-96520000D03*
X96021510Y-88952363D03*
D14*
%TO.N,/VIN_FUSE*%
X78300457Y-85206503D03*
X78219300Y-83732084D03*
D15*
%TO.N,/BL654_I2S_SD_EXT*%
X77208380Y-113680240D03*
X77198140Y-110939320D03*
X90316958Y-113945340D03*
X100191264Y-115786023D03*
%TO.N,/BL654_I2S_SCK_EXT*%
X99186611Y-115329915D03*
X85911093Y-113794140D03*
X89633833Y-113740305D03*
%TO.N,/BL654_I2S_WS_EXT*%
X89081422Y-113740407D03*
X88041024Y-116970652D03*
X99189637Y-114777512D03*
%TO.N,/~{ADS_DRDY_EXT}*%
X88672284Y-116945864D03*
%TO.N,/ADS_CLK_EXT*%
X87928381Y-113716730D03*
%TO.N,/ADS_START_EXT*%
X88244794Y-113263914D03*
%TO.N,/~{ADS_PWDN_RESET_EXT}*%
X87130989Y-113131951D03*
%TO.N,/~{ADS_SPI_CS_EXT}*%
X85664871Y-114728072D03*
X91169340Y-113908733D03*
%TO.N,/ADS_SPI_MOSI_EXT*%
X90340454Y-114527991D03*
X86063769Y-115110223D03*
%TO.N,/ADS_SPI_MISO_EXT*%
X85506560Y-115547140D03*
X90008368Y-114969441D03*
%TO.N,/ADS_SPI_SCLK_EXT*%
X90473612Y-115267296D03*
X85172790Y-117023910D03*
D16*
%TO.N,/~{MAX_INT_EXT}*%
X86398851Y-74577408D03*
%TO.N,/BL654_I2C_SDA_LV_EXT*%
X86094042Y-73820020D03*
D15*
%TO.N,/BL654_I2C_SCL_LV_EXT*%
X86151720Y-72495620D03*
%TO.N,/ECG_LEFT_ARM*%
X109199680Y-114607340D03*
%TO.N,/ECG_RIGHT_ARM*%
X87516960Y-117145340D03*
X99458176Y-116509727D03*
X99771200Y-121691400D03*
%TO.N,/ECG_RIGHT_LEG*%
X100414781Y-119197667D03*
%TO.N,Net-(C31-Pad2)*%
X78435348Y-92280991D03*
X86375678Y-87997826D03*
X72212200Y-96494600D03*
%TO.N,/VDIV*%
X92399731Y-82796769D03*
X91028760Y-94894160D03*
%TD*%
D17*
%TO.N,GND*%
X86942855Y-115431645D02*
X88623570Y-115431645D01*
X86751160Y-115623340D02*
X86942855Y-115431645D01*
X86751160Y-116969540D02*
X86751160Y-115623340D01*
D18*
%TO.N,+3V3*%
X84769960Y-115369340D02*
X84769960Y-115945920D01*
X76626720Y-93416120D02*
X76553060Y-93416120D01*
D17*
X93859728Y-113317537D02*
X93824514Y-113352751D01*
D18*
X77754897Y-91382899D02*
X77383640Y-91754156D01*
X87599275Y-118775235D02*
X87599275Y-119155327D01*
X93460566Y-96672400D02*
X88214200Y-96672400D01*
D19*
X87477600Y-87833200D02*
X87731600Y-88087200D01*
X75872340Y-94096840D02*
X75115420Y-93339920D01*
X87477600Y-86410800D02*
X87477600Y-87833200D01*
X86951502Y-92489416D02*
X86381722Y-92489416D01*
X88072528Y-86486487D02*
X87857574Y-86486487D01*
X87631638Y-88508840D02*
X87304410Y-88836068D01*
D18*
X94472615Y-95660351D02*
X93460566Y-96672400D01*
D19*
X87914480Y-88508840D02*
X87631638Y-88508840D01*
X87775682Y-88087200D02*
X87914480Y-88225998D01*
X83824978Y-91656425D02*
X85548731Y-91656425D01*
D17*
X87599275Y-118770060D02*
X89205425Y-117163910D01*
X98892360Y-113540540D02*
X98892360Y-113823382D01*
D18*
X85156213Y-85623651D02*
X85556212Y-85223652D01*
D17*
X95819484Y-113540540D02*
X95521073Y-113838951D01*
X87599275Y-119155327D02*
X87599275Y-118770060D01*
D19*
X70332598Y-93339920D02*
X69334378Y-94338140D01*
D17*
X101145329Y-115750999D02*
X101368201Y-115973871D01*
D18*
X87599275Y-119155327D02*
X87599520Y-119155082D01*
D17*
X94663984Y-113838951D02*
X94142570Y-113317537D01*
D18*
X77383640Y-92659200D02*
X76626720Y-93416120D01*
D19*
X87304410Y-92136508D02*
X86951502Y-92489416D01*
D17*
X95521073Y-113838951D02*
X94663984Y-113838951D01*
D19*
X87731600Y-88087200D02*
X87775682Y-88087200D01*
D18*
X84769960Y-115945920D02*
X87599275Y-118775235D01*
D19*
X86381722Y-92489416D02*
X85613403Y-91721097D01*
D18*
X87718900Y-96177100D02*
X87718900Y-95846900D01*
D19*
X75115420Y-93339920D02*
X70332598Y-93339920D01*
D18*
X87160100Y-95288100D02*
X85267800Y-95288100D01*
D19*
X83045195Y-92436208D02*
X83824978Y-91656425D01*
X87857574Y-86486487D02*
X87781887Y-86410800D01*
X87304410Y-88836068D02*
X87304410Y-92136508D01*
X85548731Y-91656425D02*
X85613403Y-91721097D01*
D18*
X85267800Y-95288100D02*
X84239100Y-96316800D01*
D17*
X89205425Y-117163910D02*
X91359010Y-117163910D01*
X100589620Y-117163910D02*
X91359010Y-117163910D01*
X98892360Y-113823382D02*
X100819977Y-115750999D01*
D18*
X87718900Y-95846900D02*
X87160100Y-95288100D01*
D19*
X87914480Y-88225998D02*
X87914480Y-88508840D01*
D17*
X101368201Y-115973871D02*
X101368201Y-116385329D01*
D19*
X87781887Y-86410800D02*
X87477600Y-86410800D01*
D18*
X77754897Y-91100057D02*
X77754897Y-91382899D01*
D17*
X93824514Y-113352751D02*
X93247381Y-113352751D01*
X98892360Y-113540540D02*
X95819484Y-113540540D01*
X101368201Y-116385329D02*
X100589620Y-117163910D01*
D18*
X76553060Y-93416120D02*
X75872340Y-94096840D01*
X77383640Y-91754156D02*
X77383640Y-92659200D01*
X85556212Y-85038852D02*
X85855850Y-84739214D01*
X87599520Y-119155082D02*
X87599520Y-118798340D01*
D17*
X100819977Y-115750999D02*
X101145329Y-115750999D01*
D18*
X78092300Y-96316800D02*
X75872340Y-94096840D01*
X85556212Y-85223652D02*
X85556212Y-85038852D01*
X84239100Y-96316800D02*
X78092300Y-96316800D01*
D17*
X94142570Y-113317537D02*
X93859728Y-113317537D01*
D18*
X88214200Y-96672400D02*
X87718900Y-96177100D01*
D19*
%TO.N,+1V8*%
X85729910Y-89750064D02*
X85728199Y-89748353D01*
X85728199Y-88432127D02*
X83506719Y-86210647D01*
D18*
X85729910Y-90221908D02*
X85729910Y-90523218D01*
D19*
X85728199Y-89748353D02*
X85728199Y-88432127D01*
X85729910Y-90221908D02*
X85729910Y-90494578D01*
X85729910Y-90494578D02*
X85181734Y-91042754D01*
D18*
X85729910Y-90523218D02*
X86417708Y-91211016D01*
D19*
X85729910Y-90221908D02*
X85729910Y-89750064D01*
D17*
%TO.N,/BL654_SWDIO*%
X76885863Y-89816772D02*
X76440386Y-89371295D01*
X78165971Y-90027101D02*
X77955642Y-89816772D01*
X85227508Y-89980754D02*
X85002130Y-90206132D01*
X83316033Y-89839487D02*
X78952597Y-89839487D01*
X73492360Y-92081208D02*
X73492360Y-92364050D01*
X76440386Y-89371295D02*
X76202273Y-89371295D01*
X76202273Y-89371295D02*
X73492360Y-92081208D01*
X85002130Y-90206132D02*
X83682678Y-90206132D01*
X77955642Y-89816772D02*
X76885863Y-89816772D01*
X78952597Y-89839487D02*
X78764983Y-90027101D01*
X78764983Y-90027101D02*
X78165971Y-90027101D01*
X83682678Y-90206132D02*
X83316033Y-89839487D01*
%TO.N,/BL654_SWDCLK*%
X77201434Y-90411086D02*
X76638561Y-90973959D01*
X83175805Y-90331912D02*
X78039715Y-90331912D01*
X83831939Y-90988046D02*
X83175805Y-90331912D01*
X77829386Y-90121583D02*
X77424306Y-90121583D01*
X78039715Y-90331912D02*
X77829386Y-90121583D01*
X75876097Y-90973959D02*
X74599800Y-92250256D01*
X77201434Y-90344455D02*
X77201434Y-90411086D01*
X76638561Y-90973959D02*
X75876097Y-90973959D01*
X77424306Y-90121583D02*
X77201434Y-90344455D01*
%TO.N,Net-(R8-Pad1)*%
X95532398Y-118774936D02*
X95532398Y-120489108D01*
X95532398Y-120489108D02*
X94377716Y-121643790D01*
%TO.N,/RLDIN*%
X94133515Y-118811197D02*
X94133515Y-119157627D01*
X93493620Y-118171302D02*
X94133515Y-118811197D01*
X89232363Y-118171302D02*
X93493620Y-118171302D01*
X89032364Y-117971303D02*
X89232363Y-118171302D01*
%TO.N,/ADS_SPI_SCLK*%
X93286915Y-91621408D02*
X92088690Y-92819633D01*
X93790732Y-91398536D02*
X93567860Y-91621408D01*
X91398932Y-92819633D02*
X90517965Y-93700600D01*
X93758934Y-90955278D02*
X93790732Y-90987076D01*
X85574865Y-93700600D02*
X84033092Y-92158827D01*
X93567860Y-91621408D02*
X93286915Y-91621408D01*
X93790732Y-90987076D02*
X93790732Y-91398536D01*
X93758934Y-88338012D02*
X93758934Y-90955278D01*
X90517965Y-93700600D02*
X85574865Y-93700600D01*
X92088690Y-92819633D02*
X91398932Y-92819633D01*
%TO.N,/ADS_SPI_MISO*%
X91247277Y-92514822D02*
X90894072Y-92868027D01*
X85700144Y-92868027D02*
X85037903Y-92205786D01*
X90894072Y-92868027D02*
X85700144Y-92868027D01*
X91757272Y-92514822D02*
X91247277Y-92514822D01*
X93362130Y-91192806D02*
X93079288Y-91192806D01*
X93079288Y-91192806D02*
X91757272Y-92514822D01*
%TO.N,/BL654_I2S_SCK_EXT*%
X93976135Y-115329915D02*
X99186611Y-115329915D01*
X92049611Y-113403391D02*
X93976135Y-115329915D01*
X89633833Y-113740305D02*
X89970747Y-113403391D01*
X89633833Y-114023147D02*
X89487972Y-114169008D01*
X89633833Y-113740305D02*
X89633833Y-114023147D01*
X89487972Y-114169008D02*
X86030888Y-114169008D01*
X85911093Y-114049213D02*
X85911093Y-113794140D01*
X86030888Y-114169008D02*
X85911093Y-114049213D01*
X89970747Y-113403391D02*
X92049611Y-113403391D01*
%TO.N,/BL654_I2S_WS_EXT*%
X93957132Y-114777512D02*
X99189637Y-114777512D01*
X92278200Y-113098580D02*
X93957132Y-114777512D01*
X89440407Y-113098580D02*
X92278200Y-113098580D01*
X89081422Y-113457565D02*
X89440407Y-113098580D01*
X89081422Y-113740407D02*
X89081422Y-113457565D01*
%TO.N,/ECG_RIGHT_ARM*%
X87516960Y-117145340D02*
X87516960Y-116439960D01*
X87684988Y-116271932D02*
X99220381Y-116271932D01*
X87516960Y-116439960D02*
X87684988Y-116271932D01*
X99220381Y-116271932D02*
X99458176Y-116509727D01*
%TO.N,/VDIV*%
X94648668Y-88866421D02*
X94690740Y-88824349D01*
X95505154Y-91288209D02*
X95505154Y-90134365D01*
X91899203Y-94894160D02*
X95505154Y-91288209D01*
X94690740Y-88824349D02*
X94690740Y-84804936D01*
X94690740Y-84804936D02*
X92682573Y-82796769D01*
X95505154Y-90134365D02*
X94648668Y-89277879D01*
X94648668Y-89277879D02*
X94648668Y-88866421D01*
X92682573Y-82796769D02*
X92399731Y-82796769D01*
X91028760Y-94894160D02*
X91899203Y-94894160D01*
%TD*%
%TA.AperFunction,Conductor*%
%TO.N,+3V3*%
G36*
X79287753Y-91075359D02*
G01*
X79228377Y-91164222D01*
X79074742Y-91164222D01*
X78913422Y-91196311D01*
X78761461Y-91259255D01*
X78624701Y-91350635D01*
X78527394Y-91447942D01*
X78517588Y-91445991D01*
X78353108Y-91445991D01*
X78191788Y-91478080D01*
X78039827Y-91541024D01*
X77903067Y-91632404D01*
X77786761Y-91748710D01*
X77695381Y-91885470D01*
X77632437Y-92037431D01*
X77600348Y-92198751D01*
X77600348Y-92363231D01*
X77632437Y-92524551D01*
X77695381Y-92676512D01*
X77786761Y-92813272D01*
X77903067Y-92929578D01*
X78039827Y-93020958D01*
X78191788Y-93083902D01*
X78199808Y-93085497D01*
X78156618Y-93189768D01*
X78059200Y-93679524D01*
X78059200Y-93687765D01*
X77922156Y-93596195D01*
X77733798Y-93518174D01*
X77533839Y-93478400D01*
X77329961Y-93478400D01*
X77130002Y-93518174D01*
X76941644Y-93596195D01*
X76772126Y-93709463D01*
X76627963Y-93853626D01*
X76514695Y-94023144D01*
X76436674Y-94211502D01*
X76396900Y-94411461D01*
X76396900Y-94615339D01*
X76436674Y-94815298D01*
X76514695Y-95003656D01*
X76627963Y-95173174D01*
X76772126Y-95317337D01*
X76941644Y-95430605D01*
X77130002Y-95508626D01*
X77329961Y-95548400D01*
X77533839Y-95548400D01*
X77733798Y-95508626D01*
X77922156Y-95430605D01*
X78091674Y-95317337D01*
X78235837Y-95173174D01*
X78315946Y-95053283D01*
X78347712Y-95129973D01*
X78625137Y-95545168D01*
X78978232Y-95898263D01*
X79393427Y-96175688D01*
X79854768Y-96366782D01*
X80344524Y-96464200D01*
X80843876Y-96464200D01*
X81333632Y-96366782D01*
X81794973Y-96175688D01*
X81795797Y-96175137D01*
X81873063Y-96290774D01*
X82017226Y-96434937D01*
X82186744Y-96548205D01*
X82375102Y-96626226D01*
X82575061Y-96666000D01*
X82778939Y-96666000D01*
X82978898Y-96626226D01*
X83167256Y-96548205D01*
X83336774Y-96434937D01*
X83480937Y-96290774D01*
X83594205Y-96121256D01*
X83672226Y-95932898D01*
X83712000Y-95732939D01*
X83712000Y-95726560D01*
X88242800Y-95726560D01*
X88242800Y-95891040D01*
X88274889Y-96052360D01*
X88337833Y-96204321D01*
X88429213Y-96341081D01*
X88545519Y-96457387D01*
X88682279Y-96548767D01*
X88834240Y-96611711D01*
X88995560Y-96643800D01*
X89160040Y-96643800D01*
X89321360Y-96611711D01*
X89473321Y-96548767D01*
X89610081Y-96457387D01*
X89726387Y-96341081D01*
X89817767Y-96204321D01*
X89880711Y-96052360D01*
X89912800Y-95891040D01*
X89912800Y-95726560D01*
X89880711Y-95565240D01*
X89817767Y-95413279D01*
X89726387Y-95276519D01*
X89610081Y-95160213D01*
X89473321Y-95068833D01*
X89321360Y-95005889D01*
X89160040Y-94973800D01*
X88995560Y-94973800D01*
X88834240Y-95005889D01*
X88682279Y-95068833D01*
X88545519Y-95160213D01*
X88429213Y-95276519D01*
X88337833Y-95413279D01*
X88274889Y-95565240D01*
X88242800Y-95726560D01*
X83712000Y-95726560D01*
X83712000Y-95529061D01*
X83672226Y-95329102D01*
X83594205Y-95140744D01*
X83480937Y-94971226D01*
X83336774Y-94827063D01*
X83167256Y-94713795D01*
X83033795Y-94658513D01*
X83129200Y-94178876D01*
X83129200Y-93679524D01*
X83031782Y-93189768D01*
X82840688Y-92728427D01*
X82563263Y-92313232D01*
X82210168Y-91960137D01*
X82173595Y-91935700D01*
X82258413Y-91900567D01*
X82395173Y-91809187D01*
X82469952Y-91734408D01*
X82624671Y-91734408D01*
X82785991Y-91702319D01*
X82937952Y-91639375D01*
X83074712Y-91547995D01*
X83150919Y-91471788D01*
X83183352Y-91520327D01*
X83299658Y-91636633D01*
X83353657Y-91672714D01*
X83293125Y-91763306D01*
X83230181Y-91915267D01*
X83198092Y-92076587D01*
X83198092Y-92241067D01*
X83230181Y-92402387D01*
X83293125Y-92554348D01*
X83384505Y-92691108D01*
X83500811Y-92807414D01*
X83637571Y-92898794D01*
X83789532Y-92961738D01*
X83840318Y-92971840D01*
X85047272Y-94178796D01*
X85069538Y-94205927D01*
X85096669Y-94228193D01*
X85096673Y-94228197D01*
X85177832Y-94294802D01*
X85301384Y-94360842D01*
X85435445Y-94401509D01*
X85539929Y-94411800D01*
X85539938Y-94411800D01*
X85574864Y-94415240D01*
X85609790Y-94411800D01*
X90346817Y-94411800D01*
X90288793Y-94498639D01*
X90225849Y-94650600D01*
X90193760Y-94811920D01*
X90193760Y-94976400D01*
X90225849Y-95137720D01*
X90288793Y-95289681D01*
X90380173Y-95426441D01*
X90496479Y-95542747D01*
X90633239Y-95634127D01*
X90785200Y-95697071D01*
X90946520Y-95729160D01*
X91111000Y-95729160D01*
X91272320Y-95697071D01*
X91424281Y-95634127D01*
X91467334Y-95605360D01*
X91713324Y-95605360D01*
X91716595Y-95613256D01*
X91829863Y-95782774D01*
X91974026Y-95926937D01*
X92143544Y-96040205D01*
X92331902Y-96118226D01*
X92531861Y-96158000D01*
X92735739Y-96158000D01*
X92811724Y-96142886D01*
X92873992Y-96236076D01*
X92990298Y-96352382D01*
X93127058Y-96443762D01*
X93279019Y-96506706D01*
X93440339Y-96538795D01*
X93604819Y-96538795D01*
X93766139Y-96506706D01*
X93918100Y-96443762D01*
X94054860Y-96352382D01*
X94171166Y-96236076D01*
X94262546Y-96099316D01*
X94325490Y-95947355D01*
X94357579Y-95786035D01*
X94357579Y-95621555D01*
X94325490Y-95460235D01*
X94262546Y-95308274D01*
X94171166Y-95171514D01*
X94054860Y-95055208D01*
X93918100Y-94963828D01*
X93766139Y-94900884D01*
X93639901Y-94875773D01*
X93629026Y-94821102D01*
X93551005Y-94632744D01*
X93437737Y-94463226D01*
X93386831Y-94412320D01*
X94321178Y-93477972D01*
X94383619Y-93519694D01*
X94535580Y-93582638D01*
X94696900Y-93614727D01*
X94750339Y-93614727D01*
X94773599Y-93637987D01*
X94910359Y-93729367D01*
X95062320Y-93792311D01*
X95223640Y-93824400D01*
X95388120Y-93824400D01*
X95549440Y-93792311D01*
X95701401Y-93729367D01*
X95838161Y-93637987D01*
X95954467Y-93521681D01*
X96045847Y-93384921D01*
X96108791Y-93232960D01*
X96140880Y-93071640D01*
X96140880Y-92907160D01*
X96108791Y-92745840D01*
X96045847Y-92593879D01*
X96035616Y-92578567D01*
X96103406Y-92646357D01*
X96240166Y-92737737D01*
X96392127Y-92800681D01*
X96553447Y-92832770D01*
X96717927Y-92832770D01*
X96879247Y-92800681D01*
X97031208Y-92737737D01*
X97167968Y-92646357D01*
X97284274Y-92530051D01*
X97375654Y-92393291D01*
X97438598Y-92241330D01*
X97470687Y-92080010D01*
X97470687Y-91978989D01*
X97472229Y-91978989D01*
X97625611Y-91948479D01*
X97714919Y-92037787D01*
X97851679Y-92129167D01*
X98003640Y-92192111D01*
X98164960Y-92224200D01*
X98329440Y-92224200D01*
X98490760Y-92192111D01*
X98642721Y-92129167D01*
X98779481Y-92037787D01*
X98894900Y-91922368D01*
X99010319Y-92037787D01*
X99147079Y-92129167D01*
X99299040Y-92192111D01*
X99460360Y-92224200D01*
X99624840Y-92224200D01*
X99786160Y-92192111D01*
X99938121Y-92129167D01*
X100074881Y-92037787D01*
X100190300Y-91922368D01*
X100305719Y-92037787D01*
X100442479Y-92129167D01*
X100594440Y-92192111D01*
X100755760Y-92224200D01*
X100920240Y-92224200D01*
X101081560Y-92192111D01*
X101233521Y-92129167D01*
X101370281Y-92037787D01*
X101485700Y-91922368D01*
X101601119Y-92037787D01*
X101737879Y-92129167D01*
X101889840Y-92192111D01*
X102051160Y-92224200D01*
X102215640Y-92224200D01*
X102376960Y-92192111D01*
X102528921Y-92129167D01*
X102665681Y-92037787D01*
X102781987Y-91921481D01*
X102873367Y-91784721D01*
X102895801Y-91730561D01*
X102895801Y-95420912D01*
X102868985Y-95694405D01*
X102798933Y-95926426D01*
X102685150Y-96140422D01*
X102531969Y-96328239D01*
X102345224Y-96482729D01*
X102132031Y-96598002D01*
X101900501Y-96669672D01*
X101629076Y-96698200D01*
X75733212Y-96698200D01*
X75752300Y-96602240D01*
X75752300Y-96437760D01*
X75720211Y-96276440D01*
X75657267Y-96124479D01*
X75565887Y-95987719D01*
X75449581Y-95871413D01*
X75312821Y-95780033D01*
X75160860Y-95717089D01*
X74999540Y-95685000D01*
X74835060Y-95685000D01*
X74673740Y-95717089D01*
X74521779Y-95780033D01*
X74385019Y-95871413D01*
X74268713Y-95987719D01*
X74177333Y-96124479D01*
X74114389Y-96276440D01*
X74082300Y-96437760D01*
X74082300Y-96602240D01*
X74101388Y-96698200D01*
X73023060Y-96698200D01*
X73047200Y-96576840D01*
X73047200Y-96412360D01*
X73015111Y-96251040D01*
X72952167Y-96099079D01*
X72860787Y-95962319D01*
X72744481Y-95846013D01*
X72607721Y-95754633D01*
X72487065Y-95704656D01*
X72547781Y-95664087D01*
X72664087Y-95547781D01*
X72755467Y-95411021D01*
X72818411Y-95259060D01*
X72850500Y-95097740D01*
X72850500Y-94933260D01*
X72818411Y-94771940D01*
X72755467Y-94619979D01*
X72664087Y-94483219D01*
X72547781Y-94366913D01*
X72466412Y-94312544D01*
X72466412Y-94234849D01*
X72434323Y-94073529D01*
X72371379Y-93921568D01*
X72347228Y-93885422D01*
X73857862Y-93885422D01*
X73857862Y-94049902D01*
X73889951Y-94211222D01*
X73952895Y-94363183D01*
X74044275Y-94499943D01*
X74160581Y-94616249D01*
X74297341Y-94707629D01*
X74449302Y-94770573D01*
X74610622Y-94802662D01*
X74775102Y-94802662D01*
X74936422Y-94770573D01*
X75088383Y-94707629D01*
X75225143Y-94616249D01*
X75341449Y-94499943D01*
X75432829Y-94363183D01*
X75495773Y-94211222D01*
X75527862Y-94049902D01*
X75527862Y-93885422D01*
X75495773Y-93724102D01*
X75432829Y-93572141D01*
X75341449Y-93435381D01*
X75225143Y-93319075D01*
X75088383Y-93227695D01*
X74936422Y-93164751D01*
X74775102Y-93132662D01*
X74610622Y-93132662D01*
X74449302Y-93164751D01*
X74297341Y-93227695D01*
X74160581Y-93319075D01*
X74044275Y-93435381D01*
X73952895Y-93572141D01*
X73889951Y-93724102D01*
X73857862Y-93885422D01*
X72347228Y-93885422D01*
X72279999Y-93784808D01*
X72163693Y-93668502D01*
X72026933Y-93577122D01*
X71874972Y-93514178D01*
X71713652Y-93482089D01*
X71549172Y-93482089D01*
X71387852Y-93514178D01*
X71235891Y-93577122D01*
X71099131Y-93668502D01*
X70982825Y-93784808D01*
X70891445Y-93921568D01*
X70828501Y-94073529D01*
X70796412Y-94234849D01*
X70796412Y-94399329D01*
X70828501Y-94560649D01*
X70891445Y-94712610D01*
X70982825Y-94849370D01*
X71099131Y-94965676D01*
X71180500Y-95020045D01*
X71180500Y-95097740D01*
X71212589Y-95259060D01*
X71275533Y-95411021D01*
X71366913Y-95547781D01*
X71483219Y-95664087D01*
X71619979Y-95755467D01*
X71740635Y-95805444D01*
X71679919Y-95846013D01*
X71563613Y-95962319D01*
X71472233Y-96099079D01*
X71409289Y-96251040D01*
X71377200Y-96412360D01*
X71377200Y-96576840D01*
X71401340Y-96698200D01*
X71175608Y-96698200D01*
X71202398Y-96563519D01*
X71202398Y-96359641D01*
X71162624Y-96159682D01*
X71084603Y-95971324D01*
X70971335Y-95801806D01*
X70903654Y-95734125D01*
X70924987Y-95626880D01*
X70924987Y-95462400D01*
X70892898Y-95301080D01*
X70829954Y-95149119D01*
X70738574Y-95012359D01*
X70622268Y-94896053D01*
X70485508Y-94804673D01*
X70333547Y-94741729D01*
X70172227Y-94709640D01*
X70007747Y-94709640D01*
X69846427Y-94741729D01*
X69694466Y-94804673D01*
X69557706Y-94896053D01*
X69441400Y-95012359D01*
X69350020Y-95149119D01*
X69287076Y-95301080D01*
X69254987Y-95462400D01*
X69254987Y-95626880D01*
X69287076Y-95788200D01*
X69319786Y-95867170D01*
X69250193Y-95971324D01*
X69172172Y-96159682D01*
X69132398Y-96359641D01*
X69132398Y-96511913D01*
X69086578Y-96487550D01*
X68898761Y-96334369D01*
X68744271Y-96147624D01*
X68628998Y-95934431D01*
X68557328Y-95702901D01*
X68528800Y-95431476D01*
X68528800Y-91656497D01*
X68695308Y-91793146D01*
X68905513Y-91905503D01*
X69133599Y-91974692D01*
X69311363Y-91992200D01*
X69514068Y-91992200D01*
X69466189Y-92107790D01*
X69434100Y-92269110D01*
X69434100Y-92433590D01*
X69466189Y-92594910D01*
X69529133Y-92746871D01*
X69620513Y-92883631D01*
X69736819Y-92999937D01*
X69873579Y-93091317D01*
X70025540Y-93154261D01*
X70186860Y-93186350D01*
X70351340Y-93186350D01*
X70512660Y-93154261D01*
X70664621Y-93091317D01*
X70801381Y-92999937D01*
X70917687Y-92883631D01*
X71009067Y-92746871D01*
X71072011Y-92594910D01*
X71104100Y-92433590D01*
X71104100Y-92269110D01*
X71072011Y-92107790D01*
X71009067Y-91955829D01*
X70977235Y-91908188D01*
X70986087Y-91905503D01*
X71196292Y-91793146D01*
X71380539Y-91641939D01*
X71445800Y-91562418D01*
X71511061Y-91641939D01*
X71555880Y-91678721D01*
X71519899Y-91702763D01*
X71403593Y-91819069D01*
X71312213Y-91955829D01*
X71249269Y-92107790D01*
X71217180Y-92269110D01*
X71217180Y-92433590D01*
X71249269Y-92594910D01*
X71312213Y-92746871D01*
X71403593Y-92883631D01*
X71519899Y-92999937D01*
X71656659Y-93091317D01*
X71808620Y-93154261D01*
X71969940Y-93186350D01*
X72134420Y-93186350D01*
X72295740Y-93154261D01*
X72447701Y-93091317D01*
X72584461Y-92999937D01*
X72700767Y-92883631D01*
X72768027Y-92782969D01*
X72843773Y-92896331D01*
X72960079Y-93012637D01*
X73096839Y-93104017D01*
X73248800Y-93166961D01*
X73410120Y-93199050D01*
X73574600Y-93199050D01*
X73735920Y-93166961D01*
X73887881Y-93104017D01*
X74024641Y-93012637D01*
X74110030Y-92927248D01*
X74204279Y-92990223D01*
X74356240Y-93053167D01*
X74517560Y-93085256D01*
X74682040Y-93085256D01*
X74843360Y-93053167D01*
X74995321Y-92990223D01*
X75132081Y-92898843D01*
X75248387Y-92782537D01*
X75339767Y-92645777D01*
X75358435Y-92600708D01*
X75418877Y-92661150D01*
X75588395Y-92774418D01*
X75776753Y-92852439D01*
X75976712Y-92892213D01*
X76180590Y-92892213D01*
X76380549Y-92852439D01*
X76568907Y-92774418D01*
X76738425Y-92661150D01*
X76882588Y-92516987D01*
X76995856Y-92347469D01*
X77073877Y-92159111D01*
X77113651Y-91959152D01*
X77113651Y-91755274D01*
X77073877Y-91555315D01*
X77068136Y-91541455D01*
X77143888Y-91479286D01*
X77166162Y-91452145D01*
X77302926Y-91315382D01*
X77393974Y-91353095D01*
X77555294Y-91385184D01*
X77719774Y-91385184D01*
X77881094Y-91353095D01*
X78033055Y-91290151D01*
X78169815Y-91198771D01*
X78286121Y-91082465D01*
X78312416Y-91043112D01*
X79320000Y-91043112D01*
X79287753Y-91075359D01*
G37*
%TD.AperFunction*%
%TA.AperFunction,Conductor*%
G36*
X86465313Y-81355350D02*
G01*
X86465313Y-81519830D01*
X86497402Y-81681150D01*
X86560346Y-81833111D01*
X86651726Y-81969871D01*
X86768032Y-82086177D01*
X86904792Y-82177557D01*
X87056753Y-82240501D01*
X87218073Y-82272590D01*
X87382553Y-82272590D01*
X87543873Y-82240501D01*
X87695834Y-82177557D01*
X87832594Y-82086177D01*
X87948900Y-81969871D01*
X88040280Y-81833111D01*
X88103224Y-81681150D01*
X88135313Y-81519830D01*
X88135313Y-81355350D01*
X88115193Y-81254200D01*
X97967800Y-81254200D01*
X97967800Y-88265232D01*
X97953981Y-88251413D01*
X97817221Y-88160033D01*
X97665260Y-88097089D01*
X97503940Y-88065000D01*
X97339460Y-88065000D01*
X97178140Y-88097089D01*
X97026179Y-88160033D01*
X96889419Y-88251413D01*
X96773113Y-88367719D01*
X96704111Y-88470988D01*
X96670097Y-88420082D01*
X96553791Y-88303776D01*
X96417031Y-88212396D01*
X96265070Y-88149452D01*
X96175785Y-88131692D01*
X96068325Y-88024232D01*
X95931565Y-87932852D01*
X95779604Y-87869908D01*
X95618284Y-87837819D01*
X95453804Y-87837819D01*
X95401940Y-87848136D01*
X95401940Y-84839861D01*
X95405380Y-84804935D01*
X95401940Y-84770009D01*
X95401940Y-84770000D01*
X95391649Y-84665516D01*
X95350982Y-84531455D01*
X95284942Y-84407903D01*
X95196067Y-84299609D01*
X95168931Y-84277339D01*
X95145320Y-84253728D01*
X95323298Y-84218326D01*
X95511656Y-84140305D01*
X95681174Y-84027037D01*
X95825337Y-83882874D01*
X95938605Y-83713356D01*
X96016626Y-83524998D01*
X96056400Y-83325039D01*
X96056400Y-83121161D01*
X96016626Y-82921202D01*
X95938605Y-82732844D01*
X95825337Y-82563326D01*
X95681174Y-82419163D01*
X95511656Y-82305895D01*
X95323298Y-82227874D01*
X95123339Y-82188100D01*
X94919461Y-82188100D01*
X94719502Y-82227874D01*
X94531144Y-82305895D01*
X94361626Y-82419163D01*
X94217463Y-82563326D01*
X94104195Y-82732844D01*
X94026174Y-82921202D01*
X93990772Y-83099181D01*
X93210175Y-82318584D01*
X93187900Y-82291442D01*
X93079606Y-82202567D01*
X92956054Y-82136527D01*
X92880075Y-82113479D01*
X92795252Y-82056802D01*
X92643291Y-81993858D01*
X92481971Y-81961769D01*
X92317491Y-81961769D01*
X92156171Y-81993858D01*
X92004210Y-82056802D01*
X91867450Y-82148182D01*
X91751144Y-82264488D01*
X91659764Y-82401248D01*
X91596820Y-82553209D01*
X91564731Y-82714529D01*
X91564731Y-82879009D01*
X91596820Y-83040329D01*
X91659764Y-83192290D01*
X91751144Y-83329050D01*
X91867450Y-83445356D01*
X92004210Y-83536736D01*
X92156171Y-83599680D01*
X92214660Y-83611314D01*
X92179310Y-83696657D01*
X92147221Y-83857977D01*
X92147221Y-84022457D01*
X92179310Y-84183777D01*
X92242254Y-84335738D01*
X92333634Y-84472498D01*
X92449940Y-84588804D01*
X92586700Y-84680184D01*
X92738661Y-84743128D01*
X92899981Y-84775217D01*
X93064461Y-84775217D01*
X93225781Y-84743128D01*
X93377742Y-84680184D01*
X93487118Y-84607101D01*
X93979541Y-85099525D01*
X93979540Y-87530535D01*
X93841174Y-87503012D01*
X93676694Y-87503012D01*
X93515374Y-87535101D01*
X93363413Y-87598045D01*
X93226653Y-87689425D01*
X93110347Y-87805731D01*
X93022714Y-87936883D01*
X92899981Y-87936883D01*
X92738661Y-87968972D01*
X92586700Y-88031916D01*
X92449940Y-88123296D01*
X92333634Y-88239602D01*
X92242254Y-88376362D01*
X92179310Y-88528323D01*
X92147221Y-88689643D01*
X92147221Y-88854123D01*
X92179310Y-89015443D01*
X92242254Y-89167404D01*
X92333634Y-89304164D01*
X92449940Y-89420470D01*
X92586700Y-89511850D01*
X92738661Y-89574794D01*
X92899981Y-89606883D01*
X93047734Y-89606883D01*
X93047735Y-90419236D01*
X92966609Y-90452839D01*
X92881786Y-90509516D01*
X92805807Y-90532564D01*
X92682255Y-90598604D01*
X92584213Y-90679065D01*
X92561991Y-90645807D01*
X92431757Y-90515573D01*
X92278618Y-90413249D01*
X92108458Y-90342767D01*
X91927818Y-90306835D01*
X91743640Y-90306835D01*
X91563000Y-90342767D01*
X91426685Y-90399230D01*
X91304529Y-90348632D01*
X91123889Y-90312700D01*
X90939711Y-90312700D01*
X90759071Y-90348632D01*
X90588911Y-90419114D01*
X90527510Y-90460141D01*
X90392365Y-90404162D01*
X90231045Y-90372073D01*
X90066565Y-90372073D01*
X89905245Y-90404162D01*
X89753284Y-90467106D01*
X89662779Y-90527580D01*
X89535154Y-90474716D01*
X89373834Y-90442627D01*
X89252537Y-90442627D01*
X89231656Y-90392215D01*
X89140276Y-90255455D01*
X89023970Y-90139149D01*
X88887210Y-90047769D01*
X88735249Y-89984825D01*
X88679379Y-89973712D01*
X88650900Y-89830540D01*
X88587956Y-89678579D01*
X88496576Y-89541819D01*
X88380270Y-89425513D01*
X88243510Y-89334133D01*
X88091549Y-89271189D01*
X87930229Y-89239100D01*
X87765749Y-89239100D01*
X87604429Y-89271189D01*
X87452468Y-89334133D01*
X87315708Y-89425513D01*
X87209185Y-89532036D01*
X87155907Y-89452299D01*
X87039601Y-89335993D01*
X86902841Y-89244613D01*
X86750880Y-89181669D01*
X86589560Y-89149580D01*
X86513199Y-89149580D01*
X86513199Y-88821830D01*
X86619238Y-88800737D01*
X86771199Y-88737793D01*
X86907959Y-88646413D01*
X87024265Y-88530107D01*
X87115645Y-88393347D01*
X87178589Y-88241386D01*
X87210678Y-88080066D01*
X87210678Y-87915586D01*
X87178589Y-87754266D01*
X87115645Y-87602305D01*
X87024265Y-87465545D01*
X86907959Y-87349239D01*
X86885962Y-87334541D01*
X87023046Y-87277759D01*
X87159806Y-87186379D01*
X87207765Y-87138420D01*
X87236216Y-87281448D01*
X87299160Y-87433409D01*
X87390540Y-87570169D01*
X87506846Y-87686475D01*
X87643606Y-87777855D01*
X87795567Y-87840799D01*
X87956887Y-87872888D01*
X88121367Y-87872888D01*
X88282687Y-87840799D01*
X88434648Y-87777855D01*
X88571408Y-87686475D01*
X88687714Y-87570169D01*
X88779094Y-87433409D01*
X88842038Y-87281448D01*
X88874127Y-87120128D01*
X88874127Y-86955648D01*
X88842038Y-86794328D01*
X88779094Y-86642367D01*
X88687714Y-86505607D01*
X88627513Y-86445406D01*
X88746295Y-86396205D01*
X88883055Y-86304825D01*
X88999361Y-86188519D01*
X89090741Y-86051759D01*
X89153685Y-85899798D01*
X89185774Y-85738478D01*
X89185774Y-85642760D01*
X89185790Y-85642760D01*
X89185790Y-85807240D01*
X89217879Y-85968560D01*
X89280823Y-86120521D01*
X89372203Y-86257281D01*
X89488509Y-86373587D01*
X89625269Y-86464967D01*
X89708107Y-86499280D01*
X89706919Y-86501058D01*
X89643975Y-86653019D01*
X89611886Y-86814339D01*
X89611886Y-86978819D01*
X89643975Y-87140139D01*
X89706919Y-87292100D01*
X89798299Y-87428860D01*
X89914605Y-87545166D01*
X90051365Y-87636546D01*
X90203326Y-87699490D01*
X90294566Y-87717639D01*
X90207669Y-87753633D01*
X90070909Y-87845013D01*
X89954603Y-87961319D01*
X89863223Y-88098079D01*
X89831954Y-88173568D01*
X89824757Y-88175000D01*
X89672796Y-88237944D01*
X89536036Y-88329324D01*
X89419730Y-88445630D01*
X89328350Y-88582390D01*
X89265406Y-88734351D01*
X89233317Y-88895671D01*
X89233317Y-89060151D01*
X89265406Y-89221471D01*
X89328350Y-89373432D01*
X89419730Y-89510192D01*
X89536036Y-89626498D01*
X89672796Y-89717878D01*
X89824757Y-89780822D01*
X89986077Y-89812911D01*
X90150557Y-89812911D01*
X90239048Y-89795309D01*
X90372734Y-89850683D01*
X90534054Y-89882772D01*
X90698534Y-89882772D01*
X90859854Y-89850683D01*
X91011815Y-89787739D01*
X91148575Y-89696359D01*
X91264881Y-89580053D01*
X91356261Y-89443293D01*
X91419205Y-89291332D01*
X91451294Y-89130012D01*
X91451294Y-88965532D01*
X91419205Y-88804212D01*
X91398766Y-88754868D01*
X91406101Y-88737160D01*
X91438190Y-88575840D01*
X91438190Y-88411360D01*
X91406101Y-88250040D01*
X91343157Y-88098079D01*
X91251777Y-87961319D01*
X91135471Y-87845013D01*
X90998711Y-87753633D01*
X90846750Y-87690689D01*
X90755510Y-87672540D01*
X90842407Y-87636546D01*
X90979167Y-87545166D01*
X91095473Y-87428860D01*
X91186853Y-87292100D01*
X91249797Y-87140139D01*
X91281886Y-86978819D01*
X91281886Y-86814339D01*
X91249797Y-86653019D01*
X91186853Y-86501058D01*
X91095473Y-86364298D01*
X90979167Y-86247992D01*
X90842407Y-86156612D01*
X90759569Y-86122299D01*
X90760757Y-86120521D01*
X90823701Y-85968560D01*
X90854202Y-85815222D01*
X90930881Y-85763987D01*
X91047187Y-85647681D01*
X91138567Y-85510921D01*
X91201511Y-85358960D01*
X91233600Y-85197640D01*
X91233600Y-85033160D01*
X91201511Y-84871840D01*
X91138567Y-84719879D01*
X91047187Y-84583119D01*
X90980569Y-84516501D01*
X91038346Y-84430031D01*
X91101290Y-84278070D01*
X91133379Y-84116750D01*
X91133379Y-83952270D01*
X91101290Y-83790950D01*
X91038346Y-83638989D01*
X90946966Y-83502229D01*
X90830660Y-83385923D01*
X90693900Y-83294543D01*
X90541939Y-83231599D01*
X90380619Y-83199510D01*
X90216139Y-83199510D01*
X90054819Y-83231599D01*
X89902858Y-83294543D01*
X89766098Y-83385923D01*
X89649792Y-83502229D01*
X89558412Y-83638989D01*
X89495468Y-83790950D01*
X89463379Y-83952270D01*
X89463379Y-84116750D01*
X89495468Y-84278070D01*
X89558412Y-84430031D01*
X89649792Y-84566791D01*
X89716410Y-84633409D01*
X89658633Y-84719879D01*
X89595689Y-84871840D01*
X89565188Y-85025178D01*
X89488509Y-85076413D01*
X89372203Y-85192719D01*
X89280823Y-85329479D01*
X89217879Y-85481440D01*
X89185790Y-85642760D01*
X89185774Y-85642760D01*
X89185774Y-85573998D01*
X89153685Y-85412678D01*
X89090741Y-85260717D01*
X88999361Y-85123957D01*
X88883055Y-85007651D01*
X88746295Y-84916271D01*
X88594334Y-84853327D01*
X88433014Y-84821238D01*
X88268534Y-84821238D01*
X88107214Y-84853327D01*
X87955253Y-84916271D01*
X87818493Y-85007651D01*
X87702187Y-85123957D01*
X87610807Y-85260717D01*
X87547863Y-85412678D01*
X87515774Y-85573998D01*
X87515774Y-85738478D01*
X87547863Y-85899798D01*
X87610807Y-86051759D01*
X87702187Y-86188519D01*
X87762388Y-86248720D01*
X87643606Y-86297921D01*
X87506846Y-86389301D01*
X87458887Y-86437260D01*
X87430436Y-86294232D01*
X87367492Y-86142271D01*
X87276112Y-86005511D01*
X87159806Y-85889205D01*
X87023046Y-85797825D01*
X86871085Y-85734881D01*
X86765967Y-85713972D01*
X86793865Y-85573723D01*
X86793865Y-85409243D01*
X86761776Y-85247923D01*
X86698832Y-85095962D01*
X86607452Y-84959202D01*
X86491146Y-84842896D01*
X86354386Y-84751516D01*
X86202425Y-84688572D01*
X86041105Y-84656483D01*
X85876625Y-84656483D01*
X85715305Y-84688572D01*
X85563344Y-84751516D01*
X85481405Y-84806266D01*
X85478878Y-84793564D01*
X85415934Y-84641603D01*
X85324554Y-84504843D01*
X85208248Y-84388537D01*
X85071488Y-84297157D01*
X84919527Y-84234213D01*
X84758207Y-84202124D01*
X84593727Y-84202124D01*
X84432407Y-84234213D01*
X84389910Y-84251816D01*
X84249548Y-84193676D01*
X84088228Y-84161587D01*
X83923748Y-84161587D01*
X83762428Y-84193676D01*
X83610467Y-84256620D01*
X83473707Y-84348000D01*
X83357401Y-84464306D01*
X83266021Y-84601066D01*
X83203077Y-84753027D01*
X83176528Y-84886498D01*
X83086649Y-84826443D01*
X82934688Y-84763499D01*
X82773368Y-84731410D01*
X82608888Y-84731410D01*
X82447568Y-84763499D01*
X82295607Y-84826443D01*
X82158847Y-84917823D01*
X82042541Y-85034129D01*
X81951161Y-85170889D01*
X81888217Y-85322850D01*
X81862388Y-85452697D01*
X81818974Y-85470680D01*
X81682214Y-85562060D01*
X81565908Y-85678366D01*
X81474528Y-85815126D01*
X81411584Y-85967087D01*
X81379495Y-86128407D01*
X81379495Y-86292887D01*
X81411584Y-86454207D01*
X81474528Y-86606168D01*
X81565908Y-86742928D01*
X81682214Y-86859234D01*
X81818974Y-86950614D01*
X81970935Y-87013558D01*
X82132255Y-87045647D01*
X82296735Y-87045647D01*
X82458055Y-87013558D01*
X82610016Y-86950614D01*
X82713697Y-86881336D01*
X82846945Y-87014584D01*
X83016463Y-87127852D01*
X83204821Y-87205873D01*
X83404780Y-87245647D01*
X83431562Y-87245647D01*
X84060051Y-87874136D01*
X84001300Y-87862450D01*
X83836820Y-87862450D01*
X83675500Y-87894539D01*
X83523539Y-87957483D01*
X83386779Y-88048863D01*
X83270473Y-88165169D01*
X83179093Y-88301929D01*
X83116149Y-88453890D01*
X83084060Y-88615210D01*
X83084060Y-88779690D01*
X83116149Y-88941010D01*
X83179093Y-89092971D01*
X83202690Y-89128287D01*
X82757637Y-89128287D01*
X82759746Y-89125131D01*
X82822690Y-88973170D01*
X82854779Y-88811850D01*
X82854779Y-88647370D01*
X82822690Y-88486050D01*
X82759746Y-88334089D01*
X82668366Y-88197329D01*
X82552060Y-88081023D01*
X82415300Y-87989643D01*
X82263339Y-87926699D01*
X82102019Y-87894610D01*
X81937539Y-87894610D01*
X81776219Y-87926699D01*
X81767245Y-87930416D01*
X81721169Y-87819179D01*
X81629789Y-87682419D01*
X81513483Y-87566113D01*
X81376723Y-87474733D01*
X81224762Y-87411789D01*
X81063442Y-87379700D01*
X80898962Y-87379700D01*
X80737642Y-87411789D01*
X80585681Y-87474733D01*
X80448921Y-87566113D01*
X80332615Y-87682419D01*
X80241235Y-87819179D01*
X80178291Y-87971140D01*
X80146202Y-88132460D01*
X80146202Y-88296940D01*
X80178291Y-88458260D01*
X80241235Y-88610221D01*
X80332615Y-88746981D01*
X80448921Y-88863287D01*
X80585681Y-88954667D01*
X80737642Y-89017611D01*
X80898962Y-89049700D01*
X81063442Y-89049700D01*
X81224762Y-89017611D01*
X81233736Y-89013894D01*
X81279812Y-89125131D01*
X81281921Y-89128287D01*
X79087158Y-89128287D01*
X79045686Y-89066219D01*
X78929380Y-88949913D01*
X78792620Y-88858533D01*
X78640659Y-88795589D01*
X78479339Y-88763500D01*
X78314859Y-88763500D01*
X78153539Y-88795589D01*
X78112020Y-88812787D01*
X78052329Y-88668680D01*
X77939061Y-88499162D01*
X77794898Y-88354999D01*
X77625380Y-88241731D01*
X77437022Y-88163710D01*
X77237063Y-88123936D01*
X77208794Y-88123936D01*
X77241885Y-87957577D01*
X77241885Y-87753699D01*
X77202111Y-87553740D01*
X77124090Y-87365382D01*
X77010822Y-87195864D01*
X76866659Y-87051701D01*
X76697141Y-86938433D01*
X76620609Y-86906732D01*
X76637581Y-86881331D01*
X76700525Y-86729370D01*
X76732614Y-86568050D01*
X76732614Y-86403570D01*
X76700525Y-86242250D01*
X76677071Y-86185627D01*
X76706310Y-86115037D01*
X76738399Y-85953717D01*
X76738399Y-85789237D01*
X76735529Y-85774811D01*
X76840044Y-85844645D01*
X77028402Y-85922666D01*
X77228361Y-85962440D01*
X77432239Y-85962440D01*
X77566064Y-85935821D01*
X77640683Y-86010440D01*
X77810201Y-86123708D01*
X77998559Y-86201729D01*
X78198518Y-86241503D01*
X78402396Y-86241503D01*
X78602355Y-86201729D01*
X78790713Y-86123708D01*
X78960231Y-86010440D01*
X79104394Y-85866277D01*
X79217662Y-85696759D01*
X79295683Y-85508401D01*
X79335457Y-85308442D01*
X79335457Y-85104564D01*
X79295683Y-84904605D01*
X79217662Y-84716247D01*
X79104394Y-84546729D01*
X78986380Y-84428715D01*
X79023237Y-84391858D01*
X79136505Y-84222340D01*
X79214526Y-84033982D01*
X79254300Y-83834023D01*
X79254300Y-83630145D01*
X79214526Y-83430186D01*
X79136505Y-83241828D01*
X79023237Y-83072310D01*
X78879074Y-82928147D01*
X78730737Y-82829031D01*
X81567569Y-82829031D01*
X81567569Y-82993511D01*
X81599658Y-83154831D01*
X81662602Y-83306792D01*
X81753982Y-83443552D01*
X81870288Y-83559858D01*
X82007048Y-83651238D01*
X82159009Y-83714182D01*
X82320329Y-83746271D01*
X82484809Y-83746271D01*
X82646129Y-83714182D01*
X82798090Y-83651238D01*
X82934850Y-83559858D01*
X83051156Y-83443552D01*
X83142536Y-83306792D01*
X83149430Y-83290148D01*
X85213230Y-83290148D01*
X85213230Y-83454628D01*
X85245319Y-83615948D01*
X85308263Y-83767909D01*
X85399643Y-83904669D01*
X85515949Y-84020975D01*
X85652709Y-84112355D01*
X85804670Y-84175299D01*
X85965990Y-84207388D01*
X86130470Y-84207388D01*
X86291790Y-84175299D01*
X86443751Y-84112355D01*
X86580511Y-84020975D01*
X86696817Y-83904669D01*
X86788197Y-83767909D01*
X86800717Y-83737681D01*
X86921740Y-83737681D01*
X86921740Y-83902161D01*
X86953829Y-84063481D01*
X87016773Y-84215442D01*
X87108153Y-84352202D01*
X87224459Y-84468508D01*
X87361219Y-84559888D01*
X87513180Y-84622832D01*
X87674500Y-84654921D01*
X87790507Y-84654921D01*
X87889579Y-84721119D01*
X88041540Y-84784063D01*
X88202860Y-84816152D01*
X88367340Y-84816152D01*
X88528660Y-84784063D01*
X88680621Y-84721119D01*
X88817381Y-84629739D01*
X88933687Y-84513433D01*
X89025067Y-84376673D01*
X89088011Y-84224712D01*
X89120100Y-84063392D01*
X89120100Y-83898912D01*
X89088011Y-83737592D01*
X89025067Y-83585631D01*
X88933687Y-83448871D01*
X88817381Y-83332565D01*
X88680621Y-83241185D01*
X88528660Y-83178241D01*
X88367340Y-83146152D01*
X88251333Y-83146152D01*
X88152261Y-83079954D01*
X88000300Y-83017010D01*
X87838980Y-82984921D01*
X87674500Y-82984921D01*
X87513180Y-83017010D01*
X87361219Y-83079954D01*
X87224459Y-83171334D01*
X87108153Y-83287640D01*
X87016773Y-83424400D01*
X86953829Y-83576361D01*
X86921740Y-83737681D01*
X86800717Y-83737681D01*
X86851141Y-83615948D01*
X86883230Y-83454628D01*
X86883230Y-83290148D01*
X86851141Y-83128828D01*
X86788197Y-82976867D01*
X86696817Y-82840107D01*
X86580511Y-82723801D01*
X86443751Y-82632421D01*
X86291790Y-82569477D01*
X86130470Y-82537388D01*
X85965990Y-82537388D01*
X85804670Y-82569477D01*
X85652709Y-82632421D01*
X85515949Y-82723801D01*
X85399643Y-82840107D01*
X85308263Y-82976867D01*
X85245319Y-83128828D01*
X85213230Y-83290148D01*
X83149430Y-83290148D01*
X83205480Y-83154831D01*
X83237569Y-82993511D01*
X83237569Y-82829031D01*
X83205480Y-82667711D01*
X83142536Y-82515750D01*
X83051156Y-82378990D01*
X82934850Y-82262684D01*
X82798090Y-82171304D01*
X82646129Y-82108360D01*
X82484809Y-82076271D01*
X82320329Y-82076271D01*
X82159009Y-82108360D01*
X82007048Y-82171304D01*
X81870288Y-82262684D01*
X81753982Y-82378990D01*
X81662602Y-82515750D01*
X81599658Y-82667711D01*
X81567569Y-82829031D01*
X78730737Y-82829031D01*
X78709556Y-82814879D01*
X78521198Y-82736858D01*
X78321239Y-82697084D01*
X78117361Y-82697084D01*
X77917402Y-82736858D01*
X77729044Y-82814879D01*
X77559526Y-82928147D01*
X77415363Y-83072310D01*
X77302095Y-83241828D01*
X77224074Y-83430186D01*
X77184300Y-83630145D01*
X77184300Y-83834023D01*
X77197154Y-83898647D01*
X77028402Y-83932214D01*
X76840044Y-84010235D01*
X76670526Y-84123503D01*
X76526363Y-84267666D01*
X76413095Y-84437184D01*
X76335074Y-84625542D01*
X76295300Y-84825501D01*
X76295300Y-85029379D01*
X76318174Y-85144375D01*
X76298920Y-85131510D01*
X76146959Y-85068566D01*
X75985639Y-85036477D01*
X75821159Y-85036477D01*
X75659839Y-85068566D01*
X75507878Y-85131510D01*
X75371118Y-85222890D01*
X75254812Y-85339196D01*
X75163432Y-85475956D01*
X75100488Y-85627917D01*
X75068399Y-85789237D01*
X75068399Y-85953717D01*
X75100488Y-86115037D01*
X75123942Y-86171660D01*
X75094703Y-86242250D01*
X75062614Y-86403570D01*
X75062614Y-86568050D01*
X75094703Y-86729370D01*
X75157647Y-86881331D01*
X75249027Y-87018091D01*
X75365333Y-87134397D01*
X75424728Y-87174084D01*
X75402948Y-87195864D01*
X75289680Y-87365382D01*
X75211659Y-87553740D01*
X75171885Y-87753699D01*
X75171885Y-87957577D01*
X75211659Y-88157536D01*
X75289680Y-88345894D01*
X75402948Y-88515412D01*
X75547111Y-88659575D01*
X75716629Y-88772843D01*
X75778959Y-88798661D01*
X75724082Y-88843697D01*
X75724077Y-88843702D01*
X75696946Y-88865968D01*
X75674680Y-88893099D01*
X75257195Y-89310584D01*
X75251927Y-89297865D01*
X75140027Y-89130395D01*
X74997605Y-88987973D01*
X74830135Y-88876073D01*
X74644052Y-88798995D01*
X74637923Y-88797776D01*
X74618908Y-88702178D01*
X74546541Y-88527469D01*
X74441481Y-88370236D01*
X74307764Y-88236519D01*
X74226470Y-88182200D01*
X74307764Y-88127881D01*
X74441481Y-87994164D01*
X74546541Y-87836931D01*
X74618908Y-87662222D01*
X74655800Y-87476752D01*
X74655800Y-87287648D01*
X74618908Y-87102178D01*
X74569211Y-86982200D01*
X74618908Y-86862222D01*
X74655800Y-86676752D01*
X74655800Y-86487648D01*
X74618908Y-86302178D01*
X74569211Y-86182200D01*
X74618908Y-86062222D01*
X74655800Y-85876752D01*
X74655800Y-85687648D01*
X74618908Y-85502178D01*
X74569211Y-85382200D01*
X74618908Y-85262222D01*
X74655800Y-85076752D01*
X74655800Y-84887648D01*
X74618908Y-84702178D01*
X74546541Y-84527469D01*
X74441481Y-84370236D01*
X74307764Y-84236519D01*
X74226470Y-84182200D01*
X74307764Y-84127881D01*
X74441481Y-83994164D01*
X74546541Y-83836931D01*
X74618908Y-83662222D01*
X74637923Y-83566624D01*
X74644052Y-83565405D01*
X74830135Y-83488327D01*
X74997605Y-83376427D01*
X75140027Y-83234005D01*
X75251927Y-83066535D01*
X75329005Y-82880452D01*
X75368300Y-82682907D01*
X75368300Y-82481493D01*
X75329005Y-82283948D01*
X75251927Y-82097865D01*
X75140027Y-81930395D01*
X74997605Y-81787973D01*
X74830135Y-81676073D01*
X74731435Y-81635190D01*
X74736654Y-81582200D01*
X74713292Y-81344999D01*
X74685748Y-81254200D01*
X86485433Y-81254200D01*
X86465313Y-81355350D01*
G37*
%TD.AperFunction*%
%TA.AperFunction,Conductor*%
G36*
X85155954Y-85735043D02*
G01*
X85218898Y-85887004D01*
X85310278Y-86023764D01*
X85426584Y-86140070D01*
X85563344Y-86231450D01*
X85715305Y-86294394D01*
X85820423Y-86315303D01*
X85792525Y-86455552D01*
X85792525Y-86620032D01*
X85824614Y-86781352D01*
X85887558Y-86933313D01*
X85978938Y-87070073D01*
X86095244Y-87186379D01*
X86117241Y-87201077D01*
X85980157Y-87257859D01*
X85843397Y-87349239D01*
X85799433Y-87393203D01*
X84541719Y-86135490D01*
X84541719Y-86108708D01*
X84501945Y-85908749D01*
X84477171Y-85848939D01*
X84593727Y-85872124D01*
X84758207Y-85872124D01*
X84919527Y-85840035D01*
X85071488Y-85777091D01*
X85153427Y-85722341D01*
X85155954Y-85735043D01*
G37*
%TD.AperFunction*%
%TD*%
%TA.AperFunction,Conductor*%
%TO.N,+3V3*%
G36*
X86011193Y-117365061D02*
G01*
X86102573Y-117501821D01*
X86218879Y-117618127D01*
X86355639Y-117709507D01*
X86507600Y-117772451D01*
X86668920Y-117804540D01*
X86833400Y-117804540D01*
X86968432Y-117777680D01*
X86984679Y-117793927D01*
X87121439Y-117885307D01*
X87273400Y-117948251D01*
X87434720Y-117980340D01*
X87599200Y-117980340D01*
X87760520Y-117948251D01*
X87912481Y-117885307D01*
X88031693Y-117805652D01*
X88123264Y-117805652D01*
X88217692Y-117786869D01*
X88197364Y-117889063D01*
X88197364Y-118053543D01*
X88229453Y-118214863D01*
X88292397Y-118366824D01*
X88370932Y-118484360D01*
X88314913Y-118540379D01*
X88223533Y-118677139D01*
X88160589Y-118829100D01*
X88128500Y-118990420D01*
X88128500Y-119154900D01*
X88160589Y-119316220D01*
X88223533Y-119468181D01*
X88314913Y-119604941D01*
X88431219Y-119721247D01*
X88567979Y-119812627D01*
X88719940Y-119875571D01*
X88881260Y-119907660D01*
X89045740Y-119907660D01*
X89207060Y-119875571D01*
X89223645Y-119868701D01*
X89269501Y-119979407D01*
X89360881Y-120116167D01*
X89477187Y-120232473D01*
X89613947Y-120323853D01*
X89765908Y-120386797D01*
X89927228Y-120418886D01*
X90091708Y-120418886D01*
X90253028Y-120386797D01*
X90404989Y-120323853D01*
X90541749Y-120232473D01*
X90658055Y-120116167D01*
X90749435Y-119979407D01*
X90812379Y-119827446D01*
X90844468Y-119666126D01*
X90844468Y-119612219D01*
X90879851Y-119697642D01*
X90971231Y-119834402D01*
X91087537Y-119950708D01*
X91224297Y-120042088D01*
X91376258Y-120105032D01*
X91537578Y-120137121D01*
X91702058Y-120137121D01*
X91863378Y-120105032D01*
X92015339Y-120042088D01*
X92152099Y-119950708D01*
X92268405Y-119834402D01*
X92359785Y-119697642D01*
X92365939Y-119682785D01*
X92370366Y-119689411D01*
X92486672Y-119805717D01*
X92623432Y-119897097D01*
X92775393Y-119960041D01*
X92936713Y-119992130D01*
X93101193Y-119992130D01*
X93262513Y-119960041D01*
X93414474Y-119897097D01*
X93551234Y-119805717D01*
X93575986Y-119780966D01*
X93601234Y-119806214D01*
X93737994Y-119897594D01*
X93889955Y-119960538D01*
X94051275Y-119992627D01*
X94215755Y-119992627D01*
X94377075Y-119960538D01*
X94429410Y-119938860D01*
X94442123Y-119944126D01*
X94603443Y-119976215D01*
X94767923Y-119976215D01*
X94821199Y-119965618D01*
X94821199Y-120194519D01*
X94184942Y-120830777D01*
X94134156Y-120840879D01*
X93982195Y-120903823D01*
X93845435Y-120995203D01*
X93729129Y-121111509D01*
X93637749Y-121248269D01*
X93574805Y-121400230D01*
X93542716Y-121561550D01*
X93542716Y-121726030D01*
X93561675Y-121821340D01*
X92753725Y-121821340D01*
X92767760Y-121750780D01*
X92767760Y-121586300D01*
X92735671Y-121424980D01*
X92672727Y-121273019D01*
X92581347Y-121136259D01*
X92465041Y-121019953D01*
X92328281Y-120928573D01*
X92176320Y-120865629D01*
X92015000Y-120833540D01*
X91850520Y-120833540D01*
X91689200Y-120865629D01*
X91537239Y-120928573D01*
X91400479Y-121019953D01*
X91284173Y-121136259D01*
X91192793Y-121273019D01*
X91129849Y-121424980D01*
X91097760Y-121586300D01*
X91097760Y-121750780D01*
X91111795Y-121821340D01*
X89792029Y-121821340D01*
X89795960Y-121801580D01*
X89795960Y-121637100D01*
X89763871Y-121475780D01*
X89700927Y-121323819D01*
X89609547Y-121187059D01*
X89493241Y-121070753D01*
X89356481Y-120979373D01*
X89204520Y-120916429D01*
X89043200Y-120884340D01*
X88878720Y-120884340D01*
X88717400Y-120916429D01*
X88565439Y-120979373D01*
X88428679Y-121070753D01*
X88312373Y-121187059D01*
X88220993Y-121323819D01*
X88158049Y-121475780D01*
X88125960Y-121637100D01*
X88125960Y-121801580D01*
X88129891Y-121821340D01*
X87033791Y-121821340D01*
X87196223Y-121658908D01*
X87473648Y-121243713D01*
X87664742Y-120782372D01*
X87762160Y-120292616D01*
X87762160Y-119793264D01*
X87664742Y-119303508D01*
X87473648Y-118842167D01*
X87196223Y-118426972D01*
X86843128Y-118073877D01*
X86427933Y-117796452D01*
X85966592Y-117605358D01*
X85804460Y-117573108D01*
X85821377Y-117556191D01*
X85912757Y-117419431D01*
X85973235Y-117273423D01*
X86011193Y-117365061D01*
G37*
%TD.AperFunction*%
%TA.AperFunction,Conductor*%
G36*
X98809589Y-117042008D02*
G01*
X98925410Y-117157829D01*
X98823981Y-117225601D01*
X98707675Y-117341907D01*
X98616295Y-117478667D01*
X98553351Y-117630628D01*
X98521262Y-117791948D01*
X98521262Y-117956428D01*
X98553351Y-118117748D01*
X98616295Y-118269709D01*
X98707675Y-118406469D01*
X98823981Y-118522775D01*
X98960741Y-118614155D01*
X99112702Y-118677099D01*
X99274022Y-118709188D01*
X99438502Y-118709188D01*
X99599822Y-118677099D01*
X99751783Y-118614155D01*
X99888543Y-118522775D01*
X99960139Y-118451179D01*
X100013218Y-118461737D01*
X99882500Y-118549080D01*
X99766194Y-118665386D01*
X99674814Y-118802146D01*
X99611870Y-118954107D01*
X99579781Y-119115427D01*
X99579781Y-119279907D01*
X99611870Y-119441227D01*
X99674814Y-119593188D01*
X99684079Y-119607053D01*
X99681413Y-119609719D01*
X99590033Y-119746479D01*
X99578984Y-119773155D01*
X99513941Y-119729695D01*
X99361980Y-119666751D01*
X99200660Y-119634662D01*
X99036180Y-119634662D01*
X98874860Y-119666751D01*
X98722899Y-119729695D01*
X98586139Y-119821075D01*
X98469833Y-119937381D01*
X98378453Y-120074141D01*
X98315509Y-120226102D01*
X98283420Y-120387422D01*
X98283420Y-120551902D01*
X98315509Y-120713222D01*
X98378453Y-120865183D01*
X98469833Y-121001943D01*
X98586139Y-121118249D01*
X98722899Y-121209629D01*
X98752831Y-121222027D01*
X98725439Y-121233373D01*
X98588679Y-121324753D01*
X98472373Y-121441059D01*
X98380993Y-121577819D01*
X98318049Y-121729780D01*
X98299836Y-121821340D01*
X97811994Y-121821340D01*
X97830953Y-121726030D01*
X97830953Y-121561550D01*
X97798864Y-121400230D01*
X97735920Y-121248269D01*
X97644540Y-121111509D01*
X97528234Y-120995203D01*
X97391474Y-120903823D01*
X97239513Y-120840879D01*
X97078193Y-120808790D01*
X96913713Y-120808790D01*
X96752393Y-120840879D01*
X96600432Y-120903823D01*
X96463672Y-120995203D01*
X96347366Y-121111509D01*
X96255986Y-121248269D01*
X96193042Y-121400230D01*
X96160953Y-121561550D01*
X96160953Y-121726030D01*
X96179912Y-121821340D01*
X95205953Y-121821340D01*
X96010589Y-121016705D01*
X96037725Y-120994435D01*
X96126600Y-120886141D01*
X96192640Y-120762589D01*
X96233307Y-120628528D01*
X96243598Y-120524044D01*
X96243598Y-120524037D01*
X96247038Y-120489108D01*
X96243598Y-120454180D01*
X96243598Y-119720073D01*
X96288897Y-119750341D01*
X96440858Y-119813285D01*
X96602178Y-119845374D01*
X96766658Y-119845374D01*
X96927978Y-119813285D01*
X97079939Y-119750341D01*
X97216699Y-119658961D01*
X97333005Y-119542655D01*
X97424385Y-119405895D01*
X97487329Y-119253934D01*
X97519418Y-119092614D01*
X97519418Y-118928134D01*
X97487329Y-118766814D01*
X97424385Y-118614853D01*
X97333005Y-118478093D01*
X97216699Y-118361787D01*
X97106916Y-118288433D01*
X97112825Y-118258727D01*
X97112825Y-118094247D01*
X97080736Y-117932927D01*
X97017792Y-117780966D01*
X96926412Y-117644206D01*
X96810106Y-117527900D01*
X96673346Y-117436520D01*
X96521385Y-117373576D01*
X96442764Y-117357937D01*
X96333475Y-117248648D01*
X96196715Y-117157268D01*
X96044754Y-117094324D01*
X95883434Y-117062235D01*
X95718954Y-117062235D01*
X95557634Y-117094324D01*
X95405673Y-117157268D01*
X95268913Y-117248648D01*
X95152607Y-117364954D01*
X95061227Y-117501714D01*
X94998283Y-117653675D01*
X94966194Y-117814995D01*
X94966194Y-117979475D01*
X94996191Y-118130275D01*
X94883811Y-118242655D01*
X94832728Y-118319106D01*
X94767923Y-118306215D01*
X94639124Y-118306215D01*
X94638841Y-118305870D01*
X94611710Y-118283604D01*
X94021221Y-117693116D01*
X93998947Y-117665975D01*
X93890653Y-117577100D01*
X93767101Y-117511060D01*
X93633040Y-117470393D01*
X93528556Y-117460102D01*
X93528546Y-117460102D01*
X93493620Y-117456662D01*
X93458694Y-117460102D01*
X91711339Y-117460102D01*
X91711154Y-117459170D01*
X91648210Y-117307209D01*
X91556830Y-117170449D01*
X91440524Y-117054143D01*
X91334248Y-116983132D01*
X98770249Y-116983132D01*
X98809589Y-117042008D01*
G37*
%TD.AperFunction*%
%TA.AperFunction,Conductor*%
G36*
X101381961Y-118475271D02*
G01*
X101362200Y-118471340D01*
X101197720Y-118471340D01*
X101036400Y-118503429D01*
X100939074Y-118543743D01*
X100810302Y-118457700D01*
X100658341Y-118394756D01*
X100513123Y-118365870D01*
X100643841Y-118278527D01*
X100760147Y-118162221D01*
X100851527Y-118025461D01*
X100914471Y-117873500D01*
X100946560Y-117712180D01*
X100946560Y-117547700D01*
X100914471Y-117386380D01*
X100851527Y-117234419D01*
X100760147Y-117097659D01*
X100689910Y-117027422D01*
X100796897Y-117006141D01*
X100948858Y-116943197D01*
X101085618Y-116851817D01*
X101201924Y-116735511D01*
X101293304Y-116598751D01*
X101356248Y-116446790D01*
X101381960Y-116317527D01*
X101381961Y-118475271D01*
G37*
%TD.AperFunction*%
%TA.AperFunction,Conductor*%
G36*
X84158766Y-113234494D02*
G01*
X84158766Y-113398974D01*
X84190855Y-113560294D01*
X84253799Y-113712255D01*
X84345179Y-113849015D01*
X84461485Y-113965321D01*
X84598245Y-114056701D01*
X84750206Y-114119645D01*
X84911526Y-114151734D01*
X85060341Y-114151734D01*
X85016284Y-114195791D01*
X84924904Y-114332551D01*
X84861960Y-114484512D01*
X84829871Y-114645832D01*
X84829871Y-114810312D01*
X84861960Y-114971632D01*
X84873453Y-114999379D01*
X84857973Y-115014859D01*
X84766593Y-115151619D01*
X84703649Y-115303580D01*
X84671560Y-115464900D01*
X84671560Y-115629380D01*
X84703649Y-115790700D01*
X84766593Y-115942661D01*
X84857973Y-116079421D01*
X84974279Y-116195727D01*
X84993090Y-116208296D01*
X84929230Y-116220999D01*
X84777269Y-116283943D01*
X84640509Y-116375323D01*
X84524203Y-116491629D01*
X84432823Y-116628389D01*
X84369879Y-116780350D01*
X84337790Y-116941670D01*
X84337790Y-117106150D01*
X84369879Y-117267470D01*
X84432823Y-117419431D01*
X84524203Y-117556191D01*
X84559161Y-117591149D01*
X84487728Y-117605358D01*
X84026387Y-117796452D01*
X83611192Y-118073877D01*
X83397960Y-118287109D01*
X83397960Y-114258619D01*
X83422357Y-114009800D01*
X83485245Y-113801507D01*
X83587388Y-113609403D01*
X83724907Y-113440787D01*
X83892553Y-113302099D01*
X84083945Y-113198614D01*
X84171281Y-113171579D01*
X84158766Y-113234494D01*
G37*
%TD.AperFunction*%
%TA.AperFunction,Conductor*%
G36*
X101381960Y-116088933D02*
G01*
X101356248Y-115959670D01*
X101293304Y-115807709D01*
X101201924Y-115670949D01*
X101085618Y-115554643D01*
X100966157Y-115474822D01*
X100931231Y-115390502D01*
X100839851Y-115253742D01*
X100723545Y-115137436D01*
X100586785Y-115046056D01*
X100517070Y-115017179D01*
X100561253Y-114987657D01*
X100671538Y-114877372D01*
X100731600Y-114902251D01*
X100892920Y-114934340D01*
X101057400Y-114934340D01*
X101218720Y-114902251D01*
X101370681Y-114839307D01*
X101381960Y-114831771D01*
X101381960Y-116088933D01*
G37*
%TD.AperFunction*%
%TA.AperFunction,Conductor*%
G36*
X94512433Y-113166790D02*
G01*
X94480344Y-113328110D01*
X94480344Y-113492590D01*
X94512433Y-113653910D01*
X94575377Y-113805871D01*
X94666757Y-113942631D01*
X94783063Y-114058937D01*
X94794100Y-114066312D01*
X94251721Y-114066312D01*
X93889661Y-113704252D01*
X93925637Y-113697096D01*
X94077598Y-113634152D01*
X94214358Y-113542772D01*
X94330664Y-113426466D01*
X94422044Y-113289706D01*
X94484988Y-113137745D01*
X94490837Y-113108340D01*
X94536644Y-113108340D01*
X94512433Y-113166790D01*
G37*
%TD.AperFunction*%
%TA.AperFunction,Conductor*%
G36*
X99242204Y-113172883D02*
G01*
X99179260Y-113324844D01*
X99147171Y-113486164D01*
X99147171Y-113650644D01*
X99179260Y-113811964D01*
X99233334Y-113942512D01*
X99107397Y-113942512D01*
X98946077Y-113974601D01*
X98794116Y-114037545D01*
X98751063Y-114066312D01*
X97007960Y-114066312D01*
X97007960Y-114007251D01*
X96972028Y-113826611D01*
X96901546Y-113656451D01*
X96799222Y-113503312D01*
X96696044Y-113400134D01*
X96711327Y-113377261D01*
X96774271Y-113225300D01*
X96797536Y-113108340D01*
X99285330Y-113108340D01*
X99242204Y-113172883D01*
G37*
%TD.AperFunction*%
%TD*%
D20*
X73797160Y-110500160D03*
D21*
X76298140Y-113339320D03*
D20*
X78975550Y-115590642D03*
X109463840Y-116850160D03*
D22*
X107492042Y-110970060D03*
D21*
X82679540Y-74635360D03*
X72015500Y-95015500D03*
X86627525Y-86537792D03*
X100328357Y-121920011D03*
X88491689Y-90787736D03*
X100553337Y-116203230D03*
X80981202Y-88214700D03*
X86751160Y-116969540D03*
X97267061Y-105020721D03*
X100975160Y-114099340D03*
X79156982Y-91999222D03*
X102133400Y-91389200D03*
X85500000Y-76700000D03*
X99356262Y-117874188D03*
X91690734Y-93248234D03*
X96995953Y-121643790D03*
X96301560Y-105486200D03*
X88623570Y-115431645D03*
D20*
X76078651Y-91857213D03*
D21*
X98247200Y-91389200D03*
X90908243Y-117702730D03*
X84993766Y-113316734D03*
D20*
X95021400Y-83223100D03*
D21*
X93682077Y-112894185D03*
X100838000Y-91389200D03*
X81499115Y-77102619D03*
X87300313Y-81437590D03*
X83860457Y-89777531D03*
X70269100Y-92351350D03*
X99542600Y-91389200D03*
X93522579Y-95703795D03*
X91932760Y-121668540D03*
X82402569Y-82911271D03*
X88350774Y-85656238D03*
X86507320Y-89984580D03*
X95315344Y-113410350D03*
X100111560Y-117629940D03*
X78298140Y-114339320D03*
X77826664Y-112507270D03*
D20*
X105961180Y-110238540D03*
X108424980Y-112798860D03*
X85613403Y-91721097D03*
D21*
X90891360Y-121668540D03*
X88072528Y-86486487D03*
D20*
X69334378Y-94338140D03*
D21*
X74173080Y-94866460D03*
X87914480Y-88508840D03*
X94488000Y-104775000D03*
X94457519Y-105664000D03*
X93247381Y-113352751D03*
X94472615Y-95660351D03*
D20*
X85156213Y-85623651D03*
D21*
X92847160Y-121617740D03*
X78613000Y-109727988D03*
X98892360Y-113540540D03*
X77754897Y-91100057D03*
D20*
X84769960Y-115369340D03*
D21*
X83911440Y-87708740D03*
D20*
X83045195Y-92436208D03*
D21*
X91359010Y-117163910D03*
X94142570Y-113317537D03*
X75872340Y-94096840D03*
X87599520Y-118798340D03*
D20*
X83058421Y-76550861D03*
X85855850Y-84739214D03*
X77330300Y-84927440D03*
X76206885Y-87855638D03*
X76403268Y-90262927D03*
X77431900Y-94513400D03*
D21*
X87847989Y-90074100D03*
D20*
X92633800Y-95123000D03*
D21*
X89077800Y-95808800D03*
D20*
X82677000Y-95631000D03*
D22*
X96072960Y-114099340D03*
D21*
X95971360Y-112981740D03*
X93018953Y-119157130D03*
X95801194Y-117897235D03*
X96277825Y-118176487D03*
X100028972Y-114339070D03*
X99982171Y-113568404D03*
X97160730Y-115843322D03*
X91619818Y-119302121D03*
X96684418Y-119010374D03*
X99118420Y-120469662D03*
X99120960Y-121973340D03*
X96084726Y-118765355D03*
X100330000Y-120142000D03*
X101279960Y-119306340D03*
X88960960Y-121719340D03*
X88963500Y-119072660D03*
X93586232Y-118888084D03*
X90009468Y-119583886D03*
X80856470Y-91265648D03*
D20*
X86417708Y-91211016D03*
X81726017Y-73949937D03*
X83506719Y-86210647D03*
D21*
X85181734Y-91042754D03*
X79936340Y-91607640D03*
X82214495Y-86210647D03*
X81862892Y-91160600D03*
X84675967Y-85037124D03*
X71631412Y-94317089D03*
X88039127Y-87037888D03*
X87756740Y-83819921D03*
X72052180Y-92351350D03*
X73492360Y-92364050D03*
X85227508Y-89980754D03*
X97389989Y-91143989D03*
X83831939Y-90988046D03*
X74599800Y-92250256D03*
X96833773Y-91137911D03*
X95532398Y-118774936D03*
X94377716Y-121643790D03*
X89032364Y-117971303D03*
X94133515Y-119157627D03*
X94685683Y-119141215D03*
X91294268Y-118855829D03*
X91943852Y-118846569D03*
X90693535Y-118699515D03*
X94779140Y-92779727D03*
X95076553Y-91082480D03*
X88434383Y-91528321D03*
X90603190Y-88493600D03*
X86768214Y-91957091D03*
X92982221Y-88771883D03*
X87974930Y-91221627D03*
X90148805Y-91207073D03*
X93758934Y-88338012D03*
X84033092Y-92158827D03*
X93362130Y-91192806D03*
X85037903Y-92205786D03*
X89291594Y-91277627D03*
X90068317Y-88977911D03*
X89017490Y-92248841D03*
X90616294Y-89047772D03*
X86048230Y-83372388D03*
X88285100Y-83981152D03*
X75903399Y-85871477D03*
D22*
X91835729Y-91241835D03*
X91031800Y-91247700D03*
D21*
X75897614Y-86485810D03*
X96635687Y-91997770D03*
X95976562Y-91175035D03*
X95305880Y-92989400D03*
X95536044Y-88672819D03*
X90446886Y-86896579D03*
X83919060Y-88697450D03*
X78397099Y-89598500D03*
X90398600Y-85115400D03*
X77637534Y-90550184D03*
X82542431Y-90899408D03*
X90298379Y-84034510D03*
X92880180Y-92870020D03*
X92982221Y-83940217D03*
X85958865Y-85491483D03*
X82019779Y-88729610D03*
X82691128Y-85566410D03*
X84005988Y-84996587D03*
X93809899Y-91975137D03*
X94220058Y-89184010D03*
X94219342Y-91225417D03*
X95077269Y-89072150D03*
D20*
X77135124Y-89158936D03*
X70167398Y-96461580D03*
D21*
X97421700Y-88900000D03*
X70089987Y-95544640D03*
X74692862Y-93967662D03*
X90020790Y-85725000D03*
X74917300Y-96520000D03*
X96021510Y-88952363D03*
D20*
X78300457Y-85206503D03*
X78219300Y-83732084D03*
D21*
X77208380Y-113680240D03*
X77198140Y-110939320D03*
X90316958Y-113945340D03*
X100191264Y-115786023D03*
X99186611Y-115329915D03*
X85911093Y-113794140D03*
X89633833Y-113740305D03*
X89081422Y-113740407D03*
X88041024Y-116970652D03*
X99189637Y-114777512D03*
X88672284Y-116945864D03*
X87928381Y-113716730D03*
X88244794Y-113263914D03*
X87130989Y-113131951D03*
X85664871Y-114728072D03*
X91169340Y-113908733D03*
X90340454Y-114527991D03*
X86063769Y-115110223D03*
X85506560Y-115547140D03*
X90008368Y-114969441D03*
X90473612Y-115267296D03*
X85172790Y-117023910D03*
D22*
X86398851Y-74577408D03*
X86094042Y-73820020D03*
D21*
X86151720Y-72495620D03*
X109199680Y-114607340D03*
X87516960Y-117145340D03*
X99458176Y-116509727D03*
X99771200Y-121691400D03*
X100414781Y-119197667D03*
X78435348Y-92280991D03*
X86375678Y-87997826D03*
X72212200Y-96494600D03*
X92399731Y-82796769D03*
X91028760Y-94894160D03*
D20*
X74345800Y-82582200D03*
X74345800Y-89782200D03*
X73695800Y-88982200D03*
X72995800Y-88582200D03*
X72995800Y-87782200D03*
X73695800Y-87382200D03*
X72995800Y-86982200D03*
X73695800Y-86582200D03*
X73695800Y-85782200D03*
X72995800Y-85382200D03*
X73695800Y-84982200D03*
X72995800Y-84582200D03*
X72995800Y-83782200D03*
X73695800Y-83382200D03*
D23*
X72945800Y-81582200D03*
X72945800Y-90782200D03*
X69945800Y-81582200D03*
X69945800Y-90782200D03*
D20*
X116713000Y-113538000D03*
X85227160Y-120042940D03*
X80594200Y-93929200D03*
X67818000Y-113538000D03*
D24*
X75846940Y-110954820D03*
X108752640Y-110970060D03*
D20*
X99568000Y-137668000D03*
M02*
