%TF.GenerationSoftware,KiCad,Pcbnew,6.0.11+dfsg-1*%
%TF.CreationDate,2026-05-20T13:10:23+00:00*%
%TF.ProjectId,Lifedatalink_v1_revB_compat,4c696665-6461-4746-916c-696e6b5f7631,rev?*%
%TF.SameCoordinates,Original*%
%TF.FileFunction,Drillmap*%
%TF.FilePolarity,Positive*%
%FSLAX45Y45*%
G04 Gerber Fmt 4.5, Leading zero omitted, Abs format (unit mm)*
G04 Created by KiCad (PCBNEW 6.0.11+dfsg-1) date 2026-05-20 13:10:23*
%MOMM*%
%LPD*%
G01*
G04 APERTURE LIST*
%ADD10C,0.050000*%
%ADD11C,0.200000*%
%ADD12C,0.020000*%
%ADD13C,0.030000*%
%ADD14C,0.040000*%
%ADD15C,0.045000*%
%ADD16C,0.065000*%
%ADD17C,0.220000*%
%ADD18C,0.850000*%
G04 APERTURE END LIST*
D10*
X9246108Y-10494264D02*
X9246108Y-10113264D01*
X9309608Y-10049764D02*
X9817608Y-10049764D01*
X9373108Y-10621264D02*
X9373108Y-10875264D01*
X9754108Y-10621264D02*
X9754108Y-10875264D01*
X8170164Y-7757922D02*
X8678164Y-7757922D01*
X8106664Y-7275322D02*
X8106664Y-7694422D01*
X10355580Y-8249920D02*
X10355580Y-9545320D01*
X6977380Y-8059420D02*
G75*
G03*
X6786880Y-8249920I0J-190500D01*
G01*
X10165080Y-9735820D02*
X6977380Y-9735820D01*
X8273796Y-12070334D02*
X8273796Y-11422634D01*
X10204196Y-11422634D02*
X10204196Y-12070334D01*
X10026396Y-12248134D02*
X8451596Y-12248134D01*
X7861300Y-10909300D02*
X7289800Y-10909300D01*
X9702800Y-12687300D02*
X9702800Y-13131800D01*
X6786880Y-9545320D02*
X6786880Y-8249920D01*
X9690608Y-10938764D02*
X9436608Y-10938764D01*
X7289800Y-11798300D02*
X7861300Y-11798300D01*
X9373106Y-10621264D02*
G75*
G03*
X9309608Y-10557764I-63496J4D01*
G01*
X9829800Y-12560300D02*
G75*
G03*
X9702800Y-12687300I0J-127000D01*
G01*
X8741658Y-7275322D02*
G75*
G03*
X8678164Y-7211822I-63498J2D01*
G01*
X7988300Y-11671300D02*
X7988300Y-11036300D01*
X8678164Y-7211822D02*
X8170164Y-7211822D01*
X10591800Y-10909300D02*
G75*
G03*
X10464800Y-11036300I0J-127000D01*
G01*
X7988300Y-11036300D02*
G75*
G03*
X7861300Y-10909300I-127000J0D01*
G01*
X10026396Y-12248126D02*
G75*
G03*
X10204196Y-12070334I4J177796D01*
G01*
X8451596Y-11244826D02*
G75*
G03*
X8273796Y-11422634I4J-177804D01*
G01*
X10591800Y-11798300D02*
X11163300Y-11798300D01*
X9309608Y-10049758D02*
G75*
G03*
X9246108Y-10113264I2J-63502D01*
G01*
X8273796Y-12070334D02*
G75*
G03*
X8451596Y-12248134I177804J4D01*
G01*
X7289800Y-10909300D02*
G75*
G03*
X7289800Y-11798300I-508000J-444500D01*
G01*
X6977380Y-8059420D02*
X10165080Y-8059420D01*
X10210800Y-12687300D02*
G75*
G03*
X10083800Y-12560300I-127000J0D01*
G01*
X11163300Y-10909300D02*
X10591800Y-10909300D01*
X10165080Y-9735820D02*
G75*
G03*
X10355580Y-9545320I0J190500D01*
G01*
X6786880Y-9545320D02*
G75*
G03*
X6977380Y-9735820I190500J0D01*
G01*
X10355580Y-8249920D02*
G75*
G03*
X10165080Y-8059420I-190500J0D01*
G01*
X8451596Y-11244834D02*
X10026396Y-11244834D01*
X8741664Y-7694422D02*
X8741664Y-7275322D01*
X10204196Y-11422634D02*
G75*
G03*
X10026396Y-11244834I-177796J4D01*
G01*
X9881106Y-10113264D02*
G75*
G03*
X9817608Y-10049764I-63496J4D01*
G01*
X7861300Y-11798300D02*
G75*
G03*
X7988300Y-11671300I0J127000D01*
G01*
X9690608Y-10938758D02*
G75*
G03*
X9754108Y-10875264I2J63498D01*
G01*
X9881108Y-10113264D02*
X9881108Y-10494264D01*
X8106658Y-7694422D02*
G75*
G03*
X8170164Y-7757922I63502J2D01*
G01*
X8678164Y-7757924D02*
G75*
G03*
X8741664Y-7694422I-4J63504D01*
G01*
X10210800Y-13131800D02*
X10210800Y-12687300D01*
X9246106Y-10494264D02*
G75*
G03*
X9309608Y-10557764I63504J4D01*
G01*
X9817608Y-10557758D02*
G75*
G03*
X9754108Y-10621264I2J-63502D01*
G01*
X10464800Y-11036300D02*
X10464800Y-11671300D01*
X9373106Y-10875264D02*
G75*
G03*
X9436608Y-10938764I63504J4D01*
G01*
X11163300Y-11798300D02*
G75*
G03*
X11163300Y-10909300I508000J444500D01*
G01*
X9817608Y-10557758D02*
G75*
G03*
X9881108Y-10494264I2J63498D01*
G01*
X9702800Y-13131800D02*
G75*
G03*
X10210800Y-13131800I254000J-635000D01*
G01*
X10464800Y-11671300D02*
G75*
G03*
X10591800Y-11798300I127000J0D01*
G01*
X8170164Y-7211824D02*
G75*
G03*
X8106664Y-7275322I-4J-63496D01*
G01*
X10083800Y-12560300D02*
X9829800Y-12560300D01*
D11*
D12*
X6998999Y-9544464D02*
X7018999Y-9564464D01*
X7018999Y-9544464D02*
X6998999Y-9564464D01*
X7016910Y-9225135D02*
X7036910Y-9245135D01*
X7036910Y-9225135D02*
X7016910Y-9245135D01*
X7153141Y-9421709D02*
X7173141Y-9441709D01*
X7173141Y-9421709D02*
X7153141Y-9441709D01*
X7191550Y-9491550D02*
X7211550Y-9511550D01*
X7211550Y-9491550D02*
X7191550Y-9511550D01*
X7195218Y-9225135D02*
X7215218Y-9245135D01*
X7215218Y-9225135D02*
X7195218Y-9245135D01*
X7211220Y-9639460D02*
X7231220Y-9659460D01*
X7231220Y-9639460D02*
X7211220Y-9659460D01*
X7339236Y-9226405D02*
X7359236Y-9246405D01*
X7359236Y-9226405D02*
X7339236Y-9246405D01*
X7407308Y-9476646D02*
X7427308Y-9496646D01*
X7427308Y-9476646D02*
X7407308Y-9496646D01*
X7449980Y-9215026D02*
X7469980Y-9235026D01*
X7469980Y-9215026D02*
X7449980Y-9235026D01*
X7459286Y-9386766D02*
X7479286Y-9406766D01*
X7479286Y-9386766D02*
X7459286Y-9406766D01*
X7481730Y-9642000D02*
X7501730Y-9662000D01*
X7501730Y-9642000D02*
X7481730Y-9662000D01*
X7577234Y-9399684D02*
X7597234Y-9419684D01*
X7597234Y-9399684D02*
X7577234Y-9419684D01*
X7579761Y-8638581D02*
X7599761Y-8658581D01*
X7599761Y-8638581D02*
X7579761Y-8658581D01*
X7580340Y-8577148D02*
X7600340Y-8597148D01*
X7600340Y-8577148D02*
X7580340Y-8597148D01*
X7619814Y-11323932D02*
X7639814Y-11343932D01*
X7639814Y-11323932D02*
X7619814Y-11343932D01*
X7709814Y-11083932D02*
X7729814Y-11103932D01*
X7729814Y-11083932D02*
X7709814Y-11103932D01*
X7710838Y-11358024D02*
X7730838Y-11378024D01*
X7730838Y-11358024D02*
X7710838Y-11378024D01*
X7753753Y-9045018D02*
X7773753Y-9065018D01*
X7773753Y-9045018D02*
X7753753Y-9065018D01*
X7765490Y-9100006D02*
X7785490Y-9120006D01*
X7785490Y-9100006D02*
X7765490Y-9120006D01*
X7772666Y-11240727D02*
X7792666Y-11260727D01*
X7792666Y-11240727D02*
X7772666Y-11260727D01*
X7819814Y-11423932D02*
X7839814Y-11443932D01*
X7839814Y-11423932D02*
X7819814Y-11443932D01*
X7829710Y-8949850D02*
X7849710Y-8969850D01*
X7849710Y-8949850D02*
X7829710Y-8969850D01*
X7833535Y-9218099D02*
X7853535Y-9238099D01*
X7853535Y-9218099D02*
X7833535Y-9238099D01*
X7851300Y-10962799D02*
X7871300Y-10982799D01*
X7871300Y-10962799D02*
X7851300Y-10982799D01*
X7905698Y-9189922D02*
X7925698Y-9209922D01*
X7925698Y-9189922D02*
X7905698Y-9209922D01*
X7983634Y-9150764D02*
X8003634Y-9170764D01*
X8003634Y-9150764D02*
X7983634Y-9170764D01*
X8075647Y-9116565D02*
X8095647Y-9136565D01*
X8095647Y-9116565D02*
X8075647Y-9136565D01*
X8088120Y-8811470D02*
X8108120Y-8831470D01*
X8108120Y-8811470D02*
X8088120Y-8831470D01*
X8139911Y-7700262D02*
X8159911Y-7720262D01*
X8159911Y-7700262D02*
X8139911Y-7720262D01*
X8176289Y-9106060D02*
X8196289Y-9126060D01*
X8196289Y-9106060D02*
X8176289Y-9126060D01*
X8191978Y-8862961D02*
X8211978Y-8882961D01*
X8211978Y-8862961D02*
X8191978Y-8882961D01*
X8211449Y-8611065D02*
X8231449Y-8631065D01*
X8231449Y-8611065D02*
X8211449Y-8631065D01*
X8230257Y-8281127D02*
X8250257Y-8301127D01*
X8250257Y-8281127D02*
X8230257Y-8301127D01*
X8244243Y-9079941D02*
X8264243Y-9099941D01*
X8264243Y-9079941D02*
X8244243Y-9099941D01*
X8257954Y-7453536D02*
X8277954Y-7473536D01*
X8277954Y-7453536D02*
X8257954Y-7473536D01*
X8259113Y-8546641D02*
X8279113Y-8566641D01*
X8279113Y-8546641D02*
X8259113Y-8566641D01*
X8373194Y-9088805D02*
X8393194Y-9108805D01*
X8393194Y-9088805D02*
X8373194Y-9108805D01*
X8376046Y-8967753D02*
X8396046Y-8987753D01*
X8396046Y-8967753D02*
X8376046Y-8987753D01*
X8381144Y-8760874D02*
X8401144Y-8780874D01*
X8401144Y-8760874D02*
X8381144Y-8780874D01*
X8381906Y-8859745D02*
X8401906Y-8879745D01*
X8401906Y-8859745D02*
X8381906Y-8879745D01*
X8390599Y-8489659D02*
X8410599Y-8509659D01*
X8410599Y-8489659D02*
X8390599Y-8509659D01*
X8393309Y-9205883D02*
X8413309Y-9225883D01*
X8413309Y-9205883D02*
X8393309Y-9225883D01*
X8457597Y-8493712D02*
X8477597Y-8513712D01*
X8477597Y-8493712D02*
X8457597Y-8513712D01*
X8489377Y-11321673D02*
X8509377Y-11341673D01*
X8509377Y-11321673D02*
X8489377Y-11341673D01*
X8493790Y-9210579D02*
X8513790Y-9230579D01*
X8513790Y-9210579D02*
X8493790Y-9230579D01*
X8507279Y-11692391D02*
X8527279Y-11712391D01*
X8527279Y-11692391D02*
X8507279Y-11712391D01*
X8508173Y-9094275D02*
X8528173Y-9114275D01*
X8528173Y-9094275D02*
X8508173Y-9114275D01*
X8512751Y-8988075D02*
X8532751Y-9008075D01*
X8532751Y-8988075D02*
X8512751Y-9008075D01*
X8540000Y-7660000D02*
X8560000Y-7680000D01*
X8560000Y-7660000D02*
X8540000Y-7680000D01*
X8540656Y-11544714D02*
X8560656Y-11564714D01*
X8560656Y-11544714D02*
X8540656Y-11564714D01*
X8556487Y-11462807D02*
X8576487Y-11482807D01*
X8576487Y-11462807D02*
X8556487Y-11482807D01*
X8581109Y-11369414D02*
X8601109Y-11389414D01*
X8601109Y-11369414D02*
X8581109Y-11389414D01*
X8585887Y-8539148D02*
X8605887Y-8559148D01*
X8605887Y-8539148D02*
X8585887Y-8559148D01*
X8594823Y-8327239D02*
X8614823Y-8347239D01*
X8614823Y-8327239D02*
X8594823Y-8347239D01*
X8596377Y-11501022D02*
X8616377Y-11521022D01*
X8616377Y-11501022D02*
X8596377Y-11521022D01*
X8605172Y-7239562D02*
X8625172Y-7259562D01*
X8625172Y-7239562D02*
X8605172Y-7259562D01*
X8627568Y-8789783D02*
X8647568Y-8809783D01*
X8647568Y-8789783D02*
X8627568Y-8809783D01*
X8640732Y-8988458D02*
X8660732Y-9008458D01*
X8660732Y-8988458D02*
X8640732Y-9008458D01*
X8652753Y-8643779D02*
X8672753Y-8663779D01*
X8672753Y-8643779D02*
X8652753Y-8663779D01*
X8665116Y-11686954D02*
X8685116Y-11706954D01*
X8685116Y-11686954D02*
X8665116Y-11706954D01*
X8666821Y-9185709D02*
X8686821Y-9205709D01*
X8686821Y-9185709D02*
X8666821Y-9205709D01*
X8703099Y-11303195D02*
X8723099Y-11323195D01*
X8723099Y-11303195D02*
X8703099Y-11323195D01*
X8720031Y-8133759D02*
X8740031Y-8153759D01*
X8740031Y-8133759D02*
X8720031Y-8153759D01*
X8741696Y-11704534D02*
X8761696Y-11724534D01*
X8761696Y-11704534D02*
X8741696Y-11724534D01*
X8749952Y-11869834D02*
X8769952Y-11889834D01*
X8769952Y-11869834D02*
X8749952Y-11889834D01*
X8765674Y-8371992D02*
X8785674Y-8391992D01*
X8785674Y-8371992D02*
X8765674Y-8391992D01*
X8774799Y-8997410D02*
X8794799Y-9017410D01*
X8794799Y-8997410D02*
X8774799Y-9017410D01*
X8781448Y-8840884D02*
X8801448Y-8860884D01*
X8801448Y-8840884D02*
X8781448Y-8860884D01*
X8782838Y-11361673D02*
X8802838Y-11381673D01*
X8802838Y-11361673D02*
X8782838Y-11381673D01*
X8787493Y-9112163D02*
X8807493Y-9132163D01*
X8807493Y-9112163D02*
X8787493Y-9132163D01*
X8793913Y-8693789D02*
X8813913Y-8713789D01*
X8813913Y-8693789D02*
X8793913Y-8713789D01*
X8794102Y-11687065D02*
X8814102Y-11707065D01*
X8814102Y-11687065D02*
X8794102Y-11707065D01*
X8797253Y-8638649D02*
X8817253Y-8658649D01*
X8817253Y-8638649D02*
X8797253Y-8658649D01*
X8814479Y-11316391D02*
X8834479Y-11336391D01*
X8834479Y-11316391D02*
X8814479Y-11336391D01*
X8818510Y-8388115D02*
X8838510Y-8408115D01*
X8838510Y-8388115D02*
X8818510Y-8408115D01*
X8825077Y-8555624D02*
X8845077Y-8575624D01*
X8845077Y-8555624D02*
X8825077Y-8575624D01*
X8833438Y-9142832D02*
X8853438Y-9162832D01*
X8853438Y-9142832D02*
X8833438Y-9162832D01*
X8839169Y-9068774D02*
X8859169Y-9088774D01*
X8859169Y-9068774D02*
X8839169Y-9088774D01*
X8852357Y-11533164D02*
X8872357Y-11553164D01*
X8872357Y-11533164D02*
X8852357Y-11553164D01*
X8857228Y-11684586D02*
X8877228Y-11704586D01*
X8877228Y-11684586D02*
X8857228Y-11704586D01*
X8886096Y-12161934D02*
X8906096Y-12181934D01*
X8906096Y-12161934D02*
X8886096Y-12181934D01*
X8886350Y-11897266D02*
X8906350Y-11917266D01*
X8906350Y-11897266D02*
X8886350Y-11917266D01*
X8891749Y-9214884D02*
X8911749Y-9234884D01*
X8911749Y-9214884D02*
X8891749Y-9234884D01*
X8893236Y-11787130D02*
X8913236Y-11807130D01*
X8913236Y-11787130D02*
X8893236Y-11807130D01*
X8897780Y-9570880D02*
X8917780Y-9590880D01*
X8917780Y-9570880D02*
X8897780Y-9590880D01*
X8898142Y-11364041D02*
X8918142Y-11384041D01*
X8918142Y-11364041D02*
X8898142Y-11384041D01*
X8919159Y-9117763D02*
X8939159Y-9137763D01*
X8939159Y-9117763D02*
X8919159Y-9137763D01*
X8953383Y-11364030D02*
X8973383Y-11384030D01*
X8973383Y-11364030D02*
X8953383Y-11384030D01*
X8990837Y-11486944D02*
X9010837Y-11506944D01*
X9010837Y-11486944D02*
X8990837Y-11506944D01*
X8990947Y-11948389D02*
X9010947Y-11968389D01*
X9010947Y-11948389D02*
X8990947Y-11968389D01*
X8992079Y-8562500D02*
X9012079Y-8582500D01*
X9012079Y-8562500D02*
X8992079Y-8582500D01*
X8996832Y-8887791D02*
X9016832Y-8907791D01*
X9016832Y-8887791D02*
X8996832Y-8907791D01*
X9004881Y-9110707D02*
X9024881Y-9130707D01*
X9024881Y-9110707D02*
X9004881Y-9130707D01*
X9019838Y-8393451D02*
X9039838Y-8413451D01*
X9039838Y-8393451D02*
X9019838Y-8413451D01*
X9021696Y-11384534D02*
X9041696Y-11404534D01*
X9041696Y-11384534D02*
X9021696Y-11404534D01*
X9024045Y-11442799D02*
X9044045Y-11462799D01*
X9044045Y-11442799D02*
X9024045Y-11462799D01*
X9029860Y-8501540D02*
X9049860Y-8521540D01*
X9049860Y-8501540D02*
X9029860Y-8521540D01*
X9034689Y-8679658D02*
X9054689Y-8699658D01*
X9054689Y-8679658D02*
X9034689Y-8699658D01*
X9037361Y-11516730D02*
X9057361Y-11536730D01*
X9057361Y-11516730D02*
X9037361Y-11536730D01*
X9050319Y-8839360D02*
X9070319Y-8859360D01*
X9070319Y-8839360D02*
X9050319Y-8859360D01*
X9051629Y-8894777D02*
X9071629Y-8914777D01*
X9071629Y-8894777D02*
X9051629Y-8914777D01*
X9059354Y-11859951D02*
X9079354Y-11879951D01*
X9079354Y-11859951D02*
X9059354Y-11879951D01*
X9079136Y-12156854D02*
X9099136Y-12176854D01*
X9099136Y-12156854D02*
X9079136Y-12176854D01*
X9080824Y-11760273D02*
X9100824Y-11780273D01*
X9100824Y-11760273D02*
X9080824Y-11780273D01*
X9092876Y-9479416D02*
X9112876Y-9499416D01*
X9112876Y-9479416D02*
X9092876Y-9499416D01*
X9106934Y-11380873D02*
X9126934Y-11400873D01*
X9126934Y-11380873D02*
X9106934Y-11400873D01*
X9119427Y-11875583D02*
X9139427Y-11895583D01*
X9139427Y-11875583D02*
X9119427Y-11895583D01*
X9125901Y-11706391D02*
X9145901Y-11726391D01*
X9145901Y-11706391D02*
X9125901Y-11726391D01*
X9151982Y-11920212D02*
X9171982Y-11940212D01*
X9171982Y-11920212D02*
X9151982Y-11940212D01*
X9159073Y-9314823D02*
X9179073Y-9334823D01*
X9179073Y-9314823D02*
X9159073Y-9334823D01*
X9183276Y-12156854D02*
X9203276Y-12176854D01*
X9203276Y-12156854D02*
X9183276Y-12176854D01*
X9184385Y-11874657D02*
X9204385Y-11894657D01*
X9204385Y-11874657D02*
X9184385Y-11894657D01*
X9229973Y-8269677D02*
X9249973Y-8289677D01*
X9249973Y-8269677D02*
X9229973Y-8289677D01*
X9274716Y-12151774D02*
X9294716Y-12171774D01*
X9294716Y-12151774D02*
X9274716Y-12171774D01*
X9278018Y-9277002D02*
X9298018Y-9297002D01*
X9298018Y-9277002D02*
X9278018Y-9297002D01*
X9288222Y-8384022D02*
X9308222Y-8404022D01*
X9308222Y-8384022D02*
X9288222Y-8404022D01*
X9288222Y-8867188D02*
X9308222Y-8887188D01*
X9308222Y-8867188D02*
X9288222Y-8887188D01*
X9291895Y-11905713D02*
X9311895Y-11925713D01*
X9311895Y-11905713D02*
X9291895Y-11925713D01*
X9314738Y-11325275D02*
X9334738Y-11345275D01*
X9334738Y-11325275D02*
X9314738Y-11345275D01*
X9326213Y-9109281D02*
X9346213Y-9129281D01*
X9346213Y-9109281D02*
X9326213Y-9129281D01*
X9342258Y-9560380D02*
X9362258Y-9580380D01*
X9362258Y-9560380D02*
X9342258Y-9580380D01*
X9348623Y-11878808D02*
X9368623Y-11898808D01*
X9368623Y-11878808D02*
X9348623Y-11898808D01*
X9358208Y-11279418D02*
X9378208Y-11299418D01*
X9378208Y-11279418D02*
X9358208Y-11299418D01*
X9365893Y-8823801D02*
X9385893Y-8843801D01*
X9385893Y-8823801D02*
X9365893Y-8843801D01*
X9370990Y-9187514D02*
X9390990Y-9207514D01*
X9390990Y-9187514D02*
X9370990Y-9207514D01*
X9403352Y-11905763D02*
X9423352Y-11925763D01*
X9423352Y-11905763D02*
X9403352Y-11925763D01*
X9404257Y-11321754D02*
X9424257Y-11341754D01*
X9424257Y-11321754D02*
X9404257Y-11341754D01*
X9411934Y-9112542D02*
X9431934Y-9132542D01*
X9431934Y-9112542D02*
X9411934Y-9132542D01*
X9412006Y-8908401D02*
X9432006Y-8928401D01*
X9432006Y-8908401D02*
X9412006Y-8928401D01*
X9427772Y-12154379D02*
X9447772Y-12174379D01*
X9447772Y-12154379D02*
X9427772Y-12174379D01*
X9435752Y-10556400D02*
X9455752Y-10576400D01*
X9455752Y-10556400D02*
X9435752Y-10576400D01*
X9437262Y-9556035D02*
X9457262Y-9576035D01*
X9457262Y-9556035D02*
X9437262Y-9576035D01*
X9438800Y-10467500D02*
X9458800Y-10487500D01*
X9458800Y-10467500D02*
X9438800Y-10487500D01*
X9458568Y-11904121D02*
X9478568Y-11924121D01*
X9478568Y-11904121D02*
X9458568Y-11924121D01*
X9467914Y-9267973D02*
X9487914Y-9287973D01*
X9487914Y-9267973D02*
X9467914Y-9287973D01*
X9497655Y-9098248D02*
X9517655Y-9118248D01*
X9517655Y-9098248D02*
X9497655Y-9118248D01*
X9497727Y-8897215D02*
X9517727Y-8917215D01*
X9517727Y-8897215D02*
X9497727Y-8917215D01*
X9520588Y-9288940D02*
X9540588Y-9308940D01*
X9540588Y-9288940D02*
X9520588Y-9308940D01*
X9521534Y-11331035D02*
X9541534Y-11351035D01*
X9541534Y-11331035D02*
X9521534Y-11351035D01*
X9543240Y-11867494D02*
X9563240Y-11887494D01*
X9563240Y-11867494D02*
X9543240Y-11887494D01*
X9543604Y-8857282D02*
X9563604Y-8877282D01*
X9563604Y-8857282D02*
X9543604Y-8877282D01*
X9570119Y-11779723D02*
X9590119Y-11799723D01*
X9590119Y-11779723D02*
X9570119Y-11799723D01*
X9587136Y-11288174D02*
X9607136Y-11308174D01*
X9607136Y-11288174D02*
X9587136Y-11308174D01*
X9587656Y-9107504D02*
X9607656Y-9127504D01*
X9607656Y-9107504D02*
X9587656Y-9127504D01*
X9592151Y-8885236D02*
X9612151Y-8905236D01*
X9612151Y-8885236D02*
X9592151Y-8905236D01*
X9598473Y-11866535D02*
X9618473Y-11886535D01*
X9618473Y-11866535D02*
X9598473Y-11886535D01*
X9617783Y-11807649D02*
X9637783Y-11827649D01*
X9637783Y-11807649D02*
X9617783Y-11827649D01*
X9620156Y-10538620D02*
X9640156Y-10558620D01*
X9640156Y-10538620D02*
X9620156Y-10558620D01*
X9653569Y-9189777D02*
X9673569Y-9209777D01*
X9673569Y-9189777D02*
X9653569Y-9209777D01*
X9658442Y-11891037D02*
X9678442Y-11911037D01*
X9678442Y-11891037D02*
X9658442Y-11911037D01*
X9673377Y-9103791D02*
X9693377Y-9123791D01*
X9693377Y-9103791D02*
X9673377Y-9123791D01*
X9689595Y-12154379D02*
X9709595Y-12174379D01*
X9709595Y-12154379D02*
X9689595Y-12174379D01*
X9706073Y-11574332D02*
X9726073Y-11594332D01*
X9726073Y-11574332D02*
X9706073Y-11594332D01*
X9716706Y-10492072D02*
X9736706Y-10512072D01*
X9736706Y-10492072D02*
X9716706Y-10512072D01*
X9728999Y-9104399D02*
X9748999Y-9124399D01*
X9748999Y-9104399D02*
X9728999Y-9124399D01*
X9732170Y-8880000D02*
X9752170Y-8900000D01*
X9752170Y-8880000D02*
X9732170Y-8900000D01*
X9814720Y-9128920D02*
X9834720Y-9148920D01*
X9834720Y-9128920D02*
X9814720Y-9148920D01*
X9879236Y-11344054D02*
X9899236Y-11364054D01*
X9899236Y-11344054D02*
X9879236Y-11364054D01*
X9901842Y-12036966D02*
X9921842Y-12056966D01*
X9921842Y-12036966D02*
X9901842Y-12056966D01*
X9902096Y-12187334D02*
X9922096Y-12207334D01*
X9922096Y-12187334D02*
X9902096Y-12207334D01*
X9908661Y-11522991D02*
X9928661Y-11542991D01*
X9928661Y-11522991D02*
X9908661Y-11542991D01*
X9908964Y-11467751D02*
X9928964Y-11487751D01*
X9928964Y-11467751D02*
X9908964Y-11487751D01*
X9925626Y-11777419D02*
X9945626Y-11797419D01*
X9945626Y-11777419D02*
X9925626Y-11797419D01*
X9935818Y-11640973D02*
X9955818Y-11660973D01*
X9955818Y-11640973D02*
X9935818Y-11660973D01*
X9944260Y-9128920D02*
X9964260Y-9148920D01*
X9964260Y-9128920D02*
X9944260Y-9148920D01*
X9967120Y-12159140D02*
X9987120Y-12179140D01*
X9987120Y-12159140D02*
X9967120Y-12179140D01*
X9988217Y-11346840D02*
X10008217Y-11366840D01*
X10008217Y-11346840D02*
X9988217Y-11366840D01*
X9992897Y-11423907D02*
X10012897Y-11443907D01*
X10012897Y-11423907D02*
X9992897Y-11443907D01*
X10001156Y-11752994D02*
X10021156Y-11772994D01*
X10021156Y-11752994D02*
X10001156Y-11772994D01*
X10009126Y-11568602D02*
X10029126Y-11588602D01*
X10029126Y-11568602D02*
X10009126Y-11588602D01*
X10022836Y-12182001D02*
X10042836Y-12202001D01*
X10042836Y-12182001D02*
X10022836Y-12202001D01*
X10023000Y-12004200D02*
X10043000Y-12024200D01*
X10043000Y-12004200D02*
X10023000Y-12024200D01*
X10031478Y-11909767D02*
X10051478Y-11929767D01*
X10051478Y-11909767D02*
X10031478Y-11929767D01*
X10045334Y-11610323D02*
X10065334Y-11630323D01*
X10065334Y-11610323D02*
X10045334Y-11630323D01*
X10073800Y-9128920D02*
X10093800Y-9148920D01*
X10093800Y-9128920D02*
X10073800Y-9148920D01*
X10087516Y-11399934D02*
X10107516Y-11419934D01*
X10107516Y-11399934D02*
X10087516Y-11419934D01*
X10117996Y-11920634D02*
X10137996Y-11940634D01*
X10137996Y-11920634D02*
X10117996Y-11940634D01*
X10203340Y-9128920D02*
X10223340Y-9148920D01*
X10223340Y-9128920D02*
X10203340Y-9148920D01*
X10909968Y-11450734D02*
X10929968Y-11470734D01*
X10929968Y-11450734D02*
X10909968Y-11470734D01*
D13*
X8624404Y-7382002D02*
G75*
G03*
X8624404Y-7382002I-15000J0D01*
G01*
X8654885Y-7457741D02*
G75*
G03*
X8654885Y-7457741I-15000J0D01*
G01*
X9118180Y-9124770D02*
G75*
G03*
X9118180Y-9124770I-15000J0D01*
G01*
X9198573Y-9124184D02*
G75*
G03*
X9198573Y-9124184I-15000J0D01*
G01*
X9622296Y-11409934D02*
G75*
G03*
X9622296Y-11409934I-15000J0D01*
G01*
X10764204Y-11097006D02*
G75*
G03*
X10764204Y-11097006I-15000J0D01*
G01*
D14*
X6933438Y-9413814D02*
X6933438Y-9453814D01*
X6913438Y-9433814D02*
X6953438Y-9433814D01*
X7016740Y-9626158D02*
X7016740Y-9666158D01*
X6996740Y-9646158D02*
X7036740Y-9646158D01*
X7379716Y-11030016D02*
X7379716Y-11070016D01*
X7359716Y-11050016D02*
X7399716Y-11050016D01*
X7607865Y-9165721D02*
X7607865Y-9205721D01*
X7587865Y-9185721D02*
X7627865Y-9185721D01*
X7620688Y-8765564D02*
X7620688Y-8805564D01*
X7600688Y-8785564D02*
X7640688Y-8785564D01*
X7640327Y-9006293D02*
X7640327Y-9046293D01*
X7620327Y-9026293D02*
X7660327Y-9026293D01*
X7713512Y-8895894D02*
X7713512Y-8935894D01*
X7693512Y-8915894D02*
X7733512Y-8915894D01*
X7733030Y-8472744D02*
X7733030Y-8512744D01*
X7713030Y-8492744D02*
X7753030Y-8492744D01*
X7743190Y-9431340D02*
X7743190Y-9471340D01*
X7723190Y-9451340D02*
X7763190Y-9451340D01*
X7821930Y-8353208D02*
X7821930Y-8393208D01*
X7801930Y-8373208D02*
X7841930Y-8373208D01*
X7830046Y-8500650D02*
X7830046Y-8540650D01*
X7810046Y-8520650D02*
X7850046Y-8520650D01*
X7897555Y-11539064D02*
X7897555Y-11579064D01*
X7877555Y-11559064D02*
X7917555Y-11559064D01*
X8172602Y-7374994D02*
X8172602Y-7414994D01*
X8152602Y-7394994D02*
X8192602Y-7394994D01*
X8267700Y-9543100D02*
X8267700Y-9583100D01*
X8247700Y-9563100D02*
X8287700Y-9563100D01*
X8304519Y-9223621D02*
X8304519Y-9263621D01*
X8284519Y-9243621D02*
X8324519Y-9243621D01*
X8305842Y-7635086D02*
X8305842Y-7675086D01*
X8285842Y-7655086D02*
X8325842Y-7655086D01*
X8350672Y-8601065D02*
X8350672Y-8641065D01*
X8330672Y-8621065D02*
X8370672Y-8621065D01*
X8476996Y-11516934D02*
X8476996Y-11556934D01*
X8456996Y-11536934D02*
X8496996Y-11536934D01*
X8515621Y-8542365D02*
X8515621Y-8582365D01*
X8495621Y-8562365D02*
X8535621Y-8562365D01*
X8561340Y-9152110D02*
X8561340Y-9192110D01*
X8541340Y-9172110D02*
X8581340Y-9172110D01*
X8585585Y-8453921D02*
X8585585Y-8493921D01*
X8565585Y-8473921D02*
X8605585Y-8473921D01*
X8641771Y-9101102D02*
X8641771Y-9141102D01*
X8621771Y-9121102D02*
X8661771Y-9121102D01*
X9263380Y-9492300D02*
X9263380Y-9532300D01*
X9243380Y-9512300D02*
X9283380Y-9512300D01*
X9502140Y-8302310D02*
X9502140Y-8342310D01*
X9482140Y-8322310D02*
X9522140Y-8322310D01*
X10596118Y-11003854D02*
X10596118Y-11043854D01*
X10576118Y-11023854D02*
X10616118Y-11023854D01*
X10842498Y-11259886D02*
X10842498Y-11299886D01*
X10822498Y-11279886D02*
X10862498Y-11279886D01*
X10946384Y-11665016D02*
X10946384Y-11705016D01*
X10926384Y-11685016D02*
X10966384Y-11685016D01*
D15*
X7315490Y-8394130D02*
X7315490Y-8362310D01*
X7283670Y-8362310D01*
X7283670Y-8394130D01*
X7315490Y-8394130D01*
X7315490Y-8474130D02*
X7315490Y-8442310D01*
X7283670Y-8442310D01*
X7283670Y-8474130D01*
X7315490Y-8474130D01*
X7315490Y-8554130D02*
X7315490Y-8522310D01*
X7283670Y-8522310D01*
X7283670Y-8554130D01*
X7315490Y-8554130D01*
X7315490Y-8714130D02*
X7315490Y-8682310D01*
X7283670Y-8682310D01*
X7283670Y-8714130D01*
X7315490Y-8714130D01*
X7315490Y-8794130D02*
X7315490Y-8762310D01*
X7283670Y-8762310D01*
X7283670Y-8794130D01*
X7315490Y-8794130D01*
X7315490Y-8874130D02*
X7315490Y-8842310D01*
X7283670Y-8842310D01*
X7283670Y-8874130D01*
X7315490Y-8874130D01*
X7385490Y-8354130D02*
X7385490Y-8322310D01*
X7353670Y-8322310D01*
X7353670Y-8354130D01*
X7385490Y-8354130D01*
X7385490Y-8514130D02*
X7385490Y-8482310D01*
X7353670Y-8482310D01*
X7353670Y-8514130D01*
X7385490Y-8514130D01*
X7385490Y-8594130D02*
X7385490Y-8562310D01*
X7353670Y-8562310D01*
X7353670Y-8594130D01*
X7385490Y-8594130D01*
X7385490Y-8674130D02*
X7385490Y-8642310D01*
X7353670Y-8642310D01*
X7353670Y-8674130D01*
X7385490Y-8674130D01*
X7385490Y-8754130D02*
X7385490Y-8722310D01*
X7353670Y-8722310D01*
X7353670Y-8754130D01*
X7385490Y-8754130D01*
X7385490Y-8914130D02*
X7385490Y-8882310D01*
X7353670Y-8882310D01*
X7353670Y-8914130D01*
X7385490Y-8914130D01*
D16*
X6994580Y-8190720D02*
X7027080Y-8158220D01*
X6994580Y-8125720D01*
X6962080Y-8158220D01*
X6994580Y-8190720D01*
D11*
X7044580Y-8125720D02*
X6944580Y-8125720D01*
X7044580Y-8190720D02*
X6944580Y-8190720D01*
X6944580Y-8125720D02*
G75*
G03*
X6944580Y-8190720I0J-32500D01*
G01*
X7044580Y-8190720D02*
G75*
G03*
X7044580Y-8125720I0J32500D01*
G01*
D16*
X6994580Y-9110720D02*
X7027080Y-9078220D01*
X6994580Y-9045720D01*
X6962080Y-9078220D01*
X6994580Y-9110720D01*
D11*
X7044580Y-9045720D02*
X6944580Y-9045720D01*
X7044580Y-9110720D02*
X6944580Y-9110720D01*
X6944580Y-9045720D02*
G75*
G03*
X6944580Y-9110720I0J-32500D01*
G01*
X7044580Y-9110720D02*
G75*
G03*
X7044580Y-9045720I0J32500D01*
G01*
D16*
X7294580Y-8190720D02*
X7327080Y-8158220D01*
X7294580Y-8125720D01*
X7262080Y-8158220D01*
X7294580Y-8190720D01*
D11*
X7344580Y-8125720D02*
X7244580Y-8125720D01*
X7344580Y-8190720D02*
X7244580Y-8190720D01*
X7244580Y-8125720D02*
G75*
G03*
X7244580Y-8190720I0J-32500D01*
G01*
X7344580Y-8190720D02*
G75*
G03*
X7344580Y-8125720I0J32500D01*
G01*
D16*
X7294580Y-9110720D02*
X7327080Y-9078220D01*
X7294580Y-9045720D01*
X7262080Y-9078220D01*
X7294580Y-9110720D01*
D11*
X7344580Y-9045720D02*
X7244580Y-9045720D01*
X7344580Y-9110720D02*
X7244580Y-9110720D01*
X7244580Y-9045720D02*
G75*
G03*
X7244580Y-9110720I0J-32500D01*
G01*
X7344580Y-9110720D02*
G75*
G03*
X7344580Y-9045720I0J32500D01*
G01*
D17*
X7949420Y-9282920D02*
X8169420Y-9502920D01*
X8169420Y-9282920D02*
X7949420Y-9502920D01*
X8169420Y-9392920D02*
G75*
G03*
X8169420Y-9392920I-110000J0D01*
G01*
X8412716Y-11894294D02*
X8632716Y-12114294D01*
X8632716Y-11894294D02*
X8412716Y-12114294D01*
X8632716Y-12004294D02*
G75*
G03*
X8632716Y-12004294I-110000J0D01*
G01*
D18*
X6356800Y-10928800D02*
X7206800Y-11778800D01*
X7206800Y-10928800D02*
X6356800Y-11778800D01*
X6781800Y-10928800D02*
X6781800Y-11778800D01*
X6356800Y-11353800D02*
X7206800Y-11353800D01*
X9531800Y-13341800D02*
X10381800Y-14191800D01*
X10381800Y-13341800D02*
X9531800Y-14191800D01*
X9956800Y-13341800D02*
X9956800Y-14191800D01*
X9531800Y-13766800D02*
X10381800Y-13766800D01*
X11246300Y-10928800D02*
X12096300Y-11778800D01*
X12096300Y-10928800D02*
X11246300Y-11778800D01*
X11671300Y-10928800D02*
X11671300Y-11778800D01*
X11246300Y-11353800D02*
X12096300Y-11353800D01*
D11*
X6361905Y-14763692D02*
X6361905Y-14563692D01*
X6409524Y-14563692D01*
X6438095Y-14573216D01*
X6457143Y-14592263D01*
X6466667Y-14611311D01*
X6476191Y-14649406D01*
X6476191Y-14677978D01*
X6466667Y-14716073D01*
X6457143Y-14735120D01*
X6438095Y-14754168D01*
X6409524Y-14763692D01*
X6361905Y-14763692D01*
X6561905Y-14763692D02*
X6561905Y-14630359D01*
X6561905Y-14668454D02*
X6571429Y-14649406D01*
X6580952Y-14639882D01*
X6600000Y-14630359D01*
X6619048Y-14630359D01*
X6685714Y-14763692D02*
X6685714Y-14630359D01*
X6685714Y-14563692D02*
X6676191Y-14573216D01*
X6685714Y-14582740D01*
X6695238Y-14573216D01*
X6685714Y-14563692D01*
X6685714Y-14582740D01*
X6809524Y-14763692D02*
X6790476Y-14754168D01*
X6780952Y-14735120D01*
X6780952Y-14563692D01*
X6914286Y-14763692D02*
X6895238Y-14754168D01*
X6885714Y-14735120D01*
X6885714Y-14563692D01*
X7142857Y-14763692D02*
X7142857Y-14563692D01*
X7209524Y-14706549D01*
X7276191Y-14563692D01*
X7276191Y-14763692D01*
X7457143Y-14763692D02*
X7457143Y-14658930D01*
X7447619Y-14639882D01*
X7428572Y-14630359D01*
X7390476Y-14630359D01*
X7371429Y-14639882D01*
X7457143Y-14754168D02*
X7438095Y-14763692D01*
X7390476Y-14763692D01*
X7371429Y-14754168D01*
X7361905Y-14735120D01*
X7361905Y-14716073D01*
X7371429Y-14697025D01*
X7390476Y-14687501D01*
X7438095Y-14687501D01*
X7457143Y-14677978D01*
X7552381Y-14630359D02*
X7552381Y-14830359D01*
X7552381Y-14639882D02*
X7571429Y-14630359D01*
X7609524Y-14630359D01*
X7628572Y-14639882D01*
X7638095Y-14649406D01*
X7647619Y-14668454D01*
X7647619Y-14725597D01*
X7638095Y-14744644D01*
X7628572Y-14754168D01*
X7609524Y-14763692D01*
X7571429Y-14763692D01*
X7552381Y-14754168D01*
X7733333Y-14744644D02*
X7742857Y-14754168D01*
X7733333Y-14763692D01*
X7723810Y-14754168D01*
X7733333Y-14744644D01*
X7733333Y-14763692D01*
X7733333Y-14639882D02*
X7742857Y-14649406D01*
X7733333Y-14658930D01*
X7723810Y-14649406D01*
X7733333Y-14639882D01*
X7733333Y-14658930D01*
D12*
X6084286Y-15083216D02*
X6104286Y-15103216D01*
X6104286Y-15083216D02*
X6084286Y-15103216D01*
D11*
X6400000Y-14983692D02*
X6419048Y-14983692D01*
X6438095Y-14993216D01*
X6447619Y-15002740D01*
X6457143Y-15021787D01*
X6466667Y-15059882D01*
X6466667Y-15107501D01*
X6457143Y-15145597D01*
X6447619Y-15164644D01*
X6438095Y-15174168D01*
X6419048Y-15183692D01*
X6400000Y-15183692D01*
X6380952Y-15174168D01*
X6371429Y-15164644D01*
X6361905Y-15145597D01*
X6352381Y-15107501D01*
X6352381Y-15059882D01*
X6361905Y-15021787D01*
X6371429Y-15002740D01*
X6380952Y-14993216D01*
X6400000Y-14983692D01*
X6552381Y-15164644D02*
X6561905Y-15174168D01*
X6552381Y-15183692D01*
X6542857Y-15174168D01*
X6552381Y-15164644D01*
X6552381Y-15183692D01*
X6638095Y-15002740D02*
X6647619Y-14993216D01*
X6666667Y-14983692D01*
X6714286Y-14983692D01*
X6733333Y-14993216D01*
X6742857Y-15002740D01*
X6752381Y-15021787D01*
X6752381Y-15040835D01*
X6742857Y-15069406D01*
X6628572Y-15183692D01*
X6752381Y-15183692D01*
X6876191Y-14983692D02*
X6895238Y-14983692D01*
X6914286Y-14993216D01*
X6923810Y-15002740D01*
X6933333Y-15021787D01*
X6942857Y-15059882D01*
X6942857Y-15107501D01*
X6933333Y-15145597D01*
X6923810Y-15164644D01*
X6914286Y-15174168D01*
X6895238Y-15183692D01*
X6876191Y-15183692D01*
X6857143Y-15174168D01*
X6847619Y-15164644D01*
X6838095Y-15145597D01*
X6828572Y-15107501D01*
X6828572Y-15059882D01*
X6838095Y-15021787D01*
X6847619Y-15002740D01*
X6857143Y-14993216D01*
X6876191Y-14983692D01*
X7066667Y-14983692D02*
X7085714Y-14983692D01*
X7104762Y-14993216D01*
X7114286Y-15002740D01*
X7123810Y-15021787D01*
X7133333Y-15059882D01*
X7133333Y-15107501D01*
X7123810Y-15145597D01*
X7114286Y-15164644D01*
X7104762Y-15174168D01*
X7085714Y-15183692D01*
X7066667Y-15183692D01*
X7047619Y-15174168D01*
X7038095Y-15164644D01*
X7028572Y-15145597D01*
X7019048Y-15107501D01*
X7019048Y-15059882D01*
X7028572Y-15021787D01*
X7038095Y-15002740D01*
X7047619Y-14993216D01*
X7066667Y-14983692D01*
X7219048Y-15183692D02*
X7219048Y-15050359D01*
X7219048Y-15069406D02*
X7228572Y-15059882D01*
X7247619Y-15050359D01*
X7276191Y-15050359D01*
X7295238Y-15059882D01*
X7304762Y-15078930D01*
X7304762Y-15183692D01*
X7304762Y-15078930D02*
X7314286Y-15059882D01*
X7333333Y-15050359D01*
X7361905Y-15050359D01*
X7380952Y-15059882D01*
X7390476Y-15078930D01*
X7390476Y-15183692D01*
X7485714Y-15183692D02*
X7485714Y-15050359D01*
X7485714Y-15069406D02*
X7495238Y-15059882D01*
X7514286Y-15050359D01*
X7542857Y-15050359D01*
X7561905Y-15059882D01*
X7571429Y-15078930D01*
X7571429Y-15183692D01*
X7571429Y-15078930D02*
X7580952Y-15059882D01*
X7600000Y-15050359D01*
X7628572Y-15050359D01*
X7647619Y-15059882D01*
X7657143Y-15078930D01*
X7657143Y-15183692D01*
X8047619Y-14974168D02*
X7876191Y-15231311D01*
X8304762Y-14983692D02*
X8323810Y-14983692D01*
X8342857Y-14993216D01*
X8352381Y-15002740D01*
X8361905Y-15021787D01*
X8371429Y-15059882D01*
X8371429Y-15107501D01*
X8361905Y-15145597D01*
X8352381Y-15164644D01*
X8342857Y-15174168D01*
X8323810Y-15183692D01*
X8304762Y-15183692D01*
X8285714Y-15174168D01*
X8276191Y-15164644D01*
X8266667Y-15145597D01*
X8257143Y-15107501D01*
X8257143Y-15059882D01*
X8266667Y-15021787D01*
X8276191Y-15002740D01*
X8285714Y-14993216D01*
X8304762Y-14983692D01*
X8457143Y-15164644D02*
X8466667Y-15174168D01*
X8457143Y-15183692D01*
X8447619Y-15174168D01*
X8457143Y-15164644D01*
X8457143Y-15183692D01*
X8590476Y-14983692D02*
X8609524Y-14983692D01*
X8628572Y-14993216D01*
X8638095Y-15002740D01*
X8647619Y-15021787D01*
X8657143Y-15059882D01*
X8657143Y-15107501D01*
X8647619Y-15145597D01*
X8638095Y-15164644D01*
X8628572Y-15174168D01*
X8609524Y-15183692D01*
X8590476Y-15183692D01*
X8571429Y-15174168D01*
X8561905Y-15164644D01*
X8552381Y-15145597D01*
X8542857Y-15107501D01*
X8542857Y-15059882D01*
X8552381Y-15021787D01*
X8561905Y-15002740D01*
X8571429Y-14993216D01*
X8590476Y-14983692D01*
X8780953Y-14983692D02*
X8800000Y-14983692D01*
X8819048Y-14993216D01*
X8828572Y-15002740D01*
X8838095Y-15021787D01*
X8847619Y-15059882D01*
X8847619Y-15107501D01*
X8838095Y-15145597D01*
X8828572Y-15164644D01*
X8819048Y-15174168D01*
X8800000Y-15183692D01*
X8780953Y-15183692D01*
X8761905Y-15174168D01*
X8752381Y-15164644D01*
X8742857Y-15145597D01*
X8733334Y-15107501D01*
X8733334Y-15059882D01*
X8742857Y-15021787D01*
X8752381Y-15002740D01*
X8761905Y-14993216D01*
X8780953Y-14983692D01*
X8914286Y-14983692D02*
X9047619Y-14983692D01*
X8961905Y-15183692D01*
X9133334Y-15183692D02*
X9171429Y-15183692D01*
X9190476Y-15174168D01*
X9200000Y-15164644D01*
X9219048Y-15136073D01*
X9228572Y-15097978D01*
X9228572Y-15021787D01*
X9219048Y-15002740D01*
X9209524Y-14993216D01*
X9190476Y-14983692D01*
X9152381Y-14983692D01*
X9133334Y-14993216D01*
X9123810Y-15002740D01*
X9114286Y-15021787D01*
X9114286Y-15069406D01*
X9123810Y-15088454D01*
X9133334Y-15097978D01*
X9152381Y-15107501D01*
X9190476Y-15107501D01*
X9209524Y-15097978D01*
X9219048Y-15088454D01*
X9228572Y-15069406D01*
X9304762Y-14983692D02*
X9304762Y-15021787D01*
X9380953Y-14983692D02*
X9380953Y-15021787D01*
X9676191Y-15259882D02*
X9666667Y-15250359D01*
X9647619Y-15221787D01*
X9638095Y-15202740D01*
X9628572Y-15174168D01*
X9619048Y-15126549D01*
X9619048Y-15088454D01*
X9628572Y-15040835D01*
X9638095Y-15012263D01*
X9647619Y-14993216D01*
X9666667Y-14964644D01*
X9676191Y-14955120D01*
X9857143Y-15183692D02*
X9742857Y-15183692D01*
X9800000Y-15183692D02*
X9800000Y-14983692D01*
X9780953Y-15012263D01*
X9761905Y-15031311D01*
X9742857Y-15040835D01*
X9923810Y-14983692D02*
X10057143Y-14983692D01*
X9971429Y-15183692D01*
X10142857Y-15183692D02*
X10180953Y-15183692D01*
X10200000Y-15174168D01*
X10209524Y-15164644D01*
X10228572Y-15136073D01*
X10238095Y-15097978D01*
X10238095Y-15021787D01*
X10228572Y-15002740D01*
X10219048Y-14993216D01*
X10200000Y-14983692D01*
X10161905Y-14983692D01*
X10142857Y-14993216D01*
X10133334Y-15002740D01*
X10123810Y-15021787D01*
X10123810Y-15069406D01*
X10133334Y-15088454D01*
X10142857Y-15097978D01*
X10161905Y-15107501D01*
X10200000Y-15107501D01*
X10219048Y-15097978D01*
X10228572Y-15088454D01*
X10238095Y-15069406D01*
X10476191Y-15183692D02*
X10476191Y-14983692D01*
X10561905Y-15183692D02*
X10561905Y-15078930D01*
X10552381Y-15059882D01*
X10533334Y-15050359D01*
X10504762Y-15050359D01*
X10485714Y-15059882D01*
X10476191Y-15069406D01*
X10685714Y-15183692D02*
X10666667Y-15174168D01*
X10657143Y-15164644D01*
X10647619Y-15145597D01*
X10647619Y-15088454D01*
X10657143Y-15069406D01*
X10666667Y-15059882D01*
X10685714Y-15050359D01*
X10714286Y-15050359D01*
X10733334Y-15059882D01*
X10742857Y-15069406D01*
X10752381Y-15088454D01*
X10752381Y-15145597D01*
X10742857Y-15164644D01*
X10733334Y-15174168D01*
X10714286Y-15183692D01*
X10685714Y-15183692D01*
X10866667Y-15183692D02*
X10847619Y-15174168D01*
X10838095Y-15155120D01*
X10838095Y-14983692D01*
X11019048Y-15174168D02*
X11000000Y-15183692D01*
X10961905Y-15183692D01*
X10942857Y-15174168D01*
X10933334Y-15155120D01*
X10933334Y-15078930D01*
X10942857Y-15059882D01*
X10961905Y-15050359D01*
X11000000Y-15050359D01*
X11019048Y-15059882D01*
X11028572Y-15078930D01*
X11028572Y-15097978D01*
X10933334Y-15117025D01*
X11104762Y-15174168D02*
X11123810Y-15183692D01*
X11161905Y-15183692D01*
X11180953Y-15174168D01*
X11190476Y-15155120D01*
X11190476Y-15145597D01*
X11180953Y-15126549D01*
X11161905Y-15117025D01*
X11133334Y-15117025D01*
X11114286Y-15107501D01*
X11104762Y-15088454D01*
X11104762Y-15078930D01*
X11114286Y-15059882D01*
X11133334Y-15050359D01*
X11161905Y-15050359D01*
X11180953Y-15059882D01*
X11257143Y-15259882D02*
X11266667Y-15250359D01*
X11285714Y-15221787D01*
X11295238Y-15202740D01*
X11304762Y-15174168D01*
X11314286Y-15126549D01*
X11314286Y-15088454D01*
X11304762Y-15040835D01*
X11295238Y-15012263D01*
X11285714Y-14993216D01*
X11266667Y-14964644D01*
X11257143Y-14955120D01*
D13*
X6104286Y-15357216D02*
G75*
G03*
X6104286Y-15357216I-15000J0D01*
G01*
D11*
X6400000Y-15247692D02*
X6419048Y-15247692D01*
X6438095Y-15257216D01*
X6447619Y-15266740D01*
X6457143Y-15285787D01*
X6466667Y-15323882D01*
X6466667Y-15371501D01*
X6457143Y-15409597D01*
X6447619Y-15428644D01*
X6438095Y-15438168D01*
X6419048Y-15447692D01*
X6400000Y-15447692D01*
X6380952Y-15438168D01*
X6371429Y-15428644D01*
X6361905Y-15409597D01*
X6352381Y-15371501D01*
X6352381Y-15323882D01*
X6361905Y-15285787D01*
X6371429Y-15266740D01*
X6380952Y-15257216D01*
X6400000Y-15247692D01*
X6552381Y-15428644D02*
X6561905Y-15438168D01*
X6552381Y-15447692D01*
X6542857Y-15438168D01*
X6552381Y-15428644D01*
X6552381Y-15447692D01*
X6628572Y-15247692D02*
X6752381Y-15247692D01*
X6685714Y-15323882D01*
X6714286Y-15323882D01*
X6733333Y-15333406D01*
X6742857Y-15342930D01*
X6752381Y-15361978D01*
X6752381Y-15409597D01*
X6742857Y-15428644D01*
X6733333Y-15438168D01*
X6714286Y-15447692D01*
X6657143Y-15447692D01*
X6638095Y-15438168D01*
X6628572Y-15428644D01*
X6876191Y-15247692D02*
X6895238Y-15247692D01*
X6914286Y-15257216D01*
X6923810Y-15266740D01*
X6933333Y-15285787D01*
X6942857Y-15323882D01*
X6942857Y-15371501D01*
X6933333Y-15409597D01*
X6923810Y-15428644D01*
X6914286Y-15438168D01*
X6895238Y-15447692D01*
X6876191Y-15447692D01*
X6857143Y-15438168D01*
X6847619Y-15428644D01*
X6838095Y-15409597D01*
X6828572Y-15371501D01*
X6828572Y-15323882D01*
X6838095Y-15285787D01*
X6847619Y-15266740D01*
X6857143Y-15257216D01*
X6876191Y-15247692D01*
X7066667Y-15247692D02*
X7085714Y-15247692D01*
X7104762Y-15257216D01*
X7114286Y-15266740D01*
X7123810Y-15285787D01*
X7133333Y-15323882D01*
X7133333Y-15371501D01*
X7123810Y-15409597D01*
X7114286Y-15428644D01*
X7104762Y-15438168D01*
X7085714Y-15447692D01*
X7066667Y-15447692D01*
X7047619Y-15438168D01*
X7038095Y-15428644D01*
X7028572Y-15409597D01*
X7019048Y-15371501D01*
X7019048Y-15323882D01*
X7028572Y-15285787D01*
X7038095Y-15266740D01*
X7047619Y-15257216D01*
X7066667Y-15247692D01*
X7219048Y-15447692D02*
X7219048Y-15314359D01*
X7219048Y-15333406D02*
X7228572Y-15323882D01*
X7247619Y-15314359D01*
X7276191Y-15314359D01*
X7295238Y-15323882D01*
X7304762Y-15342930D01*
X7304762Y-15447692D01*
X7304762Y-15342930D02*
X7314286Y-15323882D01*
X7333333Y-15314359D01*
X7361905Y-15314359D01*
X7380952Y-15323882D01*
X7390476Y-15342930D01*
X7390476Y-15447692D01*
X7485714Y-15447692D02*
X7485714Y-15314359D01*
X7485714Y-15333406D02*
X7495238Y-15323882D01*
X7514286Y-15314359D01*
X7542857Y-15314359D01*
X7561905Y-15323882D01*
X7571429Y-15342930D01*
X7571429Y-15447692D01*
X7571429Y-15342930D02*
X7580952Y-15323882D01*
X7600000Y-15314359D01*
X7628572Y-15314359D01*
X7647619Y-15323882D01*
X7657143Y-15342930D01*
X7657143Y-15447692D01*
X8047619Y-15238168D02*
X7876191Y-15495311D01*
X8304762Y-15247692D02*
X8323810Y-15247692D01*
X8342857Y-15257216D01*
X8352381Y-15266740D01*
X8361905Y-15285787D01*
X8371429Y-15323882D01*
X8371429Y-15371501D01*
X8361905Y-15409597D01*
X8352381Y-15428644D01*
X8342857Y-15438168D01*
X8323810Y-15447692D01*
X8304762Y-15447692D01*
X8285714Y-15438168D01*
X8276191Y-15428644D01*
X8266667Y-15409597D01*
X8257143Y-15371501D01*
X8257143Y-15323882D01*
X8266667Y-15285787D01*
X8276191Y-15266740D01*
X8285714Y-15257216D01*
X8304762Y-15247692D01*
X8457143Y-15428644D02*
X8466667Y-15438168D01*
X8457143Y-15447692D01*
X8447619Y-15438168D01*
X8457143Y-15428644D01*
X8457143Y-15447692D01*
X8590476Y-15247692D02*
X8609524Y-15247692D01*
X8628572Y-15257216D01*
X8638095Y-15266740D01*
X8647619Y-15285787D01*
X8657143Y-15323882D01*
X8657143Y-15371501D01*
X8647619Y-15409597D01*
X8638095Y-15428644D01*
X8628572Y-15438168D01*
X8609524Y-15447692D01*
X8590476Y-15447692D01*
X8571429Y-15438168D01*
X8561905Y-15428644D01*
X8552381Y-15409597D01*
X8542857Y-15371501D01*
X8542857Y-15323882D01*
X8552381Y-15285787D01*
X8561905Y-15266740D01*
X8571429Y-15257216D01*
X8590476Y-15247692D01*
X8847619Y-15447692D02*
X8733334Y-15447692D01*
X8790476Y-15447692D02*
X8790476Y-15247692D01*
X8771429Y-15276263D01*
X8752381Y-15295311D01*
X8733334Y-15304835D01*
X9038095Y-15447692D02*
X8923810Y-15447692D01*
X8980953Y-15447692D02*
X8980953Y-15247692D01*
X8961905Y-15276263D01*
X8942857Y-15295311D01*
X8923810Y-15304835D01*
X9152381Y-15333406D02*
X9133334Y-15323882D01*
X9123810Y-15314359D01*
X9114286Y-15295311D01*
X9114286Y-15285787D01*
X9123810Y-15266740D01*
X9133334Y-15257216D01*
X9152381Y-15247692D01*
X9190476Y-15247692D01*
X9209524Y-15257216D01*
X9219048Y-15266740D01*
X9228572Y-15285787D01*
X9228572Y-15295311D01*
X9219048Y-15314359D01*
X9209524Y-15323882D01*
X9190476Y-15333406D01*
X9152381Y-15333406D01*
X9133334Y-15342930D01*
X9123810Y-15352454D01*
X9114286Y-15371501D01*
X9114286Y-15409597D01*
X9123810Y-15428644D01*
X9133334Y-15438168D01*
X9152381Y-15447692D01*
X9190476Y-15447692D01*
X9209524Y-15438168D01*
X9219048Y-15428644D01*
X9228572Y-15409597D01*
X9228572Y-15371501D01*
X9219048Y-15352454D01*
X9209524Y-15342930D01*
X9190476Y-15333406D01*
X9304762Y-15247692D02*
X9304762Y-15285787D01*
X9380953Y-15247692D02*
X9380953Y-15285787D01*
X9676191Y-15523882D02*
X9666667Y-15514359D01*
X9647619Y-15485787D01*
X9638095Y-15466740D01*
X9628572Y-15438168D01*
X9619048Y-15390549D01*
X9619048Y-15352454D01*
X9628572Y-15304835D01*
X9638095Y-15276263D01*
X9647619Y-15257216D01*
X9666667Y-15228644D01*
X9676191Y-15219120D01*
X9838095Y-15247692D02*
X9800000Y-15247692D01*
X9780953Y-15257216D01*
X9771429Y-15266740D01*
X9752381Y-15295311D01*
X9742857Y-15333406D01*
X9742857Y-15409597D01*
X9752381Y-15428644D01*
X9761905Y-15438168D01*
X9780953Y-15447692D01*
X9819048Y-15447692D01*
X9838095Y-15438168D01*
X9847619Y-15428644D01*
X9857143Y-15409597D01*
X9857143Y-15361978D01*
X9847619Y-15342930D01*
X9838095Y-15333406D01*
X9819048Y-15323882D01*
X9780953Y-15323882D01*
X9761905Y-15333406D01*
X9752381Y-15342930D01*
X9742857Y-15361978D01*
X10095238Y-15447692D02*
X10095238Y-15247692D01*
X10180953Y-15447692D02*
X10180953Y-15342930D01*
X10171429Y-15323882D01*
X10152381Y-15314359D01*
X10123810Y-15314359D01*
X10104762Y-15323882D01*
X10095238Y-15333406D01*
X10304762Y-15447692D02*
X10285714Y-15438168D01*
X10276191Y-15428644D01*
X10266667Y-15409597D01*
X10266667Y-15352454D01*
X10276191Y-15333406D01*
X10285714Y-15323882D01*
X10304762Y-15314359D01*
X10333334Y-15314359D01*
X10352381Y-15323882D01*
X10361905Y-15333406D01*
X10371429Y-15352454D01*
X10371429Y-15409597D01*
X10361905Y-15428644D01*
X10352381Y-15438168D01*
X10333334Y-15447692D01*
X10304762Y-15447692D01*
X10485714Y-15447692D02*
X10466667Y-15438168D01*
X10457143Y-15419120D01*
X10457143Y-15247692D01*
X10638095Y-15438168D02*
X10619048Y-15447692D01*
X10580953Y-15447692D01*
X10561905Y-15438168D01*
X10552381Y-15419120D01*
X10552381Y-15342930D01*
X10561905Y-15323882D01*
X10580953Y-15314359D01*
X10619048Y-15314359D01*
X10638095Y-15323882D01*
X10647619Y-15342930D01*
X10647619Y-15361978D01*
X10552381Y-15381025D01*
X10723810Y-15438168D02*
X10742857Y-15447692D01*
X10780953Y-15447692D01*
X10800000Y-15438168D01*
X10809524Y-15419120D01*
X10809524Y-15409597D01*
X10800000Y-15390549D01*
X10780953Y-15381025D01*
X10752381Y-15381025D01*
X10733334Y-15371501D01*
X10723810Y-15352454D01*
X10723810Y-15342930D01*
X10733334Y-15323882D01*
X10752381Y-15314359D01*
X10780953Y-15314359D01*
X10800000Y-15323882D01*
X10876191Y-15523882D02*
X10885714Y-15514359D01*
X10904762Y-15485787D01*
X10914286Y-15466740D01*
X10923810Y-15438168D01*
X10933334Y-15390549D01*
X10933334Y-15352454D01*
X10923810Y-15304835D01*
X10914286Y-15276263D01*
X10904762Y-15257216D01*
X10885714Y-15228644D01*
X10876191Y-15219120D01*
D14*
X6084286Y-15601216D02*
X6084286Y-15641216D01*
X6064286Y-15621216D02*
X6104286Y-15621216D01*
D11*
X6400000Y-15511692D02*
X6419048Y-15511692D01*
X6438095Y-15521216D01*
X6447619Y-15530740D01*
X6457143Y-15549787D01*
X6466667Y-15587882D01*
X6466667Y-15635501D01*
X6457143Y-15673597D01*
X6447619Y-15692644D01*
X6438095Y-15702168D01*
X6419048Y-15711692D01*
X6400000Y-15711692D01*
X6380952Y-15702168D01*
X6371429Y-15692644D01*
X6361905Y-15673597D01*
X6352381Y-15635501D01*
X6352381Y-15587882D01*
X6361905Y-15549787D01*
X6371429Y-15530740D01*
X6380952Y-15521216D01*
X6400000Y-15511692D01*
X6552381Y-15692644D02*
X6561905Y-15702168D01*
X6552381Y-15711692D01*
X6542857Y-15702168D01*
X6552381Y-15692644D01*
X6552381Y-15711692D01*
X6733333Y-15578359D02*
X6733333Y-15711692D01*
X6685714Y-15502168D02*
X6638095Y-15645025D01*
X6761905Y-15645025D01*
X6876191Y-15511692D02*
X6895238Y-15511692D01*
X6914286Y-15521216D01*
X6923810Y-15530740D01*
X6933333Y-15549787D01*
X6942857Y-15587882D01*
X6942857Y-15635501D01*
X6933333Y-15673597D01*
X6923810Y-15692644D01*
X6914286Y-15702168D01*
X6895238Y-15711692D01*
X6876191Y-15711692D01*
X6857143Y-15702168D01*
X6847619Y-15692644D01*
X6838095Y-15673597D01*
X6828572Y-15635501D01*
X6828572Y-15587882D01*
X6838095Y-15549787D01*
X6847619Y-15530740D01*
X6857143Y-15521216D01*
X6876191Y-15511692D01*
X7066667Y-15511692D02*
X7085714Y-15511692D01*
X7104762Y-15521216D01*
X7114286Y-15530740D01*
X7123810Y-15549787D01*
X7133333Y-15587882D01*
X7133333Y-15635501D01*
X7123810Y-15673597D01*
X7114286Y-15692644D01*
X7104762Y-15702168D01*
X7085714Y-15711692D01*
X7066667Y-15711692D01*
X7047619Y-15702168D01*
X7038095Y-15692644D01*
X7028572Y-15673597D01*
X7019048Y-15635501D01*
X7019048Y-15587882D01*
X7028572Y-15549787D01*
X7038095Y-15530740D01*
X7047619Y-15521216D01*
X7066667Y-15511692D01*
X7219048Y-15711692D02*
X7219048Y-15578359D01*
X7219048Y-15597406D02*
X7228572Y-15587882D01*
X7247619Y-15578359D01*
X7276191Y-15578359D01*
X7295238Y-15587882D01*
X7304762Y-15606930D01*
X7304762Y-15711692D01*
X7304762Y-15606930D02*
X7314286Y-15587882D01*
X7333333Y-15578359D01*
X7361905Y-15578359D01*
X7380952Y-15587882D01*
X7390476Y-15606930D01*
X7390476Y-15711692D01*
X7485714Y-15711692D02*
X7485714Y-15578359D01*
X7485714Y-15597406D02*
X7495238Y-15587882D01*
X7514286Y-15578359D01*
X7542857Y-15578359D01*
X7561905Y-15587882D01*
X7571429Y-15606930D01*
X7571429Y-15711692D01*
X7571429Y-15606930D02*
X7580952Y-15587882D01*
X7600000Y-15578359D01*
X7628572Y-15578359D01*
X7647619Y-15587882D01*
X7657143Y-15606930D01*
X7657143Y-15711692D01*
X8047619Y-15502168D02*
X7876191Y-15759311D01*
X8304762Y-15511692D02*
X8323810Y-15511692D01*
X8342857Y-15521216D01*
X8352381Y-15530740D01*
X8361905Y-15549787D01*
X8371429Y-15587882D01*
X8371429Y-15635501D01*
X8361905Y-15673597D01*
X8352381Y-15692644D01*
X8342857Y-15702168D01*
X8323810Y-15711692D01*
X8304762Y-15711692D01*
X8285714Y-15702168D01*
X8276191Y-15692644D01*
X8266667Y-15673597D01*
X8257143Y-15635501D01*
X8257143Y-15587882D01*
X8266667Y-15549787D01*
X8276191Y-15530740D01*
X8285714Y-15521216D01*
X8304762Y-15511692D01*
X8457143Y-15692644D02*
X8466667Y-15702168D01*
X8457143Y-15711692D01*
X8447619Y-15702168D01*
X8457143Y-15692644D01*
X8457143Y-15711692D01*
X8590476Y-15511692D02*
X8609524Y-15511692D01*
X8628572Y-15521216D01*
X8638095Y-15530740D01*
X8647619Y-15549787D01*
X8657143Y-15587882D01*
X8657143Y-15635501D01*
X8647619Y-15673597D01*
X8638095Y-15692644D01*
X8628572Y-15702168D01*
X8609524Y-15711692D01*
X8590476Y-15711692D01*
X8571429Y-15702168D01*
X8561905Y-15692644D01*
X8552381Y-15673597D01*
X8542857Y-15635501D01*
X8542857Y-15587882D01*
X8552381Y-15549787D01*
X8561905Y-15530740D01*
X8571429Y-15521216D01*
X8590476Y-15511692D01*
X8847619Y-15711692D02*
X8733334Y-15711692D01*
X8790476Y-15711692D02*
X8790476Y-15511692D01*
X8771429Y-15540263D01*
X8752381Y-15559311D01*
X8733334Y-15568835D01*
X9028572Y-15511692D02*
X8933334Y-15511692D01*
X8923810Y-15606930D01*
X8933334Y-15597406D01*
X8952381Y-15587882D01*
X9000000Y-15587882D01*
X9019048Y-15597406D01*
X9028572Y-15606930D01*
X9038095Y-15625978D01*
X9038095Y-15673597D01*
X9028572Y-15692644D01*
X9019048Y-15702168D01*
X9000000Y-15711692D01*
X8952381Y-15711692D01*
X8933334Y-15702168D01*
X8923810Y-15692644D01*
X9104762Y-15511692D02*
X9238095Y-15511692D01*
X9152381Y-15711692D01*
X9304762Y-15511692D02*
X9304762Y-15549787D01*
X9380953Y-15511692D02*
X9380953Y-15549787D01*
X9676191Y-15787882D02*
X9666667Y-15778359D01*
X9647619Y-15749787D01*
X9638095Y-15730740D01*
X9628572Y-15702168D01*
X9619048Y-15654549D01*
X9619048Y-15616454D01*
X9628572Y-15568835D01*
X9638095Y-15540263D01*
X9647619Y-15521216D01*
X9666667Y-15492644D01*
X9676191Y-15483120D01*
X9742857Y-15530740D02*
X9752381Y-15521216D01*
X9771429Y-15511692D01*
X9819048Y-15511692D01*
X9838095Y-15521216D01*
X9847619Y-15530740D01*
X9857143Y-15549787D01*
X9857143Y-15568835D01*
X9847619Y-15597406D01*
X9733334Y-15711692D01*
X9857143Y-15711692D01*
X9923810Y-15511692D02*
X10057143Y-15511692D01*
X9971429Y-15711692D01*
X10285714Y-15711692D02*
X10285714Y-15511692D01*
X10371429Y-15711692D02*
X10371429Y-15606930D01*
X10361905Y-15587882D01*
X10342857Y-15578359D01*
X10314286Y-15578359D01*
X10295238Y-15587882D01*
X10285714Y-15597406D01*
X10495238Y-15711692D02*
X10476191Y-15702168D01*
X10466667Y-15692644D01*
X10457143Y-15673597D01*
X10457143Y-15616454D01*
X10466667Y-15597406D01*
X10476191Y-15587882D01*
X10495238Y-15578359D01*
X10523810Y-15578359D01*
X10542857Y-15587882D01*
X10552381Y-15597406D01*
X10561905Y-15616454D01*
X10561905Y-15673597D01*
X10552381Y-15692644D01*
X10542857Y-15702168D01*
X10523810Y-15711692D01*
X10495238Y-15711692D01*
X10676191Y-15711692D02*
X10657143Y-15702168D01*
X10647619Y-15683120D01*
X10647619Y-15511692D01*
X10828572Y-15702168D02*
X10809524Y-15711692D01*
X10771429Y-15711692D01*
X10752381Y-15702168D01*
X10742857Y-15683120D01*
X10742857Y-15606930D01*
X10752381Y-15587882D01*
X10771429Y-15578359D01*
X10809524Y-15578359D01*
X10828572Y-15587882D01*
X10838095Y-15606930D01*
X10838095Y-15625978D01*
X10742857Y-15645025D01*
X10914286Y-15702168D02*
X10933334Y-15711692D01*
X10971429Y-15711692D01*
X10990476Y-15702168D01*
X11000000Y-15683120D01*
X11000000Y-15673597D01*
X10990476Y-15654549D01*
X10971429Y-15645025D01*
X10942857Y-15645025D01*
X10923810Y-15635501D01*
X10914286Y-15616454D01*
X10914286Y-15606930D01*
X10923810Y-15587882D01*
X10942857Y-15578359D01*
X10971429Y-15578359D01*
X10990476Y-15587882D01*
X11066667Y-15787882D02*
X11076191Y-15778359D01*
X11095238Y-15749787D01*
X11104762Y-15730740D01*
X11114286Y-15702168D01*
X11123810Y-15654549D01*
X11123810Y-15616454D01*
X11114286Y-15568835D01*
X11104762Y-15540263D01*
X11095238Y-15521216D01*
X11076191Y-15492644D01*
X11066667Y-15483120D01*
D15*
X6097696Y-15901126D02*
X6097696Y-15869306D01*
X6065876Y-15869306D01*
X6065876Y-15901126D01*
X6097696Y-15901126D01*
D11*
X6400000Y-15775692D02*
X6419048Y-15775692D01*
X6438095Y-15785216D01*
X6447619Y-15794740D01*
X6457143Y-15813787D01*
X6466667Y-15851882D01*
X6466667Y-15899501D01*
X6457143Y-15937597D01*
X6447619Y-15956644D01*
X6438095Y-15966168D01*
X6419048Y-15975692D01*
X6400000Y-15975692D01*
X6380952Y-15966168D01*
X6371429Y-15956644D01*
X6361905Y-15937597D01*
X6352381Y-15899501D01*
X6352381Y-15851882D01*
X6361905Y-15813787D01*
X6371429Y-15794740D01*
X6380952Y-15785216D01*
X6400000Y-15775692D01*
X6552381Y-15956644D02*
X6561905Y-15966168D01*
X6552381Y-15975692D01*
X6542857Y-15966168D01*
X6552381Y-15956644D01*
X6552381Y-15975692D01*
X6733333Y-15842359D02*
X6733333Y-15975692D01*
X6685714Y-15766168D02*
X6638095Y-15909025D01*
X6761905Y-15909025D01*
X6933333Y-15775692D02*
X6838095Y-15775692D01*
X6828572Y-15870930D01*
X6838095Y-15861406D01*
X6857143Y-15851882D01*
X6904762Y-15851882D01*
X6923810Y-15861406D01*
X6933333Y-15870930D01*
X6942857Y-15889978D01*
X6942857Y-15937597D01*
X6933333Y-15956644D01*
X6923810Y-15966168D01*
X6904762Y-15975692D01*
X6857143Y-15975692D01*
X6838095Y-15966168D01*
X6828572Y-15956644D01*
X7066667Y-15775692D02*
X7085714Y-15775692D01*
X7104762Y-15785216D01*
X7114286Y-15794740D01*
X7123810Y-15813787D01*
X7133333Y-15851882D01*
X7133333Y-15899501D01*
X7123810Y-15937597D01*
X7114286Y-15956644D01*
X7104762Y-15966168D01*
X7085714Y-15975692D01*
X7066667Y-15975692D01*
X7047619Y-15966168D01*
X7038095Y-15956644D01*
X7028572Y-15937597D01*
X7019048Y-15899501D01*
X7019048Y-15851882D01*
X7028572Y-15813787D01*
X7038095Y-15794740D01*
X7047619Y-15785216D01*
X7066667Y-15775692D01*
X7219048Y-15975692D02*
X7219048Y-15842359D01*
X7219048Y-15861406D02*
X7228572Y-15851882D01*
X7247619Y-15842359D01*
X7276191Y-15842359D01*
X7295238Y-15851882D01*
X7304762Y-15870930D01*
X7304762Y-15975692D01*
X7304762Y-15870930D02*
X7314286Y-15851882D01*
X7333333Y-15842359D01*
X7361905Y-15842359D01*
X7380952Y-15851882D01*
X7390476Y-15870930D01*
X7390476Y-15975692D01*
X7485714Y-15975692D02*
X7485714Y-15842359D01*
X7485714Y-15861406D02*
X7495238Y-15851882D01*
X7514286Y-15842359D01*
X7542857Y-15842359D01*
X7561905Y-15851882D01*
X7571429Y-15870930D01*
X7571429Y-15975692D01*
X7571429Y-15870930D02*
X7580952Y-15851882D01*
X7600000Y-15842359D01*
X7628572Y-15842359D01*
X7647619Y-15851882D01*
X7657143Y-15870930D01*
X7657143Y-15975692D01*
X8047619Y-15766168D02*
X7876191Y-16023311D01*
X8304762Y-15775692D02*
X8323810Y-15775692D01*
X8342857Y-15785216D01*
X8352381Y-15794740D01*
X8361905Y-15813787D01*
X8371429Y-15851882D01*
X8371429Y-15899501D01*
X8361905Y-15937597D01*
X8352381Y-15956644D01*
X8342857Y-15966168D01*
X8323810Y-15975692D01*
X8304762Y-15975692D01*
X8285714Y-15966168D01*
X8276191Y-15956644D01*
X8266667Y-15937597D01*
X8257143Y-15899501D01*
X8257143Y-15851882D01*
X8266667Y-15813787D01*
X8276191Y-15794740D01*
X8285714Y-15785216D01*
X8304762Y-15775692D01*
X8457143Y-15956644D02*
X8466667Y-15966168D01*
X8457143Y-15975692D01*
X8447619Y-15966168D01*
X8457143Y-15956644D01*
X8457143Y-15975692D01*
X8590476Y-15775692D02*
X8609524Y-15775692D01*
X8628572Y-15785216D01*
X8638095Y-15794740D01*
X8647619Y-15813787D01*
X8657143Y-15851882D01*
X8657143Y-15899501D01*
X8647619Y-15937597D01*
X8638095Y-15956644D01*
X8628572Y-15966168D01*
X8609524Y-15975692D01*
X8590476Y-15975692D01*
X8571429Y-15966168D01*
X8561905Y-15956644D01*
X8552381Y-15937597D01*
X8542857Y-15899501D01*
X8542857Y-15851882D01*
X8552381Y-15813787D01*
X8561905Y-15794740D01*
X8571429Y-15785216D01*
X8590476Y-15775692D01*
X8847619Y-15975692D02*
X8733334Y-15975692D01*
X8790476Y-15975692D02*
X8790476Y-15775692D01*
X8771429Y-15804263D01*
X8752381Y-15823311D01*
X8733334Y-15832835D01*
X8914286Y-15775692D02*
X9047619Y-15775692D01*
X8961905Y-15975692D01*
X9104762Y-15775692D02*
X9238095Y-15775692D01*
X9152381Y-15975692D01*
X9304762Y-15775692D02*
X9304762Y-15813787D01*
X9380953Y-15775692D02*
X9380953Y-15813787D01*
X9676191Y-16051882D02*
X9666667Y-16042359D01*
X9647619Y-16013787D01*
X9638095Y-15994740D01*
X9628572Y-15966168D01*
X9619048Y-15918549D01*
X9619048Y-15880454D01*
X9628572Y-15832835D01*
X9638095Y-15804263D01*
X9647619Y-15785216D01*
X9666667Y-15756644D01*
X9676191Y-15747120D01*
X9857143Y-15975692D02*
X9742857Y-15975692D01*
X9800000Y-15975692D02*
X9800000Y-15775692D01*
X9780953Y-15804263D01*
X9761905Y-15823311D01*
X9742857Y-15832835D01*
X9933334Y-15794740D02*
X9942857Y-15785216D01*
X9961905Y-15775692D01*
X10009524Y-15775692D01*
X10028572Y-15785216D01*
X10038095Y-15794740D01*
X10047619Y-15813787D01*
X10047619Y-15832835D01*
X10038095Y-15861406D01*
X9923810Y-15975692D01*
X10047619Y-15975692D01*
X10285714Y-15975692D02*
X10285714Y-15775692D01*
X10371429Y-15975692D02*
X10371429Y-15870930D01*
X10361905Y-15851882D01*
X10342857Y-15842359D01*
X10314286Y-15842359D01*
X10295238Y-15851882D01*
X10285714Y-15861406D01*
X10495238Y-15975692D02*
X10476191Y-15966168D01*
X10466667Y-15956644D01*
X10457143Y-15937597D01*
X10457143Y-15880454D01*
X10466667Y-15861406D01*
X10476191Y-15851882D01*
X10495238Y-15842359D01*
X10523810Y-15842359D01*
X10542857Y-15851882D01*
X10552381Y-15861406D01*
X10561905Y-15880454D01*
X10561905Y-15937597D01*
X10552381Y-15956644D01*
X10542857Y-15966168D01*
X10523810Y-15975692D01*
X10495238Y-15975692D01*
X10676191Y-15975692D02*
X10657143Y-15966168D01*
X10647619Y-15947120D01*
X10647619Y-15775692D01*
X10828572Y-15966168D02*
X10809524Y-15975692D01*
X10771429Y-15975692D01*
X10752381Y-15966168D01*
X10742857Y-15947120D01*
X10742857Y-15870930D01*
X10752381Y-15851882D01*
X10771429Y-15842359D01*
X10809524Y-15842359D01*
X10828572Y-15851882D01*
X10838095Y-15870930D01*
X10838095Y-15889978D01*
X10742857Y-15909025D01*
X10914286Y-15966168D02*
X10933334Y-15975692D01*
X10971429Y-15975692D01*
X10990476Y-15966168D01*
X11000000Y-15947120D01*
X11000000Y-15937597D01*
X10990476Y-15918549D01*
X10971429Y-15909025D01*
X10942857Y-15909025D01*
X10923810Y-15899501D01*
X10914286Y-15880454D01*
X10914286Y-15870930D01*
X10923810Y-15851882D01*
X10942857Y-15842359D01*
X10971429Y-15842359D01*
X10990476Y-15851882D01*
X11066667Y-16051882D02*
X11076191Y-16042359D01*
X11095238Y-16013787D01*
X11104762Y-15994740D01*
X11114286Y-15966168D01*
X11123810Y-15918549D01*
X11123810Y-15880454D01*
X11114286Y-15832835D01*
X11104762Y-15804263D01*
X11095238Y-15785216D01*
X11076191Y-15756644D01*
X11066667Y-15747120D01*
D16*
X6071786Y-16181716D02*
X6104286Y-16149216D01*
X6071786Y-16116716D01*
X6039286Y-16149216D01*
X6071786Y-16181716D01*
D11*
X6400000Y-16039692D02*
X6419048Y-16039692D01*
X6438095Y-16049216D01*
X6447619Y-16058740D01*
X6457143Y-16077787D01*
X6466667Y-16115882D01*
X6466667Y-16163501D01*
X6457143Y-16201597D01*
X6447619Y-16220644D01*
X6438095Y-16230168D01*
X6419048Y-16239692D01*
X6400000Y-16239692D01*
X6380952Y-16230168D01*
X6371429Y-16220644D01*
X6361905Y-16201597D01*
X6352381Y-16163501D01*
X6352381Y-16115882D01*
X6361905Y-16077787D01*
X6371429Y-16058740D01*
X6380952Y-16049216D01*
X6400000Y-16039692D01*
X6552381Y-16220644D02*
X6561905Y-16230168D01*
X6552381Y-16239692D01*
X6542857Y-16230168D01*
X6552381Y-16220644D01*
X6552381Y-16239692D01*
X6733333Y-16039692D02*
X6695238Y-16039692D01*
X6676191Y-16049216D01*
X6666667Y-16058740D01*
X6647619Y-16087311D01*
X6638095Y-16125406D01*
X6638095Y-16201597D01*
X6647619Y-16220644D01*
X6657143Y-16230168D01*
X6676191Y-16239692D01*
X6714286Y-16239692D01*
X6733333Y-16230168D01*
X6742857Y-16220644D01*
X6752381Y-16201597D01*
X6752381Y-16153978D01*
X6742857Y-16134930D01*
X6733333Y-16125406D01*
X6714286Y-16115882D01*
X6676191Y-16115882D01*
X6657143Y-16125406D01*
X6647619Y-16134930D01*
X6638095Y-16153978D01*
X6933333Y-16039692D02*
X6838095Y-16039692D01*
X6828572Y-16134930D01*
X6838095Y-16125406D01*
X6857143Y-16115882D01*
X6904762Y-16115882D01*
X6923810Y-16125406D01*
X6933333Y-16134930D01*
X6942857Y-16153978D01*
X6942857Y-16201597D01*
X6933333Y-16220644D01*
X6923810Y-16230168D01*
X6904762Y-16239692D01*
X6857143Y-16239692D01*
X6838095Y-16230168D01*
X6828572Y-16220644D01*
X7066667Y-16039692D02*
X7085714Y-16039692D01*
X7104762Y-16049216D01*
X7114286Y-16058740D01*
X7123810Y-16077787D01*
X7133333Y-16115882D01*
X7133333Y-16163501D01*
X7123810Y-16201597D01*
X7114286Y-16220644D01*
X7104762Y-16230168D01*
X7085714Y-16239692D01*
X7066667Y-16239692D01*
X7047619Y-16230168D01*
X7038095Y-16220644D01*
X7028572Y-16201597D01*
X7019048Y-16163501D01*
X7019048Y-16115882D01*
X7028572Y-16077787D01*
X7038095Y-16058740D01*
X7047619Y-16049216D01*
X7066667Y-16039692D01*
X7219048Y-16239692D02*
X7219048Y-16106359D01*
X7219048Y-16125406D02*
X7228572Y-16115882D01*
X7247619Y-16106359D01*
X7276191Y-16106359D01*
X7295238Y-16115882D01*
X7304762Y-16134930D01*
X7304762Y-16239692D01*
X7304762Y-16134930D02*
X7314286Y-16115882D01*
X7333333Y-16106359D01*
X7361905Y-16106359D01*
X7380952Y-16115882D01*
X7390476Y-16134930D01*
X7390476Y-16239692D01*
X7485714Y-16239692D02*
X7485714Y-16106359D01*
X7485714Y-16125406D02*
X7495238Y-16115882D01*
X7514286Y-16106359D01*
X7542857Y-16106359D01*
X7561905Y-16115882D01*
X7571429Y-16134930D01*
X7571429Y-16239692D01*
X7571429Y-16134930D02*
X7580952Y-16115882D01*
X7600000Y-16106359D01*
X7628572Y-16106359D01*
X7647619Y-16115882D01*
X7657143Y-16134930D01*
X7657143Y-16239692D01*
X8047619Y-16030168D02*
X7876191Y-16287311D01*
X8304762Y-16039692D02*
X8323810Y-16039692D01*
X8342857Y-16049216D01*
X8352381Y-16058740D01*
X8361905Y-16077787D01*
X8371429Y-16115882D01*
X8371429Y-16163501D01*
X8361905Y-16201597D01*
X8352381Y-16220644D01*
X8342857Y-16230168D01*
X8323810Y-16239692D01*
X8304762Y-16239692D01*
X8285714Y-16230168D01*
X8276191Y-16220644D01*
X8266667Y-16201597D01*
X8257143Y-16163501D01*
X8257143Y-16115882D01*
X8266667Y-16077787D01*
X8276191Y-16058740D01*
X8285714Y-16049216D01*
X8304762Y-16039692D01*
X8457143Y-16220644D02*
X8466667Y-16230168D01*
X8457143Y-16239692D01*
X8447619Y-16230168D01*
X8457143Y-16220644D01*
X8457143Y-16239692D01*
X8590476Y-16039692D02*
X8609524Y-16039692D01*
X8628572Y-16049216D01*
X8638095Y-16058740D01*
X8647619Y-16077787D01*
X8657143Y-16115882D01*
X8657143Y-16163501D01*
X8647619Y-16201597D01*
X8638095Y-16220644D01*
X8628572Y-16230168D01*
X8609524Y-16239692D01*
X8590476Y-16239692D01*
X8571429Y-16230168D01*
X8561905Y-16220644D01*
X8552381Y-16201597D01*
X8542857Y-16163501D01*
X8542857Y-16115882D01*
X8552381Y-16077787D01*
X8561905Y-16058740D01*
X8571429Y-16049216D01*
X8590476Y-16039692D01*
X8733334Y-16058740D02*
X8742857Y-16049216D01*
X8761905Y-16039692D01*
X8809524Y-16039692D01*
X8828572Y-16049216D01*
X8838095Y-16058740D01*
X8847619Y-16077787D01*
X8847619Y-16096835D01*
X8838095Y-16125406D01*
X8723810Y-16239692D01*
X8847619Y-16239692D01*
X9028572Y-16039692D02*
X8933334Y-16039692D01*
X8923810Y-16134930D01*
X8933334Y-16125406D01*
X8952381Y-16115882D01*
X9000000Y-16115882D01*
X9019048Y-16125406D01*
X9028572Y-16134930D01*
X9038095Y-16153978D01*
X9038095Y-16201597D01*
X9028572Y-16220644D01*
X9019048Y-16230168D01*
X9000000Y-16239692D01*
X8952381Y-16239692D01*
X8933334Y-16230168D01*
X8923810Y-16220644D01*
X9209524Y-16039692D02*
X9171429Y-16039692D01*
X9152381Y-16049216D01*
X9142857Y-16058740D01*
X9123810Y-16087311D01*
X9114286Y-16125406D01*
X9114286Y-16201597D01*
X9123810Y-16220644D01*
X9133334Y-16230168D01*
X9152381Y-16239692D01*
X9190476Y-16239692D01*
X9209524Y-16230168D01*
X9219048Y-16220644D01*
X9228572Y-16201597D01*
X9228572Y-16153978D01*
X9219048Y-16134930D01*
X9209524Y-16125406D01*
X9190476Y-16115882D01*
X9152381Y-16115882D01*
X9133334Y-16125406D01*
X9123810Y-16134930D01*
X9114286Y-16153978D01*
X9304762Y-16039692D02*
X9304762Y-16077787D01*
X9380953Y-16039692D02*
X9380953Y-16077787D01*
X9676191Y-16315882D02*
X9666667Y-16306359D01*
X9647619Y-16277787D01*
X9638095Y-16258740D01*
X9628572Y-16230168D01*
X9619048Y-16182549D01*
X9619048Y-16144454D01*
X9628572Y-16096835D01*
X9638095Y-16068263D01*
X9647619Y-16049216D01*
X9666667Y-16020644D01*
X9676191Y-16011120D01*
X9790476Y-16039692D02*
X9809524Y-16039692D01*
X9828572Y-16049216D01*
X9838095Y-16058740D01*
X9847619Y-16077787D01*
X9857143Y-16115882D01*
X9857143Y-16163501D01*
X9847619Y-16201597D01*
X9838095Y-16220644D01*
X9828572Y-16230168D01*
X9809524Y-16239692D01*
X9790476Y-16239692D01*
X9771429Y-16230168D01*
X9761905Y-16220644D01*
X9752381Y-16201597D01*
X9742857Y-16163501D01*
X9742857Y-16115882D01*
X9752381Y-16077787D01*
X9761905Y-16058740D01*
X9771429Y-16049216D01*
X9790476Y-16039692D01*
X10095238Y-16239692D02*
X10095238Y-16039692D01*
X10180953Y-16239692D02*
X10180953Y-16134930D01*
X10171429Y-16115882D01*
X10152381Y-16106359D01*
X10123810Y-16106359D01*
X10104762Y-16115882D01*
X10095238Y-16125406D01*
X10304762Y-16239692D02*
X10285714Y-16230168D01*
X10276191Y-16220644D01*
X10266667Y-16201597D01*
X10266667Y-16144454D01*
X10276191Y-16125406D01*
X10285714Y-16115882D01*
X10304762Y-16106359D01*
X10333334Y-16106359D01*
X10352381Y-16115882D01*
X10361905Y-16125406D01*
X10371429Y-16144454D01*
X10371429Y-16201597D01*
X10361905Y-16220644D01*
X10352381Y-16230168D01*
X10333334Y-16239692D01*
X10304762Y-16239692D01*
X10485714Y-16239692D02*
X10466667Y-16230168D01*
X10457143Y-16211120D01*
X10457143Y-16039692D01*
X10638095Y-16230168D02*
X10619048Y-16239692D01*
X10580953Y-16239692D01*
X10561905Y-16230168D01*
X10552381Y-16211120D01*
X10552381Y-16134930D01*
X10561905Y-16115882D01*
X10580953Y-16106359D01*
X10619048Y-16106359D01*
X10638095Y-16115882D01*
X10647619Y-16134930D01*
X10647619Y-16153978D01*
X10552381Y-16173025D01*
X10723810Y-16230168D02*
X10742857Y-16239692D01*
X10780953Y-16239692D01*
X10800000Y-16230168D01*
X10809524Y-16211120D01*
X10809524Y-16201597D01*
X10800000Y-16182549D01*
X10780953Y-16173025D01*
X10752381Y-16173025D01*
X10733334Y-16163501D01*
X10723810Y-16144454D01*
X10723810Y-16134930D01*
X10733334Y-16115882D01*
X10752381Y-16106359D01*
X10780953Y-16106359D01*
X10800000Y-16115882D01*
X11047619Y-16163501D02*
X11200000Y-16163501D01*
X11123810Y-16239692D02*
X11123810Y-16087311D01*
X11533333Y-16106359D02*
X11533333Y-16239692D01*
X11485714Y-16030168D02*
X11438095Y-16173025D01*
X11561905Y-16173025D01*
X11780952Y-16230168D02*
X11800000Y-16239692D01*
X11838095Y-16239692D01*
X11857143Y-16230168D01*
X11866667Y-16211120D01*
X11866667Y-16201597D01*
X11857143Y-16182549D01*
X11838095Y-16173025D01*
X11809524Y-16173025D01*
X11790476Y-16163501D01*
X11780952Y-16144454D01*
X11780952Y-16134930D01*
X11790476Y-16115882D01*
X11809524Y-16106359D01*
X11838095Y-16106359D01*
X11857143Y-16115882D01*
X11980952Y-16239692D02*
X11961905Y-16230168D01*
X11952381Y-16211120D01*
X11952381Y-16039692D01*
X12085714Y-16239692D02*
X12066667Y-16230168D01*
X12057143Y-16220644D01*
X12047619Y-16201597D01*
X12047619Y-16144454D01*
X12057143Y-16125406D01*
X12066667Y-16115882D01*
X12085714Y-16106359D01*
X12114286Y-16106359D01*
X12133333Y-16115882D01*
X12142857Y-16125406D01*
X12152381Y-16144454D01*
X12152381Y-16201597D01*
X12142857Y-16220644D01*
X12133333Y-16230168D01*
X12114286Y-16239692D01*
X12085714Y-16239692D01*
X12209524Y-16106359D02*
X12285714Y-16106359D01*
X12238095Y-16039692D02*
X12238095Y-16211120D01*
X12247619Y-16230168D01*
X12266667Y-16239692D01*
X12285714Y-16239692D01*
X12342857Y-16230168D02*
X12361905Y-16239692D01*
X12400000Y-16239692D01*
X12419048Y-16230168D01*
X12428572Y-16211120D01*
X12428572Y-16201597D01*
X12419048Y-16182549D01*
X12400000Y-16173025D01*
X12371429Y-16173025D01*
X12352381Y-16163501D01*
X12342857Y-16144454D01*
X12342857Y-16134930D01*
X12352381Y-16115882D01*
X12371429Y-16106359D01*
X12400000Y-16106359D01*
X12419048Y-16115882D01*
X12495238Y-16315882D02*
X12504762Y-16306359D01*
X12523810Y-16277787D01*
X12533333Y-16258740D01*
X12542857Y-16230168D01*
X12552381Y-16182549D01*
X12552381Y-16144454D01*
X12542857Y-16096835D01*
X12533333Y-16068263D01*
X12523810Y-16049216D01*
X12504762Y-16020644D01*
X12495238Y-16011120D01*
X5904286Y-16313216D02*
X6104286Y-16513216D01*
X6104286Y-16313216D02*
X5904286Y-16513216D01*
X6104286Y-16413216D02*
G75*
G03*
X6104286Y-16413216I-100000J0D01*
G01*
X6352381Y-16322740D02*
X6361905Y-16313216D01*
X6380952Y-16303692D01*
X6428572Y-16303692D01*
X6447619Y-16313216D01*
X6457143Y-16322740D01*
X6466667Y-16341787D01*
X6466667Y-16360835D01*
X6457143Y-16389406D01*
X6342857Y-16503692D01*
X6466667Y-16503692D01*
X6552381Y-16484644D02*
X6561905Y-16494168D01*
X6552381Y-16503692D01*
X6542857Y-16494168D01*
X6552381Y-16484644D01*
X6552381Y-16503692D01*
X6638095Y-16322740D02*
X6647619Y-16313216D01*
X6666667Y-16303692D01*
X6714286Y-16303692D01*
X6733333Y-16313216D01*
X6742857Y-16322740D01*
X6752381Y-16341787D01*
X6752381Y-16360835D01*
X6742857Y-16389406D01*
X6628572Y-16503692D01*
X6752381Y-16503692D01*
X6876191Y-16303692D02*
X6895238Y-16303692D01*
X6914286Y-16313216D01*
X6923810Y-16322740D01*
X6933333Y-16341787D01*
X6942857Y-16379882D01*
X6942857Y-16427501D01*
X6933333Y-16465597D01*
X6923810Y-16484644D01*
X6914286Y-16494168D01*
X6895238Y-16503692D01*
X6876191Y-16503692D01*
X6857143Y-16494168D01*
X6847619Y-16484644D01*
X6838095Y-16465597D01*
X6828572Y-16427501D01*
X6828572Y-16379882D01*
X6838095Y-16341787D01*
X6847619Y-16322740D01*
X6857143Y-16313216D01*
X6876191Y-16303692D01*
X7066667Y-16303692D02*
X7085714Y-16303692D01*
X7104762Y-16313216D01*
X7114286Y-16322740D01*
X7123810Y-16341787D01*
X7133333Y-16379882D01*
X7133333Y-16427501D01*
X7123810Y-16465597D01*
X7114286Y-16484644D01*
X7104762Y-16494168D01*
X7085714Y-16503692D01*
X7066667Y-16503692D01*
X7047619Y-16494168D01*
X7038095Y-16484644D01*
X7028572Y-16465597D01*
X7019048Y-16427501D01*
X7019048Y-16379882D01*
X7028572Y-16341787D01*
X7038095Y-16322740D01*
X7047619Y-16313216D01*
X7066667Y-16303692D01*
X7219048Y-16503692D02*
X7219048Y-16370359D01*
X7219048Y-16389406D02*
X7228572Y-16379882D01*
X7247619Y-16370359D01*
X7276191Y-16370359D01*
X7295238Y-16379882D01*
X7304762Y-16398930D01*
X7304762Y-16503692D01*
X7304762Y-16398930D02*
X7314286Y-16379882D01*
X7333333Y-16370359D01*
X7361905Y-16370359D01*
X7380952Y-16379882D01*
X7390476Y-16398930D01*
X7390476Y-16503692D01*
X7485714Y-16503692D02*
X7485714Y-16370359D01*
X7485714Y-16389406D02*
X7495238Y-16379882D01*
X7514286Y-16370359D01*
X7542857Y-16370359D01*
X7561905Y-16379882D01*
X7571429Y-16398930D01*
X7571429Y-16503692D01*
X7571429Y-16398930D02*
X7580952Y-16379882D01*
X7600000Y-16370359D01*
X7628572Y-16370359D01*
X7647619Y-16379882D01*
X7657143Y-16398930D01*
X7657143Y-16503692D01*
X8047619Y-16294168D02*
X7876191Y-16551311D01*
X8304762Y-16303692D02*
X8323810Y-16303692D01*
X8342857Y-16313216D01*
X8352381Y-16322740D01*
X8361905Y-16341787D01*
X8371429Y-16379882D01*
X8371429Y-16427501D01*
X8361905Y-16465597D01*
X8352381Y-16484644D01*
X8342857Y-16494168D01*
X8323810Y-16503692D01*
X8304762Y-16503692D01*
X8285714Y-16494168D01*
X8276191Y-16484644D01*
X8266667Y-16465597D01*
X8257143Y-16427501D01*
X8257143Y-16379882D01*
X8266667Y-16341787D01*
X8276191Y-16322740D01*
X8285714Y-16313216D01*
X8304762Y-16303692D01*
X8457143Y-16484644D02*
X8466667Y-16494168D01*
X8457143Y-16503692D01*
X8447619Y-16494168D01*
X8457143Y-16484644D01*
X8457143Y-16503692D01*
X8590476Y-16303692D02*
X8609524Y-16303692D01*
X8628572Y-16313216D01*
X8638095Y-16322740D01*
X8647619Y-16341787D01*
X8657143Y-16379882D01*
X8657143Y-16427501D01*
X8647619Y-16465597D01*
X8638095Y-16484644D01*
X8628572Y-16494168D01*
X8609524Y-16503692D01*
X8590476Y-16503692D01*
X8571429Y-16494168D01*
X8561905Y-16484644D01*
X8552381Y-16465597D01*
X8542857Y-16427501D01*
X8542857Y-16379882D01*
X8552381Y-16341787D01*
X8561905Y-16322740D01*
X8571429Y-16313216D01*
X8590476Y-16303692D01*
X8771429Y-16389406D02*
X8752381Y-16379882D01*
X8742857Y-16370359D01*
X8733334Y-16351311D01*
X8733334Y-16341787D01*
X8742857Y-16322740D01*
X8752381Y-16313216D01*
X8771429Y-16303692D01*
X8809524Y-16303692D01*
X8828572Y-16313216D01*
X8838095Y-16322740D01*
X8847619Y-16341787D01*
X8847619Y-16351311D01*
X8838095Y-16370359D01*
X8828572Y-16379882D01*
X8809524Y-16389406D01*
X8771429Y-16389406D01*
X8752381Y-16398930D01*
X8742857Y-16408454D01*
X8733334Y-16427501D01*
X8733334Y-16465597D01*
X8742857Y-16484644D01*
X8752381Y-16494168D01*
X8771429Y-16503692D01*
X8809524Y-16503692D01*
X8828572Y-16494168D01*
X8838095Y-16484644D01*
X8847619Y-16465597D01*
X8847619Y-16427501D01*
X8838095Y-16408454D01*
X8828572Y-16398930D01*
X8809524Y-16389406D01*
X9019048Y-16303692D02*
X8980953Y-16303692D01*
X8961905Y-16313216D01*
X8952381Y-16322740D01*
X8933334Y-16351311D01*
X8923810Y-16389406D01*
X8923810Y-16465597D01*
X8933334Y-16484644D01*
X8942857Y-16494168D01*
X8961905Y-16503692D01*
X9000000Y-16503692D01*
X9019048Y-16494168D01*
X9028572Y-16484644D01*
X9038095Y-16465597D01*
X9038095Y-16417978D01*
X9028572Y-16398930D01*
X9019048Y-16389406D01*
X9000000Y-16379882D01*
X8961905Y-16379882D01*
X8942857Y-16389406D01*
X8933334Y-16398930D01*
X8923810Y-16417978D01*
X9209524Y-16303692D02*
X9171429Y-16303692D01*
X9152381Y-16313216D01*
X9142857Y-16322740D01*
X9123810Y-16351311D01*
X9114286Y-16389406D01*
X9114286Y-16465597D01*
X9123810Y-16484644D01*
X9133334Y-16494168D01*
X9152381Y-16503692D01*
X9190476Y-16503692D01*
X9209524Y-16494168D01*
X9219048Y-16484644D01*
X9228572Y-16465597D01*
X9228572Y-16417978D01*
X9219048Y-16398930D01*
X9209524Y-16389406D01*
X9190476Y-16379882D01*
X9152381Y-16379882D01*
X9133334Y-16389406D01*
X9123810Y-16398930D01*
X9114286Y-16417978D01*
X9304762Y-16303692D02*
X9304762Y-16341787D01*
X9380953Y-16303692D02*
X9380953Y-16341787D01*
X9676191Y-16579882D02*
X9666667Y-16570359D01*
X9647619Y-16541787D01*
X9638095Y-16522740D01*
X9628572Y-16494168D01*
X9619048Y-16446549D01*
X9619048Y-16408454D01*
X9628572Y-16360835D01*
X9638095Y-16332263D01*
X9647619Y-16313216D01*
X9666667Y-16284644D01*
X9676191Y-16275120D01*
X9742857Y-16322740D02*
X9752381Y-16313216D01*
X9771429Y-16303692D01*
X9819048Y-16303692D01*
X9838095Y-16313216D01*
X9847619Y-16322740D01*
X9857143Y-16341787D01*
X9857143Y-16360835D01*
X9847619Y-16389406D01*
X9733334Y-16503692D01*
X9857143Y-16503692D01*
X10095238Y-16503692D02*
X10095238Y-16303692D01*
X10180953Y-16503692D02*
X10180953Y-16398930D01*
X10171429Y-16379882D01*
X10152381Y-16370359D01*
X10123810Y-16370359D01*
X10104762Y-16379882D01*
X10095238Y-16389406D01*
X10304762Y-16503692D02*
X10285714Y-16494168D01*
X10276191Y-16484644D01*
X10266667Y-16465597D01*
X10266667Y-16408454D01*
X10276191Y-16389406D01*
X10285714Y-16379882D01*
X10304762Y-16370359D01*
X10333334Y-16370359D01*
X10352381Y-16379882D01*
X10361905Y-16389406D01*
X10371429Y-16408454D01*
X10371429Y-16465597D01*
X10361905Y-16484644D01*
X10352381Y-16494168D01*
X10333334Y-16503692D01*
X10304762Y-16503692D01*
X10485714Y-16503692D02*
X10466667Y-16494168D01*
X10457143Y-16475120D01*
X10457143Y-16303692D01*
X10638095Y-16494168D02*
X10619048Y-16503692D01*
X10580953Y-16503692D01*
X10561905Y-16494168D01*
X10552381Y-16475120D01*
X10552381Y-16398930D01*
X10561905Y-16379882D01*
X10580953Y-16370359D01*
X10619048Y-16370359D01*
X10638095Y-16379882D01*
X10647619Y-16398930D01*
X10647619Y-16417978D01*
X10552381Y-16437025D01*
X10723810Y-16494168D02*
X10742857Y-16503692D01*
X10780953Y-16503692D01*
X10800000Y-16494168D01*
X10809524Y-16475120D01*
X10809524Y-16465597D01*
X10800000Y-16446549D01*
X10780953Y-16437025D01*
X10752381Y-16437025D01*
X10733334Y-16427501D01*
X10723810Y-16408454D01*
X10723810Y-16398930D01*
X10733334Y-16379882D01*
X10752381Y-16370359D01*
X10780953Y-16370359D01*
X10800000Y-16379882D01*
X10876191Y-16579882D02*
X10885714Y-16570359D01*
X10904762Y-16541787D01*
X10914286Y-16522740D01*
X10923810Y-16494168D01*
X10933334Y-16446549D01*
X10933334Y-16408454D01*
X10923810Y-16360835D01*
X10914286Y-16332263D01*
X10904762Y-16313216D01*
X10885714Y-16284644D01*
X10876191Y-16275120D01*
X5904286Y-16633216D02*
X6104286Y-16833216D01*
X6104286Y-16633216D02*
X5904286Y-16833216D01*
X6004286Y-16633216D02*
X6004286Y-16833216D01*
X5904286Y-16733216D02*
X6104286Y-16733216D01*
X6390476Y-16709406D02*
X6371429Y-16699882D01*
X6361905Y-16690359D01*
X6352381Y-16671311D01*
X6352381Y-16661787D01*
X6361905Y-16642740D01*
X6371429Y-16633216D01*
X6390476Y-16623692D01*
X6428572Y-16623692D01*
X6447619Y-16633216D01*
X6457143Y-16642740D01*
X6466667Y-16661787D01*
X6466667Y-16671311D01*
X6457143Y-16690359D01*
X6447619Y-16699882D01*
X6428572Y-16709406D01*
X6390476Y-16709406D01*
X6371429Y-16718930D01*
X6361905Y-16728454D01*
X6352381Y-16747501D01*
X6352381Y-16785597D01*
X6361905Y-16804644D01*
X6371429Y-16814168D01*
X6390476Y-16823692D01*
X6428572Y-16823692D01*
X6447619Y-16814168D01*
X6457143Y-16804644D01*
X6466667Y-16785597D01*
X6466667Y-16747501D01*
X6457143Y-16728454D01*
X6447619Y-16718930D01*
X6428572Y-16709406D01*
X6552381Y-16804644D02*
X6561905Y-16814168D01*
X6552381Y-16823692D01*
X6542857Y-16814168D01*
X6552381Y-16804644D01*
X6552381Y-16823692D01*
X6742857Y-16623692D02*
X6647619Y-16623692D01*
X6638095Y-16718930D01*
X6647619Y-16709406D01*
X6666667Y-16699882D01*
X6714286Y-16699882D01*
X6733333Y-16709406D01*
X6742857Y-16718930D01*
X6752381Y-16737978D01*
X6752381Y-16785597D01*
X6742857Y-16804644D01*
X6733333Y-16814168D01*
X6714286Y-16823692D01*
X6666667Y-16823692D01*
X6647619Y-16814168D01*
X6638095Y-16804644D01*
X6876191Y-16623692D02*
X6895238Y-16623692D01*
X6914286Y-16633216D01*
X6923810Y-16642740D01*
X6933333Y-16661787D01*
X6942857Y-16699882D01*
X6942857Y-16747501D01*
X6933333Y-16785597D01*
X6923810Y-16804644D01*
X6914286Y-16814168D01*
X6895238Y-16823692D01*
X6876191Y-16823692D01*
X6857143Y-16814168D01*
X6847619Y-16804644D01*
X6838095Y-16785597D01*
X6828572Y-16747501D01*
X6828572Y-16699882D01*
X6838095Y-16661787D01*
X6847619Y-16642740D01*
X6857143Y-16633216D01*
X6876191Y-16623692D01*
X7066667Y-16623692D02*
X7085714Y-16623692D01*
X7104762Y-16633216D01*
X7114286Y-16642740D01*
X7123810Y-16661787D01*
X7133333Y-16699882D01*
X7133333Y-16747501D01*
X7123810Y-16785597D01*
X7114286Y-16804644D01*
X7104762Y-16814168D01*
X7085714Y-16823692D01*
X7066667Y-16823692D01*
X7047619Y-16814168D01*
X7038095Y-16804644D01*
X7028572Y-16785597D01*
X7019048Y-16747501D01*
X7019048Y-16699882D01*
X7028572Y-16661787D01*
X7038095Y-16642740D01*
X7047619Y-16633216D01*
X7066667Y-16623692D01*
X7219048Y-16823692D02*
X7219048Y-16690359D01*
X7219048Y-16709406D02*
X7228572Y-16699882D01*
X7247619Y-16690359D01*
X7276191Y-16690359D01*
X7295238Y-16699882D01*
X7304762Y-16718930D01*
X7304762Y-16823692D01*
X7304762Y-16718930D02*
X7314286Y-16699882D01*
X7333333Y-16690359D01*
X7361905Y-16690359D01*
X7380952Y-16699882D01*
X7390476Y-16718930D01*
X7390476Y-16823692D01*
X7485714Y-16823692D02*
X7485714Y-16690359D01*
X7485714Y-16709406D02*
X7495238Y-16699882D01*
X7514286Y-16690359D01*
X7542857Y-16690359D01*
X7561905Y-16699882D01*
X7571429Y-16718930D01*
X7571429Y-16823692D01*
X7571429Y-16718930D02*
X7580952Y-16699882D01*
X7600000Y-16690359D01*
X7628572Y-16690359D01*
X7647619Y-16699882D01*
X7657143Y-16718930D01*
X7657143Y-16823692D01*
X8047619Y-16614168D02*
X7876191Y-16871311D01*
X8304762Y-16623692D02*
X8323810Y-16623692D01*
X8342857Y-16633216D01*
X8352381Y-16642740D01*
X8361905Y-16661787D01*
X8371429Y-16699882D01*
X8371429Y-16747501D01*
X8361905Y-16785597D01*
X8352381Y-16804644D01*
X8342857Y-16814168D01*
X8323810Y-16823692D01*
X8304762Y-16823692D01*
X8285714Y-16814168D01*
X8276191Y-16804644D01*
X8266667Y-16785597D01*
X8257143Y-16747501D01*
X8257143Y-16699882D01*
X8266667Y-16661787D01*
X8276191Y-16642740D01*
X8285714Y-16633216D01*
X8304762Y-16623692D01*
X8457143Y-16804644D02*
X8466667Y-16814168D01*
X8457143Y-16823692D01*
X8447619Y-16814168D01*
X8457143Y-16804644D01*
X8457143Y-16823692D01*
X8533334Y-16623692D02*
X8657143Y-16623692D01*
X8590476Y-16699882D01*
X8619048Y-16699882D01*
X8638095Y-16709406D01*
X8647619Y-16718930D01*
X8657143Y-16737978D01*
X8657143Y-16785597D01*
X8647619Y-16804644D01*
X8638095Y-16814168D01*
X8619048Y-16823692D01*
X8561905Y-16823692D01*
X8542857Y-16814168D01*
X8533334Y-16804644D01*
X8723810Y-16623692D02*
X8847619Y-16623692D01*
X8780953Y-16699882D01*
X8809524Y-16699882D01*
X8828572Y-16709406D01*
X8838095Y-16718930D01*
X8847619Y-16737978D01*
X8847619Y-16785597D01*
X8838095Y-16804644D01*
X8828572Y-16814168D01*
X8809524Y-16823692D01*
X8752381Y-16823692D01*
X8733334Y-16814168D01*
X8723810Y-16804644D01*
X9019048Y-16690359D02*
X9019048Y-16823692D01*
X8971429Y-16614168D02*
X8923810Y-16757025D01*
X9047619Y-16757025D01*
X9209524Y-16623692D02*
X9171429Y-16623692D01*
X9152381Y-16633216D01*
X9142857Y-16642740D01*
X9123810Y-16671311D01*
X9114286Y-16709406D01*
X9114286Y-16785597D01*
X9123810Y-16804644D01*
X9133334Y-16814168D01*
X9152381Y-16823692D01*
X9190476Y-16823692D01*
X9209524Y-16814168D01*
X9219048Y-16804644D01*
X9228572Y-16785597D01*
X9228572Y-16737978D01*
X9219048Y-16718930D01*
X9209524Y-16709406D01*
X9190476Y-16699882D01*
X9152381Y-16699882D01*
X9133334Y-16709406D01*
X9123810Y-16718930D01*
X9114286Y-16737978D01*
X9304762Y-16623692D02*
X9304762Y-16661787D01*
X9380953Y-16623692D02*
X9380953Y-16661787D01*
X9676191Y-16899882D02*
X9666667Y-16890359D01*
X9647619Y-16861787D01*
X9638095Y-16842740D01*
X9628572Y-16814168D01*
X9619048Y-16766549D01*
X9619048Y-16728454D01*
X9628572Y-16680835D01*
X9638095Y-16652263D01*
X9647619Y-16633216D01*
X9666667Y-16604644D01*
X9676191Y-16595120D01*
X9733334Y-16623692D02*
X9857143Y-16623692D01*
X9790476Y-16699882D01*
X9819048Y-16699882D01*
X9838095Y-16709406D01*
X9847619Y-16718930D01*
X9857143Y-16737978D01*
X9857143Y-16785597D01*
X9847619Y-16804644D01*
X9838095Y-16814168D01*
X9819048Y-16823692D01*
X9761905Y-16823692D01*
X9742857Y-16814168D01*
X9733334Y-16804644D01*
X10095238Y-16823692D02*
X10095238Y-16623692D01*
X10180953Y-16823692D02*
X10180953Y-16718930D01*
X10171429Y-16699882D01*
X10152381Y-16690359D01*
X10123810Y-16690359D01*
X10104762Y-16699882D01*
X10095238Y-16709406D01*
X10304762Y-16823692D02*
X10285714Y-16814168D01*
X10276191Y-16804644D01*
X10266667Y-16785597D01*
X10266667Y-16728454D01*
X10276191Y-16709406D01*
X10285714Y-16699882D01*
X10304762Y-16690359D01*
X10333334Y-16690359D01*
X10352381Y-16699882D01*
X10361905Y-16709406D01*
X10371429Y-16728454D01*
X10371429Y-16785597D01*
X10361905Y-16804644D01*
X10352381Y-16814168D01*
X10333334Y-16823692D01*
X10304762Y-16823692D01*
X10485714Y-16823692D02*
X10466667Y-16814168D01*
X10457143Y-16795121D01*
X10457143Y-16623692D01*
X10638095Y-16814168D02*
X10619048Y-16823692D01*
X10580953Y-16823692D01*
X10561905Y-16814168D01*
X10552381Y-16795121D01*
X10552381Y-16718930D01*
X10561905Y-16699882D01*
X10580953Y-16690359D01*
X10619048Y-16690359D01*
X10638095Y-16699882D01*
X10647619Y-16718930D01*
X10647619Y-16737978D01*
X10552381Y-16757025D01*
X10723810Y-16814168D02*
X10742857Y-16823692D01*
X10780953Y-16823692D01*
X10800000Y-16814168D01*
X10809524Y-16795121D01*
X10809524Y-16785597D01*
X10800000Y-16766549D01*
X10780953Y-16757025D01*
X10752381Y-16757025D01*
X10733334Y-16747501D01*
X10723810Y-16728454D01*
X10723810Y-16718930D01*
X10733334Y-16699882D01*
X10752381Y-16690359D01*
X10780953Y-16690359D01*
X10800000Y-16699882D01*
X10876191Y-16899882D02*
X10885714Y-16890359D01*
X10904762Y-16861787D01*
X10914286Y-16842740D01*
X10923810Y-16814168D01*
X10933334Y-16766549D01*
X10933334Y-16728454D01*
X10923810Y-16680835D01*
X10914286Y-16652263D01*
X10904762Y-16633216D01*
X10885714Y-16604644D01*
X10876191Y-16595120D01*
M02*
