%TF.GenerationSoftware,KiCad,Pcbnew,6.0.11+dfsg-1*%
%TF.CreationDate,2026-05-20T13:10:23+00:00*%
%TF.ProjectId,Lifedatalink_v1_revB_compat,4c696665-6461-4746-916c-696e6b5f7631,rev?*%
%TF.SameCoordinates,Original*%
%TF.FileFunction,AssemblyDrawing,Bot*%
%FSLAX46Y46*%
G04 Gerber Fmt 4.6, Leading zero omitted, Abs format (unit mm)*
G04 Created by KiCad (PCBNEW 6.0.11+dfsg-1) date 2026-05-20 13:10:23*
%MOMM*%
%LPD*%
G01*
G04 APERTURE LIST*
%TA.AperFunction,Profile*%
%ADD10C,0.050000*%
%TD*%
G04 APERTURE END LIST*
D10*
X92461080Y-104942640D02*
X92461080Y-101132640D01*
X93096080Y-100497640D02*
X98176080Y-100497640D01*
X93731080Y-106212640D02*
X93731080Y-108752640D01*
X97541080Y-106212640D02*
X97541080Y-108752640D01*
X81701640Y-77579220D02*
X86781640Y-77579220D01*
X81066640Y-72753220D02*
X81066640Y-76944220D01*
X103555800Y-82499200D02*
X103555800Y-95453200D01*
X69773800Y-80594200D02*
G75*
G03*
X67868800Y-82499200I0J-1905000D01*
G01*
X101650800Y-97358200D02*
X69773800Y-97358200D01*
X82737960Y-120703340D02*
X82737960Y-114226340D01*
X102041960Y-114226340D02*
X102041960Y-120703340D01*
X100263960Y-122481340D02*
X84515960Y-122481340D01*
X78613000Y-109093000D02*
X72897999Y-109093001D01*
X97028000Y-126873000D02*
X97028001Y-131318001D01*
X67868800Y-95453200D02*
X67868800Y-82499200D01*
X96906080Y-109387640D02*
X94366080Y-109387640D01*
X72897999Y-117982999D02*
X78613000Y-117983000D01*
X93731060Y-106212640D02*
G75*
G03*
X93096080Y-105577640I-634960J40D01*
G01*
X98298000Y-125603000D02*
G75*
G03*
X97028000Y-126873000I0J-1270000D01*
G01*
X87416580Y-72753220D02*
G75*
G03*
X86781640Y-72118220I-634980J20D01*
G01*
X79883000Y-116713000D02*
X79883000Y-110363000D01*
X86781640Y-72118220D02*
X81701640Y-72118220D01*
X105918000Y-109093000D02*
G75*
G03*
X104648000Y-110363000I0J-1270000D01*
G01*
X79883000Y-110363000D02*
G75*
G03*
X78613000Y-109093000I-1270000J0D01*
G01*
X100263960Y-122481260D02*
G75*
G03*
X102041960Y-120703340I40J1777960D01*
G01*
X84515960Y-112448260D02*
G75*
G03*
X82737960Y-114226340I40J-1778040D01*
G01*
X105918000Y-117983000D02*
X111633000Y-117983000D01*
X93096080Y-100497580D02*
G75*
G03*
X92461080Y-101132640I20J-635020D01*
G01*
X82737960Y-120703340D02*
G75*
G03*
X84515960Y-122481340I1778040J40D01*
G01*
X72897999Y-109093001D02*
G75*
G03*
X72897999Y-117982999I-5079999J-4444999D01*
G01*
X69773800Y-80594200D02*
X101650800Y-80594200D01*
X102108000Y-126873000D02*
G75*
G03*
X100838000Y-125603000I-1270000J0D01*
G01*
X111633001Y-109093001D02*
X105918000Y-109093000D01*
X101650800Y-97358200D02*
G75*
G03*
X103555800Y-95453200I0J1905000D01*
G01*
X67868800Y-95453200D02*
G75*
G03*
X69773800Y-97358200I1905000J0D01*
G01*
X103555800Y-82499200D02*
G75*
G03*
X101650800Y-80594200I-1905000J0D01*
G01*
X84515960Y-112448340D02*
X100263960Y-112448340D01*
X87416640Y-76944220D02*
X87416640Y-72753220D01*
X102041960Y-114226340D02*
G75*
G03*
X100263960Y-112448340I-1777960J40D01*
G01*
X98811060Y-101132640D02*
G75*
G03*
X98176080Y-100497640I-634960J40D01*
G01*
X78613000Y-117983000D02*
G75*
G03*
X79883000Y-116713000I0J1270000D01*
G01*
X96906080Y-109387580D02*
G75*
G03*
X97541080Y-108752640I20J634980D01*
G01*
X98811080Y-101132640D02*
X98811080Y-104942640D01*
X81066580Y-76944220D02*
G75*
G03*
X81701640Y-77579220I635020J20D01*
G01*
X86781640Y-77579240D02*
G75*
G03*
X87416640Y-76944220I-40J635040D01*
G01*
X102108000Y-131318001D02*
X102108000Y-126873000D01*
X92461060Y-104942640D02*
G75*
G03*
X93096080Y-105577640I635040J40D01*
G01*
X98176080Y-105577580D02*
G75*
G03*
X97541080Y-106212640I20J-635020D01*
G01*
X104648000Y-110363000D02*
X104648000Y-116713000D01*
X93731060Y-108752640D02*
G75*
G03*
X94366080Y-109387640I635040J40D01*
G01*
X111633001Y-117982999D02*
G75*
G03*
X111633001Y-109093001I5079999J4444999D01*
G01*
X98176080Y-105577580D02*
G75*
G03*
X98811080Y-104942640I20J634980D01*
G01*
X97028001Y-131318001D02*
G75*
G03*
X102108000Y-131318001I2540000J-6349999D01*
G01*
X104648000Y-116713000D02*
G75*
G03*
X105918000Y-117983000I1270000J0D01*
G01*
X81701640Y-72118240D02*
G75*
G03*
X81066640Y-72753220I-40J-634960D01*
G01*
X100838000Y-125603000D02*
X98298000Y-125603000D01*
M02*
