%TF.GenerationSoftware,KiCad,Pcbnew,6.0.11+dfsg-1*%
%TF.CreationDate,2026-05-20T21:14:43+00:00*%
%TF.ProjectId,Lifedatalink_v1_revB_compat,4c696665-6461-4746-916c-696e6b5f7631,rev?*%
%TF.SameCoordinates,Original*%
%TF.FileFunction,Legend,Top*%
%TF.FilePolarity,Positive*%
%FSLAX46Y46*%
G04 Gerber Fmt 4.6, Leading zero omitted, Abs format (unit mm)*
G04 Created by KiCad (PCBNEW 6.0.11+dfsg-1) date 2026-05-20 21:14:43*
%MOMM*%
%LPD*%
G01*
G04 APERTURE LIST*
G04 Aperture macros list*
%AMRoundRect*
0 Rectangle with rounded corners*
0 $1 Rounding radius*
0 $2 $3 $4 $5 $6 $7 $8 $9 X,Y pos of 4 corners*
0 Add a 4 corners polygon primitive as box body*
4,1,4,$2,$3,$4,$5,$6,$7,$8,$9,$2,$3,0*
0 Add four circle primitives for the rounded corners*
1,1,$1+$1,$2,$3*
1,1,$1+$1,$4,$5*
1,1,$1+$1,$6,$7*
1,1,$1+$1,$8,$9*
0 Add four rect primitives between the rounded corners*
20,1,$1+$1,$2,$3,$4,$5,0*
20,1,$1+$1,$4,$5,$6,$7,0*
20,1,$1+$1,$6,$7,$8,$9,0*
20,1,$1+$1,$8,$9,$2,$3,0*%
G04 Aperture macros list end*
%ADD10C,0.150000*%
%ADD11C,0.120000*%
%ADD12C,0.127000*%
%ADD13C,0.200000*%
%ADD14C,0.100000*%
%ADD15C,0.010000*%
%ADD16C,0.350000*%
%ADD17C,0.200000*%
%ADD18C,0.300000*%
%ADD19O,1.650000X0.650000*%
%ADD20C,0.324999*%
%ADD21C,0.877000*%
%ADD22C,0.752000*%
%ADD23O,2.402000X1.252000*%
%ADD24C,12.102000*%
%ADD25C,3.902000*%
%ADD26C,0.427000*%
%ADD27RoundRect,0.198500X0.147500X0.172500X-0.147500X0.172500X-0.147500X-0.172500X0.147500X-0.172500X0*%
%ADD28RoundRect,0.198500X-0.147500X-0.172500X0.147500X-0.172500X0.147500X0.172500X-0.147500X0.172500X0*%
%ADD29RoundRect,0.051000X-0.325000X0.530000X-0.325000X-0.530000X0.325000X-0.530000X0.325000X0.530000X0*%
%ADD30RoundRect,0.198500X0.172500X-0.147500X0.172500X0.147500X-0.172500X0.147500X-0.172500X-0.147500X0*%
%ADD31RoundRect,0.198500X-0.172500X0.147500X-0.172500X-0.147500X0.172500X-0.147500X0.172500X0.147500X0*%
%ADD32RoundRect,0.051000X0.150000X0.350000X-0.150000X0.350000X-0.150000X-0.350000X0.150000X-0.350000X0*%
%ADD33RoundRect,0.051000X0.150000X0.500000X-0.150000X0.500000X-0.150000X-0.500000X0.150000X-0.500000X0*%
%ADD34RoundRect,0.051000X-0.150000X-0.350000X0.150000X-0.350000X0.150000X0.350000X-0.150000X0.350000X0*%
%ADD35RoundRect,0.051000X-0.150000X-0.500000X0.150000X-0.500000X0.150000X0.500000X-0.150000X0.500000X0*%
%ADD36RoundRect,0.201000X-0.625000X0.150000X-0.625000X-0.150000X0.625000X-0.150000X0.625000X0.150000X0*%
%ADD37RoundRect,0.301000X-0.650000X0.350000X-0.650000X-0.350000X0.650000X-0.350000X0.650000X0.350000X0*%
%ADD38RoundRect,0.051000X-1.500000X-1.250000X1.500000X-1.250000X1.500000X1.250000X-1.500000X1.250000X0*%
G04 APERTURE END LIST*
D10*
X92958604Y-83541580D02*
X92958604Y-82541580D01*
X92720509Y-82541580D01*
X92577652Y-82589200D01*
X92482414Y-82684438D01*
X92434795Y-82779676D01*
X92387176Y-82970152D01*
X92387176Y-83113009D01*
X92434795Y-83303485D01*
X92482414Y-83398723D01*
X92577652Y-83493961D01*
X92720509Y-83541580D01*
X92958604Y-83541580D01*
X91577652Y-83493961D02*
X91672890Y-83541580D01*
X91863366Y-83541580D01*
X91958604Y-83493961D01*
X92006223Y-83398723D01*
X92006223Y-83017771D01*
X91958604Y-82922533D01*
X91863366Y-82874914D01*
X91672890Y-82874914D01*
X91577652Y-82922533D01*
X91530033Y-83017771D01*
X91530033Y-83113009D01*
X92006223Y-83208247D01*
X91149080Y-83493961D02*
X91053842Y-83541580D01*
X90863366Y-83541580D01*
X90768128Y-83493961D01*
X90720509Y-83398723D01*
X90720509Y-83351104D01*
X90768128Y-83255866D01*
X90863366Y-83208247D01*
X91006223Y-83208247D01*
X91101461Y-83160628D01*
X91149080Y-83065390D01*
X91149080Y-83017771D01*
X91101461Y-82922533D01*
X91006223Y-82874914D01*
X90863366Y-82874914D01*
X90768128Y-82922533D01*
X90291938Y-83541580D02*
X90291938Y-82874914D01*
X90291938Y-82541580D02*
X90339557Y-82589200D01*
X90291938Y-82636819D01*
X90244319Y-82589200D01*
X90291938Y-82541580D01*
X90291938Y-82636819D01*
X89387176Y-82874914D02*
X89387176Y-83684438D01*
X89434795Y-83779676D01*
X89482414Y-83827295D01*
X89577652Y-83874914D01*
X89720509Y-83874914D01*
X89815747Y-83827295D01*
X89387176Y-83493961D02*
X89482414Y-83541580D01*
X89672890Y-83541580D01*
X89768128Y-83493961D01*
X89815747Y-83446342D01*
X89863366Y-83351104D01*
X89863366Y-83065390D01*
X89815747Y-82970152D01*
X89768128Y-82922533D01*
X89672890Y-82874914D01*
X89482414Y-82874914D01*
X89387176Y-82922533D01*
X88910985Y-82874914D02*
X88910985Y-83541580D01*
X88910985Y-82970152D02*
X88863366Y-82922533D01*
X88768128Y-82874914D01*
X88625271Y-82874914D01*
X88530033Y-82922533D01*
X88482414Y-83017771D01*
X88482414Y-83541580D01*
X87625271Y-83493961D02*
X87720509Y-83541580D01*
X87910985Y-83541580D01*
X88006223Y-83493961D01*
X88053842Y-83398723D01*
X88053842Y-83017771D01*
X88006223Y-82922533D01*
X87910985Y-82874914D01*
X87720509Y-82874914D01*
X87625271Y-82922533D01*
X87577652Y-83017771D01*
X87577652Y-83113009D01*
X88053842Y-83208247D01*
X86720509Y-83541580D02*
X86720509Y-82541580D01*
X86720509Y-83493961D02*
X86815747Y-83541580D01*
X87006223Y-83541580D01*
X87101461Y-83493961D01*
X87149080Y-83446342D01*
X87196700Y-83351104D01*
X87196700Y-83065390D01*
X87149080Y-82970152D01*
X87101461Y-82922533D01*
X87006223Y-82874914D01*
X86815747Y-82874914D01*
X86720509Y-82922533D01*
X85482414Y-83541580D02*
X85482414Y-82541580D01*
X85482414Y-82922533D02*
X85387176Y-82874914D01*
X85196700Y-82874914D01*
X85101461Y-82922533D01*
X85053842Y-82970152D01*
X85006223Y-83065390D01*
X85006223Y-83351104D01*
X85053842Y-83446342D01*
X85101461Y-83493961D01*
X85196700Y-83541580D01*
X85387176Y-83541580D01*
X85482414Y-83493961D01*
X84672890Y-82874914D02*
X84434795Y-83541580D01*
X84196700Y-82874914D02*
X84434795Y-83541580D01*
X84530033Y-83779676D01*
X84577652Y-83827295D01*
X84672890Y-83874914D01*
X92958604Y-85151580D02*
X92958604Y-84151580D01*
X92958604Y-84627771D02*
X92387176Y-84627771D01*
X92387176Y-85151580D02*
X92387176Y-84151580D01*
X91720509Y-84151580D02*
X91530033Y-84151580D01*
X91434795Y-84199200D01*
X91339557Y-84294438D01*
X91291938Y-84484914D01*
X91291938Y-84818247D01*
X91339557Y-85008723D01*
X91434795Y-85103961D01*
X91530033Y-85151580D01*
X91720509Y-85151580D01*
X91815747Y-85103961D01*
X91910985Y-85008723D01*
X91958604Y-84818247D01*
X91958604Y-84484914D01*
X91910985Y-84294438D01*
X91815747Y-84199200D01*
X91720509Y-84151580D01*
X90291938Y-85151580D02*
X90625271Y-84675390D01*
X90863366Y-85151580D02*
X90863366Y-84151580D01*
X90482414Y-84151580D01*
X90387176Y-84199200D01*
X90339557Y-84246819D01*
X90291938Y-84342057D01*
X90291938Y-84484914D01*
X90339557Y-84580152D01*
X90387176Y-84627771D01*
X90482414Y-84675390D01*
X90863366Y-84675390D01*
X89863366Y-85151580D02*
X89863366Y-84151580D01*
X89482414Y-84151580D02*
X88815747Y-84151580D01*
X89482414Y-85151580D01*
X88815747Y-85151580D01*
X88244319Y-84151580D02*
X88053842Y-84151580D01*
X87958604Y-84199200D01*
X87863366Y-84294438D01*
X87815747Y-84484914D01*
X87815747Y-84818247D01*
X87863366Y-85008723D01*
X87958604Y-85103961D01*
X88053842Y-85151580D01*
X88244319Y-85151580D01*
X88339557Y-85103961D01*
X88434795Y-85008723D01*
X88482414Y-84818247D01*
X88482414Y-84484914D01*
X88434795Y-84294438D01*
X88339557Y-84199200D01*
X88244319Y-84151580D01*
X87387176Y-85151580D02*
X87387176Y-84151580D01*
X86815747Y-85151580D01*
X86815747Y-84151580D01*
X85577652Y-85151580D02*
X85577652Y-84151580D01*
X85244319Y-84865866D01*
X84910985Y-84151580D01*
X84910985Y-85151580D01*
X84434795Y-84627771D02*
X84101461Y-84627771D01*
X83958604Y-85151580D02*
X84434795Y-85151580D01*
X84434795Y-84151580D01*
X83958604Y-84151580D01*
X83530033Y-85151580D02*
X83530033Y-84151580D01*
X83291938Y-84151580D01*
X83149080Y-84199200D01*
X83053842Y-84294438D01*
X83006223Y-84389676D01*
X82958604Y-84580152D01*
X82958604Y-84723009D01*
X83006223Y-84913485D01*
X83053842Y-85008723D01*
X83149080Y-85103961D01*
X83291938Y-85151580D01*
X83530033Y-85151580D01*
X82530033Y-85151580D02*
X82530033Y-84151580D01*
X81482414Y-85056342D02*
X81530033Y-85103961D01*
X81672890Y-85151580D01*
X81768128Y-85151580D01*
X81910985Y-85103961D01*
X82006223Y-85008723D01*
X82053842Y-84913485D01*
X82101461Y-84723009D01*
X82101461Y-84580152D01*
X82053842Y-84389676D01*
X82006223Y-84294438D01*
X81910985Y-84199200D01*
X81768128Y-84151580D01*
X81672890Y-84151580D01*
X81530033Y-84199200D01*
X81482414Y-84246819D01*
X81101461Y-84865866D02*
X80625271Y-84865866D01*
X81196700Y-85151580D02*
X80863366Y-84151580D01*
X80530033Y-85151580D01*
X79720509Y-85151580D02*
X80196700Y-85151580D01*
X80196700Y-84151580D01*
X78672890Y-85103961D02*
X78530033Y-85151580D01*
X78291938Y-85151580D01*
X78196700Y-85103961D01*
X78149080Y-85056342D01*
X78101461Y-84961104D01*
X78101461Y-84865866D01*
X78149080Y-84770628D01*
X78196700Y-84723009D01*
X78291938Y-84675390D01*
X78482414Y-84627771D01*
X78577652Y-84580152D01*
X78625271Y-84532533D01*
X78672890Y-84437295D01*
X78672890Y-84342057D01*
X78625271Y-84246819D01*
X78577652Y-84199200D01*
X78482414Y-84151580D01*
X78244319Y-84151580D01*
X78101461Y-84199200D01*
X77672890Y-85056342D02*
X77625271Y-85103961D01*
X77672890Y-85151580D01*
X77720509Y-85103961D01*
X77672890Y-85056342D01*
X77672890Y-85151580D01*
X77244319Y-84865866D02*
X76768128Y-84865866D01*
X77339557Y-85151580D02*
X77006223Y-84151580D01*
X76672890Y-85151580D01*
X76339557Y-85056342D02*
X76291938Y-85103961D01*
X76339557Y-85151580D01*
X76387176Y-85103961D01*
X76339557Y-85056342D01*
X76339557Y-85151580D01*
X75910985Y-85103961D02*
X75768128Y-85151580D01*
X75530033Y-85151580D01*
X75434795Y-85103961D01*
X75387176Y-85056342D01*
X75339557Y-84961104D01*
X75339557Y-84865866D01*
X75387176Y-84770628D01*
X75434795Y-84723009D01*
X75530033Y-84675390D01*
X75720509Y-84627771D01*
X75815747Y-84580152D01*
X75863366Y-84532533D01*
X75910985Y-84437295D01*
X75910985Y-84342057D01*
X75863366Y-84246819D01*
X75815747Y-84199200D01*
X75720509Y-84151580D01*
X75482414Y-84151580D01*
X75339557Y-84199200D01*
X74910985Y-85056342D02*
X74863366Y-85103961D01*
X74910985Y-85151580D01*
X74958604Y-85103961D01*
X74910985Y-85056342D01*
X74910985Y-85151580D01*
X92387176Y-86666342D02*
X92434795Y-86713961D01*
X92577652Y-86761580D01*
X92672890Y-86761580D01*
X92815747Y-86713961D01*
X92910985Y-86618723D01*
X92958604Y-86523485D01*
X93006223Y-86333009D01*
X93006223Y-86190152D01*
X92958604Y-85999676D01*
X92910985Y-85904438D01*
X92815747Y-85809200D01*
X92672890Y-85761580D01*
X92577652Y-85761580D01*
X92434795Y-85809200D01*
X92387176Y-85856819D01*
X91530033Y-86761580D02*
X91530033Y-86237771D01*
X91577652Y-86142533D01*
X91672890Y-86094914D01*
X91863366Y-86094914D01*
X91958604Y-86142533D01*
X91530033Y-86713961D02*
X91625271Y-86761580D01*
X91863366Y-86761580D01*
X91958604Y-86713961D01*
X92006223Y-86618723D01*
X92006223Y-86523485D01*
X91958604Y-86428247D01*
X91863366Y-86380628D01*
X91625271Y-86380628D01*
X91530033Y-86333009D01*
X91053842Y-86761580D02*
X91053842Y-86094914D01*
X91053842Y-86285390D02*
X91006223Y-86190152D01*
X90958604Y-86142533D01*
X90863366Y-86094914D01*
X90768128Y-86094914D01*
X90577652Y-86094914D02*
X90196700Y-86094914D01*
X90434795Y-85761580D02*
X90434795Y-86618723D01*
X90387176Y-86713961D01*
X90291938Y-86761580D01*
X90196700Y-86761580D01*
X89434795Y-86761580D02*
X89434795Y-86237771D01*
X89482414Y-86142533D01*
X89577652Y-86094914D01*
X89768128Y-86094914D01*
X89863366Y-86142533D01*
X89434795Y-86713961D02*
X89530033Y-86761580D01*
X89768128Y-86761580D01*
X89863366Y-86713961D01*
X89910985Y-86618723D01*
X89910985Y-86523485D01*
X89863366Y-86428247D01*
X89768128Y-86380628D01*
X89530033Y-86380628D01*
X89434795Y-86333009D01*
X88530033Y-86094914D02*
X88530033Y-86904438D01*
X88577652Y-86999676D01*
X88625271Y-87047295D01*
X88720509Y-87094914D01*
X88863366Y-87094914D01*
X88958604Y-87047295D01*
X88530033Y-86713961D02*
X88625271Y-86761580D01*
X88815747Y-86761580D01*
X88910985Y-86713961D01*
X88958604Y-86666342D01*
X89006223Y-86571104D01*
X89006223Y-86285390D01*
X88958604Y-86190152D01*
X88910985Y-86142533D01*
X88815747Y-86094914D01*
X88625271Y-86094914D01*
X88530033Y-86142533D01*
X87672890Y-86713961D02*
X87768128Y-86761580D01*
X87958604Y-86761580D01*
X88053842Y-86713961D01*
X88101461Y-86618723D01*
X88101461Y-86237771D01*
X88053842Y-86142533D01*
X87958604Y-86094914D01*
X87768128Y-86094914D01*
X87672890Y-86142533D01*
X87625271Y-86237771D01*
X87625271Y-86333009D01*
X88101461Y-86428247D01*
X87196700Y-86094914D02*
X87196700Y-86761580D01*
X87196700Y-86190152D02*
X87149080Y-86142533D01*
X87053842Y-86094914D01*
X86910985Y-86094914D01*
X86815747Y-86142533D01*
X86768128Y-86237771D01*
X86768128Y-86761580D01*
X85863366Y-86761580D02*
X85863366Y-86237771D01*
X85910985Y-86142533D01*
X86006223Y-86094914D01*
X86196700Y-86094914D01*
X86291938Y-86142533D01*
X85863366Y-86713961D02*
X85958604Y-86761580D01*
X86196700Y-86761580D01*
X86291938Y-86713961D01*
X86339557Y-86618723D01*
X86339557Y-86523485D01*
X86291938Y-86428247D01*
X86196700Y-86380628D01*
X85958604Y-86380628D01*
X85863366Y-86333009D01*
X84625271Y-86380628D02*
X83863366Y-86380628D01*
X82053842Y-86666342D02*
X82101461Y-86713961D01*
X82244319Y-86761580D01*
X82339557Y-86761580D01*
X82482414Y-86713961D01*
X82577652Y-86618723D01*
X82625271Y-86523485D01*
X82672890Y-86333009D01*
X82672890Y-86190152D01*
X82625271Y-85999676D01*
X82577652Y-85904438D01*
X82482414Y-85809200D01*
X82339557Y-85761580D01*
X82244319Y-85761580D01*
X82101461Y-85809200D01*
X82053842Y-85856819D01*
X81482414Y-86761580D02*
X81577652Y-86713961D01*
X81625271Y-86666342D01*
X81672890Y-86571104D01*
X81672890Y-86285390D01*
X81625271Y-86190152D01*
X81577652Y-86142533D01*
X81482414Y-86094914D01*
X81339557Y-86094914D01*
X81244319Y-86142533D01*
X81196700Y-86190152D01*
X81149080Y-86285390D01*
X81149080Y-86571104D01*
X81196700Y-86666342D01*
X81244319Y-86713961D01*
X81339557Y-86761580D01*
X81482414Y-86761580D01*
X80577652Y-86761580D02*
X80672890Y-86713961D01*
X80720509Y-86618723D01*
X80720509Y-85761580D01*
X80053842Y-86761580D02*
X80149080Y-86713961D01*
X80196700Y-86666342D01*
X80244319Y-86571104D01*
X80244319Y-86285390D01*
X80196700Y-86190152D01*
X80149080Y-86142533D01*
X80053842Y-86094914D01*
X79910985Y-86094914D01*
X79815747Y-86142533D01*
X79768128Y-86190152D01*
X79720509Y-86285390D01*
X79720509Y-86571104D01*
X79768128Y-86666342D01*
X79815747Y-86713961D01*
X79910985Y-86761580D01*
X80053842Y-86761580D01*
X79291938Y-86761580D02*
X79291938Y-86094914D01*
X79291938Y-86190152D02*
X79244319Y-86142533D01*
X79149080Y-86094914D01*
X79006223Y-86094914D01*
X78910985Y-86142533D01*
X78863366Y-86237771D01*
X78863366Y-86761580D01*
X78863366Y-86237771D02*
X78815747Y-86142533D01*
X78720509Y-86094914D01*
X78577652Y-86094914D01*
X78482414Y-86142533D01*
X78434795Y-86237771D01*
X78434795Y-86761580D01*
X77958604Y-86761580D02*
X77958604Y-85761580D01*
X77958604Y-86142533D02*
X77863366Y-86094914D01*
X77672890Y-86094914D01*
X77577652Y-86142533D01*
X77530033Y-86190152D01*
X77482414Y-86285390D01*
X77482414Y-86571104D01*
X77530033Y-86666342D01*
X77577652Y-86713961D01*
X77672890Y-86761580D01*
X77863366Y-86761580D01*
X77958604Y-86713961D01*
X77053842Y-86761580D02*
X77053842Y-86094914D01*
X77053842Y-85761580D02*
X77101461Y-85809200D01*
X77053842Y-85856819D01*
X77006223Y-85809200D01*
X77053842Y-85761580D01*
X77053842Y-85856819D01*
X76149080Y-86761580D02*
X76149080Y-86237771D01*
X76196700Y-86142533D01*
X76291938Y-86094914D01*
X76482414Y-86094914D01*
X76577652Y-86142533D01*
X76149080Y-86713961D02*
X76244319Y-86761580D01*
X76482414Y-86761580D01*
X76577652Y-86713961D01*
X76625271Y-86618723D01*
X76625271Y-86523485D01*
X76577652Y-86428247D01*
X76482414Y-86380628D01*
X76244319Y-86380628D01*
X76149080Y-86333009D01*
X93053842Y-87704914D02*
X92863366Y-88371580D01*
X92672890Y-87895390D01*
X92482414Y-88371580D01*
X92291938Y-87704914D01*
X92006223Y-87704914D02*
X91815747Y-88371580D01*
X91625271Y-87895390D01*
X91434795Y-88371580D01*
X91244319Y-87704914D01*
X90958604Y-87704914D02*
X90768128Y-88371580D01*
X90577652Y-87895390D01*
X90387176Y-88371580D01*
X90196700Y-87704914D01*
X89815747Y-88276342D02*
X89768128Y-88323961D01*
X89815747Y-88371580D01*
X89863366Y-88323961D01*
X89815747Y-88276342D01*
X89815747Y-88371580D01*
X89339557Y-88371580D02*
X89339557Y-87371580D01*
X88910985Y-88371580D02*
X88910985Y-87847771D01*
X88958604Y-87752533D01*
X89053842Y-87704914D01*
X89196700Y-87704914D01*
X89291938Y-87752533D01*
X89339557Y-87800152D01*
X88291938Y-88371580D02*
X88387176Y-88323961D01*
X88434795Y-88276342D01*
X88482414Y-88181104D01*
X88482414Y-87895390D01*
X88434795Y-87800152D01*
X88387176Y-87752533D01*
X88291938Y-87704914D01*
X88149080Y-87704914D01*
X88053842Y-87752533D01*
X88006223Y-87800152D01*
X87958604Y-87895390D01*
X87958604Y-88181104D01*
X88006223Y-88276342D01*
X88053842Y-88323961D01*
X88149080Y-88371580D01*
X88291938Y-88371580D01*
X87530033Y-88371580D02*
X87530033Y-87704914D01*
X87530033Y-87895390D02*
X87482414Y-87800152D01*
X87434795Y-87752533D01*
X87339557Y-87704914D01*
X87244319Y-87704914D01*
X86910985Y-88371580D02*
X86910985Y-87704914D01*
X86910985Y-87371580D02*
X86958604Y-87419200D01*
X86910985Y-87466819D01*
X86863366Y-87419200D01*
X86910985Y-87371580D01*
X86910985Y-87466819D01*
X86530033Y-87704914D02*
X86006223Y-87704914D01*
X86530033Y-88371580D01*
X86006223Y-88371580D01*
X85482414Y-88371580D02*
X85577652Y-88323961D01*
X85625271Y-88276342D01*
X85672890Y-88181104D01*
X85672890Y-87895390D01*
X85625271Y-87800152D01*
X85577652Y-87752533D01*
X85482414Y-87704914D01*
X85339557Y-87704914D01*
X85244319Y-87752533D01*
X85196700Y-87800152D01*
X85149080Y-87895390D01*
X85149080Y-88181104D01*
X85196700Y-88276342D01*
X85244319Y-88323961D01*
X85339557Y-88371580D01*
X85482414Y-88371580D01*
X84720509Y-87704914D02*
X84720509Y-88371580D01*
X84720509Y-87800152D02*
X84672890Y-87752533D01*
X84577652Y-87704914D01*
X84434795Y-87704914D01*
X84339557Y-87752533D01*
X84291938Y-87847771D01*
X84291938Y-88371580D01*
X83815747Y-88371580D02*
X83815747Y-87704914D01*
X83815747Y-87800152D02*
X83768128Y-87752533D01*
X83672890Y-87704914D01*
X83530033Y-87704914D01*
X83434795Y-87752533D01*
X83387176Y-87847771D01*
X83387176Y-88371580D01*
X83387176Y-87847771D02*
X83339557Y-87752533D01*
X83244319Y-87704914D01*
X83101461Y-87704914D01*
X83006223Y-87752533D01*
X82958604Y-87847771D01*
X82958604Y-88371580D01*
X82101461Y-88323961D02*
X82196700Y-88371580D01*
X82387176Y-88371580D01*
X82482414Y-88323961D01*
X82530033Y-88228723D01*
X82530033Y-87847771D01*
X82482414Y-87752533D01*
X82387176Y-87704914D01*
X82196700Y-87704914D01*
X82101461Y-87752533D01*
X82053842Y-87847771D01*
X82053842Y-87943009D01*
X82530033Y-88038247D01*
X81196700Y-88371580D02*
X81196700Y-87371580D01*
X81196700Y-88323961D02*
X81291938Y-88371580D01*
X81482414Y-88371580D01*
X81577652Y-88323961D01*
X81625271Y-88276342D01*
X81672890Y-88181104D01*
X81672890Y-87895390D01*
X81625271Y-87800152D01*
X81577652Y-87752533D01*
X81482414Y-87704914D01*
X81291938Y-87704914D01*
X81196700Y-87752533D01*
X80720509Y-88371580D02*
X80720509Y-87704914D01*
X80720509Y-87371580D02*
X80768128Y-87419200D01*
X80720509Y-87466819D01*
X80672890Y-87419200D01*
X80720509Y-87371580D01*
X80720509Y-87466819D01*
X79815747Y-88323961D02*
X79910985Y-88371580D01*
X80101461Y-88371580D01*
X80196700Y-88323961D01*
X80244319Y-88276342D01*
X80291938Y-88181104D01*
X80291938Y-87895390D01*
X80244319Y-87800152D01*
X80196700Y-87752533D01*
X80101461Y-87704914D01*
X79910985Y-87704914D01*
X79815747Y-87752533D01*
X78958604Y-88371580D02*
X78958604Y-87847771D01*
X79006223Y-87752533D01*
X79101461Y-87704914D01*
X79291938Y-87704914D01*
X79387176Y-87752533D01*
X78958604Y-88323961D02*
X79053842Y-88371580D01*
X79291938Y-88371580D01*
X79387176Y-88323961D01*
X79434795Y-88228723D01*
X79434795Y-88133485D01*
X79387176Y-88038247D01*
X79291938Y-87990628D01*
X79053842Y-87990628D01*
X78958604Y-87943009D01*
X78339557Y-88371580D02*
X78434795Y-88323961D01*
X78482414Y-88228723D01*
X78482414Y-87371580D01*
X77958604Y-88276342D02*
X77910985Y-88323961D01*
X77958604Y-88371580D01*
X78006223Y-88323961D01*
X77958604Y-88276342D01*
X77958604Y-88371580D01*
X77053842Y-88323961D02*
X77149080Y-88371580D01*
X77339557Y-88371580D01*
X77434795Y-88323961D01*
X77482414Y-88276342D01*
X77530033Y-88181104D01*
X77530033Y-87895390D01*
X77482414Y-87800152D01*
X77434795Y-87752533D01*
X77339557Y-87704914D01*
X77149080Y-87704914D01*
X77053842Y-87752533D01*
X76482414Y-88371580D02*
X76577652Y-88323961D01*
X76625271Y-88276342D01*
X76672890Y-88181104D01*
X76672890Y-87895390D01*
X76625271Y-87800152D01*
X76577652Y-87752533D01*
X76482414Y-87704914D01*
X76339557Y-87704914D01*
X76244319Y-87752533D01*
X76196700Y-87800152D01*
X76149080Y-87895390D01*
X76149080Y-88181104D01*
X76196700Y-88276342D01*
X76244319Y-88323961D01*
X76339557Y-88371580D01*
X76482414Y-88371580D01*
X92958604Y-89981580D02*
X92958604Y-88981580D01*
X92625271Y-89695866D01*
X92291938Y-88981580D01*
X92291938Y-89981580D01*
X91672890Y-89981580D02*
X91768128Y-89933961D01*
X91815747Y-89886342D01*
X91863366Y-89791104D01*
X91863366Y-89505390D01*
X91815747Y-89410152D01*
X91768128Y-89362533D01*
X91672890Y-89314914D01*
X91530033Y-89314914D01*
X91434795Y-89362533D01*
X91387176Y-89410152D01*
X91339557Y-89505390D01*
X91339557Y-89791104D01*
X91387176Y-89886342D01*
X91434795Y-89933961D01*
X91530033Y-89981580D01*
X91672890Y-89981580D01*
X90482414Y-89981580D02*
X90482414Y-88981580D01*
X90482414Y-89933961D02*
X90577652Y-89981580D01*
X90768128Y-89981580D01*
X90863366Y-89933961D01*
X90910985Y-89886342D01*
X90958604Y-89791104D01*
X90958604Y-89505390D01*
X90910985Y-89410152D01*
X90863366Y-89362533D01*
X90768128Y-89314914D01*
X90577652Y-89314914D01*
X90482414Y-89362533D01*
X89625271Y-89933961D02*
X89720509Y-89981580D01*
X89910985Y-89981580D01*
X90006223Y-89933961D01*
X90053842Y-89838723D01*
X90053842Y-89457771D01*
X90006223Y-89362533D01*
X89910985Y-89314914D01*
X89720509Y-89314914D01*
X89625271Y-89362533D01*
X89577652Y-89457771D01*
X89577652Y-89553009D01*
X90053842Y-89648247D01*
X89006223Y-89981580D02*
X89101461Y-89933961D01*
X89149080Y-89838723D01*
X89149080Y-88981580D01*
X88625271Y-89886342D02*
X88577652Y-89933961D01*
X88625271Y-89981580D01*
X88672890Y-89933961D01*
X88625271Y-89886342D01*
X88625271Y-89981580D01*
X88625271Y-89362533D02*
X88577652Y-89410152D01*
X88625271Y-89457771D01*
X88672890Y-89410152D01*
X88625271Y-89362533D01*
X88625271Y-89457771D01*
X87387176Y-89981580D02*
X87387176Y-88981580D01*
X87387176Y-89457771D02*
X86815747Y-89457771D01*
X86815747Y-89981580D02*
X86815747Y-88981580D01*
X86434795Y-88981580D02*
X85768128Y-88981580D01*
X86434795Y-89981580D01*
X85768128Y-89981580D01*
X84910985Y-89981580D02*
X85387176Y-89981580D01*
X85387176Y-88981580D01*
X84577652Y-89981580D02*
X84577652Y-88981580D01*
X84339557Y-88981580D01*
X84196700Y-89029200D01*
X84101461Y-89124438D01*
X84053842Y-89219676D01*
X84006223Y-89410152D01*
X84006223Y-89553009D01*
X84053842Y-89743485D01*
X84101461Y-89838723D01*
X84196700Y-89933961D01*
X84339557Y-89981580D01*
X84577652Y-89981580D01*
X83101461Y-89981580D02*
X83577652Y-89981580D01*
X83577652Y-88981580D01*
X82244319Y-89981580D02*
X82815747Y-89981580D01*
X82530033Y-89981580D02*
X82530033Y-88981580D01*
X82625271Y-89124438D01*
X82720509Y-89219676D01*
X82815747Y-89267295D01*
X81863366Y-89695866D02*
X81387176Y-89695866D01*
X81958604Y-89981580D02*
X81625271Y-88981580D01*
X81291938Y-89981580D01*
D11*
%TO.C,U2*%
X68671800Y-95210200D02*
X68671800Y-92760200D01*
X71891800Y-93410200D02*
X71891800Y-95210200D01*
%TO.C,U7*%
X86369800Y-93410200D02*
X86369800Y-95210200D01*
X83149800Y-95210200D02*
X83149800Y-92760200D01*
D12*
%TO.C,J9*%
X101478960Y-117943340D02*
X97778960Y-117943340D01*
X101478960Y-121543340D02*
X101478960Y-117943340D01*
X100828960Y-121543340D02*
X98428960Y-121543340D01*
X97778960Y-117943340D02*
X97778960Y-121543340D01*
D13*
X100478960Y-117566340D02*
G75*
G03*
X100478960Y-117566340I-100000J0D01*
G01*
D12*
%TO.C,J16*%
X85811640Y-77371020D02*
X82671640Y-77371020D01*
X86591640Y-73371020D02*
X86591640Y-75901020D01*
X86591640Y-73371020D02*
X81891640Y-73371020D01*
X81891640Y-73371020D02*
X81891640Y-75901020D01*
D14*
X85891640Y-72921020D02*
G75*
G03*
X85891640Y-72921020I-50000J0D01*
G01*
D11*
%TO.C,U4*%
X74259800Y-95210200D02*
X74259800Y-92760200D01*
X77479800Y-93410200D02*
X77479800Y-95210200D01*
%TO.C,P6*%
G36*
X94610946Y-84064865D02*
G01*
X94654937Y-84069095D01*
X94658560Y-84349486D01*
X94658854Y-84374286D01*
X94659441Y-84456899D01*
X94659372Y-84529701D01*
X94658687Y-84588460D01*
X94657428Y-84628948D01*
X94655637Y-84646933D01*
X94647086Y-84656618D01*
X94621936Y-84663989D01*
X94618218Y-84663904D01*
X94609768Y-84661696D01*
X94603617Y-84653829D01*
X94599381Y-84636789D01*
X94596680Y-84607064D01*
X94595131Y-84561141D01*
X94594352Y-84495506D01*
X94593962Y-84406647D01*
X94593146Y-84149305D01*
X94508009Y-84326437D01*
X94475659Y-84392998D01*
X94450308Y-84442423D01*
X94431304Y-84474585D01*
X94416202Y-84493092D01*
X94402555Y-84501550D01*
X94387918Y-84503568D01*
X94373916Y-84501757D01*
X94360274Y-84493671D01*
X94345284Y-84475703D01*
X94326500Y-84444246D01*
X94301476Y-84395692D01*
X94267766Y-84326437D01*
X94182567Y-84149305D01*
X94181463Y-84406647D01*
X94180358Y-84663989D01*
X94113516Y-84663989D01*
X94113516Y-84062411D01*
X94158669Y-84062411D01*
X94161270Y-84062438D01*
X94195333Y-84067640D01*
X94216380Y-84079121D01*
X94218386Y-84082242D01*
X94231267Y-84106521D01*
X94252072Y-84148686D01*
X94278401Y-84203806D01*
X94307853Y-84266955D01*
X94386768Y-84438078D01*
X94476861Y-84249357D01*
X94566955Y-84060636D01*
X94610946Y-84064865D01*
G37*
D15*
X94610946Y-84064865D02*
X94654937Y-84069095D01*
X94658560Y-84349486D01*
X94658854Y-84374286D01*
X94659441Y-84456899D01*
X94659372Y-84529701D01*
X94658687Y-84588460D01*
X94657428Y-84628948D01*
X94655637Y-84646933D01*
X94647086Y-84656618D01*
X94621936Y-84663989D01*
X94618218Y-84663904D01*
X94609768Y-84661696D01*
X94603617Y-84653829D01*
X94599381Y-84636789D01*
X94596680Y-84607064D01*
X94595131Y-84561141D01*
X94594352Y-84495506D01*
X94593962Y-84406647D01*
X94593146Y-84149305D01*
X94508009Y-84326437D01*
X94475659Y-84392998D01*
X94450308Y-84442423D01*
X94431304Y-84474585D01*
X94416202Y-84493092D01*
X94402555Y-84501550D01*
X94387918Y-84503568D01*
X94373916Y-84501757D01*
X94360274Y-84493671D01*
X94345284Y-84475703D01*
X94326500Y-84444246D01*
X94301476Y-84395692D01*
X94267766Y-84326437D01*
X94182567Y-84149305D01*
X94181463Y-84406647D01*
X94180358Y-84663989D01*
X94113516Y-84663989D01*
X94113516Y-84062411D01*
X94158669Y-84062411D01*
X94161270Y-84062438D01*
X94195333Y-84067640D01*
X94216380Y-84079121D01*
X94218386Y-84082242D01*
X94231267Y-84106521D01*
X94252072Y-84148686D01*
X94278401Y-84203806D01*
X94307853Y-84266955D01*
X94386768Y-84438078D01*
X94476861Y-84249357D01*
X94566955Y-84060636D01*
X94610946Y-84064865D01*
G36*
X95196358Y-84095516D02*
G01*
X95195986Y-84107557D01*
X95191403Y-84119892D01*
X95176981Y-84126356D01*
X95147090Y-84128844D01*
X95096095Y-84129253D01*
X94995832Y-84129253D01*
X94995832Y-84665849D01*
X94965753Y-84661577D01*
X94958764Y-84660391D01*
X94950227Y-84656551D01*
X94944003Y-84647155D01*
X94939647Y-84628671D01*
X94936718Y-84597572D01*
X94934770Y-84550326D01*
X94933362Y-84483405D01*
X94932049Y-84393279D01*
X94928425Y-84129253D01*
X94827514Y-84129253D01*
X94795195Y-84129145D01*
X94757008Y-84127754D01*
X94737127Y-84123406D01*
X94730200Y-84114434D01*
X94730876Y-84099174D01*
X94731058Y-84097910D01*
X94733593Y-84087340D01*
X94740150Y-84079653D01*
X94754515Y-84074306D01*
X94780472Y-84070754D01*
X94821807Y-84068455D01*
X94882306Y-84066864D01*
X94965753Y-84065437D01*
X95196358Y-84061780D01*
X95196358Y-84095516D01*
G37*
X95196358Y-84095516D02*
X95195986Y-84107557D01*
X95191403Y-84119892D01*
X95176981Y-84126356D01*
X95147090Y-84128844D01*
X95096095Y-84129253D01*
X94995832Y-84129253D01*
X94995832Y-84665849D01*
X94965753Y-84661577D01*
X94958764Y-84660391D01*
X94950227Y-84656551D01*
X94944003Y-84647155D01*
X94939647Y-84628671D01*
X94936718Y-84597572D01*
X94934770Y-84550326D01*
X94933362Y-84483405D01*
X94932049Y-84393279D01*
X94928425Y-84129253D01*
X94827514Y-84129253D01*
X94795195Y-84129145D01*
X94757008Y-84127754D01*
X94737127Y-84123406D01*
X94730200Y-84114434D01*
X94730876Y-84099174D01*
X94731058Y-84097910D01*
X94733593Y-84087340D01*
X94740150Y-84079653D01*
X94754515Y-84074306D01*
X94780472Y-84070754D01*
X94821807Y-84068455D01*
X94882306Y-84066864D01*
X94965753Y-84065437D01*
X95196358Y-84061780D01*
X95196358Y-84095516D01*
G36*
X102254885Y-88380411D02*
G01*
X101733516Y-88380411D01*
X101733516Y-85678784D01*
X100954806Y-85682979D01*
X100925120Y-85683142D01*
X100758114Y-85684192D01*
X100615625Y-85685370D01*
X100495744Y-85686728D01*
X100396563Y-85688318D01*
X100316174Y-85690193D01*
X100252668Y-85692406D01*
X100204137Y-85695008D01*
X100168672Y-85698053D01*
X100144364Y-85701592D01*
X100129306Y-85705679D01*
X100109102Y-85714182D01*
X100045047Y-85751682D01*
X99998417Y-85800956D01*
X99965695Y-85866693D01*
X99943365Y-85953579D01*
X99942554Y-85958857D01*
X99939639Y-85995026D01*
X99937075Y-86056346D01*
X99934860Y-86143015D01*
X99932993Y-86255231D01*
X99931470Y-86393192D01*
X99930289Y-86557096D01*
X99929449Y-86747141D01*
X99928946Y-86963524D01*
X99928779Y-87206445D01*
X99928779Y-88380411D01*
X99406383Y-88380411D01*
X99410706Y-87120437D01*
X99411106Y-87005576D01*
X99411852Y-86805885D01*
X99412604Y-86630345D01*
X99413398Y-86477257D01*
X99414271Y-86344923D01*
X99415258Y-86231646D01*
X99416395Y-86135729D01*
X99417719Y-86055474D01*
X99419266Y-85989184D01*
X99421072Y-85935161D01*
X99423173Y-85891707D01*
X99425605Y-85857125D01*
X99428404Y-85829718D01*
X99431607Y-85807788D01*
X99435249Y-85789637D01*
X99439367Y-85773568D01*
X99455569Y-85720453D01*
X99509797Y-85589232D01*
X99579316Y-85478317D01*
X99665241Y-85386857D01*
X99768689Y-85314004D01*
X99890777Y-85258908D01*
X100032622Y-85220720D01*
X100195338Y-85198591D01*
X100200272Y-85198207D01*
X100248073Y-85195695D01*
X100318838Y-85193349D01*
X100409283Y-85191218D01*
X100516120Y-85189354D01*
X100636066Y-85187806D01*
X100765835Y-85186626D01*
X100902142Y-85185863D01*
X101041700Y-85185569D01*
X101733516Y-85185358D01*
X101733516Y-84062411D01*
X102254885Y-84062411D01*
X102254885Y-88380411D01*
G37*
X102254885Y-88380411D02*
X101733516Y-88380411D01*
X101733516Y-85678784D01*
X100954806Y-85682979D01*
X100925120Y-85683142D01*
X100758114Y-85684192D01*
X100615625Y-85685370D01*
X100495744Y-85686728D01*
X100396563Y-85688318D01*
X100316174Y-85690193D01*
X100252668Y-85692406D01*
X100204137Y-85695008D01*
X100168672Y-85698053D01*
X100144364Y-85701592D01*
X100129306Y-85705679D01*
X100109102Y-85714182D01*
X100045047Y-85751682D01*
X99998417Y-85800956D01*
X99965695Y-85866693D01*
X99943365Y-85953579D01*
X99942554Y-85958857D01*
X99939639Y-85995026D01*
X99937075Y-86056346D01*
X99934860Y-86143015D01*
X99932993Y-86255231D01*
X99931470Y-86393192D01*
X99930289Y-86557096D01*
X99929449Y-86747141D01*
X99928946Y-86963524D01*
X99928779Y-87206445D01*
X99928779Y-88380411D01*
X99406383Y-88380411D01*
X99410706Y-87120437D01*
X99411106Y-87005576D01*
X99411852Y-86805885D01*
X99412604Y-86630345D01*
X99413398Y-86477257D01*
X99414271Y-86344923D01*
X99415258Y-86231646D01*
X99416395Y-86135729D01*
X99417719Y-86055474D01*
X99419266Y-85989184D01*
X99421072Y-85935161D01*
X99423173Y-85891707D01*
X99425605Y-85857125D01*
X99428404Y-85829718D01*
X99431607Y-85807788D01*
X99435249Y-85789637D01*
X99439367Y-85773568D01*
X99455569Y-85720453D01*
X99509797Y-85589232D01*
X99579316Y-85478317D01*
X99665241Y-85386857D01*
X99768689Y-85314004D01*
X99890777Y-85258908D01*
X100032622Y-85220720D01*
X100195338Y-85198591D01*
X100200272Y-85198207D01*
X100248073Y-85195695D01*
X100318838Y-85193349D01*
X100409283Y-85191218D01*
X100516120Y-85189354D01*
X100636066Y-85187806D01*
X100765835Y-85186626D01*
X100902142Y-85185863D01*
X101041700Y-85185569D01*
X101733516Y-85185358D01*
X101733516Y-84062411D01*
X102254885Y-84062411D01*
X102254885Y-88380411D01*
G36*
X98801595Y-85160173D02*
G01*
X98905783Y-85161867D01*
X99000580Y-85164531D01*
X99080977Y-85168159D01*
X99141968Y-85172743D01*
X99189550Y-85179057D01*
X99258697Y-85191810D01*
X99330938Y-85208254D01*
X99400378Y-85226788D01*
X99461120Y-85245810D01*
X99507267Y-85263719D01*
X99532925Y-85278914D01*
X99532530Y-85291113D01*
X99516891Y-85318480D01*
X99487697Y-85354987D01*
X99441739Y-85415958D01*
X99394039Y-85497421D01*
X99353466Y-85585049D01*
X99325480Y-85668295D01*
X99320533Y-85686858D01*
X99309804Y-85716925D01*
X99298015Y-85728295D01*
X99281010Y-85726396D01*
X99276235Y-85724869D01*
X99237205Y-85712699D01*
X99202048Y-85702928D01*
X99167363Y-85695321D01*
X99129748Y-85689641D01*
X99085803Y-85685655D01*
X99032127Y-85683127D01*
X98965319Y-85681821D01*
X98881978Y-85681502D01*
X98778704Y-85681934D01*
X98652095Y-85682884D01*
X98536237Y-85683866D01*
X98433919Y-85684942D01*
X98352698Y-85686215D01*
X98289643Y-85687871D01*
X98241822Y-85690099D01*
X98206305Y-85693087D01*
X98180159Y-85697021D01*
X98160456Y-85702090D01*
X98144262Y-85708480D01*
X98128648Y-85716380D01*
X98092554Y-85738763D01*
X98037125Y-85793736D01*
X98001367Y-85865352D01*
X97999939Y-85871227D01*
X97997085Y-85894214D01*
X97994503Y-85932315D01*
X97992173Y-85986694D01*
X97990077Y-86058513D01*
X97988197Y-86148934D01*
X97986511Y-86259118D01*
X97985003Y-86390229D01*
X97983652Y-86543427D01*
X97982439Y-86719876D01*
X97981346Y-86920738D01*
X97980353Y-87147174D01*
X97975470Y-88380411D01*
X97416445Y-88380411D01*
X97412191Y-87153858D01*
X97411351Y-86935306D01*
X97410408Y-86738383D01*
X97409351Y-86565575D01*
X97408159Y-86415563D01*
X97406811Y-86287026D01*
X97405284Y-86178642D01*
X97403557Y-86089090D01*
X97401609Y-86017050D01*
X97399416Y-85961201D01*
X97396959Y-85920222D01*
X97394214Y-85892791D01*
X97391160Y-85877589D01*
X97371168Y-85832989D01*
X97319823Y-85766965D01*
X97250071Y-85716166D01*
X97245383Y-85713679D01*
X97230569Y-85706499D01*
X97214478Y-85700720D01*
X97194281Y-85696188D01*
X97167149Y-85692753D01*
X97130252Y-85690263D01*
X97080764Y-85688566D01*
X97015854Y-85687511D01*
X96932693Y-85686945D01*
X96828453Y-85686716D01*
X96700306Y-85686674D01*
X96575818Y-85686793D01*
X96457191Y-85687444D01*
X96360220Y-85689014D01*
X96282201Y-85691889D01*
X96220433Y-85696454D01*
X96172214Y-85703094D01*
X96134841Y-85712197D01*
X96105612Y-85724146D01*
X96081824Y-85739328D01*
X96060776Y-85758128D01*
X96039766Y-85780932D01*
X96030666Y-85791200D01*
X96017261Y-85806579D01*
X96005478Y-85821797D01*
X95995205Y-85838535D01*
X95986333Y-85858475D01*
X95978751Y-85883297D01*
X95972348Y-85914683D01*
X95967014Y-85954314D01*
X95962637Y-86003870D01*
X95959108Y-86065033D01*
X95956316Y-86139484D01*
X95954149Y-86228904D01*
X95952498Y-86334974D01*
X95951252Y-86459375D01*
X95950300Y-86603788D01*
X95949531Y-86769894D01*
X95948836Y-86959375D01*
X95948103Y-87173911D01*
X95943921Y-88380411D01*
X95436083Y-88380411D01*
X95440105Y-87120437D01*
X95440615Y-86961810D01*
X95441264Y-86768666D01*
X95441905Y-86599264D01*
X95442580Y-86451882D01*
X95443331Y-86324796D01*
X95444201Y-86216284D01*
X95445231Y-86124621D01*
X95446466Y-86048085D01*
X95447946Y-85984953D01*
X95449715Y-85933501D01*
X95451815Y-85892006D01*
X95454289Y-85858744D01*
X95457179Y-85831993D01*
X95460527Y-85810029D01*
X95464376Y-85791129D01*
X95468768Y-85773570D01*
X95473747Y-85755629D01*
X95511045Y-85644401D01*
X95570273Y-85522893D01*
X95643996Y-85422019D01*
X95733602Y-85339961D01*
X95840479Y-85274898D01*
X95844625Y-85272863D01*
X95911381Y-85243032D01*
X95980248Y-85218440D01*
X96054294Y-85198720D01*
X96136583Y-85183503D01*
X96230181Y-85172419D01*
X96338154Y-85165102D01*
X96463569Y-85161181D01*
X96609490Y-85160288D01*
X96778985Y-85162055D01*
X96891740Y-85164067D01*
X96982054Y-85166206D01*
X97053169Y-85168743D01*
X97108861Y-85171958D01*
X97152908Y-85176131D01*
X97189085Y-85181542D01*
X97221170Y-85188472D01*
X97252938Y-85197200D01*
X97331071Y-85223069D01*
X97430065Y-85267808D01*
X97508635Y-85321483D01*
X97570343Y-85386714D01*
X97618756Y-85466121D01*
X97635040Y-85500169D01*
X97652352Y-85538786D01*
X97661784Y-85563016D01*
X97669598Y-85579241D01*
X97686400Y-85585459D01*
X97704958Y-85569754D01*
X97721036Y-85534188D01*
X97732451Y-85504630D01*
X97766901Y-85443732D01*
X97813548Y-85380670D01*
X97865971Y-85323708D01*
X97917743Y-85281111D01*
X97945759Y-85264175D01*
X98033782Y-85224454D01*
X98137982Y-85192831D01*
X98251043Y-85171707D01*
X98259637Y-85170681D01*
X98315025Y-85166439D01*
X98391065Y-85163201D01*
X98482749Y-85160961D01*
X98585070Y-85159713D01*
X98693021Y-85159453D01*
X98801595Y-85160173D01*
G37*
X98801595Y-85160173D02*
X98905783Y-85161867D01*
X99000580Y-85164531D01*
X99080977Y-85168159D01*
X99141968Y-85172743D01*
X99189550Y-85179057D01*
X99258697Y-85191810D01*
X99330938Y-85208254D01*
X99400378Y-85226788D01*
X99461120Y-85245810D01*
X99507267Y-85263719D01*
X99532925Y-85278914D01*
X99532530Y-85291113D01*
X99516891Y-85318480D01*
X99487697Y-85354987D01*
X99441739Y-85415958D01*
X99394039Y-85497421D01*
X99353466Y-85585049D01*
X99325480Y-85668295D01*
X99320533Y-85686858D01*
X99309804Y-85716925D01*
X99298015Y-85728295D01*
X99281010Y-85726396D01*
X99276235Y-85724869D01*
X99237205Y-85712699D01*
X99202048Y-85702928D01*
X99167363Y-85695321D01*
X99129748Y-85689641D01*
X99085803Y-85685655D01*
X99032127Y-85683127D01*
X98965319Y-85681821D01*
X98881978Y-85681502D01*
X98778704Y-85681934D01*
X98652095Y-85682884D01*
X98536237Y-85683866D01*
X98433919Y-85684942D01*
X98352698Y-85686215D01*
X98289643Y-85687871D01*
X98241822Y-85690099D01*
X98206305Y-85693087D01*
X98180159Y-85697021D01*
X98160456Y-85702090D01*
X98144262Y-85708480D01*
X98128648Y-85716380D01*
X98092554Y-85738763D01*
X98037125Y-85793736D01*
X98001367Y-85865352D01*
X97999939Y-85871227D01*
X97997085Y-85894214D01*
X97994503Y-85932315D01*
X97992173Y-85986694D01*
X97990077Y-86058513D01*
X97988197Y-86148934D01*
X97986511Y-86259118D01*
X97985003Y-86390229D01*
X97983652Y-86543427D01*
X97982439Y-86719876D01*
X97981346Y-86920738D01*
X97980353Y-87147174D01*
X97975470Y-88380411D01*
X97416445Y-88380411D01*
X97412191Y-87153858D01*
X97411351Y-86935306D01*
X97410408Y-86738383D01*
X97409351Y-86565575D01*
X97408159Y-86415563D01*
X97406811Y-86287026D01*
X97405284Y-86178642D01*
X97403557Y-86089090D01*
X97401609Y-86017050D01*
X97399416Y-85961201D01*
X97396959Y-85920222D01*
X97394214Y-85892791D01*
X97391160Y-85877589D01*
X97371168Y-85832989D01*
X97319823Y-85766965D01*
X97250071Y-85716166D01*
X97245383Y-85713679D01*
X97230569Y-85706499D01*
X97214478Y-85700720D01*
X97194281Y-85696188D01*
X97167149Y-85692753D01*
X97130252Y-85690263D01*
X97080764Y-85688566D01*
X97015854Y-85687511D01*
X96932693Y-85686945D01*
X96828453Y-85686716D01*
X96700306Y-85686674D01*
X96575818Y-85686793D01*
X96457191Y-85687444D01*
X96360220Y-85689014D01*
X96282201Y-85691889D01*
X96220433Y-85696454D01*
X96172214Y-85703094D01*
X96134841Y-85712197D01*
X96105612Y-85724146D01*
X96081824Y-85739328D01*
X96060776Y-85758128D01*
X96039766Y-85780932D01*
X96030666Y-85791200D01*
X96017261Y-85806579D01*
X96005478Y-85821797D01*
X95995205Y-85838535D01*
X95986333Y-85858475D01*
X95978751Y-85883297D01*
X95972348Y-85914683D01*
X95967014Y-85954314D01*
X95962637Y-86003870D01*
X95959108Y-86065033D01*
X95956316Y-86139484D01*
X95954149Y-86228904D01*
X95952498Y-86334974D01*
X95951252Y-86459375D01*
X95950300Y-86603788D01*
X95949531Y-86769894D01*
X95948836Y-86959375D01*
X95948103Y-87173911D01*
X95943921Y-88380411D01*
X95436083Y-88380411D01*
X95440105Y-87120437D01*
X95440615Y-86961810D01*
X95441264Y-86768666D01*
X95441905Y-86599264D01*
X95442580Y-86451882D01*
X95443331Y-86324796D01*
X95444201Y-86216284D01*
X95445231Y-86124621D01*
X95446466Y-86048085D01*
X95447946Y-85984953D01*
X95449715Y-85933501D01*
X95451815Y-85892006D01*
X95454289Y-85858744D01*
X95457179Y-85831993D01*
X95460527Y-85810029D01*
X95464376Y-85791129D01*
X95468768Y-85773570D01*
X95473747Y-85755629D01*
X95511045Y-85644401D01*
X95570273Y-85522893D01*
X95643996Y-85422019D01*
X95733602Y-85339961D01*
X95840479Y-85274898D01*
X95844625Y-85272863D01*
X95911381Y-85243032D01*
X95980248Y-85218440D01*
X96054294Y-85198720D01*
X96136583Y-85183503D01*
X96230181Y-85172419D01*
X96338154Y-85165102D01*
X96463569Y-85161181D01*
X96609490Y-85160288D01*
X96778985Y-85162055D01*
X96891740Y-85164067D01*
X96982054Y-85166206D01*
X97053169Y-85168743D01*
X97108861Y-85171958D01*
X97152908Y-85176131D01*
X97189085Y-85181542D01*
X97221170Y-85188472D01*
X97252938Y-85197200D01*
X97331071Y-85223069D01*
X97430065Y-85267808D01*
X97508635Y-85321483D01*
X97570343Y-85386714D01*
X97618756Y-85466121D01*
X97635040Y-85500169D01*
X97652352Y-85538786D01*
X97661784Y-85563016D01*
X97669598Y-85579241D01*
X97686400Y-85585459D01*
X97704958Y-85569754D01*
X97721036Y-85534188D01*
X97732451Y-85504630D01*
X97766901Y-85443732D01*
X97813548Y-85380670D01*
X97865971Y-85323708D01*
X97917743Y-85281111D01*
X97945759Y-85264175D01*
X98033782Y-85224454D01*
X98137982Y-85192831D01*
X98251043Y-85171707D01*
X98259637Y-85170681D01*
X98315025Y-85166439D01*
X98391065Y-85163201D01*
X98482749Y-85160961D01*
X98585070Y-85159713D01*
X98693021Y-85159453D01*
X98801595Y-85160173D01*
D11*
%TO.C,J11*%
X84444960Y-116788340D02*
X91444960Y-116788340D01*
X84444960Y-115728340D02*
X91444960Y-115728340D01*
X91444960Y-112988340D02*
X92494960Y-112988340D01*
X84444960Y-115728340D02*
X84444960Y-112988340D01*
X91444960Y-114348340D02*
X91444960Y-116788340D01*
X92494960Y-112988340D02*
X92494960Y-114348340D01*
X92494960Y-114348340D02*
X91444960Y-114348340D01*
X83394960Y-114348340D02*
X84444960Y-114348340D01*
X84444960Y-112988340D02*
X83394960Y-112988340D01*
X84444960Y-114348340D02*
X84444960Y-116788340D01*
X83394960Y-112988340D02*
X83394960Y-114348340D01*
X91444960Y-115728340D02*
X91444960Y-112988340D01*
X84734961Y-117268340D02*
G75*
G03*
X84734961Y-117268340I-53852J0D01*
G01*
%TO.C,J2*%
X96843360Y-92150260D02*
X94343360Y-92150260D01*
X98813360Y-93320260D02*
X98813360Y-95200260D01*
X94343360Y-96370260D02*
X94343360Y-95320260D01*
X94343360Y-92150260D02*
X94343360Y-93200260D01*
X94343360Y-93200260D02*
X93353360Y-93200260D01*
X96843360Y-96370260D02*
X94343360Y-96370260D01*
D13*
%TO.C,Q1*%
X91798000Y-93508600D02*
G75*
G03*
X91798000Y-93508600I-50000J0D01*
G01*
%TD*%
D16*
X73797160Y-110500160D03*
D17*
X76298140Y-113339320D03*
D16*
X78975550Y-115590642D03*
X109463840Y-116850160D03*
D18*
X107492042Y-110970060D03*
D17*
X82679540Y-74635360D03*
X72015500Y-95015500D03*
X86627525Y-86537792D03*
X100328357Y-121920011D03*
X88491689Y-90787736D03*
X100553337Y-116203230D03*
X80981202Y-88214700D03*
X86751160Y-116969540D03*
X97267061Y-105020721D03*
X100975160Y-114099340D03*
X79156982Y-91999222D03*
X102133400Y-91389200D03*
X85500000Y-76700000D03*
X99356262Y-117874188D03*
X91690734Y-93248234D03*
X96995953Y-121643790D03*
X96301560Y-105486200D03*
X88623570Y-115431645D03*
D16*
X76078651Y-91857213D03*
D17*
X98247200Y-91389200D03*
X90908243Y-117702730D03*
X84993766Y-113316734D03*
D16*
X95021400Y-83223100D03*
D17*
X93682077Y-112894185D03*
X100838000Y-91389200D03*
X81499115Y-77102619D03*
X87300313Y-81437590D03*
X83860457Y-89777531D03*
X70269100Y-92351350D03*
X99542600Y-91389200D03*
X93522579Y-95703795D03*
X91932760Y-121668540D03*
X82402569Y-82911271D03*
X88350774Y-85656238D03*
X86507320Y-89984580D03*
X95315344Y-113410350D03*
X100111560Y-117629940D03*
X78298140Y-114339320D03*
X77826664Y-112507270D03*
D16*
X105961180Y-110238540D03*
X108424980Y-112798860D03*
X85613403Y-91721097D03*
D17*
X90891360Y-121668540D03*
X88072528Y-86486487D03*
D16*
X69334378Y-94338140D03*
D17*
X74173080Y-94866460D03*
X87914480Y-88508840D03*
X94488000Y-104775000D03*
X94457519Y-105664000D03*
X93247381Y-113352751D03*
X94472615Y-95660351D03*
D16*
X85156213Y-85623651D03*
D17*
X92847160Y-121617740D03*
X78613000Y-109727988D03*
X98892360Y-113540540D03*
X77754897Y-91100057D03*
D16*
X84769960Y-115369340D03*
D17*
X83911440Y-87708740D03*
D16*
X83045195Y-92436208D03*
D17*
X91359010Y-117163910D03*
X94142570Y-113317537D03*
X75872340Y-94096840D03*
X87599520Y-118798340D03*
D16*
X83058421Y-76550861D03*
X85855850Y-84739214D03*
X77330300Y-84927440D03*
X76206885Y-87855638D03*
X76403268Y-90262927D03*
X77431900Y-94513400D03*
D17*
X87847989Y-90074100D03*
D16*
X92633800Y-95123000D03*
D17*
X89077800Y-95808800D03*
D16*
X82677000Y-95631000D03*
D18*
X96072960Y-114099340D03*
D17*
X95971360Y-112981740D03*
X93018953Y-119157130D03*
X95801194Y-117897235D03*
X96277825Y-118176487D03*
X100028972Y-114339070D03*
X99982171Y-113568404D03*
X97160730Y-115843322D03*
X91619818Y-119302121D03*
X96684418Y-119010374D03*
X99118420Y-120469662D03*
X99120960Y-121973340D03*
X96084726Y-118765355D03*
X100330000Y-120142000D03*
X101279960Y-119306340D03*
X88960960Y-121719340D03*
X88963500Y-119072660D03*
X93586232Y-118888084D03*
X90009468Y-119583886D03*
X80856470Y-91265648D03*
D16*
X86417708Y-91211016D03*
X81726017Y-73949937D03*
X83506719Y-86210647D03*
D17*
X85181734Y-91042754D03*
X79936340Y-91607640D03*
X82214495Y-86210647D03*
X81862892Y-91160600D03*
X84675967Y-85037124D03*
X71631412Y-94317089D03*
X88039127Y-87037888D03*
X87756740Y-83819921D03*
X72052180Y-92351350D03*
X73492360Y-92364050D03*
X85227508Y-89980754D03*
X97389989Y-91143989D03*
X83831939Y-90988046D03*
X74599800Y-92250256D03*
X96833773Y-91137911D03*
X95532398Y-118774936D03*
X94377716Y-121643790D03*
X89032364Y-117971303D03*
X94133515Y-119157627D03*
X94685683Y-119141215D03*
X91294268Y-118855829D03*
X91943852Y-118846569D03*
X90693535Y-118699515D03*
X94779140Y-92779727D03*
X95076553Y-91082480D03*
X88434383Y-91528321D03*
X90603190Y-88493600D03*
X86768214Y-91957091D03*
X92982221Y-88771883D03*
X87974930Y-91221627D03*
X90148805Y-91207073D03*
X93758934Y-88338012D03*
X84033092Y-92158827D03*
X93362130Y-91192806D03*
X85037903Y-92205786D03*
X89291594Y-91277627D03*
X90068317Y-88977911D03*
X89017490Y-92248841D03*
X90616294Y-89047772D03*
X86048230Y-83372388D03*
X88285100Y-83981152D03*
X75903399Y-85871477D03*
D18*
X91835729Y-91241835D03*
X91031800Y-91247700D03*
D17*
X75897614Y-86485810D03*
X96635687Y-91997770D03*
X95976562Y-91175035D03*
X95305880Y-92989400D03*
X95536044Y-88672819D03*
X90446886Y-86896579D03*
X83919060Y-88697450D03*
X78397099Y-89598500D03*
X90398600Y-85115400D03*
X77637534Y-90550184D03*
X82542431Y-90899408D03*
X90298379Y-84034510D03*
X92880180Y-92870020D03*
X92982221Y-83940217D03*
X85958865Y-85491483D03*
X82019779Y-88729610D03*
X82691128Y-85566410D03*
X84005988Y-84996587D03*
X93809899Y-91975137D03*
X94220058Y-89184010D03*
X94219342Y-91225417D03*
X95077269Y-89072150D03*
D16*
X77135124Y-89158936D03*
X70167398Y-96461580D03*
D17*
X97421700Y-88900000D03*
X70089987Y-95544640D03*
X74692862Y-93967662D03*
X90020790Y-85725000D03*
X74917300Y-96520000D03*
X96021510Y-88952363D03*
D16*
X78300457Y-85206503D03*
X78219300Y-83732084D03*
D17*
X77208380Y-113680240D03*
X77198140Y-110939320D03*
X90316958Y-113945340D03*
X100191264Y-115786023D03*
X99186611Y-115329915D03*
X85911093Y-113794140D03*
X89633833Y-113740305D03*
X89081422Y-113740407D03*
X88041024Y-116970652D03*
X99189637Y-114777512D03*
X88672284Y-116945864D03*
X87928381Y-113716730D03*
X88244794Y-113263914D03*
X87130989Y-113131951D03*
X85664871Y-114728072D03*
X91169340Y-113908733D03*
X90340454Y-114527991D03*
X86063769Y-115110223D03*
X85506560Y-115547140D03*
X90008368Y-114969441D03*
X90473612Y-115267296D03*
X85172790Y-117023910D03*
D18*
X86398851Y-74577408D03*
X86094042Y-73820020D03*
D17*
X86151720Y-72495620D03*
X109199680Y-114607340D03*
X87516960Y-117145340D03*
X99458176Y-116509727D03*
X99771200Y-121691400D03*
X100414781Y-119197667D03*
X78435348Y-92280991D03*
X86375678Y-87997826D03*
X72212200Y-96494600D03*
X92399731Y-82796769D03*
X91028760Y-94894160D03*
D16*
X74345800Y-89782200D03*
X74345800Y-82582200D03*
X73695800Y-88982200D03*
X72995800Y-88582200D03*
X72995800Y-87782200D03*
X73695800Y-87382200D03*
X72995800Y-86982200D03*
X73695800Y-86582200D03*
X73695800Y-85782200D03*
X72995800Y-85382200D03*
X73695800Y-84982200D03*
X72995800Y-84582200D03*
X72995800Y-83782200D03*
X73695800Y-83382200D03*
D19*
X72945800Y-81582200D03*
X72945800Y-90782200D03*
X69945800Y-81582200D03*
X69945800Y-90782200D03*
D16*
X116713000Y-113538000D03*
X85227160Y-120042940D03*
X80594200Y-93929200D03*
X67818000Y-113538000D03*
D20*
X75846940Y-110954820D03*
X108752640Y-110970060D03*
D16*
X99568000Y-137668000D03*
%LPC*%
%TO.C,Q1*%
G36*
X92249096Y-94558600D02*
G01*
X91648000Y-94558600D01*
X91648000Y-94308964D01*
X92249096Y-94308964D01*
X92249096Y-94558600D01*
G37*
D15*
X92249096Y-94558600D02*
X91648000Y-94558600D01*
X91648000Y-94308964D01*
X92249096Y-94308964D01*
X92249096Y-94558600D01*
G36*
X92248737Y-94208600D02*
G01*
X91998000Y-94208600D01*
X91998000Y-93857742D01*
X92248737Y-93857742D01*
X92248737Y-94208600D01*
G37*
X92248737Y-94208600D02*
X91998000Y-94208600D01*
X91998000Y-93857742D01*
X92248737Y-93857742D01*
X92248737Y-94208600D01*
G36*
X91897851Y-94208600D02*
G01*
X91648000Y-94208600D01*
X91648000Y-93857548D01*
X91897851Y-93857548D01*
X91897851Y-94208600D01*
G37*
X91897851Y-94208600D02*
X91648000Y-94208600D01*
X91648000Y-93857548D01*
X91897851Y-93857548D01*
X91897851Y-94208600D01*
%TD*%
D21*
%TO.C,J1*%
X74345800Y-89782200D03*
X74345800Y-82582200D03*
D22*
X73695800Y-88982200D03*
X72995800Y-88582200D03*
X72995800Y-87782200D03*
X73695800Y-87382200D03*
X72995800Y-86982200D03*
X73695800Y-86582200D03*
X73695800Y-85782200D03*
X72995800Y-85382200D03*
X73695800Y-84982200D03*
X72995800Y-84582200D03*
X72995800Y-83782200D03*
X73695800Y-83382200D03*
D23*
X72945800Y-81582200D03*
X72945800Y-90782200D03*
X69945800Y-81582200D03*
X69945800Y-90782200D03*
%TD*%
D24*
%TO.C,J6*%
X116713000Y-113538000D03*
%TD*%
D25*
%TO.C,J19*%
X85227160Y-120042940D03*
%TD*%
%TO.C,J20*%
X80594200Y-93929200D03*
%TD*%
D24*
%TO.C,J7*%
X67818000Y-113538000D03*
%TD*%
D26*
%TO.C,MIC1*%
X75846940Y-110954820D03*
%TD*%
%TO.C,MIC2*%
X108752640Y-110970060D03*
%TD*%
D24*
%TO.C,J18*%
X99568000Y-137668000D03*
%TD*%
D27*
%TO.C,C3*%
X73560800Y-93091000D03*
X72590800Y-93091000D03*
%TD*%
D28*
%TO.C,R4*%
X87399000Y-93599000D03*
X88369000Y-93599000D03*
%TD*%
D29*
%TO.C,U2*%
X69331800Y-93210200D03*
X70281800Y-93210200D03*
X71231800Y-93210200D03*
X71231800Y-95410200D03*
X69331800Y-95410200D03*
%TD*%
%TO.C,U7*%
X83809800Y-93210200D03*
X84759800Y-93210200D03*
X85709800Y-93210200D03*
X85709800Y-95410200D03*
X83809800Y-95410200D03*
%TD*%
D30*
%TO.C,C23*%
X93786960Y-117251340D03*
X93786960Y-116281340D03*
%TD*%
%TO.C,C22*%
X95056960Y-117251340D03*
X95056960Y-116281340D03*
%TD*%
%TO.C,C5*%
X93786960Y-115092340D03*
X93786960Y-114122340D03*
%TD*%
%TO.C,C8*%
X95056960Y-115092340D03*
X95056960Y-114122340D03*
%TD*%
%TO.C,C9*%
X96961960Y-115092340D03*
X96961960Y-114122340D03*
%TD*%
D31*
%TO.C,R10*%
X95945960Y-119837340D03*
X95945960Y-120807340D03*
%TD*%
%TO.C,R16*%
X90865960Y-119837340D03*
X90865960Y-120807340D03*
%TD*%
%TO.C,R15*%
X92135960Y-119837340D03*
X92135960Y-120807340D03*
%TD*%
D30*
%TO.C,C10*%
X98231960Y-115092340D03*
X98231960Y-114122340D03*
%TD*%
D27*
%TO.C,C11*%
X98081960Y-113083340D03*
X97111960Y-113083340D03*
%TD*%
D32*
%TO.C,J9*%
X100378960Y-118743340D03*
X99878960Y-118743340D03*
X99378960Y-118743340D03*
X98878960Y-118743340D03*
D33*
X101168960Y-121393340D03*
X98088960Y-121393340D03*
%TD*%
D32*
%TO.C,J16*%
X85491640Y-74071020D03*
X84991640Y-74071020D03*
X84491640Y-74071020D03*
X83991640Y-74071020D03*
X83491640Y-74071020D03*
X82991640Y-74071020D03*
D33*
X86281640Y-76721020D03*
X82201640Y-76721020D03*
%TD*%
D30*
%TO.C,R9*%
X94675960Y-120807340D03*
X94675960Y-119837340D03*
%TD*%
D28*
%TO.C,C4*%
X72590800Y-94335600D03*
X73560800Y-94335600D03*
%TD*%
%TO.C,C7*%
X87399000Y-96139000D03*
X88369000Y-96139000D03*
%TD*%
D27*
%TO.C,R3*%
X88369000Y-94869000D03*
X87399000Y-94869000D03*
%TD*%
D29*
%TO.C,U4*%
X74919800Y-93210200D03*
X75869800Y-93210200D03*
X76819800Y-93210200D03*
X76819800Y-95410200D03*
X74919800Y-95410200D03*
%TD*%
D31*
%TO.C,C13*%
X98225864Y-116283880D03*
X98225864Y-117253880D03*
%TD*%
%TO.C,C14*%
X96965262Y-116283880D03*
X96965262Y-117253880D03*
%TD*%
D30*
%TO.C,C12*%
X93405960Y-120807340D03*
X93405960Y-119837340D03*
%TD*%
D28*
%TO.C,C6*%
X87399000Y-92329000D03*
X88369000Y-92329000D03*
%TD*%
D27*
%TO.C,C31*%
X73560800Y-95580200D03*
X72590800Y-95580200D03*
%TD*%
D28*
%TO.C,R1*%
X89304000Y-93599000D03*
X90274000Y-93599000D03*
%TD*%
%TO.C,R2*%
X89304000Y-94869000D03*
X90274000Y-94869000D03*
%TD*%
D34*
%TO.C,J11*%
X84694960Y-116258340D03*
X85194960Y-116258340D03*
X85694960Y-116258340D03*
X86194960Y-116258340D03*
X86694960Y-116258340D03*
X87194960Y-116258340D03*
X87694960Y-116258340D03*
X88194960Y-116258340D03*
X88694960Y-116258340D03*
X89194960Y-116258340D03*
X89694960Y-116258340D03*
X90194960Y-116258340D03*
X90694960Y-116258340D03*
X91194960Y-116258340D03*
D35*
X91984960Y-113608340D03*
X83904960Y-113608340D03*
%TD*%
D36*
%TO.C,J2*%
X94128360Y-93760260D03*
X94128360Y-94760260D03*
D37*
X98003360Y-96060260D03*
X98003360Y-92460260D03*
%TD*%
D38*
%TO.C,REF\u002A\u002A*%
X95631000Y-107696000D03*
%TD*%
M02*
