%TF.GenerationSoftware,KiCad,Pcbnew,6.0.11+dfsg-1*%
%TF.CreationDate,2026-05-20T21:14:43+00:00*%
%TF.ProjectId,Lifedatalink_v1_revB_compat,4c696665-6461-4746-916c-696e6b5f7631,rev?*%
%TF.SameCoordinates,Original*%
%TF.FileFunction,Legend,Bot*%
%TF.FilePolarity,Positive*%
%FSLAX46Y46*%
G04 Gerber Fmt 4.6, Leading zero omitted, Abs format (unit mm)*
G04 Created by KiCad (PCBNEW 6.0.11+dfsg-1) date 2026-05-20 21:14:43*
%MOMM*%
%LPD*%
G01*
G04 APERTURE LIST*
%ADD10C,0.040000*%
%ADD11C,0.080000*%
%ADD12C,0.150000*%
%ADD13C,0.015000*%
%ADD14C,0.100000*%
%ADD15C,0.127000*%
%ADD16C,0.200000*%
G04 APERTURE END LIST*
D10*
%TO.C,C24*%
X84080925Y-76766805D02*
X84069020Y-76778710D01*
X84033306Y-76790615D01*
X84009497Y-76790615D01*
X83973782Y-76778710D01*
X83949973Y-76754900D01*
X83938068Y-76731091D01*
X83926163Y-76683472D01*
X83926163Y-76647758D01*
X83938068Y-76600139D01*
X83949973Y-76576329D01*
X83973782Y-76552520D01*
X84009497Y-76540615D01*
X84033306Y-76540615D01*
X84069020Y-76552520D01*
X84080925Y-76564424D01*
X84176163Y-76564424D02*
X84188068Y-76552520D01*
X84211878Y-76540615D01*
X84271401Y-76540615D01*
X84295211Y-76552520D01*
X84307116Y-76564424D01*
X84319020Y-76588234D01*
X84319020Y-76612043D01*
X84307116Y-76647758D01*
X84164259Y-76790615D01*
X84319020Y-76790615D01*
X84533306Y-76623948D02*
X84533306Y-76790615D01*
X84473782Y-76528710D02*
X84414259Y-76707281D01*
X84569020Y-76707281D01*
%TO.C,C25*%
X85949585Y-90152914D02*
X85961490Y-90164819D01*
X85973395Y-90200533D01*
X85973395Y-90224342D01*
X85961490Y-90260057D01*
X85937680Y-90283866D01*
X85913871Y-90295771D01*
X85866252Y-90307676D01*
X85830538Y-90307676D01*
X85782919Y-90295771D01*
X85759109Y-90283866D01*
X85735300Y-90260057D01*
X85723395Y-90224342D01*
X85723395Y-90200533D01*
X85735300Y-90164819D01*
X85747204Y-90152914D01*
X85747204Y-90057676D02*
X85735300Y-90045771D01*
X85723395Y-90021961D01*
X85723395Y-89962438D01*
X85735300Y-89938628D01*
X85747204Y-89926723D01*
X85771014Y-89914819D01*
X85794823Y-89914819D01*
X85830538Y-89926723D01*
X85973395Y-90069580D01*
X85973395Y-89914819D01*
X85723395Y-89688628D02*
X85723395Y-89807676D01*
X85842442Y-89819580D01*
X85830538Y-89807676D01*
X85818633Y-89783866D01*
X85818633Y-89724342D01*
X85830538Y-89700533D01*
X85842442Y-89688628D01*
X85866252Y-89676723D01*
X85925776Y-89676723D01*
X85949585Y-89688628D01*
X85961490Y-89700533D01*
X85973395Y-89724342D01*
X85973395Y-89783866D01*
X85961490Y-89807676D01*
X85949585Y-89819580D01*
D11*
%TO.C,D1*%
X76669152Y-86662390D02*
X76669152Y-86162390D01*
X76788200Y-86162390D01*
X76859628Y-86186200D01*
X76907247Y-86233819D01*
X76931057Y-86281438D01*
X76954866Y-86376676D01*
X76954866Y-86448104D01*
X76931057Y-86543342D01*
X76907247Y-86590961D01*
X76859628Y-86638580D01*
X76788200Y-86662390D01*
X76669152Y-86662390D01*
X77431057Y-86662390D02*
X77145342Y-86662390D01*
X77288200Y-86662390D02*
X77288200Y-86162390D01*
X77240580Y-86233819D01*
X77192961Y-86281438D01*
X77145342Y-86305247D01*
%TO.C,U5*%
X95280527Y-106980230D02*
X95280527Y-107384992D01*
X95304337Y-107432611D01*
X95328146Y-107456420D01*
X95375765Y-107480230D01*
X95471003Y-107480230D01*
X95518622Y-107456420D01*
X95542432Y-107432611D01*
X95566241Y-107384992D01*
X95566241Y-106980230D01*
X96042432Y-106980230D02*
X95804337Y-106980230D01*
X95780527Y-107218325D01*
X95804337Y-107194516D01*
X95851956Y-107170706D01*
X95971003Y-107170706D01*
X96018622Y-107194516D01*
X96042432Y-107218325D01*
X96066241Y-107265944D01*
X96066241Y-107384992D01*
X96042432Y-107432611D01*
X96018622Y-107456420D01*
X95971003Y-107480230D01*
X95851956Y-107480230D01*
X95804337Y-107456420D01*
X95780527Y-107432611D01*
D12*
%TO.C,U6*%
X83632116Y-73762924D02*
X83632116Y-74410543D01*
X83670211Y-74486734D01*
X83708306Y-74524829D01*
X83784497Y-74562924D01*
X83936878Y-74562924D01*
X84013068Y-74524829D01*
X84051163Y-74486734D01*
X84089259Y-74410543D01*
X84089259Y-73762924D01*
X84813068Y-73762924D02*
X84660687Y-73762924D01*
X84584497Y-73801020D01*
X84546401Y-73839115D01*
X84470211Y-73953400D01*
X84432116Y-74105781D01*
X84432116Y-74410543D01*
X84470211Y-74486734D01*
X84508306Y-74524829D01*
X84584497Y-74562924D01*
X84736878Y-74562924D01*
X84813068Y-74524829D01*
X84851163Y-74486734D01*
X84889259Y-74410543D01*
X84889259Y-74220067D01*
X84851163Y-74143877D01*
X84813068Y-74105781D01*
X84736878Y-74067686D01*
X84584497Y-74067686D01*
X84508306Y-74105781D01*
X84470211Y-74143877D01*
X84432116Y-74220067D01*
D10*
%TO.C,R14*%
X100230245Y-118657435D02*
X100146912Y-118538387D01*
X100087388Y-118657435D02*
X100087388Y-118407435D01*
X100182626Y-118407435D01*
X100206436Y-118419340D01*
X100218340Y-118431244D01*
X100230245Y-118455054D01*
X100230245Y-118490768D01*
X100218340Y-118514578D01*
X100206436Y-118526482D01*
X100182626Y-118538387D01*
X100087388Y-118538387D01*
X100468340Y-118657435D02*
X100325483Y-118657435D01*
X100396912Y-118657435D02*
X100396912Y-118407435D01*
X100373102Y-118443149D01*
X100349293Y-118466959D01*
X100325483Y-118478863D01*
X100682626Y-118490768D02*
X100682626Y-118657435D01*
X100623102Y-118395530D02*
X100563579Y-118574101D01*
X100718340Y-118574101D01*
%TO.C,C16*%
X98575245Y-120610054D02*
X98587150Y-120621959D01*
X98599055Y-120657673D01*
X98599055Y-120681482D01*
X98587150Y-120717197D01*
X98563340Y-120741006D01*
X98539531Y-120752911D01*
X98491912Y-120764816D01*
X98456198Y-120764816D01*
X98408579Y-120752911D01*
X98384769Y-120741006D01*
X98360960Y-120717197D01*
X98349055Y-120681482D01*
X98349055Y-120657673D01*
X98360960Y-120621959D01*
X98372864Y-120610054D01*
X98599055Y-120371959D02*
X98599055Y-120514816D01*
X98599055Y-120443387D02*
X98349055Y-120443387D01*
X98384769Y-120467197D01*
X98408579Y-120491006D01*
X98420483Y-120514816D01*
X98349055Y-120157673D02*
X98349055Y-120205292D01*
X98360960Y-120229101D01*
X98372864Y-120241006D01*
X98408579Y-120264816D01*
X98456198Y-120276720D01*
X98551436Y-120276720D01*
X98575245Y-120264816D01*
X98587150Y-120252911D01*
X98599055Y-120229101D01*
X98599055Y-120181482D01*
X98587150Y-120157673D01*
X98575245Y-120145768D01*
X98551436Y-120133863D01*
X98491912Y-120133863D01*
X98468102Y-120145768D01*
X98456198Y-120157673D01*
X98444293Y-120181482D01*
X98444293Y-120229101D01*
X98456198Y-120252911D01*
X98468102Y-120264816D01*
X98491912Y-120276720D01*
%TO.C,C18*%
X97305245Y-120610054D02*
X97317150Y-120621959D01*
X97329055Y-120657673D01*
X97329055Y-120681482D01*
X97317150Y-120717197D01*
X97293340Y-120741006D01*
X97269531Y-120752911D01*
X97221912Y-120764816D01*
X97186198Y-120764816D01*
X97138579Y-120752911D01*
X97114769Y-120741006D01*
X97090960Y-120717197D01*
X97079055Y-120681482D01*
X97079055Y-120657673D01*
X97090960Y-120621959D01*
X97102864Y-120610054D01*
X97329055Y-120371959D02*
X97329055Y-120514816D01*
X97329055Y-120443387D02*
X97079055Y-120443387D01*
X97114769Y-120467197D01*
X97138579Y-120491006D01*
X97150483Y-120514816D01*
X97186198Y-120229101D02*
X97174293Y-120252911D01*
X97162388Y-120264816D01*
X97138579Y-120276720D01*
X97126674Y-120276720D01*
X97102864Y-120264816D01*
X97090960Y-120252911D01*
X97079055Y-120229101D01*
X97079055Y-120181482D01*
X97090960Y-120157673D01*
X97102864Y-120145768D01*
X97126674Y-120133863D01*
X97138579Y-120133863D01*
X97162388Y-120145768D01*
X97174293Y-120157673D01*
X97186198Y-120181482D01*
X97186198Y-120229101D01*
X97198102Y-120252911D01*
X97210007Y-120264816D01*
X97233817Y-120276720D01*
X97281436Y-120276720D01*
X97305245Y-120264816D01*
X97317150Y-120252911D01*
X97329055Y-120229101D01*
X97329055Y-120181482D01*
X97317150Y-120157673D01*
X97305245Y-120145768D01*
X97281436Y-120133863D01*
X97233817Y-120133863D01*
X97210007Y-120145768D01*
X97198102Y-120157673D01*
X97186198Y-120181482D01*
%TO.C,C19*%
X101115245Y-120610054D02*
X101127150Y-120621959D01*
X101139055Y-120657673D01*
X101139055Y-120681482D01*
X101127150Y-120717197D01*
X101103340Y-120741006D01*
X101079531Y-120752911D01*
X101031912Y-120764816D01*
X100996198Y-120764816D01*
X100948579Y-120752911D01*
X100924769Y-120741006D01*
X100900960Y-120717197D01*
X100889055Y-120681482D01*
X100889055Y-120657673D01*
X100900960Y-120621959D01*
X100912864Y-120610054D01*
X101139055Y-120371959D02*
X101139055Y-120514816D01*
X101139055Y-120443387D02*
X100889055Y-120443387D01*
X100924769Y-120467197D01*
X100948579Y-120491006D01*
X100960483Y-120514816D01*
X101139055Y-120252911D02*
X101139055Y-120205292D01*
X101127150Y-120181482D01*
X101115245Y-120169578D01*
X101079531Y-120145768D01*
X101031912Y-120133863D01*
X100936674Y-120133863D01*
X100912864Y-120145768D01*
X100900960Y-120157673D01*
X100889055Y-120181482D01*
X100889055Y-120229101D01*
X100900960Y-120252911D01*
X100912864Y-120264816D01*
X100936674Y-120276720D01*
X100996198Y-120276720D01*
X101020007Y-120264816D01*
X101031912Y-120252911D01*
X101043817Y-120229101D01*
X101043817Y-120181482D01*
X101031912Y-120157673D01*
X101020007Y-120145768D01*
X100996198Y-120133863D01*
%TO.C,C20*%
X99845245Y-120610054D02*
X99857150Y-120621959D01*
X99869055Y-120657673D01*
X99869055Y-120681482D01*
X99857150Y-120717197D01*
X99833340Y-120741006D01*
X99809531Y-120752911D01*
X99761912Y-120764816D01*
X99726198Y-120764816D01*
X99678579Y-120752911D01*
X99654769Y-120741006D01*
X99630960Y-120717197D01*
X99619055Y-120681482D01*
X99619055Y-120657673D01*
X99630960Y-120621959D01*
X99642864Y-120610054D01*
X99642864Y-120514816D02*
X99630960Y-120502911D01*
X99619055Y-120479101D01*
X99619055Y-120419578D01*
X99630960Y-120395768D01*
X99642864Y-120383863D01*
X99666674Y-120371959D01*
X99690483Y-120371959D01*
X99726198Y-120383863D01*
X99869055Y-120526720D01*
X99869055Y-120371959D01*
X99619055Y-120217197D02*
X99619055Y-120193387D01*
X99630960Y-120169578D01*
X99642864Y-120157673D01*
X99666674Y-120145768D01*
X99714293Y-120133863D01*
X99773817Y-120133863D01*
X99821436Y-120145768D01*
X99845245Y-120157673D01*
X99857150Y-120169578D01*
X99869055Y-120193387D01*
X99869055Y-120217197D01*
X99857150Y-120241006D01*
X99845245Y-120252911D01*
X99821436Y-120264816D01*
X99773817Y-120276720D01*
X99714293Y-120276720D01*
X99666674Y-120264816D01*
X99642864Y-120252911D01*
X99630960Y-120241006D01*
X99619055Y-120217197D01*
%TO.C,C15*%
X93495245Y-120610054D02*
X93507150Y-120621959D01*
X93519055Y-120657673D01*
X93519055Y-120681482D01*
X93507150Y-120717197D01*
X93483340Y-120741006D01*
X93459531Y-120752911D01*
X93411912Y-120764816D01*
X93376198Y-120764816D01*
X93328579Y-120752911D01*
X93304769Y-120741006D01*
X93280960Y-120717197D01*
X93269055Y-120681482D01*
X93269055Y-120657673D01*
X93280960Y-120621959D01*
X93292864Y-120610054D01*
X93519055Y-120371959D02*
X93519055Y-120514816D01*
X93519055Y-120443387D02*
X93269055Y-120443387D01*
X93304769Y-120467197D01*
X93328579Y-120491006D01*
X93340483Y-120514816D01*
X93269055Y-120145768D02*
X93269055Y-120264816D01*
X93388102Y-120276720D01*
X93376198Y-120264816D01*
X93364293Y-120241006D01*
X93364293Y-120181482D01*
X93376198Y-120157673D01*
X93388102Y-120145768D01*
X93411912Y-120133863D01*
X93471436Y-120133863D01*
X93495245Y-120145768D01*
X93507150Y-120157673D01*
X93519055Y-120181482D01*
X93519055Y-120241006D01*
X93507150Y-120264816D01*
X93495245Y-120276720D01*
%TO.C,R5*%
X90979055Y-120491006D02*
X90860007Y-120574340D01*
X90979055Y-120633863D02*
X90729055Y-120633863D01*
X90729055Y-120538625D01*
X90740960Y-120514816D01*
X90752864Y-120502911D01*
X90776674Y-120491006D01*
X90812388Y-120491006D01*
X90836198Y-120502911D01*
X90848102Y-120514816D01*
X90860007Y-120538625D01*
X90860007Y-120633863D01*
X90729055Y-120264816D02*
X90729055Y-120383863D01*
X90848102Y-120395768D01*
X90836198Y-120383863D01*
X90824293Y-120360054D01*
X90824293Y-120300530D01*
X90836198Y-120276720D01*
X90848102Y-120264816D01*
X90871912Y-120252911D01*
X90931436Y-120252911D01*
X90955245Y-120264816D01*
X90967150Y-120276720D01*
X90979055Y-120300530D01*
X90979055Y-120360054D01*
X90967150Y-120383863D01*
X90955245Y-120395768D01*
%TO.C,R8*%
X94789055Y-120491006D02*
X94670007Y-120574340D01*
X94789055Y-120633863D02*
X94539055Y-120633863D01*
X94539055Y-120538625D01*
X94550960Y-120514816D01*
X94562864Y-120502911D01*
X94586674Y-120491006D01*
X94622388Y-120491006D01*
X94646198Y-120502911D01*
X94658102Y-120514816D01*
X94670007Y-120538625D01*
X94670007Y-120633863D01*
X94646198Y-120348149D02*
X94634293Y-120371959D01*
X94622388Y-120383863D01*
X94598579Y-120395768D01*
X94586674Y-120395768D01*
X94562864Y-120383863D01*
X94550960Y-120371959D01*
X94539055Y-120348149D01*
X94539055Y-120300530D01*
X94550960Y-120276720D01*
X94562864Y-120264816D01*
X94586674Y-120252911D01*
X94598579Y-120252911D01*
X94622388Y-120264816D01*
X94634293Y-120276720D01*
X94646198Y-120300530D01*
X94646198Y-120348149D01*
X94658102Y-120371959D01*
X94670007Y-120383863D01*
X94693817Y-120395768D01*
X94741436Y-120395768D01*
X94765245Y-120383863D01*
X94777150Y-120371959D01*
X94789055Y-120348149D01*
X94789055Y-120300530D01*
X94777150Y-120276720D01*
X94765245Y-120264816D01*
X94741436Y-120252911D01*
X94693817Y-120252911D01*
X94670007Y-120264816D01*
X94658102Y-120276720D01*
X94646198Y-120300530D01*
%TO.C,R12*%
X89709055Y-118451054D02*
X89590007Y-118534387D01*
X89709055Y-118593911D02*
X89459055Y-118593911D01*
X89459055Y-118498673D01*
X89470960Y-118474863D01*
X89482864Y-118462959D01*
X89506674Y-118451054D01*
X89542388Y-118451054D01*
X89566198Y-118462959D01*
X89578102Y-118474863D01*
X89590007Y-118498673D01*
X89590007Y-118593911D01*
X89709055Y-118212959D02*
X89709055Y-118355816D01*
X89709055Y-118284387D02*
X89459055Y-118284387D01*
X89494769Y-118308197D01*
X89518579Y-118332006D01*
X89530483Y-118355816D01*
X89482864Y-118117720D02*
X89470960Y-118105816D01*
X89459055Y-118082006D01*
X89459055Y-118022482D01*
X89470960Y-117998673D01*
X89482864Y-117986768D01*
X89506674Y-117974863D01*
X89530483Y-117974863D01*
X89566198Y-117986768D01*
X89709055Y-118129625D01*
X89709055Y-117974863D01*
%TO.C,R13*%
X88439055Y-118451054D02*
X88320007Y-118534387D01*
X88439055Y-118593911D02*
X88189055Y-118593911D01*
X88189055Y-118498673D01*
X88200960Y-118474863D01*
X88212864Y-118462959D01*
X88236674Y-118451054D01*
X88272388Y-118451054D01*
X88296198Y-118462959D01*
X88308102Y-118474863D01*
X88320007Y-118498673D01*
X88320007Y-118593911D01*
X88439055Y-118212959D02*
X88439055Y-118355816D01*
X88439055Y-118284387D02*
X88189055Y-118284387D01*
X88224769Y-118308197D01*
X88248579Y-118332006D01*
X88260483Y-118355816D01*
X88189055Y-118129625D02*
X88189055Y-117974863D01*
X88284293Y-118058197D01*
X88284293Y-118022482D01*
X88296198Y-117998673D01*
X88308102Y-117986768D01*
X88331912Y-117974863D01*
X88391436Y-117974863D01*
X88415245Y-117986768D01*
X88427150Y-117998673D01*
X88439055Y-118022482D01*
X88439055Y-118093911D01*
X88427150Y-118117720D01*
X88415245Y-118129625D01*
D12*
%TO.C,U3*%
X93152055Y-115583720D02*
X93152055Y-116393244D01*
X93199674Y-116488482D01*
X93247293Y-116536101D01*
X93342531Y-116583720D01*
X93533007Y-116583720D01*
X93628245Y-116536101D01*
X93675864Y-116488482D01*
X93723483Y-116393244D01*
X93723483Y-115583720D01*
X94104436Y-115583720D02*
X94723483Y-115583720D01*
X94390150Y-115964673D01*
X94533007Y-115964673D01*
X94628245Y-116012292D01*
X94675864Y-116059911D01*
X94723483Y-116155149D01*
X94723483Y-116393244D01*
X94675864Y-116488482D01*
X94628245Y-116536101D01*
X94533007Y-116583720D01*
X94247293Y-116583720D01*
X94152055Y-116536101D01*
X94104436Y-116488482D01*
%TO.C,J14*%
X94856380Y-95065904D02*
X94856380Y-95637333D01*
X94818285Y-95751619D01*
X94742095Y-95827809D01*
X94627809Y-95865904D01*
X94551619Y-95865904D01*
X95656380Y-95865904D02*
X95199238Y-95865904D01*
X95427809Y-95865904D02*
X95427809Y-95065904D01*
X95351619Y-95180190D01*
X95275428Y-95256380D01*
X95199238Y-95294476D01*
X96342095Y-95332571D02*
X96342095Y-95865904D01*
X96151619Y-95027809D02*
X95961142Y-95599238D01*
X96456380Y-95599238D01*
%TO.C,J15*%
X83223180Y-82442104D02*
X83223180Y-83013533D01*
X83185085Y-83127819D01*
X83108895Y-83204009D01*
X82994609Y-83242104D01*
X82918419Y-83242104D01*
X84023180Y-83242104D02*
X83566038Y-83242104D01*
X83794609Y-83242104D02*
X83794609Y-82442104D01*
X83718419Y-82556390D01*
X83642228Y-82632580D01*
X83566038Y-82670676D01*
X84746990Y-82442104D02*
X84366038Y-82442104D01*
X84327942Y-82823057D01*
X84366038Y-82784961D01*
X84442228Y-82746866D01*
X84632704Y-82746866D01*
X84708895Y-82784961D01*
X84746990Y-82823057D01*
X84785085Y-82899247D01*
X84785085Y-83089723D01*
X84746990Y-83165914D01*
X84708895Y-83204009D01*
X84632704Y-83242104D01*
X84442228Y-83242104D01*
X84366038Y-83204009D01*
X84327942Y-83165914D01*
%TO.C,J13*%
X95047060Y-102325744D02*
X95047060Y-102897173D01*
X95008965Y-103011459D01*
X94932775Y-103087649D01*
X94818489Y-103125744D01*
X94742299Y-103125744D01*
X95847060Y-103125744D02*
X95389918Y-103125744D01*
X95618489Y-103125744D02*
X95618489Y-102325744D01*
X95542299Y-102440030D01*
X95466108Y-102516220D01*
X95389918Y-102554316D01*
X96113727Y-102325744D02*
X96608965Y-102325744D01*
X96342299Y-102630506D01*
X96456584Y-102630506D01*
X96532775Y-102668601D01*
X96570870Y-102706697D01*
X96608965Y-102782887D01*
X96608965Y-102973363D01*
X96570870Y-103049554D01*
X96532775Y-103087649D01*
X96456584Y-103125744D01*
X96228013Y-103125744D01*
X96151822Y-103087649D01*
X96113727Y-103049554D01*
D10*
%TO.C,R17*%
X85984145Y-87866914D02*
X85865097Y-87950247D01*
X85984145Y-88009771D02*
X85734145Y-88009771D01*
X85734145Y-87914533D01*
X85746050Y-87890723D01*
X85757954Y-87878819D01*
X85781764Y-87866914D01*
X85817478Y-87866914D01*
X85841288Y-87878819D01*
X85853192Y-87890723D01*
X85865097Y-87914533D01*
X85865097Y-88009771D01*
X85984145Y-87628819D02*
X85984145Y-87771676D01*
X85984145Y-87700247D02*
X85734145Y-87700247D01*
X85769859Y-87724057D01*
X85793669Y-87747866D01*
X85805573Y-87771676D01*
X85734145Y-87545485D02*
X85734145Y-87378819D01*
X85984145Y-87485961D01*
%TO.C,R20*%
X83380645Y-87866914D02*
X83261597Y-87950247D01*
X83380645Y-88009771D02*
X83130645Y-88009771D01*
X83130645Y-87914533D01*
X83142550Y-87890723D01*
X83154454Y-87878819D01*
X83178264Y-87866914D01*
X83213978Y-87866914D01*
X83237788Y-87878819D01*
X83249692Y-87890723D01*
X83261597Y-87914533D01*
X83261597Y-88009771D01*
X83154454Y-87771676D02*
X83142550Y-87759771D01*
X83130645Y-87735961D01*
X83130645Y-87676438D01*
X83142550Y-87652628D01*
X83154454Y-87640723D01*
X83178264Y-87628819D01*
X83202073Y-87628819D01*
X83237788Y-87640723D01*
X83380645Y-87783580D01*
X83380645Y-87628819D01*
X83130645Y-87474057D02*
X83130645Y-87450247D01*
X83142550Y-87426438D01*
X83154454Y-87414533D01*
X83178264Y-87402628D01*
X83225883Y-87390723D01*
X83285407Y-87390723D01*
X83333026Y-87402628D01*
X83356835Y-87414533D01*
X83368740Y-87426438D01*
X83380645Y-87450247D01*
X83380645Y-87474057D01*
X83368740Y-87497866D01*
X83356835Y-87509771D01*
X83333026Y-87521676D01*
X83285407Y-87533580D01*
X83225883Y-87533580D01*
X83178264Y-87521676D01*
X83154454Y-87509771D01*
X83142550Y-87497866D01*
X83130645Y-87474057D01*
%TO.C,R21*%
X84682395Y-87866914D02*
X84563347Y-87950247D01*
X84682395Y-88009771D02*
X84432395Y-88009771D01*
X84432395Y-87914533D01*
X84444300Y-87890723D01*
X84456204Y-87878819D01*
X84480014Y-87866914D01*
X84515728Y-87866914D01*
X84539538Y-87878819D01*
X84551442Y-87890723D01*
X84563347Y-87914533D01*
X84563347Y-88009771D01*
X84456204Y-87771676D02*
X84444300Y-87759771D01*
X84432395Y-87735961D01*
X84432395Y-87676438D01*
X84444300Y-87652628D01*
X84456204Y-87640723D01*
X84480014Y-87628819D01*
X84503823Y-87628819D01*
X84539538Y-87640723D01*
X84682395Y-87783580D01*
X84682395Y-87628819D01*
X84682395Y-87390723D02*
X84682395Y-87533580D01*
X84682395Y-87462152D02*
X84432395Y-87462152D01*
X84468109Y-87485961D01*
X84491919Y-87509771D01*
X84503823Y-87533580D01*
D11*
%TO.C,U9*%
X78466190Y-91185952D02*
X78870952Y-91185952D01*
X78918571Y-91162142D01*
X78942380Y-91138333D01*
X78966190Y-91090714D01*
X78966190Y-90995476D01*
X78942380Y-90947857D01*
X78918571Y-90924047D01*
X78870952Y-90900238D01*
X78466190Y-90900238D01*
X78966190Y-90638333D02*
X78966190Y-90543095D01*
X78942380Y-90495476D01*
X78918571Y-90471666D01*
X78847142Y-90424047D01*
X78751904Y-90400238D01*
X78561428Y-90400238D01*
X78513809Y-90424047D01*
X78490000Y-90447857D01*
X78466190Y-90495476D01*
X78466190Y-90590714D01*
X78490000Y-90638333D01*
X78513809Y-90662142D01*
X78561428Y-90685952D01*
X78680476Y-90685952D01*
X78728095Y-90662142D01*
X78751904Y-90638333D01*
X78775714Y-90590714D01*
X78775714Y-90495476D01*
X78751904Y-90447857D01*
X78728095Y-90424047D01*
X78680476Y-90400238D01*
D12*
%TO.C,J12*%
X87287180Y-95192904D02*
X87287180Y-95764333D01*
X87249085Y-95878619D01*
X87172895Y-95954809D01*
X87058609Y-95992904D01*
X86982419Y-95992904D01*
X88087180Y-95992904D02*
X87630038Y-95992904D01*
X87858609Y-95992904D02*
X87858609Y-95192904D01*
X87782419Y-95307190D01*
X87706228Y-95383380D01*
X87630038Y-95421476D01*
X88391942Y-95269095D02*
X88430038Y-95231000D01*
X88506228Y-95192904D01*
X88696704Y-95192904D01*
X88772895Y-95231000D01*
X88810990Y-95269095D01*
X88849085Y-95345285D01*
X88849085Y-95421476D01*
X88810990Y-95535761D01*
X88353847Y-95992904D01*
X88849085Y-95992904D01*
D10*
%TO.C,R22*%
X88800245Y-116371435D02*
X88716912Y-116252387D01*
X88657388Y-116371435D02*
X88657388Y-116121435D01*
X88752626Y-116121435D01*
X88776436Y-116133340D01*
X88788340Y-116145244D01*
X88800245Y-116169054D01*
X88800245Y-116204768D01*
X88788340Y-116228578D01*
X88776436Y-116240482D01*
X88752626Y-116252387D01*
X88657388Y-116252387D01*
X88895483Y-116145244D02*
X88907388Y-116133340D01*
X88931198Y-116121435D01*
X88990721Y-116121435D01*
X89014531Y-116133340D01*
X89026436Y-116145244D01*
X89038340Y-116169054D01*
X89038340Y-116192863D01*
X89026436Y-116228578D01*
X88883579Y-116371435D01*
X89038340Y-116371435D01*
X89133579Y-116145244D02*
X89145483Y-116133340D01*
X89169293Y-116121435D01*
X89228817Y-116121435D01*
X89252626Y-116133340D01*
X89264531Y-116145244D01*
X89276436Y-116169054D01*
X89276436Y-116192863D01*
X89264531Y-116228578D01*
X89121674Y-116371435D01*
X89276436Y-116371435D01*
D11*
%TO.C,F1*%
X78573333Y-87721285D02*
X78406666Y-87721285D01*
X78406666Y-87983190D02*
X78406666Y-87483190D01*
X78644761Y-87483190D01*
X79097142Y-87983190D02*
X78811428Y-87983190D01*
X78954285Y-87983190D02*
X78954285Y-87483190D01*
X78906666Y-87554619D01*
X78859047Y-87602238D01*
X78811428Y-87626047D01*
%TO.C,D2*%
X69785752Y-96187390D02*
X69785752Y-95687390D01*
X69904800Y-95687390D01*
X69976228Y-95711200D01*
X70023847Y-95758819D01*
X70047657Y-95806438D01*
X70071466Y-95901676D01*
X70071466Y-95973104D01*
X70047657Y-96068342D01*
X70023847Y-96115961D01*
X69976228Y-96163580D01*
X69904800Y-96187390D01*
X69785752Y-96187390D01*
X70261942Y-95735009D02*
X70285752Y-95711200D01*
X70333371Y-95687390D01*
X70452419Y-95687390D01*
X70500038Y-95711200D01*
X70523847Y-95735009D01*
X70547657Y-95782628D01*
X70547657Y-95830247D01*
X70523847Y-95901676D01*
X70238133Y-96187390D01*
X70547657Y-96187390D01*
D12*
%TO.C,U1*%
X92354476Y-85540904D02*
X92354476Y-86188523D01*
X92392571Y-86264714D01*
X92430666Y-86302809D01*
X92506857Y-86340904D01*
X92659238Y-86340904D01*
X92735428Y-86302809D01*
X92773523Y-86264714D01*
X92811619Y-86188523D01*
X92811619Y-85540904D01*
X93611619Y-86340904D02*
X93154476Y-86340904D01*
X93383047Y-86340904D02*
X93383047Y-85540904D01*
X93306857Y-85655190D01*
X93230666Y-85731380D01*
X93154476Y-85769476D01*
D11*
%TO.C,Y1*%
X87061704Y-82614295D02*
X87061704Y-82852390D01*
X86895038Y-82352390D02*
X87061704Y-82614295D01*
X87228371Y-82352390D01*
X87656942Y-82852390D02*
X87371228Y-82852390D01*
X87514085Y-82852390D02*
X87514085Y-82352390D01*
X87466466Y-82423819D01*
X87418847Y-82471438D01*
X87371228Y-82495247D01*
D10*
%TO.C,C1*%
X87262085Y-85461866D02*
X87273990Y-85473771D01*
X87285895Y-85509485D01*
X87285895Y-85533295D01*
X87273990Y-85569009D01*
X87250180Y-85592819D01*
X87226371Y-85604723D01*
X87178752Y-85616628D01*
X87143038Y-85616628D01*
X87095419Y-85604723D01*
X87071609Y-85592819D01*
X87047800Y-85569009D01*
X87035895Y-85533295D01*
X87035895Y-85509485D01*
X87047800Y-85473771D01*
X87059704Y-85461866D01*
X87285895Y-85223771D02*
X87285895Y-85366628D01*
X87285895Y-85295200D02*
X87035895Y-85295200D01*
X87071609Y-85319009D01*
X87095419Y-85342819D01*
X87107323Y-85366628D01*
%TO.C,C2*%
X87262085Y-87747866D02*
X87273990Y-87759771D01*
X87285895Y-87795485D01*
X87285895Y-87819295D01*
X87273990Y-87855009D01*
X87250180Y-87878819D01*
X87226371Y-87890723D01*
X87178752Y-87902628D01*
X87143038Y-87902628D01*
X87095419Y-87890723D01*
X87071609Y-87878819D01*
X87047800Y-87855009D01*
X87035895Y-87819295D01*
X87035895Y-87795485D01*
X87047800Y-87759771D01*
X87059704Y-87747866D01*
X87059704Y-87652628D02*
X87047800Y-87640723D01*
X87035895Y-87616914D01*
X87035895Y-87557390D01*
X87047800Y-87533580D01*
X87059704Y-87521676D01*
X87083514Y-87509771D01*
X87107323Y-87509771D01*
X87143038Y-87521676D01*
X87285895Y-87664533D01*
X87285895Y-87509771D01*
%TO.C,C26*%
X87262085Y-90152914D02*
X87273990Y-90164819D01*
X87285895Y-90200533D01*
X87285895Y-90224342D01*
X87273990Y-90260057D01*
X87250180Y-90283866D01*
X87226371Y-90295771D01*
X87178752Y-90307676D01*
X87143038Y-90307676D01*
X87095419Y-90295771D01*
X87071609Y-90283866D01*
X87047800Y-90260057D01*
X87035895Y-90224342D01*
X87035895Y-90200533D01*
X87047800Y-90164819D01*
X87059704Y-90152914D01*
X87059704Y-90057676D02*
X87047800Y-90045771D01*
X87035895Y-90021961D01*
X87035895Y-89962438D01*
X87047800Y-89938628D01*
X87059704Y-89926723D01*
X87083514Y-89914819D01*
X87107323Y-89914819D01*
X87143038Y-89926723D01*
X87285895Y-90069580D01*
X87285895Y-89914819D01*
X87035895Y-89700533D02*
X87035895Y-89748152D01*
X87047800Y-89771961D01*
X87059704Y-89783866D01*
X87095419Y-89807676D01*
X87143038Y-89819580D01*
X87238276Y-89819580D01*
X87262085Y-89807676D01*
X87273990Y-89795771D01*
X87285895Y-89771961D01*
X87285895Y-89724342D01*
X87273990Y-89700533D01*
X87262085Y-89688628D01*
X87238276Y-89676723D01*
X87178752Y-89676723D01*
X87154942Y-89688628D01*
X87143038Y-89700533D01*
X87131133Y-89724342D01*
X87131133Y-89771961D01*
X87143038Y-89795771D01*
X87154942Y-89807676D01*
X87178752Y-89819580D01*
D12*
%TO.C,SW1*%
X74041133Y-96285009D02*
X74155419Y-96323104D01*
X74345895Y-96323104D01*
X74422085Y-96285009D01*
X74460180Y-96246914D01*
X74498276Y-96170723D01*
X74498276Y-96094533D01*
X74460180Y-96018342D01*
X74422085Y-95980247D01*
X74345895Y-95942152D01*
X74193514Y-95904057D01*
X74117323Y-95865961D01*
X74079228Y-95827866D01*
X74041133Y-95751676D01*
X74041133Y-95675485D01*
X74079228Y-95599295D01*
X74117323Y-95561200D01*
X74193514Y-95523104D01*
X74383990Y-95523104D01*
X74498276Y-95561200D01*
X74764942Y-95523104D02*
X74955419Y-96323104D01*
X75107800Y-95751676D01*
X75260180Y-96323104D01*
X75450657Y-95523104D01*
X76174466Y-96323104D02*
X75717323Y-96323104D01*
X75945895Y-96323104D02*
X75945895Y-95523104D01*
X75869704Y-95637390D01*
X75793514Y-95713580D01*
X75717323Y-95751676D01*
D13*
%TO.C,J1*%
X68540561Y-92745533D02*
X68220561Y-92745533D01*
X68220561Y-92623628D01*
X68235800Y-92593152D01*
X68251038Y-92577914D01*
X68281514Y-92562676D01*
X68327228Y-92562676D01*
X68357704Y-92577914D01*
X68372942Y-92593152D01*
X68388180Y-92623628D01*
X68388180Y-92745533D01*
X68510085Y-92242676D02*
X68525323Y-92257914D01*
X68540561Y-92303628D01*
X68540561Y-92334104D01*
X68525323Y-92379819D01*
X68494847Y-92410295D01*
X68464371Y-92425533D01*
X68403419Y-92440771D01*
X68357704Y-92440771D01*
X68296752Y-92425533D01*
X68266276Y-92410295D01*
X68235800Y-92379819D01*
X68220561Y-92334104D01*
X68220561Y-92303628D01*
X68235800Y-92257914D01*
X68251038Y-92242676D01*
X68372942Y-91998866D02*
X68388180Y-91953152D01*
X68403419Y-91937914D01*
X68433895Y-91922676D01*
X68479609Y-91922676D01*
X68510085Y-91937914D01*
X68525323Y-91953152D01*
X68540561Y-91983628D01*
X68540561Y-92105533D01*
X68220561Y-92105533D01*
X68220561Y-91998866D01*
X68235800Y-91968390D01*
X68251038Y-91953152D01*
X68281514Y-91937914D01*
X68311990Y-91937914D01*
X68342466Y-91953152D01*
X68357704Y-91968390D01*
X68372942Y-91998866D01*
X68372942Y-92105533D01*
X68130200Y-91861723D02*
X68130200Y-91572200D01*
X68372942Y-91785533D02*
X68372942Y-91678866D01*
X68540561Y-91633152D02*
X68540561Y-91785533D01*
X68220561Y-91785533D01*
X68220561Y-91633152D01*
X68130200Y-91572200D02*
X68130200Y-91252200D01*
X68540561Y-91496009D02*
X68220561Y-91496009D01*
X68220561Y-91419819D01*
X68235800Y-91374104D01*
X68266276Y-91343628D01*
X68296752Y-91328390D01*
X68357704Y-91313152D01*
X68403419Y-91313152D01*
X68464371Y-91328390D01*
X68494847Y-91343628D01*
X68525323Y-91374104D01*
X68540561Y-91419819D01*
X68540561Y-91496009D01*
X68130200Y-91252200D02*
X68130200Y-90932200D01*
X68235800Y-91008390D02*
X68220561Y-91038866D01*
X68220561Y-91084580D01*
X68235800Y-91130295D01*
X68266276Y-91160771D01*
X68296752Y-91176009D01*
X68357704Y-91191247D01*
X68403419Y-91191247D01*
X68464371Y-91176009D01*
X68494847Y-91160771D01*
X68525323Y-91130295D01*
X68540561Y-91084580D01*
X68540561Y-91054104D01*
X68525323Y-91008390D01*
X68510085Y-90993152D01*
X68403419Y-90993152D01*
X68403419Y-91054104D01*
X68130200Y-90932200D02*
X68130200Y-90642676D01*
X68372942Y-90856009D02*
X68372942Y-90749342D01*
X68540561Y-90703628D02*
X68540561Y-90856009D01*
X68220561Y-90856009D01*
X68220561Y-90703628D01*
D12*
X70345333Y-85744104D02*
X70345333Y-86315533D01*
X70307238Y-86429819D01*
X70231047Y-86506009D01*
X70116761Y-86544104D01*
X70040571Y-86544104D01*
X71145333Y-86544104D02*
X70688190Y-86544104D01*
X70916761Y-86544104D02*
X70916761Y-85744104D01*
X70840571Y-85858390D01*
X70764380Y-85934580D01*
X70688190Y-85972676D01*
D11*
%TO.C,J4*%
X72420990Y-93333866D02*
X72778133Y-93333866D01*
X72849561Y-93357676D01*
X72897180Y-93405295D01*
X72920990Y-93476723D01*
X72920990Y-93524342D01*
X72587657Y-92881485D02*
X72920990Y-92881485D01*
X72397180Y-93000533D02*
X72754323Y-93119580D01*
X72754323Y-92810057D01*
D10*
%TO.C,C27*%
X84637085Y-90152914D02*
X84648990Y-90164819D01*
X84660895Y-90200533D01*
X84660895Y-90224342D01*
X84648990Y-90260057D01*
X84625180Y-90283866D01*
X84601371Y-90295771D01*
X84553752Y-90307676D01*
X84518038Y-90307676D01*
X84470419Y-90295771D01*
X84446609Y-90283866D01*
X84422800Y-90260057D01*
X84410895Y-90224342D01*
X84410895Y-90200533D01*
X84422800Y-90164819D01*
X84434704Y-90152914D01*
X84434704Y-90057676D02*
X84422800Y-90045771D01*
X84410895Y-90021961D01*
X84410895Y-89962438D01*
X84422800Y-89938628D01*
X84434704Y-89926723D01*
X84458514Y-89914819D01*
X84482323Y-89914819D01*
X84518038Y-89926723D01*
X84660895Y-90069580D01*
X84660895Y-89914819D01*
X84410895Y-89831485D02*
X84410895Y-89664819D01*
X84660895Y-89771961D01*
%TO.C,C28*%
X83324585Y-90152914D02*
X83336490Y-90164819D01*
X83348395Y-90200533D01*
X83348395Y-90224342D01*
X83336490Y-90260057D01*
X83312680Y-90283866D01*
X83288871Y-90295771D01*
X83241252Y-90307676D01*
X83205538Y-90307676D01*
X83157919Y-90295771D01*
X83134109Y-90283866D01*
X83110300Y-90260057D01*
X83098395Y-90224342D01*
X83098395Y-90200533D01*
X83110300Y-90164819D01*
X83122204Y-90152914D01*
X83122204Y-90057676D02*
X83110300Y-90045771D01*
X83098395Y-90021961D01*
X83098395Y-89962438D01*
X83110300Y-89938628D01*
X83122204Y-89926723D01*
X83146014Y-89914819D01*
X83169823Y-89914819D01*
X83205538Y-89926723D01*
X83348395Y-90069580D01*
X83348395Y-89914819D01*
X83205538Y-89771961D02*
X83193633Y-89795771D01*
X83181728Y-89807676D01*
X83157919Y-89819580D01*
X83146014Y-89819580D01*
X83122204Y-89807676D01*
X83110300Y-89795771D01*
X83098395Y-89771961D01*
X83098395Y-89724342D01*
X83110300Y-89700533D01*
X83122204Y-89688628D01*
X83146014Y-89676723D01*
X83157919Y-89676723D01*
X83181728Y-89688628D01*
X83193633Y-89700533D01*
X83205538Y-89724342D01*
X83205538Y-89771961D01*
X83217442Y-89795771D01*
X83229347Y-89807676D01*
X83253157Y-89819580D01*
X83300776Y-89819580D01*
X83324585Y-89807676D01*
X83336490Y-89795771D01*
X83348395Y-89771961D01*
X83348395Y-89724342D01*
X83336490Y-89700533D01*
X83324585Y-89688628D01*
X83300776Y-89676723D01*
X83253157Y-89676723D01*
X83229347Y-89688628D01*
X83217442Y-89700533D01*
X83205538Y-89724342D01*
D11*
%TO.C,U8*%
X80822847Y-87178390D02*
X80822847Y-87583152D01*
X80846657Y-87630771D01*
X80870466Y-87654580D01*
X80918085Y-87678390D01*
X81013323Y-87678390D01*
X81060942Y-87654580D01*
X81084752Y-87630771D01*
X81108561Y-87583152D01*
X81108561Y-87178390D01*
X81418085Y-87392676D02*
X81370466Y-87368866D01*
X81346657Y-87345057D01*
X81322847Y-87297438D01*
X81322847Y-87273628D01*
X81346657Y-87226009D01*
X81370466Y-87202200D01*
X81418085Y-87178390D01*
X81513323Y-87178390D01*
X81560942Y-87202200D01*
X81584752Y-87226009D01*
X81608561Y-87273628D01*
X81608561Y-87297438D01*
X81584752Y-87345057D01*
X81560942Y-87368866D01*
X81513323Y-87392676D01*
X81418085Y-87392676D01*
X81370466Y-87416485D01*
X81346657Y-87440295D01*
X81322847Y-87487914D01*
X81322847Y-87583152D01*
X81346657Y-87630771D01*
X81370466Y-87654580D01*
X81418085Y-87678390D01*
X81513323Y-87678390D01*
X81560942Y-87654580D01*
X81584752Y-87630771D01*
X81608561Y-87583152D01*
X81608561Y-87487914D01*
X81584752Y-87440295D01*
X81560942Y-87416485D01*
X81513323Y-87392676D01*
D10*
%TO.C,R18*%
X80707295Y-90152914D02*
X80588247Y-90236247D01*
X80707295Y-90295771D02*
X80457295Y-90295771D01*
X80457295Y-90200533D01*
X80469200Y-90176723D01*
X80481104Y-90164819D01*
X80504914Y-90152914D01*
X80540628Y-90152914D01*
X80564438Y-90164819D01*
X80576342Y-90176723D01*
X80588247Y-90200533D01*
X80588247Y-90295771D01*
X80707295Y-89914819D02*
X80707295Y-90057676D01*
X80707295Y-89986247D02*
X80457295Y-89986247D01*
X80493009Y-90010057D01*
X80516819Y-90033866D01*
X80528723Y-90057676D01*
X80564438Y-89771961D02*
X80552533Y-89795771D01*
X80540628Y-89807676D01*
X80516819Y-89819580D01*
X80504914Y-89819580D01*
X80481104Y-89807676D01*
X80469200Y-89795771D01*
X80457295Y-89771961D01*
X80457295Y-89724342D01*
X80469200Y-89700533D01*
X80481104Y-89688628D01*
X80504914Y-89676723D01*
X80516819Y-89676723D01*
X80540628Y-89688628D01*
X80552533Y-89700533D01*
X80564438Y-89724342D01*
X80564438Y-89771961D01*
X80576342Y-89795771D01*
X80588247Y-89807676D01*
X80612057Y-89819580D01*
X80659676Y-89819580D01*
X80683485Y-89807676D01*
X80695390Y-89795771D01*
X80707295Y-89771961D01*
X80707295Y-89724342D01*
X80695390Y-89700533D01*
X80683485Y-89688628D01*
X80659676Y-89676723D01*
X80612057Y-89676723D01*
X80588247Y-89688628D01*
X80576342Y-89700533D01*
X80564438Y-89724342D01*
%TO.C,R19*%
X82028095Y-90152914D02*
X81909047Y-90236247D01*
X82028095Y-90295771D02*
X81778095Y-90295771D01*
X81778095Y-90200533D01*
X81790000Y-90176723D01*
X81801904Y-90164819D01*
X81825714Y-90152914D01*
X81861428Y-90152914D01*
X81885238Y-90164819D01*
X81897142Y-90176723D01*
X81909047Y-90200533D01*
X81909047Y-90295771D01*
X82028095Y-89914819D02*
X82028095Y-90057676D01*
X82028095Y-89986247D02*
X81778095Y-89986247D01*
X81813809Y-90010057D01*
X81837619Y-90033866D01*
X81849523Y-90057676D01*
X82028095Y-89795771D02*
X82028095Y-89748152D01*
X82016190Y-89724342D01*
X82004285Y-89712438D01*
X81968571Y-89688628D01*
X81920952Y-89676723D01*
X81825714Y-89676723D01*
X81801904Y-89688628D01*
X81790000Y-89700533D01*
X81778095Y-89724342D01*
X81778095Y-89771961D01*
X81790000Y-89795771D01*
X81801904Y-89807676D01*
X81825714Y-89819580D01*
X81885238Y-89819580D01*
X81909047Y-89807676D01*
X81920952Y-89795771D01*
X81932857Y-89771961D01*
X81932857Y-89724342D01*
X81920952Y-89700533D01*
X81909047Y-89688628D01*
X81885238Y-89676723D01*
D12*
%TO.C,J8*%
X84823333Y-114634064D02*
X84823333Y-115205493D01*
X84785238Y-115319779D01*
X84709047Y-115395969D01*
X84594761Y-115434064D01*
X84518571Y-115434064D01*
X85318571Y-114976921D02*
X85242380Y-114938826D01*
X85204285Y-114900731D01*
X85166190Y-114824540D01*
X85166190Y-114786445D01*
X85204285Y-114710255D01*
X85242380Y-114672160D01*
X85318571Y-114634064D01*
X85470952Y-114634064D01*
X85547142Y-114672160D01*
X85585238Y-114710255D01*
X85623333Y-114786445D01*
X85623333Y-114824540D01*
X85585238Y-114900731D01*
X85547142Y-114938826D01*
X85470952Y-114976921D01*
X85318571Y-114976921D01*
X85242380Y-115015017D01*
X85204285Y-115053112D01*
X85166190Y-115129302D01*
X85166190Y-115281683D01*
X85204285Y-115357874D01*
X85242380Y-115395969D01*
X85318571Y-115434064D01*
X85470952Y-115434064D01*
X85547142Y-115395969D01*
X85585238Y-115357874D01*
X85623333Y-115281683D01*
X85623333Y-115129302D01*
X85585238Y-115053112D01*
X85547142Y-115015017D01*
X85470952Y-114976921D01*
%TO.C,J6*%
X111570142Y-106466571D02*
X111903476Y-106466571D01*
X112046333Y-106990380D02*
X111570142Y-106990380D01*
X111570142Y-105990380D01*
X112046333Y-105990380D01*
X113046333Y-106895142D02*
X112998714Y-106942761D01*
X112855857Y-106990380D01*
X112760619Y-106990380D01*
X112617761Y-106942761D01*
X112522523Y-106847523D01*
X112474904Y-106752285D01*
X112427285Y-106561809D01*
X112427285Y-106418952D01*
X112474904Y-106228476D01*
X112522523Y-106133238D01*
X112617761Y-106038000D01*
X112760619Y-105990380D01*
X112855857Y-105990380D01*
X112998714Y-106038000D01*
X113046333Y-106085619D01*
X113998714Y-106038000D02*
X113903476Y-105990380D01*
X113760619Y-105990380D01*
X113617761Y-106038000D01*
X113522523Y-106133238D01*
X113474904Y-106228476D01*
X113427285Y-106418952D01*
X113427285Y-106561809D01*
X113474904Y-106752285D01*
X113522523Y-106847523D01*
X113617761Y-106942761D01*
X113760619Y-106990380D01*
X113855857Y-106990380D01*
X113998714Y-106942761D01*
X114046333Y-106895142D01*
X114046333Y-106561809D01*
X113855857Y-106561809D01*
X114236809Y-107085619D02*
X114998714Y-107085619D01*
X115713000Y-106990380D02*
X115236809Y-106990380D01*
X115236809Y-105990380D01*
X116046333Y-106466571D02*
X116379666Y-106466571D01*
X116522523Y-106990380D02*
X116046333Y-106990380D01*
X116046333Y-105990380D01*
X116522523Y-105990380D01*
X117284428Y-106466571D02*
X116951095Y-106466571D01*
X116951095Y-106990380D02*
X116951095Y-105990380D01*
X117427285Y-105990380D01*
X117665380Y-105990380D02*
X118236809Y-105990380D01*
X117951095Y-106990380D02*
X117951095Y-105990380D01*
X118332047Y-107085619D02*
X119093952Y-107085619D01*
X119284428Y-106704666D02*
X119760619Y-106704666D01*
X119189190Y-106990380D02*
X119522523Y-105990380D01*
X119855857Y-106990380D01*
X120760619Y-106990380D02*
X120427285Y-106514190D01*
X120189190Y-106990380D02*
X120189190Y-105990380D01*
X120570142Y-105990380D01*
X120665380Y-106038000D01*
X120713000Y-106085619D01*
X120760619Y-106180857D01*
X120760619Y-106323714D01*
X120713000Y-106418952D01*
X120665380Y-106466571D01*
X120570142Y-106514190D01*
X120189190Y-106514190D01*
X121189190Y-106990380D02*
X121189190Y-105990380D01*
X121522523Y-106704666D01*
X121855857Y-105990380D01*
X121855857Y-106990380D01*
D10*
%TO.C,R7*%
X96059055Y-120491006D02*
X95940007Y-120574340D01*
X96059055Y-120633863D02*
X95809055Y-120633863D01*
X95809055Y-120538625D01*
X95820960Y-120514816D01*
X95832864Y-120502911D01*
X95856674Y-120491006D01*
X95892388Y-120491006D01*
X95916198Y-120502911D01*
X95928102Y-120514816D01*
X95940007Y-120538625D01*
X95940007Y-120633863D01*
X95809055Y-120407673D02*
X95809055Y-120241006D01*
X96059055Y-120348149D01*
%TO.C,C21*%
X89685245Y-120610054D02*
X89697150Y-120621959D01*
X89709055Y-120657673D01*
X89709055Y-120681482D01*
X89697150Y-120717197D01*
X89673340Y-120741006D01*
X89649531Y-120752911D01*
X89601912Y-120764816D01*
X89566198Y-120764816D01*
X89518579Y-120752911D01*
X89494769Y-120741006D01*
X89470960Y-120717197D01*
X89459055Y-120681482D01*
X89459055Y-120657673D01*
X89470960Y-120621959D01*
X89482864Y-120610054D01*
X89482864Y-120514816D02*
X89470960Y-120502911D01*
X89459055Y-120479101D01*
X89459055Y-120419578D01*
X89470960Y-120395768D01*
X89482864Y-120383863D01*
X89506674Y-120371959D01*
X89530483Y-120371959D01*
X89566198Y-120383863D01*
X89709055Y-120526720D01*
X89709055Y-120371959D01*
X89709055Y-120133863D02*
X89709055Y-120276720D01*
X89709055Y-120205292D02*
X89459055Y-120205292D01*
X89494769Y-120229101D01*
X89518579Y-120252911D01*
X89530483Y-120276720D01*
%TO.C,R6*%
X92249055Y-120491006D02*
X92130007Y-120574340D01*
X92249055Y-120633863D02*
X91999055Y-120633863D01*
X91999055Y-120538625D01*
X92010960Y-120514816D01*
X92022864Y-120502911D01*
X92046674Y-120491006D01*
X92082388Y-120491006D01*
X92106198Y-120502911D01*
X92118102Y-120514816D01*
X92130007Y-120538625D01*
X92130007Y-120633863D01*
X91999055Y-120276720D02*
X91999055Y-120324340D01*
X92010960Y-120348149D01*
X92022864Y-120360054D01*
X92058579Y-120383863D01*
X92106198Y-120395768D01*
X92201436Y-120395768D01*
X92225245Y-120383863D01*
X92237150Y-120371959D01*
X92249055Y-120348149D01*
X92249055Y-120300530D01*
X92237150Y-120276720D01*
X92225245Y-120264816D01*
X92201436Y-120252911D01*
X92141912Y-120252911D01*
X92118102Y-120264816D01*
X92106198Y-120276720D01*
X92094293Y-120300530D01*
X92094293Y-120348149D01*
X92106198Y-120371959D01*
X92118102Y-120383863D01*
X92141912Y-120395768D01*
%TO.C,R11*%
X88439055Y-120610054D02*
X88320007Y-120693387D01*
X88439055Y-120752911D02*
X88189055Y-120752911D01*
X88189055Y-120657673D01*
X88200960Y-120633863D01*
X88212864Y-120621959D01*
X88236674Y-120610054D01*
X88272388Y-120610054D01*
X88296198Y-120621959D01*
X88308102Y-120633863D01*
X88320007Y-120657673D01*
X88320007Y-120752911D01*
X88439055Y-120371959D02*
X88439055Y-120514816D01*
X88439055Y-120443387D02*
X88189055Y-120443387D01*
X88224769Y-120467197D01*
X88248579Y-120491006D01*
X88260483Y-120514816D01*
X88439055Y-120133863D02*
X88439055Y-120276720D01*
X88439055Y-120205292D02*
X88189055Y-120205292D01*
X88224769Y-120229101D01*
X88248579Y-120252911D01*
X88260483Y-120276720D01*
%TO.C,C17*%
X98071245Y-118633625D02*
X98059340Y-118645530D01*
X98023626Y-118657435D01*
X97999817Y-118657435D01*
X97964102Y-118645530D01*
X97940293Y-118621720D01*
X97928388Y-118597911D01*
X97916483Y-118550292D01*
X97916483Y-118514578D01*
X97928388Y-118466959D01*
X97940293Y-118443149D01*
X97964102Y-118419340D01*
X97999817Y-118407435D01*
X98023626Y-118407435D01*
X98059340Y-118419340D01*
X98071245Y-118431244D01*
X98309340Y-118657435D02*
X98166483Y-118657435D01*
X98237912Y-118657435D02*
X98237912Y-118407435D01*
X98214102Y-118443149D01*
X98190293Y-118466959D01*
X98166483Y-118478863D01*
X98392674Y-118407435D02*
X98559340Y-118407435D01*
X98452198Y-118657435D01*
D12*
%TO.C,J3*%
X99555333Y-114634064D02*
X99555333Y-115205493D01*
X99517238Y-115319779D01*
X99441047Y-115395969D01*
X99326761Y-115434064D01*
X99250571Y-115434064D01*
X99860095Y-114634064D02*
X100355333Y-114634064D01*
X100088666Y-114938826D01*
X100202952Y-114938826D01*
X100279142Y-114976921D01*
X100317238Y-115015017D01*
X100355333Y-115091207D01*
X100355333Y-115281683D01*
X100317238Y-115357874D01*
X100279142Y-115395969D01*
X100202952Y-115434064D01*
X99974380Y-115434064D01*
X99898190Y-115395969D01*
X99860095Y-115357874D01*
D10*
%TO.C,C29*%
X79301725Y-111115534D02*
X79313630Y-111127439D01*
X79325535Y-111163153D01*
X79325535Y-111186962D01*
X79313630Y-111222677D01*
X79289820Y-111246486D01*
X79266011Y-111258391D01*
X79218392Y-111270296D01*
X79182678Y-111270296D01*
X79135059Y-111258391D01*
X79111249Y-111246486D01*
X79087440Y-111222677D01*
X79075535Y-111186962D01*
X79075535Y-111163153D01*
X79087440Y-111127439D01*
X79099344Y-111115534D01*
X79099344Y-111020296D02*
X79087440Y-111008391D01*
X79075535Y-110984581D01*
X79075535Y-110925058D01*
X79087440Y-110901248D01*
X79099344Y-110889343D01*
X79123154Y-110877439D01*
X79146963Y-110877439D01*
X79182678Y-110889343D01*
X79325535Y-111032200D01*
X79325535Y-110877439D01*
X79325535Y-110758391D02*
X79325535Y-110710772D01*
X79313630Y-110686962D01*
X79301725Y-110675058D01*
X79266011Y-110651248D01*
X79218392Y-110639343D01*
X79123154Y-110639343D01*
X79099344Y-110651248D01*
X79087440Y-110663153D01*
X79075535Y-110686962D01*
X79075535Y-110734581D01*
X79087440Y-110758391D01*
X79099344Y-110770296D01*
X79123154Y-110782200D01*
X79182678Y-110782200D01*
X79206487Y-110770296D01*
X79218392Y-110758391D01*
X79230297Y-110734581D01*
X79230297Y-110686962D01*
X79218392Y-110663153D01*
X79206487Y-110651248D01*
X79182678Y-110639343D01*
D12*
%TO.C,J17*%
X77203380Y-114877904D02*
X77203380Y-115449333D01*
X77165285Y-115563619D01*
X77089095Y-115639809D01*
X76974809Y-115677904D01*
X76898619Y-115677904D01*
X78003380Y-115677904D02*
X77546238Y-115677904D01*
X77774809Y-115677904D02*
X77774809Y-114877904D01*
X77698619Y-114992190D01*
X77622428Y-115068380D01*
X77546238Y-115106476D01*
X78270047Y-114877904D02*
X78803380Y-114877904D01*
X78460523Y-115677904D01*
D11*
%TO.C,MIC1*%
X75073130Y-111181010D02*
X75073130Y-110681010D01*
X75239797Y-111038153D01*
X75406463Y-110681010D01*
X75406463Y-111181010D01*
X75644559Y-111181010D02*
X75644559Y-110681010D01*
X76168368Y-111133391D02*
X76144559Y-111157200D01*
X76073130Y-111181010D01*
X76025511Y-111181010D01*
X75954082Y-111157200D01*
X75906463Y-111109581D01*
X75882654Y-111061962D01*
X75858844Y-110966724D01*
X75858844Y-110895296D01*
X75882654Y-110800058D01*
X75906463Y-110752439D01*
X75954082Y-110704820D01*
X76025511Y-110681010D01*
X76073130Y-110681010D01*
X76144559Y-110704820D01*
X76168368Y-110728629D01*
X76644559Y-111181010D02*
X76358844Y-111181010D01*
X76501701Y-111181010D02*
X76501701Y-110681010D01*
X76454082Y-110752439D01*
X76406463Y-110800058D01*
X76358844Y-110823867D01*
D10*
%TO.C,C30*%
X105463725Y-111168874D02*
X105475630Y-111180779D01*
X105487535Y-111216493D01*
X105487535Y-111240302D01*
X105475630Y-111276017D01*
X105451820Y-111299826D01*
X105428011Y-111311731D01*
X105380392Y-111323636D01*
X105344678Y-111323636D01*
X105297059Y-111311731D01*
X105273249Y-111299826D01*
X105249440Y-111276017D01*
X105237535Y-111240302D01*
X105237535Y-111216493D01*
X105249440Y-111180779D01*
X105261344Y-111168874D01*
X105237535Y-111085540D02*
X105237535Y-110930779D01*
X105332773Y-111014112D01*
X105332773Y-110978398D01*
X105344678Y-110954588D01*
X105356582Y-110942683D01*
X105380392Y-110930779D01*
X105439916Y-110930779D01*
X105463725Y-110942683D01*
X105475630Y-110954588D01*
X105487535Y-110978398D01*
X105487535Y-111049826D01*
X105475630Y-111073636D01*
X105463725Y-111085540D01*
X105237535Y-110776017D02*
X105237535Y-110752207D01*
X105249440Y-110728398D01*
X105261344Y-110716493D01*
X105285154Y-110704588D01*
X105332773Y-110692683D01*
X105392297Y-110692683D01*
X105439916Y-110704588D01*
X105463725Y-110716493D01*
X105475630Y-110728398D01*
X105487535Y-110752207D01*
X105487535Y-110776017D01*
X105475630Y-110799826D01*
X105463725Y-110811731D01*
X105439916Y-110823636D01*
X105392297Y-110835540D01*
X105332773Y-110835540D01*
X105285154Y-110823636D01*
X105261344Y-110811731D01*
X105249440Y-110799826D01*
X105237535Y-110776017D01*
D12*
%TO.C,J5*%
X106771473Y-114913464D02*
X106771473Y-115484893D01*
X106733378Y-115599179D01*
X106657187Y-115675369D01*
X106542901Y-115713464D01*
X106466711Y-115713464D01*
X107533378Y-114913464D02*
X107152425Y-114913464D01*
X107114330Y-115294417D01*
X107152425Y-115256321D01*
X107228616Y-115218226D01*
X107419092Y-115218226D01*
X107495282Y-115256321D01*
X107533378Y-115294417D01*
X107571473Y-115370607D01*
X107571473Y-115561083D01*
X107533378Y-115637274D01*
X107495282Y-115675369D01*
X107419092Y-115713464D01*
X107228616Y-115713464D01*
X107152425Y-115675369D01*
X107114330Y-115637274D01*
D11*
%TO.C,MIC2*%
X107978830Y-111196250D02*
X107978830Y-110696250D01*
X108145497Y-111053393D01*
X108312163Y-110696250D01*
X108312163Y-111196250D01*
X108550259Y-111196250D02*
X108550259Y-110696250D01*
X109074068Y-111148631D02*
X109050259Y-111172440D01*
X108978830Y-111196250D01*
X108931211Y-111196250D01*
X108859782Y-111172440D01*
X108812163Y-111124821D01*
X108788354Y-111077202D01*
X108764544Y-110981964D01*
X108764544Y-110910536D01*
X108788354Y-110815298D01*
X108812163Y-110767679D01*
X108859782Y-110720060D01*
X108931211Y-110696250D01*
X108978830Y-110696250D01*
X109050259Y-110720060D01*
X109074068Y-110743869D01*
X109264544Y-110743869D02*
X109288354Y-110720060D01*
X109335973Y-110696250D01*
X109455020Y-110696250D01*
X109502640Y-110720060D01*
X109526449Y-110743869D01*
X109550259Y-110791488D01*
X109550259Y-110839107D01*
X109526449Y-110910536D01*
X109240735Y-111196250D01*
X109550259Y-111196250D01*
D12*
%TO.C,J10*%
X98920380Y-127450904D02*
X98920380Y-128022333D01*
X98882285Y-128136619D01*
X98806095Y-128212809D01*
X98691809Y-128250904D01*
X98615619Y-128250904D01*
X99720380Y-128250904D02*
X99263238Y-128250904D01*
X99491809Y-128250904D02*
X99491809Y-127450904D01*
X99415619Y-127565190D01*
X99339428Y-127641380D01*
X99263238Y-127679476D01*
X100215619Y-127450904D02*
X100291809Y-127450904D01*
X100368000Y-127489000D01*
X100406095Y-127527095D01*
X100444190Y-127603285D01*
X100482285Y-127755666D01*
X100482285Y-127946142D01*
X100444190Y-128098523D01*
X100406095Y-128174714D01*
X100368000Y-128212809D01*
X100291809Y-128250904D01*
X100215619Y-128250904D01*
X100139428Y-128212809D01*
X100101333Y-128174714D01*
X100063238Y-128098523D01*
X100025142Y-127946142D01*
X100025142Y-127755666D01*
X100063238Y-127603285D01*
X100101333Y-127527095D01*
X100139428Y-127489000D01*
X100215619Y-127450904D01*
D11*
%TO.C,D3*%
X78116952Y-83665190D02*
X78116952Y-83165190D01*
X78236000Y-83165190D01*
X78307428Y-83189000D01*
X78355047Y-83236619D01*
X78378857Y-83284238D01*
X78402666Y-83379476D01*
X78402666Y-83450904D01*
X78378857Y-83546142D01*
X78355047Y-83593761D01*
X78307428Y-83641380D01*
X78236000Y-83665190D01*
X78116952Y-83665190D01*
X78569333Y-83165190D02*
X78878857Y-83165190D01*
X78712190Y-83355666D01*
X78783619Y-83355666D01*
X78831238Y-83379476D01*
X78855047Y-83403285D01*
X78878857Y-83450904D01*
X78878857Y-83569952D01*
X78855047Y-83617571D01*
X78831238Y-83641380D01*
X78783619Y-83665190D01*
X78640761Y-83665190D01*
X78593142Y-83641380D01*
X78569333Y-83617571D01*
D14*
%TO.C,C24*%
X83741640Y-76927520D02*
X83741640Y-76427520D01*
X84741640Y-76427520D02*
X84741640Y-76927520D01*
X84741640Y-76927520D02*
X83741640Y-76927520D01*
X83741640Y-76427520D02*
X84741640Y-76427520D01*
%TO.C,C25*%
X85610300Y-90492200D02*
X85610300Y-89492200D01*
X86110300Y-90492200D02*
X85610300Y-90492200D01*
X85610300Y-89492200D02*
X86110300Y-89492200D01*
X86110300Y-89492200D02*
X86110300Y-90492200D01*
D15*
%TO.C,D1*%
X77538200Y-85711200D02*
X77538200Y-87161200D01*
X76538200Y-85711200D02*
X76538200Y-87161200D01*
D14*
X76863200Y-85936200D02*
G75*
G03*
X76863200Y-85936200I-100000J0D01*
G01*
%TO.C,U5*%
X95191480Y-107954040D02*
X96131480Y-107954040D01*
X96131480Y-107954040D02*
X96131480Y-106554040D01*
X96131480Y-106554040D02*
X95361480Y-106554040D01*
X95191480Y-106724040D02*
X95361480Y-106554040D01*
X95191480Y-106724040D02*
X95191480Y-107954040D01*
%TO.C,U6*%
X81451640Y-75851020D02*
X87051640Y-75851020D01*
X81451640Y-72551020D02*
X86251640Y-72551020D01*
X81451640Y-72551020D02*
X81451640Y-75851020D01*
X87051640Y-73351020D02*
X87051640Y-75851020D01*
X86251640Y-72551020D02*
X87051640Y-73351020D01*
%TO.C,R14*%
X99890960Y-118294340D02*
X100890960Y-118294340D01*
X100890960Y-118294340D02*
X100890960Y-118794340D01*
X99890960Y-118794340D02*
X99890960Y-118294340D01*
X100890960Y-118794340D02*
X99890960Y-118794340D01*
%TO.C,C16*%
X98235960Y-120949340D02*
X98235960Y-119949340D01*
X98735960Y-119949340D02*
X98735960Y-120949340D01*
X98735960Y-120949340D02*
X98235960Y-120949340D01*
X98235960Y-119949340D02*
X98735960Y-119949340D01*
%TO.C,C18*%
X96965960Y-119949340D02*
X97465960Y-119949340D01*
X97465960Y-120949340D02*
X96965960Y-120949340D01*
X97465960Y-119949340D02*
X97465960Y-120949340D01*
X96965960Y-120949340D02*
X96965960Y-119949340D01*
%TO.C,C19*%
X101275960Y-120949340D02*
X100775960Y-120949340D01*
X100775960Y-120949340D02*
X100775960Y-119949340D01*
X101275960Y-119949340D02*
X101275960Y-120949340D01*
X100775960Y-119949340D02*
X101275960Y-119949340D01*
%TO.C,C20*%
X99505960Y-119949340D02*
X100005960Y-119949340D01*
X100005960Y-120949340D02*
X99505960Y-120949340D01*
X99505960Y-120949340D02*
X99505960Y-119949340D01*
X100005960Y-119949340D02*
X100005960Y-120949340D01*
%TO.C,C15*%
X93155960Y-119949340D02*
X93655960Y-119949340D01*
X93655960Y-119949340D02*
X93655960Y-120949340D01*
X93155960Y-120949340D02*
X93155960Y-119949340D01*
X93655960Y-120949340D02*
X93155960Y-120949340D01*
%TO.C,R5*%
X91115960Y-120949340D02*
X90615960Y-120949340D01*
X90615960Y-120949340D02*
X90615960Y-119949340D01*
X91115960Y-119949340D02*
X91115960Y-120949340D01*
X90615960Y-119949340D02*
X91115960Y-119949340D01*
%TO.C,R8*%
X94925960Y-119949340D02*
X94925960Y-120949340D01*
X94925960Y-120949340D02*
X94425960Y-120949340D01*
X94425960Y-119949340D02*
X94925960Y-119949340D01*
X94425960Y-120949340D02*
X94425960Y-119949340D01*
%TO.C,R12*%
X89845960Y-117790340D02*
X89845960Y-118790340D01*
X89845960Y-118790340D02*
X89345960Y-118790340D01*
X89345960Y-117790340D02*
X89845960Y-117790340D01*
X89345960Y-118790340D02*
X89345960Y-117790340D01*
%TO.C,R13*%
X88575960Y-118790340D02*
X88075960Y-118790340D01*
X88075960Y-117790340D02*
X88575960Y-117790340D01*
X88575960Y-117790340D02*
X88575960Y-118790340D01*
X88075960Y-118790340D02*
X88075960Y-117790340D01*
%TO.C,U3*%
X91913960Y-118131340D02*
X91913960Y-114131340D01*
X91913960Y-114131340D02*
X95913960Y-114131340D01*
X95913960Y-117131340D02*
X94913960Y-118131340D01*
X94913960Y-118131340D02*
X91913960Y-118131340D01*
X95913960Y-114131340D02*
X95913960Y-117131340D01*
D15*
%TO.C,J14*%
X97904800Y-93099200D02*
X97904800Y-93499200D01*
X93204800Y-93499200D02*
X97904800Y-93499200D01*
X97904800Y-93499200D02*
X97904800Y-97099200D01*
X93204800Y-93499200D02*
X93204800Y-93099200D01*
X93204800Y-97099200D02*
X93204800Y-93499200D01*
X97904800Y-97099200D02*
X93204800Y-97099200D01*
X93204800Y-93099200D02*
X97904800Y-93099200D01*
D14*
X94004800Y-92649200D02*
G75*
G03*
X94004800Y-92649200I-50000J0D01*
G01*
D15*
%TO.C,J15*%
X86220800Y-84580200D02*
X81520800Y-84580200D01*
X86220800Y-84980200D02*
X81520800Y-84980200D01*
X86220800Y-80980200D02*
X86220800Y-84580200D01*
X86220800Y-84580200D02*
X86220800Y-84980200D01*
X81520800Y-84580200D02*
X81520800Y-80980200D01*
X81520800Y-84980200D02*
X81520800Y-84580200D01*
X81520800Y-80980200D02*
X86220800Y-80980200D01*
D14*
X85520800Y-85430200D02*
G75*
G03*
X85520800Y-85430200I-50000J0D01*
G01*
D15*
%TO.C,J13*%
X98044680Y-104463840D02*
X98044680Y-104863840D01*
X93344680Y-100863840D02*
X98044680Y-100863840D01*
X98044680Y-100863840D02*
X98044680Y-104463840D01*
X93344680Y-104463840D02*
X93344680Y-100863840D01*
X98044680Y-104463840D02*
X93344680Y-104463840D01*
X93344680Y-104863840D02*
X93344680Y-104463840D01*
X98044680Y-104863840D02*
X93344680Y-104863840D01*
D14*
X97344680Y-105313840D02*
G75*
G03*
X97344680Y-105313840I-50000J0D01*
G01*
%TO.C,R17*%
X86121050Y-87206200D02*
X86121050Y-88206200D01*
X85621050Y-88206200D02*
X85621050Y-87206200D01*
X85621050Y-87206200D02*
X86121050Y-87206200D01*
X86121050Y-88206200D02*
X85621050Y-88206200D01*
%TO.C,R20*%
X83517550Y-88206200D02*
X83017550Y-88206200D01*
X83017550Y-88206200D02*
X83017550Y-87206200D01*
X83017550Y-87206200D02*
X83517550Y-87206200D01*
X83517550Y-87206200D02*
X83517550Y-88206200D01*
%TO.C,R21*%
X84819300Y-88206200D02*
X84319300Y-88206200D01*
X84819300Y-87206200D02*
X84819300Y-88206200D01*
X84319300Y-88206200D02*
X84319300Y-87206200D01*
X84319300Y-87206200D02*
X84819300Y-87206200D01*
%TO.C,U9*%
X78240000Y-91505000D02*
X78240000Y-90105000D01*
X78740000Y-91505000D02*
X78240000Y-91505000D01*
X78740000Y-91505000D02*
X79240000Y-91005000D01*
X78240000Y-90105000D02*
X79240000Y-90105000D01*
X79240000Y-90105000D02*
X79240000Y-91005000D01*
%TO.C,R22*%
X89460960Y-116508340D02*
X88460960Y-116508340D01*
X89460960Y-116008340D02*
X89460960Y-116508340D01*
X88460960Y-116008340D02*
X89460960Y-116008340D01*
X88460960Y-116508340D02*
X88460960Y-116008340D01*
%TO.C,F1*%
X78140000Y-86757000D02*
X79340000Y-86757000D01*
X78140000Y-88757000D02*
X78140000Y-86757000D01*
X79340000Y-86757000D02*
X79340000Y-88757000D01*
X79340000Y-88757000D02*
X78140000Y-88757000D01*
D15*
%TO.C,D2*%
X71254800Y-96961200D02*
X69054800Y-96961200D01*
X69054800Y-96961200D02*
X69054800Y-94961200D01*
X69054800Y-94961200D02*
X71254800Y-94961200D01*
X71254800Y-94961200D02*
X71254800Y-96961200D01*
D16*
X72027756Y-96591200D02*
G75*
G03*
X72027756Y-96591200I-102956J0D01*
G01*
D15*
%TO.C,U1*%
X103181800Y-90928200D02*
X103181800Y-80928200D01*
X88181800Y-90928200D02*
X103181800Y-90928200D01*
X103181800Y-80928200D02*
X88181800Y-80928200D01*
X88181800Y-80928200D02*
X88181800Y-90928200D01*
D14*
%TO.C,C1*%
X86922800Y-85920200D02*
X86922800Y-84920200D01*
X87422800Y-85920200D02*
X86922800Y-85920200D01*
X86922800Y-84920200D02*
X87422800Y-84920200D01*
X87422800Y-84920200D02*
X87422800Y-85920200D01*
%TO.C,C2*%
X87422800Y-88206200D02*
X86922800Y-88206200D01*
X86922800Y-88206200D02*
X86922800Y-87206200D01*
X87422800Y-87206200D02*
X87422800Y-88206200D01*
X86922800Y-87206200D02*
X87422800Y-87206200D01*
%TO.C,C26*%
X86922800Y-89492200D02*
X87422800Y-89492200D01*
X87422800Y-90492200D02*
X86922800Y-90492200D01*
X86922800Y-90492200D02*
X86922800Y-89492200D01*
X87422800Y-89492200D02*
X87422800Y-90492200D01*
D15*
%TO.C,SW1*%
X76607800Y-97211200D02*
X76607800Y-94711200D01*
X73607800Y-94711200D02*
X73607800Y-97211200D01*
%TO.C,J1*%
X75145800Y-90877200D02*
X75145800Y-81487200D01*
X75145800Y-81487200D02*
X65495800Y-81487200D01*
X65495800Y-90877200D02*
X75145800Y-90877200D01*
X68295800Y-79582200D02*
X68295800Y-95582200D01*
X65495800Y-81487200D02*
X65495800Y-90877200D01*
D16*
X76195800Y-83432200D02*
G75*
G03*
X76195800Y-83432200I-100000J0D01*
G01*
D14*
%TO.C,C27*%
X84797800Y-90492200D02*
X84297800Y-90492200D01*
X84297800Y-89492200D02*
X84797800Y-89492200D01*
X84797800Y-89492200D02*
X84797800Y-90492200D01*
X84297800Y-90492200D02*
X84297800Y-89492200D01*
%TO.C,C28*%
X82985300Y-90492200D02*
X82985300Y-89492200D01*
X83485300Y-89492200D02*
X83485300Y-90492200D01*
X83485300Y-90492200D02*
X82985300Y-90492200D01*
X82985300Y-89492200D02*
X83485300Y-89492200D01*
%TO.C,U8*%
X80703800Y-86452200D02*
X82203800Y-86452200D01*
X82203800Y-86452200D02*
X82203800Y-88452200D01*
X80203800Y-88452200D02*
X80203800Y-86952200D01*
X80203800Y-86952200D02*
X80703800Y-86452200D01*
X82203800Y-88452200D02*
X80203800Y-88452200D01*
%TO.C,R18*%
X80344200Y-90492200D02*
X80344200Y-89492200D01*
X80844200Y-90492200D02*
X80344200Y-90492200D01*
X80844200Y-89492200D02*
X80844200Y-90492200D01*
X80344200Y-89492200D02*
X80844200Y-89492200D01*
%TO.C,R19*%
X81665000Y-90492200D02*
X81665000Y-89492200D01*
X82165000Y-89492200D02*
X82165000Y-90492200D01*
X81665000Y-89492200D02*
X82165000Y-89492200D01*
X82165000Y-90492200D02*
X81665000Y-90492200D01*
D15*
%TO.C,J8*%
X87477020Y-112722160D02*
X87477020Y-117422160D01*
X83477020Y-117422160D02*
X83477020Y-112722160D01*
X83477020Y-112722160D02*
X87077020Y-112722160D01*
X87077020Y-112722160D02*
X87077020Y-117422160D01*
X87477020Y-117422160D02*
X87077020Y-117422160D01*
X87077020Y-112722160D02*
X87477020Y-112722160D01*
X87077020Y-117422160D02*
X83477020Y-117422160D01*
D14*
X87977020Y-113472160D02*
G75*
G03*
X87977020Y-113472160I-50000J0D01*
G01*
%TO.C,R7*%
X96195960Y-119949340D02*
X96195960Y-120949340D01*
X95695960Y-119949340D02*
X96195960Y-119949340D01*
X96195960Y-120949340D02*
X95695960Y-120949340D01*
X95695960Y-120949340D02*
X95695960Y-119949340D01*
%TO.C,C21*%
X89845960Y-120949340D02*
X89345960Y-120949340D01*
X89345960Y-120949340D02*
X89345960Y-119949340D01*
X89845960Y-119949340D02*
X89845960Y-120949340D01*
X89345960Y-119949340D02*
X89845960Y-119949340D01*
%TO.C,R6*%
X92385960Y-119949340D02*
X92385960Y-120949340D01*
X91885960Y-119949340D02*
X92385960Y-119949340D01*
X91885960Y-120949340D02*
X91885960Y-119949340D01*
X92385960Y-120949340D02*
X91885960Y-120949340D01*
%TO.C,R11*%
X88575960Y-119949340D02*
X88575960Y-120949340D01*
X88575960Y-120949340D02*
X88075960Y-120949340D01*
X88075960Y-120949340D02*
X88075960Y-119949340D01*
X88075960Y-119949340D02*
X88575960Y-119949340D01*
%TO.C,C17*%
X97731960Y-118794340D02*
X97731960Y-118294340D01*
X97731960Y-118294340D02*
X98731960Y-118294340D01*
X98731960Y-118794340D02*
X97731960Y-118794340D01*
X98731960Y-118294340D02*
X98731960Y-118794340D01*
D15*
%TO.C,J3*%
X97674960Y-117422160D02*
X97274960Y-117422160D01*
X97674960Y-117422160D02*
X97674960Y-112722160D01*
X101274960Y-112722160D02*
X101274960Y-117422160D01*
X97274960Y-117422160D02*
X97274960Y-112722160D01*
X97674960Y-112722160D02*
X101274960Y-112722160D01*
X97274960Y-112722160D02*
X97674960Y-112722160D01*
X101274960Y-117422160D02*
X97674960Y-117422160D01*
D14*
X96874960Y-116672160D02*
G75*
G03*
X96874960Y-116672160I-50000J0D01*
G01*
%TO.C,C29*%
X79462440Y-111454820D02*
X78962440Y-111454820D01*
X79462440Y-110454820D02*
X79462440Y-111454820D01*
X78962440Y-110454820D02*
X79462440Y-110454820D01*
X78962440Y-111454820D02*
X78962440Y-110454820D01*
D15*
%TO.C,J17*%
X75861440Y-112986320D02*
X79461440Y-112986320D01*
X75861440Y-117686320D02*
X75861440Y-112986320D01*
X75461440Y-117686320D02*
X75461440Y-112986320D01*
X79461440Y-117686320D02*
X75861440Y-117686320D01*
X75461440Y-112986320D02*
X75861440Y-112986320D01*
X79461440Y-112986320D02*
X79461440Y-117686320D01*
X75861440Y-117686320D02*
X75461440Y-117686320D01*
D14*
X75061440Y-116936320D02*
G75*
G03*
X75061440Y-116936320I-50000J0D01*
G01*
%TO.C,MIC1*%
X74806940Y-109634820D02*
X74806940Y-112274820D01*
X78306940Y-109629820D02*
X74806940Y-109629820D01*
X78306940Y-109634820D02*
X78306940Y-112274820D01*
X78306940Y-112279820D02*
X74806940Y-112279820D01*
%TO.C,C30*%
X105624440Y-110508160D02*
X105624440Y-111508160D01*
X105624440Y-111508160D02*
X105124440Y-111508160D01*
X105124440Y-110508160D02*
X105624440Y-110508160D01*
X105124440Y-111508160D02*
X105124440Y-110508160D01*
D15*
%TO.C,J5*%
X109138140Y-117701560D02*
X108738140Y-117701560D01*
X108738140Y-113001560D02*
X109138140Y-113001560D01*
X105138140Y-117701560D02*
X105138140Y-113001560D01*
X105138140Y-113001560D02*
X108738140Y-113001560D01*
X109138140Y-113001560D02*
X109138140Y-117701560D01*
X108738140Y-117701560D02*
X105138140Y-117701560D01*
X108738140Y-113001560D02*
X108738140Y-117701560D01*
D14*
X109638140Y-113751560D02*
G75*
G03*
X109638140Y-113751560I-50000J0D01*
G01*
%TO.C,MIC2*%
X106292640Y-109645060D02*
X109792640Y-109645060D01*
X109792640Y-112290060D02*
X109792640Y-109650060D01*
X106292640Y-112295060D02*
X109792640Y-112295060D01*
X106292640Y-112290060D02*
X106292640Y-109650060D01*
%TO.C,D3*%
X79883000Y-82689000D02*
X79883000Y-83089000D01*
X79483000Y-83689000D02*
X79883000Y-83089000D01*
X79883000Y-83089000D02*
X80433000Y-83089000D01*
X79883000Y-83089000D02*
X79333000Y-83089000D01*
X80783000Y-84839000D02*
X78983000Y-84839000D01*
X80783000Y-82039000D02*
X80783000Y-84839000D01*
X79883000Y-83689000D02*
X79883000Y-84189000D01*
X79883000Y-83089000D02*
X80283000Y-83689000D01*
X78983000Y-82039000D02*
X80783000Y-82039000D01*
X78983000Y-84839000D02*
X78983000Y-82039000D01*
X80283000Y-83689000D02*
X79483000Y-83689000D01*
%TD*%
M02*
