%TF.GenerationSoftware,KiCad,Pcbnew,6.0.11+dfsg-1*%
%TF.CreationDate,2026-05-20T21:14:43+00:00*%
%TF.ProjectId,Lifedatalink_v1_revB_compat,4c696665-6461-4746-916c-696e6b5f7631,rev?*%
%TF.SameCoordinates,Original*%
%TF.FileFunction,Copper,L2,Inr*%
%TF.FilePolarity,Positive*%
%FSLAX46Y46*%
G04 Gerber Fmt 4.6, Leading zero omitted, Abs format (unit mm)*
G04 Created by KiCad (PCBNEW 6.0.11+dfsg-1) date 2026-05-20 21:14:43*
%MOMM*%
%LPD*%
G01*
G04 APERTURE LIST*
%TA.AperFunction,ComponentPad*%
%ADD10C,0.650000*%
%TD*%
%TA.AperFunction,ComponentPad*%
%ADD11O,2.300000X1.150000*%
%TD*%
%TA.AperFunction,ComponentPad*%
%ADD12C,12.000000*%
%TD*%
%TA.AperFunction,ComponentPad*%
%ADD13C,3.800000*%
%TD*%
%TA.AperFunction,ViaPad*%
%ADD14C,0.800000*%
%TD*%
%TA.AperFunction,ViaPad*%
%ADD15C,0.400000*%
%TD*%
%TA.AperFunction,ViaPad*%
%ADD16C,0.600000*%
%TD*%
%TA.AperFunction,Conductor*%
%ADD17C,0.152400*%
%TD*%
%TA.AperFunction,Conductor*%
%ADD18C,0.250000*%
%TD*%
%TA.AperFunction,Conductor*%
%ADD19C,0.300000*%
%TD*%
%ADD20C,0.350000*%
%ADD21C,0.200000*%
%ADD22C,0.300000*%
%ADD23O,1.650000X0.650000*%
%ADD24C,0.324999*%
G04 APERTURE END LIST*
D10*
%TO.N,GND*%
%TO.C,J1*%
X73695800Y-88982200D03*
%TO.N,Net-(J1-PadB2)*%
X72995800Y-88582200D03*
%TO.N,Net-(J1-PadB3)*%
X72995800Y-87782200D03*
%TO.N,+5V*%
X73695800Y-87382200D03*
%TO.N,Net-(J1-PadB5)*%
X72995800Y-86982200D03*
%TO.N,/BL654_USB_DP*%
X73695800Y-86582200D03*
%TO.N,/BL654_USB_DN*%
X73695800Y-85782200D03*
%TO.N,Net-(J1-PadB8)*%
X72995800Y-85382200D03*
%TO.N,+5V*%
X73695800Y-84982200D03*
%TO.N,Net-(J1-PadB10)*%
X72995800Y-84582200D03*
%TO.N,Net-(J1-PadB11)*%
X72995800Y-83782200D03*
%TO.N,GND*%
X73695800Y-83382200D03*
D11*
X72945800Y-81582200D03*
X72945800Y-90782200D03*
X69945800Y-81582200D03*
X69945800Y-90782200D03*
%TD*%
D12*
%TO.N,/ECG_LEFT_ARM*%
%TO.C,J6*%
X116713000Y-113538000D03*
%TD*%
D13*
%TO.N,GND*%
%TO.C,J19*%
X85227160Y-120042940D03*
%TD*%
%TO.N,GND*%
%TO.C,J20*%
X80594200Y-93929200D03*
%TD*%
D12*
%TO.N,/ECG_RIGHT_ARM*%
%TO.C,J7*%
X67818000Y-113538000D03*
%TD*%
%TO.N,/ECG_RIGHT_LEG*%
%TO.C,J18*%
X99568000Y-137668000D03*
%TD*%
D14*
%TO.N,GND*%
X73797160Y-110500160D03*
D15*
X76298140Y-113339320D03*
D14*
X78975550Y-115590642D03*
X109463840Y-116850160D03*
D16*
X107492042Y-110970060D03*
D15*
X82679540Y-74635360D03*
X72015500Y-95015500D03*
X86627525Y-86537792D03*
X100328357Y-121920011D03*
X88491689Y-90787736D03*
X100553337Y-116203230D03*
X80981202Y-88214700D03*
X86751160Y-116969540D03*
X97267061Y-105020721D03*
X100975160Y-114099340D03*
X79156982Y-91999222D03*
X102133400Y-91389200D03*
X85500000Y-76700000D03*
X99356262Y-117874188D03*
X91690734Y-93248234D03*
X96995953Y-121643790D03*
X96301560Y-105486200D03*
X88623570Y-115431645D03*
D14*
X76078651Y-91857213D03*
D15*
X98247200Y-91389200D03*
X90908243Y-117702730D03*
X84993766Y-113316734D03*
D14*
X95021400Y-83223100D03*
D15*
X93682077Y-112894185D03*
X100838000Y-91389200D03*
X81499115Y-77102619D03*
X87300313Y-81437590D03*
X83860457Y-89777531D03*
X70269100Y-92351350D03*
X99542600Y-91389200D03*
X93522579Y-95703795D03*
X91932760Y-121668540D03*
X82402569Y-82911271D03*
X88350774Y-85656238D03*
X86507320Y-89984580D03*
X95315344Y-113410350D03*
X100111560Y-117629940D03*
%TO.N,+3V3*%
X78298140Y-114339320D03*
X77826664Y-112507270D03*
D14*
X105961180Y-110238540D03*
X108424980Y-112798860D03*
X85613403Y-91721097D03*
D15*
X90891360Y-121668540D03*
X88072528Y-86486487D03*
D14*
X69334378Y-94338140D03*
D15*
X74173080Y-94866460D03*
X87914480Y-88508840D03*
X94488000Y-104775000D03*
X94457519Y-105664000D03*
X93247381Y-113352751D03*
X94472615Y-95660351D03*
D14*
X85156213Y-85623651D03*
D15*
X92847160Y-121617740D03*
X78613000Y-109727988D03*
X98892360Y-113540540D03*
X77754897Y-91100057D03*
D14*
X84769960Y-115369340D03*
D15*
X83911440Y-87708740D03*
D14*
X83045195Y-92436208D03*
D15*
X91359010Y-117163910D03*
X94142570Y-113317537D03*
X75872340Y-94096840D03*
X87599520Y-118798340D03*
D14*
X83058421Y-76550861D03*
X85855850Y-84739214D03*
%TO.N,+5V*%
X77330300Y-84927440D03*
X76206885Y-87855638D03*
X76403268Y-90262927D03*
X77431900Y-94513400D03*
D15*
X87847989Y-90074100D03*
D14*
%TO.N,+BATT*%
X92633800Y-95123000D03*
D15*
X89077800Y-95808800D03*
D14*
X82677000Y-95631000D03*
D16*
%TO.N,Net-(C10-Pad2)*%
X96072960Y-114099340D03*
D15*
%TO.N,Net-(C11-Pad2)*%
X95971360Y-112981740D03*
%TO.N,Net-(C12-Pad2)*%
X93018953Y-119157130D03*
%TO.N,Net-(C13-Pad2)*%
X95801194Y-117897235D03*
%TO.N,Net-(C13-Pad1)*%
X96277825Y-118176487D03*
%TO.N,Net-(C14-Pad2)*%
X100028972Y-114339070D03*
%TO.N,Net-(C14-Pad1)*%
X99982171Y-113568404D03*
X97160730Y-115843322D03*
%TO.N,Net-(C15-Pad2)*%
X91619818Y-119302121D03*
X96684418Y-119010374D03*
%TO.N,Net-(C15-Pad1)*%
X99118420Y-120469662D03*
X99120960Y-121973340D03*
%TO.N,Net-(C20-Pad2)*%
X96084726Y-118765355D03*
X100330000Y-120142000D03*
%TO.N,Net-(C21-Pad2)*%
X101279960Y-119306340D03*
X88960960Y-121719340D03*
X88963500Y-119072660D03*
%TO.N,/RLDINV*%
X93586232Y-118888084D03*
X90009468Y-119583886D03*
%TO.N,+1V8*%
X80856470Y-91265648D03*
D14*
X86417708Y-91211016D03*
X81726017Y-73949937D03*
X83506719Y-86210647D03*
D15*
X85181734Y-91042754D03*
X79936340Y-91607640D03*
X82214495Y-86210647D03*
X81862892Y-91160600D03*
X84675967Y-85037124D03*
%TO.N,/BL654_UART_RX*%
X71631412Y-94317089D03*
X88039127Y-87037888D03*
%TO.N,/BL654_UART_TX*%
X87756740Y-83819921D03*
X72052180Y-92351350D03*
%TO.N,/BL654_SWDIO*%
X73492360Y-92364050D03*
X85227508Y-89980754D03*
X97389989Y-91143989D03*
%TO.N,/BL654_SWDCLK*%
X83831939Y-90988046D03*
X74599800Y-92250256D03*
X96833773Y-91137911D03*
%TO.N,Net-(R8-Pad1)*%
X95532398Y-118774936D03*
X94377716Y-121643790D03*
%TO.N,/RLDIN*%
X89032364Y-117971303D03*
X94133515Y-119157627D03*
%TO.N,/RLDOUT*%
X94685683Y-119141215D03*
X91294268Y-118855829D03*
%TO.N,Net-(R15-Pad1)*%
X91943852Y-118846569D03*
%TO.N,Net-(R16-Pad1)*%
X90693535Y-118699515D03*
%TO.N,/TMP_ALERT*%
X94779140Y-92779727D03*
X95076553Y-91082480D03*
%TO.N,/~{ADS_PWDN_RESET}*%
X88434383Y-91528321D03*
X90603190Y-88493600D03*
%TO.N,/ADS_SPI_MOSI*%
X86768214Y-91957091D03*
X92982221Y-88771883D03*
%TO.N,/~{ADS_SPI_CS}*%
X87974930Y-91221627D03*
X90148805Y-91207073D03*
%TO.N,/ADS_SPI_SCLK*%
X93758934Y-88338012D03*
X84033092Y-92158827D03*
%TO.N,/ADS_SPI_MISO*%
X93362130Y-91192806D03*
X85037903Y-92205786D03*
%TO.N,/~{ADS_DRDY}*%
X89291594Y-91277627D03*
X90068317Y-88977911D03*
%TO.N,/ADS_CLK*%
X89017490Y-92248841D03*
X90616294Y-89047772D03*
%TO.N,/~{MAX_INT}*%
X86048230Y-83372388D03*
X88285100Y-83981152D03*
%TO.N,/BL654_USB_DP*%
X75903399Y-85871477D03*
D16*
X91835729Y-91241835D03*
%TO.N,/BL654_USB_DN*%
X91031800Y-91247700D03*
D15*
X75897614Y-86485810D03*
%TO.N,/TMP_ADD0*%
X96635687Y-91997770D03*
X95976562Y-91175035D03*
%TO.N,/BL654_I2C_SDA_HV*%
X95305880Y-92989400D03*
X95536044Y-88672819D03*
X90446886Y-86896579D03*
X83919060Y-88697450D03*
X78397099Y-89598500D03*
X90398600Y-85115400D03*
%TO.N,/BL654_I2C_SCL_HV*%
X77637534Y-90550184D03*
X82542431Y-90899408D03*
X90298379Y-84034510D03*
X92880180Y-92870020D03*
X92982221Y-83940217D03*
%TO.N,/BL654_I2C_SDA_LV*%
X85958865Y-85491483D03*
X82019779Y-88729610D03*
%TO.N,/BL654_I2C_SCL_LV*%
X82691128Y-85566410D03*
X84005988Y-84996587D03*
%TO.N,/BL654_I2S_SCK*%
X93809899Y-91975137D03*
X94220058Y-89184010D03*
%TO.N,/BL654_I2S_WS*%
X94219342Y-91225417D03*
X95077269Y-89072150D03*
D14*
%TO.N,/VIN*%
X77135124Y-89158936D03*
X70167398Y-96461580D03*
D15*
%TO.N,/WS2812_DATA*%
X97421700Y-88900000D03*
X70089987Y-95544640D03*
%TO.N,/MCP73831_STAT*%
X74692862Y-93967662D03*
X90020790Y-85725000D03*
%TO.N,Net-(SW1-Pad1)*%
X74917300Y-96520000D03*
X96021510Y-88952363D03*
D14*
%TO.N,/VIN_FUSE*%
X78300457Y-85206503D03*
X78219300Y-83732084D03*
D15*
%TO.N,/BL654_I2S_SD_EXT*%
X77208380Y-113680240D03*
X77198140Y-110939320D03*
X90316958Y-113945340D03*
X100191264Y-115786023D03*
%TO.N,/BL654_I2S_SCK_EXT*%
X99186611Y-115329915D03*
X85911093Y-113794140D03*
X89633833Y-113740305D03*
%TO.N,/BL654_I2S_WS_EXT*%
X89081422Y-113740407D03*
X88041024Y-116970652D03*
X99189637Y-114777512D03*
%TO.N,/~{ADS_DRDY_EXT}*%
X88672284Y-116945864D03*
%TO.N,/ADS_CLK_EXT*%
X87928381Y-113716730D03*
%TO.N,/ADS_START_EXT*%
X88244794Y-113263914D03*
%TO.N,/~{ADS_PWDN_RESET_EXT}*%
X87130989Y-113131951D03*
%TO.N,/~{ADS_SPI_CS_EXT}*%
X85664871Y-114728072D03*
X91169340Y-113908733D03*
%TO.N,/ADS_SPI_MOSI_EXT*%
X90340454Y-114527991D03*
X86063769Y-115110223D03*
%TO.N,/ADS_SPI_MISO_EXT*%
X85506560Y-115547140D03*
X90008368Y-114969441D03*
%TO.N,/ADS_SPI_SCLK_EXT*%
X90473612Y-115267296D03*
X85172790Y-117023910D03*
D16*
%TO.N,/~{MAX_INT_EXT}*%
X86398851Y-74577408D03*
%TO.N,/BL654_I2C_SDA_LV_EXT*%
X86094042Y-73820020D03*
D15*
%TO.N,/BL654_I2C_SCL_LV_EXT*%
X86151720Y-72495620D03*
%TO.N,/ECG_LEFT_ARM*%
X109199680Y-114607340D03*
%TO.N,/ECG_RIGHT_ARM*%
X87516960Y-117145340D03*
X99458176Y-116509727D03*
X99771200Y-121691400D03*
%TO.N,/ECG_RIGHT_LEG*%
X100414781Y-119197667D03*
%TO.N,Net-(C31-Pad2)*%
X78435348Y-92280991D03*
X86375678Y-87997826D03*
X72212200Y-96494600D03*
%TO.N,/VDIV*%
X92399731Y-82796769D03*
X91028760Y-94894160D03*
%TD*%
D17*
%TO.N,GND*%
X86942855Y-115431645D02*
X88623570Y-115431645D01*
X86751160Y-115623340D02*
X86942855Y-115431645D01*
X86751160Y-116969540D02*
X86751160Y-115623340D01*
D18*
%TO.N,+3V3*%
X84769960Y-115369340D02*
X84769960Y-115945920D01*
X76626720Y-93416120D02*
X76553060Y-93416120D01*
D17*
X93859728Y-113317537D02*
X93824514Y-113352751D01*
D18*
X77754897Y-91382899D02*
X77383640Y-91754156D01*
X87599275Y-118775235D02*
X87599275Y-119155327D01*
X93460566Y-96672400D02*
X88214200Y-96672400D01*
D19*
X87477600Y-87833200D02*
X87731600Y-88087200D01*
X75872340Y-94096840D02*
X75115420Y-93339920D01*
X87477600Y-86410800D02*
X87477600Y-87833200D01*
X86951502Y-92489416D02*
X86381722Y-92489416D01*
X88072528Y-86486487D02*
X87857574Y-86486487D01*
X87631638Y-88508840D02*
X87304410Y-88836068D01*
D18*
X94472615Y-95660351D02*
X93460566Y-96672400D01*
D19*
X87914480Y-88508840D02*
X87631638Y-88508840D01*
X87775682Y-88087200D02*
X87914480Y-88225998D01*
X83824978Y-91656425D02*
X85548731Y-91656425D01*
D17*
X87599275Y-118770060D02*
X89205425Y-117163910D01*
X98892360Y-113540540D02*
X98892360Y-113823382D01*
D18*
X85156213Y-85623651D02*
X85556212Y-85223652D01*
D17*
X95819484Y-113540540D02*
X95521073Y-113838951D01*
X87599275Y-119155327D02*
X87599275Y-118770060D01*
D19*
X70332598Y-93339920D02*
X69334378Y-94338140D01*
D17*
X101145329Y-115750999D02*
X101368201Y-115973871D01*
D18*
X87599275Y-119155327D02*
X87599520Y-119155082D01*
D17*
X94663984Y-113838951D02*
X94142570Y-113317537D01*
D18*
X77383640Y-92659200D02*
X76626720Y-93416120D01*
D19*
X87304410Y-92136508D02*
X86951502Y-92489416D01*
D17*
X95521073Y-113838951D02*
X94663984Y-113838951D01*
D19*
X87731600Y-88087200D02*
X87775682Y-88087200D01*
D18*
X84769960Y-115945920D02*
X87599275Y-118775235D01*
D19*
X86381722Y-92489416D02*
X85613403Y-91721097D01*
D18*
X87718900Y-96177100D02*
X87718900Y-95846900D01*
D19*
X75115420Y-93339920D02*
X70332598Y-93339920D01*
D18*
X87160100Y-95288100D02*
X85267800Y-95288100D01*
D19*
X83045195Y-92436208D02*
X83824978Y-91656425D01*
X87857574Y-86486487D02*
X87781887Y-86410800D01*
X87304410Y-88836068D02*
X87304410Y-92136508D01*
X85548731Y-91656425D02*
X85613403Y-91721097D01*
D18*
X85267800Y-95288100D02*
X84239100Y-96316800D01*
D17*
X89205425Y-117163910D02*
X91359010Y-117163910D01*
X100589620Y-117163910D02*
X91359010Y-117163910D01*
X98892360Y-113823382D02*
X100819977Y-115750999D01*
D18*
X87718900Y-95846900D02*
X87160100Y-95288100D01*
D19*
X87914480Y-88225998D02*
X87914480Y-88508840D01*
D17*
X101368201Y-115973871D02*
X101368201Y-116385329D01*
D19*
X87781887Y-86410800D02*
X87477600Y-86410800D01*
D18*
X77754897Y-91100057D02*
X77754897Y-91382899D01*
D17*
X93824514Y-113352751D02*
X93247381Y-113352751D01*
X98892360Y-113540540D02*
X95819484Y-113540540D01*
X101368201Y-116385329D02*
X100589620Y-117163910D01*
D18*
X76553060Y-93416120D02*
X75872340Y-94096840D01*
X77383640Y-91754156D02*
X77383640Y-92659200D01*
X85556212Y-85038852D02*
X85855850Y-84739214D01*
X87599520Y-119155082D02*
X87599520Y-118798340D01*
D17*
X100819977Y-115750999D02*
X101145329Y-115750999D01*
D18*
X78092300Y-96316800D02*
X75872340Y-94096840D01*
X85556212Y-85223652D02*
X85556212Y-85038852D01*
X84239100Y-96316800D02*
X78092300Y-96316800D01*
D17*
X94142570Y-113317537D02*
X93859728Y-113317537D01*
D18*
X88214200Y-96672400D02*
X87718900Y-96177100D01*
D19*
%TO.N,+1V8*%
X85729910Y-89750064D02*
X85728199Y-89748353D01*
X85728199Y-88432127D02*
X83506719Y-86210647D01*
D18*
X85729910Y-90221908D02*
X85729910Y-90523218D01*
D19*
X85728199Y-89748353D02*
X85728199Y-88432127D01*
X85729910Y-90221908D02*
X85729910Y-90494578D01*
X85729910Y-90494578D02*
X85181734Y-91042754D01*
D18*
X85729910Y-90523218D02*
X86417708Y-91211016D01*
D19*
X85729910Y-90221908D02*
X85729910Y-89750064D01*
D17*
%TO.N,/BL654_SWDIO*%
X76885863Y-89816772D02*
X76440386Y-89371295D01*
X78165971Y-90027101D02*
X77955642Y-89816772D01*
X85227508Y-89980754D02*
X85002130Y-90206132D01*
X83316033Y-89839487D02*
X78952597Y-89839487D01*
X73492360Y-92081208D02*
X73492360Y-92364050D01*
X76440386Y-89371295D02*
X76202273Y-89371295D01*
X76202273Y-89371295D02*
X73492360Y-92081208D01*
X85002130Y-90206132D02*
X83682678Y-90206132D01*
X77955642Y-89816772D02*
X76885863Y-89816772D01*
X78952597Y-89839487D02*
X78764983Y-90027101D01*
X78764983Y-90027101D02*
X78165971Y-90027101D01*
X83682678Y-90206132D02*
X83316033Y-89839487D01*
%TO.N,/BL654_SWDCLK*%
X77201434Y-90411086D02*
X76638561Y-90973959D01*
X83175805Y-90331912D02*
X78039715Y-90331912D01*
X83831939Y-90988046D02*
X83175805Y-90331912D01*
X77829386Y-90121583D02*
X77424306Y-90121583D01*
X78039715Y-90331912D02*
X77829386Y-90121583D01*
X75876097Y-90973959D02*
X74599800Y-92250256D01*
X77201434Y-90344455D02*
X77201434Y-90411086D01*
X76638561Y-90973959D02*
X75876097Y-90973959D01*
X77424306Y-90121583D02*
X77201434Y-90344455D01*
%TO.N,Net-(R8-Pad1)*%
X95532398Y-118774936D02*
X95532398Y-120489108D01*
X95532398Y-120489108D02*
X94377716Y-121643790D01*
%TO.N,/RLDIN*%
X94133515Y-118811197D02*
X94133515Y-119157627D01*
X93493620Y-118171302D02*
X94133515Y-118811197D01*
X89232363Y-118171302D02*
X93493620Y-118171302D01*
X89032364Y-117971303D02*
X89232363Y-118171302D01*
%TO.N,/ADS_SPI_SCLK*%
X93286915Y-91621408D02*
X92088690Y-92819633D01*
X93790732Y-91398536D02*
X93567860Y-91621408D01*
X91398932Y-92819633D02*
X90517965Y-93700600D01*
X93758934Y-90955278D02*
X93790732Y-90987076D01*
X85574865Y-93700600D02*
X84033092Y-92158827D01*
X93567860Y-91621408D02*
X93286915Y-91621408D01*
X93790732Y-90987076D02*
X93790732Y-91398536D01*
X93758934Y-88338012D02*
X93758934Y-90955278D01*
X90517965Y-93700600D02*
X85574865Y-93700600D01*
X92088690Y-92819633D02*
X91398932Y-92819633D01*
%TO.N,/ADS_SPI_MISO*%
X91247277Y-92514822D02*
X90894072Y-92868027D01*
X85700144Y-92868027D02*
X85037903Y-92205786D01*
X90894072Y-92868027D02*
X85700144Y-92868027D01*
X91757272Y-92514822D02*
X91247277Y-92514822D01*
X93362130Y-91192806D02*
X93079288Y-91192806D01*
X93079288Y-91192806D02*
X91757272Y-92514822D01*
%TO.N,/BL654_I2S_SCK_EXT*%
X93976135Y-115329915D02*
X99186611Y-115329915D01*
X92049611Y-113403391D02*
X93976135Y-115329915D01*
X89633833Y-113740305D02*
X89970747Y-113403391D01*
X89633833Y-114023147D02*
X89487972Y-114169008D01*
X89633833Y-113740305D02*
X89633833Y-114023147D01*
X89487972Y-114169008D02*
X86030888Y-114169008D01*
X85911093Y-114049213D02*
X85911093Y-113794140D01*
X86030888Y-114169008D02*
X85911093Y-114049213D01*
X89970747Y-113403391D02*
X92049611Y-113403391D01*
%TO.N,/BL654_I2S_WS_EXT*%
X93957132Y-114777512D02*
X99189637Y-114777512D01*
X92278200Y-113098580D02*
X93957132Y-114777512D01*
X89440407Y-113098580D02*
X92278200Y-113098580D01*
X89081422Y-113457565D02*
X89440407Y-113098580D01*
X89081422Y-113740407D02*
X89081422Y-113457565D01*
%TO.N,/ECG_RIGHT_ARM*%
X87516960Y-117145340D02*
X87516960Y-116439960D01*
X87684988Y-116271932D02*
X99220381Y-116271932D01*
X87516960Y-116439960D02*
X87684988Y-116271932D01*
X99220381Y-116271932D02*
X99458176Y-116509727D01*
%TO.N,/VDIV*%
X94648668Y-88866421D02*
X94690740Y-88824349D01*
X95505154Y-91288209D02*
X95505154Y-90134365D01*
X91899203Y-94894160D02*
X95505154Y-91288209D01*
X94690740Y-88824349D02*
X94690740Y-84804936D01*
X94690740Y-84804936D02*
X92682573Y-82796769D01*
X95505154Y-90134365D02*
X94648668Y-89277879D01*
X94648668Y-89277879D02*
X94648668Y-88866421D01*
X92682573Y-82796769D02*
X92399731Y-82796769D01*
X91028760Y-94894160D02*
X91899203Y-94894160D01*
%TD*%
%TA.AperFunction,Conductor*%
%TO.N,+3V3*%
G36*
X79384509Y-90936614D02*
G01*
X79431002Y-90990270D01*
X79441106Y-91060544D01*
X79410337Y-91126256D01*
X79405955Y-91130079D01*
X79337268Y-91227811D01*
X79330461Y-91237496D01*
X79274926Y-91281727D01*
X79226715Y-91291043D01*
X79074951Y-91290248D01*
X79067571Y-91292020D01*
X79067569Y-91292020D01*
X78915584Y-91328508D01*
X78915580Y-91328509D01*
X78908205Y-91330280D01*
X78755821Y-91408931D01*
X78750102Y-91413920D01*
X78654243Y-91497544D01*
X78626597Y-91521661D01*
X78622229Y-91527876D01*
X78619203Y-91531237D01*
X78558759Y-91568479D01*
X78524809Y-91570917D01*
X78524799Y-91572915D01*
X78353317Y-91572017D01*
X78345937Y-91573789D01*
X78345935Y-91573789D01*
X78193950Y-91610277D01*
X78193946Y-91610278D01*
X78186571Y-91612049D01*
X78034187Y-91690700D01*
X77904963Y-91803430D01*
X77806358Y-91943730D01*
X77786497Y-91994670D01*
X77746873Y-92096301D01*
X77744066Y-92103500D01*
X77743074Y-92111033D01*
X77743074Y-92111034D01*
X77722964Y-92263788D01*
X77721683Y-92273517D01*
X77730276Y-92351350D01*
X77736574Y-92408393D01*
X77740501Y-92443966D01*
X77743110Y-92451097D01*
X77743111Y-92451099D01*
X77760195Y-92497783D01*
X77799433Y-92605006D01*
X77803670Y-92611312D01*
X77803672Y-92611315D01*
X77841917Y-92668229D01*
X77895078Y-92747340D01*
X77900694Y-92752450D01*
X78010173Y-92852068D01*
X78021913Y-92862751D01*
X78172616Y-92944576D01*
X78179958Y-92946502D01*
X78179960Y-92946503D01*
X78236150Y-92961244D01*
X78296966Y-92997878D01*
X78328321Y-93061575D01*
X78324010Y-93122056D01*
X78304805Y-93181164D01*
X78256755Y-93329046D01*
X78199967Y-93626738D01*
X78195516Y-93697498D01*
X78195002Y-93705661D01*
X78170763Y-93772391D01*
X78114294Y-93815424D01*
X78043524Y-93821096D01*
X77995190Y-93799686D01*
X77893994Y-93726163D01*
X77893993Y-93726162D01*
X77888652Y-93722282D01*
X77882624Y-93719598D01*
X77882622Y-93719597D01*
X77720219Y-93647291D01*
X77720218Y-93647291D01*
X77714188Y-93644606D01*
X77611788Y-93622840D01*
X77533844Y-93606272D01*
X77533839Y-93606272D01*
X77527387Y-93604900D01*
X77336413Y-93604900D01*
X77329961Y-93606272D01*
X77329956Y-93606272D01*
X77252012Y-93622840D01*
X77149612Y-93644606D01*
X77143582Y-93647291D01*
X77143581Y-93647291D01*
X76981178Y-93719597D01*
X76981176Y-93719598D01*
X76975148Y-93722282D01*
X76969807Y-93726162D01*
X76969806Y-93726163D01*
X76956150Y-93736085D01*
X76820647Y-93834534D01*
X76816226Y-93839444D01*
X76816225Y-93839445D01*
X76709453Y-93958028D01*
X76692860Y-93976456D01*
X76597373Y-94141844D01*
X76538358Y-94323472D01*
X76518396Y-94513400D01*
X76519086Y-94519965D01*
X76535758Y-94678586D01*
X76538358Y-94703328D01*
X76597373Y-94884956D01*
X76692860Y-95050344D01*
X76697278Y-95055251D01*
X76697279Y-95055252D01*
X76814652Y-95185608D01*
X76820647Y-95192266D01*
X76975148Y-95304518D01*
X76981176Y-95307202D01*
X76981178Y-95307203D01*
X77132742Y-95374683D01*
X77149612Y-95382194D01*
X77243013Y-95402047D01*
X77329956Y-95420528D01*
X77329961Y-95420528D01*
X77336413Y-95421900D01*
X77527387Y-95421900D01*
X77533839Y-95420528D01*
X77533844Y-95420528D01*
X77620787Y-95402047D01*
X77714188Y-95382194D01*
X77731058Y-95374683D01*
X77882622Y-95307203D01*
X77882624Y-95307202D01*
X77888652Y-95304518D01*
X78043153Y-95192266D01*
X78049148Y-95185608D01*
X78166521Y-95055252D01*
X78166522Y-95055251D01*
X78170940Y-95050344D01*
X78204026Y-94993038D01*
X78209655Y-94983288D01*
X78261038Y-94934295D01*
X78330751Y-94920859D01*
X78396662Y-94947245D01*
X78432782Y-94992640D01*
X78479442Y-95091798D01*
X78641830Y-95347680D01*
X78644349Y-95350725D01*
X78644352Y-95350729D01*
X78670382Y-95382194D01*
X78835008Y-95581192D01*
X78837895Y-95583903D01*
X78988462Y-95725294D01*
X79055929Y-95788650D01*
X79059131Y-95790977D01*
X79059133Y-95790978D01*
X79067360Y-95796955D01*
X79301110Y-95966784D01*
X79304579Y-95968691D01*
X79304582Y-95968693D01*
X79563214Y-96110878D01*
X79566683Y-96112785D01*
X79570352Y-96114238D01*
X79570357Y-96114240D01*
X79844791Y-96222896D01*
X79848461Y-96224349D01*
X80142000Y-96299716D01*
X80442670Y-96337700D01*
X80745730Y-96337700D01*
X81046400Y-96299716D01*
X81339939Y-96224349D01*
X81621717Y-96112785D01*
X81625180Y-96110881D01*
X81625191Y-96110876D01*
X81729468Y-96053549D01*
X81798798Y-96038259D01*
X81865389Y-96062879D01*
X81899288Y-96100962D01*
X81937960Y-96167944D01*
X81942378Y-96172851D01*
X81942379Y-96172852D01*
X82055721Y-96298731D01*
X82065747Y-96309866D01*
X82155816Y-96375305D01*
X82206175Y-96411893D01*
X82220248Y-96422118D01*
X82226276Y-96424802D01*
X82226278Y-96424803D01*
X82388681Y-96497109D01*
X82394712Y-96499794D01*
X82471049Y-96516020D01*
X82575056Y-96538128D01*
X82575061Y-96538128D01*
X82581513Y-96539500D01*
X82772487Y-96539500D01*
X82778939Y-96538128D01*
X82778944Y-96538128D01*
X82882951Y-96516020D01*
X82959288Y-96499794D01*
X82965319Y-96497109D01*
X83127722Y-96424803D01*
X83127724Y-96424802D01*
X83133752Y-96422118D01*
X83147826Y-96411893D01*
X83198184Y-96375305D01*
X83288253Y-96309866D01*
X83298279Y-96298731D01*
X83411621Y-96172852D01*
X83411622Y-96172851D01*
X83416040Y-96167944D01*
X83488196Y-96042966D01*
X83508223Y-96008279D01*
X83508224Y-96008278D01*
X83511527Y-96002556D01*
X83570542Y-95820928D01*
X83571383Y-95812933D01*
X83572603Y-95801326D01*
X88364135Y-95801326D01*
X88369430Y-95849286D01*
X88378860Y-95934698D01*
X88382953Y-95971775D01*
X88385562Y-95978906D01*
X88385563Y-95978908D01*
X88397690Y-96012047D01*
X88441885Y-96132815D01*
X88446122Y-96139121D01*
X88446124Y-96139124D01*
X88484644Y-96196447D01*
X88537530Y-96275149D01*
X88579951Y-96313749D01*
X88638891Y-96367380D01*
X88664365Y-96390560D01*
X88815068Y-96472385D01*
X88980939Y-96515901D01*
X89068386Y-96517274D01*
X89144803Y-96518475D01*
X89144806Y-96518475D01*
X89152402Y-96518594D01*
X89159806Y-96516898D01*
X89159808Y-96516898D01*
X89239120Y-96498733D01*
X89319559Y-96480310D01*
X89472758Y-96403259D01*
X89478529Y-96398330D01*
X89478532Y-96398328D01*
X89597378Y-96296823D01*
X89603155Y-96291889D01*
X89695166Y-96163844D01*
X89698792Y-96158798D01*
X89698793Y-96158797D01*
X89703224Y-96152630D01*
X89767185Y-95993520D01*
X89778103Y-95916803D01*
X89790766Y-95827831D01*
X89790766Y-95827827D01*
X89791347Y-95823747D01*
X89791504Y-95808800D01*
X89785100Y-95755879D01*
X89771815Y-95646099D01*
X89771814Y-95646096D01*
X89770902Y-95638558D01*
X89765566Y-95624435D01*
X89712971Y-95485247D01*
X89710287Y-95478144D01*
X89694946Y-95455823D01*
X89617459Y-95343078D01*
X89617458Y-95343076D01*
X89613157Y-95336819D01*
X89607486Y-95331766D01*
X89490793Y-95227796D01*
X89490790Y-95227794D01*
X89485121Y-95222743D01*
X89477125Y-95218509D01*
X89340281Y-95146054D01*
X89340282Y-95146054D01*
X89333569Y-95142500D01*
X89315996Y-95138086D01*
X89174622Y-95102575D01*
X89174618Y-95102575D01*
X89167251Y-95100724D01*
X89159652Y-95100684D01*
X89159650Y-95100684D01*
X89088194Y-95100310D01*
X88995769Y-95099826D01*
X88988389Y-95101598D01*
X88988387Y-95101598D01*
X88836402Y-95138086D01*
X88836398Y-95138087D01*
X88829023Y-95139858D01*
X88676639Y-95218509D01*
X88547415Y-95331239D01*
X88448810Y-95471539D01*
X88426159Y-95529635D01*
X88397230Y-95603835D01*
X88386518Y-95631309D01*
X88385526Y-95638842D01*
X88385526Y-95638843D01*
X88365804Y-95788650D01*
X88364135Y-95801326D01*
X83572603Y-95801326D01*
X83589814Y-95637565D01*
X83590504Y-95631000D01*
X83576587Y-95498589D01*
X83571232Y-95447635D01*
X83571232Y-95447633D01*
X83570542Y-95441072D01*
X83511527Y-95259444D01*
X83499189Y-95238073D01*
X83446061Y-95146054D01*
X83416040Y-95094056D01*
X83392225Y-95067606D01*
X83292675Y-94957045D01*
X83292674Y-94957044D01*
X83288253Y-94952134D01*
X83151531Y-94852799D01*
X83139094Y-94843763D01*
X83139093Y-94843762D01*
X83133752Y-94839882D01*
X83127724Y-94837198D01*
X83127722Y-94837197D01*
X82972684Y-94768170D01*
X82918588Y-94722190D01*
X82897939Y-94654263D01*
X82904099Y-94614131D01*
X82931645Y-94529354D01*
X82988433Y-94231662D01*
X83007462Y-93929200D01*
X82988433Y-93626738D01*
X82931645Y-93329046D01*
X82837994Y-93040819D01*
X82835520Y-93035560D01*
X82747786Y-92849117D01*
X82708958Y-92766602D01*
X82546570Y-92510720D01*
X82543307Y-92506775D01*
X82457740Y-92403343D01*
X82353392Y-92277208D01*
X82132471Y-92069750D01*
X82122362Y-92062405D01*
X82095134Y-92042623D01*
X82051780Y-91986401D01*
X82045705Y-91915664D01*
X82078837Y-91852873D01*
X82112581Y-91828122D01*
X82251066Y-91758471D01*
X82257850Y-91755059D01*
X82263621Y-91750130D01*
X82263624Y-91750128D01*
X82352935Y-91673848D01*
X82384066Y-91647260D01*
X82384069Y-91647258D01*
X82388247Y-91643689D01*
X82388842Y-91644385D01*
X82444133Y-91611113D01*
X82478031Y-91607019D01*
X82609434Y-91609083D01*
X82609437Y-91609083D01*
X82617033Y-91609202D01*
X82624437Y-91607506D01*
X82624439Y-91607506D01*
X82687277Y-91593114D01*
X82784190Y-91570918D01*
X82937389Y-91493867D01*
X82943160Y-91488938D01*
X82943163Y-91488936D01*
X83067786Y-91382497D01*
X83069019Y-91383940D01*
X83121339Y-91352451D01*
X83192305Y-91354539D01*
X83250876Y-91394663D01*
X83257847Y-91404063D01*
X83258779Y-91405450D01*
X83291669Y-91454395D01*
X83418504Y-91569806D01*
X83425184Y-91573433D01*
X83425253Y-91573482D01*
X83469195Y-91629246D01*
X83476014Y-91699914D01*
X83455354Y-91748642D01*
X83404102Y-91821566D01*
X83377467Y-91889882D01*
X83344701Y-91973922D01*
X83341810Y-91981336D01*
X83340818Y-91988869D01*
X83340818Y-91988870D01*
X83320978Y-92139573D01*
X83319427Y-92151353D01*
X83327280Y-92222484D01*
X83333900Y-92282443D01*
X83338245Y-92321802D01*
X83397177Y-92482842D01*
X83401414Y-92489148D01*
X83401416Y-92489151D01*
X83432945Y-92536070D01*
X83492822Y-92625176D01*
X83498438Y-92630286D01*
X83605142Y-92727379D01*
X83619657Y-92740587D01*
X83770360Y-92822412D01*
X83872153Y-92849117D01*
X83929273Y-92881898D01*
X85128478Y-94081103D01*
X85139345Y-94093494D01*
X85157852Y-94117613D01*
X85196323Y-94147132D01*
X85219097Y-94164607D01*
X85219098Y-94164608D01*
X85245916Y-94185186D01*
X85279992Y-94211334D01*
X85287621Y-94214494D01*
X85313512Y-94225218D01*
X85319890Y-94227860D01*
X85422228Y-94270250D01*
X85430416Y-94271328D01*
X85536541Y-94285300D01*
X85536546Y-94285300D01*
X85574865Y-94290345D01*
X85583053Y-94289267D01*
X85604998Y-94286378D01*
X85621444Y-94285300D01*
X90348093Y-94285300D01*
X90416214Y-94305302D01*
X90462707Y-94358958D01*
X90472811Y-94429232D01*
X90451179Y-94483751D01*
X90404142Y-94550677D01*
X90404139Y-94550683D01*
X90399770Y-94556899D01*
X90397010Y-94563979D01*
X90347117Y-94691947D01*
X90337478Y-94716669D01*
X90336486Y-94724202D01*
X90336486Y-94724203D01*
X90316194Y-94878340D01*
X90315095Y-94886686D01*
X90324278Y-94969860D01*
X90331745Y-95037495D01*
X90333913Y-95057135D01*
X90336522Y-95064266D01*
X90336523Y-95064268D01*
X90356090Y-95117738D01*
X90392845Y-95218175D01*
X90397082Y-95224481D01*
X90397084Y-95224484D01*
X90399310Y-95227796D01*
X90488490Y-95360509D01*
X90513829Y-95383566D01*
X90604151Y-95465752D01*
X90615325Y-95475920D01*
X90766028Y-95557745D01*
X90931899Y-95601261D01*
X91019346Y-95602634D01*
X91095763Y-95603835D01*
X91095766Y-95603835D01*
X91103362Y-95603954D01*
X91110766Y-95602258D01*
X91110768Y-95602258D01*
X91202746Y-95581192D01*
X91270519Y-95565670D01*
X91416409Y-95492295D01*
X91473023Y-95478860D01*
X91717465Y-95478860D01*
X91785586Y-95498862D01*
X91826584Y-95541860D01*
X91894760Y-95659944D01*
X91899178Y-95664851D01*
X91899179Y-95664852D01*
X91951379Y-95722826D01*
X92022547Y-95801866D01*
X92058285Y-95827831D01*
X92169375Y-95908543D01*
X92177048Y-95914118D01*
X92183076Y-95916802D01*
X92183078Y-95916803D01*
X92295338Y-95966784D01*
X92351512Y-95991794D01*
X92444912Y-96011647D01*
X92531856Y-96030128D01*
X92531861Y-96030128D01*
X92538313Y-96031500D01*
X92729287Y-96031500D01*
X92735739Y-96030128D01*
X92735744Y-96030128D01*
X92785878Y-96019471D01*
X92856669Y-96024873D01*
X92916654Y-96072440D01*
X92982309Y-96170144D01*
X93109144Y-96285555D01*
X93259847Y-96367380D01*
X93425718Y-96410896D01*
X93513165Y-96412269D01*
X93589582Y-96413470D01*
X93589585Y-96413470D01*
X93597181Y-96413589D01*
X93604585Y-96411893D01*
X93604587Y-96411893D01*
X93697731Y-96390560D01*
X93764338Y-96375305D01*
X93917537Y-96298254D01*
X93923308Y-96293325D01*
X93923311Y-96293323D01*
X94042157Y-96191818D01*
X94047934Y-96186884D01*
X94148003Y-96047625D01*
X94211964Y-95888515D01*
X94213873Y-95875103D01*
X94235545Y-95722826D01*
X94235545Y-95722822D01*
X94236126Y-95718742D01*
X94236283Y-95703795D01*
X94226654Y-95624229D01*
X94216594Y-95541094D01*
X94216593Y-95541091D01*
X94215681Y-95533553D01*
X94202573Y-95498862D01*
X94157750Y-95380242D01*
X94155066Y-95373139D01*
X94130104Y-95336819D01*
X94062238Y-95238073D01*
X94062237Y-95238071D01*
X94057936Y-95231814D01*
X94049709Y-95224484D01*
X93935572Y-95122791D01*
X93935569Y-95122789D01*
X93929900Y-95117738D01*
X93778348Y-95037495D01*
X93661027Y-95008026D01*
X93612030Y-94995719D01*
X93612703Y-94993038D01*
X93559529Y-94969860D01*
X93520546Y-94912157D01*
X93468327Y-94751444D01*
X93372840Y-94586056D01*
X93292397Y-94496715D01*
X93261682Y-94432711D01*
X93270445Y-94362258D01*
X93296940Y-94323313D01*
X94229866Y-93390387D01*
X94292178Y-93356361D01*
X94362993Y-93361426D01*
X94379083Y-93368751D01*
X94404148Y-93382360D01*
X94516408Y-93443312D01*
X94682279Y-93486828D01*
X94754224Y-93487958D01*
X94822021Y-93509027D01*
X94837043Y-93520748D01*
X94892445Y-93571160D01*
X95043148Y-93652985D01*
X95209019Y-93696501D01*
X95296466Y-93697874D01*
X95372883Y-93699075D01*
X95372886Y-93699075D01*
X95380482Y-93699194D01*
X95387886Y-93697498D01*
X95387888Y-93697498D01*
X95450726Y-93683106D01*
X95547639Y-93660910D01*
X95700838Y-93583859D01*
X95706609Y-93578930D01*
X95706612Y-93578928D01*
X95825458Y-93477423D01*
X95831235Y-93472489D01*
X95911043Y-93361426D01*
X95926872Y-93339398D01*
X95926873Y-93339397D01*
X95931304Y-93333230D01*
X95995265Y-93174120D01*
X96009903Y-93071270D01*
X96018846Y-93008431D01*
X96018846Y-93008427D01*
X96019427Y-93004347D01*
X96019584Y-92989400D01*
X96004696Y-92866375D01*
X95999895Y-92826699D01*
X95999894Y-92826696D01*
X95998982Y-92819158D01*
X95995319Y-92809462D01*
X95941051Y-92665847D01*
X95938367Y-92658744D01*
X95934066Y-92652486D01*
X95930546Y-92645753D01*
X95932507Y-92644728D01*
X95913847Y-92587738D01*
X95931068Y-92521612D01*
X95887635Y-92528765D01*
X95819200Y-92497785D01*
X95713201Y-92403343D01*
X95561649Y-92323100D01*
X95554278Y-92321248D01*
X95550950Y-92319971D01*
X95494522Y-92276886D01*
X95470345Y-92210133D01*
X95486096Y-92140905D01*
X95507009Y-92113245D01*
X95707714Y-91912540D01*
X95770026Y-91878514D01*
X95840841Y-91883579D01*
X95897677Y-91926126D01*
X95921628Y-91990340D01*
X95922022Y-91990296D01*
X95927195Y-92037148D01*
X95938972Y-92143822D01*
X95940840Y-92160745D01*
X95943449Y-92167876D01*
X95943450Y-92167878D01*
X95958913Y-92210133D01*
X95999772Y-92321785D01*
X96004011Y-92328093D01*
X96007601Y-92333436D01*
X96028990Y-92401134D01*
X96011346Y-92466102D01*
X96053867Y-92458644D01*
X96124587Y-92490662D01*
X96216631Y-92574416D01*
X96216635Y-92574419D01*
X96222252Y-92579530D01*
X96372955Y-92661355D01*
X96538826Y-92704871D01*
X96626273Y-92706244D01*
X96702690Y-92707445D01*
X96702693Y-92707445D01*
X96710289Y-92707564D01*
X96717693Y-92705868D01*
X96717695Y-92705868D01*
X96780533Y-92691476D01*
X96877446Y-92669280D01*
X97030645Y-92592229D01*
X97036416Y-92587300D01*
X97036419Y-92587298D01*
X97155265Y-92485793D01*
X97161042Y-92480859D01*
X97234157Y-92379110D01*
X97256679Y-92347768D01*
X97256680Y-92347767D01*
X97261111Y-92341600D01*
X97325072Y-92182490D01*
X97337124Y-92097809D01*
X97348653Y-92016801D01*
X97348653Y-92016797D01*
X97349234Y-92012717D01*
X97349308Y-92005669D01*
X97349348Y-92001904D01*
X97349348Y-92001898D01*
X97349391Y-91997770D01*
X97348894Y-91993665D01*
X97348668Y-91989558D01*
X97349597Y-91989507D01*
X97360579Y-91923667D01*
X97408266Y-91871070D01*
X97459514Y-91853703D01*
X97464591Y-91853783D01*
X97471995Y-91852087D01*
X97471997Y-91852087D01*
X97592719Y-91824438D01*
X97663586Y-91828727D01*
X97705262Y-91857382D01*
X97706930Y-91855549D01*
X97825900Y-91963803D01*
X97833765Y-91970960D01*
X97984468Y-92052785D01*
X98150339Y-92096301D01*
X98237786Y-92097674D01*
X98314203Y-92098875D01*
X98314206Y-92098875D01*
X98321802Y-92098994D01*
X98329206Y-92097298D01*
X98329208Y-92097298D01*
X98410851Y-92078599D01*
X98488959Y-92060710D01*
X98642158Y-91983659D01*
X98647929Y-91978730D01*
X98647932Y-91978728D01*
X98766778Y-91877223D01*
X98772555Y-91872289D01*
X98791317Y-91846180D01*
X98847309Y-91802533D01*
X98918013Y-91796087D01*
X98980977Y-91828889D01*
X98996967Y-91847939D01*
X98998093Y-91849243D01*
X99002330Y-91855549D01*
X99041967Y-91891616D01*
X99121300Y-91963803D01*
X99129165Y-91970960D01*
X99279868Y-92052785D01*
X99445739Y-92096301D01*
X99533186Y-92097674D01*
X99609603Y-92098875D01*
X99609606Y-92098875D01*
X99617202Y-92098994D01*
X99624606Y-92097298D01*
X99624608Y-92097298D01*
X99706251Y-92078599D01*
X99784359Y-92060710D01*
X99937558Y-91983659D01*
X99943329Y-91978730D01*
X99943332Y-91978728D01*
X100062178Y-91877223D01*
X100067955Y-91872289D01*
X100086717Y-91846180D01*
X100142709Y-91802533D01*
X100213413Y-91796087D01*
X100276377Y-91828889D01*
X100292367Y-91847939D01*
X100293493Y-91849243D01*
X100297730Y-91855549D01*
X100337367Y-91891616D01*
X100416700Y-91963803D01*
X100424565Y-91970960D01*
X100575268Y-92052785D01*
X100741139Y-92096301D01*
X100828586Y-92097674D01*
X100905003Y-92098875D01*
X100905006Y-92098875D01*
X100912602Y-92098994D01*
X100920006Y-92097298D01*
X100920008Y-92097298D01*
X101001651Y-92078599D01*
X101079759Y-92060710D01*
X101232958Y-91983659D01*
X101238729Y-91978730D01*
X101238732Y-91978728D01*
X101357578Y-91877223D01*
X101363355Y-91872289D01*
X101382117Y-91846180D01*
X101438109Y-91802533D01*
X101508813Y-91796087D01*
X101571777Y-91828889D01*
X101587767Y-91847939D01*
X101588893Y-91849243D01*
X101593130Y-91855549D01*
X101632767Y-91891616D01*
X101712100Y-91963803D01*
X101719965Y-91970960D01*
X101870668Y-92052785D01*
X102036539Y-92096301D01*
X102123986Y-92097674D01*
X102200403Y-92098875D01*
X102200406Y-92098875D01*
X102208002Y-92098994D01*
X102215406Y-92097298D01*
X102215408Y-92097298D01*
X102297051Y-92078599D01*
X102375159Y-92060710D01*
X102528358Y-91983659D01*
X102534129Y-91978730D01*
X102534132Y-91978728D01*
X102652978Y-91877223D01*
X102658755Y-91872289D01*
X102746538Y-91750128D01*
X102754392Y-91739198D01*
X102754393Y-91739197D01*
X102758824Y-91733030D01*
X102795922Y-91640745D01*
X102804392Y-91619675D01*
X102848359Y-91563930D01*
X102915484Y-91540805D01*
X102984455Y-91557642D01*
X103033375Y-91609094D01*
X103047300Y-91666671D01*
X103047300Y-95403833D01*
X103045800Y-95423218D01*
X103043490Y-95438051D01*
X103043490Y-95438055D01*
X103042109Y-95446924D01*
X103043948Y-95460989D01*
X103044624Y-95487204D01*
X103039252Y-95555462D01*
X103030885Y-95661774D01*
X103027792Y-95681303D01*
X102981264Y-95875103D01*
X102975154Y-95893906D01*
X102898884Y-96078040D01*
X102889907Y-96095657D01*
X102785773Y-96265587D01*
X102774152Y-96281582D01*
X102644715Y-96433134D01*
X102630734Y-96447115D01*
X102479182Y-96576552D01*
X102463187Y-96588173D01*
X102293257Y-96692307D01*
X102275640Y-96701284D01*
X102091506Y-96777554D01*
X102072703Y-96783664D01*
X101878903Y-96830192D01*
X101859374Y-96833285D01*
X101691813Y-96846472D01*
X101674925Y-96845830D01*
X101674923Y-96846000D01*
X101665947Y-96845890D01*
X101657076Y-96844509D01*
X101648174Y-96845673D01*
X101648172Y-96845673D01*
X101633123Y-96847641D01*
X101625514Y-96848636D01*
X101609179Y-96849700D01*
X75731099Y-96849700D01*
X75662978Y-96829698D01*
X75616485Y-96776042D01*
X75606381Y-96705768D01*
X75606503Y-96705172D01*
X75606685Y-96704720D01*
X75630847Y-96534947D01*
X75631004Y-96520000D01*
X75622184Y-96447115D01*
X75611315Y-96357299D01*
X75611314Y-96357296D01*
X75610402Y-96349758D01*
X75600805Y-96324358D01*
X75552471Y-96196447D01*
X75549787Y-96189344D01*
X75524554Y-96152630D01*
X75456959Y-96054278D01*
X75456958Y-96054276D01*
X75452657Y-96048019D01*
X75446986Y-96042966D01*
X75330293Y-95938996D01*
X75330290Y-95938994D01*
X75324621Y-95933943D01*
X75316625Y-95929709D01*
X75179781Y-95857254D01*
X75179782Y-95857254D01*
X75173069Y-95853700D01*
X75155496Y-95849286D01*
X75014122Y-95813775D01*
X75014118Y-95813775D01*
X75006751Y-95811924D01*
X74999152Y-95811884D01*
X74999150Y-95811884D01*
X74927694Y-95811510D01*
X74835269Y-95811026D01*
X74827889Y-95812798D01*
X74827887Y-95812798D01*
X74675902Y-95849286D01*
X74675898Y-95849287D01*
X74668523Y-95851058D01*
X74516139Y-95929709D01*
X74386915Y-96042439D01*
X74288310Y-96182739D01*
X74257164Y-96262624D01*
X74230155Y-96331899D01*
X74226018Y-96342509D01*
X74225026Y-96350042D01*
X74225026Y-96350043D01*
X74205131Y-96501166D01*
X74203635Y-96512526D01*
X74206613Y-96539500D01*
X74221220Y-96671804D01*
X74222453Y-96682975D01*
X74225064Y-96690110D01*
X74226194Y-96694927D01*
X74222276Y-96765816D01*
X74180655Y-96823333D01*
X74114545Y-96849217D01*
X74103523Y-96849700D01*
X73019194Y-96849700D01*
X72951073Y-96829698D01*
X72904580Y-96776042D01*
X72894476Y-96705768D01*
X72897487Y-96691092D01*
X72898755Y-96686361D01*
X72901585Y-96679320D01*
X72905544Y-96651508D01*
X72925166Y-96513631D01*
X72925166Y-96513627D01*
X72925747Y-96509547D01*
X72925835Y-96501166D01*
X72925861Y-96498733D01*
X72925861Y-96498727D01*
X72925904Y-96494600D01*
X72918466Y-96433134D01*
X72906215Y-96331899D01*
X72906214Y-96331896D01*
X72905302Y-96324358D01*
X72901294Y-96313749D01*
X72847371Y-96171047D01*
X72844687Y-96163944D01*
X72785647Y-96078040D01*
X72751859Y-96028878D01*
X72751858Y-96028876D01*
X72747557Y-96022619D01*
X72741886Y-96017566D01*
X72625193Y-95913596D01*
X72625190Y-95913594D01*
X72619521Y-95908543D01*
X72611525Y-95904309D01*
X72522653Y-95857254D01*
X72467969Y-95828300D01*
X72460604Y-95826450D01*
X72453508Y-95823726D01*
X72454189Y-95821952D01*
X72401559Y-95791001D01*
X72369533Y-95727638D01*
X72376848Y-95657019D01*
X72411612Y-95608974D01*
X72535078Y-95503523D01*
X72540855Y-95498589D01*
X72613970Y-95396840D01*
X72636492Y-95365498D01*
X72636493Y-95365497D01*
X72640924Y-95359330D01*
X72704885Y-95200220D01*
X72719173Y-95099826D01*
X72728466Y-95034531D01*
X72728466Y-95034527D01*
X72729047Y-95030447D01*
X72729204Y-95015500D01*
X72721536Y-94952134D01*
X72709515Y-94852799D01*
X72709514Y-94852796D01*
X72708602Y-94845258D01*
X72685243Y-94783438D01*
X72650671Y-94691947D01*
X72647987Y-94684844D01*
X72617925Y-94641104D01*
X72555159Y-94549778D01*
X72555158Y-94549776D01*
X72550857Y-94543519D01*
X72534959Y-94529354D01*
X72428494Y-94434497D01*
X72428492Y-94434495D01*
X72422821Y-94429443D01*
X72411810Y-94423613D01*
X72360968Y-94374061D01*
X72345089Y-94319623D01*
X72345116Y-94317089D01*
X72334318Y-94227860D01*
X72325427Y-94154388D01*
X72325426Y-94154385D01*
X72324514Y-94146847D01*
X72313468Y-94117613D01*
X72266583Y-93993536D01*
X72263899Y-93986433D01*
X72245861Y-93960188D01*
X73979197Y-93960188D01*
X73982147Y-93986908D01*
X73993408Y-94088904D01*
X73998015Y-94130637D01*
X74000624Y-94137768D01*
X74000625Y-94137770D01*
X74013222Y-94172193D01*
X74056947Y-94291677D01*
X74061184Y-94297983D01*
X74061186Y-94297986D01*
X74084067Y-94332036D01*
X74152592Y-94434011D01*
X74194906Y-94472514D01*
X74267387Y-94538466D01*
X74279427Y-94549422D01*
X74430130Y-94631247D01*
X74596001Y-94674763D01*
X74683448Y-94676136D01*
X74759865Y-94677337D01*
X74759868Y-94677337D01*
X74767464Y-94677456D01*
X74774868Y-94675760D01*
X74774870Y-94675760D01*
X74868730Y-94654263D01*
X74934621Y-94639172D01*
X75087820Y-94562121D01*
X75093591Y-94557192D01*
X75093594Y-94557190D01*
X75212440Y-94455685D01*
X75218217Y-94450751D01*
X75291332Y-94349002D01*
X75313854Y-94317660D01*
X75313855Y-94317659D01*
X75318286Y-94311492D01*
X75382247Y-94152382D01*
X75387195Y-94117613D01*
X75405828Y-93986693D01*
X75405828Y-93986689D01*
X75406409Y-93982609D01*
X75406566Y-93967662D01*
X75392706Y-93853129D01*
X75386877Y-93804961D01*
X75386876Y-93804958D01*
X75385964Y-93797420D01*
X75376507Y-93772391D01*
X75328033Y-93644109D01*
X75325349Y-93637006D01*
X75306110Y-93609013D01*
X75232521Y-93501940D01*
X75232520Y-93501938D01*
X75228219Y-93495681D01*
X75222548Y-93490628D01*
X75105855Y-93386658D01*
X75105852Y-93386656D01*
X75100183Y-93381605D01*
X75092187Y-93377371D01*
X74955343Y-93304916D01*
X74955344Y-93304916D01*
X74948631Y-93301362D01*
X74931058Y-93296948D01*
X74789684Y-93261437D01*
X74789680Y-93261437D01*
X74782313Y-93259586D01*
X74774714Y-93259546D01*
X74774712Y-93259546D01*
X74703256Y-93259172D01*
X74610831Y-93258688D01*
X74603451Y-93260460D01*
X74603449Y-93260460D01*
X74451464Y-93296948D01*
X74451460Y-93296949D01*
X74444085Y-93298720D01*
X74291701Y-93377371D01*
X74162477Y-93490101D01*
X74063872Y-93630401D01*
X74001580Y-93790171D01*
X74000588Y-93797704D01*
X74000588Y-93797705D01*
X73982756Y-93933158D01*
X73979197Y-93960188D01*
X72245861Y-93960188D01*
X72166769Y-93845108D01*
X72161098Y-93840055D01*
X72044405Y-93736085D01*
X72044402Y-93736083D01*
X72038733Y-93731032D01*
X72030737Y-93726798D01*
X71893893Y-93654343D01*
X71893894Y-93654343D01*
X71887181Y-93650789D01*
X71869608Y-93646375D01*
X71728234Y-93610864D01*
X71728230Y-93610864D01*
X71720863Y-93609013D01*
X71713264Y-93608973D01*
X71713262Y-93608973D01*
X71641806Y-93608599D01*
X71549381Y-93608115D01*
X71542001Y-93609887D01*
X71541999Y-93609887D01*
X71390014Y-93646375D01*
X71390010Y-93646376D01*
X71382635Y-93648147D01*
X71230251Y-93726798D01*
X71101027Y-93839528D01*
X71002422Y-93979828D01*
X70993906Y-94001670D01*
X70943624Y-94130637D01*
X70940130Y-94139598D01*
X70939138Y-94147131D01*
X70939138Y-94147132D01*
X70919696Y-94294814D01*
X70917747Y-94309615D01*
X70923195Y-94358958D01*
X70933329Y-94450751D01*
X70936565Y-94480064D01*
X70939174Y-94487195D01*
X70939175Y-94487197D01*
X70953175Y-94525453D01*
X70995497Y-94641104D01*
X70999734Y-94647410D01*
X70999736Y-94647413D01*
X71020684Y-94678586D01*
X71091142Y-94783438D01*
X71096758Y-94788548D01*
X71196334Y-94879155D01*
X71217977Y-94898849D01*
X71236739Y-94909036D01*
X71287060Y-94959116D01*
X71299399Y-95008295D01*
X71301835Y-95008026D01*
X71317074Y-95146054D01*
X71320653Y-95178475D01*
X71323262Y-95185606D01*
X71323263Y-95185608D01*
X71331188Y-95207264D01*
X71379585Y-95339515D01*
X71383822Y-95345821D01*
X71383824Y-95345824D01*
X71408093Y-95381939D01*
X71475230Y-95481849D01*
X71524245Y-95526449D01*
X71584407Y-95581192D01*
X71602065Y-95597260D01*
X71752768Y-95679085D01*
X71762038Y-95681517D01*
X71767037Y-95682829D01*
X71827851Y-95719464D01*
X71859205Y-95783162D01*
X71851144Y-95853700D01*
X71810328Y-95903494D01*
X71811039Y-95904309D01*
X71681815Y-96017039D01*
X71583210Y-96157339D01*
X71557650Y-96222896D01*
X71525657Y-96304955D01*
X71520918Y-96317109D01*
X71519926Y-96324642D01*
X71519926Y-96324643D01*
X71499882Y-96476898D01*
X71498535Y-96487126D01*
X71504317Y-96539500D01*
X71515959Y-96644945D01*
X71517353Y-96657575D01*
X71519963Y-96664707D01*
X71525706Y-96680401D01*
X71530331Y-96751246D01*
X71495920Y-96813346D01*
X71433398Y-96846984D01*
X71407379Y-96849700D01*
X71169967Y-96849700D01*
X71101846Y-96829698D01*
X71055353Y-96776042D01*
X71045249Y-96705768D01*
X71050131Y-96684773D01*
X71060940Y-96651508D01*
X71073625Y-96530822D01*
X71080212Y-96468145D01*
X71080902Y-96461580D01*
X71075858Y-96413589D01*
X71061630Y-96278215D01*
X71061630Y-96278213D01*
X71060940Y-96271652D01*
X71001925Y-96090024D01*
X70906438Y-95924636D01*
X70893473Y-95910237D01*
X70812121Y-95819886D01*
X70781403Y-95755879D01*
X70781014Y-95717823D01*
X70802953Y-95563671D01*
X70802953Y-95563667D01*
X70803534Y-95559587D01*
X70803691Y-95544640D01*
X70796711Y-95486959D01*
X70784002Y-95381939D01*
X70784001Y-95381936D01*
X70783089Y-95374398D01*
X70777396Y-95359330D01*
X70725158Y-95221087D01*
X70722474Y-95213984D01*
X70673921Y-95143339D01*
X70629646Y-95078918D01*
X70629645Y-95078916D01*
X70625344Y-95072659D01*
X70619673Y-95067606D01*
X70502980Y-94963636D01*
X70502977Y-94963634D01*
X70497308Y-94958583D01*
X70489312Y-94954349D01*
X70409621Y-94912155D01*
X70345756Y-94878340D01*
X70328183Y-94873926D01*
X70186809Y-94838415D01*
X70186805Y-94838415D01*
X70179438Y-94836564D01*
X70171839Y-94836524D01*
X70171837Y-94836524D01*
X70100381Y-94836150D01*
X70007956Y-94835666D01*
X70000576Y-94837438D01*
X70000574Y-94837438D01*
X69848589Y-94873926D01*
X69848585Y-94873927D01*
X69841210Y-94875698D01*
X69688826Y-94954349D01*
X69559602Y-95067079D01*
X69460997Y-95207379D01*
X69453037Y-95227796D01*
X69401754Y-95359330D01*
X69398705Y-95367149D01*
X69397713Y-95374682D01*
X69397713Y-95374683D01*
X69377733Y-95526449D01*
X69376322Y-95537166D01*
X69383696Y-95603954D01*
X69394265Y-95699689D01*
X69395140Y-95707615D01*
X69397749Y-95714746D01*
X69397750Y-95714748D01*
X69408692Y-95744647D01*
X69436226Y-95819886D01*
X69436398Y-95820357D01*
X69441024Y-95891202D01*
X69427192Y-95926656D01*
X69332871Y-96090024D01*
X69273856Y-96271652D01*
X69273166Y-96278213D01*
X69273166Y-96278215D01*
X69258938Y-96413589D01*
X69253894Y-96461580D01*
X69254584Y-96468145D01*
X69261543Y-96534358D01*
X69248771Y-96604196D01*
X69200269Y-96656043D01*
X69131436Y-96673437D01*
X69070398Y-96654960D01*
X68961413Y-96588173D01*
X68945418Y-96576552D01*
X68793866Y-96447115D01*
X68779885Y-96433134D01*
X68650448Y-96281582D01*
X68638827Y-96265587D01*
X68534693Y-96095657D01*
X68525716Y-96078040D01*
X68449446Y-95893906D01*
X68443336Y-95875103D01*
X68396808Y-95681303D01*
X68393715Y-95661774D01*
X68380809Y-95497783D01*
X68381794Y-95475458D01*
X68381134Y-95475399D01*
X68381569Y-95470551D01*
X68382376Y-95465752D01*
X68382529Y-95453200D01*
X68378573Y-95425576D01*
X68377300Y-95407714D01*
X68377300Y-91626125D01*
X68397302Y-91558004D01*
X68450958Y-91511511D01*
X68521232Y-91501407D01*
X68590431Y-91535107D01*
X68691881Y-91632225D01*
X68691886Y-91632229D01*
X68696215Y-91636373D01*
X68701254Y-91639627D01*
X68701257Y-91639629D01*
X68788080Y-91695689D01*
X68869906Y-91748523D01*
X68875469Y-91750765D01*
X68875473Y-91750767D01*
X69056101Y-91823562D01*
X69056104Y-91823563D01*
X69061670Y-91825806D01*
X69138660Y-91840841D01*
X69260142Y-91864565D01*
X69260145Y-91864565D01*
X69264588Y-91865433D01*
X69270047Y-91865700D01*
X69513601Y-91865700D01*
X69581722Y-91885702D01*
X69628215Y-91939358D01*
X69638319Y-92009632D01*
X69630994Y-92037470D01*
X69585875Y-92153195D01*
X69577818Y-92173859D01*
X69576826Y-92181392D01*
X69576826Y-92181393D01*
X69557513Y-92328093D01*
X69555435Y-92343876D01*
X69562000Y-92403343D01*
X69572644Y-92499749D01*
X69574253Y-92514325D01*
X69576862Y-92521456D01*
X69576863Y-92521458D01*
X69582214Y-92536079D01*
X69633185Y-92675365D01*
X69637422Y-92681671D01*
X69637424Y-92681674D01*
X69658879Y-92713602D01*
X69728830Y-92817699D01*
X69855665Y-92933110D01*
X70006368Y-93014935D01*
X70172239Y-93058451D01*
X70259686Y-93059824D01*
X70336103Y-93061025D01*
X70336106Y-93061025D01*
X70343702Y-93061144D01*
X70351106Y-93059448D01*
X70351108Y-93059448D01*
X70448007Y-93037255D01*
X70510859Y-93022860D01*
X70664058Y-92945809D01*
X70669829Y-92940880D01*
X70669832Y-92940878D01*
X70788678Y-92839373D01*
X70794455Y-92834439D01*
X70881286Y-92713602D01*
X70890092Y-92701348D01*
X70890093Y-92701347D01*
X70894524Y-92695180D01*
X70958485Y-92536070D01*
X70964549Y-92493461D01*
X70982066Y-92370381D01*
X70982066Y-92370377D01*
X70982647Y-92366297D01*
X70982804Y-92351350D01*
X70970106Y-92246422D01*
X70963115Y-92188649D01*
X70963114Y-92188646D01*
X70962202Y-92181108D01*
X70955820Y-92164217D01*
X70904271Y-92027797D01*
X70901587Y-92020694D01*
X70897016Y-92014042D01*
X70872685Y-91978641D01*
X70850586Y-91911172D01*
X70868472Y-91842465D01*
X70920664Y-91794335D01*
X70922434Y-91793545D01*
X70925007Y-91792790D01*
X70930333Y-91790047D01*
X70930338Y-91790045D01*
X71103482Y-91700870D01*
X71103485Y-91700868D01*
X71108813Y-91698124D01*
X71271401Y-91570409D01*
X71275334Y-91565877D01*
X71347894Y-91482259D01*
X71407647Y-91443919D01*
X71478644Y-91443969D01*
X71538342Y-91482396D01*
X71540577Y-91485245D01*
X71543398Y-91488514D01*
X71546865Y-91493401D01*
X71551188Y-91497539D01*
X71551192Y-91497544D01*
X71643224Y-91585645D01*
X71678600Y-91647201D01*
X71675081Y-91718110D01*
X71638922Y-91771612D01*
X71527521Y-91868793D01*
X71527517Y-91868797D01*
X71521795Y-91873789D01*
X71423190Y-92014089D01*
X71395098Y-92086141D01*
X71368955Y-92153195D01*
X71360898Y-92173859D01*
X71359906Y-92181392D01*
X71359906Y-92181393D01*
X71340593Y-92328093D01*
X71338515Y-92343876D01*
X71345080Y-92403343D01*
X71355724Y-92499749D01*
X71357333Y-92514325D01*
X71359942Y-92521456D01*
X71359943Y-92521458D01*
X71365294Y-92536079D01*
X71416265Y-92675365D01*
X71420502Y-92681671D01*
X71420504Y-92681674D01*
X71441959Y-92713602D01*
X71511910Y-92817699D01*
X71638745Y-92933110D01*
X71789448Y-93014935D01*
X71955319Y-93058451D01*
X72042766Y-93059824D01*
X72119183Y-93061025D01*
X72119186Y-93061025D01*
X72126782Y-93061144D01*
X72134186Y-93059448D01*
X72134188Y-93059448D01*
X72231087Y-93037255D01*
X72293939Y-93022860D01*
X72447138Y-92945809D01*
X72452909Y-92940880D01*
X72452912Y-92940878D01*
X72571758Y-92839373D01*
X72577535Y-92834439D01*
X72666703Y-92710350D01*
X72722697Y-92666704D01*
X72793400Y-92660258D01*
X72856364Y-92693061D01*
X72873605Y-92713602D01*
X72892039Y-92741034D01*
X72952090Y-92830399D01*
X72957706Y-92835509D01*
X73068951Y-92936734D01*
X73078925Y-92945810D01*
X73229628Y-93027635D01*
X73395499Y-93071151D01*
X73482946Y-93072524D01*
X73559363Y-93073725D01*
X73559366Y-93073725D01*
X73566962Y-93073844D01*
X73574366Y-93072148D01*
X73574368Y-93072148D01*
X73694709Y-93044586D01*
X73734119Y-93035560D01*
X73887318Y-92958509D01*
X73893089Y-92953580D01*
X73893092Y-92953578D01*
X73943859Y-92910218D01*
X74017715Y-92847139D01*
X74019265Y-92844982D01*
X74078295Y-92809462D01*
X74149260Y-92811557D01*
X74181998Y-92828042D01*
X74186365Y-92832016D01*
X74337068Y-92913841D01*
X74502939Y-92957357D01*
X74590386Y-92958730D01*
X74666803Y-92959931D01*
X74666806Y-92959931D01*
X74674402Y-92960050D01*
X74681806Y-92958354D01*
X74681808Y-92958354D01*
X74758111Y-92940878D01*
X74841559Y-92921766D01*
X74994758Y-92844715D01*
X75000529Y-92839786D01*
X75000532Y-92839784D01*
X75119378Y-92738279D01*
X75125155Y-92733345D01*
X75225224Y-92594086D01*
X75228055Y-92587042D01*
X75228059Y-92587036D01*
X75240739Y-92555493D01*
X75284706Y-92499749D01*
X75351831Y-92476624D01*
X75420802Y-92493461D01*
X75451281Y-92518180D01*
X75467398Y-92536079D01*
X75566494Y-92608077D01*
X75581350Y-92618870D01*
X75621899Y-92648331D01*
X75627927Y-92651015D01*
X75627929Y-92651016D01*
X75790332Y-92723322D01*
X75796363Y-92726007D01*
X75882006Y-92744211D01*
X75976707Y-92764341D01*
X75976712Y-92764341D01*
X75983164Y-92765713D01*
X76174138Y-92765713D01*
X76180590Y-92764341D01*
X76180595Y-92764341D01*
X76275296Y-92744211D01*
X76360939Y-92726007D01*
X76366970Y-92723322D01*
X76529373Y-92651016D01*
X76529375Y-92651015D01*
X76535403Y-92648331D01*
X76575953Y-92618870D01*
X76590808Y-92608077D01*
X76689904Y-92536079D01*
X76703069Y-92521458D01*
X76813272Y-92399065D01*
X76813273Y-92399064D01*
X76817691Y-92394157D01*
X76898307Y-92254526D01*
X76909874Y-92234492D01*
X76909875Y-92234491D01*
X76913178Y-92228769D01*
X76972193Y-92047141D01*
X76973210Y-92037470D01*
X76991465Y-91863778D01*
X76992155Y-91857213D01*
X76990434Y-91840841D01*
X76972883Y-91673848D01*
X76972883Y-91673846D01*
X76972193Y-91667285D01*
X76944487Y-91582015D01*
X76942459Y-91511048D01*
X76979122Y-91450250D01*
X76987617Y-91443117D01*
X76990894Y-91440602D01*
X77055574Y-91390972D01*
X77060600Y-91384422D01*
X77060604Y-91384418D01*
X77074084Y-91366850D01*
X77084952Y-91354458D01*
X77211599Y-91227811D01*
X77273911Y-91193785D01*
X77344726Y-91198850D01*
X77360817Y-91206176D01*
X77368127Y-91210145D01*
X77374802Y-91213769D01*
X77540673Y-91257285D01*
X77628120Y-91258658D01*
X77704537Y-91259859D01*
X77704540Y-91259859D01*
X77712136Y-91259978D01*
X77719540Y-91258282D01*
X77719542Y-91258282D01*
X77785227Y-91243238D01*
X77879293Y-91221694D01*
X78032492Y-91144643D01*
X78038263Y-91139714D01*
X78038266Y-91139712D01*
X78157112Y-91038207D01*
X78162889Y-91033273D01*
X78167320Y-91027106D01*
X78167326Y-91027100D01*
X78209013Y-90969086D01*
X78265007Y-90925438D01*
X78311335Y-90916612D01*
X79316388Y-90916612D01*
X79384509Y-90936614D01*
G37*
%TD.AperFunction*%
%TA.AperFunction,Conductor*%
G36*
X86556069Y-81122702D02*
G01*
X86602562Y-81176358D01*
X86612666Y-81246632D01*
X86610970Y-81255126D01*
X86609031Y-81260099D01*
X86608040Y-81267626D01*
X86608039Y-81267630D01*
X86587639Y-81422585D01*
X86586648Y-81430116D01*
X86605466Y-81600565D01*
X86608075Y-81607696D01*
X86608076Y-81607698D01*
X86616001Y-81629354D01*
X86664398Y-81761605D01*
X86760043Y-81903939D01*
X86886878Y-82019350D01*
X87037581Y-82101175D01*
X87203452Y-82144691D01*
X87290899Y-82146064D01*
X87367316Y-82147265D01*
X87367319Y-82147265D01*
X87374915Y-82147384D01*
X87382319Y-82145688D01*
X87382321Y-82145688D01*
X87468042Y-82126055D01*
X87542072Y-82109100D01*
X87695271Y-82032049D01*
X87701042Y-82027120D01*
X87701045Y-82027118D01*
X87819891Y-81925613D01*
X87825668Y-81920679D01*
X87925737Y-81781420D01*
X87989698Y-81622310D01*
X87993867Y-81593015D01*
X88013279Y-81456621D01*
X88013279Y-81456617D01*
X88013860Y-81452537D01*
X88014017Y-81437590D01*
X87993415Y-81267348D01*
X87990730Y-81260242D01*
X87990364Y-81258752D01*
X87993542Y-81187827D01*
X88034560Y-81129878D01*
X88100396Y-81103305D01*
X88112728Y-81102700D01*
X97968800Y-81102700D01*
X98036921Y-81122702D01*
X98083414Y-81176358D01*
X98094800Y-81228700D01*
X98094800Y-88269726D01*
X98074798Y-88337847D01*
X98021142Y-88384340D01*
X97950868Y-88394444D01*
X97884981Y-88363802D01*
X97883802Y-88362751D01*
X97829021Y-88313943D01*
X97821025Y-88309709D01*
X97722663Y-88257629D01*
X97677469Y-88233700D01*
X97666951Y-88231058D01*
X97518522Y-88193775D01*
X97518518Y-88193775D01*
X97511151Y-88191924D01*
X97503552Y-88191884D01*
X97503550Y-88191884D01*
X97432094Y-88191510D01*
X97339669Y-88191026D01*
X97332289Y-88192798D01*
X97332287Y-88192798D01*
X97180302Y-88229286D01*
X97180298Y-88229287D01*
X97172923Y-88231058D01*
X97020539Y-88309709D01*
X96891315Y-88422439D01*
X96886948Y-88428653D01*
X96806331Y-88543358D01*
X96750796Y-88587590D01*
X96680164Y-88594775D01*
X96616860Y-88562633D01*
X96599404Y-88542274D01*
X96561169Y-88486641D01*
X96561168Y-88486639D01*
X96556867Y-88480382D01*
X96551196Y-88475329D01*
X96434503Y-88371359D01*
X96434500Y-88371357D01*
X96428831Y-88366306D01*
X96415745Y-88359377D01*
X96315364Y-88306228D01*
X96277279Y-88286063D01*
X96164078Y-88257629D01*
X96145415Y-88252941D01*
X96084220Y-88216946D01*
X96080815Y-88212717D01*
X96080726Y-88212796D01*
X96075707Y-88207103D01*
X96071401Y-88200838D01*
X96021846Y-88156686D01*
X95949037Y-88091815D01*
X95949034Y-88091813D01*
X95943365Y-88086762D01*
X95931093Y-88080264D01*
X95839917Y-88031989D01*
X95791813Y-88006519D01*
X95768850Y-88000751D01*
X95632866Y-87966594D01*
X95632862Y-87966594D01*
X95625495Y-87964743D01*
X95617896Y-87964703D01*
X95617894Y-87964703D01*
X95546438Y-87964329D01*
X95454013Y-87963845D01*
X95446633Y-87965617D01*
X95446631Y-87965617D01*
X95430854Y-87969405D01*
X95359946Y-87965858D01*
X95302212Y-87924538D01*
X95275982Y-87858565D01*
X95275440Y-87846886D01*
X95275440Y-84851514D01*
X95276518Y-84835067D01*
X95279407Y-84813124D01*
X95280485Y-84804936D01*
X95274200Y-84757198D01*
X95260390Y-84652299D01*
X95208753Y-84527637D01*
X95201474Y-84510063D01*
X95166313Y-84464241D01*
X95107753Y-84387923D01*
X95101203Y-84382897D01*
X95101199Y-84382893D01*
X95083631Y-84369413D01*
X95071239Y-84358545D01*
X95056172Y-84343478D01*
X95022146Y-84281166D01*
X95027211Y-84210351D01*
X95069758Y-84153515D01*
X95119070Y-84131136D01*
X95123914Y-84130106D01*
X95303688Y-84091894D01*
X95331283Y-84079608D01*
X95472122Y-84016903D01*
X95472124Y-84016902D01*
X95478152Y-84014218D01*
X95497470Y-84000183D01*
X95557664Y-83956449D01*
X95632653Y-83901966D01*
X95657097Y-83874818D01*
X95756021Y-83764952D01*
X95756022Y-83764951D01*
X95760440Y-83760044D01*
X95840680Y-83621065D01*
X95852623Y-83600379D01*
X95852624Y-83600378D01*
X95855927Y-83594656D01*
X95914942Y-83413028D01*
X95916386Y-83399294D01*
X95934214Y-83229665D01*
X95934904Y-83223100D01*
X95931640Y-83192041D01*
X95915632Y-83039735D01*
X95915632Y-83039733D01*
X95914942Y-83033172D01*
X95855927Y-82851544D01*
X95760440Y-82686156D01*
X95751632Y-82676373D01*
X95637075Y-82549145D01*
X95637074Y-82549144D01*
X95632653Y-82544234D01*
X95507483Y-82453292D01*
X95483494Y-82435863D01*
X95483493Y-82435862D01*
X95478152Y-82431982D01*
X95472124Y-82429298D01*
X95472122Y-82429297D01*
X95309719Y-82356991D01*
X95309718Y-82356991D01*
X95303688Y-82354306D01*
X95210287Y-82334453D01*
X95123344Y-82315972D01*
X95123339Y-82315972D01*
X95116887Y-82314600D01*
X94925913Y-82314600D01*
X94919461Y-82315972D01*
X94919456Y-82315972D01*
X94832513Y-82334453D01*
X94739112Y-82354306D01*
X94733082Y-82356991D01*
X94733081Y-82356991D01*
X94570678Y-82429297D01*
X94570676Y-82429298D01*
X94564648Y-82431982D01*
X94559307Y-82435862D01*
X94559306Y-82435863D01*
X94535317Y-82453292D01*
X94410147Y-82544234D01*
X94405726Y-82549144D01*
X94405725Y-82549145D01*
X94291169Y-82676373D01*
X94282360Y-82686156D01*
X94186873Y-82851544D01*
X94127858Y-83033172D01*
X94127168Y-83039733D01*
X94127168Y-83039735D01*
X94119140Y-83116117D01*
X94092127Y-83181774D01*
X94033905Y-83222403D01*
X93962960Y-83225106D01*
X93904735Y-83192041D01*
X93128960Y-82416266D01*
X93118092Y-82403874D01*
X93104614Y-82386309D01*
X93099586Y-82379756D01*
X93092235Y-82374115D01*
X92987045Y-82293401D01*
X92984001Y-82291064D01*
X92983995Y-82291061D01*
X92977446Y-82286035D01*
X92927254Y-82265245D01*
X92835210Y-82227119D01*
X92835767Y-82225774D01*
X92811118Y-82214335D01*
X92807052Y-82210712D01*
X92655500Y-82130469D01*
X92637927Y-82126055D01*
X92496553Y-82090544D01*
X92496549Y-82090544D01*
X92489182Y-82088693D01*
X92481583Y-82088653D01*
X92481581Y-82088653D01*
X92410125Y-82088279D01*
X92317700Y-82087795D01*
X92310320Y-82089567D01*
X92310318Y-82089567D01*
X92158333Y-82126055D01*
X92158329Y-82126056D01*
X92150954Y-82127827D01*
X91998570Y-82206478D01*
X91869346Y-82319208D01*
X91770741Y-82459508D01*
X91708449Y-82619278D01*
X91707457Y-82626811D01*
X91707457Y-82626812D01*
X91687472Y-82778616D01*
X91686066Y-82789295D01*
X91693632Y-82857829D01*
X91703665Y-82948700D01*
X91704884Y-82959744D01*
X91763816Y-83120784D01*
X91768053Y-83127090D01*
X91768055Y-83127093D01*
X91793044Y-83164280D01*
X91859461Y-83263118D01*
X91865077Y-83268228D01*
X91979631Y-83372464D01*
X91986296Y-83378529D01*
X92136999Y-83460354D01*
X92242077Y-83487921D01*
X92246815Y-83489164D01*
X92307630Y-83525798D01*
X92338985Y-83589495D01*
X92332234Y-83656810D01*
X92300327Y-83738648D01*
X92290939Y-83762726D01*
X92289947Y-83770259D01*
X92289947Y-83770260D01*
X92269969Y-83922012D01*
X92268556Y-83932743D01*
X92274093Y-83982896D01*
X92286402Y-84094386D01*
X92287374Y-84103192D01*
X92289983Y-84110323D01*
X92289984Y-84110325D01*
X92312889Y-84172916D01*
X92346306Y-84264232D01*
X92350543Y-84270538D01*
X92350545Y-84270541D01*
X92389834Y-84329008D01*
X92441951Y-84406566D01*
X92486950Y-84447512D01*
X92545578Y-84500859D01*
X92568786Y-84521977D01*
X92719489Y-84603802D01*
X92885360Y-84647318D01*
X92972807Y-84648691D01*
X93049224Y-84649892D01*
X93049227Y-84649892D01*
X93056823Y-84650011D01*
X93064227Y-84648315D01*
X93064229Y-84648315D01*
X93127067Y-84633923D01*
X93223980Y-84611727D01*
X93377179Y-84534676D01*
X93382952Y-84529745D01*
X93382957Y-84529742D01*
X93405336Y-84510629D01*
X93470126Y-84481598D01*
X93540326Y-84492205D01*
X93576260Y-84517346D01*
X94069135Y-85010221D01*
X94103161Y-85072533D01*
X94106040Y-85099316D01*
X94106040Y-87533091D01*
X94086038Y-87601212D01*
X94032382Y-87647705D01*
X93962108Y-87657809D01*
X93949345Y-87655295D01*
X93855756Y-87631787D01*
X93855752Y-87631787D01*
X93848385Y-87629936D01*
X93840786Y-87629896D01*
X93840784Y-87629896D01*
X93769328Y-87629522D01*
X93676903Y-87629038D01*
X93669523Y-87630810D01*
X93669521Y-87630810D01*
X93517536Y-87667298D01*
X93517532Y-87667299D01*
X93510157Y-87669070D01*
X93357773Y-87747721D01*
X93228549Y-87860451D01*
X93129944Y-88000751D01*
X93129584Y-88000498D01*
X93083127Y-88047669D01*
X93021240Y-88063543D01*
X92900190Y-88062909D01*
X92892810Y-88064681D01*
X92892808Y-88064681D01*
X92740823Y-88101169D01*
X92740819Y-88101170D01*
X92733444Y-88102941D01*
X92581060Y-88181592D01*
X92451836Y-88294322D01*
X92353231Y-88434622D01*
X92333597Y-88484981D01*
X92300031Y-88571073D01*
X92290939Y-88594392D01*
X92289947Y-88601925D01*
X92289947Y-88601926D01*
X92269604Y-88756449D01*
X92268556Y-88764409D01*
X92274979Y-88822587D01*
X92286230Y-88924494D01*
X92287374Y-88934858D01*
X92346306Y-89095898D01*
X92350543Y-89102204D01*
X92350545Y-89102207D01*
X92371088Y-89132778D01*
X92441951Y-89238232D01*
X92568786Y-89353643D01*
X92719489Y-89435468D01*
X92885360Y-89478984D01*
X93050214Y-89481573D01*
X93118011Y-89502642D01*
X93163655Y-89557021D01*
X93174234Y-89607557D01*
X93174234Y-90415681D01*
X93154232Y-90483802D01*
X93106025Y-90527646D01*
X92960969Y-90602515D01*
X92955245Y-90607508D01*
X92950762Y-90610555D01*
X92926109Y-90621847D01*
X92926651Y-90623156D01*
X92828345Y-90663876D01*
X92784415Y-90682072D01*
X92777867Y-90687097D01*
X92777861Y-90687100D01*
X92752863Y-90706282D01*
X92662275Y-90775792D01*
X92660288Y-90773202D01*
X92611416Y-90799889D01*
X92540601Y-90794824D01*
X92483765Y-90752277D01*
X92477780Y-90743540D01*
X92477088Y-90742433D01*
X92477088Y-90742432D01*
X92473355Y-90736459D01*
X92468393Y-90731462D01*
X92350507Y-90612750D01*
X92350503Y-90612747D01*
X92345544Y-90607753D01*
X92337291Y-90602515D01*
X92267038Y-90557932D01*
X92192395Y-90510562D01*
X92147636Y-90494624D01*
X92028154Y-90452078D01*
X92028149Y-90452077D01*
X92021519Y-90449716D01*
X92014531Y-90448883D01*
X92014528Y-90448882D01*
X91870316Y-90431686D01*
X91841409Y-90428239D01*
X91834406Y-90428975D01*
X91834405Y-90428975D01*
X91668017Y-90446463D01*
X91668015Y-90446464D01*
X91661017Y-90447199D01*
X91585382Y-90472947D01*
X91495978Y-90503382D01*
X91495975Y-90503383D01*
X91489308Y-90505653D01*
X91483309Y-90509344D01*
X91480875Y-90510489D01*
X91410720Y-90521394D01*
X91384961Y-90515179D01*
X91224225Y-90457943D01*
X91224220Y-90457942D01*
X91217590Y-90455581D01*
X91210602Y-90454748D01*
X91210599Y-90454747D01*
X91065154Y-90437404D01*
X91037480Y-90434104D01*
X91030477Y-90434840D01*
X91030476Y-90434840D01*
X90864088Y-90452328D01*
X90864086Y-90452329D01*
X90857088Y-90453064D01*
X90685379Y-90511518D01*
X90591270Y-90569415D01*
X90522771Y-90588072D01*
X90466292Y-90573451D01*
X90439220Y-90559117D01*
X90404574Y-90540773D01*
X90387001Y-90536359D01*
X90245627Y-90500848D01*
X90245623Y-90500848D01*
X90238256Y-90498997D01*
X90230657Y-90498957D01*
X90230655Y-90498957D01*
X90159199Y-90498583D01*
X90066774Y-90498099D01*
X90059394Y-90499871D01*
X90059392Y-90499871D01*
X89907407Y-90536359D01*
X89907403Y-90536360D01*
X89900028Y-90538131D01*
X89807910Y-90585677D01*
X89759709Y-90610555D01*
X89747644Y-90616782D01*
X89741922Y-90621774D01*
X89741920Y-90621775D01*
X89741142Y-90622454D01*
X89740457Y-90622769D01*
X89735639Y-90626044D01*
X89735093Y-90625241D01*
X89676658Y-90652160D01*
X89606351Y-90642287D01*
X89599358Y-90638857D01*
X89594045Y-90636044D01*
X89547363Y-90611327D01*
X89539998Y-90609477D01*
X89388416Y-90571402D01*
X89388412Y-90571402D01*
X89381045Y-90569551D01*
X89373446Y-90569511D01*
X89373444Y-90569511D01*
X89328922Y-90569278D01*
X89252846Y-90568880D01*
X89184831Y-90548522D01*
X89138620Y-90494624D01*
X89135647Y-90487437D01*
X89124176Y-90457080D01*
X89116879Y-90446463D01*
X89031348Y-90322014D01*
X89031347Y-90322012D01*
X89027046Y-90315755D01*
X88962587Y-90258324D01*
X88904682Y-90206732D01*
X88904679Y-90206730D01*
X88899010Y-90201679D01*
X88747458Y-90121436D01*
X88645766Y-90095893D01*
X88584570Y-90059898D01*
X88552549Y-89996533D01*
X88551374Y-89988827D01*
X88542004Y-89911399D01*
X88542003Y-89911396D01*
X88541091Y-89903858D01*
X88533054Y-89882587D01*
X88483160Y-89750547D01*
X88480476Y-89743444D01*
X88463870Y-89719282D01*
X88387648Y-89608378D01*
X88387647Y-89608376D01*
X88383346Y-89602119D01*
X88377675Y-89597066D01*
X88260982Y-89493096D01*
X88260979Y-89493094D01*
X88255310Y-89488043D01*
X88247314Y-89483809D01*
X88182270Y-89449370D01*
X88103758Y-89407800D01*
X88093240Y-89405158D01*
X87944811Y-89367875D01*
X87944807Y-89367875D01*
X87937440Y-89366024D01*
X87929841Y-89365984D01*
X87929839Y-89365984D01*
X87858383Y-89365610D01*
X87765958Y-89365126D01*
X87758578Y-89366898D01*
X87758576Y-89366898D01*
X87606591Y-89403386D01*
X87606587Y-89403387D01*
X87599212Y-89405158D01*
X87446828Y-89483809D01*
X87317604Y-89596539D01*
X87313237Y-89602752D01*
X87313233Y-89602757D01*
X87312013Y-89604493D01*
X87310801Y-89605459D01*
X87308154Y-89608398D01*
X87307664Y-89607957D01*
X87256478Y-89648723D01*
X87185846Y-89655908D01*
X87122542Y-89623765D01*
X87105088Y-89603407D01*
X87046979Y-89518858D01*
X87046978Y-89518856D01*
X87042677Y-89512599D01*
X87031502Y-89502642D01*
X86920313Y-89403576D01*
X86920310Y-89403574D01*
X86914641Y-89398523D01*
X86899419Y-89390463D01*
X86769801Y-89321834D01*
X86769802Y-89321834D01*
X86763089Y-89318280D01*
X86751213Y-89315297D01*
X86604142Y-89278355D01*
X86604138Y-89278355D01*
X86596771Y-89276504D01*
X86589172Y-89276464D01*
X86589170Y-89276464D01*
X86512039Y-89276060D01*
X86444024Y-89255702D01*
X86397813Y-89201803D01*
X86386699Y-89150062D01*
X86386699Y-88822587D01*
X86406701Y-88754466D01*
X86460357Y-88707973D01*
X86484569Y-88699767D01*
X86610036Y-88671031D01*
X86617437Y-88669336D01*
X86770636Y-88592285D01*
X86776407Y-88587356D01*
X86776410Y-88587354D01*
X86895256Y-88485849D01*
X86901033Y-88480915D01*
X86980645Y-88370125D01*
X86996670Y-88347824D01*
X86996671Y-88347823D01*
X87001102Y-88341656D01*
X87065063Y-88182546D01*
X87069893Y-88148606D01*
X87088644Y-88016857D01*
X87088644Y-88016853D01*
X87089225Y-88012773D01*
X87089310Y-88004669D01*
X87089339Y-88001959D01*
X87089339Y-88001953D01*
X87089382Y-87997826D01*
X87077944Y-87903309D01*
X87069693Y-87835125D01*
X87069692Y-87835122D01*
X87068780Y-87827584D01*
X87056457Y-87794970D01*
X87010849Y-87674273D01*
X87008165Y-87667170D01*
X86983847Y-87631787D01*
X86915337Y-87532104D01*
X86915336Y-87532102D01*
X86911035Y-87525845D01*
X86802136Y-87428819D01*
X86764583Y-87368573D01*
X86765562Y-87297583D01*
X86804767Y-87238392D01*
X86857825Y-87211927D01*
X86861878Y-87210999D01*
X86861884Y-87210997D01*
X86869284Y-87209302D01*
X87022483Y-87132251D01*
X87028254Y-87127322D01*
X87028257Y-87127320D01*
X87128673Y-87041556D01*
X87193463Y-87012525D01*
X87263663Y-87023130D01*
X87316986Y-87070005D01*
X87335743Y-87123540D01*
X87341192Y-87172889D01*
X87344280Y-87200863D01*
X87346889Y-87207994D01*
X87346890Y-87207996D01*
X87361009Y-87246577D01*
X87403212Y-87361903D01*
X87407449Y-87368209D01*
X87407451Y-87368212D01*
X87436721Y-87411769D01*
X87498857Y-87504237D01*
X87548314Y-87549239D01*
X87620058Y-87614521D01*
X87625692Y-87619648D01*
X87776395Y-87701473D01*
X87942266Y-87744989D01*
X88029713Y-87746362D01*
X88106130Y-87747563D01*
X88106133Y-87747563D01*
X88113729Y-87747682D01*
X88121133Y-87745986D01*
X88121135Y-87745986D01*
X88234276Y-87720073D01*
X88280886Y-87709398D01*
X88434085Y-87632347D01*
X88439856Y-87627418D01*
X88439859Y-87627416D01*
X88558705Y-87525911D01*
X88564482Y-87520977D01*
X88664551Y-87381718D01*
X88728512Y-87222608D01*
X88733539Y-87187288D01*
X88752093Y-87056919D01*
X88752093Y-87056915D01*
X88752674Y-87052835D01*
X88752831Y-87037888D01*
X88743075Y-86957269D01*
X88733142Y-86875187D01*
X88733141Y-86875184D01*
X88732229Y-86867646D01*
X88727327Y-86854671D01*
X88674298Y-86714335D01*
X88671614Y-86707232D01*
X88646389Y-86670530D01*
X88578786Y-86572166D01*
X88578785Y-86572164D01*
X88574484Y-86565907D01*
X88546654Y-86541111D01*
X88509099Y-86480864D01*
X88510078Y-86409874D01*
X88549282Y-86350683D01*
X88586788Y-86329064D01*
X88592533Y-86327748D01*
X88745732Y-86250697D01*
X88751503Y-86245768D01*
X88751506Y-86245766D01*
X88870352Y-86144261D01*
X88876129Y-86139327D01*
X88961359Y-86020719D01*
X88971766Y-86006236D01*
X88971767Y-86006235D01*
X88976198Y-86000068D01*
X89040159Y-85840958D01*
X89043777Y-85815536D01*
X89057642Y-85718116D01*
X89066319Y-85699044D01*
X89297554Y-85699044D01*
X89307624Y-85722043D01*
X89309529Y-85739300D01*
X89324516Y-85875046D01*
X89325943Y-85887975D01*
X89328552Y-85895106D01*
X89328553Y-85895108D01*
X89336478Y-85916764D01*
X89384875Y-86049015D01*
X89389112Y-86055321D01*
X89389114Y-86055324D01*
X89424517Y-86108008D01*
X89480520Y-86191349D01*
X89497870Y-86207136D01*
X89601289Y-86301240D01*
X89607355Y-86306760D01*
X89648158Y-86328914D01*
X89730500Y-86373622D01*
X89753575Y-86386151D01*
X89758058Y-86388585D01*
X89757652Y-86389332D01*
X89808709Y-86429174D01*
X89832182Y-86496178D01*
X89818102Y-86559026D01*
X89817896Y-86559318D01*
X89808975Y-86582200D01*
X89762802Y-86700627D01*
X89755604Y-86719088D01*
X89754612Y-86726621D01*
X89754612Y-86726622D01*
X89734585Y-86878745D01*
X89733221Y-86889105D01*
X89741388Y-86963081D01*
X89750842Y-87048710D01*
X89752039Y-87059554D01*
X89754648Y-87066685D01*
X89754649Y-87066687D01*
X89762574Y-87088343D01*
X89810971Y-87220594D01*
X89815208Y-87226900D01*
X89815210Y-87226903D01*
X89856839Y-87288852D01*
X89906616Y-87362928D01*
X90033451Y-87478339D01*
X90184154Y-87560164D01*
X90274363Y-87583830D01*
X90319294Y-87595618D01*
X90380109Y-87632252D01*
X90411464Y-87695950D01*
X90403405Y-87766487D01*
X90358489Y-87821470D01*
X90345109Y-87829460D01*
X90208777Y-87899826D01*
X90202029Y-87903309D01*
X90072805Y-88016039D01*
X89974200Y-88156339D01*
X89956663Y-88201319D01*
X89948446Y-88222394D01*
X89905065Y-88278596D01*
X89860468Y-88299142D01*
X89826926Y-88307195D01*
X89826920Y-88307197D01*
X89819540Y-88308969D01*
X89667156Y-88387620D01*
X89537932Y-88500350D01*
X89439327Y-88640650D01*
X89417182Y-88697450D01*
X89384170Y-88782121D01*
X89377035Y-88800420D01*
X89366090Y-88883554D01*
X89356779Y-88954282D01*
X89354652Y-88970437D01*
X89362473Y-89041280D01*
X89372575Y-89132778D01*
X89373470Y-89140886D01*
X89376079Y-89148017D01*
X89376080Y-89148019D01*
X89387548Y-89179357D01*
X89432402Y-89301926D01*
X89436639Y-89308232D01*
X89436641Y-89308235D01*
X89469590Y-89357267D01*
X89528047Y-89444260D01*
X89569168Y-89481677D01*
X89622514Y-89530218D01*
X89654882Y-89559671D01*
X89805585Y-89641496D01*
X89971456Y-89685012D01*
X90060695Y-89686414D01*
X90135321Y-89687586D01*
X90135324Y-89687586D01*
X90142919Y-89687705D01*
X90214022Y-89671420D01*
X90284888Y-89675709D01*
X90302265Y-89683505D01*
X90353562Y-89711357D01*
X90519433Y-89754873D01*
X90606880Y-89756246D01*
X90683297Y-89757447D01*
X90683300Y-89757447D01*
X90690896Y-89757566D01*
X90698300Y-89755870D01*
X90698302Y-89755870D01*
X90781395Y-89736839D01*
X90858053Y-89719282D01*
X91011252Y-89642231D01*
X91017023Y-89637302D01*
X91017026Y-89637300D01*
X91135872Y-89535795D01*
X91141649Y-89530861D01*
X91229476Y-89408639D01*
X91237286Y-89397770D01*
X91237287Y-89397769D01*
X91241718Y-89391602D01*
X91305679Y-89232492D01*
X91313241Y-89179357D01*
X91329260Y-89066803D01*
X91329260Y-89066799D01*
X91329841Y-89062719D01*
X91329998Y-89047772D01*
X91315065Y-88924375D01*
X91310309Y-88885073D01*
X91310309Y-88885072D01*
X91309396Y-88877530D01*
X91279808Y-88799226D01*
X91274440Y-88728436D01*
X91280767Y-88707693D01*
X91292575Y-88678320D01*
X91304520Y-88594392D01*
X91316156Y-88512631D01*
X91316156Y-88512627D01*
X91316737Y-88508547D01*
X91316894Y-88493600D01*
X91309034Y-88428653D01*
X91297205Y-88330899D01*
X91297204Y-88330896D01*
X91296292Y-88323358D01*
X91292735Y-88313943D01*
X91238361Y-88170047D01*
X91235677Y-88162944D01*
X91196887Y-88106504D01*
X91142849Y-88027878D01*
X91142848Y-88027876D01*
X91138547Y-88021619D01*
X91132876Y-88016566D01*
X91016183Y-87912596D01*
X91016180Y-87912594D01*
X91010511Y-87907543D01*
X91002515Y-87903309D01*
X90865671Y-87830854D01*
X90865672Y-87830854D01*
X90858959Y-87827300D01*
X90730247Y-87794970D01*
X90669051Y-87758975D01*
X90637030Y-87695610D01*
X90644350Y-87624992D01*
X90688688Y-87569541D01*
X90704325Y-87560203D01*
X90841844Y-87491038D01*
X90847615Y-87486109D01*
X90847618Y-87486107D01*
X90966464Y-87384602D01*
X90972241Y-87379668D01*
X91072310Y-87240409D01*
X91136271Y-87081299D01*
X91148150Y-86997835D01*
X91159852Y-86915610D01*
X91159852Y-86915606D01*
X91160433Y-86911526D01*
X91160590Y-86896579D01*
X91150660Y-86814521D01*
X91140901Y-86733878D01*
X91140900Y-86733875D01*
X91139988Y-86726337D01*
X91133022Y-86707900D01*
X91082057Y-86573026D01*
X91079373Y-86565923D01*
X91054902Y-86530318D01*
X90986545Y-86430857D01*
X90986544Y-86430855D01*
X90982243Y-86424598D01*
X90970933Y-86414521D01*
X90859879Y-86315575D01*
X90859876Y-86315573D01*
X90854207Y-86310522D01*
X90836677Y-86301240D01*
X90702655Y-86230279D01*
X90704249Y-86227269D01*
X90659944Y-86193510D01*
X90635701Y-86126781D01*
X90648454Y-86069731D01*
X90646214Y-86068830D01*
X90660555Y-86033156D01*
X90710175Y-85909720D01*
X90725102Y-85804834D01*
X90754503Y-85740212D01*
X90781546Y-85719130D01*
X90780446Y-85717474D01*
X90786767Y-85713274D01*
X90793558Y-85709859D01*
X90923955Y-85598489D01*
X91004586Y-85486281D01*
X91019592Y-85465398D01*
X91019593Y-85465397D01*
X91024024Y-85459230D01*
X91087985Y-85300120D01*
X91098970Y-85222933D01*
X91111566Y-85134431D01*
X91111566Y-85134427D01*
X91112147Y-85130347D01*
X91112304Y-85115400D01*
X91102597Y-85035189D01*
X91092615Y-84952699D01*
X91092614Y-84952696D01*
X91091702Y-84945158D01*
X91083361Y-84923082D01*
X91033771Y-84791847D01*
X91031087Y-84784744D01*
X90982171Y-84713571D01*
X90938259Y-84649678D01*
X90938258Y-84649676D01*
X90933957Y-84643419D01*
X90928291Y-84638371D01*
X90928285Y-84638364D01*
X90896344Y-84609907D01*
X90858788Y-84549658D01*
X90859767Y-84478668D01*
X90877840Y-84442303D01*
X90919371Y-84384508D01*
X90919372Y-84384507D01*
X90923803Y-84378340D01*
X90987764Y-84219230D01*
X90999011Y-84140203D01*
X91011345Y-84053541D01*
X91011345Y-84053537D01*
X91011926Y-84049457D01*
X91012083Y-84034510D01*
X91003298Y-83961916D01*
X90992394Y-83871809D01*
X90992393Y-83871806D01*
X90991481Y-83864268D01*
X90988160Y-83855477D01*
X90933550Y-83710957D01*
X90930866Y-83703854D01*
X90894194Y-83650496D01*
X90838038Y-83568788D01*
X90838037Y-83568786D01*
X90833736Y-83562529D01*
X90827652Y-83557108D01*
X90711372Y-83453506D01*
X90711369Y-83453504D01*
X90705700Y-83448453D01*
X90697704Y-83444219D01*
X90604925Y-83395095D01*
X90554148Y-83368210D01*
X90511044Y-83357383D01*
X90395201Y-83328285D01*
X90395197Y-83328285D01*
X90387830Y-83326434D01*
X90380231Y-83326394D01*
X90380229Y-83326394D01*
X90308773Y-83326020D01*
X90216348Y-83325536D01*
X90208968Y-83327308D01*
X90208966Y-83327308D01*
X90056981Y-83363796D01*
X90056977Y-83363797D01*
X90049602Y-83365568D01*
X89897218Y-83444219D01*
X89767994Y-83556949D01*
X89669389Y-83697249D01*
X89642993Y-83764952D01*
X89610104Y-83849307D01*
X89607097Y-83857019D01*
X89606105Y-83864552D01*
X89606105Y-83864553D01*
X89585780Y-84018940D01*
X89584714Y-84027036D01*
X89592026Y-84093266D01*
X89602168Y-84185128D01*
X89603532Y-84197485D01*
X89606141Y-84204616D01*
X89606142Y-84204618D01*
X89622228Y-84248574D01*
X89662464Y-84358525D01*
X89666701Y-84364831D01*
X89666703Y-84364834D01*
X89685438Y-84392714D01*
X89758109Y-84500859D01*
X89763728Y-84505972D01*
X89763729Y-84505973D01*
X89801824Y-84540637D01*
X89838747Y-84601277D01*
X89837024Y-84672253D01*
X89820112Y-84706282D01*
X89769610Y-84778139D01*
X89747415Y-84835067D01*
X89710804Y-84928969D01*
X89707318Y-84937909D01*
X89696098Y-85023138D01*
X89694511Y-85035189D01*
X89665789Y-85100116D01*
X89632461Y-85126661D01*
X89632661Y-85126955D01*
X89628779Y-85129593D01*
X89627378Y-85130709D01*
X89626376Y-85131226D01*
X89626372Y-85131228D01*
X89619629Y-85134709D01*
X89490405Y-85247439D01*
X89391800Y-85387739D01*
X89366132Y-85453575D01*
X89334691Y-85534216D01*
X89329508Y-85547509D01*
X89315017Y-85657585D01*
X89314645Y-85660409D01*
X89297554Y-85699044D01*
X89066319Y-85699044D01*
X89074038Y-85682078D01*
X89065228Y-85663378D01*
X89064478Y-85656255D01*
X89064478Y-85656238D01*
X89062582Y-85640571D01*
X89044789Y-85493537D01*
X89044788Y-85493534D01*
X89043876Y-85485996D01*
X89037317Y-85468636D01*
X88985945Y-85332685D01*
X88983261Y-85325582D01*
X88964989Y-85298996D01*
X88890433Y-85190516D01*
X88890432Y-85190514D01*
X88886131Y-85184257D01*
X88880460Y-85179204D01*
X88763767Y-85075234D01*
X88763764Y-85075232D01*
X88758095Y-85070181D01*
X88750099Y-85065947D01*
X88688719Y-85033448D01*
X88606543Y-84989938D01*
X88575737Y-84982200D01*
X88447596Y-84950013D01*
X88447592Y-84950013D01*
X88440225Y-84948162D01*
X88432626Y-84948122D01*
X88432624Y-84948122D01*
X88361168Y-84947748D01*
X88268743Y-84947264D01*
X88261363Y-84949036D01*
X88261361Y-84949036D01*
X88109376Y-84985524D01*
X88109372Y-84985525D01*
X88101997Y-84987296D01*
X87949613Y-85065947D01*
X87820389Y-85178677D01*
X87721784Y-85318977D01*
X87699694Y-85375635D01*
X87664697Y-85465398D01*
X87659492Y-85478747D01*
X87658500Y-85486280D01*
X87658500Y-85486281D01*
X87638188Y-85640571D01*
X87637109Y-85648764D01*
X87645602Y-85725691D01*
X87654340Y-85804835D01*
X87655927Y-85819213D01*
X87658536Y-85826344D01*
X87658537Y-85826346D01*
X87678327Y-85880424D01*
X87714859Y-85980253D01*
X87719096Y-85986559D01*
X87719098Y-85986562D01*
X87751279Y-86034452D01*
X87810504Y-86122587D01*
X87816119Y-86127696D01*
X87816124Y-86127702D01*
X87844634Y-86153644D01*
X87881556Y-86214284D01*
X87879833Y-86285260D01*
X87840011Y-86344036D01*
X87803754Y-86364935D01*
X87797739Y-86367172D01*
X87790350Y-86368946D01*
X87637966Y-86447597D01*
X87632249Y-86452584D01*
X87632242Y-86452589D01*
X87539017Y-86533915D01*
X87474535Y-86563623D01*
X87404228Y-86553753D01*
X87350418Y-86507440D01*
X87331101Y-86454103D01*
X87321540Y-86375091D01*
X87321539Y-86375088D01*
X87320627Y-86367550D01*
X87313494Y-86348671D01*
X87262696Y-86214239D01*
X87260012Y-86207136D01*
X87191883Y-86108008D01*
X87167184Y-86072070D01*
X87167183Y-86072068D01*
X87162882Y-86065811D01*
X87157211Y-86060758D01*
X87040518Y-85956788D01*
X87040515Y-85956786D01*
X87034846Y-85951735D01*
X86883294Y-85871492D01*
X86737297Y-85834820D01*
X86676102Y-85798827D01*
X86644081Y-85735461D01*
X86646238Y-85681207D01*
X86648250Y-85676203D01*
X86667450Y-85541296D01*
X86671831Y-85510514D01*
X86671831Y-85510510D01*
X86672412Y-85506430D01*
X86672569Y-85491483D01*
X86660157Y-85388919D01*
X86652880Y-85328782D01*
X86652879Y-85328779D01*
X86651967Y-85321241D01*
X86648323Y-85311596D01*
X86594036Y-85167930D01*
X86591352Y-85160827D01*
X86571008Y-85131226D01*
X86498524Y-85025761D01*
X86498523Y-85025759D01*
X86494222Y-85019502D01*
X86488551Y-85014449D01*
X86371858Y-84910479D01*
X86371855Y-84910477D01*
X86366186Y-84905426D01*
X86358190Y-84901192D01*
X86277245Y-84858334D01*
X86214634Y-84825183D01*
X86172187Y-84814521D01*
X86055687Y-84785258D01*
X86055683Y-84785258D01*
X86048316Y-84783407D01*
X86040717Y-84783367D01*
X86040715Y-84783367D01*
X85969259Y-84782993D01*
X85876834Y-84782509D01*
X85869454Y-84784281D01*
X85869452Y-84784281D01*
X85717467Y-84820769D01*
X85717463Y-84820770D01*
X85710088Y-84822541D01*
X85557704Y-84901192D01*
X85551981Y-84906185D01*
X85550453Y-84907223D01*
X85482868Y-84928969D01*
X85414256Y-84910725D01*
X85366399Y-84858282D01*
X85361764Y-84847549D01*
X85311138Y-84713571D01*
X85308454Y-84706468D01*
X85269652Y-84650011D01*
X85215626Y-84571402D01*
X85215625Y-84571400D01*
X85211324Y-84565143D01*
X85193944Y-84549658D01*
X85088960Y-84456120D01*
X85088957Y-84456118D01*
X85083288Y-84451067D01*
X85052917Y-84434986D01*
X84945931Y-84378340D01*
X84931736Y-84370824D01*
X84906121Y-84364390D01*
X84772789Y-84330899D01*
X84772785Y-84330899D01*
X84765418Y-84329048D01*
X84757819Y-84329008D01*
X84757817Y-84329008D01*
X84686361Y-84328634D01*
X84593936Y-84328150D01*
X84586556Y-84329922D01*
X84586554Y-84329922D01*
X84530090Y-84343478D01*
X84427190Y-84368182D01*
X84424259Y-84369695D01*
X84355267Y-84374564D01*
X84323211Y-84362826D01*
X84261757Y-84330287D01*
X84254388Y-84328436D01*
X84102810Y-84290362D01*
X84102806Y-84290362D01*
X84095439Y-84288511D01*
X84087840Y-84288471D01*
X84087838Y-84288471D01*
X84016382Y-84288097D01*
X83923957Y-84287613D01*
X83916577Y-84289385D01*
X83916575Y-84289385D01*
X83764590Y-84325873D01*
X83764586Y-84325874D01*
X83757211Y-84327645D01*
X83604827Y-84406296D01*
X83475603Y-84519026D01*
X83376998Y-84659326D01*
X83365331Y-84689250D01*
X83320227Y-84804936D01*
X83314706Y-84819096D01*
X83313715Y-84826627D01*
X83313714Y-84826629D01*
X83303989Y-84900499D01*
X83275266Y-84965426D01*
X83216001Y-85004517D01*
X83145010Y-85005362D01*
X83107158Y-84987518D01*
X83104125Y-84985410D01*
X83098449Y-84980353D01*
X82946897Y-84900110D01*
X82929324Y-84895696D01*
X82787950Y-84860185D01*
X82787946Y-84860185D01*
X82780579Y-84858334D01*
X82772980Y-84858294D01*
X82772978Y-84858294D01*
X82701522Y-84857920D01*
X82609097Y-84857436D01*
X82601717Y-84859208D01*
X82601715Y-84859208D01*
X82449730Y-84895696D01*
X82449726Y-84895697D01*
X82442351Y-84897468D01*
X82289967Y-84976119D01*
X82160743Y-85088849D01*
X82062138Y-85229149D01*
X82037399Y-85292602D01*
X82002730Y-85381523D01*
X81999846Y-85388919D01*
X81998854Y-85396452D01*
X81998854Y-85396453D01*
X81989351Y-85468636D01*
X81960629Y-85533564D01*
X81922219Y-85564156D01*
X81907460Y-85571774D01*
X81813334Y-85620356D01*
X81684110Y-85733086D01*
X81585505Y-85873386D01*
X81555039Y-85951526D01*
X81533709Y-86006236D01*
X81523213Y-86033156D01*
X81522221Y-86040689D01*
X81522221Y-86040690D01*
X81502387Y-86191349D01*
X81500830Y-86203173D01*
X81509769Y-86284136D01*
X81518689Y-86364935D01*
X81519648Y-86373622D01*
X81522257Y-86380753D01*
X81522258Y-86380755D01*
X81532914Y-86409874D01*
X81578580Y-86534662D01*
X81582817Y-86540968D01*
X81582819Y-86540971D01*
X81606113Y-86575635D01*
X81674225Y-86676996D01*
X81720643Y-86719233D01*
X81759288Y-86754397D01*
X81801060Y-86792407D01*
X81951763Y-86874232D01*
X82117634Y-86917748D01*
X82205081Y-86919121D01*
X82281498Y-86920322D01*
X82281501Y-86920322D01*
X82289097Y-86920441D01*
X82296501Y-86918745D01*
X82296503Y-86918745D01*
X82393284Y-86896579D01*
X82456254Y-86882157D01*
X82609453Y-86805106D01*
X82634835Y-86783427D01*
X82699626Y-86754397D01*
X82769826Y-86765002D01*
X82810300Y-86794927D01*
X82895466Y-86889513D01*
X83049967Y-87001765D01*
X83055995Y-87004449D01*
X83055997Y-87004450D01*
X83203237Y-87070005D01*
X83224431Y-87079441D01*
X83317832Y-87099294D01*
X83404775Y-87117775D01*
X83404780Y-87117775D01*
X83411232Y-87119147D01*
X83431769Y-87119147D01*
X83499890Y-87139149D01*
X83520864Y-87156052D01*
X84147780Y-87782968D01*
X84181806Y-87845280D01*
X84176741Y-87916095D01*
X84134194Y-87972931D01*
X84067674Y-87997742D01*
X84027993Y-87994267D01*
X84008511Y-87989374D01*
X84000912Y-87989334D01*
X84000910Y-87989334D01*
X83929454Y-87988960D01*
X83837029Y-87988476D01*
X83829649Y-87990248D01*
X83829647Y-87990248D01*
X83677662Y-88026736D01*
X83677658Y-88026737D01*
X83670283Y-88028508D01*
X83517899Y-88107159D01*
X83388675Y-88219889D01*
X83290070Y-88360189D01*
X83275527Y-88397490D01*
X83233001Y-88506564D01*
X83227778Y-88519959D01*
X83226786Y-88527492D01*
X83226786Y-88527493D01*
X83206930Y-88678320D01*
X83205395Y-88689976D01*
X83213583Y-88764138D01*
X83220036Y-88822587D01*
X83224213Y-88860425D01*
X83226822Y-88867556D01*
X83226823Y-88867558D01*
X83238146Y-88898498D01*
X83283145Y-89021465D01*
X83287382Y-89027771D01*
X83287384Y-89027774D01*
X83308039Y-89058511D01*
X83329432Y-89126208D01*
X83310828Y-89194724D01*
X83258135Y-89242305D01*
X83203458Y-89254787D01*
X82757520Y-89254787D01*
X82689399Y-89234785D01*
X82642906Y-89181129D01*
X82632802Y-89110855D01*
X82645301Y-89073480D01*
X82645203Y-89073440D01*
X82645866Y-89071790D01*
X82709164Y-88914330D01*
X82712694Y-88889526D01*
X82732745Y-88748641D01*
X82732745Y-88748637D01*
X82733326Y-88744557D01*
X82733483Y-88729610D01*
X82723574Y-88647730D01*
X82713794Y-88566909D01*
X82713793Y-88566906D01*
X82712881Y-88559368D01*
X82706832Y-88543358D01*
X82654950Y-88406057D01*
X82652266Y-88398954D01*
X82633534Y-88371699D01*
X82559438Y-88263888D01*
X82559437Y-88263886D01*
X82555136Y-88257629D01*
X82543874Y-88247595D01*
X82432772Y-88148606D01*
X82432769Y-88148604D01*
X82427100Y-88143553D01*
X82275548Y-88063310D01*
X82229900Y-88051844D01*
X82116601Y-88023385D01*
X82116597Y-88023385D01*
X82109230Y-88021534D01*
X82101631Y-88021494D01*
X82101629Y-88021494D01*
X82030173Y-88021120D01*
X81937748Y-88020636D01*
X81930368Y-88022408D01*
X81930366Y-88022408D01*
X81795977Y-88054672D01*
X81725069Y-88051125D01*
X81667335Y-88009805D01*
X81648697Y-87976690D01*
X81616374Y-87891149D01*
X81616373Y-87891147D01*
X81613689Y-87884044D01*
X81577133Y-87830854D01*
X81520861Y-87748978D01*
X81520860Y-87748976D01*
X81516559Y-87742719D01*
X81510888Y-87737666D01*
X81394195Y-87633696D01*
X81394192Y-87633694D01*
X81388523Y-87628643D01*
X81381628Y-87624992D01*
X81259189Y-87560164D01*
X81236971Y-87548400D01*
X81219398Y-87543986D01*
X81078024Y-87508475D01*
X81078020Y-87508475D01*
X81070653Y-87506624D01*
X81063054Y-87506584D01*
X81063052Y-87506584D01*
X80991596Y-87506210D01*
X80899171Y-87505726D01*
X80891791Y-87507498D01*
X80891789Y-87507498D01*
X80739804Y-87543986D01*
X80739800Y-87543987D01*
X80732425Y-87545758D01*
X80580041Y-87624409D01*
X80450817Y-87737139D01*
X80352212Y-87877439D01*
X80349452Y-87884519D01*
X80295310Y-88023385D01*
X80289920Y-88037209D01*
X80288928Y-88044742D01*
X80288928Y-88044743D01*
X80269044Y-88195781D01*
X80267537Y-88207226D01*
X80276633Y-88289617D01*
X80285267Y-88367818D01*
X80286355Y-88377675D01*
X80288964Y-88384806D01*
X80288965Y-88384808D01*
X80309785Y-88441702D01*
X80345287Y-88538715D01*
X80349524Y-88545021D01*
X80349526Y-88545024D01*
X80387763Y-88601926D01*
X80440932Y-88681049D01*
X80495052Y-88730294D01*
X80556926Y-88786595D01*
X80567767Y-88796460D01*
X80718470Y-88878285D01*
X80884341Y-88921801D01*
X80971788Y-88923174D01*
X81048205Y-88924375D01*
X81048208Y-88924375D01*
X81055804Y-88924494D01*
X81063208Y-88922798D01*
X81063210Y-88922798D01*
X81206614Y-88889954D01*
X81277480Y-88894243D01*
X81334779Y-88936165D01*
X81353069Y-88969472D01*
X81383864Y-89053625D01*
X81388104Y-89059935D01*
X81391549Y-89066696D01*
X81389986Y-89067492D01*
X81408540Y-89126213D01*
X81389934Y-89194728D01*
X81337239Y-89242307D01*
X81282566Y-89254787D01*
X79086904Y-89254787D01*
X79018783Y-89234785D01*
X78983064Y-89200154D01*
X78936758Y-89132778D01*
X78936757Y-89132776D01*
X78932456Y-89126519D01*
X78926785Y-89121466D01*
X78810092Y-89017496D01*
X78810089Y-89017494D01*
X78804420Y-89012443D01*
X78652868Y-88932200D01*
X78622189Y-88924494D01*
X78493921Y-88892275D01*
X78493917Y-88892275D01*
X78486550Y-88890424D01*
X78478951Y-88890384D01*
X78478949Y-88890384D01*
X78407493Y-88890010D01*
X78315068Y-88889526D01*
X78307688Y-88891298D01*
X78307686Y-88891298D01*
X78271440Y-88900000D01*
X78148322Y-88929558D01*
X78148179Y-88928963D01*
X78082742Y-88933580D01*
X78020462Y-88899496D01*
X77989810Y-88849423D01*
X77976335Y-88807951D01*
X77971693Y-88793664D01*
X77971692Y-88793662D01*
X77969651Y-88787380D01*
X77966285Y-88781549D01*
X77923025Y-88706621D01*
X77874164Y-88621992D01*
X77828317Y-88571073D01*
X77750799Y-88484981D01*
X77750798Y-88484980D01*
X77746377Y-88480070D01*
X77632716Y-88397490D01*
X77597218Y-88371699D01*
X77597217Y-88371698D01*
X77591876Y-88367818D01*
X77585848Y-88365134D01*
X77585846Y-88365133D01*
X77423443Y-88292827D01*
X77423442Y-88292827D01*
X77417412Y-88290142D01*
X77321363Y-88269726D01*
X77237068Y-88251808D01*
X77237063Y-88251808D01*
X77230611Y-88250436D01*
X77207285Y-88250436D01*
X77139164Y-88230434D01*
X77092671Y-88176778D01*
X77082567Y-88106504D01*
X77087452Y-88085501D01*
X77098387Y-88051847D01*
X77098389Y-88051840D01*
X77100427Y-88045566D01*
X77101306Y-88037209D01*
X77119699Y-87862203D01*
X77120389Y-87855638D01*
X77114013Y-87794970D01*
X77101117Y-87672273D01*
X77101117Y-87672271D01*
X77100427Y-87665710D01*
X77041412Y-87484082D01*
X76945925Y-87318694D01*
X76879475Y-87244893D01*
X76822560Y-87181683D01*
X76822559Y-87181682D01*
X76818138Y-87176772D01*
X76719042Y-87104774D01*
X76668979Y-87068401D01*
X76668978Y-87068400D01*
X76663637Y-87064520D01*
X76657611Y-87061837D01*
X76657604Y-87061833D01*
X76570635Y-87023113D01*
X76516539Y-86977133D01*
X76495889Y-86909206D01*
X76515241Y-86840898D01*
X76518335Y-86836301D01*
X76518607Y-86835807D01*
X76523038Y-86829640D01*
X76586999Y-86670530D01*
X76590263Y-86647599D01*
X76610580Y-86504841D01*
X76610580Y-86504837D01*
X76611161Y-86500757D01*
X76611318Y-86485810D01*
X76601896Y-86407951D01*
X76591629Y-86323109D01*
X76591628Y-86323106D01*
X76590716Y-86315568D01*
X76558562Y-86230475D01*
X76553194Y-86159682D01*
X76559519Y-86138948D01*
X76592784Y-86056197D01*
X76613631Y-85909720D01*
X76616365Y-85890508D01*
X76616365Y-85890504D01*
X76616946Y-85886424D01*
X76617103Y-85871477D01*
X76613184Y-85839091D01*
X76606824Y-85786534D01*
X76618497Y-85716504D01*
X76666179Y-85663902D01*
X76734730Y-85645429D01*
X76805972Y-85669461D01*
X76855193Y-85705222D01*
X76873548Y-85718558D01*
X76879576Y-85721242D01*
X76879578Y-85721243D01*
X77016491Y-85782200D01*
X77048012Y-85796234D01*
X77138820Y-85815536D01*
X77228356Y-85834568D01*
X77228361Y-85834568D01*
X77234813Y-85835940D01*
X77425787Y-85835940D01*
X77455069Y-85829716D01*
X77538377Y-85812009D01*
X77609167Y-85817411D01*
X77658208Y-85850944D01*
X77689204Y-85885369D01*
X77775656Y-85948180D01*
X77828484Y-85986562D01*
X77843705Y-85997621D01*
X77849733Y-86000305D01*
X77849735Y-86000306D01*
X78005667Y-86069731D01*
X78018169Y-86075297D01*
X78111569Y-86095150D01*
X78198513Y-86113631D01*
X78198518Y-86113631D01*
X78204970Y-86115003D01*
X78395944Y-86115003D01*
X78402396Y-86113631D01*
X78402401Y-86113631D01*
X78489345Y-86095150D01*
X78582745Y-86075297D01*
X78595247Y-86069731D01*
X78751179Y-86000306D01*
X78751181Y-86000305D01*
X78757209Y-85997621D01*
X78772431Y-85986562D01*
X78825258Y-85948180D01*
X78911710Y-85885369D01*
X78916132Y-85880458D01*
X79035078Y-85748355D01*
X79035079Y-85748354D01*
X79039497Y-85743447D01*
X79121353Y-85601668D01*
X79131680Y-85583782D01*
X79131681Y-85583781D01*
X79134984Y-85578059D01*
X79193999Y-85396431D01*
X79201446Y-85325582D01*
X79213271Y-85213068D01*
X79213961Y-85206503D01*
X79209341Y-85162543D01*
X79194689Y-85023138D01*
X79194689Y-85023136D01*
X79193999Y-85016575D01*
X79134984Y-84834947D01*
X79127822Y-84822541D01*
X79093291Y-84762732D01*
X79039497Y-84669559D01*
X79035078Y-84664651D01*
X78916129Y-84532544D01*
X78916125Y-84532541D01*
X78911710Y-84527637D01*
X78906368Y-84523756D01*
X78902040Y-84519859D01*
X78864800Y-84459413D01*
X78866152Y-84388430D01*
X78892714Y-84341913D01*
X78953921Y-84273936D01*
X78953922Y-84273935D01*
X78958340Y-84269028D01*
X79046226Y-84116805D01*
X79050523Y-84109363D01*
X79050524Y-84109362D01*
X79053827Y-84103640D01*
X79112842Y-83922012D01*
X79116724Y-83885083D01*
X79132114Y-83738649D01*
X79132114Y-83738648D01*
X79132804Y-83732084D01*
X79131136Y-83716218D01*
X79113532Y-83548719D01*
X79113532Y-83548717D01*
X79112842Y-83542156D01*
X79053827Y-83360528D01*
X79046926Y-83348574D01*
X78993946Y-83256812D01*
X78958340Y-83195140D01*
X78951747Y-83187817D01*
X78834975Y-83058129D01*
X78834974Y-83058128D01*
X78830553Y-83053218D01*
X78691506Y-82952194D01*
X78681394Y-82944847D01*
X78681393Y-82944846D01*
X78676052Y-82940966D01*
X78670024Y-82938282D01*
X78670022Y-82938281D01*
X78592569Y-82903797D01*
X81688904Y-82903797D01*
X81694013Y-82950072D01*
X81705943Y-83058129D01*
X81707722Y-83074246D01*
X81710331Y-83081377D01*
X81710332Y-83081379D01*
X81724752Y-83120784D01*
X81766654Y-83235286D01*
X81770891Y-83241592D01*
X81770893Y-83241595D01*
X81806983Y-83295302D01*
X81862299Y-83377620D01*
X81893999Y-83406465D01*
X81976772Y-83481782D01*
X81989134Y-83493031D01*
X82139837Y-83574856D01*
X82305708Y-83618372D01*
X82393155Y-83619745D01*
X82469572Y-83620946D01*
X82469575Y-83620946D01*
X82477171Y-83621065D01*
X82484575Y-83619369D01*
X82484577Y-83619369D01*
X82567491Y-83600379D01*
X82644328Y-83582781D01*
X82797527Y-83505730D01*
X82803298Y-83500801D01*
X82803301Y-83500799D01*
X82922147Y-83399294D01*
X82927924Y-83394360D01*
X82949083Y-83364914D01*
X85334565Y-83364914D01*
X85343395Y-83444898D01*
X85349110Y-83496655D01*
X85353383Y-83535363D01*
X85355992Y-83542494D01*
X85355993Y-83542496D01*
X85363556Y-83563163D01*
X85412315Y-83696403D01*
X85416552Y-83702709D01*
X85416554Y-83702712D01*
X85440703Y-83738649D01*
X85507960Y-83838737D01*
X85553006Y-83879726D01*
X85619569Y-83940293D01*
X85634795Y-83954148D01*
X85785498Y-84035973D01*
X85951369Y-84079489D01*
X86038816Y-84080862D01*
X86115233Y-84082063D01*
X86115236Y-84082063D01*
X86122832Y-84082182D01*
X86130236Y-84080486D01*
X86130238Y-84080486D01*
X86213872Y-84061331D01*
X86289989Y-84043898D01*
X86443188Y-83966847D01*
X86448959Y-83961918D01*
X86448962Y-83961916D01*
X86567808Y-83860411D01*
X86573585Y-83855477D01*
X86604506Y-83812447D01*
X87043075Y-83812447D01*
X87049629Y-83871809D01*
X87060498Y-83970259D01*
X87061893Y-83982896D01*
X87064502Y-83990027D01*
X87064503Y-83990029D01*
X87080781Y-84034510D01*
X87120825Y-84143936D01*
X87125062Y-84150242D01*
X87125064Y-84150245D01*
X87159385Y-84201319D01*
X87216470Y-84286270D01*
X87268750Y-84333841D01*
X87335384Y-84394473D01*
X87343305Y-84401681D01*
X87494008Y-84483506D01*
X87659879Y-84527022D01*
X87731441Y-84528146D01*
X87787644Y-84529029D01*
X87855442Y-84550098D01*
X87859790Y-84553491D01*
X87859855Y-84553399D01*
X87866045Y-84557798D01*
X87871665Y-84562912D01*
X87878342Y-84566537D01*
X87878343Y-84566538D01*
X87895054Y-84575611D01*
X88022368Y-84644737D01*
X88188239Y-84688253D01*
X88275686Y-84689626D01*
X88352103Y-84690827D01*
X88352106Y-84690827D01*
X88359702Y-84690946D01*
X88367106Y-84689250D01*
X88367108Y-84689250D01*
X88441320Y-84672253D01*
X88526859Y-84652662D01*
X88680058Y-84575611D01*
X88685829Y-84570682D01*
X88685832Y-84570680D01*
X88804678Y-84469175D01*
X88810455Y-84464241D01*
X88910524Y-84324982D01*
X88974485Y-84165872D01*
X88975555Y-84158354D01*
X88998066Y-84000183D01*
X88998066Y-84000179D01*
X88998647Y-83996099D01*
X88998804Y-83981152D01*
X88984659Y-83864268D01*
X88979115Y-83818451D01*
X88979114Y-83818448D01*
X88978202Y-83810910D01*
X88967354Y-83782200D01*
X88920271Y-83657599D01*
X88917587Y-83650496D01*
X88884914Y-83602956D01*
X88824759Y-83515430D01*
X88824758Y-83515428D01*
X88820457Y-83509171D01*
X88814786Y-83504118D01*
X88698093Y-83400148D01*
X88698090Y-83400146D01*
X88692421Y-83395095D01*
X88661134Y-83378529D01*
X88547581Y-83318406D01*
X88547582Y-83318406D01*
X88540869Y-83314852D01*
X88525820Y-83311072D01*
X88381922Y-83274927D01*
X88381918Y-83274927D01*
X88374551Y-83273076D01*
X88366952Y-83273036D01*
X88366950Y-83273036D01*
X88254698Y-83272448D01*
X88186683Y-83252090D01*
X88171544Y-83240531D01*
X88169732Y-83238917D01*
X88164061Y-83233864D01*
X88156065Y-83229630D01*
X88077094Y-83187817D01*
X88012509Y-83153621D01*
X87994936Y-83149207D01*
X87853562Y-83113696D01*
X87853558Y-83113696D01*
X87846191Y-83111845D01*
X87838592Y-83111805D01*
X87838590Y-83111805D01*
X87767134Y-83111431D01*
X87674709Y-83110947D01*
X87667329Y-83112719D01*
X87667327Y-83112719D01*
X87515342Y-83149207D01*
X87515338Y-83149208D01*
X87507963Y-83150979D01*
X87355579Y-83229630D01*
X87226355Y-83342360D01*
X87127750Y-83482660D01*
X87110931Y-83525798D01*
X87075590Y-83616444D01*
X87065458Y-83642430D01*
X87064466Y-83649963D01*
X87064466Y-83649964D01*
X87044213Y-83803806D01*
X87043075Y-83812447D01*
X86604506Y-83812447D01*
X86646700Y-83753728D01*
X86669222Y-83722386D01*
X86669223Y-83722385D01*
X86673654Y-83716218D01*
X86737615Y-83557108D01*
X86739743Y-83542156D01*
X86761196Y-83391419D01*
X86761196Y-83391415D01*
X86761777Y-83387335D01*
X86761851Y-83380245D01*
X86761891Y-83376521D01*
X86761891Y-83376515D01*
X86761934Y-83372388D01*
X86748487Y-83261269D01*
X86742245Y-83209687D01*
X86742244Y-83209684D01*
X86741332Y-83202146D01*
X86734870Y-83185043D01*
X86683401Y-83048835D01*
X86680717Y-83041732D01*
X86670342Y-83026636D01*
X86587889Y-82906666D01*
X86587888Y-82906664D01*
X86583587Y-82900407D01*
X86577916Y-82895354D01*
X86461223Y-82791384D01*
X86461220Y-82791382D01*
X86455551Y-82786331D01*
X86447555Y-82782097D01*
X86310711Y-82709642D01*
X86310712Y-82709642D01*
X86303999Y-82706088D01*
X86286426Y-82701674D01*
X86145052Y-82666163D01*
X86145048Y-82666163D01*
X86137681Y-82664312D01*
X86130082Y-82664272D01*
X86130080Y-82664272D01*
X86058624Y-82663898D01*
X85966199Y-82663414D01*
X85958819Y-82665186D01*
X85958817Y-82665186D01*
X85806832Y-82701674D01*
X85806828Y-82701675D01*
X85799453Y-82703446D01*
X85647069Y-82782097D01*
X85517845Y-82894827D01*
X85419240Y-83035127D01*
X85413701Y-83049335D01*
X85362872Y-83179704D01*
X85356948Y-83194897D01*
X85355956Y-83202430D01*
X85355956Y-83202431D01*
X85335896Y-83354805D01*
X85334565Y-83364914D01*
X82949083Y-83364914D01*
X83006742Y-83284674D01*
X83023561Y-83261269D01*
X83023562Y-83261268D01*
X83027993Y-83255101D01*
X83091954Y-83095991D01*
X83097037Y-83060273D01*
X83115535Y-82930302D01*
X83115535Y-82930298D01*
X83116116Y-82926218D01*
X83116273Y-82911271D01*
X83110467Y-82863290D01*
X83096584Y-82748570D01*
X83096583Y-82748567D01*
X83095671Y-82741029D01*
X83074937Y-82686156D01*
X83037740Y-82587718D01*
X83035056Y-82580615D01*
X82978955Y-82498987D01*
X82942228Y-82445549D01*
X82942227Y-82445547D01*
X82937926Y-82439290D01*
X82932255Y-82434237D01*
X82815562Y-82330267D01*
X82815559Y-82330265D01*
X82809890Y-82325214D01*
X82801894Y-82320980D01*
X82665050Y-82248525D01*
X82665051Y-82248525D01*
X82658338Y-82244971D01*
X82640765Y-82240557D01*
X82499391Y-82205046D01*
X82499387Y-82205046D01*
X82492020Y-82203195D01*
X82484421Y-82203155D01*
X82484419Y-82203155D01*
X82412963Y-82202781D01*
X82320538Y-82202297D01*
X82313158Y-82204069D01*
X82313156Y-82204069D01*
X82161171Y-82240557D01*
X82161167Y-82240558D01*
X82153792Y-82242329D01*
X82001408Y-82320980D01*
X81872184Y-82433710D01*
X81773579Y-82574010D01*
X81752992Y-82626812D01*
X81721757Y-82706927D01*
X81711287Y-82733780D01*
X81710295Y-82741313D01*
X81710295Y-82741314D01*
X81690016Y-82895354D01*
X81688904Y-82903797D01*
X78592569Y-82903797D01*
X78507619Y-82865975D01*
X78507618Y-82865975D01*
X78501588Y-82863290D01*
X78408188Y-82843437D01*
X78321244Y-82824956D01*
X78321239Y-82824956D01*
X78314787Y-82823584D01*
X78123813Y-82823584D01*
X78117361Y-82824956D01*
X78117356Y-82824956D01*
X78030412Y-82843437D01*
X77937012Y-82863290D01*
X77930982Y-82865975D01*
X77930981Y-82865975D01*
X77768578Y-82938281D01*
X77768576Y-82938282D01*
X77762548Y-82940966D01*
X77757207Y-82944846D01*
X77757206Y-82944847D01*
X77747094Y-82952194D01*
X77608047Y-83053218D01*
X77603626Y-83058128D01*
X77603625Y-83058129D01*
X77486854Y-83187817D01*
X77480260Y-83195140D01*
X77444654Y-83256812D01*
X77391675Y-83348574D01*
X77384773Y-83360528D01*
X77325758Y-83542156D01*
X77325068Y-83548717D01*
X77325068Y-83548719D01*
X77307464Y-83716218D01*
X77305796Y-83732084D01*
X77318943Y-83857164D01*
X77321877Y-83885083D01*
X77309105Y-83954922D01*
X77260603Y-84006768D01*
X77222764Y-84021501D01*
X77192060Y-84028027D01*
X77048012Y-84058646D01*
X77041982Y-84061331D01*
X77041981Y-84061331D01*
X76879578Y-84133637D01*
X76879576Y-84133638D01*
X76873548Y-84136322D01*
X76719047Y-84248574D01*
X76714626Y-84253484D01*
X76714625Y-84253485D01*
X76596652Y-84384508D01*
X76591260Y-84390496D01*
X76551471Y-84459413D01*
X76499114Y-84550098D01*
X76495773Y-84555884D01*
X76436758Y-84737512D01*
X76436068Y-84744073D01*
X76436068Y-84744075D01*
X76427170Y-84828737D01*
X76416796Y-84927440D01*
X76417486Y-84934005D01*
X76434861Y-85099316D01*
X76436758Y-85117368D01*
X76437628Y-85120046D01*
X76432334Y-85189437D01*
X76389518Y-85246070D01*
X76322881Y-85270564D01*
X76255530Y-85256198D01*
X76165881Y-85208731D01*
X76165878Y-85208730D01*
X76159168Y-85205177D01*
X76138311Y-85199938D01*
X76000221Y-85165252D01*
X76000217Y-85165252D01*
X75992850Y-85163401D01*
X75985251Y-85163361D01*
X75985249Y-85163361D01*
X75913793Y-85162987D01*
X75821368Y-85162503D01*
X75813988Y-85164275D01*
X75813986Y-85164275D01*
X75662001Y-85200763D01*
X75661997Y-85200764D01*
X75654622Y-85202535D01*
X75502238Y-85281186D01*
X75373014Y-85393916D01*
X75274409Y-85534216D01*
X75247426Y-85603423D01*
X75216760Y-85682078D01*
X75212117Y-85693986D01*
X75211125Y-85701519D01*
X75211125Y-85701520D01*
X75191841Y-85848002D01*
X75189734Y-85864003D01*
X75195559Y-85916764D01*
X75207036Y-86020719D01*
X75208552Y-86034452D01*
X75242813Y-86128074D01*
X75247440Y-86198918D01*
X75241880Y-86217144D01*
X75206332Y-86308319D01*
X75205340Y-86315852D01*
X75205340Y-86315853D01*
X75187339Y-86452589D01*
X75183949Y-86478336D01*
X75190864Y-86540971D01*
X75196141Y-86588765D01*
X75202767Y-86648785D01*
X75205376Y-86655916D01*
X75205377Y-86655918D01*
X75210783Y-86670690D01*
X75261699Y-86809825D01*
X75265936Y-86816131D01*
X75265938Y-86816134D01*
X75300553Y-86867646D01*
X75357344Y-86952159D01*
X75407541Y-86997835D01*
X75475370Y-87059554D01*
X75484179Y-87067570D01*
X75490854Y-87071194D01*
X75497044Y-87075593D01*
X75495142Y-87078270D01*
X75534966Y-87117943D01*
X75550189Y-87187288D01*
X75525504Y-87253855D01*
X75518130Y-87262847D01*
X75467845Y-87318694D01*
X75372358Y-87484082D01*
X75313343Y-87665710D01*
X75312653Y-87672271D01*
X75312653Y-87672273D01*
X75299757Y-87794970D01*
X75293381Y-87855638D01*
X75294071Y-87862203D01*
X75312465Y-88037209D01*
X75313343Y-88045566D01*
X75372358Y-88227194D01*
X75375661Y-88232916D01*
X75375662Y-88232917D01*
X75389930Y-88257629D01*
X75467845Y-88392582D01*
X75472263Y-88397489D01*
X75472264Y-88397490D01*
X75568546Y-88504422D01*
X75595632Y-88534504D01*
X75678588Y-88594775D01*
X75723919Y-88627710D01*
X75750133Y-88646756D01*
X75756159Y-88649439D01*
X75756166Y-88649443D01*
X75832502Y-88683429D01*
X75886598Y-88729409D01*
X75907248Y-88797336D01*
X75887896Y-88865644D01*
X75857958Y-88898498D01*
X75820050Y-88927586D01*
X75820049Y-88927587D01*
X75791809Y-88949256D01*
X75791805Y-88949260D01*
X75785260Y-88954282D01*
X75773604Y-88969473D01*
X75766753Y-88978401D01*
X75755885Y-88990792D01*
X75344672Y-89402005D01*
X75282360Y-89436031D01*
X75211545Y-89430966D01*
X75154709Y-89388419D01*
X75140470Y-89364159D01*
X75128718Y-89337763D01*
X75128717Y-89337761D01*
X75126033Y-89331733D01*
X75111560Y-89311812D01*
X75019204Y-89184696D01*
X75015325Y-89179357D01*
X75009786Y-89174369D01*
X74880264Y-89057747D01*
X74880263Y-89057746D01*
X74875356Y-89053328D01*
X74831095Y-89027774D01*
X74717966Y-88962459D01*
X74717965Y-88962458D01*
X74712243Y-88959155D01*
X74602897Y-88923627D01*
X74544292Y-88883554D01*
X74518154Y-88820869D01*
X74517640Y-88820978D01*
X74517058Y-88818241D01*
X74516524Y-88816960D01*
X74516268Y-88814523D01*
X74516267Y-88814521D01*
X74515577Y-88807951D01*
X74472295Y-88674743D01*
X74463475Y-88647599D01*
X74463474Y-88647598D01*
X74461434Y-88641318D01*
X74456769Y-88633238D01*
X74377133Y-88495302D01*
X74377130Y-88495298D01*
X74373830Y-88489582D01*
X74365546Y-88480382D01*
X74261007Y-88364280D01*
X74261005Y-88364279D01*
X74256592Y-88359377D01*
X74153032Y-88284136D01*
X74109678Y-88227914D01*
X74103603Y-88157177D01*
X74136735Y-88094386D01*
X74153032Y-88080264D01*
X74171476Y-88066864D01*
X74256592Y-88005023D01*
X74262385Y-87998590D01*
X74369411Y-87879726D01*
X74369412Y-87879725D01*
X74373830Y-87874818D01*
X74377130Y-87869102D01*
X74377133Y-87869098D01*
X74458131Y-87728803D01*
X74461434Y-87723082D01*
X74467830Y-87703399D01*
X74478984Y-87669070D01*
X74515577Y-87556449D01*
X74516618Y-87546550D01*
X74533201Y-87388765D01*
X74533891Y-87382200D01*
X74532403Y-87368038D01*
X74516268Y-87214521D01*
X74516267Y-87214517D01*
X74515577Y-87207951D01*
X74468100Y-87061833D01*
X74463474Y-87047595D01*
X74463472Y-87047591D01*
X74461434Y-87041318D01*
X74458135Y-87035603D01*
X74457175Y-87033448D01*
X74447741Y-86963081D01*
X74457175Y-86930952D01*
X74458135Y-86928797D01*
X74461434Y-86923082D01*
X74466530Y-86907401D01*
X74489631Y-86836301D01*
X74515577Y-86756449D01*
X74517950Y-86733878D01*
X74533201Y-86588765D01*
X74533891Y-86582200D01*
X74526034Y-86507440D01*
X74516268Y-86414521D01*
X74516267Y-86414517D01*
X74515577Y-86407951D01*
X74466332Y-86256392D01*
X74463474Y-86247595D01*
X74463472Y-86247591D01*
X74461434Y-86241318D01*
X74458135Y-86235603D01*
X74457175Y-86233448D01*
X74447741Y-86163081D01*
X74457175Y-86130952D01*
X74458135Y-86128797D01*
X74461434Y-86123082D01*
X74464060Y-86115003D01*
X74492685Y-86026902D01*
X74515577Y-85956449D01*
X74516447Y-85948180D01*
X74533201Y-85788765D01*
X74533891Y-85782200D01*
X74527678Y-85723082D01*
X74516268Y-85614521D01*
X74516267Y-85614517D01*
X74515577Y-85607951D01*
X74483917Y-85510514D01*
X74463474Y-85447595D01*
X74463472Y-85447591D01*
X74461434Y-85441318D01*
X74458135Y-85435603D01*
X74457175Y-85433448D01*
X74447741Y-85363081D01*
X74457175Y-85330952D01*
X74458135Y-85328797D01*
X74461434Y-85323082D01*
X74464341Y-85314137D01*
X74499313Y-85206503D01*
X74515577Y-85156449D01*
X74517892Y-85134431D01*
X74533201Y-84988765D01*
X74533891Y-84982200D01*
X74525377Y-84901192D01*
X74516268Y-84814521D01*
X74516267Y-84814517D01*
X74515577Y-84807951D01*
X74469586Y-84666406D01*
X74463475Y-84647599D01*
X74463474Y-84647598D01*
X74461434Y-84641318D01*
X74427303Y-84582200D01*
X74377133Y-84495302D01*
X74377130Y-84495298D01*
X74373830Y-84489582D01*
X74364003Y-84478668D01*
X74261007Y-84364280D01*
X74261005Y-84364279D01*
X74256592Y-84359377D01*
X74153032Y-84284136D01*
X74109678Y-84227914D01*
X74103603Y-84157177D01*
X74136735Y-84094386D01*
X74153032Y-84080264D01*
X74251253Y-84008902D01*
X74256592Y-84005023D01*
X74264628Y-83996099D01*
X74369411Y-83879726D01*
X74369412Y-83879725D01*
X74373830Y-83874818D01*
X74377130Y-83869102D01*
X74377133Y-83869098D01*
X74458131Y-83728803D01*
X74461434Y-83723082D01*
X74471848Y-83691033D01*
X74489940Y-83635350D01*
X74515577Y-83556449D01*
X74516390Y-83548719D01*
X74516524Y-83547440D01*
X74517066Y-83546123D01*
X74517640Y-83543422D01*
X74518134Y-83543527D01*
X74543535Y-83481782D01*
X74602897Y-83440773D01*
X74712243Y-83405245D01*
X74721072Y-83400148D01*
X74869635Y-83314375D01*
X74875356Y-83311072D01*
X74880264Y-83306653D01*
X75010422Y-83189458D01*
X75010423Y-83189456D01*
X75015325Y-83185043D01*
X75069130Y-83110987D01*
X75122152Y-83038010D01*
X75122153Y-83038008D01*
X75126033Y-83032668D01*
X75168057Y-82938281D01*
X75199953Y-82866640D01*
X75199954Y-82866637D01*
X75202640Y-82860604D01*
X75231103Y-82726700D01*
X75240428Y-82682830D01*
X75240428Y-82682825D01*
X75241800Y-82676373D01*
X75241800Y-82488027D01*
X75240253Y-82480746D01*
X75213376Y-82354306D01*
X75202640Y-82303796D01*
X75199955Y-82297765D01*
X75128718Y-82137763D01*
X75128717Y-82137761D01*
X75126033Y-82131733D01*
X75094734Y-82088653D01*
X75019204Y-81984696D01*
X75015325Y-81979357D01*
X74955637Y-81925613D01*
X74880264Y-81857747D01*
X74880263Y-81857746D01*
X74875356Y-81853328D01*
X74712243Y-81759155D01*
X74694659Y-81753442D01*
X74636055Y-81713371D01*
X74608417Y-81647974D01*
X74608005Y-81635365D01*
X74607929Y-81635369D01*
X74607651Y-81629354D01*
X74598369Y-81428839D01*
X74557250Y-81258221D01*
X74560735Y-81187310D01*
X74602004Y-81129540D01*
X74667955Y-81103253D01*
X74679743Y-81102700D01*
X86487948Y-81102700D01*
X86556069Y-81122702D01*
G37*
%TD.AperFunction*%
%TA.AperFunction,Conductor*%
G36*
X85208810Y-85610703D02*
G01*
X85262127Y-85657585D01*
X85273961Y-85681630D01*
X85322950Y-85815498D01*
X85327187Y-85821804D01*
X85327189Y-85821807D01*
X85366604Y-85880462D01*
X85418595Y-85957832D01*
X85545430Y-86073243D01*
X85696133Y-86155068D01*
X85788392Y-86179272D01*
X85850103Y-86195462D01*
X85910918Y-86232096D01*
X85942273Y-86295794D01*
X85940171Y-86348671D01*
X85939001Y-86353226D01*
X85936243Y-86360301D01*
X85935252Y-86367828D01*
X85935251Y-86367832D01*
X85914851Y-86522787D01*
X85913860Y-86530318D01*
X85918480Y-86572166D01*
X85930618Y-86682106D01*
X85932678Y-86700767D01*
X85935287Y-86707898D01*
X85935288Y-86707900D01*
X85944795Y-86733878D01*
X85991610Y-86861807D01*
X85995847Y-86868113D01*
X85995849Y-86868116D01*
X86012837Y-86893396D01*
X86087255Y-87004141D01*
X86092870Y-87009250D01*
X86092875Y-87009256D01*
X86201902Y-87108463D01*
X86238824Y-87169103D01*
X86237101Y-87240079D01*
X86197279Y-87298855D01*
X86146515Y-87324175D01*
X86126901Y-87328884D01*
X85974517Y-87407535D01*
X85968798Y-87412524D01*
X85881811Y-87488408D01*
X85817328Y-87518116D01*
X85747021Y-87508247D01*
X85709886Y-87482554D01*
X84449689Y-86222357D01*
X84415663Y-86160045D01*
X84413474Y-86146433D01*
X84412687Y-86138940D01*
X84400261Y-86020719D01*
X84356651Y-85886502D01*
X84354623Y-85815536D01*
X84391286Y-85754738D01*
X84454998Y-85723413D01*
X84508457Y-85725691D01*
X84571755Y-85742297D01*
X84571759Y-85742298D01*
X84579106Y-85744225D01*
X84666553Y-85745598D01*
X84742970Y-85746799D01*
X84742973Y-85746799D01*
X84750569Y-85746918D01*
X84757973Y-85745222D01*
X84757975Y-85745222D01*
X84853197Y-85723413D01*
X84917726Y-85708634D01*
X85070925Y-85631583D01*
X85076699Y-85626652D01*
X85083029Y-85622446D01*
X85084330Y-85624404D01*
X85138611Y-85600090D01*
X85208810Y-85610703D01*
G37*
%TD.AperFunction*%
%TD*%
%TA.AperFunction,Conductor*%
%TO.N,+3V3*%
G36*
X86036014Y-117162080D02*
G01*
X86084934Y-117213532D01*
X86091185Y-117227808D01*
X86091652Y-117229085D01*
X86115245Y-117293555D01*
X86119482Y-117299861D01*
X86119484Y-117299864D01*
X86146985Y-117340789D01*
X86210890Y-117435889D01*
X86229249Y-117452594D01*
X86316482Y-117531970D01*
X86337725Y-117551300D01*
X86488428Y-117633125D01*
X86654299Y-117676641D01*
X86741746Y-117678014D01*
X86818163Y-117679215D01*
X86818166Y-117679215D01*
X86825762Y-117679334D01*
X86941524Y-117652821D01*
X87012389Y-117657110D01*
X87054452Y-117682447D01*
X87078695Y-117704506D01*
X87103525Y-117727100D01*
X87254228Y-117808925D01*
X87420099Y-117852441D01*
X87507546Y-117853814D01*
X87583963Y-117855015D01*
X87583966Y-117855015D01*
X87591562Y-117855134D01*
X87598966Y-117853438D01*
X87598968Y-117853438D01*
X87661806Y-117839046D01*
X87758719Y-117816850D01*
X87911918Y-117739799D01*
X87917691Y-117734868D01*
X87917696Y-117734865D01*
X87947634Y-117709296D01*
X88012424Y-117680265D01*
X88031441Y-117679124D01*
X88108027Y-117680327D01*
X88108030Y-117680327D01*
X88115626Y-117680446D01*
X88123030Y-117678750D01*
X88123032Y-117678750D01*
X88186766Y-117664153D01*
X88257633Y-117668442D01*
X88314931Y-117710365D01*
X88340468Y-117776609D01*
X88339817Y-117803419D01*
X88329442Y-117882230D01*
X88318699Y-117963829D01*
X88325962Y-118029613D01*
X88335716Y-118117963D01*
X88337517Y-118134278D01*
X88340126Y-118141409D01*
X88340127Y-118141411D01*
X88358299Y-118191067D01*
X88396449Y-118295318D01*
X88400686Y-118301624D01*
X88400688Y-118301627D01*
X88441761Y-118362748D01*
X88474902Y-118412067D01*
X88475041Y-118412274D01*
X88496434Y-118479971D01*
X88477830Y-118548487D01*
X88453290Y-118577498D01*
X88438842Y-118590102D01*
X88438838Y-118590107D01*
X88433115Y-118595099D01*
X88334510Y-118735399D01*
X88303364Y-118815284D01*
X88276601Y-118883928D01*
X88272218Y-118895169D01*
X88271226Y-118902702D01*
X88271226Y-118902703D01*
X88254546Y-119029405D01*
X88249835Y-119065186D01*
X88250669Y-119072736D01*
X88264470Y-119197743D01*
X88268653Y-119235635D01*
X88327585Y-119396675D01*
X88331822Y-119402981D01*
X88331824Y-119402984D01*
X88371030Y-119461328D01*
X88423230Y-119539009D01*
X88428846Y-119544119D01*
X88529088Y-119635332D01*
X88550065Y-119654420D01*
X88700768Y-119736245D01*
X88866639Y-119779761D01*
X88954086Y-119781134D01*
X89030503Y-119782335D01*
X89030506Y-119782335D01*
X89038102Y-119782454D01*
X89196976Y-119746067D01*
X89267841Y-119750356D01*
X89325139Y-119792278D01*
X89343430Y-119825586D01*
X89373553Y-119907901D01*
X89377790Y-119914207D01*
X89377792Y-119914210D01*
X89413691Y-119967632D01*
X89469198Y-120050235D01*
X89497105Y-120075628D01*
X89581940Y-120152822D01*
X89596033Y-120165646D01*
X89746736Y-120247471D01*
X89912607Y-120290987D01*
X90000054Y-120292360D01*
X90076471Y-120293561D01*
X90076474Y-120293561D01*
X90084070Y-120293680D01*
X90091474Y-120291984D01*
X90091476Y-120291984D01*
X90218685Y-120262849D01*
X90251227Y-120255396D01*
X90404426Y-120178345D01*
X90410197Y-120173416D01*
X90410200Y-120173414D01*
X90529046Y-120071909D01*
X90534823Y-120066975D01*
X90608453Y-119964509D01*
X90630460Y-119933884D01*
X90630461Y-119933883D01*
X90634892Y-119927716D01*
X90698853Y-119768606D01*
X90703082Y-119738890D01*
X90722589Y-119601827D01*
X90751990Y-119537204D01*
X90811661Y-119498735D01*
X90882658Y-119498633D01*
X90942438Y-119536932D01*
X90965658Y-119576279D01*
X90983903Y-119626136D01*
X90988140Y-119632442D01*
X90988142Y-119632445D01*
X91020504Y-119680604D01*
X91079548Y-119768470D01*
X91137511Y-119821212D01*
X91187748Y-119866924D01*
X91206383Y-119883881D01*
X91357086Y-119965706D01*
X91522957Y-120009222D01*
X91610404Y-120010595D01*
X91686821Y-120011796D01*
X91686824Y-120011796D01*
X91694420Y-120011915D01*
X91701824Y-120010219D01*
X91701826Y-120010219D01*
X91764664Y-119995827D01*
X91861577Y-119973631D01*
X92014776Y-119896580D01*
X92020547Y-119891651D01*
X92020550Y-119891649D01*
X92139396Y-119790144D01*
X92145173Y-119785210D01*
X92236552Y-119658044D01*
X92240810Y-119652119D01*
X92240811Y-119652118D01*
X92245242Y-119645951D01*
X92248073Y-119638908D01*
X92248076Y-119638903D01*
X92249511Y-119635332D01*
X92251254Y-119633122D01*
X92251736Y-119632245D01*
X92251882Y-119632325D01*
X92293476Y-119579586D01*
X92360600Y-119556458D01*
X92429572Y-119573293D01*
X92470999Y-119612044D01*
X92478683Y-119623479D01*
X92523697Y-119664439D01*
X92598630Y-119732622D01*
X92605518Y-119738890D01*
X92756221Y-119820715D01*
X92922092Y-119864231D01*
X93009539Y-119865604D01*
X93085956Y-119866805D01*
X93085959Y-119866805D01*
X93093555Y-119866924D01*
X93100959Y-119865228D01*
X93100961Y-119865228D01*
X93174802Y-119848316D01*
X93260712Y-119828640D01*
X93413911Y-119751589D01*
X93419684Y-119746658D01*
X93419689Y-119746655D01*
X93494291Y-119682939D01*
X93559080Y-119653908D01*
X93629280Y-119664513D01*
X93660921Y-119685557D01*
X93714459Y-119734273D01*
X93714463Y-119734276D01*
X93720080Y-119739387D01*
X93870783Y-119821212D01*
X94036654Y-119864728D01*
X94124101Y-119866101D01*
X94200518Y-119867302D01*
X94200521Y-119867302D01*
X94208117Y-119867421D01*
X94215521Y-119865725D01*
X94215523Y-119865725D01*
X94313059Y-119843386D01*
X94375274Y-119829137D01*
X94382063Y-119825723D01*
X94389206Y-119823151D01*
X94389762Y-119824695D01*
X94450737Y-119813579D01*
X94469470Y-119817005D01*
X94581471Y-119846388D01*
X94581475Y-119846389D01*
X94588822Y-119848316D01*
X94676269Y-119849689D01*
X94752686Y-119850890D01*
X94752689Y-119850890D01*
X94760285Y-119851009D01*
X94767689Y-119849313D01*
X94767691Y-119849313D01*
X94793569Y-119843386D01*
X94864436Y-119847675D01*
X94921734Y-119889597D01*
X94947271Y-119955842D01*
X94947698Y-119966206D01*
X94947698Y-120194728D01*
X94927696Y-120262849D01*
X94910793Y-120283823D01*
X94273592Y-120921024D01*
X94213911Y-120954448D01*
X94136319Y-120973076D01*
X94136317Y-120973077D01*
X94128939Y-120974848D01*
X93976555Y-121053499D01*
X93847331Y-121166229D01*
X93748726Y-121306529D01*
X93733732Y-121344987D01*
X93690046Y-121457036D01*
X93686434Y-121466299D01*
X93685442Y-121473832D01*
X93685442Y-121473833D01*
X93674541Y-121556639D01*
X93664051Y-121636316D01*
X93682869Y-121806765D01*
X93685477Y-121813892D01*
X93686457Y-121818070D01*
X93682538Y-121888958D01*
X93640916Y-121946474D01*
X93574806Y-121972357D01*
X93563786Y-121972840D01*
X92750328Y-121972840D01*
X92682207Y-121952838D01*
X92635714Y-121899182D01*
X92625585Y-121829086D01*
X92625611Y-121828908D01*
X92646307Y-121683487D01*
X92646464Y-121668540D01*
X92636881Y-121589355D01*
X92626775Y-121505839D01*
X92626774Y-121505836D01*
X92625862Y-121498298D01*
X92619360Y-121481089D01*
X92567931Y-121344987D01*
X92565247Y-121337884D01*
X92531036Y-121288106D01*
X92472419Y-121202818D01*
X92472418Y-121202816D01*
X92468117Y-121196559D01*
X92462098Y-121191196D01*
X92345753Y-121087536D01*
X92345750Y-121087534D01*
X92340081Y-121082483D01*
X92332085Y-121078249D01*
X92271766Y-121046312D01*
X92188529Y-121002240D01*
X92170956Y-120997826D01*
X92029582Y-120962315D01*
X92029578Y-120962315D01*
X92022211Y-120960464D01*
X92014612Y-120960424D01*
X92014610Y-120960424D01*
X91943154Y-120960050D01*
X91850729Y-120959566D01*
X91843349Y-120961338D01*
X91843347Y-120961338D01*
X91691362Y-120997826D01*
X91691358Y-120997827D01*
X91683983Y-120999598D01*
X91531599Y-121078249D01*
X91402375Y-121190979D01*
X91303770Y-121331279D01*
X91278619Y-121395787D01*
X91251128Y-121466299D01*
X91241478Y-121491049D01*
X91240486Y-121498582D01*
X91240486Y-121498583D01*
X91222385Y-121636079D01*
X91219095Y-121661066D01*
X91230885Y-121767859D01*
X91237913Y-121831515D01*
X91234939Y-121831843D01*
X91231768Y-121888983D01*
X91190134Y-121946490D01*
X91124018Y-121972359D01*
X91113025Y-121972840D01*
X89785758Y-121972840D01*
X89717637Y-121952838D01*
X89671144Y-121899182D01*
X89661015Y-121829086D01*
X89661041Y-121828908D01*
X89674507Y-121734287D01*
X89674664Y-121719340D01*
X89668516Y-121668540D01*
X89654975Y-121556639D01*
X89654974Y-121556636D01*
X89654062Y-121549098D01*
X89634867Y-121498298D01*
X89596131Y-121395787D01*
X89593447Y-121388684D01*
X89553389Y-121330399D01*
X89500619Y-121253618D01*
X89500618Y-121253616D01*
X89496317Y-121247359D01*
X89490646Y-121242306D01*
X89373953Y-121138336D01*
X89373950Y-121138334D01*
X89368281Y-121133283D01*
X89360285Y-121129049D01*
X89223441Y-121056594D01*
X89223442Y-121056594D01*
X89216729Y-121053040D01*
X89189944Y-121046312D01*
X89057782Y-121013115D01*
X89057778Y-121013115D01*
X89050411Y-121011264D01*
X89042812Y-121011224D01*
X89042810Y-121011224D01*
X88971354Y-121010850D01*
X88878929Y-121010366D01*
X88871549Y-121012138D01*
X88871547Y-121012138D01*
X88719562Y-121048626D01*
X88719558Y-121048627D01*
X88712183Y-121050398D01*
X88559799Y-121129049D01*
X88430575Y-121241779D01*
X88331970Y-121382079D01*
X88308982Y-121441040D01*
X88289428Y-121491194D01*
X88269678Y-121541849D01*
X88268686Y-121549382D01*
X88268686Y-121549383D01*
X88250494Y-121687569D01*
X88247295Y-121711866D01*
X88260089Y-121827750D01*
X88260670Y-121833013D01*
X88248264Y-121902918D01*
X88200034Y-121955018D01*
X88135431Y-121972840D01*
X87008650Y-121972840D01*
X86940529Y-121952838D01*
X86894036Y-121899182D01*
X86883932Y-121828908D01*
X86913426Y-121764328D01*
X86922397Y-121754990D01*
X86983465Y-121697643D01*
X86986352Y-121694932D01*
X87134692Y-121515620D01*
X87177008Y-121464469D01*
X87177011Y-121464465D01*
X87179530Y-121461420D01*
X87311405Y-121253618D01*
X87339794Y-121208885D01*
X87339794Y-121208884D01*
X87341918Y-121205538D01*
X87433740Y-121010406D01*
X87469265Y-120934911D01*
X87469267Y-120934907D01*
X87470954Y-120931321D01*
X87564605Y-120643094D01*
X87621393Y-120345402D01*
X87640422Y-120042940D01*
X87621393Y-119740478D01*
X87564605Y-119442786D01*
X87470954Y-119154559D01*
X87428899Y-119065186D01*
X87408198Y-119021196D01*
X87341918Y-118880342D01*
X87179530Y-118624460D01*
X87173078Y-118616660D01*
X87100331Y-118528725D01*
X86986352Y-118390948D01*
X86765431Y-118183490D01*
X86520250Y-118005356D01*
X86474016Y-117979938D01*
X86258146Y-117861262D01*
X86258145Y-117861261D01*
X86254677Y-117859355D01*
X86251008Y-117857902D01*
X86251003Y-117857900D01*
X85976569Y-117749244D01*
X85976568Y-117749244D01*
X85972899Y-117747791D01*
X85892312Y-117727100D01*
X85773436Y-117696578D01*
X85712430Y-117660263D01*
X85680741Y-117596731D01*
X85688431Y-117526152D01*
X85702449Y-117501009D01*
X85703662Y-117499322D01*
X85777456Y-117396627D01*
X85793782Y-117373908D01*
X85793783Y-117373907D01*
X85798214Y-117367740D01*
X85852871Y-117231774D01*
X85855951Y-117224113D01*
X85899918Y-117168368D01*
X85967043Y-117145243D01*
X86036014Y-117162080D01*
G37*
%TD.AperFunction*%
%TA.AperFunction,Conductor*%
G36*
X98838627Y-116876634D02*
G01*
X98875088Y-116912356D01*
X98913672Y-116969776D01*
X98913675Y-116969779D01*
X98917906Y-116976076D01*
X98923520Y-116981184D01*
X98923524Y-116981189D01*
X99013133Y-117062727D01*
X99050055Y-117123367D01*
X99048332Y-117194342D01*
X99008510Y-117253119D01*
X98986125Y-117267884D01*
X98955101Y-117283897D01*
X98825877Y-117396627D01*
X98727272Y-117536927D01*
X98707798Y-117586875D01*
X98671387Y-117680265D01*
X98664980Y-117696697D01*
X98663988Y-117704230D01*
X98663988Y-117704231D01*
X98644122Y-117855134D01*
X98642597Y-117866714D01*
X98645975Y-117897311D01*
X98658002Y-118006245D01*
X98661415Y-118037163D01*
X98720347Y-118198203D01*
X98724584Y-118204509D01*
X98724586Y-118204512D01*
X98768817Y-118270334D01*
X98815992Y-118340537D01*
X98835399Y-118358196D01*
X98919352Y-118434587D01*
X98942827Y-118455948D01*
X99093530Y-118537773D01*
X99259401Y-118581289D01*
X99346848Y-118582662D01*
X99423265Y-118583863D01*
X99423268Y-118583863D01*
X99430864Y-118583982D01*
X99438268Y-118582286D01*
X99438270Y-118582286D01*
X99501108Y-118567894D01*
X99598021Y-118545698D01*
X99751220Y-118468647D01*
X99880926Y-118357867D01*
X99945716Y-118328836D01*
X99994733Y-118331803D01*
X100007347Y-118335113D01*
X100007353Y-118335114D01*
X100014699Y-118337041D01*
X100022298Y-118337160D01*
X100029817Y-118338190D01*
X100029571Y-118339986D01*
X100088174Y-118358196D01*
X100133821Y-118412573D01*
X100142823Y-118482997D01*
X100112322Y-118547108D01*
X100076192Y-118575080D01*
X100067898Y-118579361D01*
X100013620Y-118607376D01*
X99884396Y-118720106D01*
X99785791Y-118860406D01*
X99754645Y-118940291D01*
X99727321Y-119010374D01*
X99723499Y-119020176D01*
X99722507Y-119027709D01*
X99722507Y-119027710D01*
X99705311Y-119158332D01*
X99701116Y-119190193D01*
X99719934Y-119360642D01*
X99722543Y-119367773D01*
X99722544Y-119367775D01*
X99739330Y-119413644D01*
X99778866Y-119521682D01*
X99783105Y-119527991D01*
X99783106Y-119527992D01*
X99789750Y-119537880D01*
X99811141Y-119605577D01*
X99792535Y-119674093D01*
X99788254Y-119680604D01*
X99701010Y-119804739D01*
X99698250Y-119811819D01*
X99698248Y-119811822D01*
X99696903Y-119815272D01*
X99695250Y-119817414D01*
X99694662Y-119818510D01*
X99694479Y-119818412D01*
X99653523Y-119871474D01*
X99586644Y-119895301D01*
X99520551Y-119880857D01*
X99422869Y-119829137D01*
X99374189Y-119803362D01*
X99301923Y-119785210D01*
X99215242Y-119763437D01*
X99215238Y-119763437D01*
X99207871Y-119761586D01*
X99200272Y-119761546D01*
X99200270Y-119761546D01*
X99128814Y-119761172D01*
X99036389Y-119760688D01*
X99029009Y-119762460D01*
X99029007Y-119762460D01*
X98877022Y-119798948D01*
X98877018Y-119798949D01*
X98869643Y-119800720D01*
X98717259Y-119879371D01*
X98588035Y-119992101D01*
X98489430Y-120132401D01*
X98473440Y-120173414D01*
X98430393Y-120283823D01*
X98427138Y-120292171D01*
X98426146Y-120299704D01*
X98426146Y-120299705D01*
X98406256Y-120450787D01*
X98404755Y-120462188D01*
X98407727Y-120489108D01*
X98422739Y-120625087D01*
X98422740Y-120625091D01*
X98423573Y-120632637D01*
X98426182Y-120639768D01*
X98426183Y-120639770D01*
X98447145Y-120697052D01*
X98482505Y-120793677D01*
X98486742Y-120799983D01*
X98486744Y-120799986D01*
X98521478Y-120851675D01*
X98578150Y-120936011D01*
X98605984Y-120961338D01*
X98676058Y-121025100D01*
X98704985Y-121051422D01*
X98717999Y-121058488D01*
X98816193Y-121111803D01*
X98866515Y-121161886D01*
X98881771Y-121231224D01*
X98857119Y-121297803D01*
X98813861Y-121334500D01*
X98805129Y-121339007D01*
X98719799Y-121383049D01*
X98714080Y-121388038D01*
X98712795Y-121389159D01*
X98590575Y-121495779D01*
X98491970Y-121636079D01*
X98477703Y-121672673D01*
X98441968Y-121764328D01*
X98429678Y-121795849D01*
X98428686Y-121803382D01*
X98428686Y-121803383D01*
X98420800Y-121863286D01*
X98392078Y-121928213D01*
X98332813Y-121967305D01*
X98295878Y-121972840D01*
X97809926Y-121972840D01*
X97741805Y-121952838D01*
X97695312Y-121899182D01*
X97685208Y-121828908D01*
X97685239Y-121828755D01*
X97685338Y-121828510D01*
X97689987Y-121795849D01*
X97708919Y-121662821D01*
X97708919Y-121662817D01*
X97709500Y-121658737D01*
X97709657Y-121643790D01*
X97703562Y-121593422D01*
X97689968Y-121481089D01*
X97689967Y-121481086D01*
X97689055Y-121473548D01*
X97685625Y-121464469D01*
X97631124Y-121320237D01*
X97628440Y-121313134D01*
X97572145Y-121231224D01*
X97535612Y-121178068D01*
X97535611Y-121178066D01*
X97531310Y-121171809D01*
X97525639Y-121166756D01*
X97408946Y-121062786D01*
X97408943Y-121062784D01*
X97403274Y-121057733D01*
X97395278Y-121053499D01*
X97294972Y-121000390D01*
X97251722Y-120977490D01*
X97191308Y-120962315D01*
X97092775Y-120937565D01*
X97092771Y-120937565D01*
X97085404Y-120935714D01*
X97077805Y-120935674D01*
X97077803Y-120935674D01*
X97006347Y-120935300D01*
X96913922Y-120934816D01*
X96906542Y-120936588D01*
X96906540Y-120936588D01*
X96754555Y-120973076D01*
X96754551Y-120973077D01*
X96747176Y-120974848D01*
X96594792Y-121053499D01*
X96465568Y-121166229D01*
X96366963Y-121306529D01*
X96351969Y-121344987D01*
X96308283Y-121457036D01*
X96304671Y-121466299D01*
X96303679Y-121473832D01*
X96303679Y-121473833D01*
X96292778Y-121556639D01*
X96282288Y-121636316D01*
X96301106Y-121806765D01*
X96303714Y-121813892D01*
X96304694Y-121818070D01*
X96300775Y-121888958D01*
X96259153Y-121946474D01*
X96193043Y-121972357D01*
X96182023Y-121972840D01*
X95191690Y-121972840D01*
X95123569Y-121952838D01*
X95077076Y-121899182D01*
X95066972Y-121828908D01*
X95067004Y-121828751D01*
X95067101Y-121828510D01*
X95069013Y-121815076D01*
X95098414Y-121750453D01*
X95104661Y-121743735D01*
X95912901Y-120935495D01*
X95925293Y-120924627D01*
X95942861Y-120911147D01*
X95949411Y-120906121D01*
X96026554Y-120805585D01*
X96038107Y-120790530D01*
X96038108Y-120790528D01*
X96043132Y-120783981D01*
X96062451Y-120737341D01*
X96098888Y-120649375D01*
X96098889Y-120649372D01*
X96102048Y-120641745D01*
X96112920Y-120559164D01*
X96117098Y-120527429D01*
X96122143Y-120489108D01*
X96118176Y-120458975D01*
X96117098Y-120442529D01*
X96117098Y-119720368D01*
X96137100Y-119652247D01*
X96190756Y-119605754D01*
X96261030Y-119595650D01*
X96303219Y-119609637D01*
X96421686Y-119673959D01*
X96587557Y-119717475D01*
X96675004Y-119718848D01*
X96751421Y-119720049D01*
X96751424Y-119720049D01*
X96759020Y-119720168D01*
X96766424Y-119718472D01*
X96766426Y-119718472D01*
X96829264Y-119704080D01*
X96926177Y-119681884D01*
X97079376Y-119604833D01*
X97085147Y-119599904D01*
X97085150Y-119599902D01*
X97203996Y-119498397D01*
X97209773Y-119493463D01*
X97309842Y-119354204D01*
X97373803Y-119195094D01*
X97391217Y-119072736D01*
X97397384Y-119029405D01*
X97397384Y-119029401D01*
X97397965Y-119025321D01*
X97398122Y-119010374D01*
X97392604Y-118964773D01*
X97378433Y-118847673D01*
X97378432Y-118847670D01*
X97377520Y-118840132D01*
X97316905Y-118679718D01*
X97300983Y-118656552D01*
X97224077Y-118544652D01*
X97224076Y-118544650D01*
X97219775Y-118538393D01*
X97214104Y-118533340D01*
X97097411Y-118429370D01*
X97097408Y-118429368D01*
X97091739Y-118424317D01*
X97045843Y-118400016D01*
X96995001Y-118350464D01*
X96979020Y-118281289D01*
X96980061Y-118270910D01*
X96990791Y-118195518D01*
X96990791Y-118195515D01*
X96991372Y-118191434D01*
X96991446Y-118184344D01*
X96991486Y-118180620D01*
X96991486Y-118180614D01*
X96991529Y-118176487D01*
X96981023Y-118089668D01*
X96971840Y-118013786D01*
X96971839Y-118013783D01*
X96970927Y-118006245D01*
X96960987Y-117979938D01*
X96912996Y-117852934D01*
X96910312Y-117845831D01*
X96872490Y-117790799D01*
X96817484Y-117710765D01*
X96817483Y-117710763D01*
X96813182Y-117704506D01*
X96807511Y-117699453D01*
X96690818Y-117595483D01*
X96690815Y-117595481D01*
X96685146Y-117590430D01*
X96533594Y-117510187D01*
X96412166Y-117479687D01*
X96350971Y-117443692D01*
X96344468Y-117435614D01*
X96340853Y-117431514D01*
X96336551Y-117425254D01*
X96330880Y-117420201D01*
X96214187Y-117316231D01*
X96214184Y-117316229D01*
X96208515Y-117311178D01*
X96200519Y-117306944D01*
X96063675Y-117234489D01*
X96063676Y-117234489D01*
X96056963Y-117230935D01*
X96036106Y-117225696D01*
X95898016Y-117191010D01*
X95898012Y-117191010D01*
X95890645Y-117189159D01*
X95883046Y-117189119D01*
X95883044Y-117189119D01*
X95811588Y-117188745D01*
X95719163Y-117188261D01*
X95711783Y-117190033D01*
X95711781Y-117190033D01*
X95559796Y-117226521D01*
X95559792Y-117226522D01*
X95552417Y-117228293D01*
X95400033Y-117306944D01*
X95270809Y-117419674D01*
X95172204Y-117559974D01*
X95143326Y-117634042D01*
X95113413Y-117710765D01*
X95109912Y-117719744D01*
X95108920Y-117727277D01*
X95108920Y-117727278D01*
X95091555Y-117859183D01*
X95087529Y-117889761D01*
X95088363Y-117897311D01*
X95103803Y-118037163D01*
X95106347Y-118060210D01*
X95117128Y-118089672D01*
X95121755Y-118160514D01*
X95087345Y-118222615D01*
X95081631Y-118227919D01*
X95007739Y-118292379D01*
X95007735Y-118292383D01*
X95002013Y-118297375D01*
X94938155Y-118388236D01*
X94936665Y-118390356D01*
X94881131Y-118434587D01*
X94810499Y-118441773D01*
X94802886Y-118440110D01*
X94775134Y-118433139D01*
X94767536Y-118433099D01*
X94767534Y-118433099D01*
X94668697Y-118432582D01*
X94638777Y-118432425D01*
X94570762Y-118412067D01*
X94553548Y-118398120D01*
X94550528Y-118394184D01*
X94543978Y-118389158D01*
X94543973Y-118389153D01*
X94526406Y-118375674D01*
X94514014Y-118364806D01*
X93940007Y-117790799D01*
X93929139Y-117778407D01*
X93915659Y-117760839D01*
X93910633Y-117754289D01*
X93833006Y-117694725D01*
X93788493Y-117660568D01*
X93733190Y-117637661D01*
X93686615Y-117618369D01*
X93653886Y-117604812D01*
X93646257Y-117601652D01*
X93638069Y-117600574D01*
X93531944Y-117586602D01*
X93531939Y-117586602D01*
X93493620Y-117581557D01*
X93485432Y-117582635D01*
X93463487Y-117585524D01*
X93447041Y-117586602D01*
X91708877Y-117586602D01*
X91640756Y-117566600D01*
X91594263Y-117512944D01*
X91591011Y-117505139D01*
X91543415Y-117379179D01*
X91543414Y-117379177D01*
X91540730Y-117372074D01*
X91496434Y-117307623D01*
X91447902Y-117237008D01*
X91447901Y-117237006D01*
X91443600Y-117230749D01*
X91437929Y-117225696D01*
X91321236Y-117121726D01*
X91321233Y-117121724D01*
X91315564Y-117116673D01*
X91307568Y-117112439D01*
X91272716Y-117093986D01*
X91221872Y-117044433D01*
X91205891Y-116975259D01*
X91229845Y-116908425D01*
X91286129Y-116865152D01*
X91331675Y-116856632D01*
X98770506Y-116856632D01*
X98838627Y-116876634D01*
G37*
%TD.AperFunction*%
%TA.AperFunction,Conductor*%
G36*
X101486334Y-114717798D02*
G01*
X101526936Y-114776039D01*
X101533460Y-114816057D01*
X101533460Y-118477907D01*
X101513458Y-118546028D01*
X101459802Y-118592521D01*
X101389528Y-118602625D01*
X101376792Y-118600117D01*
X101376784Y-118600116D01*
X101369411Y-118598264D01*
X101361812Y-118598224D01*
X101361810Y-118598224D01*
X101290354Y-118597850D01*
X101197929Y-118597366D01*
X101190549Y-118599138D01*
X101190547Y-118599138D01*
X101138598Y-118611610D01*
X101031183Y-118637398D01*
X101024430Y-118640883D01*
X101024431Y-118640883D01*
X100994072Y-118656552D01*
X100924365Y-118670021D01*
X100858441Y-118643665D01*
X100852487Y-118638682D01*
X100822102Y-118611610D01*
X100814106Y-118607376D01*
X100761504Y-118579525D01*
X100670550Y-118531367D01*
X100504232Y-118489591D01*
X100496630Y-118489551D01*
X100493335Y-118489135D01*
X100428257Y-118460755D01*
X100388854Y-118401696D01*
X100387635Y-118330710D01*
X100424988Y-118270334D01*
X100452508Y-118251563D01*
X100506518Y-118224399D01*
X100512289Y-118219470D01*
X100512292Y-118219468D01*
X100631138Y-118117963D01*
X100636915Y-118113029D01*
X100736984Y-117973770D01*
X100800945Y-117814660D01*
X100811599Y-117739799D01*
X100824526Y-117648971D01*
X100824526Y-117648967D01*
X100825107Y-117644887D01*
X100825208Y-117635313D01*
X100825221Y-117634073D01*
X100825221Y-117634067D01*
X100825264Y-117629940D01*
X100810386Y-117506999D01*
X100805575Y-117467239D01*
X100805574Y-117467236D01*
X100804662Y-117459698D01*
X100797597Y-117440999D01*
X100746731Y-117306387D01*
X100744047Y-117299284D01*
X100694923Y-117227808D01*
X100651219Y-117164218D01*
X100651218Y-117164216D01*
X100646917Y-117157959D01*
X100606613Y-117122049D01*
X100569058Y-117061801D01*
X100570037Y-116990811D01*
X100609241Y-116931620D01*
X100662302Y-116905154D01*
X100787695Y-116876435D01*
X100795096Y-116874740D01*
X100948295Y-116797689D01*
X100954066Y-116792760D01*
X100954069Y-116792758D01*
X101072915Y-116691253D01*
X101078692Y-116686319D01*
X101178761Y-116547060D01*
X101242722Y-116387950D01*
X101250798Y-116331203D01*
X101266303Y-116222261D01*
X101266303Y-116222257D01*
X101266884Y-116218177D01*
X101267041Y-116203230D01*
X101258046Y-116128900D01*
X101247352Y-116040529D01*
X101247351Y-116040526D01*
X101246439Y-116032988D01*
X101241004Y-116018603D01*
X101188508Y-115879677D01*
X101185824Y-115872574D01*
X101088694Y-115731249D01*
X101056500Y-115702565D01*
X100966331Y-115622227D01*
X100966329Y-115622225D01*
X100960658Y-115617173D01*
X100953948Y-115613620D01*
X100953942Y-115613616D01*
X100908020Y-115589302D01*
X100857177Y-115539749D01*
X100849113Y-115522486D01*
X100826435Y-115462470D01*
X100823751Y-115455367D01*
X100726621Y-115314042D01*
X100703516Y-115293456D01*
X100604257Y-115205019D01*
X100604254Y-115205017D01*
X100598585Y-115199966D01*
X100462048Y-115127673D01*
X100411204Y-115078120D01*
X100395223Y-115008946D01*
X100419177Y-114942112D01*
X100439176Y-114920508D01*
X100548550Y-114827093D01*
X100554327Y-114822159D01*
X100565689Y-114806347D01*
X100621683Y-114762700D01*
X100692386Y-114756254D01*
X100709295Y-114761224D01*
X100712428Y-114762925D01*
X100878299Y-114806441D01*
X100965746Y-114807814D01*
X101042163Y-114809015D01*
X101042166Y-114809015D01*
X101049762Y-114809134D01*
X101057166Y-114807438D01*
X101057168Y-114807438D01*
X101145435Y-114787222D01*
X101216919Y-114770850D01*
X101332516Y-114712711D01*
X101350846Y-114703492D01*
X101420690Y-114690754D01*
X101486334Y-114717798D01*
G37*
%TD.AperFunction*%
%TA.AperFunction,Conductor*%
G36*
X84217325Y-113016990D02*
G01*
X84275058Y-113058311D01*
X84301287Y-113124285D01*
X84300751Y-113152407D01*
X84288581Y-113244850D01*
X84280101Y-113309260D01*
X84285400Y-113357258D01*
X84297324Y-113465258D01*
X84298919Y-113479709D01*
X84301528Y-113486840D01*
X84301529Y-113486842D01*
X84302863Y-113490486D01*
X84357851Y-113640749D01*
X84362088Y-113647055D01*
X84362090Y-113647058D01*
X84370221Y-113659158D01*
X84453496Y-113783083D01*
X84459112Y-113788193D01*
X84573655Y-113892419D01*
X84580331Y-113898494D01*
X84731034Y-113980319D01*
X84896905Y-114023835D01*
X84981204Y-114025159D01*
X85057330Y-114026355D01*
X85125128Y-114047424D01*
X85170773Y-114101803D01*
X85179771Y-114172227D01*
X85149268Y-114236337D01*
X85142120Y-114243397D01*
X85140215Y-114245513D01*
X85134486Y-114250511D01*
X85035881Y-114390811D01*
X84973589Y-114550581D01*
X84972597Y-114558114D01*
X84972597Y-114558115D01*
X84964832Y-114617101D01*
X84951206Y-114720598D01*
X84959455Y-114795315D01*
X84966817Y-114861995D01*
X84970024Y-114891047D01*
X84972634Y-114898180D01*
X84972635Y-114898183D01*
X84992540Y-114952577D01*
X84997166Y-115023422D01*
X84974090Y-115068114D01*
X84976175Y-115069579D01*
X84877570Y-115209879D01*
X84815278Y-115369649D01*
X84814286Y-115377182D01*
X84814286Y-115377183D01*
X84795157Y-115522486D01*
X84792895Y-115539666D01*
X84798375Y-115589302D01*
X84809187Y-115687232D01*
X84811713Y-115710115D01*
X84870645Y-115871155D01*
X84874882Y-115877461D01*
X84874884Y-115877464D01*
X84883960Y-115890970D01*
X84966290Y-116013489D01*
X84971909Y-116018602D01*
X84971910Y-116018603D01*
X85078387Y-116115490D01*
X85115310Y-116176131D01*
X85113587Y-116247106D01*
X85073765Y-116305883D01*
X85023002Y-116331203D01*
X84931392Y-116353196D01*
X84931388Y-116353197D01*
X84924013Y-116354968D01*
X84771629Y-116433619D01*
X84642405Y-116546349D01*
X84543800Y-116686649D01*
X84481508Y-116846419D01*
X84480516Y-116853952D01*
X84480516Y-116853953D01*
X84461215Y-117000564D01*
X84459125Y-117016436D01*
X84467411Y-117091487D01*
X84476445Y-117173312D01*
X84477943Y-117186885D01*
X84480552Y-117194016D01*
X84480553Y-117194018D01*
X84496285Y-117237008D01*
X84536875Y-117347925D01*
X84541112Y-117354231D01*
X84541114Y-117354234D01*
X84573777Y-117402841D01*
X84632520Y-117490259D01*
X84638135Y-117495368D01*
X84638140Y-117495374D01*
X84647287Y-117503697D01*
X84684209Y-117564337D01*
X84682486Y-117635313D01*
X84642663Y-117694089D01*
X84593821Y-117718932D01*
X84485245Y-117746809D01*
X84485242Y-117746810D01*
X84481421Y-117747791D01*
X84477752Y-117749244D01*
X84477751Y-117749244D01*
X84203317Y-117857900D01*
X84203312Y-117857902D01*
X84199643Y-117859355D01*
X84196175Y-117861261D01*
X84196174Y-117861262D01*
X83980305Y-117979938D01*
X83934070Y-118005356D01*
X83688889Y-118183490D01*
X83467968Y-118390948D01*
X83465441Y-118394003D01*
X83464312Y-118395205D01*
X83403100Y-118431172D01*
X83332160Y-118428335D01*
X83274015Y-118387596D01*
X83247126Y-118321889D01*
X83246460Y-118308954D01*
X83246460Y-114275695D01*
X83247960Y-114256312D01*
X83250270Y-114241478D01*
X83250270Y-114241474D01*
X83251651Y-114232604D01*
X83249812Y-114218541D01*
X83249136Y-114192321D01*
X83249167Y-114191928D01*
X83261309Y-114037604D01*
X83264399Y-114018091D01*
X83306273Y-113843659D01*
X83312380Y-113824860D01*
X83381026Y-113659124D01*
X83390002Y-113641508D01*
X83438548Y-113562283D01*
X83483725Y-113488558D01*
X83495343Y-113472566D01*
X83501585Y-113465258D01*
X83611838Y-113336162D01*
X83625819Y-113322181D01*
X83762222Y-113205677D01*
X83778217Y-113194055D01*
X83931157Y-113100329D01*
X83948773Y-113091353D01*
X84114503Y-113022700D01*
X84133309Y-113016589D01*
X84139396Y-113015127D01*
X84146417Y-113013442D01*
X84217325Y-113016990D01*
G37*
%TD.AperFunction*%
%TA.AperFunction,Conductor*%
G36*
X94615435Y-112976842D02*
G01*
X94661928Y-113030498D01*
X94672032Y-113100772D01*
X94664707Y-113128610D01*
X94627155Y-113224927D01*
X94624062Y-113232859D01*
X94623070Y-113240392D01*
X94623070Y-113240393D01*
X94603093Y-113392139D01*
X94601679Y-113402876D01*
X94608566Y-113465258D01*
X94619655Y-113565695D01*
X94620497Y-113573325D01*
X94679429Y-113734365D01*
X94683666Y-113740671D01*
X94683668Y-113740674D01*
X94692923Y-113754446D01*
X94775074Y-113876699D01*
X94780693Y-113881812D01*
X94780694Y-113881813D01*
X94881586Y-113973618D01*
X94918509Y-114034259D01*
X94916786Y-114105234D01*
X94876964Y-114164011D01*
X94811686Y-114191928D01*
X94796787Y-114192812D01*
X94251513Y-114192812D01*
X94183392Y-114172810D01*
X94162418Y-114155907D01*
X93798796Y-113792285D01*
X93764770Y-113729973D01*
X93769835Y-113659158D01*
X93812382Y-113602322D01*
X93859761Y-113580370D01*
X93890522Y-113573325D01*
X93923836Y-113565695D01*
X94077035Y-113488644D01*
X94082806Y-113483715D01*
X94082809Y-113483713D01*
X94201655Y-113382208D01*
X94207432Y-113377274D01*
X94280547Y-113275525D01*
X94303069Y-113244183D01*
X94303070Y-113244182D01*
X94307501Y-113238015D01*
X94371462Y-113078905D01*
X94372902Y-113068788D01*
X94373430Y-113065083D01*
X94402832Y-113000461D01*
X94462505Y-112961994D01*
X94498172Y-112956840D01*
X94547314Y-112956840D01*
X94615435Y-112976842D01*
G37*
%TD.AperFunction*%
%TA.AperFunction,Conductor*%
G36*
X99371525Y-112976842D02*
G01*
X99418018Y-113030498D01*
X99428122Y-113100772D01*
X99406491Y-113155291D01*
X99353181Y-113231143D01*
X99350421Y-113238223D01*
X99296207Y-113377274D01*
X99290889Y-113390913D01*
X99289897Y-113398446D01*
X99289897Y-113398447D01*
X99278023Y-113488644D01*
X99268506Y-113560930D01*
X99287324Y-113731379D01*
X99344111Y-113886557D01*
X99344111Y-113886558D01*
X99346256Y-113892419D01*
X99345279Y-113892777D01*
X99357104Y-113955769D01*
X99330400Y-114021552D01*
X99272369Y-114062455D01*
X99231077Y-114069185D01*
X99107606Y-114068538D01*
X99100226Y-114070310D01*
X99100224Y-114070310D01*
X98948239Y-114106798D01*
X98948235Y-114106799D01*
X98940860Y-114108570D01*
X98849146Y-114155907D01*
X98804834Y-114178778D01*
X98747044Y-114192812D01*
X97009718Y-114192812D01*
X96941597Y-114172810D01*
X96895104Y-114119154D01*
X96884503Y-114080857D01*
X96867142Y-113926084D01*
X96866357Y-113919085D01*
X96864040Y-113912431D01*
X96809024Y-113754446D01*
X96809022Y-113754443D01*
X96806705Y-113747788D01*
X96800909Y-113738512D01*
X96714319Y-113599938D01*
X96710586Y-113593964D01*
X96690091Y-113573325D01*
X96607828Y-113490486D01*
X96574021Y-113428055D01*
X96579333Y-113357258D01*
X96589268Y-113338712D01*
X96588692Y-113338395D01*
X96592352Y-113331738D01*
X96596784Y-113325570D01*
X96660745Y-113166460D01*
X96675173Y-113065086D01*
X96704572Y-113000464D01*
X96764243Y-112961995D01*
X96799915Y-112956840D01*
X99303404Y-112956840D01*
X99371525Y-112976842D01*
G37*
%TD.AperFunction*%
%TD*%
D20*
X73797160Y-110500160D03*
D21*
X76298140Y-113339320D03*
D20*
X78975550Y-115590642D03*
X109463840Y-116850160D03*
D22*
X107492042Y-110970060D03*
D21*
X82679540Y-74635360D03*
X72015500Y-95015500D03*
X86627525Y-86537792D03*
X100328357Y-121920011D03*
X88491689Y-90787736D03*
X100553337Y-116203230D03*
X80981202Y-88214700D03*
X86751160Y-116969540D03*
X97267061Y-105020721D03*
X100975160Y-114099340D03*
X79156982Y-91999222D03*
X102133400Y-91389200D03*
X85500000Y-76700000D03*
X99356262Y-117874188D03*
X91690734Y-93248234D03*
X96995953Y-121643790D03*
X96301560Y-105486200D03*
X88623570Y-115431645D03*
D20*
X76078651Y-91857213D03*
D21*
X98247200Y-91389200D03*
X90908243Y-117702730D03*
X84993766Y-113316734D03*
D20*
X95021400Y-83223100D03*
D21*
X93682077Y-112894185D03*
X100838000Y-91389200D03*
X81499115Y-77102619D03*
X87300313Y-81437590D03*
X83860457Y-89777531D03*
X70269100Y-92351350D03*
X99542600Y-91389200D03*
X93522579Y-95703795D03*
X91932760Y-121668540D03*
X82402569Y-82911271D03*
X88350774Y-85656238D03*
X86507320Y-89984580D03*
X95315344Y-113410350D03*
X100111560Y-117629940D03*
X78298140Y-114339320D03*
X77826664Y-112507270D03*
D20*
X105961180Y-110238540D03*
X108424980Y-112798860D03*
X85613403Y-91721097D03*
D21*
X90891360Y-121668540D03*
X88072528Y-86486487D03*
D20*
X69334378Y-94338140D03*
D21*
X74173080Y-94866460D03*
X87914480Y-88508840D03*
X94488000Y-104775000D03*
X94457519Y-105664000D03*
X93247381Y-113352751D03*
X94472615Y-95660351D03*
D20*
X85156213Y-85623651D03*
D21*
X92847160Y-121617740D03*
X78613000Y-109727988D03*
X98892360Y-113540540D03*
X77754897Y-91100057D03*
D20*
X84769960Y-115369340D03*
D21*
X83911440Y-87708740D03*
D20*
X83045195Y-92436208D03*
D21*
X91359010Y-117163910D03*
X94142570Y-113317537D03*
X75872340Y-94096840D03*
X87599520Y-118798340D03*
D20*
X83058421Y-76550861D03*
X85855850Y-84739214D03*
X77330300Y-84927440D03*
X76206885Y-87855638D03*
X76403268Y-90262927D03*
X77431900Y-94513400D03*
D21*
X87847989Y-90074100D03*
D20*
X92633800Y-95123000D03*
D21*
X89077800Y-95808800D03*
D20*
X82677000Y-95631000D03*
D22*
X96072960Y-114099340D03*
D21*
X95971360Y-112981740D03*
X93018953Y-119157130D03*
X95801194Y-117897235D03*
X96277825Y-118176487D03*
X100028972Y-114339070D03*
X99982171Y-113568404D03*
X97160730Y-115843322D03*
X91619818Y-119302121D03*
X96684418Y-119010374D03*
X99118420Y-120469662D03*
X99120960Y-121973340D03*
X96084726Y-118765355D03*
X100330000Y-120142000D03*
X101279960Y-119306340D03*
X88960960Y-121719340D03*
X88963500Y-119072660D03*
X93586232Y-118888084D03*
X90009468Y-119583886D03*
X80856470Y-91265648D03*
D20*
X86417708Y-91211016D03*
X81726017Y-73949937D03*
X83506719Y-86210647D03*
D21*
X85181734Y-91042754D03*
X79936340Y-91607640D03*
X82214495Y-86210647D03*
X81862892Y-91160600D03*
X84675967Y-85037124D03*
X71631412Y-94317089D03*
X88039127Y-87037888D03*
X87756740Y-83819921D03*
X72052180Y-92351350D03*
X73492360Y-92364050D03*
X85227508Y-89980754D03*
X97389989Y-91143989D03*
X83831939Y-90988046D03*
X74599800Y-92250256D03*
X96833773Y-91137911D03*
X95532398Y-118774936D03*
X94377716Y-121643790D03*
X89032364Y-117971303D03*
X94133515Y-119157627D03*
X94685683Y-119141215D03*
X91294268Y-118855829D03*
X91943852Y-118846569D03*
X90693535Y-118699515D03*
X94779140Y-92779727D03*
X95076553Y-91082480D03*
X88434383Y-91528321D03*
X90603190Y-88493600D03*
X86768214Y-91957091D03*
X92982221Y-88771883D03*
X87974930Y-91221627D03*
X90148805Y-91207073D03*
X93758934Y-88338012D03*
X84033092Y-92158827D03*
X93362130Y-91192806D03*
X85037903Y-92205786D03*
X89291594Y-91277627D03*
X90068317Y-88977911D03*
X89017490Y-92248841D03*
X90616294Y-89047772D03*
X86048230Y-83372388D03*
X88285100Y-83981152D03*
X75903399Y-85871477D03*
D22*
X91835729Y-91241835D03*
X91031800Y-91247700D03*
D21*
X75897614Y-86485810D03*
X96635687Y-91997770D03*
X95976562Y-91175035D03*
X95305880Y-92989400D03*
X95536044Y-88672819D03*
X90446886Y-86896579D03*
X83919060Y-88697450D03*
X78397099Y-89598500D03*
X90398600Y-85115400D03*
X77637534Y-90550184D03*
X82542431Y-90899408D03*
X90298379Y-84034510D03*
X92880180Y-92870020D03*
X92982221Y-83940217D03*
X85958865Y-85491483D03*
X82019779Y-88729610D03*
X82691128Y-85566410D03*
X84005988Y-84996587D03*
X93809899Y-91975137D03*
X94220058Y-89184010D03*
X94219342Y-91225417D03*
X95077269Y-89072150D03*
D20*
X77135124Y-89158936D03*
X70167398Y-96461580D03*
D21*
X97421700Y-88900000D03*
X70089987Y-95544640D03*
X74692862Y-93967662D03*
X90020790Y-85725000D03*
X74917300Y-96520000D03*
X96021510Y-88952363D03*
D20*
X78300457Y-85206503D03*
X78219300Y-83732084D03*
D21*
X77208380Y-113680240D03*
X77198140Y-110939320D03*
X90316958Y-113945340D03*
X100191264Y-115786023D03*
X99186611Y-115329915D03*
X85911093Y-113794140D03*
X89633833Y-113740305D03*
X89081422Y-113740407D03*
X88041024Y-116970652D03*
X99189637Y-114777512D03*
X88672284Y-116945864D03*
X87928381Y-113716730D03*
X88244794Y-113263914D03*
X87130989Y-113131951D03*
X85664871Y-114728072D03*
X91169340Y-113908733D03*
X90340454Y-114527991D03*
X86063769Y-115110223D03*
X85506560Y-115547140D03*
X90008368Y-114969441D03*
X90473612Y-115267296D03*
X85172790Y-117023910D03*
D22*
X86398851Y-74577408D03*
X86094042Y-73820020D03*
D21*
X86151720Y-72495620D03*
X109199680Y-114607340D03*
X87516960Y-117145340D03*
X99458176Y-116509727D03*
X99771200Y-121691400D03*
X100414781Y-119197667D03*
X78435348Y-92280991D03*
X86375678Y-87997826D03*
X72212200Y-96494600D03*
X92399731Y-82796769D03*
X91028760Y-94894160D03*
D20*
X74345800Y-89782200D03*
X74345800Y-82582200D03*
X73695800Y-88982200D03*
X72995800Y-88582200D03*
X72995800Y-87782200D03*
X73695800Y-87382200D03*
X72995800Y-86982200D03*
X73695800Y-86582200D03*
X73695800Y-85782200D03*
X72995800Y-85382200D03*
X73695800Y-84982200D03*
X72995800Y-84582200D03*
X72995800Y-83782200D03*
X73695800Y-83382200D03*
D23*
X72945800Y-81582200D03*
X72945800Y-90782200D03*
X69945800Y-81582200D03*
X69945800Y-90782200D03*
D20*
X116713000Y-113538000D03*
X85227160Y-120042940D03*
X80594200Y-93929200D03*
X67818000Y-113538000D03*
D24*
X75846940Y-110954820D03*
X108752640Y-110970060D03*
D20*
X99568000Y-137668000D03*
M02*
