%TF.GenerationSoftware,KiCad,Pcbnew,6.0.11+dfsg-1*%
%TF.CreationDate,2026-05-20T21:14:43+00:00*%
%TF.ProjectId,Lifedatalink_v1_revB_compat,4c696665-6461-4746-916c-696e6b5f7631,rev?*%
%TF.SameCoordinates,Original*%
%TF.FileFunction,Copper,L1,Top*%
%TF.FilePolarity,Positive*%
%FSLAX46Y46*%
G04 Gerber Fmt 4.6, Leading zero omitted, Abs format (unit mm)*
G04 Created by KiCad (PCBNEW 6.0.11+dfsg-1) date 2026-05-20 21:14:43*
%MOMM*%
%LPD*%
G01*
G04 APERTURE LIST*
%TA.AperFunction,ComponentPad*%
%ADD10C,0.650000*%
%TD*%
%TA.AperFunction,ComponentPad*%
%ADD11O,2.300000X1.150000*%
%TD*%
%TA.AperFunction,ComponentPad*%
%ADD12C,12.000000*%
%TD*%
%TA.AperFunction,ComponentPad*%
%ADD13C,3.800000*%
%TD*%
%TA.AperFunction,ViaPad*%
%ADD14C,0.800000*%
%TD*%
%TA.AperFunction,ViaPad*%
%ADD15C,0.400000*%
%TD*%
%TA.AperFunction,ViaPad*%
%ADD16C,0.600000*%
%TD*%
%TA.AperFunction,Conductor*%
%ADD17C,0.300000*%
%TD*%
%TA.AperFunction,Conductor*%
%ADD18C,0.250000*%
%TD*%
%TA.AperFunction,Conductor*%
%ADD19C,0.152400*%
%TD*%
%ADD20C,0.350000*%
%ADD21C,0.200000*%
%ADD22C,0.300000*%
%ADD23O,1.650000X0.650000*%
%ADD24C,0.324999*%
G04 APERTURE END LIST*
D10*
%TO.N,GND*%
%TO.C,J1*%
X73695800Y-88982200D03*
%TO.N,Net-(J1-PadB2)*%
X72995800Y-88582200D03*
%TO.N,Net-(J1-PadB3)*%
X72995800Y-87782200D03*
%TO.N,+5V*%
X73695800Y-87382200D03*
%TO.N,Net-(J1-PadB5)*%
X72995800Y-86982200D03*
%TO.N,/BL654_USB_DP*%
X73695800Y-86582200D03*
%TO.N,/BL654_USB_DN*%
X73695800Y-85782200D03*
%TO.N,Net-(J1-PadB8)*%
X72995800Y-85382200D03*
%TO.N,+5V*%
X73695800Y-84982200D03*
%TO.N,Net-(J1-PadB10)*%
X72995800Y-84582200D03*
%TO.N,Net-(J1-PadB11)*%
X72995800Y-83782200D03*
%TO.N,GND*%
X73695800Y-83382200D03*
D11*
X72945800Y-81582200D03*
X72945800Y-90782200D03*
X69945800Y-81582200D03*
X69945800Y-90782200D03*
%TD*%
D12*
%TO.N,/ECG_LEFT_ARM*%
%TO.C,J6*%
X116713000Y-113538000D03*
%TD*%
D13*
%TO.N,GND*%
%TO.C,J19*%
X85227160Y-120042940D03*
%TD*%
%TO.N,GND*%
%TO.C,J20*%
X80594200Y-93929200D03*
%TD*%
D12*
%TO.N,/ECG_RIGHT_ARM*%
%TO.C,J7*%
X67818000Y-113538000D03*
%TD*%
%TO.N,/ECG_RIGHT_LEG*%
%TO.C,J18*%
X99568000Y-137668000D03*
%TD*%
D14*
%TO.N,GND*%
X73797160Y-110500160D03*
D15*
X76298140Y-113339320D03*
D14*
X78975550Y-115590642D03*
X109463840Y-116850160D03*
D16*
X107492042Y-110970060D03*
D15*
X82679540Y-74635360D03*
X72015500Y-95015500D03*
X86627525Y-86537792D03*
X100328357Y-121920011D03*
X88491689Y-90787736D03*
X100553337Y-116203230D03*
X80981202Y-88214700D03*
X86751160Y-116969540D03*
X97267061Y-105020721D03*
X100975160Y-114099340D03*
X79156982Y-91999222D03*
X102133400Y-91389200D03*
X85500000Y-76700000D03*
X99356262Y-117874188D03*
X91690734Y-93248234D03*
X96995953Y-121643790D03*
X96301560Y-105486200D03*
X88623570Y-115431645D03*
D14*
X76078651Y-91857213D03*
D15*
X98247200Y-91389200D03*
X90908243Y-117702730D03*
X84993766Y-113316734D03*
D14*
X95021400Y-83223100D03*
D15*
X93682077Y-112894185D03*
X100838000Y-91389200D03*
X81499115Y-77102619D03*
X87300313Y-81437590D03*
X83860457Y-89777531D03*
X70269100Y-92351350D03*
X99542600Y-91389200D03*
X93522579Y-95703795D03*
X91932760Y-121668540D03*
X82402569Y-82911271D03*
X88350774Y-85656238D03*
X86507320Y-89984580D03*
X95315344Y-113410350D03*
X100111560Y-117629940D03*
%TO.N,+3V3*%
X78298140Y-114339320D03*
X77826664Y-112507270D03*
D14*
X105961180Y-110238540D03*
X108424980Y-112798860D03*
X85613403Y-91721097D03*
D15*
X90891360Y-121668540D03*
X88072528Y-86486487D03*
D14*
X69334378Y-94338140D03*
D15*
X74173080Y-94866460D03*
X87914480Y-88508840D03*
X94488000Y-104775000D03*
X94457519Y-105664000D03*
X93247381Y-113352751D03*
X94472615Y-95660351D03*
D14*
X85156213Y-85623651D03*
D15*
X92847160Y-121617740D03*
X78613000Y-109727988D03*
X98892360Y-113540540D03*
X77754897Y-91100057D03*
D14*
X84769960Y-115369340D03*
D15*
X83911440Y-87708740D03*
D14*
X83045195Y-92436208D03*
D15*
X91359010Y-117163910D03*
X94142570Y-113317537D03*
X75872340Y-94096840D03*
X87599520Y-118798340D03*
D14*
X83058421Y-76550861D03*
X85855850Y-84739214D03*
%TO.N,+5V*%
X77330300Y-84927440D03*
X76206885Y-87855638D03*
X76403268Y-90262927D03*
X77431900Y-94513400D03*
D15*
X87847989Y-90074100D03*
D14*
%TO.N,+BATT*%
X92633800Y-95123000D03*
D15*
X89077800Y-95808800D03*
D14*
X82677000Y-95631000D03*
D16*
%TO.N,Net-(C10-Pad2)*%
X96072960Y-114099340D03*
D15*
%TO.N,Net-(C11-Pad2)*%
X95971360Y-112981740D03*
%TO.N,Net-(C12-Pad2)*%
X93018953Y-119157130D03*
%TO.N,Net-(C13-Pad2)*%
X95801194Y-117897235D03*
%TO.N,Net-(C13-Pad1)*%
X96277825Y-118176487D03*
%TO.N,Net-(C14-Pad2)*%
X100028972Y-114339070D03*
%TO.N,Net-(C14-Pad1)*%
X99982171Y-113568404D03*
X97160730Y-115843322D03*
%TO.N,Net-(C15-Pad2)*%
X91619818Y-119302121D03*
X96684418Y-119010374D03*
%TO.N,Net-(C15-Pad1)*%
X99118420Y-120469662D03*
X99120960Y-121973340D03*
%TO.N,Net-(C20-Pad2)*%
X96084726Y-118765355D03*
X100330000Y-120142000D03*
%TO.N,Net-(C21-Pad2)*%
X101279960Y-119306340D03*
X88960960Y-121719340D03*
X88963500Y-119072660D03*
%TO.N,/RLDINV*%
X93586232Y-118888084D03*
X90009468Y-119583886D03*
%TO.N,+1V8*%
X80856470Y-91265648D03*
D14*
X86417708Y-91211016D03*
X81726017Y-73949937D03*
X83506719Y-86210647D03*
D15*
X85181734Y-91042754D03*
X79936340Y-91607640D03*
X82214495Y-86210647D03*
X81862892Y-91160600D03*
X84675967Y-85037124D03*
%TO.N,/BL654_UART_RX*%
X71631412Y-94317089D03*
X88039127Y-87037888D03*
%TO.N,/BL654_UART_TX*%
X87756740Y-83819921D03*
X72052180Y-92351350D03*
%TO.N,/BL654_SWDIO*%
X73492360Y-92364050D03*
X85227508Y-89980754D03*
X97389989Y-91143989D03*
%TO.N,/BL654_SWDCLK*%
X83831939Y-90988046D03*
X74599800Y-92250256D03*
X96833773Y-91137911D03*
%TO.N,Net-(R8-Pad1)*%
X95532398Y-118774936D03*
X94377716Y-121643790D03*
%TO.N,/RLDIN*%
X89032364Y-117971303D03*
X94133515Y-119157627D03*
%TO.N,/RLDOUT*%
X94685683Y-119141215D03*
X91294268Y-118855829D03*
%TO.N,Net-(R15-Pad1)*%
X91943852Y-118846569D03*
%TO.N,Net-(R16-Pad1)*%
X90693535Y-118699515D03*
%TO.N,/TMP_ALERT*%
X94779140Y-92779727D03*
X95076553Y-91082480D03*
%TO.N,/~{ADS_PWDN_RESET}*%
X88434383Y-91528321D03*
X90603190Y-88493600D03*
%TO.N,/ADS_SPI_MOSI*%
X86768214Y-91957091D03*
X92982221Y-88771883D03*
%TO.N,/~{ADS_SPI_CS}*%
X87974930Y-91221627D03*
X90148805Y-91207073D03*
%TO.N,/ADS_SPI_SCLK*%
X93758934Y-88338012D03*
X84033092Y-92158827D03*
%TO.N,/ADS_SPI_MISO*%
X93362130Y-91192806D03*
X85037903Y-92205786D03*
%TO.N,/~{ADS_DRDY}*%
X89291594Y-91277627D03*
X90068317Y-88977911D03*
%TO.N,/ADS_CLK*%
X89017490Y-92248841D03*
X90616294Y-89047772D03*
%TO.N,/~{MAX_INT}*%
X86048230Y-83372388D03*
X88285100Y-83981152D03*
%TO.N,/BL654_USB_DP*%
X75903399Y-85871477D03*
D16*
X91835729Y-91241835D03*
%TO.N,/BL654_USB_DN*%
X91031800Y-91247700D03*
D15*
X75897614Y-86485810D03*
%TO.N,/TMP_ADD0*%
X96635687Y-91997770D03*
X95976562Y-91175035D03*
%TO.N,/BL654_I2C_SDA_HV*%
X95305880Y-92989400D03*
X95536044Y-88672819D03*
X90446886Y-86896579D03*
X83919060Y-88697450D03*
X78397099Y-89598500D03*
X90398600Y-85115400D03*
%TO.N,/BL654_I2C_SCL_HV*%
X77637534Y-90550184D03*
X82542431Y-90899408D03*
X90298379Y-84034510D03*
X92880180Y-92870020D03*
X92982221Y-83940217D03*
%TO.N,/BL654_I2C_SDA_LV*%
X85958865Y-85491483D03*
X82019779Y-88729610D03*
%TO.N,/BL654_I2C_SCL_LV*%
X82691128Y-85566410D03*
X84005988Y-84996587D03*
%TO.N,/BL654_I2S_SCK*%
X93809899Y-91975137D03*
X94220058Y-89184010D03*
%TO.N,/BL654_I2S_WS*%
X94219342Y-91225417D03*
X95077269Y-89072150D03*
D14*
%TO.N,/VIN*%
X77135124Y-89158936D03*
X70167398Y-96461580D03*
D15*
%TO.N,/WS2812_DATA*%
X97421700Y-88900000D03*
X70089987Y-95544640D03*
%TO.N,/MCP73831_STAT*%
X74692862Y-93967662D03*
X90020790Y-85725000D03*
%TO.N,Net-(SW1-Pad1)*%
X74917300Y-96520000D03*
X96021510Y-88952363D03*
D14*
%TO.N,/VIN_FUSE*%
X78300457Y-85206503D03*
X78219300Y-83732084D03*
D15*
%TO.N,/BL654_I2S_SD_EXT*%
X77208380Y-113680240D03*
X77198140Y-110939320D03*
X90316958Y-113945340D03*
X100191264Y-115786023D03*
%TO.N,/BL654_I2S_SCK_EXT*%
X99186611Y-115329915D03*
X85911093Y-113794140D03*
X89633833Y-113740305D03*
%TO.N,/BL654_I2S_WS_EXT*%
X89081422Y-113740407D03*
X88041024Y-116970652D03*
X99189637Y-114777512D03*
%TO.N,/~{ADS_DRDY_EXT}*%
X88672284Y-116945864D03*
%TO.N,/ADS_CLK_EXT*%
X87928381Y-113716730D03*
%TO.N,/ADS_START_EXT*%
X88244794Y-113263914D03*
%TO.N,/~{ADS_PWDN_RESET_EXT}*%
X87130989Y-113131951D03*
%TO.N,/~{ADS_SPI_CS_EXT}*%
X85664871Y-114728072D03*
X91169340Y-113908733D03*
%TO.N,/ADS_SPI_MOSI_EXT*%
X90340454Y-114527991D03*
X86063769Y-115110223D03*
%TO.N,/ADS_SPI_MISO_EXT*%
X85506560Y-115547140D03*
X90008368Y-114969441D03*
%TO.N,/ADS_SPI_SCLK_EXT*%
X90473612Y-115267296D03*
X85172790Y-117023910D03*
D16*
%TO.N,/~{MAX_INT_EXT}*%
X86398851Y-74577408D03*
%TO.N,/BL654_I2C_SDA_LV_EXT*%
X86094042Y-73820020D03*
D15*
%TO.N,/BL654_I2C_SCL_LV_EXT*%
X86151720Y-72495620D03*
%TO.N,/ECG_LEFT_ARM*%
X109199680Y-114607340D03*
%TO.N,/ECG_RIGHT_ARM*%
X87516960Y-117145340D03*
X99458176Y-116509727D03*
X99771200Y-121691400D03*
%TO.N,/ECG_RIGHT_LEG*%
X100414781Y-119197667D03*
%TO.N,Net-(C31-Pad2)*%
X78435348Y-92280991D03*
X86375678Y-87997826D03*
X72212200Y-96494600D03*
%TO.N,/VDIV*%
X92399731Y-82796769D03*
X91028760Y-94894160D03*
%TD*%
D17*
%TO.N,GND*%
X98079560Y-112829340D02*
X97412851Y-113496049D01*
D18*
X73921000Y-93110000D02*
X75391549Y-93110000D01*
D17*
X86951159Y-117169539D02*
X86951159Y-117373405D01*
D18*
X87509079Y-85656238D02*
X86627525Y-86537792D01*
D17*
X83860457Y-89777531D02*
X83220560Y-90417428D01*
D18*
X80981202Y-88214700D02*
X78289902Y-90906000D01*
D17*
X86751160Y-116969540D02*
X86751160Y-118518940D01*
X95683885Y-113496049D02*
X95598186Y-113410350D01*
X86751160Y-116969540D02*
X86951159Y-117169539D01*
D18*
X88402160Y-118620540D02*
X88387039Y-118635661D01*
X95021400Y-83223100D02*
X93645488Y-84599012D01*
X76924091Y-91577458D02*
X76644336Y-91857213D01*
X88350774Y-85656238D02*
X87509079Y-85656238D01*
D17*
X86751160Y-118518940D02*
X85227160Y-120042940D01*
X100553337Y-117188163D02*
X100553337Y-116203230D01*
X90035274Y-118473713D02*
X90806257Y-117702730D01*
D18*
X77996750Y-91577458D02*
X76924091Y-91577458D01*
D17*
X97412851Y-113496049D02*
X95683885Y-113496049D01*
X100975160Y-114099340D02*
X100975160Y-113816498D01*
D18*
X78289902Y-90906000D02*
X78289902Y-91284306D01*
X76078651Y-92422898D02*
X76078651Y-91857213D01*
D17*
X83220560Y-90417428D02*
X83220560Y-91191080D01*
D19*
X91932760Y-121668540D02*
X92897960Y-120703340D01*
D17*
X100111560Y-117629940D02*
X99501960Y-117020340D01*
D18*
X91094560Y-120830340D02*
X91932760Y-121668540D01*
X88387039Y-120002419D02*
X89214960Y-120830340D01*
D17*
X88402160Y-118620540D02*
X88548987Y-118473713D01*
D19*
X100328357Y-121637169D02*
X100328357Y-121920011D01*
D17*
X88548987Y-118473713D02*
X90035274Y-118473713D01*
D18*
X93645488Y-84599012D02*
X89408000Y-84599012D01*
D17*
X95598186Y-113410350D02*
X95315344Y-113410350D01*
X100975160Y-113816498D02*
X99988002Y-112829340D01*
D18*
X88387039Y-118635661D02*
X88387039Y-120002419D01*
X89408000Y-84599012D02*
X88350774Y-85656238D01*
D19*
X97800160Y-120703340D02*
X98308819Y-121211999D01*
D18*
X78289902Y-91284306D02*
X77996750Y-91577458D01*
D19*
X98308819Y-121211999D02*
X99903187Y-121211999D01*
D17*
X95183960Y-117020340D02*
X94501570Y-117702730D01*
D18*
X72015500Y-95015500D02*
X73921000Y-93110000D01*
D17*
X90806257Y-117702730D02*
X90908243Y-117702730D01*
X94501570Y-117702730D02*
X90908243Y-117702730D01*
D18*
X89214960Y-120830340D02*
X91094560Y-120830340D01*
D17*
X86951159Y-117373405D02*
X88198294Y-118620540D01*
D18*
X75391549Y-93110000D02*
X76078651Y-92422898D01*
D19*
X99903187Y-121211999D02*
X100328357Y-121637169D01*
D17*
X88198294Y-118620540D02*
X88402160Y-118620540D01*
D19*
X92897960Y-120703340D02*
X97800160Y-120703340D01*
D17*
X99988002Y-112829340D02*
X98079560Y-112829340D01*
X99501960Y-117020340D02*
X95183960Y-117020340D01*
X100111560Y-117629940D02*
X100553337Y-117188163D01*
X83220560Y-91191080D02*
X80594200Y-93817440D01*
D18*
X76644336Y-91857213D02*
X76078651Y-91857213D01*
D17*
X80594200Y-93817440D02*
X80594200Y-93929200D01*
D18*
%TO.N,+5V*%
X76206885Y-87855638D02*
X77330300Y-86732223D01*
X77330300Y-86732223D02*
X77330300Y-84927440D01*
D19*
%TO.N,Net-(C14-Pad1)*%
X99556034Y-113994541D02*
X99009511Y-113994541D01*
X99982171Y-113568404D02*
X99556034Y-113994541D01*
X99009511Y-113994541D02*
X97160730Y-115843322D01*
%TO.N,Net-(C15-Pad2)*%
X91903925Y-119586228D02*
X96108564Y-119586228D01*
X96108564Y-119586228D02*
X96684418Y-119010374D01*
X91619818Y-119302121D02*
X91903925Y-119586228D01*
%TO.N,Net-(C21-Pad2)*%
X101279960Y-119306340D02*
X101279960Y-120335040D01*
X99869601Y-120570601D02*
X99311487Y-120012487D01*
X101044399Y-120570601D02*
X99869601Y-120570601D01*
X88963500Y-119355502D02*
X88963500Y-119072660D01*
X101279960Y-120335040D02*
X101044399Y-120570601D01*
X89620485Y-120012487D02*
X88963500Y-119355502D01*
X99311487Y-120012487D02*
X89620485Y-120012487D01*
%TO.N,/BL654_UART_RX*%
X75788987Y-89593592D02*
X75788987Y-90107034D01*
X72138091Y-94317089D02*
X71631412Y-94317089D01*
X73698791Y-92756389D02*
X72138091Y-94317089D01*
X87967641Y-86966402D02*
X78416177Y-86966402D01*
X88039127Y-87037888D02*
X87967641Y-86966402D01*
X75450041Y-90445980D02*
X75450041Y-92111877D01*
X75450041Y-92111877D02*
X74805529Y-92756389D01*
X78416177Y-86966402D02*
X75788987Y-89593592D01*
X75788987Y-90107034D02*
X75450041Y-90445980D01*
X74805529Y-92756389D02*
X73698791Y-92756389D01*
%TO.N,/BL654_UART_TX*%
X87756740Y-83819921D02*
X81131591Y-83819921D01*
X72591078Y-91812452D02*
X72052180Y-92351350D01*
X75484176Y-89467336D02*
X75484176Y-89955504D01*
X81131591Y-83819921D02*
X75484176Y-89467336D01*
X73627228Y-91812452D02*
X72591078Y-91812452D01*
X75484176Y-89955504D02*
X73627228Y-91812452D01*
%TO.N,/BL654_SWDIO*%
X85227508Y-89980754D02*
X85227508Y-89444895D01*
X96774000Y-88392000D02*
X96774000Y-90199578D01*
X86381542Y-88598388D02*
X87208623Y-87771309D01*
X85227508Y-89444895D02*
X86074015Y-88598388D01*
X96774000Y-90199578D02*
X97389989Y-90815567D01*
X97389989Y-90815567D02*
X97389989Y-91143989D01*
X95707189Y-87325189D02*
X96774000Y-88392000D01*
X86074015Y-88598388D02*
X86381542Y-88598388D01*
X89023358Y-87325189D02*
X95707189Y-87325189D01*
X88577238Y-87771309D02*
X89023358Y-87325189D01*
X87208623Y-87771309D02*
X88577238Y-87771309D01*
%TO.N,/BL654_SWDCLK*%
X85801999Y-89301471D02*
X86200271Y-88903199D01*
X96462797Y-88715797D02*
X96462797Y-90484093D01*
X96833773Y-90855069D02*
X96833773Y-91137911D01*
X95377000Y-87630000D02*
X96462797Y-88715797D01*
X85388345Y-90614153D02*
X85801999Y-90200499D01*
X85801999Y-90200499D02*
X85801999Y-89301471D01*
X86507800Y-88903199D02*
X87334879Y-88076120D01*
X83831939Y-90988046D02*
X84205832Y-90614153D01*
X84205832Y-90614153D02*
X85388345Y-90614153D01*
X87334879Y-88076120D02*
X88703494Y-88076120D01*
X89149614Y-87630000D02*
X95377000Y-87630000D01*
X86200271Y-88903199D02*
X86507800Y-88903199D01*
X88703494Y-88076120D02*
X89149614Y-87630000D01*
X96462797Y-90484093D02*
X96833773Y-90855069D01*
%TO.N,/RLDOUT*%
X94685683Y-119141215D02*
X94685683Y-118858373D01*
X91732129Y-118417968D02*
X91294268Y-118855829D01*
X94685683Y-118858373D02*
X94245278Y-118417968D01*
X94245278Y-118417968D02*
X91732129Y-118417968D01*
%TO.N,/ADS_SPI_MOSI*%
X86968213Y-91590287D02*
X86968213Y-91757092D01*
X92982221Y-88771883D02*
X91394969Y-90359135D01*
X88199365Y-90359135D02*
X86968213Y-91590287D01*
X86968213Y-91757092D02*
X86768214Y-91957091D01*
X91394969Y-90359135D02*
X88199365Y-90359135D01*
%TO.N,/~{ADS_SPI_CS}*%
X88215724Y-91956921D02*
X88633755Y-91956921D01*
X89621829Y-91734049D02*
X90148805Y-91207073D01*
X87974930Y-91716127D02*
X88215724Y-91956921D01*
X87974930Y-91221627D02*
X87974930Y-91716127D01*
X88856627Y-91734049D02*
X89621829Y-91734049D01*
X88633755Y-91956921D02*
X88856627Y-91734049D01*
%TO.N,/WS2812_DATA*%
X96764488Y-97101012D02*
X71929201Y-97101012D01*
X97818599Y-91594929D02*
X98076493Y-91852823D01*
X98076493Y-91852823D02*
X98076493Y-95789007D01*
X97421700Y-88900000D02*
X97818599Y-89296899D01*
X97818599Y-89296899D02*
X97818599Y-91594929D01*
X71929201Y-97101012D02*
X70372829Y-95544640D01*
X98076493Y-95789007D02*
X96764488Y-97101012D01*
X70372829Y-95544640D02*
X70089987Y-95544640D01*
%TO.N,/MCP73831_STAT*%
X76371344Y-93664011D02*
X74996513Y-93664011D01*
X82541854Y-87271213D02*
X78652925Y-91160142D01*
X78652925Y-91160142D02*
X78652925Y-91466065D01*
X78652925Y-91466065D02*
X78188122Y-91930868D01*
X90020790Y-85725000D02*
X88279292Y-87466498D01*
X78188122Y-91930868D02*
X78104487Y-91930868D01*
X88279292Y-87466498D02*
X87857658Y-87466498D01*
X87857658Y-87466498D02*
X87662373Y-87271213D01*
X78104487Y-91930868D02*
X76371344Y-93664011D01*
X74996513Y-93664011D02*
X74692862Y-93967662D01*
X87662373Y-87271213D02*
X82541854Y-87271213D01*
%TO.N,Net-(SW1-Pad1)*%
X96179758Y-91606169D02*
X96405163Y-91380764D01*
X96179758Y-95895042D02*
X96179758Y-91606169D01*
X74917300Y-96520000D02*
X95554800Y-96520000D01*
X96405163Y-91380764D02*
X96405163Y-90969306D01*
X96021510Y-90585653D02*
X96021510Y-88952363D01*
X96405163Y-90969306D02*
X96021510Y-90585653D01*
X95554800Y-96520000D02*
X96179758Y-95895042D01*
%TO.N,/BL654_I2S_SD_EXT*%
X96012000Y-114808000D02*
X96266000Y-115062000D01*
X97790000Y-116459000D02*
X98462977Y-115786023D01*
X96266000Y-115062000D02*
X96266000Y-116205000D01*
X96520000Y-116459000D02*
X97790000Y-116459000D01*
X90316958Y-113945340D02*
X90599800Y-113945340D01*
X91462460Y-114808000D02*
X96012000Y-114808000D01*
X90316958Y-113945340D02*
X90377486Y-113945340D01*
X90599800Y-113945340D02*
X91462460Y-114808000D01*
X96266000Y-116205000D02*
X96520000Y-116459000D01*
X100168870Y-115759528D02*
X100168870Y-115763629D01*
X100168870Y-115763629D02*
X100191264Y-115786023D01*
X98462977Y-115786023D02*
X100191264Y-115786023D01*
%TO.N,/~{ADS_SPI_CS_EXT}*%
X88602820Y-113517680D02*
X88808805Y-113311695D01*
X88602820Y-114178080D02*
X88602820Y-113517680D01*
X85664871Y-114728072D02*
X86019283Y-114373660D01*
X90572302Y-113311695D02*
X90969341Y-113708734D01*
X90969341Y-113708734D02*
X91169340Y-113908733D01*
X88407240Y-114373660D02*
X88602820Y-114178080D01*
X86019283Y-114373660D02*
X88407240Y-114373660D01*
X88808805Y-113311695D02*
X90572302Y-113311695D01*
%TO.N,/ADS_SPI_MOSI_EXT*%
X90340454Y-114527991D02*
X89815009Y-114527991D01*
X88139796Y-114678471D02*
X87708044Y-115110223D01*
X89664529Y-114678471D02*
X88139796Y-114678471D01*
X87708044Y-115110223D02*
X86063769Y-115110223D01*
X89815009Y-114527991D02*
X89664529Y-114678471D01*
%TO.N,/ADS_SPI_MISO_EXT*%
X85506560Y-115547140D02*
X87702194Y-115547140D01*
X89994527Y-114983282D02*
X90008368Y-114969441D01*
X87702194Y-115547140D02*
X88266052Y-114983282D01*
X88266052Y-114983282D02*
X89994527Y-114983282D01*
%TO.N,/ADS_SPI_SCLK_EXT*%
X90297908Y-115443000D02*
X90473612Y-115267296D01*
X86796880Y-115867180D02*
X88983820Y-115867180D01*
X88983820Y-115867180D02*
X89408000Y-115443000D01*
X85640150Y-117023910D02*
X86796880Y-115867180D01*
X85172790Y-117023910D02*
X85640150Y-117023910D01*
X89408000Y-115443000D02*
X90297908Y-115443000D01*
%TO.N,Net-(C31-Pad2)*%
X73179270Y-96494600D02*
X74500729Y-95173141D01*
X72212200Y-96494600D02*
X73179270Y-96494600D01*
X86175679Y-88197825D02*
X86375678Y-87997826D01*
X78438399Y-92111658D02*
X80278457Y-90271600D01*
X75819659Y-95173141D02*
X78438399Y-92554401D01*
X78438399Y-92554401D02*
X78438399Y-92111658D01*
X80278457Y-90271600D02*
X81568912Y-90271600D01*
X81568912Y-90271600D02*
X83642687Y-88197825D01*
X74500729Y-95173141D02*
X75819659Y-95173141D01*
X83642687Y-88197825D02*
X86175679Y-88197825D01*
%TD*%
%TA.AperFunction,Conductor*%
%TO.N,GND*%
G36*
X102989421Y-90926602D02*
G01*
X103035914Y-90980258D01*
X103047300Y-91032600D01*
X103047300Y-95403833D01*
X103045800Y-95423218D01*
X103043490Y-95438051D01*
X103043490Y-95438055D01*
X103042109Y-95446924D01*
X103043948Y-95460989D01*
X103044624Y-95487204D01*
X103037028Y-95583722D01*
X103030885Y-95661774D01*
X103027792Y-95681303D01*
X102981264Y-95875103D01*
X102975154Y-95893906D01*
X102898884Y-96078040D01*
X102889907Y-96095657D01*
X102785773Y-96265587D01*
X102774152Y-96281582D01*
X102644715Y-96433134D01*
X102630734Y-96447115D01*
X102479182Y-96576552D01*
X102463187Y-96588173D01*
X102293257Y-96692307D01*
X102275640Y-96701284D01*
X102091506Y-96777554D01*
X102072703Y-96783664D01*
X101878903Y-96830192D01*
X101859374Y-96833285D01*
X101691813Y-96846472D01*
X101674925Y-96845830D01*
X101674923Y-96846000D01*
X101665947Y-96845890D01*
X101657076Y-96844509D01*
X101648174Y-96845673D01*
X101648172Y-96845673D01*
X101633123Y-96847641D01*
X101625514Y-96848636D01*
X101609179Y-96849700D01*
X98146880Y-96849700D01*
X98078759Y-96829698D01*
X98032266Y-96776042D01*
X98022162Y-96705768D01*
X98051656Y-96641188D01*
X98057785Y-96634605D01*
X98456996Y-96235394D01*
X98469388Y-96224526D01*
X98486953Y-96211048D01*
X98493506Y-96206020D01*
X98556197Y-96124319D01*
X98587227Y-96083880D01*
X98628447Y-95984366D01*
X98646143Y-95941644D01*
X98647234Y-95933361D01*
X98661193Y-95827328D01*
X98661193Y-95827326D01*
X98665160Y-95797195D01*
X98666238Y-95789007D01*
X98662271Y-95758874D01*
X98661193Y-95742428D01*
X98661193Y-91899401D01*
X98662271Y-91882954D01*
X98665160Y-91861011D01*
X98666238Y-91852823D01*
X98660923Y-91812452D01*
X98651695Y-91742360D01*
X98647221Y-91708374D01*
X98646143Y-91700186D01*
X98607809Y-91607640D01*
X98587227Y-91557950D01*
X98572678Y-91538989D01*
X98546159Y-91504430D01*
X98546158Y-91504429D01*
X98538054Y-91493867D01*
X98493506Y-91435810D01*
X98486956Y-91430784D01*
X98486952Y-91430780D01*
X98469384Y-91417300D01*
X98456992Y-91406432D01*
X98440204Y-91389644D01*
X98406178Y-91327332D01*
X98403299Y-91300549D01*
X98403299Y-91032600D01*
X98423301Y-90964479D01*
X98476957Y-90917986D01*
X98529299Y-90906600D01*
X102921300Y-90906600D01*
X102989421Y-90926602D01*
G37*
%TD.AperFunction*%
%TA.AperFunction,Conductor*%
G36*
X98036921Y-81122702D02*
G01*
X98083414Y-81176358D01*
X98094800Y-81228700D01*
X98094800Y-88269726D01*
X98074798Y-88337847D01*
X98021142Y-88384340D01*
X97950868Y-88394444D01*
X97884981Y-88363802D01*
X97879179Y-88358632D01*
X97829021Y-88313943D01*
X97677469Y-88233700D01*
X97670104Y-88231850D01*
X97518522Y-88193775D01*
X97518518Y-88193775D01*
X97511151Y-88191924D01*
X97503552Y-88191884D01*
X97503550Y-88191884D01*
X97407306Y-88191380D01*
X97339291Y-88171022D01*
X97291557Y-88113601D01*
X97289241Y-88108008D01*
X97284734Y-88097128D01*
X97214543Y-88005652D01*
X97214542Y-88005651D01*
X97191013Y-87974987D01*
X97166893Y-87956479D01*
X97154503Y-87945612D01*
X96153576Y-86944686D01*
X96142708Y-86932294D01*
X96129228Y-86914726D01*
X96124202Y-86908176D01*
X96046575Y-86848612D01*
X96002062Y-86814455D01*
X95949504Y-86792685D01*
X95859826Y-86755539D01*
X95851638Y-86754461D01*
X95745513Y-86740489D01*
X95745508Y-86740489D01*
X95707189Y-86735444D01*
X95699001Y-86736522D01*
X95677056Y-86739411D01*
X95660610Y-86740489D01*
X91232420Y-86740489D01*
X91164299Y-86720487D01*
X91117806Y-86666831D01*
X91114554Y-86659027D01*
X91082057Y-86573026D01*
X91079373Y-86565923D01*
X90982243Y-86424598D01*
X90909041Y-86359377D01*
X90859879Y-86315575D01*
X90859876Y-86315573D01*
X90854207Y-86310522D01*
X90836677Y-86301240D01*
X90702655Y-86230279D01*
X90704249Y-86227269D01*
X90659944Y-86193510D01*
X90635701Y-86126781D01*
X90648454Y-86069731D01*
X90646214Y-86068830D01*
X90670295Y-86008926D01*
X90710175Y-85909720D01*
X90725102Y-85804834D01*
X90754503Y-85740212D01*
X90781546Y-85719130D01*
X90780446Y-85717474D01*
X90786767Y-85713274D01*
X90793558Y-85709859D01*
X90923955Y-85598489D01*
X91024024Y-85459230D01*
X91087985Y-85300120D01*
X91099489Y-85219286D01*
X91111566Y-85134431D01*
X91111566Y-85134427D01*
X91112147Y-85130347D01*
X91112304Y-85115400D01*
X91102597Y-85035189D01*
X91092615Y-84952699D01*
X91092614Y-84952696D01*
X91091702Y-84945158D01*
X91088023Y-84935420D01*
X91033771Y-84791847D01*
X91031087Y-84784744D01*
X90977162Y-84706282D01*
X90938259Y-84649678D01*
X90938258Y-84649676D01*
X90933957Y-84643419D01*
X90928291Y-84638371D01*
X90928285Y-84638364D01*
X90896344Y-84609907D01*
X90858788Y-84549658D01*
X90859767Y-84478668D01*
X90877840Y-84442303D01*
X90878399Y-84441526D01*
X90923803Y-84378340D01*
X90987764Y-84219230D01*
X90999011Y-84140203D01*
X91011345Y-84053541D01*
X91011345Y-84053537D01*
X91011926Y-84049457D01*
X91012083Y-84034510D01*
X91002975Y-83959248D01*
X90992394Y-83871809D01*
X90992393Y-83871806D01*
X90991481Y-83864268D01*
X90974169Y-83818451D01*
X90933550Y-83710957D01*
X90930866Y-83703854D01*
X90861521Y-83602956D01*
X90838038Y-83568788D01*
X90838037Y-83568786D01*
X90833736Y-83562529D01*
X90828065Y-83557476D01*
X90711372Y-83453506D01*
X90711369Y-83453504D01*
X90705700Y-83448453D01*
X90697704Y-83444219D01*
X90614058Y-83399931D01*
X90554148Y-83368210D01*
X90523565Y-83360528D01*
X90395201Y-83328285D01*
X90395197Y-83328285D01*
X90387830Y-83326434D01*
X90380231Y-83326394D01*
X90380229Y-83326394D01*
X90308773Y-83326020D01*
X90216348Y-83325536D01*
X90208968Y-83327308D01*
X90208966Y-83327308D01*
X90056981Y-83363796D01*
X90056977Y-83363797D01*
X90049602Y-83365568D01*
X89897218Y-83444219D01*
X89767994Y-83556949D01*
X89669389Y-83697249D01*
X89607097Y-83857019D01*
X89606105Y-83864552D01*
X89606105Y-83864553D01*
X89585780Y-84018940D01*
X89584714Y-84027036D01*
X89592288Y-84095642D01*
X89602168Y-84185128D01*
X89603532Y-84197485D01*
X89606141Y-84204616D01*
X89606142Y-84204618D01*
X89622228Y-84248574D01*
X89662464Y-84358525D01*
X89666701Y-84364831D01*
X89666703Y-84364834D01*
X89694565Y-84406296D01*
X89758109Y-84500859D01*
X89763728Y-84505972D01*
X89763729Y-84505973D01*
X89801824Y-84540637D01*
X89838747Y-84601277D01*
X89837024Y-84672253D01*
X89820112Y-84706282D01*
X89769610Y-84778139D01*
X89743204Y-84845867D01*
X89711400Y-84927440D01*
X89707318Y-84937909D01*
X89706326Y-84945442D01*
X89706326Y-84945443D01*
X89694511Y-85035189D01*
X89665789Y-85100116D01*
X89632461Y-85126661D01*
X89632661Y-85126955D01*
X89628779Y-85129593D01*
X89627378Y-85130709D01*
X89626376Y-85131226D01*
X89626372Y-85131228D01*
X89619629Y-85134709D01*
X89490405Y-85247439D01*
X89391800Y-85387739D01*
X89363927Y-85459230D01*
X89334691Y-85534216D01*
X89329508Y-85547509D01*
X89328516Y-85555042D01*
X89326628Y-85562397D01*
X89324926Y-85561960D01*
X89300022Y-85618260D01*
X89292914Y-85625986D01*
X88835788Y-86083112D01*
X88773476Y-86117138D01*
X88702661Y-86112073D01*
X88642854Y-86065385D01*
X88612188Y-86020767D01*
X88607885Y-86014506D01*
X88602214Y-86009453D01*
X88485521Y-85905483D01*
X88485518Y-85905481D01*
X88479849Y-85900430D01*
X88471853Y-85896196D01*
X88335009Y-85823741D01*
X88335010Y-85823741D01*
X88328297Y-85820187D01*
X88310724Y-85815773D01*
X88169350Y-85780262D01*
X88169346Y-85780262D01*
X88161979Y-85778411D01*
X88154380Y-85778371D01*
X88154378Y-85778371D01*
X88082922Y-85777997D01*
X87990497Y-85777513D01*
X87983117Y-85779285D01*
X87983115Y-85779285D01*
X87831130Y-85815773D01*
X87831126Y-85815774D01*
X87823751Y-85817545D01*
X87671367Y-85896196D01*
X87542143Y-86008926D01*
X87443538Y-86149226D01*
X87440779Y-86156302D01*
X87440777Y-86156306D01*
X87384179Y-86301472D01*
X87340798Y-86357674D01*
X87266786Y-86381702D01*
X86296717Y-86381702D01*
X86228596Y-86361700D01*
X86182103Y-86308044D01*
X86171999Y-86237770D01*
X86201493Y-86173190D01*
X86240103Y-86143137D01*
X86272624Y-86126781D01*
X86353823Y-86085942D01*
X86359594Y-86081013D01*
X86359597Y-86081011D01*
X86478443Y-85979506D01*
X86484220Y-85974572D01*
X86584289Y-85835313D01*
X86648250Y-85676203D01*
X86656198Y-85620356D01*
X86671831Y-85510514D01*
X86671831Y-85510510D01*
X86672412Y-85506430D01*
X86672569Y-85491483D01*
X86660157Y-85388919D01*
X86652880Y-85328784D01*
X86652880Y-85328783D01*
X86651967Y-85321241D01*
X86640192Y-85290079D01*
X86634824Y-85219286D01*
X86648939Y-85182542D01*
X86660014Y-85163361D01*
X86690377Y-85110770D01*
X86749392Y-84929142D01*
X86752403Y-84900499D01*
X86768664Y-84745779D01*
X86769354Y-84739214D01*
X86749392Y-84549286D01*
X86750874Y-84549130D01*
X86755689Y-84486027D01*
X86798506Y-84429395D01*
X86865144Y-84404901D01*
X86873534Y-84404621D01*
X87316720Y-84404621D01*
X87376842Y-84419890D01*
X87494008Y-84483506D01*
X87659879Y-84527022D01*
X87731441Y-84528146D01*
X87787644Y-84529029D01*
X87855442Y-84550098D01*
X87859790Y-84553491D01*
X87859855Y-84553399D01*
X87866045Y-84557798D01*
X87871665Y-84562912D01*
X88022368Y-84644737D01*
X88188239Y-84688253D01*
X88275686Y-84689626D01*
X88352103Y-84690827D01*
X88352106Y-84690827D01*
X88359702Y-84690946D01*
X88367106Y-84689250D01*
X88367108Y-84689250D01*
X88441320Y-84672253D01*
X88526859Y-84652662D01*
X88680058Y-84575611D01*
X88685829Y-84570682D01*
X88685832Y-84570680D01*
X88804678Y-84469175D01*
X88810455Y-84464241D01*
X88910524Y-84324982D01*
X88974485Y-84165872D01*
X88981528Y-84116385D01*
X88998066Y-84000183D01*
X88998066Y-84000179D01*
X88998647Y-83996099D01*
X88998804Y-83981152D01*
X88984659Y-83864268D01*
X88979115Y-83818451D01*
X88979114Y-83818448D01*
X88978202Y-83810910D01*
X88967354Y-83782200D01*
X88920271Y-83657599D01*
X88917587Y-83650496D01*
X88884914Y-83602956D01*
X88824759Y-83515430D01*
X88824758Y-83515428D01*
X88820457Y-83509171D01*
X88814786Y-83504118D01*
X88698093Y-83400148D01*
X88698090Y-83400146D01*
X88692421Y-83395095D01*
X88661134Y-83378529D01*
X88561047Y-83325536D01*
X88540869Y-83314852D01*
X88518316Y-83309187D01*
X88381922Y-83274927D01*
X88381918Y-83274927D01*
X88374551Y-83273076D01*
X88366952Y-83273036D01*
X88366950Y-83273036D01*
X88254698Y-83272448D01*
X88186683Y-83252090D01*
X88171544Y-83240531D01*
X88169732Y-83238917D01*
X88164061Y-83233864D01*
X88156065Y-83229630D01*
X88080193Y-83189458D01*
X88012509Y-83153621D01*
X87993953Y-83148960D01*
X87853562Y-83113696D01*
X87853558Y-83113696D01*
X87846191Y-83111845D01*
X87838592Y-83111805D01*
X87838590Y-83111805D01*
X87767134Y-83111431D01*
X87674709Y-83110947D01*
X87667329Y-83112719D01*
X87667327Y-83112719D01*
X87515342Y-83149207D01*
X87515338Y-83149208D01*
X87507963Y-83150979D01*
X87422873Y-83194897D01*
X87371937Y-83221187D01*
X87314147Y-83235221D01*
X86840914Y-83235221D01*
X86772793Y-83215219D01*
X86726300Y-83161563D01*
X86723048Y-83153758D01*
X86683402Y-83048837D01*
X86683401Y-83048835D01*
X86680717Y-83041732D01*
X86644154Y-82988533D01*
X86587889Y-82906666D01*
X86587888Y-82906664D01*
X86583587Y-82900407D01*
X86577916Y-82895354D01*
X86461223Y-82791384D01*
X86461220Y-82791382D01*
X86458878Y-82789295D01*
X91686066Y-82789295D01*
X91693939Y-82860604D01*
X91703665Y-82948700D01*
X91704884Y-82959744D01*
X91707493Y-82966875D01*
X91707494Y-82966877D01*
X91713671Y-82983756D01*
X91763816Y-83120784D01*
X91768053Y-83127090D01*
X91768055Y-83127093D01*
X91793044Y-83164280D01*
X91859461Y-83263118D01*
X91865077Y-83268228D01*
X91975878Y-83369049D01*
X91986296Y-83378529D01*
X92136999Y-83460354D01*
X92223350Y-83483008D01*
X92246815Y-83489164D01*
X92307630Y-83525798D01*
X92338985Y-83589495D01*
X92332234Y-83656810D01*
X92300327Y-83738648D01*
X92290939Y-83762726D01*
X92289947Y-83770259D01*
X92289947Y-83770260D01*
X92269969Y-83922012D01*
X92268556Y-83932743D01*
X92274357Y-83985285D01*
X92282305Y-84057274D01*
X92287374Y-84103192D01*
X92289983Y-84110323D01*
X92289984Y-84110325D01*
X92312889Y-84172916D01*
X92346306Y-84264232D01*
X92350543Y-84270538D01*
X92350545Y-84270541D01*
X92391273Y-84331150D01*
X92441951Y-84406566D01*
X92498554Y-84458071D01*
X92545578Y-84500859D01*
X92568786Y-84521977D01*
X92719489Y-84603802D01*
X92885360Y-84647318D01*
X92972807Y-84648691D01*
X93049224Y-84649892D01*
X93049227Y-84649892D01*
X93056823Y-84650011D01*
X93064227Y-84648315D01*
X93064229Y-84648315D01*
X93127067Y-84633923D01*
X93223980Y-84611727D01*
X93377179Y-84534676D01*
X93382950Y-84529747D01*
X93382953Y-84529745D01*
X93501799Y-84428240D01*
X93507576Y-84423306D01*
X93607645Y-84284047D01*
X93671606Y-84124937D01*
X93673686Y-84110325D01*
X93695187Y-83959248D01*
X93695187Y-83959244D01*
X93695768Y-83955164D01*
X93695925Y-83940217D01*
X93687647Y-83871809D01*
X93676236Y-83777516D01*
X93676235Y-83777513D01*
X93675323Y-83769975D01*
X93668326Y-83751456D01*
X93617392Y-83616664D01*
X93614708Y-83609561D01*
X93600917Y-83589495D01*
X93521880Y-83474495D01*
X93521879Y-83474493D01*
X93517578Y-83468236D01*
X93510893Y-83462280D01*
X93395214Y-83359213D01*
X93395211Y-83359211D01*
X93389542Y-83354160D01*
X93237990Y-83273917D01*
X93136081Y-83248319D01*
X93074886Y-83212326D01*
X93042865Y-83148960D01*
X93049869Y-83079120D01*
X93058307Y-83058129D01*
X93089116Y-82981489D01*
X93093881Y-82948010D01*
X93112697Y-82815800D01*
X93112697Y-82815796D01*
X93113278Y-82811716D01*
X93113435Y-82796769D01*
X93102237Y-82704238D01*
X93093746Y-82634068D01*
X93093745Y-82634065D01*
X93092833Y-82626527D01*
X93064038Y-82550321D01*
X93034902Y-82473216D01*
X93032218Y-82466113D01*
X93001257Y-82421064D01*
X92939390Y-82331047D01*
X92939389Y-82331045D01*
X92935088Y-82324788D01*
X92929417Y-82319735D01*
X92812724Y-82215765D01*
X92812721Y-82215763D01*
X92807052Y-82210712D01*
X92799056Y-82206478D01*
X92662212Y-82134023D01*
X92662213Y-82134023D01*
X92655500Y-82130469D01*
X92637927Y-82126055D01*
X92496553Y-82090544D01*
X92496549Y-82090544D01*
X92489182Y-82088693D01*
X92481583Y-82088653D01*
X92481581Y-82088653D01*
X92410125Y-82088279D01*
X92317700Y-82087795D01*
X92310320Y-82089567D01*
X92310318Y-82089567D01*
X92158333Y-82126055D01*
X92158329Y-82126056D01*
X92150954Y-82127827D01*
X91998570Y-82206478D01*
X91869346Y-82319208D01*
X91770741Y-82459508D01*
X91708449Y-82619278D01*
X91707457Y-82626811D01*
X91707457Y-82626812D01*
X91687472Y-82778616D01*
X91686066Y-82789295D01*
X86458878Y-82789295D01*
X86455551Y-82786331D01*
X86447555Y-82782097D01*
X86388177Y-82750658D01*
X86303999Y-82706088D01*
X86286426Y-82701674D01*
X86145052Y-82666163D01*
X86145048Y-82666163D01*
X86137681Y-82664312D01*
X86130082Y-82664272D01*
X86130080Y-82664272D01*
X86058624Y-82663898D01*
X85966199Y-82663414D01*
X85958819Y-82665186D01*
X85958817Y-82665186D01*
X85806832Y-82701674D01*
X85806828Y-82701675D01*
X85799453Y-82703446D01*
X85647069Y-82782097D01*
X85517845Y-82894827D01*
X85419240Y-83035127D01*
X85372714Y-83154460D01*
X85372507Y-83154991D01*
X85329126Y-83211192D01*
X85255114Y-83235221D01*
X81178177Y-83235221D01*
X81161730Y-83234143D01*
X81139779Y-83231253D01*
X81131591Y-83230175D01*
X80978954Y-83250271D01*
X80971322Y-83253432D01*
X80971323Y-83253432D01*
X80844346Y-83306027D01*
X80844344Y-83306028D01*
X80836718Y-83309187D01*
X80830170Y-83314211D01*
X80830164Y-83314215D01*
X80815412Y-83325535D01*
X80721128Y-83397881D01*
X80721123Y-83397886D01*
X80714578Y-83402908D01*
X80709555Y-83409454D01*
X80709552Y-83409457D01*
X80696068Y-83427030D01*
X80685200Y-83439422D01*
X79307716Y-84816906D01*
X79245404Y-84850932D01*
X79174589Y-84845867D01*
X79117753Y-84803320D01*
X79109502Y-84790811D01*
X79098597Y-84771923D01*
X79039497Y-84669559D01*
X79025809Y-84654357D01*
X78916129Y-84532544D01*
X78916125Y-84532541D01*
X78911710Y-84527637D01*
X78906368Y-84523756D01*
X78902040Y-84519859D01*
X78864800Y-84459413D01*
X78866152Y-84388430D01*
X78892714Y-84341913D01*
X78953921Y-84273936D01*
X78953922Y-84273935D01*
X78958340Y-84269028D01*
X79046469Y-84116385D01*
X79050523Y-84109363D01*
X79050524Y-84109362D01*
X79053827Y-84103640D01*
X79112842Y-83922012D01*
X79116724Y-83885083D01*
X79132114Y-83738649D01*
X79132114Y-83738648D01*
X79132804Y-83732084D01*
X79131177Y-83716602D01*
X79113532Y-83548719D01*
X79113532Y-83548717D01*
X79112842Y-83542156D01*
X79053827Y-83360528D01*
X79050151Y-83354160D01*
X78990170Y-83250271D01*
X78958340Y-83195140D01*
X78944442Y-83179704D01*
X78834975Y-83058129D01*
X78834974Y-83058128D01*
X78830553Y-83053218D01*
X78691506Y-82952194D01*
X78681394Y-82944847D01*
X78681393Y-82944846D01*
X78676052Y-82940966D01*
X78670024Y-82938282D01*
X78670022Y-82938281D01*
X78507619Y-82865975D01*
X78507618Y-82865975D01*
X78501588Y-82863290D01*
X78408188Y-82843437D01*
X78321244Y-82824956D01*
X78321239Y-82824956D01*
X78314787Y-82823584D01*
X78123813Y-82823584D01*
X78117361Y-82824956D01*
X78117356Y-82824956D01*
X78030412Y-82843437D01*
X77937012Y-82863290D01*
X77930982Y-82865975D01*
X77930981Y-82865975D01*
X77768578Y-82938281D01*
X77768576Y-82938282D01*
X77762548Y-82940966D01*
X77757207Y-82944846D01*
X77757206Y-82944847D01*
X77747094Y-82952194D01*
X77608047Y-83053218D01*
X77603626Y-83058128D01*
X77603625Y-83058129D01*
X77494159Y-83179704D01*
X77480260Y-83195140D01*
X77448430Y-83250271D01*
X77388450Y-83354160D01*
X77384773Y-83360528D01*
X77325758Y-83542156D01*
X77325068Y-83548717D01*
X77325068Y-83548719D01*
X77307423Y-83716602D01*
X77305796Y-83732084D01*
X77318943Y-83857164D01*
X77321877Y-83885083D01*
X77309105Y-83954922D01*
X77260603Y-84006768D01*
X77222764Y-84021501D01*
X77192060Y-84028027D01*
X77048012Y-84058646D01*
X77041982Y-84061331D01*
X77041981Y-84061331D01*
X76879578Y-84133637D01*
X76879576Y-84133638D01*
X76873548Y-84136322D01*
X76719047Y-84248574D01*
X76714626Y-84253484D01*
X76714625Y-84253485D01*
X76596652Y-84384508D01*
X76591260Y-84390496D01*
X76551471Y-84459413D01*
X76499114Y-84550098D01*
X76495773Y-84555884D01*
X76436758Y-84737512D01*
X76436068Y-84744073D01*
X76436068Y-84744075D01*
X76424837Y-84850932D01*
X76416796Y-84927440D01*
X76417486Y-84934005D01*
X76436065Y-85110770D01*
X76436758Y-85117368D01*
X76437628Y-85120046D01*
X76432334Y-85189437D01*
X76389518Y-85246070D01*
X76322881Y-85270564D01*
X76255530Y-85256198D01*
X76165881Y-85208731D01*
X76165878Y-85208730D01*
X76159168Y-85205177D01*
X76141595Y-85200763D01*
X76000221Y-85165252D01*
X76000217Y-85165252D01*
X75992850Y-85163401D01*
X75985251Y-85163361D01*
X75985249Y-85163361D01*
X75913793Y-85162987D01*
X75821368Y-85162503D01*
X75813988Y-85164275D01*
X75813986Y-85164275D01*
X75662001Y-85200763D01*
X75661997Y-85200764D01*
X75654622Y-85202535D01*
X75502238Y-85281186D01*
X75373014Y-85393916D01*
X75274409Y-85534216D01*
X75247426Y-85603423D01*
X75222179Y-85668179D01*
X75212117Y-85693986D01*
X75211125Y-85701519D01*
X75211125Y-85701520D01*
X75194439Y-85828268D01*
X75189734Y-85864003D01*
X75195559Y-85916764D01*
X75205183Y-86003934D01*
X75208552Y-86034452D01*
X75242813Y-86128074D01*
X75247440Y-86198918D01*
X75241880Y-86217144D01*
X75206332Y-86308319D01*
X75205340Y-86315852D01*
X75205340Y-86315853D01*
X75190200Y-86430857D01*
X75183949Y-86478336D01*
X75192928Y-86559665D01*
X75196141Y-86588765D01*
X75202767Y-86648785D01*
X75261699Y-86809825D01*
X75265936Y-86816131D01*
X75265938Y-86816134D01*
X75287762Y-86848611D01*
X75357344Y-86952159D01*
X75484179Y-87067570D01*
X75490854Y-87071194D01*
X75497044Y-87075593D01*
X75495142Y-87078270D01*
X75534966Y-87117943D01*
X75550189Y-87187288D01*
X75525504Y-87253855D01*
X75518130Y-87262847D01*
X75467845Y-87318694D01*
X75372358Y-87484082D01*
X75313343Y-87665710D01*
X75312653Y-87672271D01*
X75312653Y-87672273D01*
X75294071Y-87849073D01*
X75293381Y-87855638D01*
X75294071Y-87862203D01*
X75309490Y-88008902D01*
X75313343Y-88045566D01*
X75372358Y-88227194D01*
X75375661Y-88232916D01*
X75375662Y-88232917D01*
X75451229Y-88363802D01*
X75467845Y-88392582D01*
X75512073Y-88441702D01*
X75513012Y-88442745D01*
X75543729Y-88506753D01*
X75534965Y-88577207D01*
X75508471Y-88616151D01*
X75103673Y-89020949D01*
X75091282Y-89031816D01*
X75067163Y-89050323D01*
X75062137Y-89056874D01*
X75060052Y-89058958D01*
X74997739Y-89092981D01*
X74926923Y-89087915D01*
X74886646Y-89063494D01*
X74875356Y-89053328D01*
X74804541Y-89012443D01*
X74717966Y-88962459D01*
X74717965Y-88962458D01*
X74712243Y-88959155D01*
X74705961Y-88957114D01*
X74705959Y-88957113D01*
X74674892Y-88947019D01*
X74602376Y-88923457D01*
X74543772Y-88883385D01*
X74517741Y-88820958D01*
X74517149Y-88821084D01*
X74516479Y-88817932D01*
X74516002Y-88816788D01*
X74515774Y-88814613D01*
X74513045Y-88801778D01*
X74463014Y-88647798D01*
X74457676Y-88635809D01*
X74446135Y-88615819D01*
X74435931Y-88606089D01*
X74427910Y-88609300D01*
X74146950Y-88890260D01*
X74096791Y-88920998D01*
X74026633Y-88943794D01*
X73979357Y-88959155D01*
X73973636Y-88962458D01*
X73969119Y-88964469D01*
X73898752Y-88973902D01*
X73834455Y-88943794D01*
X73796643Y-88883705D01*
X73798039Y-88810424D01*
X73800849Y-88801778D01*
X73807104Y-88782525D01*
X73813536Y-88762732D01*
X73813537Y-88762728D01*
X73815577Y-88756449D01*
X73816908Y-88743791D01*
X73833201Y-88588765D01*
X73833891Y-88582200D01*
X73830919Y-88553921D01*
X73843692Y-88484082D01*
X73867134Y-88451656D01*
X74065364Y-88253426D01*
X74072979Y-88239481D01*
X74071100Y-88213213D01*
X74086192Y-88143839D01*
X74122718Y-88102289D01*
X74251253Y-88008902D01*
X74256592Y-88005023D01*
X74261255Y-87999845D01*
X74369411Y-87879726D01*
X74369412Y-87879725D01*
X74373830Y-87874818D01*
X74377130Y-87869102D01*
X74377133Y-87869098D01*
X74458131Y-87728803D01*
X74461434Y-87723082D01*
X74470548Y-87695034D01*
X74477943Y-87672273D01*
X74515577Y-87556449D01*
X74522523Y-87490367D01*
X74533201Y-87388765D01*
X74533891Y-87382200D01*
X74527678Y-87323082D01*
X74516268Y-87214521D01*
X74516267Y-87214517D01*
X74515577Y-87207951D01*
X74461434Y-87041318D01*
X74458135Y-87035603D01*
X74457175Y-87033448D01*
X74447741Y-86963081D01*
X74457175Y-86930952D01*
X74458135Y-86928797D01*
X74461434Y-86923082D01*
X74464150Y-86914726D01*
X74498843Y-86807951D01*
X74515577Y-86756449D01*
X74517255Y-86740489D01*
X74533201Y-86588765D01*
X74533891Y-86582200D01*
X74522183Y-86470805D01*
X74516268Y-86414521D01*
X74516267Y-86414517D01*
X74515577Y-86407951D01*
X74481319Y-86302517D01*
X74463474Y-86247595D01*
X74463472Y-86247591D01*
X74461434Y-86241318D01*
X74458135Y-86235603D01*
X74457175Y-86233448D01*
X74447741Y-86163081D01*
X74457175Y-86130952D01*
X74458135Y-86128797D01*
X74461434Y-86123082D01*
X74465012Y-86112073D01*
X74492685Y-86026902D01*
X74515577Y-85956449D01*
X74520489Y-85909720D01*
X74533201Y-85788765D01*
X74533891Y-85782200D01*
X74527088Y-85717474D01*
X74516268Y-85614521D01*
X74516267Y-85614517D01*
X74515577Y-85607951D01*
X74483917Y-85510514D01*
X74463474Y-85447595D01*
X74463472Y-85447591D01*
X74461434Y-85441318D01*
X74458135Y-85435603D01*
X74457175Y-85433448D01*
X74447741Y-85363081D01*
X74457175Y-85330952D01*
X74458135Y-85328797D01*
X74461434Y-85323082D01*
X74466607Y-85307164D01*
X74498843Y-85207951D01*
X74515577Y-85156449D01*
X74517892Y-85134431D01*
X74533201Y-84988765D01*
X74533891Y-84982200D01*
X74528492Y-84930829D01*
X74516268Y-84814521D01*
X74516267Y-84814517D01*
X74515577Y-84807951D01*
X74469586Y-84666406D01*
X74463475Y-84647599D01*
X74463474Y-84647598D01*
X74461434Y-84641318D01*
X74427303Y-84582200D01*
X74377133Y-84495302D01*
X74377130Y-84495298D01*
X74373830Y-84489582D01*
X74363653Y-84478279D01*
X74261007Y-84364280D01*
X74261005Y-84364279D01*
X74256592Y-84359377D01*
X74120010Y-84260144D01*
X74076656Y-84203922D01*
X74070581Y-84133185D01*
X74072916Y-84123943D01*
X74070775Y-84116385D01*
X73867134Y-83912744D01*
X73833108Y-83850432D01*
X73830919Y-83810479D01*
X73833201Y-83788765D01*
X73833891Y-83782200D01*
X73832606Y-83769975D01*
X73816268Y-83614521D01*
X73816267Y-83614517D01*
X73815577Y-83607951D01*
X73809581Y-83589495D01*
X73801024Y-83563163D01*
X73798039Y-83553975D01*
X73796011Y-83483008D01*
X73832673Y-83422210D01*
X73896385Y-83390885D01*
X73969119Y-83399931D01*
X73973634Y-83401941D01*
X73979357Y-83405245D01*
X73985643Y-83407287D01*
X73985642Y-83407287D01*
X74096791Y-83443402D01*
X74146950Y-83474140D01*
X74424266Y-83751456D01*
X74436646Y-83758216D01*
X74443561Y-83753040D01*
X74457676Y-83728591D01*
X74463014Y-83716602D01*
X74513045Y-83562622D01*
X74515774Y-83549787D01*
X74516002Y-83547612D01*
X74516486Y-83546436D01*
X74517149Y-83543316D01*
X74517719Y-83543437D01*
X74543012Y-83481953D01*
X74602376Y-83440943D01*
X74699280Y-83409457D01*
X74705959Y-83407287D01*
X74705961Y-83407286D01*
X74712243Y-83405245D01*
X74721072Y-83400148D01*
X74869635Y-83314375D01*
X74875356Y-83311072D01*
X74880959Y-83306027D01*
X75010422Y-83189458D01*
X75010423Y-83189456D01*
X75015325Y-83185043D01*
X75069130Y-83110987D01*
X75122152Y-83038010D01*
X75122153Y-83038008D01*
X75126033Y-83032668D01*
X75148820Y-82981489D01*
X75199953Y-82866640D01*
X75199954Y-82866637D01*
X75202640Y-82860604D01*
X75233198Y-82716842D01*
X75240428Y-82682830D01*
X75240428Y-82682825D01*
X75241800Y-82676373D01*
X75241800Y-82488027D01*
X75240253Y-82480746D01*
X75222220Y-82395911D01*
X75202640Y-82303796D01*
X75192752Y-82281587D01*
X75128718Y-82137763D01*
X75128717Y-82137761D01*
X75126033Y-82131733D01*
X75094734Y-82088653D01*
X75019204Y-81984696D01*
X75015325Y-81979357D01*
X74888544Y-81865202D01*
X74880264Y-81857747D01*
X74880263Y-81857746D01*
X74875356Y-81853328D01*
X74845689Y-81836200D01*
X74717966Y-81762459D01*
X74717965Y-81762458D01*
X74712243Y-81759155D01*
X74637913Y-81735004D01*
X74539394Y-81702993D01*
X74539393Y-81702993D01*
X74533115Y-81700953D01*
X74526552Y-81700263D01*
X74526551Y-81700263D01*
X74504300Y-81697924D01*
X74392752Y-81686200D01*
X74298848Y-81686200D01*
X74187300Y-81697924D01*
X74165049Y-81700263D01*
X74165048Y-81700263D01*
X74158485Y-81700953D01*
X74152207Y-81702993D01*
X74152206Y-81702993D01*
X74053687Y-81735004D01*
X73979357Y-81759155D01*
X73973635Y-81762458D01*
X73973634Y-81762459D01*
X73875150Y-81819319D01*
X73812150Y-81836200D01*
X73217915Y-81836200D01*
X73202676Y-81840675D01*
X73201471Y-81842065D01*
X73199800Y-81849748D01*
X73199800Y-82648721D01*
X73179798Y-82716842D01*
X73147860Y-82750658D01*
X73140681Y-82755874D01*
X73130929Y-82764654D01*
X73022598Y-82884968D01*
X73014029Y-82896762D01*
X72957806Y-82940115D01*
X72921257Y-82946979D01*
X72921365Y-82948010D01*
X72914798Y-82948700D01*
X72908196Y-82948700D01*
X72901743Y-82950072D01*
X72901739Y-82950072D01*
X72822680Y-82966877D01*
X72736816Y-82985128D01*
X72730787Y-82987813D01*
X72730785Y-82987813D01*
X72582785Y-83053707D01*
X72582783Y-83053708D01*
X72576755Y-83056392D01*
X72571414Y-83060272D01*
X72571413Y-83060273D01*
X72501666Y-83110947D01*
X72435008Y-83159377D01*
X72430595Y-83164279D01*
X72430593Y-83164280D01*
X72328675Y-83277471D01*
X72317770Y-83289582D01*
X72314470Y-83295298D01*
X72314467Y-83295302D01*
X72249814Y-83407287D01*
X72230166Y-83441318D01*
X72228126Y-83447598D01*
X72228125Y-83447599D01*
X72222976Y-83463447D01*
X72176023Y-83607951D01*
X72175333Y-83614517D01*
X72175332Y-83614521D01*
X72158994Y-83769975D01*
X72157709Y-83782200D01*
X72158399Y-83788765D01*
X72172404Y-83922012D01*
X72176023Y-83956449D01*
X72197160Y-84021501D01*
X72223849Y-84103640D01*
X72230166Y-84123082D01*
X72233465Y-84128797D01*
X72234425Y-84130952D01*
X72243859Y-84201319D01*
X72234425Y-84233448D01*
X72233465Y-84235603D01*
X72230166Y-84241318D01*
X72228128Y-84247591D01*
X72228126Y-84247595D01*
X72218571Y-84277002D01*
X72176023Y-84407951D01*
X72175333Y-84414517D01*
X72175332Y-84414521D01*
X72163711Y-84525094D01*
X72157709Y-84582200D01*
X72158399Y-84588765D01*
X72174902Y-84745779D01*
X72176023Y-84756449D01*
X72198826Y-84826629D01*
X72223857Y-84903664D01*
X72230166Y-84923082D01*
X72233465Y-84928797D01*
X72234425Y-84930952D01*
X72243859Y-85001319D01*
X72234425Y-85033448D01*
X72233465Y-85035603D01*
X72230166Y-85041318D01*
X72228128Y-85047591D01*
X72228126Y-85047595D01*
X72207599Y-85110770D01*
X72176023Y-85207951D01*
X72175333Y-85214517D01*
X72175332Y-85214521D01*
X72164863Y-85314133D01*
X72157709Y-85382200D01*
X72158399Y-85388765D01*
X72173618Y-85533564D01*
X72176023Y-85556449D01*
X72194892Y-85614521D01*
X72225870Y-85709859D01*
X72230166Y-85723082D01*
X72233469Y-85728803D01*
X72314467Y-85869098D01*
X72314470Y-85869102D01*
X72317770Y-85874818D01*
X72322188Y-85879725D01*
X72322189Y-85879726D01*
X72407590Y-85974572D01*
X72435008Y-86005023D01*
X72531732Y-86075297D01*
X72538568Y-86080264D01*
X72581922Y-86136486D01*
X72587997Y-86207223D01*
X72554865Y-86270014D01*
X72538568Y-86284136D01*
X72440844Y-86355137D01*
X72435008Y-86359377D01*
X72430595Y-86364279D01*
X72430593Y-86364280D01*
X72335565Y-86469819D01*
X72317770Y-86489582D01*
X72314470Y-86495298D01*
X72314467Y-86495302D01*
X72264297Y-86582200D01*
X72230166Y-86641318D01*
X72176023Y-86807951D01*
X72175333Y-86814517D01*
X72175332Y-86814521D01*
X72171749Y-86848612D01*
X72157709Y-86982200D01*
X72158399Y-86988765D01*
X72166682Y-87067570D01*
X72176023Y-87156449D01*
X72190716Y-87201668D01*
X72227146Y-87313786D01*
X72230166Y-87323082D01*
X72233465Y-87328797D01*
X72234425Y-87330952D01*
X72243859Y-87401319D01*
X72234425Y-87433448D01*
X72233465Y-87435603D01*
X72230166Y-87441318D01*
X72228128Y-87447591D01*
X72228126Y-87447595D01*
X72216271Y-87484082D01*
X72176023Y-87607951D01*
X72175333Y-87614517D01*
X72175332Y-87614521D01*
X72163922Y-87723082D01*
X72157709Y-87782200D01*
X72158399Y-87788765D01*
X72167559Y-87875915D01*
X72176023Y-87956449D01*
X72190213Y-88000120D01*
X72224212Y-88104757D01*
X72230166Y-88123082D01*
X72233465Y-88128797D01*
X72234425Y-88130952D01*
X72243859Y-88201319D01*
X72234425Y-88233448D01*
X72233465Y-88235603D01*
X72230166Y-88241318D01*
X72228128Y-88247591D01*
X72228126Y-88247595D01*
X72206568Y-88313943D01*
X72176023Y-88407951D01*
X72175333Y-88414517D01*
X72175332Y-88414521D01*
X72165450Y-88508547D01*
X72157709Y-88582200D01*
X72158399Y-88588765D01*
X72174693Y-88743791D01*
X72176023Y-88756449D01*
X72208484Y-88856353D01*
X72217268Y-88883385D01*
X72230166Y-88923082D01*
X72233469Y-88928803D01*
X72314467Y-89069098D01*
X72314470Y-89069102D01*
X72317770Y-89074818D01*
X72322188Y-89079725D01*
X72322189Y-89079726D01*
X72426847Y-89195959D01*
X72435008Y-89205023D01*
X72440347Y-89208902D01*
X72564228Y-89298907D01*
X72576754Y-89308008D01*
X72582782Y-89310692D01*
X72582784Y-89310693D01*
X72730785Y-89376587D01*
X72736816Y-89379272D01*
X72820761Y-89397115D01*
X72901739Y-89414328D01*
X72901743Y-89414328D01*
X72908196Y-89415700D01*
X72914798Y-89415700D01*
X72921365Y-89416390D01*
X72921158Y-89418362D01*
X72980214Y-89435702D01*
X73014029Y-89467638D01*
X73022598Y-89479432D01*
X73130929Y-89599746D01*
X73140681Y-89608526D01*
X73147860Y-89613742D01*
X73191215Y-89669964D01*
X73199800Y-89715679D01*
X73199800Y-90910200D01*
X73179798Y-90978321D01*
X73126142Y-91024814D01*
X73073800Y-91036200D01*
X70217915Y-91036200D01*
X70202676Y-91040675D01*
X70201471Y-91042065D01*
X70199800Y-91049748D01*
X70199800Y-91847085D01*
X70204275Y-91862324D01*
X70205665Y-91863529D01*
X70213348Y-91865200D01*
X70569437Y-91865200D01*
X70575413Y-91864915D01*
X70720545Y-91851068D01*
X70732280Y-91848809D01*
X70919068Y-91794012D01*
X70930151Y-91789579D01*
X71103206Y-91700449D01*
X71113261Y-91693993D01*
X71266337Y-91573751D01*
X71274990Y-91565511D01*
X71347933Y-91481451D01*
X71407686Y-91443110D01*
X71478683Y-91443160D01*
X71538381Y-91481587D01*
X71541350Y-91485371D01*
X71551576Y-91497219D01*
X71643602Y-91585315D01*
X71678978Y-91646870D01*
X71675459Y-91717780D01*
X71639300Y-91771282D01*
X71527521Y-91868793D01*
X71527517Y-91868797D01*
X71521795Y-91873789D01*
X71423190Y-92014089D01*
X71400622Y-92071972D01*
X71365203Y-92162818D01*
X71360898Y-92173859D01*
X71359906Y-92181392D01*
X71359906Y-92181393D01*
X71340099Y-92331845D01*
X71338515Y-92343876D01*
X71343328Y-92387467D01*
X71354875Y-92492059D01*
X71357333Y-92514325D01*
X71359942Y-92521456D01*
X71359943Y-92521458D01*
X71378752Y-92572856D01*
X71416265Y-92675365D01*
X71420502Y-92681671D01*
X71420504Y-92681674D01*
X71450129Y-92725760D01*
X71511910Y-92817699D01*
X71517526Y-92822809D01*
X71631990Y-92926963D01*
X71638745Y-92933110D01*
X71789448Y-93014935D01*
X71955319Y-93058451D01*
X72042766Y-93059824D01*
X72119183Y-93061025D01*
X72119186Y-93061025D01*
X72126782Y-93061144D01*
X72134186Y-93059448D01*
X72134188Y-93059448D01*
X72271048Y-93028103D01*
X72341915Y-93032392D01*
X72399213Y-93074314D01*
X72424750Y-93140559D01*
X72410419Y-93210094D01*
X72388272Y-93240018D01*
X72009601Y-93618689D01*
X71947289Y-93652715D01*
X71887835Y-93648184D01*
X71887181Y-93650789D01*
X71728234Y-93610864D01*
X71728230Y-93610864D01*
X71720863Y-93609013D01*
X71713264Y-93608973D01*
X71713262Y-93608973D01*
X71641806Y-93608599D01*
X71549381Y-93608115D01*
X71542001Y-93609887D01*
X71541999Y-93609887D01*
X71390014Y-93646375D01*
X71390010Y-93646376D01*
X71382635Y-93648147D01*
X71230251Y-93726798D01*
X71101027Y-93839528D01*
X71002422Y-93979828D01*
X70999662Y-93986908D01*
X70943624Y-94130637D01*
X70940130Y-94139598D01*
X70939138Y-94147131D01*
X70939138Y-94147132D01*
X70918962Y-94300388D01*
X70917747Y-94309615D01*
X70921621Y-94344705D01*
X70933329Y-94450751D01*
X70936565Y-94480064D01*
X70995497Y-94641104D01*
X70999734Y-94647410D01*
X70999736Y-94647413D01*
X71032724Y-94696503D01*
X71091142Y-94783438D01*
X71143393Y-94830983D01*
X71196334Y-94879155D01*
X71217977Y-94898849D01*
X71368680Y-94980674D01*
X71534551Y-95024190D01*
X71621998Y-95025563D01*
X71698415Y-95026764D01*
X71698418Y-95026764D01*
X71706014Y-95026883D01*
X71713418Y-95025187D01*
X71713420Y-95025187D01*
X71781257Y-95009650D01*
X71873171Y-94988599D01*
X72019061Y-94915224D01*
X72075675Y-94901789D01*
X72091513Y-94901789D01*
X72107960Y-94902867D01*
X72138091Y-94906834D01*
X72176410Y-94901789D01*
X72176415Y-94901789D01*
X72282540Y-94887817D01*
X72290728Y-94886739D01*
X72409806Y-94837415D01*
X72432964Y-94827823D01*
X72486435Y-94786793D01*
X72490808Y-94783438D01*
X72548550Y-94739131D01*
X72555104Y-94734102D01*
X72560130Y-94727552D01*
X72560134Y-94727548D01*
X72573614Y-94709980D01*
X72584482Y-94697588D01*
X73904076Y-93377994D01*
X73966388Y-93343968D01*
X73993171Y-93341089D01*
X74024644Y-93341089D01*
X74092765Y-93361091D01*
X74139258Y-93414747D01*
X74149362Y-93485021D01*
X74127730Y-93539540D01*
X74068244Y-93624179D01*
X74068241Y-93624185D01*
X74063872Y-93630401D01*
X74042448Y-93685350D01*
X74024781Y-93730665D01*
X74001580Y-93790171D01*
X74000588Y-93797704D01*
X74000588Y-93797705D01*
X73982756Y-93933158D01*
X73979197Y-93960188D01*
X73982147Y-93986908D01*
X73991524Y-94071843D01*
X73979118Y-94141748D01*
X73930888Y-94193848D01*
X73924083Y-94197632D01*
X73771919Y-94276169D01*
X73642695Y-94388899D01*
X73544090Y-94529199D01*
X73481798Y-94688969D01*
X73480806Y-94696502D01*
X73480806Y-94696503D01*
X73461052Y-94846555D01*
X73459415Y-94858986D01*
X73465218Y-94911548D01*
X73477290Y-95020889D01*
X73478233Y-95029435D01*
X73480842Y-95036566D01*
X73480843Y-95036568D01*
X73493348Y-95070739D01*
X73537161Y-95190463D01*
X73537161Y-95190465D01*
X73537165Y-95190475D01*
X73537163Y-95190476D01*
X73549670Y-95257061D01*
X73522972Y-95322846D01*
X73513394Y-95333586D01*
X72973985Y-95872995D01*
X72911673Y-95907021D01*
X72884890Y-95909900D01*
X72653382Y-95909900D01*
X72594423Y-95895254D01*
X72474682Y-95831854D01*
X72474679Y-95831853D01*
X72467969Y-95828300D01*
X72438620Y-95820928D01*
X72309022Y-95788375D01*
X72309018Y-95788375D01*
X72301651Y-95786524D01*
X72294052Y-95786484D01*
X72294050Y-95786484D01*
X72222594Y-95786110D01*
X72130169Y-95785626D01*
X72122789Y-95787398D01*
X72122787Y-95787398D01*
X71970802Y-95823886D01*
X71970798Y-95823887D01*
X71963423Y-95825658D01*
X71811039Y-95904309D01*
X71805322Y-95909296D01*
X71805315Y-95909301D01*
X71765332Y-95944181D01*
X71700850Y-95973889D01*
X71630543Y-95964019D01*
X71593408Y-95938328D01*
X70819213Y-95164134D01*
X70808345Y-95151741D01*
X70794868Y-95134177D01*
X70789842Y-95127627D01*
X70697974Y-95057135D01*
X70667702Y-95033906D01*
X70609142Y-95009650D01*
X70525466Y-94974990D01*
X70526023Y-94973645D01*
X70501374Y-94962206D01*
X70497308Y-94958583D01*
X70345756Y-94878340D01*
X70262406Y-94857404D01*
X70201211Y-94821409D01*
X70169190Y-94758043D01*
X70173269Y-94696266D01*
X70227920Y-94528068D01*
X70232966Y-94480064D01*
X70247192Y-94344705D01*
X70247882Y-94338140D01*
X70241003Y-94272688D01*
X70228610Y-94154775D01*
X70228610Y-94154773D01*
X70227920Y-94148212D01*
X70168905Y-93966584D01*
X70149607Y-93933158D01*
X70076719Y-93806914D01*
X70073418Y-93801196D01*
X69979258Y-93696620D01*
X69950053Y-93664185D01*
X69950052Y-93664184D01*
X69945631Y-93659274D01*
X69791130Y-93547022D01*
X69785102Y-93544338D01*
X69785100Y-93544337D01*
X69622697Y-93472031D01*
X69622696Y-93472031D01*
X69616666Y-93469346D01*
X69523266Y-93449493D01*
X69436322Y-93431012D01*
X69436317Y-93431012D01*
X69429865Y-93429640D01*
X69238891Y-93429640D01*
X69232439Y-93431012D01*
X69232434Y-93431012D01*
X69145490Y-93449493D01*
X69052090Y-93469346D01*
X69046060Y-93472031D01*
X69046059Y-93472031D01*
X68883656Y-93544337D01*
X68883654Y-93544338D01*
X68877626Y-93547022D01*
X68723125Y-93659274D01*
X68718704Y-93664184D01*
X68718703Y-93664185D01*
X68596936Y-93799421D01*
X68536490Y-93836661D01*
X68465506Y-93835309D01*
X68406522Y-93795796D01*
X68378264Y-93730665D01*
X68377300Y-93715111D01*
X68377300Y-91625433D01*
X68397302Y-91557312D01*
X68450958Y-91510819D01*
X68521232Y-91500715D01*
X68590431Y-91534415D01*
X68692193Y-91631831D01*
X68701568Y-91639235D01*
X68865092Y-91744820D01*
X68875706Y-91750321D01*
X69056249Y-91823083D01*
X69067698Y-91826475D01*
X69260191Y-91864066D01*
X69269001Y-91865136D01*
X69271628Y-91865200D01*
X69673685Y-91865200D01*
X69688924Y-91860725D01*
X69690129Y-91859335D01*
X69691800Y-91851652D01*
X69691800Y-90510085D01*
X70199800Y-90510085D01*
X70204275Y-90525324D01*
X70205665Y-90526529D01*
X70213348Y-90528200D01*
X72673685Y-90528200D01*
X72688924Y-90523725D01*
X72690129Y-90522335D01*
X72691800Y-90514652D01*
X72691800Y-89717315D01*
X72687325Y-89702076D01*
X72685935Y-89700871D01*
X72678252Y-89699200D01*
X72322163Y-89699200D01*
X72316187Y-89699485D01*
X72171055Y-89713332D01*
X72159320Y-89715591D01*
X71972532Y-89770388D01*
X71961449Y-89774821D01*
X71788394Y-89863951D01*
X71778339Y-89870407D01*
X71625263Y-89990649D01*
X71616610Y-89998889D01*
X71543667Y-90082949D01*
X71483914Y-90121290D01*
X71412917Y-90121240D01*
X71353219Y-90082813D01*
X71350250Y-90079029D01*
X71340024Y-90067181D01*
X71199407Y-89932569D01*
X71190032Y-89925165D01*
X71026508Y-89819580D01*
X71015894Y-89814079D01*
X70835351Y-89741317D01*
X70823902Y-89737925D01*
X70631409Y-89700334D01*
X70622599Y-89699264D01*
X70619972Y-89699200D01*
X70217915Y-89699200D01*
X70202676Y-89703675D01*
X70201471Y-89705065D01*
X70199800Y-89712748D01*
X70199800Y-90510085D01*
X69691800Y-90510085D01*
X69691800Y-89717315D01*
X69687325Y-89702076D01*
X69685935Y-89700871D01*
X69678252Y-89699200D01*
X69322163Y-89699200D01*
X69316187Y-89699485D01*
X69171055Y-89713332D01*
X69159320Y-89715591D01*
X68972532Y-89770388D01*
X68961449Y-89774821D01*
X68788394Y-89863951D01*
X68778339Y-89870407D01*
X68625263Y-89990649D01*
X68616616Y-89998884D01*
X68598466Y-90019800D01*
X68538712Y-90058141D01*
X68467716Y-90058091D01*
X68408017Y-90019665D01*
X68378570Y-89955063D01*
X68377300Y-89937220D01*
X68377300Y-82552450D01*
X68379046Y-82531545D01*
X68381570Y-82516544D01*
X68381570Y-82516541D01*
X68382376Y-82511752D01*
X68382529Y-82499200D01*
X68381134Y-82489460D01*
X68380250Y-82461717D01*
X68383449Y-82421064D01*
X68408734Y-82354722D01*
X68465871Y-82312581D01*
X68536721Y-82308022D01*
X68596192Y-82339930D01*
X68692193Y-82431831D01*
X68701568Y-82439235D01*
X68865092Y-82544820D01*
X68875706Y-82550321D01*
X69056249Y-82623083D01*
X69067698Y-82626475D01*
X69260191Y-82664066D01*
X69269001Y-82665136D01*
X69271628Y-82665200D01*
X69673685Y-82665200D01*
X69688924Y-82660725D01*
X69690129Y-82659335D01*
X69691800Y-82651652D01*
X69691800Y-82647085D01*
X70199800Y-82647085D01*
X70204275Y-82662324D01*
X70205665Y-82663529D01*
X70213348Y-82665200D01*
X70569437Y-82665200D01*
X70575413Y-82664915D01*
X70720545Y-82651068D01*
X70732280Y-82648809D01*
X70919068Y-82594012D01*
X70930151Y-82589579D01*
X71103206Y-82500449D01*
X71113261Y-82493993D01*
X71266337Y-82373751D01*
X71274990Y-82365511D01*
X71347933Y-82281451D01*
X71407686Y-82243110D01*
X71478683Y-82243160D01*
X71538381Y-82281587D01*
X71541350Y-82285371D01*
X71551576Y-82297219D01*
X71692193Y-82431831D01*
X71701568Y-82439235D01*
X71865092Y-82544820D01*
X71875706Y-82550321D01*
X72056249Y-82623083D01*
X72067698Y-82626475D01*
X72260191Y-82664066D01*
X72269001Y-82665136D01*
X72271628Y-82665200D01*
X72673685Y-82665200D01*
X72688924Y-82660725D01*
X72690129Y-82659335D01*
X72691800Y-82651652D01*
X72691800Y-81854315D01*
X72687325Y-81839076D01*
X72685935Y-81837871D01*
X72678252Y-81836200D01*
X70217915Y-81836200D01*
X70202676Y-81840675D01*
X70201471Y-81842065D01*
X70199800Y-81849748D01*
X70199800Y-82647085D01*
X69691800Y-82647085D01*
X69691800Y-81454200D01*
X69711802Y-81386079D01*
X69765458Y-81339586D01*
X69817800Y-81328200D01*
X74555486Y-81328200D01*
X74569017Y-81324227D01*
X74570372Y-81314801D01*
X74556736Y-81258221D01*
X74560221Y-81187310D01*
X74601490Y-81129540D01*
X74667441Y-81103253D01*
X74679229Y-81102700D01*
X97968800Y-81102700D01*
X98036921Y-81122702D01*
G37*
%TD.AperFunction*%
%TA.AperFunction,Conductor*%
G36*
X80638233Y-93630124D02*
G01*
X80683295Y-93659085D01*
X80864315Y-93840105D01*
X80898341Y-93902417D01*
X80893276Y-93973232D01*
X80864315Y-94018295D01*
X79091127Y-95791484D01*
X79081054Y-95809930D01*
X79068057Y-95869683D01*
X79017855Y-95919887D01*
X78957468Y-95935300D01*
X76140982Y-95935300D01*
X76072861Y-95915298D01*
X76026368Y-95861642D01*
X76016264Y-95791368D01*
X76045758Y-95726788D01*
X76092765Y-95692891D01*
X76106901Y-95687036D01*
X76106902Y-95687035D01*
X76114532Y-95683875D01*
X76173590Y-95638558D01*
X76183036Y-95631310D01*
X76230118Y-95595183D01*
X76236672Y-95590154D01*
X76241698Y-95583604D01*
X76241702Y-95583600D01*
X76255182Y-95566032D01*
X76266050Y-95553640D01*
X76635212Y-95184478D01*
X76697524Y-95150452D01*
X76768339Y-95155517D01*
X76810302Y-95184069D01*
X76811320Y-95182939D01*
X76816228Y-95187359D01*
X76820647Y-95192266D01*
X76825989Y-95196147D01*
X76825991Y-95196149D01*
X76923016Y-95266642D01*
X76975148Y-95304518D01*
X76981176Y-95307202D01*
X76981178Y-95307203D01*
X77115820Y-95367149D01*
X77149612Y-95382194D01*
X77243013Y-95402047D01*
X77329956Y-95420528D01*
X77329961Y-95420528D01*
X77336413Y-95421900D01*
X77527387Y-95421900D01*
X77533839Y-95420528D01*
X77533844Y-95420528D01*
X77620787Y-95402047D01*
X77714188Y-95382194D01*
X77747980Y-95367149D01*
X77882622Y-95307203D01*
X77882624Y-95307202D01*
X77888652Y-95304518D01*
X78043153Y-95192266D01*
X78079642Y-95151741D01*
X78166521Y-95055252D01*
X78166522Y-95055251D01*
X78170940Y-95050344D01*
X78174239Y-95044631D01*
X78174242Y-95044626D01*
X78209960Y-94982760D01*
X78261343Y-94933767D01*
X78331057Y-94920331D01*
X78396967Y-94946718D01*
X78433088Y-94992113D01*
X78478197Y-95087977D01*
X78482005Y-95094903D01*
X78640109Y-95344035D01*
X78644763Y-95350441D01*
X78709721Y-95428961D01*
X78722240Y-95437417D01*
X78732978Y-95431211D01*
X80505105Y-93659085D01*
X80567417Y-93625059D01*
X80638233Y-93630124D01*
G37*
%TD.AperFunction*%
%TA.AperFunction,Conductor*%
G36*
X92746845Y-91562127D02*
G01*
X92778463Y-91594574D01*
X92821860Y-91659155D01*
X92867242Y-91700449D01*
X92937155Y-91764065D01*
X92948695Y-91774566D01*
X93034015Y-91820891D01*
X93084335Y-91870972D01*
X93099592Y-91940310D01*
X93098815Y-91948058D01*
X93096234Y-91967663D01*
X93098791Y-91990824D01*
X93102341Y-92022979D01*
X93089935Y-92092884D01*
X93041705Y-92144984D01*
X92972965Y-92162738D01*
X92972712Y-92162718D01*
X92969631Y-92161944D01*
X92798149Y-92161046D01*
X92790769Y-92162818D01*
X92790767Y-92162818D01*
X92638782Y-92199306D01*
X92638778Y-92199307D01*
X92631403Y-92201078D01*
X92479019Y-92279729D01*
X92349795Y-92392459D01*
X92251190Y-92532759D01*
X92235557Y-92572856D01*
X92191907Y-92684812D01*
X92188898Y-92692529D01*
X92187906Y-92700062D01*
X92187906Y-92700063D01*
X92168600Y-92846712D01*
X92166515Y-92862546D01*
X92174531Y-92935151D01*
X92183552Y-93016861D01*
X92185333Y-93032995D01*
X92187942Y-93040126D01*
X92187943Y-93040128D01*
X92202282Y-93079311D01*
X92244265Y-93194035D01*
X92248502Y-93200341D01*
X92248504Y-93200344D01*
X92268440Y-93230011D01*
X92339910Y-93336369D01*
X92466745Y-93451780D01*
X92617448Y-93533605D01*
X92783319Y-93577121D01*
X92870766Y-93578494D01*
X92947183Y-93579695D01*
X92947186Y-93579695D01*
X92954782Y-93579814D01*
X92962186Y-93578118D01*
X92962188Y-93578118D01*
X93025026Y-93563726D01*
X93121939Y-93541530D01*
X93275138Y-93464479D01*
X93280909Y-93459550D01*
X93280912Y-93459548D01*
X93399758Y-93358043D01*
X93405535Y-93353109D01*
X93493991Y-93230011D01*
X93501172Y-93220018D01*
X93501173Y-93220017D01*
X93505604Y-93213850D01*
X93569565Y-93054740D01*
X93586360Y-92936734D01*
X93593146Y-92889051D01*
X93593146Y-92889047D01*
X93593727Y-92884967D01*
X93593884Y-92870020D01*
X93592068Y-92855015D01*
X93588242Y-92823395D01*
X93599915Y-92753365D01*
X93647597Y-92700763D01*
X93715307Y-92682274D01*
X93876902Y-92684812D01*
X93876905Y-92684812D01*
X93884501Y-92684931D01*
X93891905Y-92683235D01*
X93891907Y-92683235D01*
X93913760Y-92678230D01*
X93984627Y-92682520D01*
X94041925Y-92724442D01*
X94067128Y-92787223D01*
X94068942Y-92803657D01*
X94082013Y-92922046D01*
X94084293Y-92942702D01*
X94086902Y-92949833D01*
X94086903Y-92949835D01*
X94094800Y-92971414D01*
X94143225Y-93103742D01*
X94147462Y-93110048D01*
X94147464Y-93110051D01*
X94153449Y-93118957D01*
X94238870Y-93246076D01*
X94244486Y-93251186D01*
X94343717Y-93341479D01*
X94365705Y-93361487D01*
X94516408Y-93443312D01*
X94682279Y-93486828D01*
X94754224Y-93487958D01*
X94822021Y-93509027D01*
X94837043Y-93520748D01*
X94892445Y-93571160D01*
X95043148Y-93652985D01*
X95209019Y-93696501D01*
X95296466Y-93697874D01*
X95372883Y-93699075D01*
X95372886Y-93699075D01*
X95380482Y-93699194D01*
X95387886Y-93697498D01*
X95387888Y-93697498D01*
X95440929Y-93685350D01*
X95511796Y-93689639D01*
X95569094Y-93731562D01*
X95594631Y-93797806D01*
X95595058Y-93808170D01*
X95595058Y-95600662D01*
X95575056Y-95668783D01*
X95558153Y-95689757D01*
X95389087Y-95858823D01*
X95326775Y-95892849D01*
X95255960Y-95887784D01*
X95199124Y-95845237D01*
X95174313Y-95778717D01*
X95175249Y-95751979D01*
X95186162Y-95675298D01*
X95186319Y-95660351D01*
X95174861Y-95565670D01*
X95166630Y-95497650D01*
X95166629Y-95497647D01*
X95165717Y-95490109D01*
X95161376Y-95478619D01*
X95107786Y-95336798D01*
X95105102Y-95329695D01*
X95061767Y-95266642D01*
X95012274Y-95194629D01*
X95012273Y-95194627D01*
X95007972Y-95188370D01*
X95002301Y-95183317D01*
X94885608Y-95079347D01*
X94885605Y-95079345D01*
X94879936Y-95074294D01*
X94871940Y-95070060D01*
X94795212Y-95029435D01*
X94728384Y-94994051D01*
X94721019Y-94992201D01*
X94569437Y-94954126D01*
X94569433Y-94954126D01*
X94562066Y-94952275D01*
X94554467Y-94952235D01*
X94554465Y-94952235D01*
X94483009Y-94951861D01*
X94390584Y-94951377D01*
X94383204Y-94953149D01*
X94383202Y-94953149D01*
X94231217Y-94989637D01*
X94231213Y-94989638D01*
X94223838Y-94991409D01*
X94071454Y-95070060D01*
X94065735Y-95075049D01*
X94060808Y-95079347D01*
X93942230Y-95182790D01*
X93843625Y-95323090D01*
X93820581Y-95382194D01*
X93785612Y-95471886D01*
X93781333Y-95482860D01*
X93780341Y-95490393D01*
X93780341Y-95490394D01*
X93760798Y-95638843D01*
X93758950Y-95652877D01*
X93773909Y-95788375D01*
X93774693Y-95795473D01*
X93762287Y-95865378D01*
X93714057Y-95917478D01*
X93649454Y-95935300D01*
X93407908Y-95935300D01*
X93339787Y-95915298D01*
X93293294Y-95861642D01*
X93283190Y-95791368D01*
X93314271Y-95724992D01*
X93372840Y-95659944D01*
X93468327Y-95494556D01*
X93527342Y-95312928D01*
X93538765Y-95204249D01*
X93546614Y-95129565D01*
X93547304Y-95123000D01*
X93541131Y-95064268D01*
X93528032Y-94939635D01*
X93528032Y-94939633D01*
X93527342Y-94933072D01*
X93468327Y-94751444D01*
X93372840Y-94586056D01*
X93352251Y-94563189D01*
X93249475Y-94449045D01*
X93249474Y-94449044D01*
X93245053Y-94444134D01*
X93108201Y-94344705D01*
X93095894Y-94335763D01*
X93095893Y-94335762D01*
X93090552Y-94331882D01*
X93084524Y-94329198D01*
X93084522Y-94329197D01*
X92922119Y-94256891D01*
X92922118Y-94256891D01*
X92916088Y-94254206D01*
X92792141Y-94227860D01*
X92735744Y-94215872D01*
X92735739Y-94215872D01*
X92729287Y-94214500D01*
X92538313Y-94214500D01*
X92531861Y-94215872D01*
X92531856Y-94215872D01*
X92475459Y-94227860D01*
X92351512Y-94254206D01*
X92345482Y-94256891D01*
X92345481Y-94256891D01*
X92183078Y-94329197D01*
X92183076Y-94329198D01*
X92177048Y-94331882D01*
X92171707Y-94335762D01*
X92171706Y-94335763D01*
X92159399Y-94344705D01*
X92022547Y-94444134D01*
X92018126Y-94449044D01*
X92018125Y-94449045D01*
X91915350Y-94563189D01*
X91894760Y-94586056D01*
X91891459Y-94591774D01*
X91887576Y-94597118D01*
X91886466Y-94596311D01*
X91840357Y-94640270D01*
X91770642Y-94653701D01*
X91704733Y-94627309D01*
X91667912Y-94577102D01*
X91667452Y-94577342D01*
X91665872Y-94574320D01*
X91664762Y-94572806D01*
X91661247Y-94563504D01*
X91632382Y-94521505D01*
X91568419Y-94428438D01*
X91568418Y-94428436D01*
X91564117Y-94422179D01*
X91558446Y-94417126D01*
X91441753Y-94313156D01*
X91441750Y-94313154D01*
X91436081Y-94308103D01*
X91428085Y-94303869D01*
X91331696Y-94252834D01*
X91284529Y-94227860D01*
X91236803Y-94215872D01*
X91125582Y-94187935D01*
X91125578Y-94187935D01*
X91118211Y-94186084D01*
X91110612Y-94186044D01*
X91110610Y-94186044D01*
X91039154Y-94185670D01*
X90946729Y-94185186D01*
X90939349Y-94186958D01*
X90939347Y-94186958D01*
X90787362Y-94223446D01*
X90787358Y-94223447D01*
X90779983Y-94225218D01*
X90627599Y-94303869D01*
X90498375Y-94416599D01*
X90399770Y-94556899D01*
X90392978Y-94574320D01*
X90342639Y-94703433D01*
X90337478Y-94716669D01*
X90336486Y-94724202D01*
X90336486Y-94724203D01*
X90316194Y-94878340D01*
X90315095Y-94886686D01*
X90322321Y-94952134D01*
X90331000Y-95030747D01*
X90333913Y-95057135D01*
X90336522Y-95064266D01*
X90336523Y-95064268D01*
X90355614Y-95116435D01*
X90392845Y-95218175D01*
X90397082Y-95224481D01*
X90397084Y-95224484D01*
X90441381Y-95290404D01*
X90488490Y-95360509D01*
X90513829Y-95383566D01*
X90604151Y-95465752D01*
X90615325Y-95475920D01*
X90766028Y-95557745D01*
X90931899Y-95601261D01*
X91019346Y-95602634D01*
X91095763Y-95603835D01*
X91095766Y-95603835D01*
X91103362Y-95603954D01*
X91110766Y-95602258D01*
X91110768Y-95602258D01*
X91173606Y-95587866D01*
X91270519Y-95565670D01*
X91423718Y-95488619D01*
X91429489Y-95483690D01*
X91429492Y-95483688D01*
X91548338Y-95382183D01*
X91554115Y-95377249D01*
X91558550Y-95371077D01*
X91560825Y-95368603D01*
X91621658Y-95331998D01*
X91692623Y-95334091D01*
X91751191Y-95374220D01*
X91773408Y-95414951D01*
X91799273Y-95494556D01*
X91894760Y-95659944D01*
X91953329Y-95724992D01*
X91984045Y-95788997D01*
X91975282Y-95859450D01*
X91929819Y-95913982D01*
X91859692Y-95935300D01*
X89917452Y-95935300D01*
X89849331Y-95915298D01*
X89802838Y-95861642D01*
X89791643Y-95816227D01*
X89791461Y-95812916D01*
X89791504Y-95808800D01*
X89789688Y-95793796D01*
X89771815Y-95646099D01*
X89771814Y-95646096D01*
X89770902Y-95638558D01*
X89768164Y-95631310D01*
X89712971Y-95485247D01*
X89710287Y-95478144D01*
X89694946Y-95455823D01*
X89617459Y-95343078D01*
X89617458Y-95343076D01*
X89613157Y-95336819D01*
X89607486Y-95331766D01*
X89490793Y-95227796D01*
X89490790Y-95227794D01*
X89485121Y-95222743D01*
X89477125Y-95218509D01*
X89363400Y-95158295D01*
X89333569Y-95142500D01*
X89291540Y-95131943D01*
X89174622Y-95102575D01*
X89174618Y-95102575D01*
X89167251Y-95100724D01*
X89159652Y-95100684D01*
X89159650Y-95100684D01*
X89088194Y-95100310D01*
X88995769Y-95099826D01*
X88988389Y-95101598D01*
X88988387Y-95101598D01*
X88836402Y-95138086D01*
X88836398Y-95138087D01*
X88829023Y-95139858D01*
X88676639Y-95218509D01*
X88547415Y-95331239D01*
X88448810Y-95471539D01*
X88438630Y-95497650D01*
X88397230Y-95603835D01*
X88386518Y-95631309D01*
X88385526Y-95638842D01*
X88385526Y-95638843D01*
X88365431Y-95791484D01*
X88364135Y-95801326D01*
X88364968Y-95808874D01*
X88364950Y-95810621D01*
X88344235Y-95878528D01*
X88290095Y-95924456D01*
X88238957Y-95935300D01*
X83698458Y-95935300D01*
X83630337Y-95915298D01*
X83583844Y-95861642D01*
X83573148Y-95796129D01*
X83573394Y-95793796D01*
X83590504Y-95631000D01*
X83576765Y-95500279D01*
X83571232Y-95447635D01*
X83571232Y-95447633D01*
X83570542Y-95441072D01*
X83511527Y-95259444D01*
X83503343Y-95245268D01*
X83453128Y-95158295D01*
X83416040Y-95094056D01*
X83410567Y-95087977D01*
X83292675Y-94957045D01*
X83292674Y-94957044D01*
X83288253Y-94952134D01*
X83170438Y-94866536D01*
X83139094Y-94843763D01*
X83139093Y-94843762D01*
X83133752Y-94839882D01*
X83127724Y-94837198D01*
X83127722Y-94837197D01*
X83006976Y-94783438D01*
X82972225Y-94767966D01*
X82918130Y-94721986D01*
X82897480Y-94654059D01*
X82903641Y-94613922D01*
X82929936Y-94532995D01*
X82931902Y-94525337D01*
X82987192Y-94235497D01*
X82988185Y-94227636D01*
X83006712Y-93933158D01*
X83006712Y-93925242D01*
X82988185Y-93630764D01*
X82987193Y-93622906D01*
X82962663Y-93494319D01*
X82969546Y-93423656D01*
X83013539Y-93367933D01*
X83086431Y-93344708D01*
X83140682Y-93344708D01*
X83147134Y-93343336D01*
X83147139Y-93343336D01*
X83234082Y-93324855D01*
X83327483Y-93305002D01*
X83333514Y-93302317D01*
X83495917Y-93230011D01*
X83495919Y-93230010D01*
X83501947Y-93227326D01*
X83656448Y-93115074D01*
X83688649Y-93079311D01*
X83779816Y-92978060D01*
X83779817Y-92978059D01*
X83784235Y-92973152D01*
X83810903Y-92926962D01*
X83862284Y-92877970D01*
X83934738Y-92865536D01*
X83936231Y-92865928D01*
X84023678Y-92867301D01*
X84100095Y-92868502D01*
X84100098Y-92868502D01*
X84107694Y-92868621D01*
X84115098Y-92866925D01*
X84115100Y-92866925D01*
X84203354Y-92846712D01*
X84274851Y-92830337D01*
X84370100Y-92782432D01*
X84421265Y-92756699D01*
X84421268Y-92756697D01*
X84428050Y-92753286D01*
X84433824Y-92748355D01*
X84437273Y-92746063D01*
X84505081Y-92725027D01*
X84573498Y-92743989D01*
X84591797Y-92757818D01*
X84624468Y-92787546D01*
X84775171Y-92869371D01*
X84941042Y-92912887D01*
X85028489Y-92914260D01*
X85104906Y-92915461D01*
X85104909Y-92915461D01*
X85112505Y-92915580D01*
X85119909Y-92913884D01*
X85119911Y-92913884D01*
X85182749Y-92899492D01*
X85279662Y-92877296D01*
X85432861Y-92800245D01*
X85438632Y-92795316D01*
X85438635Y-92795314D01*
X85557481Y-92693809D01*
X85563258Y-92688875D01*
X85568002Y-92682274D01*
X85568148Y-92682070D01*
X85568599Y-92681719D01*
X85572831Y-92677116D01*
X85573598Y-92677822D01*
X85624143Y-92638423D01*
X85670470Y-92629597D01*
X85708890Y-92629597D01*
X85715342Y-92628225D01*
X85715347Y-92628225D01*
X85802290Y-92609744D01*
X85895691Y-92589891D01*
X85901722Y-92587206D01*
X86064125Y-92514900D01*
X86064127Y-92514899D01*
X86070155Y-92512215D01*
X86117116Y-92478096D01*
X86129150Y-92469353D01*
X86196018Y-92445495D01*
X86265169Y-92461576D01*
X86288009Y-92478096D01*
X86349158Y-92533737D01*
X86349162Y-92533740D01*
X86354779Y-92538851D01*
X86505482Y-92620676D01*
X86671353Y-92664192D01*
X86758800Y-92665565D01*
X86835217Y-92666766D01*
X86835220Y-92666766D01*
X86842816Y-92666885D01*
X86850220Y-92665189D01*
X86850222Y-92665189D01*
X86931180Y-92646647D01*
X87009973Y-92628601D01*
X87163172Y-92551550D01*
X87168943Y-92546621D01*
X87168946Y-92546619D01*
X87287792Y-92445114D01*
X87293569Y-92440180D01*
X87393638Y-92300921D01*
X87396469Y-92293878D01*
X87396472Y-92293873D01*
X87419757Y-92235947D01*
X87463723Y-92180202D01*
X87530848Y-92157076D01*
X87599820Y-92173912D01*
X87625760Y-92193847D01*
X87769337Y-92337424D01*
X87780205Y-92349816D01*
X87793496Y-92367137D01*
X87798711Y-92373934D01*
X87869430Y-92428198D01*
X87920851Y-92467655D01*
X87964640Y-92485793D01*
X87979767Y-92492059D01*
X88055457Y-92523411D01*
X88055460Y-92523412D01*
X88063087Y-92526571D01*
X88071275Y-92527649D01*
X88177400Y-92541621D01*
X88177405Y-92541621D01*
X88215724Y-92546666D01*
X88223912Y-92545588D01*
X88245857Y-92542699D01*
X88262303Y-92541621D01*
X88293450Y-92541621D01*
X88361571Y-92561623D01*
X88398031Y-92597345D01*
X88477220Y-92715190D01*
X88604055Y-92830601D01*
X88754758Y-92912426D01*
X88920629Y-92955942D01*
X89008076Y-92957315D01*
X89084493Y-92958516D01*
X89084496Y-92958516D01*
X89092092Y-92958635D01*
X89099496Y-92956939D01*
X89099498Y-92956939D01*
X89193633Y-92935379D01*
X89259249Y-92920351D01*
X89412448Y-92843300D01*
X89418219Y-92838371D01*
X89418222Y-92838369D01*
X89537068Y-92736864D01*
X89542845Y-92731930D01*
X89642914Y-92592671D01*
X89706875Y-92433561D01*
X89712154Y-92396468D01*
X89741555Y-92331845D01*
X89788679Y-92297812D01*
X89888972Y-92256269D01*
X89916702Y-92244783D01*
X89968287Y-92205200D01*
X90038842Y-92151062D01*
X90043868Y-92144512D01*
X90043872Y-92144508D01*
X90057352Y-92126940D01*
X90068220Y-92114548D01*
X90252892Y-91929876D01*
X90313858Y-91896151D01*
X90345948Y-91888801D01*
X90390564Y-91878583D01*
X90398476Y-91874604D01*
X90399384Y-91874438D01*
X90404498Y-91872597D01*
X90404805Y-91873449D01*
X90468319Y-91861864D01*
X90524084Y-91881736D01*
X90656128Y-91968143D01*
X90664959Y-91973922D01*
X90671563Y-91976378D01*
X90671565Y-91976379D01*
X90828358Y-92034690D01*
X90828360Y-92034690D01*
X90834968Y-92037148D01*
X90906638Y-92046711D01*
X91007780Y-92060207D01*
X91007784Y-92060207D01*
X91014761Y-92061138D01*
X91021772Y-92060500D01*
X91021776Y-92060500D01*
X91164259Y-92047532D01*
X91195400Y-92044698D01*
X91202102Y-92042520D01*
X91202104Y-92042520D01*
X91361209Y-91990824D01*
X91361212Y-91990823D01*
X91367908Y-91988647D01*
X91373959Y-91985040D01*
X91373961Y-91985039D01*
X91376117Y-91983754D01*
X91377684Y-91983351D01*
X91380377Y-91982129D01*
X91380592Y-91982602D01*
X91444872Y-91966052D01*
X91484555Y-91973884D01*
X91638897Y-92031283D01*
X91722724Y-92042468D01*
X91811709Y-92054342D01*
X91811713Y-92054342D01*
X91818690Y-92055273D01*
X91825701Y-92054635D01*
X91825705Y-92054635D01*
X91968188Y-92041667D01*
X91999329Y-92038833D01*
X92006031Y-92036655D01*
X92006033Y-92036655D01*
X92165138Y-91984959D01*
X92165141Y-91984958D01*
X92171837Y-91982782D01*
X92268242Y-91925313D01*
X92321589Y-91893512D01*
X92321591Y-91893511D01*
X92327641Y-91889904D01*
X92458995Y-91764817D01*
X92559372Y-91613737D01*
X92561843Y-91607232D01*
X92610750Y-91555813D01*
X92679725Y-91538989D01*
X92746845Y-91562127D01*
G37*
%TD.AperFunction*%
%TA.AperFunction,Conductor*%
G36*
X76995307Y-91060190D02*
G01*
X77039195Y-91115996D01*
X77047461Y-91149002D01*
X77057865Y-91243238D01*
X77060050Y-91263032D01*
X77118982Y-91424072D01*
X77123219Y-91430378D01*
X77123221Y-91430381D01*
X77132489Y-91444173D01*
X77214627Y-91566406D01*
X77220242Y-91571515D01*
X77220247Y-91571521D01*
X77340730Y-91681152D01*
X77377652Y-91741792D01*
X77375929Y-91812767D01*
X77345026Y-91863438D01*
X76795161Y-92413304D01*
X76166059Y-93042406D01*
X76103747Y-93076432D01*
X76076964Y-93079311D01*
X75613687Y-93079311D01*
X75545566Y-93059309D01*
X75499073Y-93005653D01*
X75488969Y-92935379D01*
X75518463Y-92870799D01*
X75524592Y-92864216D01*
X75830545Y-92558263D01*
X75842938Y-92547394D01*
X75860505Y-92533915D01*
X75867054Y-92528890D01*
X75902388Y-92482842D01*
X75908644Y-92474689D01*
X75955746Y-92413304D01*
X75955748Y-92413300D01*
X75960775Y-92406749D01*
X76019691Y-92264514D01*
X76039787Y-92111877D01*
X76035819Y-92081739D01*
X76034741Y-92065292D01*
X76034741Y-91268988D01*
X76054743Y-91200867D01*
X76108399Y-91154374D01*
X76178673Y-91144270D01*
X76186938Y-91145741D01*
X76301324Y-91170055D01*
X76301329Y-91170055D01*
X76307781Y-91171427D01*
X76498755Y-91171427D01*
X76505207Y-91170055D01*
X76505212Y-91170055D01*
X76592155Y-91151574D01*
X76685556Y-91131721D01*
X76691587Y-91129036D01*
X76853990Y-91056730D01*
X76853992Y-91056729D01*
X76860020Y-91054045D01*
X76861113Y-91053251D01*
X76928215Y-91036971D01*
X76995307Y-91060190D01*
G37*
%TD.AperFunction*%
%TA.AperFunction,Conductor*%
G36*
X87363960Y-88978096D02*
G01*
X87404728Y-89002959D01*
X87495424Y-89085486D01*
X87495428Y-89085489D01*
X87501045Y-89090600D01*
X87557893Y-89121466D01*
X87644395Y-89168433D01*
X87694717Y-89218516D01*
X87709973Y-89287854D01*
X87685320Y-89354433D01*
X87628586Y-89397115D01*
X87613686Y-89401683D01*
X87599212Y-89405158D01*
X87446828Y-89483809D01*
X87441109Y-89488798D01*
X87437592Y-89491866D01*
X87317604Y-89596539D01*
X87218999Y-89736839D01*
X87193101Y-89803263D01*
X87164597Y-89876373D01*
X87156707Y-89896609D01*
X87155715Y-89904142D01*
X87155715Y-89904143D01*
X87135448Y-90058091D01*
X87134324Y-90066626D01*
X87138037Y-90100259D01*
X87152119Y-90227805D01*
X87153142Y-90237075D01*
X87155751Y-90244206D01*
X87155752Y-90244208D01*
X87203131Y-90373678D01*
X87207757Y-90444524D01*
X87173347Y-90506624D01*
X87110825Y-90540263D01*
X87040042Y-90534760D01*
X87010747Y-90518916D01*
X86908355Y-90444524D01*
X86879802Y-90423779D01*
X86879801Y-90423778D01*
X86874460Y-90419898D01*
X86868432Y-90417214D01*
X86868430Y-90417213D01*
X86706027Y-90344907D01*
X86706026Y-90344907D01*
X86699996Y-90342222D01*
X86513195Y-90302516D01*
X86506591Y-90302516D01*
X86502539Y-90302090D01*
X86436882Y-90275077D01*
X86396252Y-90216856D01*
X86390787Y-90193229D01*
X86389857Y-90186163D01*
X86387777Y-90170364D01*
X86386699Y-90153920D01*
X86386699Y-89617866D01*
X86406701Y-89549745D01*
X86460357Y-89503252D01*
X86507765Y-89492939D01*
X86507800Y-89492944D01*
X86546119Y-89487899D01*
X86546124Y-89487899D01*
X86652249Y-89473927D01*
X86660437Y-89472849D01*
X86673018Y-89467638D01*
X86768089Y-89428258D01*
X86783535Y-89421860D01*
X86802673Y-89413933D01*
X86847844Y-89379272D01*
X86924813Y-89320212D01*
X86934178Y-89308008D01*
X86943320Y-89296093D01*
X86954188Y-89283702D01*
X87230833Y-89007057D01*
X87293145Y-88973031D01*
X87363960Y-88978096D01*
G37*
%TD.AperFunction*%
%TA.AperFunction,Conductor*%
G36*
X84574528Y-89146506D02*
G01*
X84633097Y-89186633D01*
X84660675Y-89252055D01*
X84657688Y-89292236D01*
X84657858Y-89292258D01*
X84656781Y-89300442D01*
X84656780Y-89300444D01*
X84648105Y-89366342D01*
X84642808Y-89406574D01*
X84637763Y-89444895D01*
X84638841Y-89453083D01*
X84641730Y-89475028D01*
X84642808Y-89491474D01*
X84642808Y-89540626D01*
X84619894Y-89613077D01*
X84602890Y-89637271D01*
X84602887Y-89637276D01*
X84598518Y-89643493D01*
X84571292Y-89713325D01*
X84544563Y-89781881D01*
X84536226Y-89803263D01*
X84524530Y-89892108D01*
X84520871Y-89919899D01*
X84492149Y-89984826D01*
X84432884Y-90023918D01*
X84395949Y-90029453D01*
X84252418Y-90029453D01*
X84235971Y-90028375D01*
X84214020Y-90025485D01*
X84205832Y-90024407D01*
X84053195Y-90044503D01*
X83910960Y-90103419D01*
X83832998Y-90163241D01*
X83788819Y-90197140D01*
X83770312Y-90221259D01*
X83759444Y-90233650D01*
X83727814Y-90265280D01*
X83668133Y-90298704D01*
X83590542Y-90317332D01*
X83590540Y-90317333D01*
X83583162Y-90319104D01*
X83430778Y-90397755D01*
X83326518Y-90488708D01*
X83303918Y-90508423D01*
X83239436Y-90538131D01*
X83169128Y-90528262D01*
X83117248Y-90484842D01*
X83117144Y-90484690D01*
X83077788Y-90427427D01*
X83066324Y-90417213D01*
X82955424Y-90318404D01*
X82955421Y-90318402D01*
X82949752Y-90313351D01*
X82931882Y-90303889D01*
X82804912Y-90236662D01*
X82804913Y-90236662D01*
X82798200Y-90233108D01*
X82783936Y-90229525D01*
X82751027Y-90221259D01*
X82722906Y-90214196D01*
X82661711Y-90178202D01*
X82629690Y-90114836D01*
X82637010Y-90044218D01*
X82664507Y-90002897D01*
X83362986Y-89304418D01*
X83425298Y-89270392D01*
X83496113Y-89275457D01*
X83512203Y-89282782D01*
X83649655Y-89357412D01*
X83656328Y-89361035D01*
X83822199Y-89404551D01*
X83909646Y-89405924D01*
X83986063Y-89407125D01*
X83986066Y-89407125D01*
X83993662Y-89407244D01*
X84001066Y-89405548D01*
X84001068Y-89405548D01*
X84063906Y-89391156D01*
X84160819Y-89368960D01*
X84314018Y-89291909D01*
X84319789Y-89286980D01*
X84319792Y-89286978D01*
X84438636Y-89185475D01*
X84438637Y-89185474D01*
X84444415Y-89180539D01*
X84445088Y-89179603D01*
X84503562Y-89144414D01*
X84574528Y-89146506D01*
G37*
%TD.AperFunction*%
%TA.AperFunction,Conductor*%
G36*
X81199006Y-87571104D02*
G01*
X81245499Y-87624760D01*
X81255603Y-87695034D01*
X81226109Y-87759614D01*
X81219980Y-87766197D01*
X79323769Y-89662408D01*
X79261457Y-89696434D01*
X79190642Y-89691369D01*
X79133806Y-89648822D01*
X79109587Y-89588451D01*
X79091114Y-89435799D01*
X79091113Y-89435796D01*
X79090201Y-89428258D01*
X79085717Y-89416390D01*
X79032270Y-89274947D01*
X79029586Y-89267844D01*
X79014541Y-89245953D01*
X78936758Y-89132778D01*
X78936757Y-89132776D01*
X78932456Y-89126519D01*
X78910224Y-89106711D01*
X78810092Y-89017496D01*
X78810089Y-89017494D01*
X78804420Y-89012443D01*
X78652868Y-88932200D01*
X78635291Y-88927785D01*
X78493921Y-88892275D01*
X78493917Y-88892275D01*
X78486550Y-88890424D01*
X78478951Y-88890384D01*
X78478949Y-88890384D01*
X78407493Y-88890010D01*
X78315068Y-88889526D01*
X78307688Y-88891298D01*
X78307686Y-88891298D01*
X78267471Y-88900953D01*
X78148322Y-88929558D01*
X78148179Y-88928963D01*
X78082742Y-88933580D01*
X78020462Y-88899496D01*
X77989810Y-88849423D01*
X77969651Y-88787380D01*
X77960328Y-88771231D01*
X77903537Y-88672868D01*
X77874164Y-88621992D01*
X77818338Y-88559991D01*
X77787623Y-88495988D01*
X77796386Y-88425534D01*
X77822881Y-88386589D01*
X78621463Y-87588007D01*
X78683775Y-87553981D01*
X78710558Y-87551102D01*
X81130885Y-87551102D01*
X81199006Y-87571104D01*
G37*
%TD.AperFunction*%
%TD*%
%TA.AperFunction,Conductor*%
%TO.N,GND*%
G36*
X85537784Y-112976842D02*
G01*
X85584277Y-113030498D01*
X85594381Y-113100772D01*
X85564887Y-113165352D01*
X85527452Y-113194806D01*
X85516679Y-113200366D01*
X85516675Y-113200369D01*
X85509932Y-113203849D01*
X85380708Y-113316579D01*
X85282103Y-113456879D01*
X85256378Y-113522859D01*
X85224909Y-113603574D01*
X85219811Y-113616649D01*
X85218819Y-113624182D01*
X85218819Y-113624183D01*
X85200917Y-113760168D01*
X85197428Y-113786666D01*
X85203721Y-113843664D01*
X85214151Y-113938135D01*
X85216246Y-113957115D01*
X85218855Y-113964246D01*
X85218856Y-113964248D01*
X85248087Y-114044125D01*
X85252713Y-114114971D01*
X85218303Y-114177071D01*
X85212591Y-114182375D01*
X85134486Y-114250511D01*
X85103425Y-114294706D01*
X85064640Y-114349892D01*
X85035881Y-114390811D01*
X85033123Y-114397886D01*
X85030372Y-114403016D01*
X84980555Y-114453600D01*
X84911298Y-114469221D01*
X84893131Y-114466724D01*
X84871906Y-114462213D01*
X84871907Y-114462213D01*
X84865447Y-114460840D01*
X84674473Y-114460840D01*
X84668021Y-114462212D01*
X84668016Y-114462212D01*
X84597915Y-114477113D01*
X84487672Y-114500546D01*
X84481642Y-114503231D01*
X84481641Y-114503231D01*
X84319238Y-114575537D01*
X84319236Y-114575538D01*
X84313208Y-114578222D01*
X84158707Y-114690474D01*
X84154286Y-114695384D01*
X84154285Y-114695385D01*
X84147393Y-114703040D01*
X84030920Y-114832396D01*
X83935433Y-114997784D01*
X83876418Y-115179412D01*
X83875728Y-115185973D01*
X83875728Y-115185975D01*
X83873624Y-115205995D01*
X83856456Y-115369340D01*
X83857146Y-115375905D01*
X83859025Y-115393778D01*
X83876418Y-115559268D01*
X83935433Y-115740896D01*
X83938736Y-115746618D01*
X83938737Y-115746619D01*
X83961487Y-115786023D01*
X84030920Y-115906284D01*
X84035338Y-115911191D01*
X84035339Y-115911192D01*
X84143815Y-116031667D01*
X84158707Y-116048206D01*
X84313208Y-116160458D01*
X84319236Y-116163142D01*
X84319238Y-116163143D01*
X84413251Y-116205000D01*
X84487672Y-116238134D01*
X84649525Y-116272537D01*
X84711998Y-116306266D01*
X84746320Y-116368415D01*
X84741592Y-116439254D01*
X84706158Y-116490732D01*
X84648132Y-116541352D01*
X84648128Y-116541357D01*
X84642405Y-116546349D01*
X84543800Y-116686649D01*
X84512654Y-116766534D01*
X84486451Y-116833742D01*
X84481508Y-116846419D01*
X84480516Y-116853952D01*
X84480516Y-116853953D01*
X84461130Y-117001209D01*
X84459125Y-117016436D01*
X84462135Y-117043700D01*
X84477057Y-117178857D01*
X84477943Y-117186885D01*
X84480552Y-117194016D01*
X84480553Y-117194018D01*
X84497694Y-117240858D01*
X84536875Y-117347925D01*
X84632520Y-117490259D01*
X84638139Y-117495372D01*
X84638140Y-117495373D01*
X84647729Y-117504099D01*
X84684652Y-117564740D01*
X84682929Y-117635715D01*
X84643107Y-117694492D01*
X84594264Y-117719335D01*
X84485400Y-117747286D01*
X84477906Y-117749721D01*
X84203529Y-117858355D01*
X84196394Y-117861712D01*
X83937810Y-118003870D01*
X83931130Y-118008110D01*
X83725930Y-118157196D01*
X83717507Y-118168119D01*
X83724411Y-118180980D01*
X85214350Y-119670920D01*
X85228291Y-119678532D01*
X85230126Y-119678401D01*
X85236740Y-119674150D01*
X86730233Y-118180656D01*
X86736846Y-118168546D01*
X86728017Y-118156926D01*
X86523190Y-118008110D01*
X86516510Y-118003870D01*
X86257926Y-117861712D01*
X86250791Y-117858355D01*
X85972744Y-117748268D01*
X85973272Y-117746935D01*
X85919587Y-117710231D01*
X85891946Y-117644836D01*
X85904048Y-117574878D01*
X85940418Y-117530504D01*
X85992866Y-117490259D01*
X86057163Y-117440923D01*
X86062189Y-117434373D01*
X86062193Y-117434369D01*
X86075673Y-117416801D01*
X86086541Y-117404409D01*
X86609086Y-116881864D01*
X86671398Y-116847838D01*
X86742213Y-116852903D01*
X86799049Y-116895450D01*
X86823860Y-116961970D01*
X86823103Y-116987405D01*
X86807280Y-117107598D01*
X86803295Y-117137866D01*
X86809162Y-117191010D01*
X86814666Y-117240858D01*
X86822113Y-117308315D01*
X86824722Y-117315446D01*
X86824723Y-117315448D01*
X86831519Y-117334018D01*
X86881045Y-117469355D01*
X86885282Y-117475661D01*
X86885284Y-117475664D01*
X86922135Y-117530503D01*
X86976690Y-117611689D01*
X87010179Y-117642162D01*
X87078695Y-117704506D01*
X87103525Y-117727100D01*
X87254228Y-117808925D01*
X87420099Y-117852441D01*
X87440493Y-117852761D01*
X87508290Y-117873829D01*
X87553936Y-117928207D01*
X87555924Y-117943766D01*
X87584891Y-117881205D01*
X87651554Y-117841394D01*
X87687034Y-117833268D01*
X87758719Y-117816850D01*
X87911918Y-117739799D01*
X87917691Y-117734868D01*
X87917696Y-117734865D01*
X87947634Y-117709296D01*
X88012424Y-117680265D01*
X88031441Y-117679124D01*
X88108027Y-117680327D01*
X88108030Y-117680327D01*
X88115626Y-117680446D01*
X88123030Y-117678750D01*
X88123032Y-117678750D01*
X88186766Y-117664153D01*
X88257633Y-117668442D01*
X88314931Y-117710365D01*
X88340468Y-117776609D01*
X88339817Y-117803419D01*
X88323389Y-117928207D01*
X88318699Y-117963829D01*
X88324454Y-118015956D01*
X88335302Y-118114213D01*
X88337517Y-118134278D01*
X88340126Y-118141409D01*
X88340127Y-118141411D01*
X88375871Y-118239086D01*
X88380497Y-118309932D01*
X88346087Y-118372032D01*
X88283566Y-118405671D01*
X88212783Y-118400168D01*
X88153705Y-118353754D01*
X88139179Y-118332618D01*
X88139178Y-118332616D01*
X88134877Y-118326359D01*
X88129200Y-118321301D01*
X88012513Y-118217336D01*
X88012510Y-118217334D01*
X88006841Y-118212283D01*
X87998845Y-118208049D01*
X87931480Y-118172381D01*
X87855289Y-118132040D01*
X87834141Y-118126728D01*
X87696342Y-118092115D01*
X87696338Y-118092115D01*
X87688971Y-118090264D01*
X87681373Y-118090224D01*
X87681371Y-118090224D01*
X87679747Y-118090216D01*
X87679024Y-118090212D01*
X87677381Y-118089720D01*
X87673840Y-118089273D01*
X87673915Y-118088683D01*
X87611009Y-118069854D01*
X87564797Y-118015956D01*
X87562520Y-117999506D01*
X87532433Y-118062741D01*
X87467929Y-118101264D01*
X87358123Y-118127626D01*
X87358121Y-118127627D01*
X87350743Y-118129398D01*
X87198359Y-118208049D01*
X87069135Y-118320779D01*
X86970530Y-118461079D01*
X86941740Y-118534921D01*
X86911546Y-118612365D01*
X86908238Y-118620849D01*
X86907246Y-118628382D01*
X86907246Y-118628383D01*
X86905600Y-118640883D01*
X86898866Y-118692041D01*
X86898626Y-118693863D01*
X86869904Y-118758790D01*
X86862799Y-118766512D01*
X85599180Y-120030130D01*
X85591568Y-120044071D01*
X85591699Y-120045906D01*
X85595950Y-120052520D01*
X87087279Y-121543848D01*
X87100541Y-121551090D01*
X87110645Y-121543902D01*
X87176597Y-121464181D01*
X87181251Y-121457775D01*
X87339355Y-121208643D01*
X87343167Y-121201710D01*
X87468799Y-120934727D01*
X87471714Y-120927364D01*
X87562893Y-120646745D01*
X87564864Y-120639068D01*
X87620152Y-120349237D01*
X87621145Y-120341376D01*
X87639672Y-120046898D01*
X87639672Y-120038982D01*
X87621145Y-119744504D01*
X87620152Y-119736643D01*
X87603406Y-119648856D01*
X87610289Y-119578194D01*
X87654282Y-119522471D01*
X87699044Y-119502426D01*
X87833879Y-119471545D01*
X87833880Y-119471545D01*
X87841279Y-119469850D01*
X87994478Y-119392799D01*
X88000251Y-119387868D01*
X88000256Y-119387865D01*
X88109330Y-119294707D01*
X88174119Y-119265676D01*
X88244319Y-119276281D01*
X88297642Y-119323156D01*
X88309486Y-119347217D01*
X88327585Y-119396675D01*
X88378284Y-119472123D01*
X88393520Y-119505635D01*
X88393850Y-119508139D01*
X88421629Y-119575202D01*
X88452766Y-119650375D01*
X88457791Y-119656923D01*
X88457794Y-119656929D01*
X88476943Y-119681884D01*
X88541460Y-119765965D01*
X88541465Y-119765970D01*
X88546487Y-119772515D01*
X88553033Y-119777538D01*
X88553036Y-119777541D01*
X88570609Y-119791025D01*
X88583001Y-119801893D01*
X89174098Y-120392990D01*
X89184965Y-120405381D01*
X89203472Y-120429500D01*
X89255813Y-120469662D01*
X89325612Y-120523221D01*
X89383407Y-120547160D01*
X89467848Y-120582137D01*
X89476032Y-120583214D01*
X89476034Y-120583215D01*
X89582161Y-120597187D01*
X89582166Y-120597187D01*
X89620485Y-120602232D01*
X89628673Y-120601154D01*
X89650618Y-120598265D01*
X89667064Y-120597187D01*
X98322538Y-120597187D01*
X98390659Y-120617189D01*
X98437152Y-120670845D01*
X98440860Y-120679877D01*
X98482505Y-120793677D01*
X98578150Y-120936011D01*
X98704985Y-121051422D01*
X98717999Y-121058488D01*
X98816193Y-121111803D01*
X98866515Y-121161886D01*
X98881771Y-121231224D01*
X98857119Y-121297803D01*
X98813861Y-121334500D01*
X98802463Y-121340383D01*
X98719799Y-121383049D01*
X98714080Y-121388038D01*
X98712795Y-121389159D01*
X98590575Y-121495779D01*
X98491970Y-121636079D01*
X98477703Y-121672673D01*
X98432798Y-121787847D01*
X98429678Y-121795849D01*
X98428686Y-121803382D01*
X98428686Y-121803383D01*
X98420800Y-121863286D01*
X98392078Y-121928213D01*
X98332813Y-121967305D01*
X98295878Y-121972840D01*
X95191689Y-121972840D01*
X95123568Y-121952838D01*
X95077075Y-121899182D01*
X95066971Y-121828908D01*
X95067002Y-121828755D01*
X95067101Y-121828510D01*
X95070253Y-121806367D01*
X95090682Y-121662821D01*
X95090682Y-121662817D01*
X95091263Y-121658737D01*
X95091420Y-121643790D01*
X95085325Y-121593422D01*
X95071731Y-121481089D01*
X95071730Y-121481086D01*
X95070818Y-121473548D01*
X95061740Y-121449522D01*
X95012887Y-121320237D01*
X95010203Y-121313134D01*
X94953908Y-121231224D01*
X94917375Y-121178068D01*
X94917374Y-121178066D01*
X94913073Y-121171809D01*
X94907402Y-121166756D01*
X94790709Y-121062786D01*
X94790706Y-121062784D01*
X94785037Y-121057733D01*
X94777041Y-121053499D01*
X94676735Y-121000390D01*
X94633485Y-120977490D01*
X94573071Y-120962315D01*
X94474538Y-120937565D01*
X94474534Y-120937565D01*
X94467167Y-120935714D01*
X94459568Y-120935674D01*
X94459566Y-120935674D01*
X94388110Y-120935300D01*
X94295685Y-120934816D01*
X94288305Y-120936588D01*
X94288303Y-120936588D01*
X94136318Y-120973076D01*
X94136314Y-120973077D01*
X94128939Y-120974848D01*
X93976555Y-121053499D01*
X93847331Y-121166229D01*
X93748726Y-121306529D01*
X93741500Y-121325063D01*
X93735046Y-121341616D01*
X93691665Y-121397818D01*
X93624786Y-121421644D01*
X93555642Y-121405530D01*
X93506186Y-121354593D01*
X93499787Y-121340383D01*
X93482332Y-121294189D01*
X93482331Y-121294187D01*
X93479647Y-121287084D01*
X93464033Y-121264366D01*
X93386819Y-121152018D01*
X93386818Y-121152016D01*
X93382517Y-121145759D01*
X93376335Y-121140251D01*
X93260153Y-121036736D01*
X93260150Y-121036734D01*
X93254481Y-121031683D01*
X93246485Y-121027449D01*
X93190537Y-120997826D01*
X93102929Y-120951440D01*
X93085356Y-120947026D01*
X92943982Y-120911515D01*
X92943978Y-120911515D01*
X92936611Y-120909664D01*
X92929012Y-120909624D01*
X92929010Y-120909624D01*
X92857554Y-120909250D01*
X92765129Y-120908766D01*
X92757749Y-120910538D01*
X92757747Y-120910538D01*
X92605762Y-120947026D01*
X92605758Y-120947027D01*
X92598383Y-120948798D01*
X92445999Y-121027449D01*
X92316775Y-121140179D01*
X92218170Y-121280479D01*
X92191941Y-121347753D01*
X92163132Y-121421644D01*
X92155878Y-121440249D01*
X92154886Y-121447782D01*
X92154886Y-121447783D01*
X92134715Y-121601000D01*
X92133495Y-121610266D01*
X92139297Y-121662821D01*
X92150895Y-121767868D01*
X92152313Y-121780715D01*
X92154923Y-121787847D01*
X92160666Y-121803541D01*
X92165291Y-121874386D01*
X92130880Y-121936486D01*
X92068358Y-121970124D01*
X92042339Y-121972840D01*
X91708928Y-121972840D01*
X91640807Y-121952838D01*
X91594314Y-121899182D01*
X91584185Y-121829086D01*
X91584211Y-121828908D01*
X91604907Y-121683487D01*
X91605064Y-121668540D01*
X91589981Y-121543902D01*
X91585375Y-121505839D01*
X91585374Y-121505836D01*
X91584462Y-121498298D01*
X91577960Y-121481089D01*
X91526531Y-121344987D01*
X91523847Y-121337884D01*
X91483837Y-121279669D01*
X91431019Y-121202818D01*
X91431018Y-121202816D01*
X91426717Y-121196559D01*
X91421046Y-121191506D01*
X91304353Y-121087536D01*
X91304350Y-121087534D01*
X91298681Y-121082483D01*
X91290685Y-121078249D01*
X91164172Y-121011264D01*
X91147129Y-121002240D01*
X91129556Y-120997826D01*
X90988182Y-120962315D01*
X90988178Y-120962315D01*
X90980811Y-120960464D01*
X90973212Y-120960424D01*
X90973210Y-120960424D01*
X90901754Y-120960050D01*
X90809329Y-120959566D01*
X90801949Y-120961338D01*
X90801947Y-120961338D01*
X90649962Y-120997826D01*
X90649958Y-120997827D01*
X90642583Y-120999598D01*
X90490199Y-121078249D01*
X90360975Y-121190979D01*
X90262370Y-121331279D01*
X90237219Y-121395787D01*
X90209728Y-121466299D01*
X90200078Y-121491049D01*
X90199086Y-121498582D01*
X90199086Y-121498583D01*
X90180985Y-121636079D01*
X90177695Y-121661066D01*
X90189485Y-121767859D01*
X90196513Y-121831515D01*
X90193539Y-121831843D01*
X90190368Y-121888983D01*
X90148734Y-121946490D01*
X90082618Y-121972359D01*
X90071625Y-121972840D01*
X89785758Y-121972840D01*
X89717637Y-121952838D01*
X89671144Y-121899182D01*
X89661015Y-121829086D01*
X89661041Y-121828908D01*
X89674507Y-121734287D01*
X89674581Y-121727197D01*
X89674621Y-121723473D01*
X89674621Y-121723467D01*
X89674664Y-121719340D01*
X89668516Y-121668540D01*
X89654975Y-121556639D01*
X89654974Y-121556636D01*
X89654062Y-121549098D01*
X89643505Y-121521158D01*
X89596131Y-121395787D01*
X89593447Y-121388684D01*
X89553994Y-121331279D01*
X89500619Y-121253618D01*
X89500618Y-121253616D01*
X89496317Y-121247359D01*
X89490646Y-121242306D01*
X89373953Y-121138336D01*
X89373950Y-121138334D01*
X89368281Y-121133283D01*
X89360285Y-121129049D01*
X89223441Y-121056594D01*
X89223442Y-121056594D01*
X89216729Y-121053040D01*
X89189944Y-121046312D01*
X89057782Y-121013115D01*
X89057778Y-121013115D01*
X89050411Y-121011264D01*
X89042812Y-121011224D01*
X89042810Y-121011224D01*
X88971354Y-121010850D01*
X88878929Y-121010366D01*
X88871549Y-121012138D01*
X88871547Y-121012138D01*
X88719562Y-121048626D01*
X88719558Y-121048627D01*
X88712183Y-121050398D01*
X88559799Y-121129049D01*
X88430575Y-121241779D01*
X88331970Y-121382079D01*
X88325834Y-121397818D01*
X88289428Y-121491194D01*
X88269678Y-121541849D01*
X88268686Y-121549382D01*
X88268686Y-121549383D01*
X88248565Y-121702222D01*
X88247295Y-121711866D01*
X88260173Y-121828510D01*
X88260670Y-121833013D01*
X88248264Y-121902918D01*
X88200034Y-121955018D01*
X88135431Y-121972840D01*
X86841749Y-121972840D01*
X86773628Y-121952838D01*
X86730735Y-121906437D01*
X86729911Y-121904902D01*
X84867950Y-120042940D01*
X83367039Y-118542030D01*
X83328158Y-118520799D01*
X83312079Y-118517302D01*
X83261875Y-118467102D01*
X83246460Y-118406712D01*
X83246460Y-114275695D01*
X83247960Y-114256312D01*
X83250270Y-114241478D01*
X83250270Y-114241474D01*
X83251651Y-114232604D01*
X83249812Y-114218541D01*
X83249136Y-114192321D01*
X83250690Y-114172569D01*
X83261309Y-114037604D01*
X83264400Y-114018090D01*
X83306273Y-113843659D01*
X83312380Y-113824860D01*
X83322418Y-113800626D01*
X83373719Y-113676766D01*
X83381026Y-113659124D01*
X83390002Y-113641508D01*
X83451825Y-113540616D01*
X83483725Y-113488558D01*
X83495343Y-113472566D01*
X83501585Y-113465258D01*
X83611838Y-113336162D01*
X83625819Y-113322181D01*
X83762222Y-113205677D01*
X83778217Y-113194055D01*
X83931157Y-113100329D01*
X83948773Y-113091353D01*
X84114503Y-113022700D01*
X84133306Y-113016590D01*
X84216199Y-112996687D01*
X84307733Y-112974710D01*
X84327260Y-112971617D01*
X84474613Y-112960016D01*
X84491847Y-112960670D01*
X84491849Y-112960540D01*
X84500822Y-112960649D01*
X84509696Y-112962031D01*
X84541251Y-112957904D01*
X84557592Y-112956840D01*
X85469663Y-112956840D01*
X85537784Y-112976842D01*
G37*
%TD.AperFunction*%
%TA.AperFunction,Conductor*%
G36*
X101352743Y-121155481D02*
G01*
X101388971Y-121216539D01*
X101386437Y-121287490D01*
X101374316Y-121313537D01*
X101296178Y-121441040D01*
X101284559Y-121457031D01*
X101199483Y-121556639D01*
X101168066Y-121593422D01*
X101154087Y-121607401D01*
X101017677Y-121723901D01*
X101001704Y-121735506D01*
X100848748Y-121829232D01*
X100831139Y-121838203D01*
X100666399Y-121906437D01*
X100665416Y-121906844D01*
X100646610Y-121912953D01*
X100639438Y-121914675D01*
X100628850Y-121917216D01*
X100557942Y-121913665D01*
X100500211Y-121872342D01*
X100473985Y-121806367D01*
X100474700Y-121776943D01*
X100484166Y-121710431D01*
X100484166Y-121710427D01*
X100484747Y-121706347D01*
X100484904Y-121691400D01*
X100475990Y-121617740D01*
X100465215Y-121528699D01*
X100465214Y-121528696D01*
X100464302Y-121521158D01*
X100458514Y-121505839D01*
X100406371Y-121367847D01*
X100403687Y-121360744D01*
X100398134Y-121352664D01*
X100397632Y-121351131D01*
X100395866Y-121347753D01*
X100396429Y-121347459D01*
X100376037Y-121285194D01*
X100393925Y-121216488D01*
X100446119Y-121168359D01*
X100501977Y-121155301D01*
X100997821Y-121155301D01*
X101014268Y-121156379D01*
X101044399Y-121160346D01*
X101082718Y-121155301D01*
X101082723Y-121155301D01*
X101188848Y-121141329D01*
X101197036Y-121140251D01*
X101218668Y-121131291D01*
X101289256Y-121123702D01*
X101352743Y-121155481D01*
G37*
%TD.AperFunction*%
%TA.AperFunction,Conductor*%
G36*
X100776552Y-113068788D02*
G01*
X100831151Y-113091403D01*
X100848766Y-113100378D01*
X100863853Y-113109623D01*
X101001707Y-113194099D01*
X101017703Y-113205720D01*
X101154106Y-113322218D01*
X101168082Y-113336194D01*
X101263648Y-113448089D01*
X101284580Y-113472597D01*
X101296201Y-113488593D01*
X101366661Y-113603574D01*
X101389921Y-113641532D01*
X101398897Y-113659148D01*
X101448596Y-113779135D01*
X101467539Y-113824869D01*
X101473646Y-113843664D01*
X101515517Y-114018081D01*
X101515519Y-114018090D01*
X101518612Y-114037619D01*
X101530232Y-114185315D01*
X101529591Y-114202206D01*
X101529760Y-114202208D01*
X101529650Y-114211181D01*
X101528269Y-114220052D01*
X101529433Y-114228954D01*
X101532397Y-114251627D01*
X101533460Y-114267961D01*
X101533460Y-118477907D01*
X101513458Y-118546028D01*
X101459802Y-118592521D01*
X101389528Y-118602625D01*
X101376792Y-118600117D01*
X101376784Y-118600116D01*
X101369411Y-118598264D01*
X101361812Y-118598224D01*
X101361810Y-118598224D01*
X101290354Y-118597850D01*
X101197929Y-118597366D01*
X101190549Y-118599138D01*
X101190547Y-118599138D01*
X101138598Y-118611610D01*
X101031183Y-118637398D01*
X101024430Y-118640883D01*
X101024431Y-118640883D01*
X100994072Y-118656552D01*
X100924365Y-118670021D01*
X100858441Y-118643665D01*
X100852487Y-118638682D01*
X100822102Y-118611610D01*
X100814106Y-118607376D01*
X100708871Y-118551657D01*
X100670550Y-118531367D01*
X100614555Y-118517302D01*
X100511603Y-118491442D01*
X100511599Y-118491442D01*
X100504232Y-118489591D01*
X100496633Y-118489551D01*
X100496631Y-118489551D01*
X100425175Y-118489177D01*
X100332750Y-118488693D01*
X100325370Y-118490465D01*
X100325368Y-118490465D01*
X100173383Y-118526953D01*
X100173379Y-118526954D01*
X100166004Y-118528725D01*
X100013620Y-118607376D01*
X99884396Y-118720106D01*
X99785791Y-118860406D01*
X99754645Y-118940291D01*
X99727321Y-119010374D01*
X99723499Y-119020176D01*
X99701116Y-119190193D01*
X99718323Y-119346047D01*
X99705917Y-119415949D01*
X99657688Y-119468049D01*
X99588947Y-119485804D01*
X99544866Y-119476281D01*
X99471754Y-119445997D01*
X99471751Y-119445996D01*
X99464124Y-119442837D01*
X99455936Y-119441759D01*
X99349811Y-119427787D01*
X99349806Y-119427787D01*
X99311487Y-119422742D01*
X99303299Y-119423820D01*
X99281354Y-119426709D01*
X99264908Y-119427787D01*
X97466713Y-119427787D01*
X97398592Y-119407785D01*
X97352099Y-119354129D01*
X97341995Y-119283855D01*
X97349806Y-119254791D01*
X97370970Y-119202145D01*
X97370973Y-119202134D01*
X97373803Y-119195094D01*
X97384155Y-119122355D01*
X97397384Y-119029405D01*
X97397384Y-119029401D01*
X97397965Y-119025321D01*
X97398122Y-119010374D01*
X97392185Y-118961315D01*
X97378433Y-118847673D01*
X97378432Y-118847670D01*
X97377520Y-118840132D01*
X97374788Y-118832900D01*
X97319589Y-118686821D01*
X97316905Y-118679718D01*
X97300983Y-118656552D01*
X97224077Y-118544652D01*
X97224076Y-118544650D01*
X97219775Y-118538393D01*
X97212831Y-118532206D01*
X97097411Y-118429370D01*
X97097408Y-118429368D01*
X97091739Y-118424317D01*
X97045843Y-118400016D01*
X96995001Y-118350464D01*
X96979020Y-118281289D01*
X96980061Y-118270910D01*
X96990791Y-118195518D01*
X96990791Y-118195515D01*
X96991372Y-118191434D01*
X96991482Y-118180980D01*
X96991486Y-118180620D01*
X96991486Y-118180614D01*
X96991529Y-118176487D01*
X96985926Y-118130190D01*
X96971840Y-118013786D01*
X96971839Y-118013783D01*
X96970927Y-118006245D01*
X96967030Y-117995930D01*
X96912996Y-117852934D01*
X96910312Y-117845831D01*
X96881163Y-117803419D01*
X96817484Y-117710765D01*
X96817483Y-117710763D01*
X96813182Y-117704506D01*
X96796156Y-117689336D01*
X96690818Y-117595483D01*
X96690815Y-117595481D01*
X96685146Y-117590430D01*
X96533594Y-117510187D01*
X96412166Y-117479687D01*
X96350971Y-117443692D01*
X96344468Y-117435614D01*
X96340853Y-117431514D01*
X96336551Y-117425254D01*
X96330880Y-117420201D01*
X96214187Y-117316231D01*
X96214184Y-117316229D01*
X96208515Y-117311178D01*
X96200519Y-117306944D01*
X96063675Y-117234489D01*
X96063676Y-117234489D01*
X96056963Y-117230935D01*
X96011522Y-117219521D01*
X95898016Y-117191010D01*
X95898012Y-117191010D01*
X95890645Y-117189159D01*
X95883046Y-117189119D01*
X95883044Y-117189119D01*
X95811588Y-117188745D01*
X95719163Y-117188261D01*
X95711783Y-117190033D01*
X95711781Y-117190033D01*
X95559796Y-117226521D01*
X95559792Y-117226522D01*
X95552417Y-117228293D01*
X95400033Y-117306944D01*
X95270809Y-117419674D01*
X95172204Y-117559974D01*
X95152041Y-117611689D01*
X95113413Y-117710765D01*
X95109912Y-117719744D01*
X95108920Y-117727277D01*
X95108920Y-117727278D01*
X95089643Y-117873704D01*
X95087529Y-117889761D01*
X95096540Y-117971379D01*
X95104348Y-118042100D01*
X95106347Y-118060210D01*
X95117128Y-118089672D01*
X95121755Y-118160514D01*
X95087345Y-118222615D01*
X95081630Y-118227920D01*
X95063770Y-118243500D01*
X94999288Y-118273207D01*
X94928981Y-118263337D01*
X94891847Y-118237646D01*
X94691662Y-118037462D01*
X94680794Y-118025069D01*
X94667317Y-118007505D01*
X94662291Y-118000955D01*
X94584664Y-117941391D01*
X94540151Y-117907234D01*
X94497967Y-117889761D01*
X94397915Y-117848318D01*
X94389727Y-117847240D01*
X94283602Y-117833268D01*
X94283597Y-117833268D01*
X94245278Y-117828223D01*
X94237090Y-117829301D01*
X94215145Y-117832190D01*
X94198699Y-117833268D01*
X91996214Y-117833268D01*
X91928093Y-117813266D01*
X91881600Y-117759610D01*
X91871496Y-117689336D01*
X91893892Y-117633741D01*
X91980002Y-117513908D01*
X91980003Y-117513907D01*
X91984434Y-117507740D01*
X92048395Y-117348630D01*
X92053006Y-117316231D01*
X92071976Y-117182941D01*
X92071977Y-117182932D01*
X92072557Y-117178857D01*
X92072631Y-117171767D01*
X92072671Y-117168043D01*
X92072671Y-117168037D01*
X92072714Y-117163910D01*
X92065899Y-117107598D01*
X92053025Y-117001209D01*
X92053024Y-117001206D01*
X92052112Y-116993668D01*
X92047396Y-116981186D01*
X91994181Y-116840357D01*
X91991497Y-116833254D01*
X91974195Y-116808079D01*
X91898669Y-116698188D01*
X91898668Y-116698186D01*
X91894367Y-116691929D01*
X91888441Y-116686649D01*
X91772003Y-116582906D01*
X91772000Y-116582904D01*
X91766331Y-116577853D01*
X91758335Y-116573619D01*
X91621491Y-116501164D01*
X91621492Y-116501164D01*
X91614779Y-116497610D01*
X91593416Y-116492244D01*
X91455832Y-116457685D01*
X91455828Y-116457685D01*
X91448461Y-116455834D01*
X91440862Y-116455794D01*
X91440860Y-116455794D01*
X91369404Y-116455420D01*
X91276979Y-116454936D01*
X91269599Y-116456708D01*
X91269597Y-116456708D01*
X91117612Y-116493196D01*
X91117608Y-116493197D01*
X91110233Y-116494968D01*
X90957849Y-116573619D01*
X90828625Y-116686349D01*
X90730020Y-116826649D01*
X90698874Y-116906534D01*
X90671761Y-116976076D01*
X90667728Y-116986419D01*
X90666736Y-116993952D01*
X90666736Y-116993953D01*
X90646796Y-117145416D01*
X90645345Y-117156436D01*
X90652026Y-117216947D01*
X90662987Y-117316231D01*
X90664163Y-117326885D01*
X90666772Y-117334016D01*
X90666773Y-117334018D01*
X90674171Y-117354234D01*
X90723095Y-117487925D01*
X90727332Y-117494231D01*
X90727334Y-117494234D01*
X90740555Y-117513908D01*
X90818740Y-117630259D01*
X90824356Y-117635369D01*
X90932425Y-117733704D01*
X90945575Y-117745670D01*
X91002558Y-117776609D01*
X91060713Y-117808185D01*
X91111035Y-117858268D01*
X91126291Y-117927606D01*
X91101639Y-117994185D01*
X91044904Y-118036867D01*
X90974101Y-118042100D01*
X90955802Y-118036655D01*
X90949304Y-118033215D01*
X90941938Y-118031365D01*
X90941936Y-118031364D01*
X90790357Y-117993290D01*
X90790353Y-117993290D01*
X90782986Y-117991439D01*
X90775387Y-117991399D01*
X90775385Y-117991399D01*
X90703929Y-117991025D01*
X90611504Y-117990541D01*
X90604124Y-117992313D01*
X90604122Y-117992313D01*
X90452137Y-118028801D01*
X90452133Y-118028802D01*
X90444758Y-118030573D01*
X90292374Y-118109224D01*
X90163150Y-118221954D01*
X90064545Y-118362254D01*
X90035148Y-118437652D01*
X90011815Y-118497500D01*
X90002253Y-118522024D01*
X90001261Y-118529557D01*
X90001261Y-118529558D01*
X89986239Y-118643665D01*
X89979870Y-118692041D01*
X89980704Y-118699592D01*
X89985994Y-118747514D01*
X89973588Y-118817418D01*
X89925358Y-118869518D01*
X89890169Y-118883859D01*
X89777614Y-118910881D01*
X89706706Y-118907334D01*
X89648972Y-118866014D01*
X89630334Y-118832900D01*
X89598671Y-118749107D01*
X89595987Y-118742004D01*
X89521535Y-118633675D01*
X89499435Y-118566207D01*
X89517320Y-118497500D01*
X89543544Y-118466499D01*
X89551939Y-118459329D01*
X89551941Y-118459327D01*
X89557719Y-118454392D01*
X89575700Y-118429370D01*
X89653356Y-118321301D01*
X89653357Y-118321300D01*
X89657788Y-118315133D01*
X89721749Y-118156023D01*
X89723829Y-118141411D01*
X89745330Y-117990334D01*
X89745330Y-117990330D01*
X89745911Y-117986250D01*
X89746068Y-117971303D01*
X89732806Y-117861712D01*
X89726379Y-117808602D01*
X89726378Y-117808599D01*
X89725466Y-117801061D01*
X89716227Y-117776609D01*
X89667535Y-117647750D01*
X89664851Y-117640647D01*
X89577631Y-117513741D01*
X89572023Y-117505581D01*
X89572022Y-117505579D01*
X89567721Y-117499322D01*
X89562050Y-117494269D01*
X89445357Y-117390299D01*
X89445354Y-117390297D01*
X89439685Y-117385246D01*
X89391216Y-117359583D01*
X89340374Y-117310032D01*
X89324392Y-117240858D01*
X89333269Y-117201234D01*
X89358835Y-117137635D01*
X89358836Y-117137632D01*
X89361669Y-117130584D01*
X89366128Y-117099255D01*
X89385250Y-116964895D01*
X89385250Y-116964891D01*
X89385831Y-116960811D01*
X89385988Y-116945864D01*
X89374865Y-116853953D01*
X89366299Y-116783163D01*
X89366298Y-116783160D01*
X89365386Y-116775622D01*
X89337375Y-116701491D01*
X89307455Y-116622311D01*
X89304771Y-116615208D01*
X89261716Y-116552563D01*
X89256715Y-116545286D01*
X89234615Y-116477817D01*
X89252501Y-116409110D01*
X89283850Y-116373957D01*
X89338221Y-116332236D01*
X89338222Y-116332235D01*
X89400833Y-116284193D01*
X89405859Y-116277643D01*
X89405863Y-116277639D01*
X89419343Y-116260071D01*
X89430211Y-116247679D01*
X89613285Y-116064605D01*
X89675597Y-116030579D01*
X89702380Y-116027700D01*
X90251330Y-116027700D01*
X90267777Y-116028778D01*
X90297908Y-116032745D01*
X90336227Y-116027700D01*
X90336232Y-116027700D01*
X90442357Y-116013728D01*
X90450545Y-116012650D01*
X90518466Y-115984516D01*
X90547737Y-115977083D01*
X90548214Y-115977090D01*
X90715371Y-115938806D01*
X90868570Y-115861755D01*
X90874341Y-115856826D01*
X90874344Y-115856824D01*
X90993190Y-115755319D01*
X90998967Y-115750385D01*
X91099036Y-115611126D01*
X91162997Y-115452016D01*
X91166295Y-115453342D01*
X91194547Y-115406295D01*
X91258201Y-115374852D01*
X91308440Y-115377077D01*
X91309823Y-115377650D01*
X91318007Y-115378727D01*
X91318009Y-115378728D01*
X91424136Y-115392700D01*
X91424141Y-115392700D01*
X91462460Y-115397745D01*
X91470648Y-115396667D01*
X91470649Y-115396667D01*
X91492593Y-115393778D01*
X91509039Y-115392700D01*
X95555300Y-115392700D01*
X95623421Y-115412702D01*
X95669914Y-115466358D01*
X95681300Y-115518700D01*
X95681300Y-116158422D01*
X95680222Y-116174869D01*
X95676255Y-116205000D01*
X95677333Y-116213188D01*
X95681300Y-116243319D01*
X95681300Y-116243321D01*
X95690847Y-116315834D01*
X95696350Y-116357637D01*
X95728961Y-116436366D01*
X95755266Y-116499873D01*
X95760294Y-116506426D01*
X95760295Y-116506427D01*
X95765473Y-116513176D01*
X95843960Y-116615463D01*
X95843964Y-116615467D01*
X95848987Y-116622013D01*
X95855533Y-116627036D01*
X95855536Y-116627039D01*
X95873109Y-116640523D01*
X95885501Y-116651391D01*
X96073613Y-116839503D01*
X96084480Y-116851894D01*
X96102987Y-116876013D01*
X96180614Y-116935577D01*
X96225127Y-116969734D01*
X96263429Y-116985599D01*
X96367363Y-117028650D01*
X96375551Y-117029728D01*
X96481676Y-117043700D01*
X96481681Y-117043700D01*
X96520000Y-117048745D01*
X96528188Y-117047667D01*
X96550133Y-117044778D01*
X96566579Y-117043700D01*
X97743422Y-117043700D01*
X97759869Y-117044778D01*
X97790000Y-117048745D01*
X97828319Y-117043700D01*
X97828324Y-117043700D01*
X97934449Y-117029728D01*
X97942637Y-117028650D01*
X98046571Y-116985599D01*
X98084873Y-116969734D01*
X98129386Y-116935577D01*
X98207013Y-116876013D01*
X98212039Y-116869463D01*
X98212043Y-116869459D01*
X98225523Y-116851891D01*
X98236391Y-116839499D01*
X98541982Y-116533908D01*
X98604294Y-116499882D01*
X98675109Y-116504947D01*
X98731945Y-116547494D01*
X98756316Y-116609176D01*
X98763329Y-116672702D01*
X98765938Y-116679833D01*
X98765939Y-116679835D01*
X98773864Y-116701491D01*
X98822261Y-116833742D01*
X98826498Y-116840048D01*
X98826500Y-116840051D01*
X98850666Y-116876013D01*
X98917906Y-116976076D01*
X99044741Y-117091487D01*
X99195444Y-117173312D01*
X99361315Y-117216828D01*
X99448762Y-117218201D01*
X99525179Y-117219402D01*
X99525182Y-117219402D01*
X99532778Y-117219521D01*
X99540182Y-117217825D01*
X99540184Y-117217825D01*
X99644130Y-117194018D01*
X99699935Y-117181237D01*
X99853134Y-117104186D01*
X99858905Y-117099257D01*
X99858908Y-117099255D01*
X99977754Y-116997750D01*
X99983531Y-116992816D01*
X100063259Y-116881864D01*
X100079168Y-116859725D01*
X100079169Y-116859724D01*
X100083600Y-116853557D01*
X100147561Y-116694447D01*
X100149424Y-116681357D01*
X100160750Y-116601777D01*
X100190151Y-116537154D01*
X100249822Y-116498686D01*
X100264396Y-116495794D01*
X100265866Y-116495817D01*
X100433023Y-116457533D01*
X100586222Y-116380482D01*
X100591993Y-116375553D01*
X100591996Y-116375551D01*
X100710842Y-116274046D01*
X100716619Y-116269112D01*
X100816688Y-116129853D01*
X100880649Y-115970743D01*
X100904811Y-115800970D01*
X100904968Y-115786023D01*
X100884366Y-115615781D01*
X100847683Y-115518700D01*
X100826435Y-115462470D01*
X100823751Y-115455367D01*
X100790025Y-115406295D01*
X100730923Y-115320301D01*
X100730922Y-115320299D01*
X100726621Y-115314042D01*
X100605352Y-115205995D01*
X100604257Y-115205019D01*
X100604254Y-115205017D01*
X100598585Y-115199966D01*
X100559766Y-115179412D01*
X100462048Y-115127673D01*
X100411204Y-115078120D01*
X100395223Y-115008946D01*
X100419177Y-114942112D01*
X100439176Y-114920508D01*
X100548550Y-114827093D01*
X100554327Y-114822159D01*
X100645425Y-114695385D01*
X100649964Y-114689068D01*
X100649965Y-114689067D01*
X100654396Y-114682900D01*
X100718357Y-114523790D01*
X100727316Y-114460840D01*
X100741938Y-114358101D01*
X100741938Y-114358097D01*
X100742519Y-114354017D01*
X100742676Y-114339070D01*
X100730866Y-114241478D01*
X100722987Y-114176369D01*
X100722986Y-114176366D01*
X100722074Y-114168828D01*
X100714825Y-114149642D01*
X100664143Y-114015517D01*
X100661459Y-114008414D01*
X100641345Y-113979148D01*
X100619245Y-113911679D01*
X100628277Y-113860785D01*
X100671556Y-113753124D01*
X100673639Y-113738491D01*
X100695137Y-113587435D01*
X100695137Y-113587431D01*
X100695718Y-113583351D01*
X100695875Y-113568404D01*
X100688723Y-113509301D01*
X100676186Y-113405703D01*
X100676185Y-113405700D01*
X100675273Y-113398162D01*
X100659330Y-113355969D01*
X100617342Y-113244850D01*
X100617341Y-113244847D01*
X100616429Y-113242433D01*
X100614658Y-113237748D01*
X100615456Y-113237446D01*
X100602839Y-113173935D01*
X100628850Y-113107875D01*
X100686446Y-113066364D01*
X100757342Y-113062581D01*
X100776552Y-113068788D01*
G37*
%TD.AperFunction*%
%TA.AperFunction,Conductor*%
G36*
X98262131Y-112976842D02*
G01*
X98308624Y-113030498D01*
X98318728Y-113100772D01*
X98297096Y-113155291D01*
X98267742Y-113197057D01*
X98267739Y-113197063D01*
X98263370Y-113203279D01*
X98232224Y-113283164D01*
X98210567Y-113338712D01*
X98201078Y-113363049D01*
X98200086Y-113370582D01*
X98200086Y-113370583D01*
X98180039Y-113522859D01*
X98178695Y-113533066D01*
X98184867Y-113588967D01*
X98194713Y-113678149D01*
X98197513Y-113703515D01*
X98200122Y-113710646D01*
X98200123Y-113710648D01*
X98212402Y-113744201D01*
X98243853Y-113830146D01*
X98248479Y-113900989D01*
X98214622Y-113962540D01*
X97066592Y-115110570D01*
X97004280Y-115144596D01*
X96933465Y-115139531D01*
X96876629Y-115096984D01*
X96852575Y-115037921D01*
X96847485Y-114999259D01*
X96836728Y-114917551D01*
X96835650Y-114909363D01*
X96791737Y-114803348D01*
X96776734Y-114767127D01*
X96736836Y-114715131D01*
X96711236Y-114648914D01*
X96725500Y-114579365D01*
X96731851Y-114568702D01*
X96766685Y-114516272D01*
X96796603Y-114471242D01*
X96861015Y-114301678D01*
X96871236Y-114228954D01*
X96885708Y-114125979D01*
X96885708Y-114125976D01*
X96886259Y-114122057D01*
X96886576Y-114099340D01*
X96866357Y-113919085D01*
X96863971Y-113912234D01*
X96809024Y-113754446D01*
X96809022Y-113754443D01*
X96806705Y-113747788D01*
X96710586Y-113593964D01*
X96705624Y-113588967D01*
X96607828Y-113490486D01*
X96574021Y-113428055D01*
X96579333Y-113357258D01*
X96589268Y-113338712D01*
X96588692Y-113338395D01*
X96592352Y-113331738D01*
X96596784Y-113325570D01*
X96660745Y-113166460D01*
X96675173Y-113065086D01*
X96704572Y-113000464D01*
X96764243Y-112961995D01*
X96799915Y-112956840D01*
X98194010Y-112956840D01*
X98262131Y-112976842D01*
G37*
%TD.AperFunction*%
%TA.AperFunction,Conductor*%
G36*
X95211037Y-112976842D02*
G01*
X95257530Y-113030498D01*
X95268155Y-113069013D01*
X95274735Y-113128609D01*
X95276513Y-113144715D01*
X95279122Y-113151846D01*
X95279123Y-113151848D01*
X95285099Y-113168177D01*
X95335445Y-113305755D01*
X95339682Y-113312061D01*
X95339684Y-113312064D01*
X95426852Y-113441783D01*
X95426854Y-113441786D01*
X95427190Y-113442285D01*
X95431090Y-113448089D01*
X95430122Y-113448739D01*
X95456449Y-113506689D01*
X95446206Y-113576943D01*
X95437612Y-113592623D01*
X95344195Y-113737578D01*
X95341786Y-113744198D01*
X95341784Y-113744201D01*
X95305579Y-113843674D01*
X95282157Y-113908025D01*
X95259423Y-114087980D01*
X95260111Y-114094996D01*
X95260054Y-114099061D01*
X95239102Y-114166896D01*
X95184801Y-114212634D01*
X95134066Y-114223300D01*
X94449516Y-114223300D01*
X94381395Y-114203298D01*
X94334902Y-114149642D01*
X94324798Y-114079368D01*
X94354292Y-114014788D01*
X94392902Y-113984735D01*
X94402021Y-113980149D01*
X94537528Y-113911996D01*
X94543299Y-113907067D01*
X94543302Y-113907065D01*
X94662148Y-113805560D01*
X94667925Y-113800626D01*
X94756929Y-113676766D01*
X94763562Y-113667535D01*
X94763563Y-113667534D01*
X94767994Y-113661367D01*
X94831955Y-113502257D01*
X94841997Y-113431699D01*
X94855536Y-113336568D01*
X94855536Y-113336564D01*
X94856117Y-113332484D01*
X94856225Y-113322215D01*
X94856231Y-113321670D01*
X94856231Y-113321664D01*
X94856274Y-113317537D01*
X94851828Y-113280799D01*
X94836585Y-113154836D01*
X94836584Y-113154833D01*
X94835672Y-113147295D01*
X94828146Y-113127378D01*
X94822778Y-113056584D01*
X94856536Y-112994127D01*
X94918702Y-112959835D01*
X94946012Y-112956840D01*
X95142916Y-112956840D01*
X95211037Y-112976842D01*
G37*
%TD.AperFunction*%
%TD*%
D20*
X73797160Y-110500160D03*
D21*
X76298140Y-113339320D03*
D20*
X78975550Y-115590642D03*
X109463840Y-116850160D03*
D22*
X107492042Y-110970060D03*
D21*
X82679540Y-74635360D03*
X72015500Y-95015500D03*
X86627525Y-86537792D03*
X100328357Y-121920011D03*
X88491689Y-90787736D03*
X100553337Y-116203230D03*
X80981202Y-88214700D03*
X86751160Y-116969540D03*
X97267061Y-105020721D03*
X100975160Y-114099340D03*
X79156982Y-91999222D03*
X102133400Y-91389200D03*
X85500000Y-76700000D03*
X99356262Y-117874188D03*
X91690734Y-93248234D03*
X96995953Y-121643790D03*
X96301560Y-105486200D03*
X88623570Y-115431645D03*
D20*
X76078651Y-91857213D03*
D21*
X98247200Y-91389200D03*
X90908243Y-117702730D03*
X84993766Y-113316734D03*
D20*
X95021400Y-83223100D03*
D21*
X93682077Y-112894185D03*
X100838000Y-91389200D03*
X81499115Y-77102619D03*
X87300313Y-81437590D03*
X83860457Y-89777531D03*
X70269100Y-92351350D03*
X99542600Y-91389200D03*
X93522579Y-95703795D03*
X91932760Y-121668540D03*
X82402569Y-82911271D03*
X88350774Y-85656238D03*
X86507320Y-89984580D03*
X95315344Y-113410350D03*
X100111560Y-117629940D03*
X78298140Y-114339320D03*
X77826664Y-112507270D03*
D20*
X105961180Y-110238540D03*
X108424980Y-112798860D03*
X85613403Y-91721097D03*
D21*
X90891360Y-121668540D03*
X88072528Y-86486487D03*
D20*
X69334378Y-94338140D03*
D21*
X74173080Y-94866460D03*
X87914480Y-88508840D03*
X94488000Y-104775000D03*
X94457519Y-105664000D03*
X93247381Y-113352751D03*
X94472615Y-95660351D03*
D20*
X85156213Y-85623651D03*
D21*
X92847160Y-121617740D03*
X78613000Y-109727988D03*
X98892360Y-113540540D03*
X77754897Y-91100057D03*
D20*
X84769960Y-115369340D03*
D21*
X83911440Y-87708740D03*
D20*
X83045195Y-92436208D03*
D21*
X91359010Y-117163910D03*
X94142570Y-113317537D03*
X75872340Y-94096840D03*
X87599520Y-118798340D03*
D20*
X83058421Y-76550861D03*
X85855850Y-84739214D03*
X77330300Y-84927440D03*
X76206885Y-87855638D03*
X76403268Y-90262927D03*
X77431900Y-94513400D03*
D21*
X87847989Y-90074100D03*
D20*
X92633800Y-95123000D03*
D21*
X89077800Y-95808800D03*
D20*
X82677000Y-95631000D03*
D22*
X96072960Y-114099340D03*
D21*
X95971360Y-112981740D03*
X93018953Y-119157130D03*
X95801194Y-117897235D03*
X96277825Y-118176487D03*
X100028972Y-114339070D03*
X99982171Y-113568404D03*
X97160730Y-115843322D03*
X91619818Y-119302121D03*
X96684418Y-119010374D03*
X99118420Y-120469662D03*
X99120960Y-121973340D03*
X96084726Y-118765355D03*
X100330000Y-120142000D03*
X101279960Y-119306340D03*
X88960960Y-121719340D03*
X88963500Y-119072660D03*
X93586232Y-118888084D03*
X90009468Y-119583886D03*
X80856470Y-91265648D03*
D20*
X86417708Y-91211016D03*
X81726017Y-73949937D03*
X83506719Y-86210647D03*
D21*
X85181734Y-91042754D03*
X79936340Y-91607640D03*
X82214495Y-86210647D03*
X81862892Y-91160600D03*
X84675967Y-85037124D03*
X71631412Y-94317089D03*
X88039127Y-87037888D03*
X87756740Y-83819921D03*
X72052180Y-92351350D03*
X73492360Y-92364050D03*
X85227508Y-89980754D03*
X97389989Y-91143989D03*
X83831939Y-90988046D03*
X74599800Y-92250256D03*
X96833773Y-91137911D03*
X95532398Y-118774936D03*
X94377716Y-121643790D03*
X89032364Y-117971303D03*
X94133515Y-119157627D03*
X94685683Y-119141215D03*
X91294268Y-118855829D03*
X91943852Y-118846569D03*
X90693535Y-118699515D03*
X94779140Y-92779727D03*
X95076553Y-91082480D03*
X88434383Y-91528321D03*
X90603190Y-88493600D03*
X86768214Y-91957091D03*
X92982221Y-88771883D03*
X87974930Y-91221627D03*
X90148805Y-91207073D03*
X93758934Y-88338012D03*
X84033092Y-92158827D03*
X93362130Y-91192806D03*
X85037903Y-92205786D03*
X89291594Y-91277627D03*
X90068317Y-88977911D03*
X89017490Y-92248841D03*
X90616294Y-89047772D03*
X86048230Y-83372388D03*
X88285100Y-83981152D03*
X75903399Y-85871477D03*
D22*
X91835729Y-91241835D03*
X91031800Y-91247700D03*
D21*
X75897614Y-86485810D03*
X96635687Y-91997770D03*
X95976562Y-91175035D03*
X95305880Y-92989400D03*
X95536044Y-88672819D03*
X90446886Y-86896579D03*
X83919060Y-88697450D03*
X78397099Y-89598500D03*
X90398600Y-85115400D03*
X77637534Y-90550184D03*
X82542431Y-90899408D03*
X90298379Y-84034510D03*
X92880180Y-92870020D03*
X92982221Y-83940217D03*
X85958865Y-85491483D03*
X82019779Y-88729610D03*
X82691128Y-85566410D03*
X84005988Y-84996587D03*
X93809899Y-91975137D03*
X94220058Y-89184010D03*
X94219342Y-91225417D03*
X95077269Y-89072150D03*
D20*
X77135124Y-89158936D03*
X70167398Y-96461580D03*
D21*
X97421700Y-88900000D03*
X70089987Y-95544640D03*
X74692862Y-93967662D03*
X90020790Y-85725000D03*
X74917300Y-96520000D03*
X96021510Y-88952363D03*
D20*
X78300457Y-85206503D03*
X78219300Y-83732084D03*
D21*
X77208380Y-113680240D03*
X77198140Y-110939320D03*
X90316958Y-113945340D03*
X100191264Y-115786023D03*
X99186611Y-115329915D03*
X85911093Y-113794140D03*
X89633833Y-113740305D03*
X89081422Y-113740407D03*
X88041024Y-116970652D03*
X99189637Y-114777512D03*
X88672284Y-116945864D03*
X87928381Y-113716730D03*
X88244794Y-113263914D03*
X87130989Y-113131951D03*
X85664871Y-114728072D03*
X91169340Y-113908733D03*
X90340454Y-114527991D03*
X86063769Y-115110223D03*
X85506560Y-115547140D03*
X90008368Y-114969441D03*
X90473612Y-115267296D03*
X85172790Y-117023910D03*
D22*
X86398851Y-74577408D03*
X86094042Y-73820020D03*
D21*
X86151720Y-72495620D03*
X109199680Y-114607340D03*
X87516960Y-117145340D03*
X99458176Y-116509727D03*
X99771200Y-121691400D03*
X100414781Y-119197667D03*
X78435348Y-92280991D03*
X86375678Y-87997826D03*
X72212200Y-96494600D03*
X92399731Y-82796769D03*
X91028760Y-94894160D03*
D20*
X74345800Y-89782200D03*
X74345800Y-82582200D03*
X73695800Y-88982200D03*
X72995800Y-88582200D03*
X72995800Y-87782200D03*
X73695800Y-87382200D03*
X72995800Y-86982200D03*
X73695800Y-86582200D03*
X73695800Y-85782200D03*
X72995800Y-85382200D03*
X73695800Y-84982200D03*
X72995800Y-84582200D03*
X72995800Y-83782200D03*
X73695800Y-83382200D03*
D23*
X72945800Y-81582200D03*
X72945800Y-90782200D03*
X69945800Y-81582200D03*
X69945800Y-90782200D03*
D20*
X116713000Y-113538000D03*
X85227160Y-120042940D03*
X80594200Y-93929200D03*
X67818000Y-113538000D03*
D24*
X75846940Y-110954820D03*
X108752640Y-110970060D03*
D20*
X99568000Y-137668000D03*
M02*
