%TF.GenerationSoftware,KiCad,Pcbnew,6.0.11+dfsg-1*%
%TF.CreationDate,2026-05-20T13:10:22+00:00*%
%TF.ProjectId,Lifedatalink_v1_revB_compat,4c696665-6461-4746-916c-696e6b5f7631,rev?*%
%TF.SameCoordinates,Original*%
%TF.FileFunction,Copper,L4,Bot*%
%TF.FilePolarity,Positive*%
%FSLAX46Y46*%
G04 Gerber Fmt 4.6, Leading zero omitted, Abs format (unit mm)*
G04 Created by KiCad (PCBNEW 6.0.11+dfsg-1) date 2026-05-20 13:10:22*
%MOMM*%
%LPD*%
G01*
G04 APERTURE LIST*
G04 Aperture macros list*
%AMRoundRect*
0 Rectangle with rounded corners*
0 $1 Rounding radius*
0 $2 $3 $4 $5 $6 $7 $8 $9 X,Y pos of 4 corners*
0 Add a 4 corners polygon primitive as box body*
4,1,4,$2,$3,$4,$5,$6,$7,$8,$9,$2,$3,0*
0 Add four circle primitives for the rounded corners*
1,1,$1+$1,$2,$3*
1,1,$1+$1,$4,$5*
1,1,$1+$1,$6,$7*
1,1,$1+$1,$8,$9*
0 Add four rect primitives between the rounded corners*
20,1,$1+$1,$2,$3,$4,$5,0*
20,1,$1+$1,$4,$5,$6,$7,0*
20,1,$1+$1,$6,$7,$8,$9,0*
20,1,$1+$1,$8,$9,$2,$3,0*%
G04 Aperture macros list end*
%ADD10RoundRect,0.198500X0.147500X0.172500X-0.147500X0.172500X-0.147500X-0.172500X0.147500X-0.172500X0*%
%ADD11RoundRect,0.198500X-0.172500X0.147500X-0.172500X-0.147500X0.172500X-0.147500X0.172500X0.147500X0*%
%ADD12RoundRect,0.051000X-0.175000X-0.100000X0.175000X-0.100000X0.175000X0.100000X-0.175000X0.100000X0*%
%ADD13RoundRect,0.051000X-0.150000X-0.100000X0.150000X-0.100000X0.150000X0.100000X-0.150000X0.100000X0*%
%ADD14C,0.365000*%
%ADD15RoundRect,0.138500X-0.087500X0.287500X-0.087500X-0.287500X0.087500X-0.287500X0.087500X0.287500X0*%
%ADD16RoundRect,0.198500X0.172500X-0.147500X0.172500X0.147500X-0.172500X0.147500X-0.172500X-0.147500X0*%
%ADD17RoundRect,0.101000X0.300000X0.050000X-0.300000X0.050000X-0.300000X-0.050000X0.300000X-0.050000X0*%
%ADD18RoundRect,0.101000X0.050000X0.300000X-0.050000X0.300000X-0.050000X-0.300000X0.050000X-0.300000X0*%
%ADD19RoundRect,0.301000X1.200000X1.200000X-1.200000X1.200000X-1.200000X-1.200000X1.200000X-1.200000X0*%
%ADD20RoundRect,0.051000X-0.150000X-0.350000X0.150000X-0.350000X0.150000X0.350000X-0.150000X0.350000X0*%
%ADD21RoundRect,0.051000X-0.150000X-0.500000X0.150000X-0.500000X0.150000X0.500000X-0.150000X0.500000X0*%
%ADD22RoundRect,0.051000X0.150000X0.350000X-0.150000X0.350000X-0.150000X-0.350000X0.150000X-0.350000X0*%
%ADD23RoundRect,0.051000X0.150000X0.500000X-0.150000X0.500000X-0.150000X-0.500000X0.150000X-0.500000X0*%
%ADD24RoundRect,0.051000X0.265000X-0.100000X0.265000X0.100000X-0.265000X0.100000X-0.265000X-0.100000X0*%
%ADD25RoundRect,0.198500X-0.147500X-0.172500X0.147500X-0.172500X0.147500X0.172500X-0.147500X0.172500X0*%
%ADD26RoundRect,0.294750X0.456250X-0.243750X0.456250X0.243750X-0.456250X0.243750X-0.456250X-0.243750X0*%
%ADD27RoundRect,0.051000X0.350000X0.350000X-0.350000X0.350000X-0.350000X-0.350000X0.350000X-0.350000X0*%
%ADD28RoundRect,0.051000X-0.250000X0.250000X-0.250000X-0.250000X0.250000X-0.250000X0.250000X0.250000X0*%
%ADD29RoundRect,0.051000X-0.500000X0.250000X-0.500000X-0.250000X0.500000X-0.250000X0.500000X0.250000X0*%
%ADD30RoundRect,0.051000X-0.400000X-0.850000X0.400000X-0.850000X0.400000X0.850000X-0.400000X0.850000X0*%
%ADD31C,0.877000*%
%ADD32RoundRect,0.051000X-0.550000X0.150000X-0.550000X-0.150000X0.550000X-0.150000X0.550000X0.150000X0*%
%ADD33C,0.752000*%
%ADD34O,2.402000X1.252000*%
%ADD35C,1.002000*%
%ADD36RoundRect,0.051000X-0.187500X-0.175000X0.187500X-0.175000X0.187500X0.175000X-0.187500X0.175000X0*%
%ADD37RoundRect,0.051000X0.175000X-0.187500X0.175000X0.187500X-0.175000X0.187500X-0.175000X-0.187500X0*%
%ADD38RoundRect,0.051000X-0.350000X0.150000X-0.350000X-0.150000X0.350000X-0.150000X0.350000X0.150000X0*%
%ADD39RoundRect,0.051000X-0.500000X0.150000X-0.500000X-0.150000X0.500000X-0.150000X0.500000X0.150000X0*%
%ADD40C,12.102000*%
%ADD41RoundRect,0.051000X0.350000X-0.150000X0.350000X0.150000X-0.350000X0.150000X-0.350000X-0.150000X0*%
%ADD42RoundRect,0.051000X0.500000X-0.150000X0.500000X0.150000X-0.500000X0.150000X-0.500000X-0.150000X0*%
%ADD43C,3.902000*%
%ADD44C,0.427000*%
%ADD45RoundRect,0.051000X-0.261000X0.300000X-0.261000X-0.300000X0.261000X-0.300000X0.261000X0.300000X0*%
%ADD46C,0.402000*%
%ADD47RoundRect,0.051000X0.261000X-0.300000X0.261000X0.300000X-0.261000X0.300000X-0.261000X-0.300000X0*%
%ADD48RoundRect,0.051000X-0.600000X0.450000X-0.600000X-0.450000X0.600000X-0.450000X0.600000X0.450000X0*%
G04 APERTURE END LIST*
D10*
%TO.C,C24*%
X84726640Y-76677520D03*
X83756640Y-76677520D03*
%TD*%
D11*
%TO.C,C25*%
X85860300Y-89507200D03*
X85860300Y-90477200D03*
%TD*%
D12*
%TO.C,D1*%
X76763200Y-85936200D03*
D13*
X76738200Y-86436200D03*
X76738200Y-86936200D03*
X77338200Y-86936200D03*
X77338200Y-86436200D03*
X77338200Y-85936200D03*
%TD*%
D14*
%TO.C,U5*%
X95411480Y-106754040D03*
X95911480Y-106754040D03*
X95411480Y-107254040D03*
X95911480Y-107254040D03*
X95411480Y-107754040D03*
X95911480Y-107754040D03*
%TD*%
D15*
%TO.C,U6*%
X86641640Y-73001020D03*
X85841640Y-73001020D03*
X85041640Y-73001020D03*
X84241640Y-73001020D03*
X83441640Y-73001020D03*
X82641640Y-73001020D03*
X81841640Y-73001020D03*
X81841640Y-75401020D03*
X82641640Y-75401020D03*
X83441640Y-75401020D03*
X84241640Y-75401020D03*
X85041640Y-75401020D03*
X85841640Y-75401020D03*
X86641640Y-75401020D03*
%TD*%
D10*
%TO.C,R14*%
X100875960Y-118544340D03*
X99905960Y-118544340D03*
%TD*%
D11*
%TO.C,C16*%
X98485960Y-119964340D03*
X98485960Y-120934340D03*
%TD*%
%TO.C,C18*%
X97215960Y-119964340D03*
X97215960Y-120934340D03*
%TD*%
%TO.C,C19*%
X101025960Y-119964340D03*
X101025960Y-120934340D03*
%TD*%
D16*
%TO.C,C20*%
X99755960Y-120934340D03*
X99755960Y-119964340D03*
%TD*%
%TO.C,C15*%
X93405960Y-120934340D03*
X93405960Y-119964340D03*
%TD*%
D11*
%TO.C,R5*%
X90865960Y-119964340D03*
X90865960Y-120934340D03*
%TD*%
%TO.C,R8*%
X94675960Y-119964340D03*
X94675960Y-120934340D03*
%TD*%
%TO.C,R12*%
X89595960Y-117805340D03*
X89595960Y-118775340D03*
%TD*%
%TO.C,R13*%
X88325960Y-117805340D03*
X88325960Y-118775340D03*
%TD*%
D17*
%TO.C,U3*%
X95913960Y-117531340D03*
X95913960Y-117131340D03*
X95913960Y-116731340D03*
X95913960Y-116331340D03*
X95913960Y-115931340D03*
X95913960Y-115531340D03*
X95913960Y-115131340D03*
X95913960Y-114731340D03*
D18*
X95313960Y-114131340D03*
X94913960Y-114131340D03*
X94513960Y-114131340D03*
X94113960Y-114131340D03*
X93713960Y-114131340D03*
X93313960Y-114131340D03*
X92913960Y-114131340D03*
X92513960Y-114131340D03*
D17*
X91913960Y-114731340D03*
X91913960Y-115131340D03*
X91913960Y-115531340D03*
X91913960Y-115931340D03*
X91913960Y-116331340D03*
X91913960Y-116731340D03*
X91913960Y-117131340D03*
X91913960Y-117531340D03*
D18*
X92513960Y-118131340D03*
X92913960Y-118131340D03*
X93313960Y-118131340D03*
X93713960Y-118131340D03*
X94113960Y-118131340D03*
X94513960Y-118131340D03*
X94913960Y-118131340D03*
X95313960Y-118131340D03*
D19*
X93913960Y-116131340D03*
%TD*%
D20*
%TO.C,J14*%
X94304800Y-93799200D03*
X94804800Y-93799200D03*
X95304800Y-93799200D03*
X95804800Y-93799200D03*
X96304800Y-93799200D03*
X96804800Y-93799200D03*
D21*
X93514800Y-96449200D03*
X97594800Y-96449200D03*
%TD*%
D22*
%TO.C,J15*%
X85120800Y-84280200D03*
X84620800Y-84280200D03*
X84120800Y-84280200D03*
X83620800Y-84280200D03*
X83120800Y-84280200D03*
X82620800Y-84280200D03*
D23*
X85910800Y-81630200D03*
X81830800Y-81630200D03*
%TD*%
D22*
%TO.C,J13*%
X96944680Y-104163840D03*
X96444680Y-104163840D03*
X95944680Y-104163840D03*
X95444680Y-104163840D03*
X94944680Y-104163840D03*
X94444680Y-104163840D03*
D23*
X97734680Y-101513840D03*
X93654680Y-101513840D03*
%TD*%
D11*
%TO.C,R17*%
X85871050Y-87221200D03*
X85871050Y-88191200D03*
%TD*%
%TO.C,R20*%
X83267550Y-87221200D03*
X83267550Y-88191200D03*
%TD*%
%TO.C,R21*%
X84569300Y-87221200D03*
X84569300Y-88191200D03*
%TD*%
D24*
%TO.C,U9*%
X79075000Y-91330000D03*
X79075000Y-90980000D03*
X79075000Y-90630000D03*
X79075000Y-90280000D03*
X78405000Y-90280000D03*
X78405000Y-90630000D03*
X78405000Y-90980000D03*
X78405000Y-91330000D03*
%TD*%
D20*
%TO.C,J12*%
X84684800Y-93802200D03*
X85184800Y-93802200D03*
X85684800Y-93802200D03*
X86184800Y-93802200D03*
X86684800Y-93802200D03*
X87184800Y-93802200D03*
X87684800Y-93802200D03*
X88184800Y-93802200D03*
X88684800Y-93802200D03*
X89184800Y-93802200D03*
X89684800Y-93802200D03*
X90184800Y-93802200D03*
X90684800Y-93802200D03*
X91184800Y-93802200D03*
D21*
X83894800Y-96452200D03*
X91974800Y-96452200D03*
%TD*%
D25*
%TO.C,R22*%
X88475960Y-116258340D03*
X89445960Y-116258340D03*
%TD*%
D26*
%TO.C,F1*%
X78740000Y-88694500D03*
X78740000Y-86819500D03*
%TD*%
D27*
%TO.C,D2*%
X71069800Y-96511200D03*
X71069800Y-95411200D03*
X69239800Y-95411200D03*
X69239800Y-96511200D03*
%TD*%
D28*
%TO.C,U1*%
X98231800Y-90478200D03*
X97431800Y-90478200D03*
X97431800Y-89678200D03*
X96631800Y-90478200D03*
X96631800Y-89678200D03*
X95831800Y-90478200D03*
X95831800Y-89678200D03*
X95031800Y-90478200D03*
X95031800Y-89678200D03*
X94231800Y-90478200D03*
X94231800Y-89678200D03*
X93431800Y-90478200D03*
X93431800Y-89678200D03*
X92631800Y-90478200D03*
X92631800Y-89678200D03*
X91831800Y-90478200D03*
X91831800Y-89678200D03*
X91031800Y-90478200D03*
X91031800Y-89678200D03*
X90231800Y-90478200D03*
X90231800Y-89678200D03*
X89431800Y-90478200D03*
X89431800Y-89678200D03*
X88631800Y-90328200D03*
X88631800Y-89528200D03*
X88631800Y-88728200D03*
X89431800Y-88728200D03*
X88631800Y-87928200D03*
X89431800Y-87928200D03*
X88631800Y-87128200D03*
X89431800Y-87128200D03*
X88631800Y-86328200D03*
X89431800Y-86328200D03*
X88631800Y-85528200D03*
X89431800Y-85528200D03*
X88631800Y-84728200D03*
X89431800Y-84728200D03*
X88631800Y-83928200D03*
X89431800Y-83928200D03*
X88631800Y-83128200D03*
X89431800Y-83128200D03*
X88631800Y-82328200D03*
X88631800Y-81528200D03*
X89431800Y-81378200D03*
X89431800Y-82178200D03*
X90231800Y-81378200D03*
X90231800Y-82178200D03*
X91031800Y-81378200D03*
X91031800Y-82178200D03*
X91831800Y-81378200D03*
X91831800Y-82178200D03*
X92631800Y-81378200D03*
X92631800Y-82178200D03*
X93431800Y-81378200D03*
X93431800Y-82178200D03*
X94231800Y-81378200D03*
X94231800Y-82178200D03*
X95031800Y-81378200D03*
X95031800Y-82178200D03*
X95831800Y-81378200D03*
X95831800Y-82178200D03*
X96631800Y-81378200D03*
X96631800Y-82178200D03*
X97431800Y-81378200D03*
X97431800Y-82178200D03*
X98231800Y-81378200D03*
X99531800Y-90478200D03*
X100831800Y-90478200D03*
X102131800Y-90478200D03*
X97431800Y-87803200D03*
X97431800Y-85928200D03*
X97431800Y-84053200D03*
%TD*%
D29*
%TO.C,Y1*%
X87299800Y-82076200D03*
X87299800Y-83176200D03*
%TD*%
D11*
%TO.C,C1*%
X87172800Y-84935200D03*
X87172800Y-85905200D03*
%TD*%
%TO.C,C2*%
X87172800Y-87221200D03*
X87172800Y-88191200D03*
%TD*%
%TO.C,C26*%
X87172800Y-89507200D03*
X87172800Y-90477200D03*
%TD*%
D30*
%TO.C,SW1*%
X73407800Y-95961200D03*
X76807800Y-95961200D03*
%TD*%
D31*
%TO.C,J1*%
X74345800Y-82582200D03*
X74345800Y-89782200D03*
D32*
X75005800Y-83432200D03*
X75005800Y-83932200D03*
X75005800Y-84432200D03*
X75005800Y-84932200D03*
X75005800Y-85432200D03*
X75005800Y-85932200D03*
X75005800Y-86432200D03*
X75005800Y-86932200D03*
X75005800Y-87432200D03*
X75005800Y-87932200D03*
X75005800Y-88432200D03*
X75005800Y-88932200D03*
D33*
X73695800Y-88982200D03*
X72995800Y-88582200D03*
X72995800Y-87782200D03*
X73695800Y-87382200D03*
X72995800Y-86982200D03*
X73695800Y-86582200D03*
X73695800Y-85782200D03*
X72995800Y-85382200D03*
X73695800Y-84982200D03*
X72995800Y-84582200D03*
X72995800Y-83782200D03*
X73695800Y-83382200D03*
D34*
X72945800Y-81582200D03*
X72945800Y-90782200D03*
X69945800Y-81582200D03*
X69945800Y-90782200D03*
%TD*%
D35*
%TO.C,J4*%
X75869800Y-93167200D03*
X74599800Y-93167200D03*
X73329800Y-93167200D03*
X72059800Y-93167200D03*
X70789800Y-93167200D03*
X69519800Y-93167200D03*
%TD*%
D11*
%TO.C,C27*%
X84547800Y-89507200D03*
X84547800Y-90477200D03*
%TD*%
%TO.C,C28*%
X83235300Y-89507200D03*
X83235300Y-90477200D03*
%TD*%
D36*
%TO.C,U8*%
X80441300Y-86702200D03*
X80441300Y-87202200D03*
X80441300Y-87702200D03*
X80441300Y-88202200D03*
D37*
X80953800Y-88214700D03*
X81453800Y-88214700D03*
D36*
X81966300Y-88202200D03*
X81966300Y-87702200D03*
X81966300Y-87202200D03*
X81966300Y-86702200D03*
D37*
X81453800Y-86689700D03*
X80953800Y-86689700D03*
%TD*%
D16*
%TO.C,R18*%
X80594200Y-90477200D03*
X80594200Y-89507200D03*
%TD*%
%TO.C,R19*%
X81915000Y-90477200D03*
X81915000Y-89507200D03*
%TD*%
D38*
%TO.C,J8*%
X86777020Y-113822160D03*
X86777020Y-114322160D03*
X86777020Y-114822160D03*
X86777020Y-115322160D03*
X86777020Y-115822160D03*
X86777020Y-116322160D03*
D39*
X84127020Y-113032160D03*
X84127020Y-117112160D03*
%TD*%
D40*
%TO.C,J6*%
X116713000Y-113538000D03*
%TD*%
D16*
%TO.C,R7*%
X95945960Y-120934340D03*
X95945960Y-119964340D03*
%TD*%
D11*
%TO.C,C21*%
X89595960Y-119964340D03*
X89595960Y-120934340D03*
%TD*%
%TO.C,R6*%
X92135960Y-119964340D03*
X92135960Y-120934340D03*
%TD*%
%TO.C,R11*%
X88325960Y-119964340D03*
X88325960Y-120934340D03*
%TD*%
D10*
%TO.C,C17*%
X98716960Y-118544340D03*
X97746960Y-118544340D03*
%TD*%
D41*
%TO.C,J3*%
X97974960Y-116322160D03*
X97974960Y-115822160D03*
X97974960Y-115322160D03*
X97974960Y-114822160D03*
X97974960Y-114322160D03*
X97974960Y-113822160D03*
D42*
X100624960Y-117112160D03*
X100624960Y-113032160D03*
%TD*%
D43*
%TO.C,J19*%
X85227160Y-120042940D03*
%TD*%
%TO.C,J20*%
X80594200Y-93929200D03*
%TD*%
D40*
%TO.C,J7*%
X67818000Y-113538000D03*
%TD*%
D16*
%TO.C,C29*%
X79212440Y-111439820D03*
X79212440Y-110469820D03*
%TD*%
D41*
%TO.C,J17*%
X76161440Y-116586320D03*
X76161440Y-116086320D03*
X76161440Y-115586320D03*
X76161440Y-115086320D03*
X76161440Y-114586320D03*
X76161440Y-114086320D03*
D42*
X78811440Y-117376320D03*
X78811440Y-113296320D03*
%TD*%
D44*
%TO.C,MIC1*%
X75846940Y-110954820D03*
D45*
X77920940Y-110054820D03*
X77098940Y-110054820D03*
D46*
X75846940Y-110292820D03*
X76508940Y-110954820D03*
X75184940Y-110954820D03*
X75846940Y-111616820D03*
D45*
X77098940Y-111854820D03*
X77920940Y-111854820D03*
X77920940Y-110954820D03*
%TD*%
D16*
%TO.C,C30*%
X105374440Y-111493160D03*
X105374440Y-110523160D03*
%TD*%
D38*
%TO.C,J5*%
X108438140Y-114101560D03*
X108438140Y-114601560D03*
X108438140Y-115101560D03*
X108438140Y-115601560D03*
X108438140Y-116101560D03*
X108438140Y-116601560D03*
D39*
X105788140Y-113311560D03*
X105788140Y-117391560D03*
%TD*%
D44*
%TO.C,MIC2*%
X108752640Y-110970060D03*
D47*
X106678640Y-111870060D03*
X107500640Y-111870060D03*
D46*
X108752640Y-111632060D03*
X108090640Y-110970060D03*
X109414640Y-110970060D03*
X108752640Y-110308060D03*
D47*
X107500640Y-110070060D03*
X106678640Y-110070060D03*
X106678640Y-110970060D03*
%TD*%
D40*
%TO.C,J18*%
X99568000Y-137668000D03*
%TD*%
D22*
%TO.C,J10*%
X100318000Y-129468000D03*
X99818000Y-129468000D03*
X99318000Y-129468000D03*
X98818000Y-129468000D03*
D23*
X101108000Y-126818000D03*
X98028000Y-126818000D03*
%TD*%
D48*
%TO.C,D3*%
X79883000Y-81789000D03*
X79883000Y-85089000D03*
%TD*%
G36*
X99132633Y-129081517D02*
G01*
X99133197Y-129083436D01*
X99132916Y-129084075D01*
X99122767Y-129099263D01*
X99119000Y-129118199D01*
X99119000Y-129817801D01*
X99122767Y-129836738D01*
X99132814Y-129851773D01*
X99132945Y-129853768D01*
X99131282Y-129854880D01*
X99130553Y-129854793D01*
X99070212Y-129835898D01*
X99005310Y-129854955D01*
X99003367Y-129854483D01*
X99002803Y-129852564D01*
X99003084Y-129851925D01*
X99013233Y-129836737D01*
X99017000Y-129817801D01*
X99017000Y-129118199D01*
X99013233Y-129099262D01*
X99003186Y-129084227D01*
X99003055Y-129082232D01*
X99004718Y-129081120D01*
X99005447Y-129081207D01*
X99065788Y-129100102D01*
X99130690Y-129081045D01*
X99132633Y-129081517D01*
G37*
G36*
X100132633Y-129081517D02*
G01*
X100133197Y-129083436D01*
X100132916Y-129084075D01*
X100122767Y-129099263D01*
X100119000Y-129118199D01*
X100119000Y-129817801D01*
X100122767Y-129836738D01*
X100132814Y-129851773D01*
X100132945Y-129853768D01*
X100131282Y-129854880D01*
X100130553Y-129854793D01*
X100070212Y-129835898D01*
X100005310Y-129854955D01*
X100003367Y-129854483D01*
X100002803Y-129852564D01*
X100003084Y-129851925D01*
X100013233Y-129836737D01*
X100017000Y-129817801D01*
X100017000Y-129118199D01*
X100013233Y-129099262D01*
X100003186Y-129084227D01*
X100003055Y-129082232D01*
X100004718Y-129081120D01*
X100005447Y-129081207D01*
X100065788Y-129100102D01*
X100130690Y-129081045D01*
X100132633Y-129081517D01*
G37*
G36*
X99632633Y-129081517D02*
G01*
X99633197Y-129083436D01*
X99632916Y-129084075D01*
X99622767Y-129099263D01*
X99619000Y-129118199D01*
X99619000Y-129817801D01*
X99622767Y-129836738D01*
X99632814Y-129851773D01*
X99632945Y-129853768D01*
X99631282Y-129854880D01*
X99630553Y-129854793D01*
X99570212Y-129835898D01*
X99505310Y-129854955D01*
X99503367Y-129854483D01*
X99502803Y-129852564D01*
X99503084Y-129851925D01*
X99513233Y-129836737D01*
X99517000Y-129817801D01*
X99517000Y-129118199D01*
X99513233Y-129099262D01*
X99503186Y-129084227D01*
X99503055Y-129082232D01*
X99504718Y-129081120D01*
X99505447Y-129081207D01*
X99565788Y-129100102D01*
X99630690Y-129081045D01*
X99632633Y-129081517D01*
G37*
G36*
X95039977Y-113763479D02*
G01*
X95045385Y-113767092D01*
X95111748Y-113787872D01*
X95182549Y-113767083D01*
X95187943Y-113763479D01*
X95189939Y-113763348D01*
X95191050Y-113765011D01*
X95190717Y-113766253D01*
X95172533Y-113793468D01*
X95164960Y-113831539D01*
X95164960Y-114431141D01*
X95172533Y-114469212D01*
X95193984Y-114501316D01*
X95226088Y-114522767D01*
X95264159Y-114530340D01*
X95363761Y-114530340D01*
X95401832Y-114522767D01*
X95433936Y-114501316D01*
X95455387Y-114469212D01*
X95460200Y-114445017D01*
X95461519Y-114443513D01*
X95463481Y-114443903D01*
X95464154Y-114445229D01*
X95469619Y-114506303D01*
X95512106Y-114560997D01*
X95577579Y-114584096D01*
X95589013Y-114583279D01*
X95590812Y-114584153D01*
X95590955Y-114586148D01*
X95589546Y-114587236D01*
X95576088Y-114589913D01*
X95543984Y-114611364D01*
X95522533Y-114643468D01*
X95514960Y-114681539D01*
X95514960Y-114781141D01*
X95522533Y-114819212D01*
X95543984Y-114851316D01*
X95576088Y-114872767D01*
X95614159Y-114880340D01*
X96213761Y-114880340D01*
X96251832Y-114872767D01*
X96279047Y-114854583D01*
X96281043Y-114854452D01*
X96282154Y-114856115D01*
X96281821Y-114857357D01*
X96278208Y-114862765D01*
X96257428Y-114929128D01*
X96278217Y-114999929D01*
X96281821Y-115005323D01*
X96281952Y-115007319D01*
X96280289Y-115008430D01*
X96279047Y-115008097D01*
X96251832Y-114989913D01*
X96213761Y-114982340D01*
X95614159Y-114982340D01*
X95576088Y-114989913D01*
X95543984Y-115011364D01*
X95522533Y-115043468D01*
X95514960Y-115081539D01*
X95514960Y-115181141D01*
X95522533Y-115219212D01*
X95543984Y-115251316D01*
X95576088Y-115272767D01*
X95614159Y-115280340D01*
X96213761Y-115280340D01*
X96251832Y-115272767D01*
X96279047Y-115254583D01*
X96281043Y-115254452D01*
X96282154Y-115256115D01*
X96281821Y-115257357D01*
X96278208Y-115262765D01*
X96257428Y-115329128D01*
X96278217Y-115399929D01*
X96281821Y-115405323D01*
X96281952Y-115407319D01*
X96280289Y-115408430D01*
X96279047Y-115408097D01*
X96251832Y-115389913D01*
X96213761Y-115382340D01*
X95614159Y-115382340D01*
X95576088Y-115389913D01*
X95543984Y-115411364D01*
X95522533Y-115443468D01*
X95514960Y-115481539D01*
X95514960Y-115581141D01*
X95522533Y-115619212D01*
X95543984Y-115651316D01*
X95576088Y-115672767D01*
X95614159Y-115680340D01*
X96213761Y-115680340D01*
X96251832Y-115672767D01*
X96279047Y-115654583D01*
X96281043Y-115654452D01*
X96282154Y-115656115D01*
X96281821Y-115657357D01*
X96278208Y-115662765D01*
X96257428Y-115729128D01*
X96278217Y-115799929D01*
X96281821Y-115805323D01*
X96281952Y-115807319D01*
X96280289Y-115808430D01*
X96279047Y-115808097D01*
X96251832Y-115789913D01*
X96213761Y-115782340D01*
X95614159Y-115782340D01*
X95576088Y-115789913D01*
X95543984Y-115811364D01*
X95522533Y-115843468D01*
X95514960Y-115881539D01*
X95514960Y-115981141D01*
X95522533Y-116019212D01*
X95543984Y-116051316D01*
X95576088Y-116072767D01*
X95614159Y-116080340D01*
X96213761Y-116080340D01*
X96251832Y-116072767D01*
X96279047Y-116054583D01*
X96281043Y-116054452D01*
X96282154Y-116056115D01*
X96281821Y-116057357D01*
X96278208Y-116062765D01*
X96257428Y-116129128D01*
X96278217Y-116199929D01*
X96281821Y-116205323D01*
X96281952Y-116207319D01*
X96280289Y-116208430D01*
X96279047Y-116208097D01*
X96251832Y-116189913D01*
X96213761Y-116182340D01*
X95614159Y-116182340D01*
X95576088Y-116189913D01*
X95543984Y-116211364D01*
X95522533Y-116243468D01*
X95514960Y-116281539D01*
X95514960Y-116381141D01*
X95522533Y-116419212D01*
X95543984Y-116451316D01*
X95576088Y-116472767D01*
X95614159Y-116480340D01*
X96213761Y-116480340D01*
X96251832Y-116472767D01*
X96279047Y-116454583D01*
X96281043Y-116454452D01*
X96282154Y-116456115D01*
X96281821Y-116457357D01*
X96278208Y-116462765D01*
X96257428Y-116529128D01*
X96278217Y-116599929D01*
X96281821Y-116605323D01*
X96281952Y-116607319D01*
X96280289Y-116608430D01*
X96279047Y-116608097D01*
X96251832Y-116589913D01*
X96213761Y-116582340D01*
X95614159Y-116582340D01*
X95576088Y-116589913D01*
X95543984Y-116611364D01*
X95522533Y-116643468D01*
X95514960Y-116681539D01*
X95514960Y-116781141D01*
X95522533Y-116819212D01*
X95543984Y-116851316D01*
X95576088Y-116872767D01*
X95614159Y-116880340D01*
X96213761Y-116880340D01*
X96251832Y-116872767D01*
X96279047Y-116854583D01*
X96281043Y-116854452D01*
X96282154Y-116856115D01*
X96281821Y-116857357D01*
X96278208Y-116862765D01*
X96257428Y-116929128D01*
X96278217Y-116999929D01*
X96281821Y-117005323D01*
X96281952Y-117007319D01*
X96280289Y-117008430D01*
X96279047Y-117008097D01*
X96251832Y-116989913D01*
X96213761Y-116982340D01*
X95614159Y-116982340D01*
X95576088Y-116989913D01*
X95543984Y-117011364D01*
X95522533Y-117043468D01*
X95514960Y-117081539D01*
X95514960Y-117181141D01*
X95522533Y-117219212D01*
X95543984Y-117251316D01*
X95576088Y-117272767D01*
X95614159Y-117280340D01*
X96213761Y-117280340D01*
X96251832Y-117272767D01*
X96279047Y-117254583D01*
X96281043Y-117254452D01*
X96282154Y-117256115D01*
X96281821Y-117257357D01*
X96278208Y-117262765D01*
X96257428Y-117329128D01*
X96278217Y-117399929D01*
X96281821Y-117405323D01*
X96281952Y-117407319D01*
X96280289Y-117408430D01*
X96279047Y-117408097D01*
X96251832Y-117389913D01*
X96213761Y-117382340D01*
X95614159Y-117382340D01*
X95576088Y-117389913D01*
X95543984Y-117411364D01*
X95522533Y-117443468D01*
X95514960Y-117481539D01*
X95514960Y-117581141D01*
X95522533Y-117619212D01*
X95543984Y-117651316D01*
X95576088Y-117672767D01*
X95600283Y-117677580D01*
X95601787Y-117678899D01*
X95601397Y-117680861D01*
X95600071Y-117681534D01*
X95538997Y-117686999D01*
X95484303Y-117729486D01*
X95461204Y-117794959D01*
X95462021Y-117806393D01*
X95461147Y-117808192D01*
X95459152Y-117808335D01*
X95458064Y-117806926D01*
X95455387Y-117793468D01*
X95433936Y-117761364D01*
X95401832Y-117739913D01*
X95363761Y-117732340D01*
X95264159Y-117732340D01*
X95226088Y-117739913D01*
X95193984Y-117761364D01*
X95172533Y-117793468D01*
X95164960Y-117831539D01*
X95164960Y-118431141D01*
X95172533Y-118469212D01*
X95190717Y-118496427D01*
X95190848Y-118498423D01*
X95189185Y-118499534D01*
X95187943Y-118499201D01*
X95182535Y-118495588D01*
X95116172Y-118474808D01*
X95045371Y-118495597D01*
X95039977Y-118499201D01*
X95037981Y-118499332D01*
X95036870Y-118497669D01*
X95037203Y-118496427D01*
X95055387Y-118469212D01*
X95062960Y-118431141D01*
X95062960Y-117831539D01*
X95055387Y-117793468D01*
X95033936Y-117761364D01*
X95001832Y-117739913D01*
X94963761Y-117732340D01*
X94864159Y-117732340D01*
X94826088Y-117739913D01*
X94793984Y-117761364D01*
X94772533Y-117793468D01*
X94764960Y-117831539D01*
X94764960Y-118431141D01*
X94772533Y-118469212D01*
X94790717Y-118496427D01*
X94790848Y-118498423D01*
X94789185Y-118499534D01*
X94787943Y-118499201D01*
X94782535Y-118495588D01*
X94716172Y-118474808D01*
X94645371Y-118495597D01*
X94639977Y-118499201D01*
X94637981Y-118499332D01*
X94636870Y-118497669D01*
X94637203Y-118496427D01*
X94655387Y-118469212D01*
X94662960Y-118431141D01*
X94662960Y-117831539D01*
X94655387Y-117793468D01*
X94633936Y-117761364D01*
X94601832Y-117739913D01*
X94563761Y-117732340D01*
X94464159Y-117732340D01*
X94426088Y-117739913D01*
X94393984Y-117761364D01*
X94372533Y-117793468D01*
X94364960Y-117831539D01*
X94364960Y-118431141D01*
X94372533Y-118469212D01*
X94390717Y-118496427D01*
X94390848Y-118498423D01*
X94389185Y-118499534D01*
X94387943Y-118499201D01*
X94382535Y-118495588D01*
X94316172Y-118474808D01*
X94245371Y-118495597D01*
X94239977Y-118499201D01*
X94237981Y-118499332D01*
X94236870Y-118497669D01*
X94237203Y-118496427D01*
X94255387Y-118469212D01*
X94262960Y-118431141D01*
X94262960Y-117831539D01*
X94255387Y-117793468D01*
X94233936Y-117761364D01*
X94201832Y-117739913D01*
X94163761Y-117732340D01*
X94064159Y-117732340D01*
X94026088Y-117739913D01*
X93993984Y-117761364D01*
X93972533Y-117793468D01*
X93964960Y-117831539D01*
X93964960Y-118431141D01*
X93972533Y-118469212D01*
X93990717Y-118496427D01*
X93990848Y-118498423D01*
X93989185Y-118499534D01*
X93987943Y-118499201D01*
X93982535Y-118495588D01*
X93916172Y-118474808D01*
X93845371Y-118495597D01*
X93839977Y-118499201D01*
X93837981Y-118499332D01*
X93836870Y-118497669D01*
X93837203Y-118496427D01*
X93855387Y-118469212D01*
X93862960Y-118431141D01*
X93862960Y-117831539D01*
X93855387Y-117793468D01*
X93833936Y-117761364D01*
X93801832Y-117739913D01*
X93763761Y-117732340D01*
X93664159Y-117732340D01*
X93626088Y-117739913D01*
X93593984Y-117761364D01*
X93572533Y-117793468D01*
X93564960Y-117831539D01*
X93564960Y-118431141D01*
X93572533Y-118469212D01*
X93590717Y-118496427D01*
X93590848Y-118498423D01*
X93589185Y-118499534D01*
X93587943Y-118499201D01*
X93582535Y-118495588D01*
X93516172Y-118474808D01*
X93445371Y-118495597D01*
X93439977Y-118499201D01*
X93437981Y-118499332D01*
X93436870Y-118497669D01*
X93437203Y-118496427D01*
X93455387Y-118469212D01*
X93462960Y-118431141D01*
X93462960Y-117831539D01*
X93455387Y-117793468D01*
X93433936Y-117761364D01*
X93401832Y-117739913D01*
X93363761Y-117732340D01*
X93264159Y-117732340D01*
X93226088Y-117739913D01*
X93193984Y-117761364D01*
X93172533Y-117793468D01*
X93164960Y-117831539D01*
X93164960Y-118431141D01*
X93172533Y-118469212D01*
X93190717Y-118496427D01*
X93190848Y-118498423D01*
X93189185Y-118499534D01*
X93187943Y-118499201D01*
X93182535Y-118495588D01*
X93116172Y-118474808D01*
X93045371Y-118495597D01*
X93039977Y-118499201D01*
X93037981Y-118499332D01*
X93036870Y-118497669D01*
X93037203Y-118496427D01*
X93055387Y-118469212D01*
X93062960Y-118431141D01*
X93062960Y-117831539D01*
X93055387Y-117793468D01*
X93033936Y-117761364D01*
X93001832Y-117739913D01*
X92963761Y-117732340D01*
X92864159Y-117732340D01*
X92826088Y-117739913D01*
X92793984Y-117761364D01*
X92772533Y-117793468D01*
X92764960Y-117831539D01*
X92764960Y-118431141D01*
X92772533Y-118469212D01*
X92790717Y-118496427D01*
X92790848Y-118498423D01*
X92789185Y-118499534D01*
X92787943Y-118499201D01*
X92782535Y-118495588D01*
X92716172Y-118474808D01*
X92645371Y-118495597D01*
X92639977Y-118499201D01*
X92637981Y-118499332D01*
X92636870Y-118497669D01*
X92637203Y-118496427D01*
X92655387Y-118469212D01*
X92662960Y-118431141D01*
X92662960Y-117831539D01*
X92655387Y-117793468D01*
X92633936Y-117761364D01*
X92601832Y-117739913D01*
X92563761Y-117732340D01*
X92464159Y-117732340D01*
X92426088Y-117739913D01*
X92393984Y-117761364D01*
X92372533Y-117793468D01*
X92367720Y-117817663D01*
X92366401Y-117819167D01*
X92364439Y-117818777D01*
X92363766Y-117817451D01*
X92358301Y-117756377D01*
X92315814Y-117701683D01*
X92250341Y-117678584D01*
X92238907Y-117679401D01*
X92237108Y-117678527D01*
X92236965Y-117676532D01*
X92238374Y-117675444D01*
X92251832Y-117672767D01*
X92283936Y-117651316D01*
X92305387Y-117619212D01*
X92312960Y-117581141D01*
X92312960Y-117481539D01*
X92305387Y-117443468D01*
X92283936Y-117411364D01*
X92251832Y-117389913D01*
X92213761Y-117382340D01*
X91614159Y-117382340D01*
X91576088Y-117389913D01*
X91548873Y-117408097D01*
X91546877Y-117408228D01*
X91545766Y-117406565D01*
X91546099Y-117405323D01*
X91549712Y-117399915D01*
X91570492Y-117333552D01*
X91569809Y-117331226D01*
X92414960Y-117331226D01*
X92423104Y-117400559D01*
X92467575Y-117500677D01*
X92545054Y-117578020D01*
X92645245Y-117622315D01*
X92714080Y-117630340D01*
X95113846Y-117630340D01*
X95183179Y-117622196D01*
X95283297Y-117577725D01*
X95360640Y-117500246D01*
X95404935Y-117400055D01*
X95412960Y-117331220D01*
X95412960Y-114931454D01*
X95404816Y-114862121D01*
X95360345Y-114762003D01*
X95282866Y-114684660D01*
X95182675Y-114640365D01*
X95113840Y-114632340D01*
X92714074Y-114632340D01*
X92644741Y-114640484D01*
X92544623Y-114684955D01*
X92467280Y-114762434D01*
X92422985Y-114862625D01*
X92414960Y-114931460D01*
X92414960Y-117331226D01*
X91569809Y-117331226D01*
X91549703Y-117262751D01*
X91546099Y-117257357D01*
X91545968Y-117255361D01*
X91547631Y-117254250D01*
X91548873Y-117254583D01*
X91576088Y-117272767D01*
X91614159Y-117280340D01*
X92213761Y-117280340D01*
X92251832Y-117272767D01*
X92283936Y-117251316D01*
X92305387Y-117219212D01*
X92312960Y-117181141D01*
X92312960Y-117081539D01*
X92305387Y-117043468D01*
X92283936Y-117011364D01*
X92251832Y-116989913D01*
X92213761Y-116982340D01*
X91614159Y-116982340D01*
X91576088Y-116989913D01*
X91548873Y-117008097D01*
X91546877Y-117008228D01*
X91545766Y-117006565D01*
X91546099Y-117005323D01*
X91549712Y-116999915D01*
X91570492Y-116933552D01*
X91549703Y-116862751D01*
X91546099Y-116857357D01*
X91545968Y-116855361D01*
X91547631Y-116854250D01*
X91548873Y-116854583D01*
X91576088Y-116872767D01*
X91614159Y-116880340D01*
X92213761Y-116880340D01*
X92251832Y-116872767D01*
X92283936Y-116851316D01*
X92305387Y-116819212D01*
X92312960Y-116781141D01*
X92312960Y-116681539D01*
X92305387Y-116643468D01*
X92283936Y-116611364D01*
X92251832Y-116589913D01*
X92213761Y-116582340D01*
X91614159Y-116582340D01*
X91576088Y-116589913D01*
X91548873Y-116608097D01*
X91546877Y-116608228D01*
X91545766Y-116606565D01*
X91546099Y-116605323D01*
X91549712Y-116599915D01*
X91570492Y-116533552D01*
X91549703Y-116462751D01*
X91546099Y-116457357D01*
X91545968Y-116455361D01*
X91547631Y-116454250D01*
X91548873Y-116454583D01*
X91576088Y-116472767D01*
X91614159Y-116480340D01*
X92213761Y-116480340D01*
X92251832Y-116472767D01*
X92283936Y-116451316D01*
X92305387Y-116419212D01*
X92312960Y-116381141D01*
X92312960Y-116281539D01*
X92305387Y-116243468D01*
X92283936Y-116211364D01*
X92251832Y-116189913D01*
X92213761Y-116182340D01*
X91614159Y-116182340D01*
X91576088Y-116189913D01*
X91548873Y-116208097D01*
X91546877Y-116208228D01*
X91545766Y-116206565D01*
X91546099Y-116205323D01*
X91549712Y-116199915D01*
X91570492Y-116133552D01*
X91549703Y-116062751D01*
X91546099Y-116057357D01*
X91545968Y-116055361D01*
X91547631Y-116054250D01*
X91548873Y-116054583D01*
X91576088Y-116072767D01*
X91614159Y-116080340D01*
X92213761Y-116080340D01*
X92251832Y-116072767D01*
X92283936Y-116051316D01*
X92305387Y-116019212D01*
X92312960Y-115981141D01*
X92312960Y-115881539D01*
X92305387Y-115843468D01*
X92283936Y-115811364D01*
X92251832Y-115789913D01*
X92213761Y-115782340D01*
X91614159Y-115782340D01*
X91576088Y-115789913D01*
X91548873Y-115808097D01*
X91546877Y-115808228D01*
X91545766Y-115806565D01*
X91546099Y-115805323D01*
X91549712Y-115799915D01*
X91570492Y-115733552D01*
X91549703Y-115662751D01*
X91546099Y-115657357D01*
X91545968Y-115655361D01*
X91547631Y-115654250D01*
X91548873Y-115654583D01*
X91576088Y-115672767D01*
X91614159Y-115680340D01*
X92213761Y-115680340D01*
X92251832Y-115672767D01*
X92283936Y-115651316D01*
X92305387Y-115619212D01*
X92312960Y-115581141D01*
X92312960Y-115481539D01*
X92305387Y-115443468D01*
X92283936Y-115411364D01*
X92251832Y-115389913D01*
X92213761Y-115382340D01*
X91614159Y-115382340D01*
X91576088Y-115389913D01*
X91548873Y-115408097D01*
X91546877Y-115408228D01*
X91545766Y-115406565D01*
X91546099Y-115405323D01*
X91549712Y-115399915D01*
X91570492Y-115333552D01*
X91549703Y-115262751D01*
X91546099Y-115257357D01*
X91545968Y-115255361D01*
X91547631Y-115254250D01*
X91548873Y-115254583D01*
X91576088Y-115272767D01*
X91614159Y-115280340D01*
X92213761Y-115280340D01*
X92251832Y-115272767D01*
X92283936Y-115251316D01*
X92305387Y-115219212D01*
X92312960Y-115181141D01*
X92312960Y-115081539D01*
X92305387Y-115043468D01*
X92283936Y-115011364D01*
X92251832Y-114989913D01*
X92213761Y-114982340D01*
X91614159Y-114982340D01*
X91576088Y-114989913D01*
X91548873Y-115008097D01*
X91546877Y-115008228D01*
X91545766Y-115006565D01*
X91546099Y-115005323D01*
X91549712Y-114999915D01*
X91570492Y-114933552D01*
X91549703Y-114862751D01*
X91546099Y-114857357D01*
X91545968Y-114855361D01*
X91547631Y-114854250D01*
X91548873Y-114854583D01*
X91576088Y-114872767D01*
X91614159Y-114880340D01*
X92213761Y-114880340D01*
X92251832Y-114872767D01*
X92283936Y-114851316D01*
X92305387Y-114819212D01*
X92312960Y-114781141D01*
X92312960Y-114681539D01*
X92305387Y-114643468D01*
X92283936Y-114611364D01*
X92251832Y-114589913D01*
X92227637Y-114585100D01*
X92226133Y-114583781D01*
X92226523Y-114581819D01*
X92227849Y-114581146D01*
X92288923Y-114575681D01*
X92343617Y-114533194D01*
X92366716Y-114467721D01*
X92365899Y-114456287D01*
X92366773Y-114454488D01*
X92368768Y-114454345D01*
X92369856Y-114455754D01*
X92372533Y-114469212D01*
X92393984Y-114501316D01*
X92426088Y-114522767D01*
X92464159Y-114530340D01*
X92563761Y-114530340D01*
X92601832Y-114522767D01*
X92633936Y-114501316D01*
X92655387Y-114469212D01*
X92662960Y-114431141D01*
X92662960Y-113831539D01*
X92655387Y-113793468D01*
X92637203Y-113766253D01*
X92637072Y-113764257D01*
X92638735Y-113763146D01*
X92639977Y-113763479D01*
X92645385Y-113767092D01*
X92711748Y-113787872D01*
X92782549Y-113767083D01*
X92787943Y-113763479D01*
X92789939Y-113763348D01*
X92791050Y-113765011D01*
X92790717Y-113766253D01*
X92772533Y-113793468D01*
X92764960Y-113831539D01*
X92764960Y-114431141D01*
X92772533Y-114469212D01*
X92793984Y-114501316D01*
X92826088Y-114522767D01*
X92864159Y-114530340D01*
X92963761Y-114530340D01*
X93001832Y-114522767D01*
X93033936Y-114501316D01*
X93055387Y-114469212D01*
X93062960Y-114431141D01*
X93062960Y-113831539D01*
X93055387Y-113793468D01*
X93037203Y-113766253D01*
X93037072Y-113764257D01*
X93038735Y-113763146D01*
X93039977Y-113763479D01*
X93045385Y-113767092D01*
X93111748Y-113787872D01*
X93182549Y-113767083D01*
X93187943Y-113763479D01*
X93189939Y-113763348D01*
X93191050Y-113765011D01*
X93190717Y-113766253D01*
X93172533Y-113793468D01*
X93164960Y-113831539D01*
X93164960Y-114431141D01*
X93172533Y-114469212D01*
X93193984Y-114501316D01*
X93226088Y-114522767D01*
X93264159Y-114530340D01*
X93363761Y-114530340D01*
X93401832Y-114522767D01*
X93433936Y-114501316D01*
X93455387Y-114469212D01*
X93462960Y-114431141D01*
X93462960Y-113831539D01*
X93455387Y-113793468D01*
X93437203Y-113766253D01*
X93437072Y-113764257D01*
X93438735Y-113763146D01*
X93439977Y-113763479D01*
X93445385Y-113767092D01*
X93511748Y-113787872D01*
X93582549Y-113767083D01*
X93587943Y-113763479D01*
X93589939Y-113763348D01*
X93591050Y-113765011D01*
X93590717Y-113766253D01*
X93572533Y-113793468D01*
X93564960Y-113831539D01*
X93564960Y-114431141D01*
X93572533Y-114469212D01*
X93593984Y-114501316D01*
X93626088Y-114522767D01*
X93664159Y-114530340D01*
X93763761Y-114530340D01*
X93801832Y-114522767D01*
X93833936Y-114501316D01*
X93855387Y-114469212D01*
X93862960Y-114431141D01*
X93862960Y-113831539D01*
X93855387Y-113793468D01*
X93837203Y-113766253D01*
X93837072Y-113764257D01*
X93838735Y-113763146D01*
X93839977Y-113763479D01*
X93845385Y-113767092D01*
X93911748Y-113787872D01*
X93982549Y-113767083D01*
X93987943Y-113763479D01*
X93989939Y-113763348D01*
X93991050Y-113765011D01*
X93990717Y-113766253D01*
X93972533Y-113793468D01*
X93964960Y-113831539D01*
X93964960Y-114431141D01*
X93972533Y-114469212D01*
X93993984Y-114501316D01*
X94026088Y-114522767D01*
X94064159Y-114530340D01*
X94163761Y-114530340D01*
X94201832Y-114522767D01*
X94233936Y-114501316D01*
X94255387Y-114469212D01*
X94262960Y-114431141D01*
X94262960Y-113831539D01*
X94255387Y-113793468D01*
X94237203Y-113766253D01*
X94237072Y-113764257D01*
X94238735Y-113763146D01*
X94239977Y-113763479D01*
X94245385Y-113767092D01*
X94311748Y-113787872D01*
X94382549Y-113767083D01*
X94387943Y-113763479D01*
X94389939Y-113763348D01*
X94391050Y-113765011D01*
X94390717Y-113766253D01*
X94372533Y-113793468D01*
X94364960Y-113831539D01*
X94364960Y-114431141D01*
X94372533Y-114469212D01*
X94393984Y-114501316D01*
X94426088Y-114522767D01*
X94464159Y-114530340D01*
X94563761Y-114530340D01*
X94601832Y-114522767D01*
X94633936Y-114501316D01*
X94655387Y-114469212D01*
X94662960Y-114431141D01*
X94662960Y-113831539D01*
X94655387Y-113793468D01*
X94637203Y-113766253D01*
X94637072Y-113764257D01*
X94638735Y-113763146D01*
X94639977Y-113763479D01*
X94645385Y-113767092D01*
X94711748Y-113787872D01*
X94782549Y-113767083D01*
X94787943Y-113763479D01*
X94789939Y-113763348D01*
X94791050Y-113765011D01*
X94790717Y-113766253D01*
X94772533Y-113793468D01*
X94764960Y-113831539D01*
X94764960Y-114431141D01*
X94772533Y-114469212D01*
X94793984Y-114501316D01*
X94826088Y-114522767D01*
X94864159Y-114530340D01*
X94963761Y-114530340D01*
X95001832Y-114522767D01*
X95033936Y-114501316D01*
X95055387Y-114469212D01*
X95062960Y-114431141D01*
X95062960Y-113831539D01*
X95055387Y-113793468D01*
X95037203Y-113766253D01*
X95037072Y-113764257D01*
X95038735Y-113763146D01*
X95039977Y-113763479D01*
G37*
G36*
X108054215Y-116286644D02*
G01*
X108069403Y-116296793D01*
X108088339Y-116300560D01*
X108787941Y-116300560D01*
X108806878Y-116296793D01*
X108821913Y-116286746D01*
X108823908Y-116286615D01*
X108825020Y-116288278D01*
X108824933Y-116289007D01*
X108806038Y-116349348D01*
X108825095Y-116414250D01*
X108824623Y-116416193D01*
X108822704Y-116416757D01*
X108822065Y-116416476D01*
X108806877Y-116406327D01*
X108787941Y-116402560D01*
X108088339Y-116402560D01*
X108069402Y-116406327D01*
X108054367Y-116416374D01*
X108052372Y-116416505D01*
X108051260Y-116414842D01*
X108051347Y-116414113D01*
X108070242Y-116353772D01*
X108051185Y-116288870D01*
X108051657Y-116286927D01*
X108053576Y-116286363D01*
X108054215Y-116286644D01*
G37*
G36*
X75777515Y-116271404D02*
G01*
X75792703Y-116281553D01*
X75811639Y-116285320D01*
X76511241Y-116285320D01*
X76530178Y-116281553D01*
X76545213Y-116271506D01*
X76547208Y-116271375D01*
X76548320Y-116273038D01*
X76548233Y-116273767D01*
X76529338Y-116334108D01*
X76548395Y-116399010D01*
X76547923Y-116400953D01*
X76546004Y-116401517D01*
X76545365Y-116401236D01*
X76530177Y-116391087D01*
X76511241Y-116387320D01*
X75811639Y-116387320D01*
X75792702Y-116391087D01*
X75777667Y-116401134D01*
X75775672Y-116401265D01*
X75774560Y-116399602D01*
X75774647Y-116398873D01*
X75793542Y-116338532D01*
X75774485Y-116273630D01*
X75774957Y-116271687D01*
X75776876Y-116271123D01*
X75777515Y-116271404D01*
G37*
G36*
X97591035Y-116007244D02*
G01*
X97606223Y-116017393D01*
X97625159Y-116021160D01*
X98324761Y-116021160D01*
X98343698Y-116017393D01*
X98358733Y-116007346D01*
X98360728Y-116007215D01*
X98361840Y-116008878D01*
X98361753Y-116009607D01*
X98342858Y-116069948D01*
X98361915Y-116134850D01*
X98361443Y-116136793D01*
X98359524Y-116137357D01*
X98358885Y-116137076D01*
X98343697Y-116126927D01*
X98324761Y-116123160D01*
X97625159Y-116123160D01*
X97606222Y-116126927D01*
X97591187Y-116136974D01*
X97589192Y-116137105D01*
X97588080Y-116135442D01*
X97588167Y-116134713D01*
X97607062Y-116074372D01*
X97588005Y-116009470D01*
X97588477Y-116007527D01*
X97590396Y-116006963D01*
X97591035Y-116007244D01*
G37*
G36*
X86393095Y-116007244D02*
G01*
X86408283Y-116017393D01*
X86427219Y-116021160D01*
X87126821Y-116021160D01*
X87145758Y-116017393D01*
X87160793Y-116007346D01*
X87162788Y-116007215D01*
X87163900Y-116008878D01*
X87163813Y-116009607D01*
X87144918Y-116069948D01*
X87163975Y-116134850D01*
X87163503Y-116136793D01*
X87161584Y-116137357D01*
X87160945Y-116137076D01*
X87145757Y-116126927D01*
X87126821Y-116123160D01*
X86427219Y-116123160D01*
X86408282Y-116126927D01*
X86393247Y-116136974D01*
X86391252Y-116137105D01*
X86390140Y-116135442D01*
X86390227Y-116134713D01*
X86409122Y-116074372D01*
X86390065Y-116009470D01*
X86390537Y-116007527D01*
X86392456Y-116006963D01*
X86393095Y-116007244D01*
G37*
G36*
X108054215Y-115786644D02*
G01*
X108069403Y-115796793D01*
X108088339Y-115800560D01*
X108787941Y-115800560D01*
X108806878Y-115796793D01*
X108821913Y-115786746D01*
X108823908Y-115786615D01*
X108825020Y-115788278D01*
X108824933Y-115789007D01*
X108806038Y-115849348D01*
X108825095Y-115914250D01*
X108824623Y-115916193D01*
X108822704Y-115916757D01*
X108822065Y-115916476D01*
X108806877Y-115906327D01*
X108787941Y-115902560D01*
X108088339Y-115902560D01*
X108069402Y-115906327D01*
X108054367Y-115916374D01*
X108052372Y-115916505D01*
X108051260Y-115914842D01*
X108051347Y-115914113D01*
X108070242Y-115853772D01*
X108051185Y-115788870D01*
X108051657Y-115786927D01*
X108053576Y-115786363D01*
X108054215Y-115786644D01*
G37*
G36*
X75777515Y-115771404D02*
G01*
X75792703Y-115781553D01*
X75811639Y-115785320D01*
X76511241Y-115785320D01*
X76530178Y-115781553D01*
X76545213Y-115771506D01*
X76547208Y-115771375D01*
X76548320Y-115773038D01*
X76548233Y-115773767D01*
X76529338Y-115834108D01*
X76548395Y-115899010D01*
X76547923Y-115900953D01*
X76546004Y-115901517D01*
X76545365Y-115901236D01*
X76530177Y-115891087D01*
X76511241Y-115887320D01*
X75811639Y-115887320D01*
X75792702Y-115891087D01*
X75777667Y-115901134D01*
X75775672Y-115901265D01*
X75774560Y-115899602D01*
X75774647Y-115898873D01*
X75793542Y-115838532D01*
X75774485Y-115773630D01*
X75774957Y-115771687D01*
X75776876Y-115771123D01*
X75777515Y-115771404D01*
G37*
G36*
X97591035Y-115507244D02*
G01*
X97606223Y-115517393D01*
X97625159Y-115521160D01*
X98324761Y-115521160D01*
X98343698Y-115517393D01*
X98358733Y-115507346D01*
X98360728Y-115507215D01*
X98361840Y-115508878D01*
X98361753Y-115509607D01*
X98342858Y-115569948D01*
X98361915Y-115634850D01*
X98361443Y-115636793D01*
X98359524Y-115637357D01*
X98358885Y-115637076D01*
X98343697Y-115626927D01*
X98324761Y-115623160D01*
X97625159Y-115623160D01*
X97606222Y-115626927D01*
X97591187Y-115636974D01*
X97589192Y-115637105D01*
X97588080Y-115635442D01*
X97588167Y-115634713D01*
X97607062Y-115574372D01*
X97588005Y-115509470D01*
X97588477Y-115507527D01*
X97590396Y-115506963D01*
X97591035Y-115507244D01*
G37*
G36*
X86393095Y-115507244D02*
G01*
X86408283Y-115517393D01*
X86427219Y-115521160D01*
X87126821Y-115521160D01*
X87145758Y-115517393D01*
X87160793Y-115507346D01*
X87162788Y-115507215D01*
X87163900Y-115508878D01*
X87163813Y-115509607D01*
X87144918Y-115569948D01*
X87163975Y-115634850D01*
X87163503Y-115636793D01*
X87161584Y-115637357D01*
X87160945Y-115637076D01*
X87145757Y-115626927D01*
X87126821Y-115623160D01*
X86427219Y-115623160D01*
X86408282Y-115626927D01*
X86393247Y-115636974D01*
X86391252Y-115637105D01*
X86390140Y-115635442D01*
X86390227Y-115634713D01*
X86409122Y-115574372D01*
X86390065Y-115509470D01*
X86390537Y-115507527D01*
X86392456Y-115506963D01*
X86393095Y-115507244D01*
G37*
G36*
X108054215Y-115286644D02*
G01*
X108069403Y-115296793D01*
X108088339Y-115300560D01*
X108787941Y-115300560D01*
X108806878Y-115296793D01*
X108821913Y-115286746D01*
X108823908Y-115286615D01*
X108825020Y-115288278D01*
X108824933Y-115289007D01*
X108806038Y-115349348D01*
X108825095Y-115414250D01*
X108824623Y-115416193D01*
X108822704Y-115416757D01*
X108822065Y-115416476D01*
X108806877Y-115406327D01*
X108787941Y-115402560D01*
X108088339Y-115402560D01*
X108069402Y-115406327D01*
X108054367Y-115416374D01*
X108052372Y-115416505D01*
X108051260Y-115414842D01*
X108051347Y-115414113D01*
X108070242Y-115353772D01*
X108051185Y-115288870D01*
X108051657Y-115286927D01*
X108053576Y-115286363D01*
X108054215Y-115286644D01*
G37*
G36*
X75777515Y-115271404D02*
G01*
X75792703Y-115281553D01*
X75811639Y-115285320D01*
X76511241Y-115285320D01*
X76530178Y-115281553D01*
X76545213Y-115271506D01*
X76547208Y-115271375D01*
X76548320Y-115273038D01*
X76548233Y-115273767D01*
X76529338Y-115334108D01*
X76548395Y-115399010D01*
X76547923Y-115400953D01*
X76546004Y-115401517D01*
X76545365Y-115401236D01*
X76530177Y-115391087D01*
X76511241Y-115387320D01*
X75811639Y-115387320D01*
X75792702Y-115391087D01*
X75777667Y-115401134D01*
X75775672Y-115401265D01*
X75774560Y-115399602D01*
X75774647Y-115398873D01*
X75793542Y-115338532D01*
X75774485Y-115273630D01*
X75774957Y-115271687D01*
X75776876Y-115271123D01*
X75777515Y-115271404D01*
G37*
G36*
X97591035Y-115007244D02*
G01*
X97606223Y-115017393D01*
X97625159Y-115021160D01*
X98324761Y-115021160D01*
X98343698Y-115017393D01*
X98358733Y-115007346D01*
X98360728Y-115007215D01*
X98361840Y-115008878D01*
X98361753Y-115009607D01*
X98342858Y-115069948D01*
X98361915Y-115134850D01*
X98361443Y-115136793D01*
X98359524Y-115137357D01*
X98358885Y-115137076D01*
X98343697Y-115126927D01*
X98324761Y-115123160D01*
X97625159Y-115123160D01*
X97606222Y-115126927D01*
X97591187Y-115136974D01*
X97589192Y-115137105D01*
X97588080Y-115135442D01*
X97588167Y-115134713D01*
X97607062Y-115074372D01*
X97588005Y-115009470D01*
X97588477Y-115007527D01*
X97590396Y-115006963D01*
X97591035Y-115007244D01*
G37*
G36*
X86393095Y-115007244D02*
G01*
X86408283Y-115017393D01*
X86427219Y-115021160D01*
X87126821Y-115021160D01*
X87145758Y-115017393D01*
X87160793Y-115007346D01*
X87162788Y-115007215D01*
X87163900Y-115008878D01*
X87163813Y-115009607D01*
X87144918Y-115069948D01*
X87163975Y-115134850D01*
X87163503Y-115136793D01*
X87161584Y-115137357D01*
X87160945Y-115137076D01*
X87145757Y-115126927D01*
X87126821Y-115123160D01*
X86427219Y-115123160D01*
X86408282Y-115126927D01*
X86393247Y-115136974D01*
X86391252Y-115137105D01*
X86390140Y-115135442D01*
X86390227Y-115134713D01*
X86409122Y-115074372D01*
X86390065Y-115009470D01*
X86390537Y-115007527D01*
X86392456Y-115006963D01*
X86393095Y-115007244D01*
G37*
G36*
X108054215Y-114786644D02*
G01*
X108069403Y-114796793D01*
X108088339Y-114800560D01*
X108787941Y-114800560D01*
X108806878Y-114796793D01*
X108821913Y-114786746D01*
X108823908Y-114786615D01*
X108825020Y-114788278D01*
X108824933Y-114789007D01*
X108806038Y-114849348D01*
X108825095Y-114914250D01*
X108824623Y-114916193D01*
X108822704Y-114916757D01*
X108822065Y-114916476D01*
X108806877Y-114906327D01*
X108787941Y-114902560D01*
X108088339Y-114902560D01*
X108069402Y-114906327D01*
X108054367Y-114916374D01*
X108052372Y-114916505D01*
X108051260Y-114914842D01*
X108051347Y-114914113D01*
X108070242Y-114853772D01*
X108051185Y-114788870D01*
X108051657Y-114786927D01*
X108053576Y-114786363D01*
X108054215Y-114786644D01*
G37*
G36*
X75777515Y-114771404D02*
G01*
X75792703Y-114781553D01*
X75811639Y-114785320D01*
X76511241Y-114785320D01*
X76530178Y-114781553D01*
X76545213Y-114771506D01*
X76547208Y-114771375D01*
X76548320Y-114773038D01*
X76548233Y-114773767D01*
X76529338Y-114834108D01*
X76548395Y-114899010D01*
X76547923Y-114900953D01*
X76546004Y-114901517D01*
X76545365Y-114901236D01*
X76530177Y-114891087D01*
X76511241Y-114887320D01*
X75811639Y-114887320D01*
X75792702Y-114891087D01*
X75777667Y-114901134D01*
X75775672Y-114901265D01*
X75774560Y-114899602D01*
X75774647Y-114898873D01*
X75793542Y-114838532D01*
X75774485Y-114773630D01*
X75774957Y-114771687D01*
X75776876Y-114771123D01*
X75777515Y-114771404D01*
G37*
G36*
X97591035Y-114507244D02*
G01*
X97606223Y-114517393D01*
X97625159Y-114521160D01*
X98324761Y-114521160D01*
X98343698Y-114517393D01*
X98358733Y-114507346D01*
X98360728Y-114507215D01*
X98361840Y-114508878D01*
X98361753Y-114509607D01*
X98342858Y-114569948D01*
X98361915Y-114634850D01*
X98361443Y-114636793D01*
X98359524Y-114637357D01*
X98358885Y-114637076D01*
X98343697Y-114626927D01*
X98324761Y-114623160D01*
X97625159Y-114623160D01*
X97606222Y-114626927D01*
X97591187Y-114636974D01*
X97589192Y-114637105D01*
X97588080Y-114635442D01*
X97588167Y-114634713D01*
X97607062Y-114574372D01*
X97588005Y-114509470D01*
X97588477Y-114507527D01*
X97590396Y-114506963D01*
X97591035Y-114507244D01*
G37*
G36*
X86393095Y-114507244D02*
G01*
X86408283Y-114517393D01*
X86427219Y-114521160D01*
X87126821Y-114521160D01*
X87145758Y-114517393D01*
X87160793Y-114507346D01*
X87162788Y-114507215D01*
X87163900Y-114508878D01*
X87163813Y-114509607D01*
X87144918Y-114569948D01*
X87163975Y-114634850D01*
X87163503Y-114636793D01*
X87161584Y-114637357D01*
X87160945Y-114637076D01*
X87145757Y-114626927D01*
X87126821Y-114623160D01*
X86427219Y-114623160D01*
X86408282Y-114626927D01*
X86393247Y-114636974D01*
X86391252Y-114637105D01*
X86390140Y-114635442D01*
X86390227Y-114634713D01*
X86409122Y-114574372D01*
X86390065Y-114509470D01*
X86390537Y-114507527D01*
X86392456Y-114506963D01*
X86393095Y-114507244D01*
G37*
G36*
X108054215Y-114286644D02*
G01*
X108069403Y-114296793D01*
X108088339Y-114300560D01*
X108787941Y-114300560D01*
X108806878Y-114296793D01*
X108821913Y-114286746D01*
X108823908Y-114286615D01*
X108825020Y-114288278D01*
X108824933Y-114289007D01*
X108806038Y-114349348D01*
X108825095Y-114414250D01*
X108824623Y-114416193D01*
X108822704Y-114416757D01*
X108822065Y-114416476D01*
X108806877Y-114406327D01*
X108787941Y-114402560D01*
X108088339Y-114402560D01*
X108069402Y-114406327D01*
X108054367Y-114416374D01*
X108052372Y-114416505D01*
X108051260Y-114414842D01*
X108051347Y-114414113D01*
X108070242Y-114353772D01*
X108051185Y-114288870D01*
X108051657Y-114286927D01*
X108053576Y-114286363D01*
X108054215Y-114286644D01*
G37*
G36*
X75777515Y-114271404D02*
G01*
X75792703Y-114281553D01*
X75811639Y-114285320D01*
X76511241Y-114285320D01*
X76530178Y-114281553D01*
X76545213Y-114271506D01*
X76547208Y-114271375D01*
X76548320Y-114273038D01*
X76548233Y-114273767D01*
X76529338Y-114334108D01*
X76548395Y-114399010D01*
X76547923Y-114400953D01*
X76546004Y-114401517D01*
X76545365Y-114401236D01*
X76530177Y-114391087D01*
X76511241Y-114387320D01*
X75811639Y-114387320D01*
X75792702Y-114391087D01*
X75777667Y-114401134D01*
X75775672Y-114401265D01*
X75774560Y-114399602D01*
X75774647Y-114398873D01*
X75793542Y-114338532D01*
X75774485Y-114273630D01*
X75774957Y-114271687D01*
X75776876Y-114271123D01*
X75777515Y-114271404D01*
G37*
G36*
X86393095Y-114007244D02*
G01*
X86408283Y-114017393D01*
X86427219Y-114021160D01*
X87126821Y-114021160D01*
X87145758Y-114017393D01*
X87160793Y-114007346D01*
X87162788Y-114007215D01*
X87163900Y-114008878D01*
X87163813Y-114009607D01*
X87144918Y-114069948D01*
X87163975Y-114134850D01*
X87163503Y-114136793D01*
X87161584Y-114137357D01*
X87160945Y-114137076D01*
X87145757Y-114126927D01*
X87126821Y-114123160D01*
X86427219Y-114123160D01*
X86408282Y-114126927D01*
X86393247Y-114136974D01*
X86391252Y-114137105D01*
X86390140Y-114135442D01*
X86390227Y-114134713D01*
X86409122Y-114074372D01*
X86390065Y-114009470D01*
X86390537Y-114007527D01*
X86392456Y-114006963D01*
X86393095Y-114007244D01*
G37*
G36*
X97591035Y-114007244D02*
G01*
X97606223Y-114017393D01*
X97625159Y-114021160D01*
X98324761Y-114021160D01*
X98343698Y-114017393D01*
X98358733Y-114007346D01*
X98360728Y-114007215D01*
X98361840Y-114008878D01*
X98361753Y-114009607D01*
X98342858Y-114069948D01*
X98361915Y-114134850D01*
X98361443Y-114136793D01*
X98359524Y-114137357D01*
X98358885Y-114137076D01*
X98343697Y-114126927D01*
X98324761Y-114123160D01*
X97625159Y-114123160D01*
X97606222Y-114126927D01*
X97591187Y-114136974D01*
X97589192Y-114137105D01*
X97588080Y-114135442D01*
X97588167Y-114134713D01*
X97607062Y-114074372D01*
X97588005Y-114009470D01*
X97588477Y-114007527D01*
X97590396Y-114006963D01*
X97591035Y-114007244D01*
G37*
G36*
X106988907Y-111553361D02*
G01*
X107040586Y-111596549D01*
X107109301Y-111605180D01*
X107171931Y-111575216D01*
X107189988Y-111554378D01*
X107191878Y-111553724D01*
X107193389Y-111555034D01*
X107193461Y-111556078D01*
X107190640Y-111570259D01*
X107190640Y-112169861D01*
X107193618Y-112184834D01*
X107192975Y-112186728D01*
X107191013Y-112187118D01*
X107190373Y-112186759D01*
X107138694Y-112143571D01*
X107069979Y-112134940D01*
X107007349Y-112164904D01*
X106989292Y-112185742D01*
X106987402Y-112186396D01*
X106985891Y-112185086D01*
X106985819Y-112184042D01*
X106988640Y-112169861D01*
X106988640Y-111570259D01*
X106985662Y-111555286D01*
X106986305Y-111553392D01*
X106988267Y-111553002D01*
X106988907Y-111553361D01*
G37*
G36*
X77409207Y-111538121D02*
G01*
X77460886Y-111581309D01*
X77529601Y-111589940D01*
X77592231Y-111559976D01*
X77610288Y-111539138D01*
X77612178Y-111538484D01*
X77613689Y-111539794D01*
X77613761Y-111540838D01*
X77610940Y-111555019D01*
X77610940Y-112154621D01*
X77613918Y-112169594D01*
X77613275Y-112171488D01*
X77611313Y-112171878D01*
X77610673Y-112171519D01*
X77558994Y-112128331D01*
X77490279Y-112119700D01*
X77427649Y-112149664D01*
X77409592Y-112170502D01*
X77407702Y-112171156D01*
X77406191Y-112169846D01*
X77406119Y-112168802D01*
X77408940Y-112154621D01*
X77408940Y-111555019D01*
X77405962Y-111540046D01*
X77406605Y-111538152D01*
X77408567Y-111537762D01*
X77409207Y-111538121D01*
G37*
G36*
X106956308Y-111316725D02*
G01*
X106956698Y-111318687D01*
X106956339Y-111319327D01*
X106913151Y-111371006D01*
X106904520Y-111439721D01*
X106934484Y-111502351D01*
X106955322Y-111520408D01*
X106955976Y-111522298D01*
X106954666Y-111523809D01*
X106953622Y-111523881D01*
X106939441Y-111521060D01*
X106417839Y-111521060D01*
X106402866Y-111524038D01*
X106400972Y-111523395D01*
X106400582Y-111521433D01*
X106400941Y-111520793D01*
X106444129Y-111469114D01*
X106452760Y-111400399D01*
X106422796Y-111337769D01*
X106401958Y-111319712D01*
X106401304Y-111317822D01*
X106402614Y-111316311D01*
X106403658Y-111316239D01*
X106417839Y-111319060D01*
X106939441Y-111319060D01*
X106954414Y-111316082D01*
X106956308Y-111316725D01*
G37*
G36*
X78198608Y-111301485D02*
G01*
X78198998Y-111303447D01*
X78198639Y-111304087D01*
X78155451Y-111355766D01*
X78146820Y-111424481D01*
X78176784Y-111487111D01*
X78197622Y-111505168D01*
X78198276Y-111507058D01*
X78196966Y-111508569D01*
X78195922Y-111508641D01*
X78181741Y-111505820D01*
X77660139Y-111505820D01*
X77645166Y-111508798D01*
X77643272Y-111508155D01*
X77642882Y-111506193D01*
X77643241Y-111505553D01*
X77686429Y-111453874D01*
X77695060Y-111385159D01*
X77665096Y-111322529D01*
X77644258Y-111304472D01*
X77643604Y-111302582D01*
X77644914Y-111301071D01*
X77645958Y-111300999D01*
X77660139Y-111303820D01*
X78181741Y-111303820D01*
X78196714Y-111300842D01*
X78198608Y-111301485D01*
G37*
G36*
X106956308Y-110416725D02*
G01*
X106956698Y-110418687D01*
X106956339Y-110419327D01*
X106913151Y-110471006D01*
X106904520Y-110539721D01*
X106934484Y-110602351D01*
X106955322Y-110620408D01*
X106955976Y-110622298D01*
X106954666Y-110623809D01*
X106953622Y-110623881D01*
X106939441Y-110621060D01*
X106417839Y-110621060D01*
X106402866Y-110624038D01*
X106400972Y-110623395D01*
X106400582Y-110621433D01*
X106400941Y-110620793D01*
X106444129Y-110569114D01*
X106452760Y-110500399D01*
X106422796Y-110437769D01*
X106401958Y-110419712D01*
X106401304Y-110417822D01*
X106402614Y-110416311D01*
X106403658Y-110416239D01*
X106417839Y-110419060D01*
X106939441Y-110419060D01*
X106954414Y-110416082D01*
X106956308Y-110416725D01*
G37*
G36*
X78198608Y-110401485D02*
G01*
X78198998Y-110403447D01*
X78198639Y-110404087D01*
X78155451Y-110455766D01*
X78146820Y-110524481D01*
X78176784Y-110587111D01*
X78197622Y-110605168D01*
X78198276Y-110607058D01*
X78196966Y-110608569D01*
X78195922Y-110608641D01*
X78181741Y-110605820D01*
X77660139Y-110605820D01*
X77645166Y-110608798D01*
X77643272Y-110608155D01*
X77642882Y-110606193D01*
X77643241Y-110605553D01*
X77686429Y-110553874D01*
X77695060Y-110485159D01*
X77665096Y-110422529D01*
X77644258Y-110404472D01*
X77643604Y-110402582D01*
X77644914Y-110401071D01*
X77645958Y-110400999D01*
X77660139Y-110403820D01*
X78181741Y-110403820D01*
X78196714Y-110400842D01*
X78198608Y-110401485D01*
G37*
G36*
X106988907Y-109753361D02*
G01*
X107040586Y-109796549D01*
X107109301Y-109805180D01*
X107171931Y-109775216D01*
X107189988Y-109754378D01*
X107191878Y-109753724D01*
X107193389Y-109755034D01*
X107193461Y-109756078D01*
X107190640Y-109770259D01*
X107190640Y-110369861D01*
X107193618Y-110384834D01*
X107192975Y-110386728D01*
X107191013Y-110387118D01*
X107190373Y-110386759D01*
X107138694Y-110343571D01*
X107069979Y-110334940D01*
X107007349Y-110364904D01*
X106989292Y-110385742D01*
X106987402Y-110386396D01*
X106985891Y-110385086D01*
X106985819Y-110384042D01*
X106988640Y-110369861D01*
X106988640Y-109770259D01*
X106985662Y-109755286D01*
X106986305Y-109753392D01*
X106988267Y-109753002D01*
X106988907Y-109753361D01*
G37*
G36*
X77409207Y-109738121D02*
G01*
X77460886Y-109781309D01*
X77529601Y-109789940D01*
X77592231Y-109759976D01*
X77610288Y-109739138D01*
X77612178Y-109738484D01*
X77613689Y-109739794D01*
X77613761Y-109740838D01*
X77610940Y-109755019D01*
X77610940Y-110354621D01*
X77613918Y-110369594D01*
X77613275Y-110371488D01*
X77611313Y-110371878D01*
X77610673Y-110371519D01*
X77558994Y-110328331D01*
X77490279Y-110319700D01*
X77427649Y-110349664D01*
X77409592Y-110370502D01*
X77407702Y-110371156D01*
X77406191Y-110369846D01*
X77406119Y-110368802D01*
X77408940Y-110354621D01*
X77408940Y-109755019D01*
X77405962Y-109740046D01*
X77406605Y-109738152D01*
X77408567Y-109737762D01*
X77409207Y-109738121D01*
G37*
G36*
X95549707Y-107635277D02*
G01*
X95551092Y-107636439D01*
X95551539Y-107636971D01*
X95554817Y-107642649D01*
X95605157Y-107690648D01*
X95673165Y-107703755D01*
X95737557Y-107677975D01*
X95768095Y-107642732D01*
X95771421Y-107636971D01*
X95771868Y-107636439D01*
X95773253Y-107635277D01*
X95775222Y-107634930D01*
X95776508Y-107636462D01*
X95776201Y-107637920D01*
X95744757Y-107684979D01*
X95731020Y-107754040D01*
X95744757Y-107823101D01*
X95776201Y-107870160D01*
X95776332Y-107872156D01*
X95774669Y-107873267D01*
X95773253Y-107872803D01*
X95771868Y-107871641D01*
X95771421Y-107871109D01*
X95768143Y-107865431D01*
X95717803Y-107817432D01*
X95649795Y-107804325D01*
X95585403Y-107830105D01*
X95554865Y-107865348D01*
X95551539Y-107871109D01*
X95551092Y-107871641D01*
X95549707Y-107872803D01*
X95547738Y-107873150D01*
X95546452Y-107871618D01*
X95546759Y-107870160D01*
X95578203Y-107823101D01*
X95591940Y-107754040D01*
X95578203Y-107684979D01*
X95546759Y-107637920D01*
X95546628Y-107635924D01*
X95548291Y-107634813D01*
X95549707Y-107635277D01*
G37*
G36*
X95313919Y-107401720D02*
G01*
X95342419Y-107420763D01*
X95411480Y-107434500D01*
X95480541Y-107420763D01*
X95509041Y-107401720D01*
X95511037Y-107401589D01*
X95512148Y-107403252D01*
X95511438Y-107404915D01*
X95505815Y-107409633D01*
X95467287Y-107467543D01*
X95466189Y-107536776D01*
X95505829Y-107598458D01*
X95511438Y-107603165D01*
X95512122Y-107605044D01*
X95510836Y-107606576D01*
X95509041Y-107606360D01*
X95480541Y-107587317D01*
X95411480Y-107573580D01*
X95342419Y-107587317D01*
X95313919Y-107606360D01*
X95311923Y-107606491D01*
X95310812Y-107604828D01*
X95311522Y-107603165D01*
X95317145Y-107598447D01*
X95355673Y-107540537D01*
X95356771Y-107471304D01*
X95317131Y-107409622D01*
X95311522Y-107404915D01*
X95310838Y-107403036D01*
X95312124Y-107401504D01*
X95313919Y-107401720D01*
G37*
G36*
X95813919Y-107401720D02*
G01*
X95842419Y-107420763D01*
X95911480Y-107434500D01*
X95980541Y-107420763D01*
X96009041Y-107401720D01*
X96011037Y-107401589D01*
X96012148Y-107403252D01*
X96011438Y-107404915D01*
X96005815Y-107409633D01*
X95967287Y-107467543D01*
X95966189Y-107536776D01*
X96005829Y-107598458D01*
X96011438Y-107603165D01*
X96012122Y-107605044D01*
X96010836Y-107606576D01*
X96009041Y-107606360D01*
X95980541Y-107587317D01*
X95911480Y-107573580D01*
X95842419Y-107587317D01*
X95813919Y-107606360D01*
X95811923Y-107606491D01*
X95810812Y-107604828D01*
X95811522Y-107603165D01*
X95817145Y-107598447D01*
X95855673Y-107540537D01*
X95856771Y-107471304D01*
X95817131Y-107409622D01*
X95811522Y-107404915D01*
X95810838Y-107403036D01*
X95812124Y-107401504D01*
X95813919Y-107401720D01*
G37*
G36*
X95549707Y-107135277D02*
G01*
X95551092Y-107136439D01*
X95551539Y-107136971D01*
X95554817Y-107142649D01*
X95605157Y-107190648D01*
X95673165Y-107203755D01*
X95737557Y-107177975D01*
X95768095Y-107142732D01*
X95771421Y-107136971D01*
X95771868Y-107136439D01*
X95773253Y-107135277D01*
X95775222Y-107134930D01*
X95776508Y-107136462D01*
X95776201Y-107137920D01*
X95744757Y-107184979D01*
X95731020Y-107254040D01*
X95744757Y-107323101D01*
X95776201Y-107370160D01*
X95776332Y-107372156D01*
X95774669Y-107373267D01*
X95773253Y-107372803D01*
X95771868Y-107371641D01*
X95771421Y-107371109D01*
X95768143Y-107365431D01*
X95717803Y-107317432D01*
X95649795Y-107304325D01*
X95585403Y-107330105D01*
X95554865Y-107365348D01*
X95551539Y-107371109D01*
X95551092Y-107371641D01*
X95549707Y-107372803D01*
X95547738Y-107373150D01*
X95546452Y-107371618D01*
X95546759Y-107370160D01*
X95578203Y-107323101D01*
X95591940Y-107254040D01*
X95578203Y-107184979D01*
X95546759Y-107137920D01*
X95546628Y-107135924D01*
X95548291Y-107134813D01*
X95549707Y-107135277D01*
G37*
G36*
X95313919Y-106901720D02*
G01*
X95342419Y-106920763D01*
X95411480Y-106934500D01*
X95480541Y-106920763D01*
X95509041Y-106901720D01*
X95511037Y-106901589D01*
X95512148Y-106903252D01*
X95511438Y-106904915D01*
X95505815Y-106909633D01*
X95467287Y-106967543D01*
X95466189Y-107036776D01*
X95505829Y-107098458D01*
X95511438Y-107103165D01*
X95512122Y-107105044D01*
X95510836Y-107106576D01*
X95509041Y-107106360D01*
X95480541Y-107087317D01*
X95411480Y-107073580D01*
X95342419Y-107087317D01*
X95313919Y-107106360D01*
X95311923Y-107106491D01*
X95310812Y-107104828D01*
X95311522Y-107103165D01*
X95317145Y-107098447D01*
X95355673Y-107040537D01*
X95356771Y-106971304D01*
X95317131Y-106909622D01*
X95311522Y-106904915D01*
X95310838Y-106903036D01*
X95312124Y-106901504D01*
X95313919Y-106901720D01*
G37*
G36*
X95813919Y-106901720D02*
G01*
X95842419Y-106920763D01*
X95911480Y-106934500D01*
X95980541Y-106920763D01*
X96009041Y-106901720D01*
X96011037Y-106901589D01*
X96012148Y-106903252D01*
X96011438Y-106904915D01*
X96005815Y-106909633D01*
X95967287Y-106967543D01*
X95966189Y-107036776D01*
X96005829Y-107098458D01*
X96011438Y-107103165D01*
X96012122Y-107105044D01*
X96010836Y-107106576D01*
X96009041Y-107106360D01*
X95980541Y-107087317D01*
X95911480Y-107073580D01*
X95842419Y-107087317D01*
X95813919Y-107106360D01*
X95811923Y-107106491D01*
X95810812Y-107104828D01*
X95811522Y-107103165D01*
X95817145Y-107098447D01*
X95855673Y-107040537D01*
X95856771Y-106971304D01*
X95817131Y-106909622D01*
X95811522Y-106904915D01*
X95810838Y-106903036D01*
X95812124Y-106901504D01*
X95813919Y-106901720D01*
G37*
G36*
X95549707Y-106635277D02*
G01*
X95551092Y-106636439D01*
X95551539Y-106636971D01*
X95554817Y-106642649D01*
X95605157Y-106690648D01*
X95673165Y-106703755D01*
X95737557Y-106677975D01*
X95768095Y-106642732D01*
X95771422Y-106636970D01*
X95771869Y-106636438D01*
X95773253Y-106635277D01*
X95775222Y-106634930D01*
X95776508Y-106636462D01*
X95776201Y-106637920D01*
X95744757Y-106684979D01*
X95731020Y-106754040D01*
X95744757Y-106823101D01*
X95776201Y-106870160D01*
X95776332Y-106872156D01*
X95774669Y-106873267D01*
X95773253Y-106872803D01*
X95771868Y-106871641D01*
X95771421Y-106871109D01*
X95768143Y-106865431D01*
X95717803Y-106817432D01*
X95649795Y-106804325D01*
X95585403Y-106830105D01*
X95554865Y-106865348D01*
X95551539Y-106871109D01*
X95551092Y-106871641D01*
X95549707Y-106872803D01*
X95547738Y-106873150D01*
X95546452Y-106871618D01*
X95546759Y-106870160D01*
X95578203Y-106823101D01*
X95591940Y-106754040D01*
X95578203Y-106684979D01*
X95546759Y-106637920D01*
X95546628Y-106635924D01*
X95548291Y-106634813D01*
X95549707Y-106635277D01*
G37*
G36*
X96759313Y-103777357D02*
G01*
X96759877Y-103779276D01*
X96759596Y-103779915D01*
X96749447Y-103795103D01*
X96745680Y-103814039D01*
X96745680Y-104513641D01*
X96749447Y-104532578D01*
X96759494Y-104547613D01*
X96759625Y-104549608D01*
X96757962Y-104550720D01*
X96757233Y-104550633D01*
X96696892Y-104531738D01*
X96631990Y-104550795D01*
X96630047Y-104550323D01*
X96629483Y-104548404D01*
X96629764Y-104547765D01*
X96639913Y-104532577D01*
X96643680Y-104513641D01*
X96643680Y-103814039D01*
X96639913Y-103795102D01*
X96629866Y-103780067D01*
X96629735Y-103778072D01*
X96631398Y-103776960D01*
X96632127Y-103777047D01*
X96692468Y-103795942D01*
X96757370Y-103776885D01*
X96759313Y-103777357D01*
G37*
G36*
X95759313Y-103777357D02*
G01*
X95759877Y-103779276D01*
X95759596Y-103779915D01*
X95749447Y-103795103D01*
X95745680Y-103814039D01*
X95745680Y-104513641D01*
X95749447Y-104532578D01*
X95759494Y-104547613D01*
X95759625Y-104549608D01*
X95757962Y-104550720D01*
X95757233Y-104550633D01*
X95696892Y-104531738D01*
X95631990Y-104550795D01*
X95630047Y-104550323D01*
X95629483Y-104548404D01*
X95629764Y-104547765D01*
X95639913Y-104532577D01*
X95643680Y-104513641D01*
X95643680Y-103814039D01*
X95639913Y-103795102D01*
X95629866Y-103780067D01*
X95629735Y-103778072D01*
X95631398Y-103776960D01*
X95632127Y-103777047D01*
X95692468Y-103795942D01*
X95757370Y-103776885D01*
X95759313Y-103777357D01*
G37*
G36*
X95259313Y-103777357D02*
G01*
X95259877Y-103779276D01*
X95259596Y-103779915D01*
X95249447Y-103795103D01*
X95245680Y-103814039D01*
X95245680Y-104513641D01*
X95249447Y-104532578D01*
X95259494Y-104547613D01*
X95259625Y-104549608D01*
X95257962Y-104550720D01*
X95257233Y-104550633D01*
X95196892Y-104531738D01*
X95131990Y-104550795D01*
X95130047Y-104550323D01*
X95129483Y-104548404D01*
X95129764Y-104547765D01*
X95139913Y-104532577D01*
X95143680Y-104513641D01*
X95143680Y-103814039D01*
X95139913Y-103795102D01*
X95129866Y-103780067D01*
X95129735Y-103778072D01*
X95131398Y-103776960D01*
X95132127Y-103777047D01*
X95192468Y-103795942D01*
X95257370Y-103776885D01*
X95259313Y-103777357D01*
G37*
G36*
X96259313Y-103777357D02*
G01*
X96259877Y-103779276D01*
X96259596Y-103779915D01*
X96249447Y-103795103D01*
X96245680Y-103814039D01*
X96245680Y-104513641D01*
X96249447Y-104532578D01*
X96259494Y-104547613D01*
X96259625Y-104549608D01*
X96257962Y-104550720D01*
X96257233Y-104550633D01*
X96196892Y-104531738D01*
X96131990Y-104550795D01*
X96130047Y-104550323D01*
X96129483Y-104548404D01*
X96129764Y-104547765D01*
X96139913Y-104532577D01*
X96143680Y-104513641D01*
X96143680Y-103814039D01*
X96139913Y-103795102D01*
X96129866Y-103780067D01*
X96129735Y-103778072D01*
X96131398Y-103776960D01*
X96132127Y-103777047D01*
X96192468Y-103795942D01*
X96257370Y-103776885D01*
X96259313Y-103777357D01*
G37*
G36*
X94759313Y-103777357D02*
G01*
X94759877Y-103779276D01*
X94759596Y-103779915D01*
X94749447Y-103795103D01*
X94745680Y-103814039D01*
X94745680Y-104513641D01*
X94749447Y-104532578D01*
X94759494Y-104547613D01*
X94759625Y-104549608D01*
X94757962Y-104550720D01*
X94757233Y-104550633D01*
X94696892Y-104531738D01*
X94631990Y-104550795D01*
X94630047Y-104550323D01*
X94629483Y-104548404D01*
X94629764Y-104547765D01*
X94639913Y-104532577D01*
X94643680Y-104513641D01*
X94643680Y-103814039D01*
X94639913Y-103795102D01*
X94629866Y-103780067D01*
X94629735Y-103778072D01*
X94631398Y-103776960D01*
X94632127Y-103777047D01*
X94692468Y-103795942D01*
X94757370Y-103776885D01*
X94759313Y-103777357D01*
G37*
G36*
X85999433Y-93415717D02*
G01*
X85999997Y-93417636D01*
X85999716Y-93418275D01*
X85989567Y-93433463D01*
X85985800Y-93452399D01*
X85985800Y-94152001D01*
X85989567Y-94170938D01*
X85999614Y-94185973D01*
X85999745Y-94187968D01*
X85998082Y-94189080D01*
X85997353Y-94188993D01*
X85937012Y-94170098D01*
X85872110Y-94189155D01*
X85870167Y-94188683D01*
X85869603Y-94186764D01*
X85869884Y-94186125D01*
X85880033Y-94170937D01*
X85883800Y-94152001D01*
X85883800Y-93452399D01*
X85880033Y-93433462D01*
X85869986Y-93418427D01*
X85869855Y-93416432D01*
X85871518Y-93415320D01*
X85872247Y-93415407D01*
X85932588Y-93434302D01*
X85997490Y-93415245D01*
X85999433Y-93415717D01*
G37*
G36*
X84999433Y-93415717D02*
G01*
X84999997Y-93417636D01*
X84999716Y-93418275D01*
X84989567Y-93433463D01*
X84985800Y-93452399D01*
X84985800Y-94152001D01*
X84989567Y-94170938D01*
X84999614Y-94185973D01*
X84999745Y-94187968D01*
X84998082Y-94189080D01*
X84997353Y-94188993D01*
X84937012Y-94170098D01*
X84872110Y-94189155D01*
X84870167Y-94188683D01*
X84869603Y-94186764D01*
X84869884Y-94186125D01*
X84880033Y-94170937D01*
X84883800Y-94152001D01*
X84883800Y-93452399D01*
X84880033Y-93433462D01*
X84869986Y-93418427D01*
X84869855Y-93416432D01*
X84871518Y-93415320D01*
X84872247Y-93415407D01*
X84932588Y-93434302D01*
X84997490Y-93415245D01*
X84999433Y-93415717D01*
G37*
G36*
X88999433Y-93415717D02*
G01*
X88999997Y-93417636D01*
X88999716Y-93418275D01*
X88989567Y-93433463D01*
X88985800Y-93452399D01*
X88985800Y-94152001D01*
X88989567Y-94170938D01*
X88999614Y-94185973D01*
X88999745Y-94187968D01*
X88998082Y-94189080D01*
X88997353Y-94188993D01*
X88937012Y-94170098D01*
X88872110Y-94189155D01*
X88870167Y-94188683D01*
X88869603Y-94186764D01*
X88869884Y-94186125D01*
X88880033Y-94170937D01*
X88883800Y-94152001D01*
X88883800Y-93452399D01*
X88880033Y-93433462D01*
X88869986Y-93418427D01*
X88869855Y-93416432D01*
X88871518Y-93415320D01*
X88872247Y-93415407D01*
X88932588Y-93434302D01*
X88997490Y-93415245D01*
X88999433Y-93415717D01*
G37*
G36*
X85499433Y-93415717D02*
G01*
X85499997Y-93417636D01*
X85499716Y-93418275D01*
X85489567Y-93433463D01*
X85485800Y-93452399D01*
X85485800Y-94152001D01*
X85489567Y-94170938D01*
X85499614Y-94185973D01*
X85499745Y-94187968D01*
X85498082Y-94189080D01*
X85497353Y-94188993D01*
X85437012Y-94170098D01*
X85372110Y-94189155D01*
X85370167Y-94188683D01*
X85369603Y-94186764D01*
X85369884Y-94186125D01*
X85380033Y-94170937D01*
X85383800Y-94152001D01*
X85383800Y-93452399D01*
X85380033Y-93433462D01*
X85369986Y-93418427D01*
X85369855Y-93416432D01*
X85371518Y-93415320D01*
X85372247Y-93415407D01*
X85432588Y-93434302D01*
X85497490Y-93415245D01*
X85499433Y-93415717D01*
G37*
G36*
X86499433Y-93415717D02*
G01*
X86499997Y-93417636D01*
X86499716Y-93418275D01*
X86489567Y-93433463D01*
X86485800Y-93452399D01*
X86485800Y-94152001D01*
X86489567Y-94170938D01*
X86499614Y-94185973D01*
X86499745Y-94187968D01*
X86498082Y-94189080D01*
X86497353Y-94188993D01*
X86437012Y-94170098D01*
X86372110Y-94189155D01*
X86370167Y-94188683D01*
X86369603Y-94186764D01*
X86369884Y-94186125D01*
X86380033Y-94170937D01*
X86383800Y-94152001D01*
X86383800Y-93452399D01*
X86380033Y-93433462D01*
X86369986Y-93418427D01*
X86369855Y-93416432D01*
X86371518Y-93415320D01*
X86372247Y-93415407D01*
X86432588Y-93434302D01*
X86497490Y-93415245D01*
X86499433Y-93415717D01*
G37*
G36*
X89999433Y-93415717D02*
G01*
X89999997Y-93417636D01*
X89999716Y-93418275D01*
X89989567Y-93433463D01*
X89985800Y-93452399D01*
X89985800Y-94152001D01*
X89989567Y-94170938D01*
X89999614Y-94185973D01*
X89999745Y-94187968D01*
X89998082Y-94189080D01*
X89997353Y-94188993D01*
X89937012Y-94170098D01*
X89872110Y-94189155D01*
X89870167Y-94188683D01*
X89869603Y-94186764D01*
X89869884Y-94186125D01*
X89880033Y-94170937D01*
X89883800Y-94152001D01*
X89883800Y-93452399D01*
X89880033Y-93433462D01*
X89869986Y-93418427D01*
X89869855Y-93416432D01*
X89871518Y-93415320D01*
X89872247Y-93415407D01*
X89932588Y-93434302D01*
X89997490Y-93415245D01*
X89999433Y-93415717D01*
G37*
G36*
X86999433Y-93415717D02*
G01*
X86999997Y-93417636D01*
X86999716Y-93418275D01*
X86989567Y-93433463D01*
X86985800Y-93452399D01*
X86985800Y-94152001D01*
X86989567Y-94170938D01*
X86999614Y-94185973D01*
X86999745Y-94187968D01*
X86998082Y-94189080D01*
X86997353Y-94188993D01*
X86937012Y-94170098D01*
X86872110Y-94189155D01*
X86870167Y-94188683D01*
X86869603Y-94186764D01*
X86869884Y-94186125D01*
X86880033Y-94170937D01*
X86883800Y-94152001D01*
X86883800Y-93452399D01*
X86880033Y-93433462D01*
X86869986Y-93418427D01*
X86869855Y-93416432D01*
X86871518Y-93415320D01*
X86872247Y-93415407D01*
X86932588Y-93434302D01*
X86997490Y-93415245D01*
X86999433Y-93415717D01*
G37*
G36*
X90499433Y-93415717D02*
G01*
X90499997Y-93417636D01*
X90499716Y-93418275D01*
X90489567Y-93433463D01*
X90485800Y-93452399D01*
X90485800Y-94152001D01*
X90489567Y-94170938D01*
X90499614Y-94185973D01*
X90499745Y-94187968D01*
X90498082Y-94189080D01*
X90497353Y-94188993D01*
X90437012Y-94170098D01*
X90372110Y-94189155D01*
X90370167Y-94188683D01*
X90369603Y-94186764D01*
X90369884Y-94186125D01*
X90380033Y-94170937D01*
X90383800Y-94152001D01*
X90383800Y-93452399D01*
X90380033Y-93433462D01*
X90369986Y-93418427D01*
X90369855Y-93416432D01*
X90371518Y-93415320D01*
X90372247Y-93415407D01*
X90432588Y-93434302D01*
X90497490Y-93415245D01*
X90499433Y-93415717D01*
G37*
G36*
X87499433Y-93415717D02*
G01*
X87499997Y-93417636D01*
X87499716Y-93418275D01*
X87489567Y-93433463D01*
X87485800Y-93452399D01*
X87485800Y-94152001D01*
X87489567Y-94170938D01*
X87499614Y-94185973D01*
X87499745Y-94187968D01*
X87498082Y-94189080D01*
X87497353Y-94188993D01*
X87437012Y-94170098D01*
X87372110Y-94189155D01*
X87370167Y-94188683D01*
X87369603Y-94186764D01*
X87369884Y-94186125D01*
X87380033Y-94170937D01*
X87383800Y-94152001D01*
X87383800Y-93452399D01*
X87380033Y-93433462D01*
X87369986Y-93418427D01*
X87369855Y-93416432D01*
X87371518Y-93415320D01*
X87372247Y-93415407D01*
X87432588Y-93434302D01*
X87497490Y-93415245D01*
X87499433Y-93415717D01*
G37*
G36*
X89499433Y-93415717D02*
G01*
X89499997Y-93417636D01*
X89499716Y-93418275D01*
X89489567Y-93433463D01*
X89485800Y-93452399D01*
X89485800Y-94152001D01*
X89489567Y-94170938D01*
X89499614Y-94185973D01*
X89499745Y-94187968D01*
X89498082Y-94189080D01*
X89497353Y-94188993D01*
X89437012Y-94170098D01*
X89372110Y-94189155D01*
X89370167Y-94188683D01*
X89369603Y-94186764D01*
X89369884Y-94186125D01*
X89380033Y-94170937D01*
X89383800Y-94152001D01*
X89383800Y-93452399D01*
X89380033Y-93433462D01*
X89369986Y-93418427D01*
X89369855Y-93416432D01*
X89371518Y-93415320D01*
X89372247Y-93415407D01*
X89432588Y-93434302D01*
X89497490Y-93415245D01*
X89499433Y-93415717D01*
G37*
G36*
X87999433Y-93415717D02*
G01*
X87999997Y-93417636D01*
X87999716Y-93418275D01*
X87989567Y-93433463D01*
X87985800Y-93452399D01*
X87985800Y-94152001D01*
X87989567Y-94170938D01*
X87999614Y-94185973D01*
X87999745Y-94187968D01*
X87998082Y-94189080D01*
X87997353Y-94188993D01*
X87937012Y-94170098D01*
X87872110Y-94189155D01*
X87870167Y-94188683D01*
X87869603Y-94186764D01*
X87869884Y-94186125D01*
X87880033Y-94170937D01*
X87883800Y-94152001D01*
X87883800Y-93452399D01*
X87880033Y-93433462D01*
X87869986Y-93418427D01*
X87869855Y-93416432D01*
X87871518Y-93415320D01*
X87872247Y-93415407D01*
X87932588Y-93434302D01*
X87997490Y-93415245D01*
X87999433Y-93415717D01*
G37*
G36*
X88499433Y-93415717D02*
G01*
X88499997Y-93417636D01*
X88499716Y-93418275D01*
X88489567Y-93433463D01*
X88485800Y-93452399D01*
X88485800Y-94152001D01*
X88489567Y-94170938D01*
X88499614Y-94185973D01*
X88499745Y-94187968D01*
X88498082Y-94189080D01*
X88497353Y-94188993D01*
X88437012Y-94170098D01*
X88372110Y-94189155D01*
X88370167Y-94188683D01*
X88369603Y-94186764D01*
X88369884Y-94186125D01*
X88380033Y-94170937D01*
X88383800Y-94152001D01*
X88383800Y-93452399D01*
X88380033Y-93433462D01*
X88369986Y-93418427D01*
X88369855Y-93416432D01*
X88371518Y-93415320D01*
X88372247Y-93415407D01*
X88432588Y-93434302D01*
X88497490Y-93415245D01*
X88499433Y-93415717D01*
G37*
G36*
X90999433Y-93415717D02*
G01*
X90999997Y-93417636D01*
X90999716Y-93418275D01*
X90989567Y-93433463D01*
X90985800Y-93452399D01*
X90985800Y-94152001D01*
X90989567Y-94170938D01*
X90999614Y-94185973D01*
X90999745Y-94187968D01*
X90998082Y-94189080D01*
X90997353Y-94188993D01*
X90937012Y-94170098D01*
X90872110Y-94189155D01*
X90870167Y-94188683D01*
X90869603Y-94186764D01*
X90869884Y-94186125D01*
X90880033Y-94170937D01*
X90883800Y-94152001D01*
X90883800Y-93452399D01*
X90880033Y-93433462D01*
X90869986Y-93418427D01*
X90869855Y-93416432D01*
X90871518Y-93415320D01*
X90872247Y-93415407D01*
X90932588Y-93434302D01*
X90997490Y-93415245D01*
X90999433Y-93415717D01*
G37*
G36*
X95119433Y-93412717D02*
G01*
X95119997Y-93414636D01*
X95119716Y-93415275D01*
X95109567Y-93430463D01*
X95105800Y-93449399D01*
X95105800Y-94149001D01*
X95109567Y-94167938D01*
X95119614Y-94182973D01*
X95119745Y-94184968D01*
X95118082Y-94186080D01*
X95117353Y-94185993D01*
X95057012Y-94167098D01*
X94992110Y-94186155D01*
X94990167Y-94185683D01*
X94989603Y-94183764D01*
X94989884Y-94183125D01*
X95000033Y-94167937D01*
X95003800Y-94149001D01*
X95003800Y-93449399D01*
X95000033Y-93430462D01*
X94989986Y-93415427D01*
X94989855Y-93413432D01*
X94991518Y-93412320D01*
X94992247Y-93412407D01*
X95052588Y-93431302D01*
X95117490Y-93412245D01*
X95119433Y-93412717D01*
G37*
G36*
X96619433Y-93412717D02*
G01*
X96619997Y-93414636D01*
X96619716Y-93415275D01*
X96609567Y-93430463D01*
X96605800Y-93449399D01*
X96605800Y-94149001D01*
X96609567Y-94167938D01*
X96619614Y-94182973D01*
X96619745Y-94184968D01*
X96618082Y-94186080D01*
X96617353Y-94185993D01*
X96557012Y-94167098D01*
X96492110Y-94186155D01*
X96490167Y-94185683D01*
X96489603Y-94183764D01*
X96489884Y-94183125D01*
X96500033Y-94167937D01*
X96503800Y-94149001D01*
X96503800Y-93449399D01*
X96500033Y-93430462D01*
X96489986Y-93415427D01*
X96489855Y-93413432D01*
X96491518Y-93412320D01*
X96492247Y-93412407D01*
X96552588Y-93431302D01*
X96617490Y-93412245D01*
X96619433Y-93412717D01*
G37*
G36*
X94619433Y-93412717D02*
G01*
X94619997Y-93414636D01*
X94619716Y-93415275D01*
X94609567Y-93430463D01*
X94605800Y-93449399D01*
X94605800Y-94149001D01*
X94609567Y-94167938D01*
X94619614Y-94182973D01*
X94619745Y-94184968D01*
X94618082Y-94186080D01*
X94617353Y-94185993D01*
X94557012Y-94167098D01*
X94492110Y-94186155D01*
X94490167Y-94185683D01*
X94489603Y-94183764D01*
X94489884Y-94183125D01*
X94500033Y-94167937D01*
X94503800Y-94149001D01*
X94503800Y-93449399D01*
X94500033Y-93430462D01*
X94489986Y-93415427D01*
X94489855Y-93413432D01*
X94491518Y-93412320D01*
X94492247Y-93412407D01*
X94552588Y-93431302D01*
X94617490Y-93412245D01*
X94619433Y-93412717D01*
G37*
G36*
X96119433Y-93412717D02*
G01*
X96119997Y-93414636D01*
X96119716Y-93415275D01*
X96109567Y-93430463D01*
X96105800Y-93449399D01*
X96105800Y-94149001D01*
X96109567Y-94167938D01*
X96119614Y-94182973D01*
X96119745Y-94184968D01*
X96118082Y-94186080D01*
X96117353Y-94185993D01*
X96057012Y-94167098D01*
X95992110Y-94186155D01*
X95990167Y-94185683D01*
X95989603Y-94183764D01*
X95989884Y-94183125D01*
X96000033Y-94167937D01*
X96003800Y-94149001D01*
X96003800Y-93449399D01*
X96000033Y-93430462D01*
X95989986Y-93415427D01*
X95989855Y-93413432D01*
X95991518Y-93412320D01*
X95992247Y-93412407D01*
X96052588Y-93431302D01*
X96117490Y-93412245D01*
X96119433Y-93412717D01*
G37*
G36*
X95619433Y-93412717D02*
G01*
X95619997Y-93414636D01*
X95619716Y-93415275D01*
X95609567Y-93430463D01*
X95605800Y-93449399D01*
X95605800Y-94149001D01*
X95609567Y-94167938D01*
X95619614Y-94182973D01*
X95619745Y-94184968D01*
X95618082Y-94186080D01*
X95617353Y-94185993D01*
X95557012Y-94167098D01*
X95492110Y-94186155D01*
X95490167Y-94185683D01*
X95489603Y-94183764D01*
X95489884Y-94183125D01*
X95500033Y-94167937D01*
X95503800Y-94149001D01*
X95503800Y-93449399D01*
X95500033Y-93430462D01*
X95489986Y-93415427D01*
X95489855Y-93413432D01*
X95491518Y-93412320D01*
X95492247Y-93412407D01*
X95552588Y-93431302D01*
X95617490Y-93412245D01*
X95619433Y-93412717D01*
G37*
G36*
X78767578Y-90134355D02*
G01*
X78768160Y-90135412D01*
X78768604Y-90137644D01*
X78784873Y-90134408D01*
X78786767Y-90135051D01*
X78787157Y-90137013D01*
X78786374Y-90138033D01*
X78775380Y-90145380D01*
X78764767Y-90161262D01*
X78761000Y-90180199D01*
X78761000Y-90379801D01*
X78764767Y-90398738D01*
X78775380Y-90414620D01*
X78791262Y-90425233D01*
X78810199Y-90429000D01*
X79339801Y-90429000D01*
X79358738Y-90425233D01*
X79374620Y-90414620D01*
X79381968Y-90403624D01*
X79383762Y-90402739D01*
X79385425Y-90403850D01*
X79385593Y-90405125D01*
X79382331Y-90421528D01*
X79383631Y-90422669D01*
X79383646Y-90423909D01*
X79374603Y-90452791D01*
X79384350Y-90485986D01*
X79383878Y-90487929D01*
X79382821Y-90488511D01*
X79382356Y-90488604D01*
X79385592Y-90504873D01*
X79384949Y-90506767D01*
X79382987Y-90507157D01*
X79381967Y-90506374D01*
X79374620Y-90495380D01*
X79358738Y-90484767D01*
X79339801Y-90481000D01*
X78810199Y-90481000D01*
X78791262Y-90484767D01*
X78775380Y-90495380D01*
X78764767Y-90511262D01*
X78761000Y-90530199D01*
X78761000Y-90729801D01*
X78764767Y-90748738D01*
X78775380Y-90764620D01*
X78791262Y-90775233D01*
X78810199Y-90779000D01*
X79339801Y-90779000D01*
X79358738Y-90775233D01*
X79374620Y-90764620D01*
X79381968Y-90753624D01*
X79383762Y-90752739D01*
X79385425Y-90753850D01*
X79385593Y-90755125D01*
X79382331Y-90771528D01*
X79383631Y-90772669D01*
X79383646Y-90773909D01*
X79374603Y-90802791D01*
X79384350Y-90835986D01*
X79383878Y-90837929D01*
X79382821Y-90838511D01*
X79382356Y-90838604D01*
X79385592Y-90854873D01*
X79384949Y-90856767D01*
X79382987Y-90857157D01*
X79381967Y-90856374D01*
X79374620Y-90845380D01*
X79358738Y-90834767D01*
X79339801Y-90831000D01*
X78810199Y-90831000D01*
X78791262Y-90834767D01*
X78775380Y-90845380D01*
X78764767Y-90861262D01*
X78761000Y-90880199D01*
X78761000Y-91079801D01*
X78764767Y-91098738D01*
X78775380Y-91114620D01*
X78791262Y-91125233D01*
X78810199Y-91129000D01*
X79339801Y-91129000D01*
X79358738Y-91125233D01*
X79374620Y-91114620D01*
X79381968Y-91103624D01*
X79383762Y-91102739D01*
X79385425Y-91103850D01*
X79385593Y-91105125D01*
X79382331Y-91121528D01*
X79383631Y-91122669D01*
X79383646Y-91123909D01*
X79374603Y-91152791D01*
X79384350Y-91185986D01*
X79383878Y-91187929D01*
X79382821Y-91188511D01*
X79382356Y-91188604D01*
X79385592Y-91204873D01*
X79384949Y-91206767D01*
X79382987Y-91207157D01*
X79381967Y-91206374D01*
X79374620Y-91195380D01*
X79358738Y-91184767D01*
X79339801Y-91181000D01*
X78810199Y-91181000D01*
X78791262Y-91184767D01*
X78775380Y-91195380D01*
X78764767Y-91211262D01*
X78761000Y-91230199D01*
X78761000Y-91429801D01*
X78764767Y-91448738D01*
X78775380Y-91464620D01*
X78786376Y-91471968D01*
X78787261Y-91473762D01*
X78786150Y-91475425D01*
X78784875Y-91475593D01*
X78768606Y-91472357D01*
X78768319Y-91473799D01*
X78767000Y-91475303D01*
X78765760Y-91475318D01*
X78742201Y-91467944D01*
X78714365Y-91476117D01*
X78712422Y-91475645D01*
X78711840Y-91474588D01*
X78711396Y-91472356D01*
X78695127Y-91475592D01*
X78693233Y-91474949D01*
X78692843Y-91472987D01*
X78693626Y-91471967D01*
X78704620Y-91464620D01*
X78715233Y-91448738D01*
X78719000Y-91429801D01*
X78719000Y-91230199D01*
X78715233Y-91211262D01*
X78704620Y-91195380D01*
X78688738Y-91184767D01*
X78669801Y-91181000D01*
X78140199Y-91181000D01*
X78121262Y-91184767D01*
X78105380Y-91195380D01*
X78098032Y-91206376D01*
X78096238Y-91207261D01*
X78094575Y-91206150D01*
X78094407Y-91204875D01*
X78097669Y-91188472D01*
X78096369Y-91187331D01*
X78096354Y-91186091D01*
X78105397Y-91157209D01*
X78095650Y-91124014D01*
X78096122Y-91122071D01*
X78097179Y-91121489D01*
X78097644Y-91121396D01*
X78094408Y-91105127D01*
X78095051Y-91103233D01*
X78097013Y-91102843D01*
X78098033Y-91103626D01*
X78105380Y-91114620D01*
X78121262Y-91125233D01*
X78140199Y-91129000D01*
X78669801Y-91129000D01*
X78688738Y-91125233D01*
X78704620Y-91114620D01*
X78715233Y-91098738D01*
X78719000Y-91079801D01*
X78719000Y-90880199D01*
X78715233Y-90861262D01*
X78704620Y-90845380D01*
X78688738Y-90834767D01*
X78669801Y-90831000D01*
X78140199Y-90831000D01*
X78121262Y-90834767D01*
X78105380Y-90845380D01*
X78098032Y-90856376D01*
X78096238Y-90857261D01*
X78094575Y-90856150D01*
X78094407Y-90854875D01*
X78097669Y-90838472D01*
X78096369Y-90837331D01*
X78096354Y-90836091D01*
X78105397Y-90807209D01*
X78095650Y-90774014D01*
X78096122Y-90772071D01*
X78097179Y-90771489D01*
X78097644Y-90771396D01*
X78094408Y-90755127D01*
X78095051Y-90753233D01*
X78097013Y-90752843D01*
X78098033Y-90753626D01*
X78105380Y-90764620D01*
X78121262Y-90775233D01*
X78140199Y-90779000D01*
X78669801Y-90779000D01*
X78688738Y-90775233D01*
X78704620Y-90764620D01*
X78715233Y-90748738D01*
X78719000Y-90729801D01*
X78719000Y-90530199D01*
X78715233Y-90511262D01*
X78704620Y-90495380D01*
X78688738Y-90484767D01*
X78669801Y-90481000D01*
X78140199Y-90481000D01*
X78121262Y-90484767D01*
X78105380Y-90495380D01*
X78098032Y-90506376D01*
X78096238Y-90507261D01*
X78094575Y-90506150D01*
X78094407Y-90504875D01*
X78097669Y-90488472D01*
X78096369Y-90487331D01*
X78096354Y-90486091D01*
X78105397Y-90457209D01*
X78095650Y-90424014D01*
X78096122Y-90422071D01*
X78097179Y-90421489D01*
X78097644Y-90421396D01*
X78094408Y-90405127D01*
X78095051Y-90403233D01*
X78097013Y-90402843D01*
X78098033Y-90403626D01*
X78105380Y-90414620D01*
X78121262Y-90425233D01*
X78140199Y-90429000D01*
X78669801Y-90429000D01*
X78688738Y-90425233D01*
X78704620Y-90414620D01*
X78715233Y-90398738D01*
X78719000Y-90379801D01*
X78719000Y-90180199D01*
X78715233Y-90161262D01*
X78704620Y-90145380D01*
X78693624Y-90138032D01*
X78692739Y-90136238D01*
X78693850Y-90134575D01*
X78695125Y-90134407D01*
X78711394Y-90137643D01*
X78711681Y-90136201D01*
X78713000Y-90134697D01*
X78714240Y-90134682D01*
X78737799Y-90142056D01*
X78765635Y-90133883D01*
X78767578Y-90134355D01*
G37*
G36*
X90531067Y-90211501D02*
G01*
X90582746Y-90254689D01*
X90651461Y-90263320D01*
X90714091Y-90233356D01*
X90732148Y-90212518D01*
X90734038Y-90211864D01*
X90735549Y-90213174D01*
X90735621Y-90214218D01*
X90732800Y-90228399D01*
X90732800Y-90728001D01*
X90735778Y-90742974D01*
X90735135Y-90744868D01*
X90733173Y-90745258D01*
X90732533Y-90744899D01*
X90680854Y-90701711D01*
X90612139Y-90693080D01*
X90549509Y-90723044D01*
X90531452Y-90743882D01*
X90529562Y-90744536D01*
X90528051Y-90743226D01*
X90527979Y-90742182D01*
X90530800Y-90728001D01*
X90530800Y-90228399D01*
X90527822Y-90213426D01*
X90528465Y-90211532D01*
X90530427Y-90211142D01*
X90531067Y-90211501D01*
G37*
G36*
X97731067Y-90211501D02*
G01*
X97782746Y-90254689D01*
X97851461Y-90263320D01*
X97914091Y-90233356D01*
X97932148Y-90212518D01*
X97934038Y-90211864D01*
X97935549Y-90213174D01*
X97935621Y-90214218D01*
X97932800Y-90228399D01*
X97932800Y-90728001D01*
X97935778Y-90742974D01*
X97935135Y-90744868D01*
X97933173Y-90745258D01*
X97932533Y-90744899D01*
X97880854Y-90701711D01*
X97812139Y-90693080D01*
X97749509Y-90723044D01*
X97731452Y-90743882D01*
X97729562Y-90744536D01*
X97728051Y-90743226D01*
X97727979Y-90742182D01*
X97730800Y-90728001D01*
X97730800Y-90228399D01*
X97727822Y-90213426D01*
X97728465Y-90211532D01*
X97730427Y-90211142D01*
X97731067Y-90211501D01*
G37*
G36*
X92131067Y-90211501D02*
G01*
X92182746Y-90254689D01*
X92251461Y-90263320D01*
X92314091Y-90233356D01*
X92332148Y-90212518D01*
X92334038Y-90211864D01*
X92335549Y-90213174D01*
X92335621Y-90214218D01*
X92332800Y-90228399D01*
X92332800Y-90728001D01*
X92335778Y-90742974D01*
X92335135Y-90744868D01*
X92333173Y-90745258D01*
X92332533Y-90744899D01*
X92280854Y-90701711D01*
X92212139Y-90693080D01*
X92149509Y-90723044D01*
X92131452Y-90743882D01*
X92129562Y-90744536D01*
X92128051Y-90743226D01*
X92127979Y-90742182D01*
X92130800Y-90728001D01*
X92130800Y-90228399D01*
X92127822Y-90213426D01*
X92128465Y-90211532D01*
X92130427Y-90211142D01*
X92131067Y-90211501D01*
G37*
G36*
X94531067Y-90211501D02*
G01*
X94582746Y-90254689D01*
X94651461Y-90263320D01*
X94714091Y-90233356D01*
X94732148Y-90212518D01*
X94734038Y-90211864D01*
X94735549Y-90213174D01*
X94735621Y-90214218D01*
X94732800Y-90228399D01*
X94732800Y-90728001D01*
X94735778Y-90742974D01*
X94735135Y-90744868D01*
X94733173Y-90745258D01*
X94732533Y-90744899D01*
X94680854Y-90701711D01*
X94612139Y-90693080D01*
X94549509Y-90723044D01*
X94531452Y-90743882D01*
X94529562Y-90744536D01*
X94528051Y-90743226D01*
X94527979Y-90742182D01*
X94530800Y-90728001D01*
X94530800Y-90228399D01*
X94527822Y-90213426D01*
X94528465Y-90211532D01*
X94530427Y-90211142D01*
X94531067Y-90211501D01*
G37*
G36*
X92931067Y-90211501D02*
G01*
X92982746Y-90254689D01*
X93051461Y-90263320D01*
X93114091Y-90233356D01*
X93132148Y-90212518D01*
X93134038Y-90211864D01*
X93135549Y-90213174D01*
X93135621Y-90214218D01*
X93132800Y-90228399D01*
X93132800Y-90728001D01*
X93135778Y-90742974D01*
X93135135Y-90744868D01*
X93133173Y-90745258D01*
X93132533Y-90744899D01*
X93080854Y-90701711D01*
X93012139Y-90693080D01*
X92949509Y-90723044D01*
X92931452Y-90743882D01*
X92929562Y-90744536D01*
X92928051Y-90743226D01*
X92927979Y-90742182D01*
X92930800Y-90728001D01*
X92930800Y-90228399D01*
X92927822Y-90213426D01*
X92928465Y-90211532D01*
X92930427Y-90211142D01*
X92931067Y-90211501D01*
G37*
G36*
X93731067Y-90211501D02*
G01*
X93782746Y-90254689D01*
X93851461Y-90263320D01*
X93914091Y-90233356D01*
X93932148Y-90212518D01*
X93934038Y-90211864D01*
X93935549Y-90213174D01*
X93935621Y-90214218D01*
X93932800Y-90228399D01*
X93932800Y-90728001D01*
X93935778Y-90742974D01*
X93935135Y-90744868D01*
X93933173Y-90745258D01*
X93932533Y-90744899D01*
X93880854Y-90701711D01*
X93812139Y-90693080D01*
X93749509Y-90723044D01*
X93731452Y-90743882D01*
X93729562Y-90744536D01*
X93728051Y-90743226D01*
X93727979Y-90742182D01*
X93730800Y-90728001D01*
X93730800Y-90228399D01*
X93727822Y-90213426D01*
X93728465Y-90211532D01*
X93730427Y-90211142D01*
X93731067Y-90211501D01*
G37*
G36*
X91331067Y-90211501D02*
G01*
X91382746Y-90254689D01*
X91451461Y-90263320D01*
X91514091Y-90233356D01*
X91532148Y-90212518D01*
X91534038Y-90211864D01*
X91535549Y-90213174D01*
X91535621Y-90214218D01*
X91532800Y-90228399D01*
X91532800Y-90728001D01*
X91535778Y-90742974D01*
X91535135Y-90744868D01*
X91533173Y-90745258D01*
X91532533Y-90744899D01*
X91480854Y-90701711D01*
X91412139Y-90693080D01*
X91349509Y-90723044D01*
X91331452Y-90743882D01*
X91329562Y-90744536D01*
X91328051Y-90743226D01*
X91327979Y-90742182D01*
X91330800Y-90728001D01*
X91330800Y-90228399D01*
X91327822Y-90213426D01*
X91328465Y-90211532D01*
X91330427Y-90211142D01*
X91331067Y-90211501D01*
G37*
G36*
X89731067Y-90211501D02*
G01*
X89782746Y-90254689D01*
X89851461Y-90263320D01*
X89914091Y-90233356D01*
X89932148Y-90212518D01*
X89934038Y-90211864D01*
X89935549Y-90213174D01*
X89935621Y-90214218D01*
X89932800Y-90228399D01*
X89932800Y-90728001D01*
X89935778Y-90742974D01*
X89935135Y-90744868D01*
X89933173Y-90745258D01*
X89932533Y-90744899D01*
X89880854Y-90701711D01*
X89812139Y-90693080D01*
X89749509Y-90723044D01*
X89731452Y-90743882D01*
X89729562Y-90744536D01*
X89728051Y-90743226D01*
X89727979Y-90742182D01*
X89730800Y-90728001D01*
X89730800Y-90228399D01*
X89727822Y-90213426D01*
X89728465Y-90211532D01*
X89730427Y-90211142D01*
X89731067Y-90211501D01*
G37*
G36*
X96931067Y-90211501D02*
G01*
X96982746Y-90254689D01*
X97051461Y-90263320D01*
X97114091Y-90233356D01*
X97132148Y-90212518D01*
X97134038Y-90211864D01*
X97135549Y-90213174D01*
X97135621Y-90214218D01*
X97132800Y-90228399D01*
X97132800Y-90728001D01*
X97135778Y-90742974D01*
X97135135Y-90744868D01*
X97133173Y-90745258D01*
X97132533Y-90744899D01*
X97080854Y-90701711D01*
X97012139Y-90693080D01*
X96949509Y-90723044D01*
X96931452Y-90743882D01*
X96929562Y-90744536D01*
X96928051Y-90743226D01*
X96927979Y-90742182D01*
X96930800Y-90728001D01*
X96930800Y-90228399D01*
X96927822Y-90213426D01*
X96928465Y-90211532D01*
X96930427Y-90211142D01*
X96931067Y-90211501D01*
G37*
G36*
X95331067Y-90211501D02*
G01*
X95382746Y-90254689D01*
X95451461Y-90263320D01*
X95514091Y-90233356D01*
X95532148Y-90212518D01*
X95534038Y-90211864D01*
X95535549Y-90213174D01*
X95535621Y-90214218D01*
X95532800Y-90228399D01*
X95532800Y-90728001D01*
X95535778Y-90742974D01*
X95535135Y-90744868D01*
X95533173Y-90745258D01*
X95532533Y-90744899D01*
X95480854Y-90701711D01*
X95412139Y-90693080D01*
X95349509Y-90723044D01*
X95331452Y-90743882D01*
X95329562Y-90744536D01*
X95328051Y-90743226D01*
X95327979Y-90742182D01*
X95330800Y-90728001D01*
X95330800Y-90228399D01*
X95327822Y-90213426D01*
X95328465Y-90211532D01*
X95330427Y-90211142D01*
X95331067Y-90211501D01*
G37*
G36*
X96131067Y-90211501D02*
G01*
X96182746Y-90254689D01*
X96251461Y-90263320D01*
X96314091Y-90233356D01*
X96332148Y-90212518D01*
X96334038Y-90211864D01*
X96335549Y-90213174D01*
X96335621Y-90214218D01*
X96332800Y-90228399D01*
X96332800Y-90728001D01*
X96335778Y-90742974D01*
X96335135Y-90744868D01*
X96333173Y-90745258D01*
X96332533Y-90744899D01*
X96280854Y-90701711D01*
X96212139Y-90693080D01*
X96149509Y-90723044D01*
X96131452Y-90743882D01*
X96129562Y-90744536D01*
X96128051Y-90743226D01*
X96127979Y-90742182D01*
X96130800Y-90728001D01*
X96130800Y-90228399D01*
X96127822Y-90213426D01*
X96128465Y-90211532D01*
X96130427Y-90211142D01*
X96131067Y-90211501D01*
G37*
G36*
X88934719Y-90102891D02*
G01*
X88954395Y-90169903D01*
X89006738Y-90215258D01*
X89075357Y-90225124D01*
X89126322Y-90205594D01*
X89141140Y-90195693D01*
X89143136Y-90195562D01*
X89144247Y-90197225D01*
X89143914Y-90198467D01*
X89136567Y-90209462D01*
X89132800Y-90228399D01*
X89132800Y-90702946D01*
X89131800Y-90704678D01*
X89129800Y-90704678D01*
X89128881Y-90703509D01*
X89109205Y-90636497D01*
X89056862Y-90591142D01*
X88988243Y-90581276D01*
X88937278Y-90600806D01*
X88922460Y-90610707D01*
X88920464Y-90610838D01*
X88919353Y-90609175D01*
X88919686Y-90607933D01*
X88927033Y-90596938D01*
X88930800Y-90578001D01*
X88930800Y-90103454D01*
X88931800Y-90101722D01*
X88933800Y-90101722D01*
X88934719Y-90102891D01*
G37*
G36*
X91298468Y-89974865D02*
G01*
X91298858Y-89976827D01*
X91298499Y-89977467D01*
X91255311Y-90029146D01*
X91246680Y-90097861D01*
X91276644Y-90160491D01*
X91297482Y-90178548D01*
X91298136Y-90180438D01*
X91296826Y-90181949D01*
X91295782Y-90182021D01*
X91281601Y-90179200D01*
X90781999Y-90179200D01*
X90767026Y-90182178D01*
X90765132Y-90181535D01*
X90764742Y-90179573D01*
X90765101Y-90178933D01*
X90808289Y-90127254D01*
X90816920Y-90058539D01*
X90786956Y-89995909D01*
X90766118Y-89977852D01*
X90765464Y-89975962D01*
X90766774Y-89974451D01*
X90767818Y-89974379D01*
X90781999Y-89977200D01*
X91281601Y-89977200D01*
X91296574Y-89974222D01*
X91298468Y-89974865D01*
G37*
G36*
X93698468Y-89974865D02*
G01*
X93698858Y-89976827D01*
X93698499Y-89977467D01*
X93655311Y-90029146D01*
X93646680Y-90097861D01*
X93676644Y-90160491D01*
X93697482Y-90178548D01*
X93698136Y-90180438D01*
X93696826Y-90181949D01*
X93695782Y-90182021D01*
X93681601Y-90179200D01*
X93181999Y-90179200D01*
X93167026Y-90182178D01*
X93165132Y-90181535D01*
X93164742Y-90179573D01*
X93165101Y-90178933D01*
X93208289Y-90127254D01*
X93216920Y-90058539D01*
X93186956Y-89995909D01*
X93166118Y-89977852D01*
X93165464Y-89975962D01*
X93166774Y-89974451D01*
X93167818Y-89974379D01*
X93181999Y-89977200D01*
X93681601Y-89977200D01*
X93696574Y-89974222D01*
X93698468Y-89974865D01*
G37*
G36*
X94498468Y-89974865D02*
G01*
X94498858Y-89976827D01*
X94498499Y-89977467D01*
X94455311Y-90029146D01*
X94446680Y-90097861D01*
X94476644Y-90160491D01*
X94497482Y-90178548D01*
X94498136Y-90180438D01*
X94496826Y-90181949D01*
X94495782Y-90182021D01*
X94481601Y-90179200D01*
X93981999Y-90179200D01*
X93967026Y-90182178D01*
X93965132Y-90181535D01*
X93964742Y-90179573D01*
X93965101Y-90178933D01*
X94008289Y-90127254D01*
X94016920Y-90058539D01*
X93986956Y-89995909D01*
X93966118Y-89977852D01*
X93965464Y-89975962D01*
X93966774Y-89974451D01*
X93967818Y-89974379D01*
X93981999Y-89977200D01*
X94481601Y-89977200D01*
X94496574Y-89974222D01*
X94498468Y-89974865D01*
G37*
G36*
X95298468Y-89974865D02*
G01*
X95298858Y-89976827D01*
X95298499Y-89977467D01*
X95255311Y-90029146D01*
X95246680Y-90097861D01*
X95276644Y-90160491D01*
X95297482Y-90178548D01*
X95298136Y-90180438D01*
X95296826Y-90181949D01*
X95295782Y-90182021D01*
X95281601Y-90179200D01*
X94781999Y-90179200D01*
X94767026Y-90182178D01*
X94765132Y-90181535D01*
X94764742Y-90179573D01*
X94765101Y-90178933D01*
X94808289Y-90127254D01*
X94816920Y-90058539D01*
X94786956Y-89995909D01*
X94766118Y-89977852D01*
X94765464Y-89975962D01*
X94766774Y-89974451D01*
X94767818Y-89974379D01*
X94781999Y-89977200D01*
X95281601Y-89977200D01*
X95296574Y-89974222D01*
X95298468Y-89974865D01*
G37*
G36*
X90498468Y-89974865D02*
G01*
X90498858Y-89976827D01*
X90498499Y-89977467D01*
X90455311Y-90029146D01*
X90446680Y-90097861D01*
X90476644Y-90160491D01*
X90497482Y-90178548D01*
X90498136Y-90180438D01*
X90496826Y-90181949D01*
X90495782Y-90182021D01*
X90481601Y-90179200D01*
X89981999Y-90179200D01*
X89967026Y-90182178D01*
X89965132Y-90181535D01*
X89964742Y-90179573D01*
X89965101Y-90178933D01*
X90008289Y-90127254D01*
X90016920Y-90058539D01*
X89986956Y-89995909D01*
X89966118Y-89977852D01*
X89965464Y-89975962D01*
X89966774Y-89974451D01*
X89967818Y-89974379D01*
X89981999Y-89977200D01*
X90481601Y-89977200D01*
X90496574Y-89974222D01*
X90498468Y-89974865D01*
G37*
G36*
X96098468Y-89974865D02*
G01*
X96098858Y-89976827D01*
X96098499Y-89977467D01*
X96055311Y-90029146D01*
X96046680Y-90097861D01*
X96076644Y-90160491D01*
X96097482Y-90178548D01*
X96098136Y-90180438D01*
X96096826Y-90181949D01*
X96095782Y-90182021D01*
X96081601Y-90179200D01*
X95581999Y-90179200D01*
X95567026Y-90182178D01*
X95565132Y-90181535D01*
X95564742Y-90179573D01*
X95565101Y-90178933D01*
X95608289Y-90127254D01*
X95616920Y-90058539D01*
X95586956Y-89995909D01*
X95566118Y-89977852D01*
X95565464Y-89975962D01*
X95566774Y-89974451D01*
X95567818Y-89974379D01*
X95581999Y-89977200D01*
X96081601Y-89977200D01*
X96096574Y-89974222D01*
X96098468Y-89974865D01*
G37*
G36*
X96898468Y-89974865D02*
G01*
X96898858Y-89976827D01*
X96898499Y-89977467D01*
X96855311Y-90029146D01*
X96846680Y-90097861D01*
X96876644Y-90160491D01*
X96897482Y-90178548D01*
X96898136Y-90180438D01*
X96896826Y-90181949D01*
X96895782Y-90182021D01*
X96881601Y-90179200D01*
X96381999Y-90179200D01*
X96367026Y-90182178D01*
X96365132Y-90181535D01*
X96364742Y-90179573D01*
X96365101Y-90178933D01*
X96408289Y-90127254D01*
X96416920Y-90058539D01*
X96386956Y-89995909D01*
X96366118Y-89977852D01*
X96365464Y-89975962D01*
X96366774Y-89974451D01*
X96367818Y-89974379D01*
X96381999Y-89977200D01*
X96881601Y-89977200D01*
X96896574Y-89974222D01*
X96898468Y-89974865D01*
G37*
G36*
X97698468Y-89974865D02*
G01*
X97698858Y-89976827D01*
X97698499Y-89977467D01*
X97655311Y-90029146D01*
X97646680Y-90097861D01*
X97676644Y-90160491D01*
X97697482Y-90178548D01*
X97698136Y-90180438D01*
X97696826Y-90181949D01*
X97695782Y-90182021D01*
X97681601Y-90179200D01*
X97181999Y-90179200D01*
X97167026Y-90182178D01*
X97165132Y-90181535D01*
X97164742Y-90179573D01*
X97165101Y-90178933D01*
X97208289Y-90127254D01*
X97216920Y-90058539D01*
X97186956Y-89995909D01*
X97166118Y-89977852D01*
X97165464Y-89975962D01*
X97166774Y-89974451D01*
X97167818Y-89974379D01*
X97181999Y-89977200D01*
X97681601Y-89977200D01*
X97696574Y-89974222D01*
X97698468Y-89974865D01*
G37*
G36*
X92898468Y-89974865D02*
G01*
X92898858Y-89976827D01*
X92898499Y-89977467D01*
X92855311Y-90029146D01*
X92846680Y-90097861D01*
X92876644Y-90160491D01*
X92897482Y-90178548D01*
X92898136Y-90180438D01*
X92896826Y-90181949D01*
X92895782Y-90182021D01*
X92881601Y-90179200D01*
X92381999Y-90179200D01*
X92367026Y-90182178D01*
X92365132Y-90181535D01*
X92364742Y-90179573D01*
X92365101Y-90178933D01*
X92408289Y-90127254D01*
X92416920Y-90058539D01*
X92386956Y-89995909D01*
X92366118Y-89977852D01*
X92365464Y-89975962D01*
X92366774Y-89974451D01*
X92367818Y-89974379D01*
X92381999Y-89977200D01*
X92881601Y-89977200D01*
X92896574Y-89974222D01*
X92898468Y-89974865D01*
G37*
G36*
X89698468Y-89974865D02*
G01*
X89698858Y-89976827D01*
X89698499Y-89977467D01*
X89655311Y-90029146D01*
X89646680Y-90097861D01*
X89676644Y-90160491D01*
X89697482Y-90178548D01*
X89698136Y-90180438D01*
X89696826Y-90181949D01*
X89695782Y-90182021D01*
X89681601Y-90179200D01*
X89181999Y-90179200D01*
X89167026Y-90182178D01*
X89165132Y-90181535D01*
X89164742Y-90179573D01*
X89165101Y-90178933D01*
X89208289Y-90127254D01*
X89216920Y-90058538D01*
X89186955Y-89995908D01*
X89166118Y-89977852D01*
X89165464Y-89975962D01*
X89166774Y-89974451D01*
X89167818Y-89974379D01*
X89181999Y-89977200D01*
X89681601Y-89977200D01*
X89696574Y-89974222D01*
X89698468Y-89974865D01*
G37*
G36*
X92098468Y-89974865D02*
G01*
X92098858Y-89976827D01*
X92098499Y-89977467D01*
X92055311Y-90029146D01*
X92046680Y-90097861D01*
X92076644Y-90160491D01*
X92097482Y-90178548D01*
X92098136Y-90180438D01*
X92096826Y-90181949D01*
X92095782Y-90182021D01*
X92081601Y-90179200D01*
X91581999Y-90179200D01*
X91567026Y-90182178D01*
X91565132Y-90181535D01*
X91564742Y-90179573D01*
X91565101Y-90178933D01*
X91608289Y-90127254D01*
X91616920Y-90058539D01*
X91586956Y-89995909D01*
X91566118Y-89977852D01*
X91565464Y-89975962D01*
X91566774Y-89974451D01*
X91567818Y-89974379D01*
X91581999Y-89977200D01*
X92081601Y-89977200D01*
X92096574Y-89974222D01*
X92098468Y-89974865D01*
G37*
G36*
X88898468Y-89824865D02*
G01*
X88898858Y-89826827D01*
X88898499Y-89827467D01*
X88855311Y-89879146D01*
X88846680Y-89947862D01*
X88876645Y-90010492D01*
X88897482Y-90028548D01*
X88898136Y-90030438D01*
X88896826Y-90031949D01*
X88895782Y-90032021D01*
X88881601Y-90029200D01*
X88381999Y-90029200D01*
X88367026Y-90032178D01*
X88365132Y-90031535D01*
X88364742Y-90029573D01*
X88365101Y-90028933D01*
X88408289Y-89977254D01*
X88416920Y-89908539D01*
X88386956Y-89845909D01*
X88366118Y-89827852D01*
X88365464Y-89825962D01*
X88366774Y-89824451D01*
X88367818Y-89824379D01*
X88381999Y-89827200D01*
X88881601Y-89827200D01*
X88896574Y-89824222D01*
X88898468Y-89824865D01*
G37*
G36*
X96131067Y-89411501D02*
G01*
X96182746Y-89454689D01*
X96251461Y-89463320D01*
X96314091Y-89433356D01*
X96332148Y-89412518D01*
X96334038Y-89411864D01*
X96335549Y-89413174D01*
X96335621Y-89414218D01*
X96332800Y-89428399D01*
X96332800Y-89928001D01*
X96335778Y-89942974D01*
X96335135Y-89944868D01*
X96333173Y-89945258D01*
X96332533Y-89944899D01*
X96280854Y-89901711D01*
X96212139Y-89893080D01*
X96149509Y-89923044D01*
X96131452Y-89943882D01*
X96129562Y-89944536D01*
X96128051Y-89943226D01*
X96127979Y-89942182D01*
X96130800Y-89928001D01*
X96130800Y-89428399D01*
X96127822Y-89413426D01*
X96128465Y-89411532D01*
X96130427Y-89411142D01*
X96131067Y-89411501D01*
G37*
G36*
X92131067Y-89411501D02*
G01*
X92182746Y-89454689D01*
X92251461Y-89463320D01*
X92314091Y-89433356D01*
X92332148Y-89412518D01*
X92334038Y-89411864D01*
X92335549Y-89413174D01*
X92335621Y-89414218D01*
X92332800Y-89428399D01*
X92332800Y-89928001D01*
X92335778Y-89942974D01*
X92335135Y-89944868D01*
X92333173Y-89945258D01*
X92332533Y-89944899D01*
X92280854Y-89901711D01*
X92212139Y-89893080D01*
X92149509Y-89923044D01*
X92131452Y-89943882D01*
X92129562Y-89944536D01*
X92128051Y-89943226D01*
X92127979Y-89942182D01*
X92130800Y-89928001D01*
X92130800Y-89428399D01*
X92127822Y-89413426D01*
X92128465Y-89411532D01*
X92130427Y-89411142D01*
X92131067Y-89411501D01*
G37*
G36*
X89731067Y-89411501D02*
G01*
X89782746Y-89454689D01*
X89851461Y-89463320D01*
X89914091Y-89433356D01*
X89932148Y-89412518D01*
X89934038Y-89411864D01*
X89935549Y-89413174D01*
X89935621Y-89414218D01*
X89932800Y-89428399D01*
X89932800Y-89928001D01*
X89935778Y-89942974D01*
X89935135Y-89944868D01*
X89933173Y-89945258D01*
X89932533Y-89944899D01*
X89880854Y-89901711D01*
X89812139Y-89893080D01*
X89749509Y-89923044D01*
X89731452Y-89943882D01*
X89729562Y-89944536D01*
X89728051Y-89943226D01*
X89727979Y-89942182D01*
X89730800Y-89928001D01*
X89730800Y-89428399D01*
X89727822Y-89413426D01*
X89728465Y-89411532D01*
X89730427Y-89411142D01*
X89731067Y-89411501D01*
G37*
G36*
X95331067Y-89411501D02*
G01*
X95382746Y-89454689D01*
X95451461Y-89463320D01*
X95514091Y-89433356D01*
X95532148Y-89412518D01*
X95534038Y-89411864D01*
X95535549Y-89413174D01*
X95535621Y-89414218D01*
X95532800Y-89428399D01*
X95532800Y-89928001D01*
X95535778Y-89942974D01*
X95535135Y-89944868D01*
X95533173Y-89945258D01*
X95532533Y-89944899D01*
X95480854Y-89901711D01*
X95412139Y-89893080D01*
X95349509Y-89923044D01*
X95331452Y-89943882D01*
X95329562Y-89944536D01*
X95328051Y-89943226D01*
X95327979Y-89942182D01*
X95330800Y-89928001D01*
X95330800Y-89428399D01*
X95327822Y-89413426D01*
X95328465Y-89411532D01*
X95330427Y-89411142D01*
X95331067Y-89411501D01*
G37*
G36*
X91331067Y-89411501D02*
G01*
X91382746Y-89454689D01*
X91451461Y-89463320D01*
X91514091Y-89433356D01*
X91532148Y-89412518D01*
X91534038Y-89411864D01*
X91535549Y-89413174D01*
X91535621Y-89414218D01*
X91532800Y-89428399D01*
X91532800Y-89928001D01*
X91535778Y-89942974D01*
X91535135Y-89944868D01*
X91533173Y-89945258D01*
X91532533Y-89944899D01*
X91480854Y-89901711D01*
X91412139Y-89893080D01*
X91349509Y-89923044D01*
X91331452Y-89943882D01*
X91329562Y-89944536D01*
X91328051Y-89943226D01*
X91327979Y-89942182D01*
X91330800Y-89928001D01*
X91330800Y-89428399D01*
X91327822Y-89413426D01*
X91328465Y-89411532D01*
X91330427Y-89411142D01*
X91331067Y-89411501D01*
G37*
G36*
X92931067Y-89411501D02*
G01*
X92982746Y-89454689D01*
X93051461Y-89463320D01*
X93114091Y-89433356D01*
X93132148Y-89412518D01*
X93134038Y-89411864D01*
X93135549Y-89413174D01*
X93135621Y-89414218D01*
X93132800Y-89428399D01*
X93132800Y-89928001D01*
X93135778Y-89942974D01*
X93135135Y-89944868D01*
X93133173Y-89945258D01*
X93132533Y-89944899D01*
X93080854Y-89901711D01*
X93012139Y-89893080D01*
X92949509Y-89923044D01*
X92931452Y-89943882D01*
X92929562Y-89944536D01*
X92928051Y-89943226D01*
X92927979Y-89942182D01*
X92930800Y-89928001D01*
X92930800Y-89428399D01*
X92927822Y-89413426D01*
X92928465Y-89411532D01*
X92930427Y-89411142D01*
X92931067Y-89411501D01*
G37*
G36*
X90531067Y-89411501D02*
G01*
X90582746Y-89454689D01*
X90651461Y-89463320D01*
X90714091Y-89433356D01*
X90732148Y-89412518D01*
X90734038Y-89411864D01*
X90735549Y-89413174D01*
X90735621Y-89414218D01*
X90732800Y-89428399D01*
X90732800Y-89928001D01*
X90735778Y-89942974D01*
X90735135Y-89944868D01*
X90733173Y-89945258D01*
X90732533Y-89944899D01*
X90680854Y-89901711D01*
X90612139Y-89893080D01*
X90549509Y-89923044D01*
X90531452Y-89943882D01*
X90529562Y-89944536D01*
X90528051Y-89943226D01*
X90527979Y-89942182D01*
X90530800Y-89928001D01*
X90530800Y-89428399D01*
X90527822Y-89413426D01*
X90528465Y-89411532D01*
X90530427Y-89411142D01*
X90531067Y-89411501D01*
G37*
G36*
X96931067Y-89411501D02*
G01*
X96982746Y-89454689D01*
X97051461Y-89463320D01*
X97114091Y-89433356D01*
X97132148Y-89412518D01*
X97134038Y-89411864D01*
X97135549Y-89413174D01*
X97135621Y-89414218D01*
X97132800Y-89428399D01*
X97132800Y-89928001D01*
X97135778Y-89942974D01*
X97135135Y-89944868D01*
X97133173Y-89945258D01*
X97132533Y-89944899D01*
X97080854Y-89901711D01*
X97012139Y-89893080D01*
X96949509Y-89923044D01*
X96931452Y-89943882D01*
X96929562Y-89944536D01*
X96928051Y-89943226D01*
X96927979Y-89942182D01*
X96930800Y-89928001D01*
X96930800Y-89428399D01*
X96927822Y-89413426D01*
X96928465Y-89411532D01*
X96930427Y-89411142D01*
X96931067Y-89411501D01*
G37*
G36*
X94531067Y-89411501D02*
G01*
X94582746Y-89454689D01*
X94651461Y-89463320D01*
X94714091Y-89433356D01*
X94732148Y-89412518D01*
X94734038Y-89411864D01*
X94735549Y-89413174D01*
X94735621Y-89414218D01*
X94732800Y-89428399D01*
X94732800Y-89928001D01*
X94735778Y-89942974D01*
X94735135Y-89944868D01*
X94733173Y-89945258D01*
X94732533Y-89944899D01*
X94680854Y-89901711D01*
X94612139Y-89893080D01*
X94549509Y-89923044D01*
X94531452Y-89943882D01*
X94529562Y-89944536D01*
X94528051Y-89943226D01*
X94527979Y-89942182D01*
X94530800Y-89928001D01*
X94530800Y-89428399D01*
X94527822Y-89413426D01*
X94528465Y-89411532D01*
X94530427Y-89411142D01*
X94531067Y-89411501D01*
G37*
G36*
X93731067Y-89411501D02*
G01*
X93782746Y-89454689D01*
X93851461Y-89463320D01*
X93914091Y-89433356D01*
X93932148Y-89412518D01*
X93934038Y-89411864D01*
X93935549Y-89413174D01*
X93935621Y-89414218D01*
X93932800Y-89428399D01*
X93932800Y-89928001D01*
X93935778Y-89942974D01*
X93935135Y-89944868D01*
X93933173Y-89945258D01*
X93932533Y-89944899D01*
X93880854Y-89901711D01*
X93812139Y-89893080D01*
X93749509Y-89923044D01*
X93731452Y-89943882D01*
X93729562Y-89944536D01*
X93728051Y-89943226D01*
X93727979Y-89942182D01*
X93730800Y-89928001D01*
X93730800Y-89428399D01*
X93727822Y-89413426D01*
X93728465Y-89411532D01*
X93730427Y-89411142D01*
X93731067Y-89411501D01*
G37*
G36*
X88934719Y-89302891D02*
G01*
X88954395Y-89369903D01*
X89006738Y-89415258D01*
X89075357Y-89425124D01*
X89126322Y-89405594D01*
X89141140Y-89395693D01*
X89143136Y-89395562D01*
X89144247Y-89397225D01*
X89143914Y-89398467D01*
X89136567Y-89409462D01*
X89132800Y-89428399D01*
X89132800Y-89902946D01*
X89131800Y-89904678D01*
X89129800Y-89904678D01*
X89128881Y-89903509D01*
X89109205Y-89836497D01*
X89056862Y-89791142D01*
X88988243Y-89781276D01*
X88937278Y-89800806D01*
X88922460Y-89810707D01*
X88920464Y-89810838D01*
X88919353Y-89809175D01*
X88919686Y-89807933D01*
X88927033Y-89796938D01*
X88930800Y-89778001D01*
X88930800Y-89303454D01*
X88931800Y-89301722D01*
X88933800Y-89301722D01*
X88934719Y-89302891D01*
G37*
G36*
X88898468Y-89024865D02*
G01*
X88898858Y-89026827D01*
X88898499Y-89027467D01*
X88855311Y-89079146D01*
X88846680Y-89147861D01*
X88876644Y-89210491D01*
X88897482Y-89228548D01*
X88898136Y-89230438D01*
X88896826Y-89231949D01*
X88895782Y-89232021D01*
X88881601Y-89229200D01*
X88381999Y-89229200D01*
X88367026Y-89232178D01*
X88365132Y-89231535D01*
X88364742Y-89229573D01*
X88365101Y-89228933D01*
X88408289Y-89177254D01*
X88416920Y-89108539D01*
X88386956Y-89045909D01*
X88366118Y-89027852D01*
X88365464Y-89025962D01*
X88366774Y-89024451D01*
X88367818Y-89024379D01*
X88381999Y-89027200D01*
X88881601Y-89027200D01*
X88896574Y-89024222D01*
X88898468Y-89024865D01*
G37*
G36*
X73367960Y-88545634D02*
G01*
X73395871Y-88606838D01*
X73454112Y-88644314D01*
X73523527Y-88644353D01*
X73528160Y-88642262D01*
X73528433Y-88642162D01*
X73556655Y-88634096D01*
X73558596Y-88634582D01*
X73559145Y-88636505D01*
X73558113Y-88637801D01*
X73475982Y-88679649D01*
X73393249Y-88762382D01*
X73340128Y-88866637D01*
X73321825Y-88982200D01*
X73327429Y-89017587D01*
X73326713Y-89019454D01*
X73324737Y-89019767D01*
X73323624Y-89018708D01*
X73296724Y-88957758D01*
X73238943Y-88919574D01*
X73169535Y-88918688D01*
X73153222Y-88925811D01*
X73152948Y-88925908D01*
X73132761Y-88931412D01*
X73130827Y-88930902D01*
X73130301Y-88928973D01*
X73131327Y-88927700D01*
X73215618Y-88884751D01*
X73298351Y-88802018D01*
X73351472Y-88697763D01*
X73369775Y-88582200D01*
X73364165Y-88546777D01*
X73364881Y-88544910D01*
X73366857Y-88544597D01*
X73367960Y-88545634D01*
G37*
G36*
X88931067Y-88461501D02*
G01*
X88982746Y-88504689D01*
X89051461Y-88513320D01*
X89114091Y-88483356D01*
X89132148Y-88462518D01*
X89134038Y-88461864D01*
X89135549Y-88463174D01*
X89135621Y-88464218D01*
X89132800Y-88478399D01*
X89132800Y-88978001D01*
X89135778Y-88992974D01*
X89135135Y-88994868D01*
X89133173Y-88995258D01*
X89132533Y-88994899D01*
X89080854Y-88951711D01*
X89012139Y-88943080D01*
X88949509Y-88973044D01*
X88931452Y-88993882D01*
X88929562Y-88994536D01*
X88928051Y-88993226D01*
X88927979Y-88992182D01*
X88930800Y-88978001D01*
X88930800Y-88478399D01*
X88927822Y-88463426D01*
X88928465Y-88461532D01*
X88930427Y-88461142D01*
X88931067Y-88461501D01*
G37*
G36*
X74421875Y-88617284D02*
G01*
X74437063Y-88627433D01*
X74455999Y-88631200D01*
X75555601Y-88631200D01*
X75574538Y-88627433D01*
X75589573Y-88617386D01*
X75591568Y-88617255D01*
X75592680Y-88618918D01*
X75592593Y-88619647D01*
X75573698Y-88679988D01*
X75592755Y-88744890D01*
X75592283Y-88746833D01*
X75590364Y-88747397D01*
X75589725Y-88747116D01*
X75574537Y-88736967D01*
X75555601Y-88733200D01*
X74455999Y-88733200D01*
X74437062Y-88736967D01*
X74422027Y-88747014D01*
X74420032Y-88747145D01*
X74418920Y-88745482D01*
X74419007Y-88744753D01*
X74437902Y-88684412D01*
X74418845Y-88619510D01*
X74419317Y-88617567D01*
X74421236Y-88617003D01*
X74421875Y-88617284D01*
G37*
G36*
X81170328Y-87984869D02*
G01*
X81171469Y-87983569D01*
X81172709Y-87983554D01*
X81201591Y-87992597D01*
X81234786Y-87982850D01*
X81236729Y-87983322D01*
X81237311Y-87984379D01*
X81237404Y-87984844D01*
X81253673Y-87981608D01*
X81255567Y-87982251D01*
X81255957Y-87984213D01*
X81255174Y-87985233D01*
X81244180Y-87992580D01*
X81233567Y-88008462D01*
X81229800Y-88027399D01*
X81229800Y-88402001D01*
X81233567Y-88420938D01*
X81244180Y-88436820D01*
X81255176Y-88444168D01*
X81256061Y-88445962D01*
X81254950Y-88447625D01*
X81253675Y-88447793D01*
X81237272Y-88444531D01*
X81236131Y-88445831D01*
X81234891Y-88445846D01*
X81206009Y-88436803D01*
X81172814Y-88446550D01*
X81170871Y-88446078D01*
X81170289Y-88445021D01*
X81170196Y-88444556D01*
X81153927Y-88447792D01*
X81152033Y-88447149D01*
X81151643Y-88445187D01*
X81152426Y-88444167D01*
X81163420Y-88436820D01*
X81174033Y-88420938D01*
X81177800Y-88402001D01*
X81177800Y-88027399D01*
X81174033Y-88008462D01*
X81163420Y-87992580D01*
X81152424Y-87985232D01*
X81151539Y-87983438D01*
X81152650Y-87981775D01*
X81153925Y-87981607D01*
X81170328Y-87984869D01*
G37*
G36*
X80681719Y-87850639D02*
G01*
X80701396Y-87917654D01*
X80753799Y-87963060D01*
X80805219Y-87974246D01*
X80806699Y-87975591D01*
X80806274Y-87977545D01*
X80804794Y-87978200D01*
X80778999Y-87978200D01*
X80760062Y-87981967D01*
X80744180Y-87992580D01*
X80733567Y-88008462D01*
X80729800Y-88027399D01*
X80729800Y-88402001D01*
X80733567Y-88420938D01*
X80743705Y-88436110D01*
X80743836Y-88438106D01*
X80742173Y-88439217D01*
X80741444Y-88439130D01*
X80681120Y-88420241D01*
X80655012Y-88422576D01*
X80653927Y-88422792D01*
X80652033Y-88422149D01*
X80651643Y-88420187D01*
X80652426Y-88419167D01*
X80663420Y-88411820D01*
X80674033Y-88395938D01*
X80677800Y-88377001D01*
X80677800Y-88027399D01*
X80674033Y-88008462D01*
X80663420Y-87992580D01*
X80647538Y-87981967D01*
X80628601Y-87978200D01*
X80253999Y-87978200D01*
X80235062Y-87981967D01*
X80219180Y-87992580D01*
X80211832Y-88003576D01*
X80210038Y-88004461D01*
X80208375Y-88003350D01*
X80208207Y-88002075D01*
X80211469Y-87985672D01*
X80210169Y-87984531D01*
X80210154Y-87983291D01*
X80219197Y-87954409D01*
X80209450Y-87921214D01*
X80209922Y-87919271D01*
X80210979Y-87918689D01*
X80211444Y-87918596D01*
X80208208Y-87902327D01*
X80208851Y-87900433D01*
X80210813Y-87900043D01*
X80211833Y-87900826D01*
X80219180Y-87911820D01*
X80235062Y-87922433D01*
X80253999Y-87926200D01*
X80628601Y-87926200D01*
X80647538Y-87922433D01*
X80663420Y-87911820D01*
X80674033Y-87895938D01*
X80677800Y-87877001D01*
X80677800Y-87851202D01*
X80678800Y-87849470D01*
X80680800Y-87849470D01*
X80681719Y-87850639D01*
G37*
G36*
X81729145Y-87849726D02*
G01*
X81729800Y-87851206D01*
X81729800Y-87877001D01*
X81733567Y-87895938D01*
X81744180Y-87911820D01*
X81760062Y-87922433D01*
X81778999Y-87926200D01*
X82153601Y-87926200D01*
X82172538Y-87922433D01*
X82188420Y-87911820D01*
X82195768Y-87900824D01*
X82197562Y-87899939D01*
X82199225Y-87901050D01*
X82199393Y-87902325D01*
X82196131Y-87918728D01*
X82197431Y-87919869D01*
X82197446Y-87921109D01*
X82188403Y-87949991D01*
X82198150Y-87983186D01*
X82197678Y-87985129D01*
X82196621Y-87985711D01*
X82196156Y-87985804D01*
X82199392Y-88002073D01*
X82198749Y-88003967D01*
X82196787Y-88004357D01*
X82195767Y-88003574D01*
X82188420Y-87992580D01*
X82172538Y-87981967D01*
X82153601Y-87978200D01*
X81778999Y-87978200D01*
X81760062Y-87981967D01*
X81744180Y-87992580D01*
X81733567Y-88008462D01*
X81729800Y-88027399D01*
X81729800Y-88377001D01*
X81733567Y-88395938D01*
X81744180Y-88411820D01*
X81755175Y-88419168D01*
X81756060Y-88420962D01*
X81754948Y-88422625D01*
X81753673Y-88422792D01*
X81752773Y-88422613D01*
X81683302Y-88428829D01*
X81667889Y-88436891D01*
X81665891Y-88436808D01*
X81664964Y-88435036D01*
X81665299Y-88434008D01*
X81674033Y-88420937D01*
X81677800Y-88402001D01*
X81677800Y-88027399D01*
X81674033Y-88008462D01*
X81663420Y-87992580D01*
X81647538Y-87981967D01*
X81628601Y-87978200D01*
X81602802Y-87978200D01*
X81601070Y-87977200D01*
X81601070Y-87975200D01*
X81602239Y-87974281D01*
X81669254Y-87954604D01*
X81714660Y-87902201D01*
X81725846Y-87850781D01*
X81727191Y-87849301D01*
X81729145Y-87849726D01*
G37*
G36*
X88898468Y-88224865D02*
G01*
X88898858Y-88226827D01*
X88898499Y-88227467D01*
X88855311Y-88279146D01*
X88846680Y-88347861D01*
X88876644Y-88410491D01*
X88897482Y-88428548D01*
X88898136Y-88430438D01*
X88896826Y-88431949D01*
X88895782Y-88432021D01*
X88881601Y-88429200D01*
X88381999Y-88429200D01*
X88367026Y-88432178D01*
X88365132Y-88431535D01*
X88364742Y-88429573D01*
X88365101Y-88428933D01*
X88408289Y-88377254D01*
X88416920Y-88308539D01*
X88386956Y-88245909D01*
X88366118Y-88227852D01*
X88365464Y-88225962D01*
X88366774Y-88224451D01*
X88367818Y-88224379D01*
X88381999Y-88227200D01*
X88881601Y-88227200D01*
X88896574Y-88224222D01*
X88898468Y-88224865D01*
G37*
G36*
X89698468Y-88224865D02*
G01*
X89698858Y-88226827D01*
X89698499Y-88227467D01*
X89655311Y-88279146D01*
X89646680Y-88347861D01*
X89676644Y-88410491D01*
X89697482Y-88428548D01*
X89698136Y-88430438D01*
X89696826Y-88431949D01*
X89695782Y-88432021D01*
X89681601Y-88429200D01*
X89181999Y-88429200D01*
X89167026Y-88432178D01*
X89165132Y-88431535D01*
X89164742Y-88429573D01*
X89165101Y-88428933D01*
X89208289Y-88377254D01*
X89216920Y-88308539D01*
X89186956Y-88245909D01*
X89166118Y-88227852D01*
X89165464Y-88225962D01*
X89166774Y-88224451D01*
X89167818Y-88224379D01*
X89181999Y-88227200D01*
X89681601Y-88227200D01*
X89696574Y-88224222D01*
X89698468Y-88224865D01*
G37*
G36*
X73217684Y-88084821D02*
G01*
X73218592Y-88086603D01*
X73218079Y-88087839D01*
X73180562Y-88129379D01*
X73169300Y-88197713D01*
X73196826Y-88261424D01*
X73208008Y-88271355D01*
X73208639Y-88273252D01*
X73207311Y-88274748D01*
X73205772Y-88274632D01*
X73111363Y-88226528D01*
X72995800Y-88208225D01*
X72880237Y-88226528D01*
X72778074Y-88278583D01*
X72776077Y-88278478D01*
X72775169Y-88276696D01*
X72775665Y-88275479D01*
X72812431Y-88233758D01*
X72822859Y-88165290D01*
X72794549Y-88101909D01*
X72785883Y-88094213D01*
X72785252Y-88092316D01*
X72786580Y-88090820D01*
X72788119Y-88090936D01*
X72880237Y-88137872D01*
X72995800Y-88156175D01*
X73111363Y-88137872D01*
X73215687Y-88084716D01*
X73217684Y-88084821D01*
G37*
G36*
X74421875Y-88117284D02*
G01*
X74437063Y-88127433D01*
X74455999Y-88131200D01*
X75555601Y-88131200D01*
X75574538Y-88127433D01*
X75589573Y-88117386D01*
X75591568Y-88117255D01*
X75592680Y-88118918D01*
X75592593Y-88119647D01*
X75573698Y-88179988D01*
X75592755Y-88244890D01*
X75592283Y-88246833D01*
X75590364Y-88247397D01*
X75589725Y-88247116D01*
X75574537Y-88236967D01*
X75555601Y-88233200D01*
X74455999Y-88233200D01*
X74437062Y-88236967D01*
X74422027Y-88247014D01*
X74420032Y-88247145D01*
X74418920Y-88245482D01*
X74419007Y-88244753D01*
X74437902Y-88184412D01*
X74418845Y-88119510D01*
X74419317Y-88117567D01*
X74421236Y-88117003D01*
X74421875Y-88117284D01*
G37*
G36*
X88931067Y-87661501D02*
G01*
X88982746Y-87704689D01*
X89051461Y-87713320D01*
X89114091Y-87683356D01*
X89132148Y-87662518D01*
X89134038Y-87661864D01*
X89135549Y-87663174D01*
X89135621Y-87664218D01*
X89132800Y-87678399D01*
X89132800Y-88178001D01*
X89135778Y-88192974D01*
X89135135Y-88194868D01*
X89133173Y-88195258D01*
X89132533Y-88194899D01*
X89080854Y-88151711D01*
X89012139Y-88143080D01*
X88949509Y-88173044D01*
X88931452Y-88193882D01*
X88929562Y-88194536D01*
X88928051Y-88193226D01*
X88927979Y-88192182D01*
X88930800Y-88178001D01*
X88930800Y-87678399D01*
X88927822Y-87663426D01*
X88928465Y-87661532D01*
X88930427Y-87661142D01*
X88931067Y-87661501D01*
G37*
G36*
X73326979Y-86546076D02*
G01*
X73327315Y-86547536D01*
X73321825Y-86582200D01*
X73340128Y-86697763D01*
X73393249Y-86802018D01*
X73475982Y-86884751D01*
X73580237Y-86937872D01*
X73695800Y-86956175D01*
X73811363Y-86937872D01*
X73915687Y-86884716D01*
X73917684Y-86884821D01*
X73918592Y-86886603D01*
X73918079Y-86887839D01*
X73880562Y-86929379D01*
X73869300Y-86997713D01*
X73896826Y-87061424D01*
X73908008Y-87071355D01*
X73908639Y-87073252D01*
X73907311Y-87074748D01*
X73905772Y-87074632D01*
X73811363Y-87026528D01*
X73695800Y-87008225D01*
X73580237Y-87026528D01*
X73475982Y-87079649D01*
X73393249Y-87162382D01*
X73340128Y-87266637D01*
X73321825Y-87382200D01*
X73340128Y-87497763D01*
X73393249Y-87602018D01*
X73475982Y-87684751D01*
X73553753Y-87724377D01*
X73554842Y-87726054D01*
X73553934Y-87727836D01*
X73552249Y-87728068D01*
X73526392Y-87719990D01*
X73456842Y-87718793D01*
X73397941Y-87755230D01*
X73368250Y-87816861D01*
X73366597Y-87817987D01*
X73364795Y-87817119D01*
X73364473Y-87815680D01*
X73369775Y-87782200D01*
X73351472Y-87666637D01*
X73298351Y-87562382D01*
X73215618Y-87479649D01*
X73111363Y-87426528D01*
X72995800Y-87408225D01*
X72880237Y-87426528D01*
X72778074Y-87478583D01*
X72776077Y-87478478D01*
X72775169Y-87476696D01*
X72775665Y-87475479D01*
X72812431Y-87433758D01*
X72822859Y-87365290D01*
X72794549Y-87301909D01*
X72785883Y-87294213D01*
X72785252Y-87292316D01*
X72786580Y-87290820D01*
X72788119Y-87290936D01*
X72880237Y-87337872D01*
X72995800Y-87356175D01*
X73111363Y-87337872D01*
X73215618Y-87284751D01*
X73298351Y-87202018D01*
X73351472Y-87097763D01*
X73369775Y-86982200D01*
X73351472Y-86866637D01*
X73298351Y-86762382D01*
X73215618Y-86679649D01*
X73135655Y-86638906D01*
X73134566Y-86637229D01*
X73135474Y-86635447D01*
X73137136Y-86635208D01*
X73167056Y-86644155D01*
X73236613Y-86644503D01*
X73295067Y-86607349D01*
X73323528Y-86546377D01*
X73325166Y-86545231D01*
X73326979Y-86546076D01*
G37*
G36*
X74421875Y-87617284D02*
G01*
X74437063Y-87627433D01*
X74455999Y-87631200D01*
X75555601Y-87631200D01*
X75574538Y-87627433D01*
X75589573Y-87617386D01*
X75591568Y-87617255D01*
X75592680Y-87618918D01*
X75592593Y-87619647D01*
X75573698Y-87679988D01*
X75592755Y-87744890D01*
X75592283Y-87746833D01*
X75590364Y-87747397D01*
X75589725Y-87747116D01*
X75574537Y-87736967D01*
X75555601Y-87733200D01*
X74455999Y-87733200D01*
X74437062Y-87736967D01*
X74422027Y-87747014D01*
X74420032Y-87747145D01*
X74418920Y-87745482D01*
X74419007Y-87744753D01*
X74437902Y-87684412D01*
X74418845Y-87619510D01*
X74419317Y-87617567D01*
X74421236Y-87617003D01*
X74421875Y-87617284D01*
G37*
G36*
X89698468Y-87424865D02*
G01*
X89698858Y-87426827D01*
X89698499Y-87427467D01*
X89655311Y-87479146D01*
X89646680Y-87547861D01*
X89676644Y-87610491D01*
X89697482Y-87628548D01*
X89698136Y-87630438D01*
X89696826Y-87631949D01*
X89695782Y-87632021D01*
X89681601Y-87629200D01*
X89181999Y-87629200D01*
X89167026Y-87632178D01*
X89165132Y-87631535D01*
X89164742Y-87629573D01*
X89165101Y-87628933D01*
X89208289Y-87577254D01*
X89216920Y-87508539D01*
X89186956Y-87445909D01*
X89166118Y-87427852D01*
X89165464Y-87425962D01*
X89166774Y-87424451D01*
X89167818Y-87424379D01*
X89181999Y-87427200D01*
X89681601Y-87427200D01*
X89696574Y-87424222D01*
X89698468Y-87424865D01*
G37*
G36*
X88898468Y-87424865D02*
G01*
X88898858Y-87426827D01*
X88898499Y-87427467D01*
X88855311Y-87479146D01*
X88846680Y-87547861D01*
X88876644Y-87610491D01*
X88897482Y-87628548D01*
X88898136Y-87630438D01*
X88896826Y-87631949D01*
X88895782Y-87632021D01*
X88881601Y-87629200D01*
X88381999Y-87629200D01*
X88367026Y-87632178D01*
X88365132Y-87631535D01*
X88364742Y-87629573D01*
X88365101Y-87628933D01*
X88408289Y-87577254D01*
X88416920Y-87508539D01*
X88386956Y-87445909D01*
X88366118Y-87427852D01*
X88365464Y-87425962D01*
X88366774Y-87424451D01*
X88367818Y-87424379D01*
X88381999Y-87427200D01*
X88881601Y-87427200D01*
X88896574Y-87424222D01*
X88898468Y-87424865D01*
G37*
G36*
X82199225Y-87401050D02*
G01*
X82199393Y-87402325D01*
X82196131Y-87418728D01*
X82197431Y-87419869D01*
X82197446Y-87421109D01*
X82188403Y-87449991D01*
X82198150Y-87483186D01*
X82197678Y-87485129D01*
X82196621Y-87485711D01*
X82196156Y-87485804D01*
X82199392Y-87502073D01*
X82198749Y-87503967D01*
X82196787Y-87504357D01*
X82195767Y-87503574D01*
X82188420Y-87492580D01*
X82172538Y-87481967D01*
X82153601Y-87478200D01*
X81778999Y-87478200D01*
X81760062Y-87481967D01*
X81744180Y-87492580D01*
X81736832Y-87503576D01*
X81735038Y-87504461D01*
X81733375Y-87503350D01*
X81733207Y-87502075D01*
X81736469Y-87485672D01*
X81735169Y-87484531D01*
X81735154Y-87483291D01*
X81744197Y-87454409D01*
X81734450Y-87421214D01*
X81734922Y-87419271D01*
X81735979Y-87418689D01*
X81736444Y-87418596D01*
X81733208Y-87402327D01*
X81733851Y-87400433D01*
X81735813Y-87400043D01*
X81736833Y-87400826D01*
X81744180Y-87411820D01*
X81760062Y-87422433D01*
X81778999Y-87426200D01*
X82153601Y-87426200D01*
X82172538Y-87422433D01*
X82188420Y-87411820D01*
X82195768Y-87400824D01*
X82197562Y-87399939D01*
X82199225Y-87401050D01*
G37*
G36*
X80674225Y-87401050D02*
G01*
X80674393Y-87402325D01*
X80671131Y-87418728D01*
X80672431Y-87419869D01*
X80672446Y-87421109D01*
X80663403Y-87449991D01*
X80673150Y-87483186D01*
X80672678Y-87485129D01*
X80671621Y-87485711D01*
X80671156Y-87485804D01*
X80674392Y-87502073D01*
X80673749Y-87503967D01*
X80671787Y-87504357D01*
X80670767Y-87503574D01*
X80663420Y-87492580D01*
X80647538Y-87481967D01*
X80628601Y-87478200D01*
X80253999Y-87478200D01*
X80235062Y-87481967D01*
X80219180Y-87492580D01*
X80211832Y-87503576D01*
X80210038Y-87504461D01*
X80208375Y-87503350D01*
X80208207Y-87502075D01*
X80211469Y-87485672D01*
X80210169Y-87484531D01*
X80210154Y-87483291D01*
X80219197Y-87454409D01*
X80209450Y-87421214D01*
X80209922Y-87419271D01*
X80210979Y-87418689D01*
X80211444Y-87418596D01*
X80208208Y-87402327D01*
X80208851Y-87400433D01*
X80210813Y-87400043D01*
X80211833Y-87400826D01*
X80219180Y-87411820D01*
X80235062Y-87422433D01*
X80253999Y-87426200D01*
X80628601Y-87426200D01*
X80647538Y-87422433D01*
X80663420Y-87411820D01*
X80670768Y-87400824D01*
X80672562Y-87399939D01*
X80674225Y-87401050D01*
G37*
G36*
X88931067Y-86861501D02*
G01*
X88982746Y-86904689D01*
X89051461Y-86913320D01*
X89114091Y-86883356D01*
X89132148Y-86862518D01*
X89134038Y-86861864D01*
X89135549Y-86863174D01*
X89135621Y-86864218D01*
X89132800Y-86878399D01*
X89132800Y-87378001D01*
X89135778Y-87392974D01*
X89135135Y-87394868D01*
X89133173Y-87395258D01*
X89132533Y-87394899D01*
X89080854Y-87351711D01*
X89012139Y-87343080D01*
X88949509Y-87373044D01*
X88931452Y-87393882D01*
X88929562Y-87394536D01*
X88928051Y-87393226D01*
X88927979Y-87392182D01*
X88930800Y-87378001D01*
X88930800Y-86878399D01*
X88927822Y-86863426D01*
X88928465Y-86861532D01*
X88930427Y-86861142D01*
X88931067Y-86861501D01*
G37*
G36*
X74421875Y-87117284D02*
G01*
X74437063Y-87127433D01*
X74455999Y-87131200D01*
X75555601Y-87131200D01*
X75574538Y-87127433D01*
X75589573Y-87117386D01*
X75591568Y-87117255D01*
X75592680Y-87118918D01*
X75592593Y-87119647D01*
X75573698Y-87179988D01*
X75592755Y-87244890D01*
X75592283Y-87246833D01*
X75590364Y-87247397D01*
X75589725Y-87247116D01*
X75574537Y-87236967D01*
X75555601Y-87233200D01*
X74455999Y-87233200D01*
X74437062Y-87236967D01*
X74422027Y-87247014D01*
X74420032Y-87247145D01*
X74418920Y-87245482D01*
X74419007Y-87244753D01*
X74437902Y-87184412D01*
X74418845Y-87119510D01*
X74419317Y-87117567D01*
X74421236Y-87117003D01*
X74421875Y-87117284D01*
G37*
G36*
X80741709Y-86467592D02*
G01*
X80742636Y-86469364D01*
X80742301Y-86470392D01*
X80733567Y-86483463D01*
X80729800Y-86502399D01*
X80729800Y-86877001D01*
X80733567Y-86895938D01*
X80744180Y-86911820D01*
X80760062Y-86922433D01*
X80778999Y-86926200D01*
X80804798Y-86926200D01*
X80806530Y-86927200D01*
X80806530Y-86929200D01*
X80805361Y-86930119D01*
X80738346Y-86949796D01*
X80692940Y-87002199D01*
X80681754Y-87053619D01*
X80680409Y-87055099D01*
X80678455Y-87054674D01*
X80677800Y-87053194D01*
X80677800Y-87027399D01*
X80674033Y-87008462D01*
X80663420Y-86992580D01*
X80647538Y-86981967D01*
X80628601Y-86978200D01*
X80253999Y-86978200D01*
X80235062Y-86981967D01*
X80219180Y-86992580D01*
X80211832Y-87003576D01*
X80210038Y-87004461D01*
X80208375Y-87003350D01*
X80208207Y-87002075D01*
X80211469Y-86985672D01*
X80210169Y-86984531D01*
X80210154Y-86983291D01*
X80219197Y-86954409D01*
X80209450Y-86921214D01*
X80209922Y-86919271D01*
X80210979Y-86918689D01*
X80211444Y-86918596D01*
X80208208Y-86902327D01*
X80208851Y-86900433D01*
X80210813Y-86900043D01*
X80211833Y-86900826D01*
X80219180Y-86911820D01*
X80235062Y-86922433D01*
X80253999Y-86926200D01*
X80628601Y-86926200D01*
X80647538Y-86922433D01*
X80663420Y-86911820D01*
X80674033Y-86895938D01*
X80677800Y-86877001D01*
X80677800Y-86527399D01*
X80674033Y-86508462D01*
X80663420Y-86492580D01*
X80652425Y-86485232D01*
X80651540Y-86483438D01*
X80652652Y-86481775D01*
X80653927Y-86481608D01*
X80654827Y-86481787D01*
X80724298Y-86475571D01*
X80739711Y-86467509D01*
X80741709Y-86467592D01*
G37*
G36*
X81666156Y-86465270D02*
G01*
X81726480Y-86484159D01*
X81752588Y-86481824D01*
X81753673Y-86481608D01*
X81755567Y-86482251D01*
X81755957Y-86484213D01*
X81755174Y-86485233D01*
X81744180Y-86492580D01*
X81733567Y-86508462D01*
X81729800Y-86527399D01*
X81729800Y-86877001D01*
X81733567Y-86895938D01*
X81744180Y-86911820D01*
X81760062Y-86922433D01*
X81778999Y-86926200D01*
X82153601Y-86926200D01*
X82172538Y-86922433D01*
X82188420Y-86911820D01*
X82195768Y-86900824D01*
X82197562Y-86899939D01*
X82199225Y-86901050D01*
X82199393Y-86902325D01*
X82196131Y-86918728D01*
X82197431Y-86919869D01*
X82197446Y-86921109D01*
X82188403Y-86949991D01*
X82198150Y-86983186D01*
X82197678Y-86985129D01*
X82196621Y-86985711D01*
X82196156Y-86985804D01*
X82199392Y-87002073D01*
X82198749Y-87003967D01*
X82196787Y-87004357D01*
X82195767Y-87003574D01*
X82188420Y-86992580D01*
X82172538Y-86981967D01*
X82153601Y-86978200D01*
X81778999Y-86978200D01*
X81760062Y-86981967D01*
X81744180Y-86992580D01*
X81733567Y-87008462D01*
X81729800Y-87027399D01*
X81729800Y-87053198D01*
X81728800Y-87054930D01*
X81726800Y-87054930D01*
X81725881Y-87053761D01*
X81706204Y-86986746D01*
X81653801Y-86941340D01*
X81602381Y-86930154D01*
X81600901Y-86928809D01*
X81601326Y-86926855D01*
X81602806Y-86926200D01*
X81628601Y-86926200D01*
X81647538Y-86922433D01*
X81663420Y-86911820D01*
X81674033Y-86895938D01*
X81677800Y-86877001D01*
X81677800Y-86502399D01*
X81674033Y-86483462D01*
X81663895Y-86468290D01*
X81663764Y-86466294D01*
X81665427Y-86465183D01*
X81666156Y-86465270D01*
G37*
G36*
X76937467Y-86819501D02*
G01*
X76989146Y-86862689D01*
X77057861Y-86871320D01*
X77120491Y-86841356D01*
X77138548Y-86820518D01*
X77140438Y-86819864D01*
X77141949Y-86821174D01*
X77142021Y-86822218D01*
X77139200Y-86836399D01*
X77139200Y-87036001D01*
X77142178Y-87050974D01*
X77141535Y-87052868D01*
X77139573Y-87053258D01*
X77138933Y-87052899D01*
X77087254Y-87009711D01*
X77018539Y-87001080D01*
X76955909Y-87031044D01*
X76937852Y-87051882D01*
X76935962Y-87052536D01*
X76934451Y-87051226D01*
X76934379Y-87050182D01*
X76937200Y-87036001D01*
X76937200Y-86836399D01*
X76934222Y-86821426D01*
X76934865Y-86819532D01*
X76936827Y-86819142D01*
X76937467Y-86819501D01*
G37*
G36*
X81170328Y-86459869D02*
G01*
X81171469Y-86458569D01*
X81172709Y-86458554D01*
X81201591Y-86467597D01*
X81234786Y-86457850D01*
X81236729Y-86458322D01*
X81237311Y-86459379D01*
X81237404Y-86459844D01*
X81253673Y-86456608D01*
X81255567Y-86457251D01*
X81255957Y-86459213D01*
X81255174Y-86460233D01*
X81244180Y-86467580D01*
X81233567Y-86483462D01*
X81229800Y-86502399D01*
X81229800Y-86877001D01*
X81233567Y-86895938D01*
X81244180Y-86911820D01*
X81255176Y-86919168D01*
X81256061Y-86920962D01*
X81254950Y-86922625D01*
X81253675Y-86922793D01*
X81237272Y-86919531D01*
X81236131Y-86920831D01*
X81234891Y-86920846D01*
X81206009Y-86911803D01*
X81172814Y-86921550D01*
X81170871Y-86921078D01*
X81170289Y-86920021D01*
X81170196Y-86919556D01*
X81153927Y-86922792D01*
X81152033Y-86922149D01*
X81151643Y-86920187D01*
X81152426Y-86919167D01*
X81163420Y-86911820D01*
X81174033Y-86895938D01*
X81177800Y-86877001D01*
X81177800Y-86502399D01*
X81174033Y-86483462D01*
X81163420Y-86467580D01*
X81152424Y-86460232D01*
X81151539Y-86458438D01*
X81152650Y-86456775D01*
X81153925Y-86456607D01*
X81170328Y-86459869D01*
G37*
G36*
X88898468Y-86624865D02*
G01*
X88898858Y-86626827D01*
X88898499Y-86627467D01*
X88855311Y-86679146D01*
X88846680Y-86747861D01*
X88876644Y-86810491D01*
X88897482Y-86828548D01*
X88898136Y-86830438D01*
X88896826Y-86831949D01*
X88895782Y-86832021D01*
X88881601Y-86829200D01*
X88381999Y-86829200D01*
X88367026Y-86832178D01*
X88365132Y-86831535D01*
X88364742Y-86829573D01*
X88365101Y-86828933D01*
X88408289Y-86777254D01*
X88416920Y-86708539D01*
X88386956Y-86645909D01*
X88366118Y-86627852D01*
X88365464Y-86625962D01*
X88366774Y-86624451D01*
X88367818Y-86624379D01*
X88381999Y-86627200D01*
X88881601Y-86627200D01*
X88896574Y-86624222D01*
X88898468Y-86624865D01*
G37*
G36*
X89698468Y-86624865D02*
G01*
X89698858Y-86626827D01*
X89698499Y-86627467D01*
X89655311Y-86679146D01*
X89646680Y-86747861D01*
X89676644Y-86810491D01*
X89697482Y-86828548D01*
X89698136Y-86830438D01*
X89696826Y-86831949D01*
X89695782Y-86832021D01*
X89681601Y-86829200D01*
X89181999Y-86829200D01*
X89167026Y-86832178D01*
X89165132Y-86831535D01*
X89164742Y-86829573D01*
X89165101Y-86828933D01*
X89208289Y-86777254D01*
X89216920Y-86708539D01*
X89186956Y-86645909D01*
X89166118Y-86627852D01*
X89165464Y-86625962D01*
X89166774Y-86624451D01*
X89167818Y-86624379D01*
X89181999Y-86627200D01*
X89681601Y-86627200D01*
X89696574Y-86624222D01*
X89698468Y-86624865D01*
G37*
G36*
X77504868Y-86582865D02*
G01*
X77505258Y-86584827D01*
X77504899Y-86585467D01*
X77461711Y-86637146D01*
X77453080Y-86705861D01*
X77483044Y-86768491D01*
X77503882Y-86786548D01*
X77504536Y-86788438D01*
X77503226Y-86789949D01*
X77502182Y-86790021D01*
X77488001Y-86787200D01*
X77188399Y-86787200D01*
X77173426Y-86790178D01*
X77171532Y-86789535D01*
X77171142Y-86787573D01*
X77171501Y-86786933D01*
X77214689Y-86735254D01*
X77223320Y-86666539D01*
X77193356Y-86603909D01*
X77172518Y-86585852D01*
X77171864Y-86583962D01*
X77173174Y-86582451D01*
X77174218Y-86582379D01*
X77188399Y-86585200D01*
X77488001Y-86585200D01*
X77502974Y-86582222D01*
X77504868Y-86582865D01*
G37*
G36*
X76904868Y-86582865D02*
G01*
X76905258Y-86584827D01*
X76904899Y-86585467D01*
X76861711Y-86637146D01*
X76853080Y-86705861D01*
X76883044Y-86768491D01*
X76903882Y-86786548D01*
X76904536Y-86788438D01*
X76903226Y-86789949D01*
X76902182Y-86790021D01*
X76888001Y-86787200D01*
X76588399Y-86787200D01*
X76573426Y-86790178D01*
X76571532Y-86789535D01*
X76571142Y-86787573D01*
X76571501Y-86786933D01*
X76614689Y-86735254D01*
X76623320Y-86666539D01*
X76593356Y-86603909D01*
X76572518Y-86585852D01*
X76571864Y-86583962D01*
X76573174Y-86582451D01*
X76574218Y-86582379D01*
X76588399Y-86585200D01*
X76888001Y-86585200D01*
X76902974Y-86582222D01*
X76904868Y-86582865D01*
G37*
G36*
X74421875Y-86617284D02*
G01*
X74437063Y-86627433D01*
X74455999Y-86631200D01*
X75555601Y-86631200D01*
X75574538Y-86627433D01*
X75589573Y-86617386D01*
X75591568Y-86617255D01*
X75592680Y-86618918D01*
X75592593Y-86619647D01*
X75573698Y-86679988D01*
X75592755Y-86744890D01*
X75592283Y-86746833D01*
X75590364Y-86747397D01*
X75589725Y-86747116D01*
X75574537Y-86736967D01*
X75555601Y-86733200D01*
X74455999Y-86733200D01*
X74437062Y-86736967D01*
X74422027Y-86747014D01*
X74420032Y-86747145D01*
X74418920Y-86745482D01*
X74419007Y-86744753D01*
X74437902Y-86684412D01*
X74418845Y-86619510D01*
X74419317Y-86617567D01*
X74421236Y-86617003D01*
X74421875Y-86617284D01*
G37*
G36*
X88931067Y-86061501D02*
G01*
X88982746Y-86104689D01*
X89051461Y-86113320D01*
X89114091Y-86083356D01*
X89132148Y-86062518D01*
X89134038Y-86061864D01*
X89135549Y-86063174D01*
X89135621Y-86064218D01*
X89132800Y-86078399D01*
X89132800Y-86578001D01*
X89135778Y-86592974D01*
X89135135Y-86594868D01*
X89133173Y-86595258D01*
X89132533Y-86594899D01*
X89080854Y-86551711D01*
X89012139Y-86543080D01*
X88949509Y-86573044D01*
X88931452Y-86593882D01*
X88929562Y-86594536D01*
X88928051Y-86593226D01*
X88927979Y-86592182D01*
X88930800Y-86578001D01*
X88930800Y-86078399D01*
X88927822Y-86063426D01*
X88928465Y-86061532D01*
X88930427Y-86061142D01*
X88931067Y-86061501D01*
G37*
G36*
X76937467Y-86319501D02*
G01*
X76989146Y-86362689D01*
X77057861Y-86371320D01*
X77120491Y-86341356D01*
X77138548Y-86320518D01*
X77140438Y-86319864D01*
X77141949Y-86321174D01*
X77142021Y-86322218D01*
X77139200Y-86336399D01*
X77139200Y-86536001D01*
X77142178Y-86550974D01*
X77141535Y-86552868D01*
X77139573Y-86553258D01*
X77138933Y-86552899D01*
X77087254Y-86509711D01*
X77018539Y-86501080D01*
X76955909Y-86531044D01*
X76937852Y-86551882D01*
X76935962Y-86552536D01*
X76934451Y-86551226D01*
X76934379Y-86550182D01*
X76937200Y-86536001D01*
X76937200Y-86336399D01*
X76934222Y-86321426D01*
X76934865Y-86319532D01*
X76936827Y-86319142D01*
X76937467Y-86319501D01*
G37*
G36*
X76588399Y-86085200D02*
G01*
X76938001Y-86085200D01*
X76951170Y-86082581D01*
X76953064Y-86083224D01*
X76953454Y-86085186D01*
X76952671Y-86086206D01*
X76938706Y-86095537D01*
X76938810Y-86097116D01*
X76937943Y-86098003D01*
X76910744Y-86112230D01*
X76876469Y-86172414D01*
X76880175Y-86241572D01*
X76917540Y-86293393D01*
X76917742Y-86295383D01*
X76916120Y-86296553D01*
X76914807Y-86296226D01*
X76906937Y-86290967D01*
X76888001Y-86287200D01*
X76588399Y-86287200D01*
X76573426Y-86290178D01*
X76571532Y-86289535D01*
X76571142Y-86287573D01*
X76571501Y-86286933D01*
X76614689Y-86235254D01*
X76623320Y-86166539D01*
X76593356Y-86103909D01*
X76572518Y-86085852D01*
X76571864Y-86083962D01*
X76573174Y-86082451D01*
X76574218Y-86082379D01*
X76588399Y-86085200D01*
G37*
G36*
X77504868Y-86082865D02*
G01*
X77505258Y-86084827D01*
X77504899Y-86085467D01*
X77461711Y-86137146D01*
X77453080Y-86205861D01*
X77483044Y-86268491D01*
X77503882Y-86286548D01*
X77504536Y-86288438D01*
X77503226Y-86289949D01*
X77502182Y-86290021D01*
X77488001Y-86287200D01*
X77188399Y-86287200D01*
X77173426Y-86290178D01*
X77171532Y-86289535D01*
X77171142Y-86287573D01*
X77171501Y-86286933D01*
X77214689Y-86235254D01*
X77223320Y-86166539D01*
X77193356Y-86103909D01*
X77172518Y-86085852D01*
X77171864Y-86083962D01*
X77173174Y-86082451D01*
X77174218Y-86082379D01*
X77188399Y-86085200D01*
X77488001Y-86085200D01*
X77502974Y-86082222D01*
X77504868Y-86082865D01*
G37*
G36*
X73917684Y-86084821D02*
G01*
X73918592Y-86086603D01*
X73918079Y-86087839D01*
X73880562Y-86129379D01*
X73869300Y-86197713D01*
X73896826Y-86261424D01*
X73908008Y-86271355D01*
X73908639Y-86273252D01*
X73907311Y-86274748D01*
X73905772Y-86274632D01*
X73811363Y-86226528D01*
X73695800Y-86208225D01*
X73580237Y-86226528D01*
X73478074Y-86278583D01*
X73476077Y-86278478D01*
X73475169Y-86276696D01*
X73475665Y-86275479D01*
X73512431Y-86233758D01*
X73522859Y-86165290D01*
X73494549Y-86101909D01*
X73485883Y-86094213D01*
X73485252Y-86092316D01*
X73486580Y-86090820D01*
X73488119Y-86090936D01*
X73580237Y-86137872D01*
X73695800Y-86156175D01*
X73811363Y-86137872D01*
X73915687Y-86084716D01*
X73917684Y-86084821D01*
G37*
G36*
X74421875Y-86117284D02*
G01*
X74437063Y-86127433D01*
X74455999Y-86131200D01*
X75555601Y-86131200D01*
X75574538Y-86127433D01*
X75589573Y-86117386D01*
X75591568Y-86117255D01*
X75592680Y-86118918D01*
X75592593Y-86119647D01*
X75573698Y-86179988D01*
X75592755Y-86244890D01*
X75592283Y-86246833D01*
X75590364Y-86247397D01*
X75589725Y-86247116D01*
X75574537Y-86236967D01*
X75555601Y-86233200D01*
X74455999Y-86233200D01*
X74437062Y-86236967D01*
X74422027Y-86247014D01*
X74420032Y-86247145D01*
X74418920Y-86245482D01*
X74419007Y-86244753D01*
X74437902Y-86184412D01*
X74418845Y-86119510D01*
X74419317Y-86117567D01*
X74421236Y-86117003D01*
X74421875Y-86117284D01*
G37*
G36*
X76978860Y-85803693D02*
G01*
X76992652Y-85812909D01*
X76993815Y-85811169D01*
X76995609Y-85810284D01*
X76996760Y-85810745D01*
X77014152Y-85825278D01*
X77082870Y-85833904D01*
X77130488Y-85811118D01*
X77132482Y-85811272D01*
X77133014Y-85811811D01*
X77133748Y-85812909D01*
X77147540Y-85803693D01*
X77149536Y-85803562D01*
X77150647Y-85805225D01*
X77150314Y-85806467D01*
X77142967Y-85817462D01*
X77139200Y-85836399D01*
X77139200Y-86036001D01*
X77142967Y-86054938D01*
X77150314Y-86065933D01*
X77150445Y-86067929D01*
X77148782Y-86069040D01*
X77147540Y-86068707D01*
X77133748Y-86059491D01*
X77132585Y-86061231D01*
X77130791Y-86062116D01*
X77129640Y-86061655D01*
X77112248Y-86047122D01*
X77043530Y-86038496D01*
X76995912Y-86061282D01*
X76993918Y-86061128D01*
X76993386Y-86060589D01*
X76992652Y-86059491D01*
X76978860Y-86068707D01*
X76976864Y-86068838D01*
X76975753Y-86067175D01*
X76976086Y-86065933D01*
X76983433Y-86054938D01*
X76987200Y-86036001D01*
X76987200Y-85836399D01*
X76983433Y-85817462D01*
X76976086Y-85806467D01*
X76975955Y-85804471D01*
X76977618Y-85803360D01*
X76978860Y-85803693D01*
G37*
G36*
X89698468Y-85824865D02*
G01*
X89698858Y-85826827D01*
X89698499Y-85827467D01*
X89655311Y-85879146D01*
X89646680Y-85947861D01*
X89676644Y-86010491D01*
X89697482Y-86028548D01*
X89698136Y-86030438D01*
X89696826Y-86031949D01*
X89695782Y-86032021D01*
X89681601Y-86029200D01*
X89181999Y-86029200D01*
X89167026Y-86032178D01*
X89165132Y-86031535D01*
X89164742Y-86029573D01*
X89165101Y-86028933D01*
X89208289Y-85977254D01*
X89216920Y-85908539D01*
X89186956Y-85845909D01*
X89166118Y-85827852D01*
X89165464Y-85825962D01*
X89166774Y-85824451D01*
X89167818Y-85824379D01*
X89181999Y-85827200D01*
X89681601Y-85827200D01*
X89696574Y-85824222D01*
X89698468Y-85824865D01*
G37*
G36*
X88898468Y-85824865D02*
G01*
X88898858Y-85826827D01*
X88898499Y-85827467D01*
X88855311Y-85879146D01*
X88846680Y-85947861D01*
X88876644Y-86010491D01*
X88897482Y-86028548D01*
X88898136Y-86030438D01*
X88896826Y-86031949D01*
X88895782Y-86032021D01*
X88881601Y-86029200D01*
X88381999Y-86029200D01*
X88367026Y-86032178D01*
X88365132Y-86031535D01*
X88364742Y-86029573D01*
X88365101Y-86028933D01*
X88408289Y-85977254D01*
X88416920Y-85908539D01*
X88386956Y-85845909D01*
X88366118Y-85827852D01*
X88365464Y-85825962D01*
X88366774Y-85824451D01*
X88367818Y-85824379D01*
X88381999Y-85827200D01*
X88881601Y-85827200D01*
X88896574Y-85824222D01*
X88898468Y-85824865D01*
G37*
G36*
X73367960Y-84545634D02*
G01*
X73395871Y-84606838D01*
X73454112Y-84644314D01*
X73523527Y-84644353D01*
X73528160Y-84642262D01*
X73528433Y-84642162D01*
X73556655Y-84634096D01*
X73558596Y-84634582D01*
X73559145Y-84636505D01*
X73558113Y-84637801D01*
X73475982Y-84679649D01*
X73393249Y-84762382D01*
X73340128Y-84866637D01*
X73321825Y-84982200D01*
X73340128Y-85097763D01*
X73393249Y-85202018D01*
X73475982Y-85284751D01*
X73580237Y-85337872D01*
X73695800Y-85356175D01*
X73811363Y-85337872D01*
X73915687Y-85284716D01*
X73917684Y-85284821D01*
X73918592Y-85286603D01*
X73918079Y-85287839D01*
X73880562Y-85329379D01*
X73869300Y-85397713D01*
X73896826Y-85461424D01*
X73908008Y-85471355D01*
X73908639Y-85473252D01*
X73907311Y-85474748D01*
X73905772Y-85474632D01*
X73811363Y-85426528D01*
X73695800Y-85408225D01*
X73580237Y-85426528D01*
X73475982Y-85479649D01*
X73393249Y-85562382D01*
X73340128Y-85666637D01*
X73321825Y-85782200D01*
X73327429Y-85817587D01*
X73326713Y-85819454D01*
X73324737Y-85819767D01*
X73323624Y-85818708D01*
X73296724Y-85757758D01*
X73238943Y-85719574D01*
X73169535Y-85718688D01*
X73153222Y-85725811D01*
X73152948Y-85725908D01*
X73132761Y-85731412D01*
X73130827Y-85730902D01*
X73130301Y-85728973D01*
X73131327Y-85727700D01*
X73215618Y-85684751D01*
X73298351Y-85602018D01*
X73351472Y-85497763D01*
X73369775Y-85382200D01*
X73351472Y-85266637D01*
X73298351Y-85162382D01*
X73215618Y-85079649D01*
X73111363Y-85026528D01*
X72995800Y-85008225D01*
X72880237Y-85026528D01*
X72778074Y-85078583D01*
X72776077Y-85078478D01*
X72775169Y-85076696D01*
X72775665Y-85075479D01*
X72812431Y-85033758D01*
X72822859Y-84965290D01*
X72794549Y-84901909D01*
X72785883Y-84894213D01*
X72785252Y-84892316D01*
X72786580Y-84890820D01*
X72788119Y-84890936D01*
X72880237Y-84937872D01*
X72995800Y-84956175D01*
X73111363Y-84937872D01*
X73215618Y-84884751D01*
X73298351Y-84802018D01*
X73351472Y-84697763D01*
X73369775Y-84582200D01*
X73364165Y-84546777D01*
X73364881Y-84544910D01*
X73366857Y-84544597D01*
X73367960Y-84545634D01*
G37*
G36*
X88931067Y-85261501D02*
G01*
X88982746Y-85304689D01*
X89051461Y-85313320D01*
X89114091Y-85283356D01*
X89132148Y-85262518D01*
X89134038Y-85261864D01*
X89135549Y-85263174D01*
X89135621Y-85264218D01*
X89132800Y-85278399D01*
X89132800Y-85778001D01*
X89135778Y-85792974D01*
X89135135Y-85794868D01*
X89133173Y-85795258D01*
X89132533Y-85794899D01*
X89080854Y-85751711D01*
X89012139Y-85743080D01*
X88949509Y-85773044D01*
X88931452Y-85793882D01*
X88929562Y-85794536D01*
X88928051Y-85793226D01*
X88927979Y-85792182D01*
X88930800Y-85778001D01*
X88930800Y-85278399D01*
X88927822Y-85263426D01*
X88928465Y-85261532D01*
X88930427Y-85261142D01*
X88931067Y-85261501D01*
G37*
G36*
X74421875Y-85617284D02*
G01*
X74437063Y-85627433D01*
X74455999Y-85631200D01*
X75555601Y-85631200D01*
X75574538Y-85627433D01*
X75589573Y-85617386D01*
X75591568Y-85617255D01*
X75592680Y-85618918D01*
X75592593Y-85619647D01*
X75573698Y-85679988D01*
X75592755Y-85744890D01*
X75592283Y-85746833D01*
X75590364Y-85747397D01*
X75589725Y-85747116D01*
X75574537Y-85736967D01*
X75555601Y-85733200D01*
X74455999Y-85733200D01*
X74437062Y-85736967D01*
X74422027Y-85747014D01*
X74420032Y-85747145D01*
X74418920Y-85745482D01*
X74419007Y-85744753D01*
X74437902Y-85684412D01*
X74418845Y-85619510D01*
X74419317Y-85617567D01*
X74421236Y-85617003D01*
X74421875Y-85617284D01*
G37*
G36*
X74421875Y-85117284D02*
G01*
X74437063Y-85127433D01*
X74455999Y-85131200D01*
X75555601Y-85131200D01*
X75574538Y-85127433D01*
X75589573Y-85117386D01*
X75591568Y-85117255D01*
X75592680Y-85118918D01*
X75592593Y-85119647D01*
X75573698Y-85179988D01*
X75592755Y-85244890D01*
X75592283Y-85246833D01*
X75590364Y-85247397D01*
X75589725Y-85247116D01*
X75574537Y-85236967D01*
X75555601Y-85233200D01*
X74455999Y-85233200D01*
X74437062Y-85236967D01*
X74422027Y-85247014D01*
X74420032Y-85247145D01*
X74418920Y-85245482D01*
X74419007Y-85244753D01*
X74437902Y-85184412D01*
X74418845Y-85119510D01*
X74419317Y-85117567D01*
X74421236Y-85117003D01*
X74421875Y-85117284D01*
G37*
G36*
X88898468Y-85024865D02*
G01*
X88898858Y-85026827D01*
X88898499Y-85027467D01*
X88855311Y-85079146D01*
X88846680Y-85147861D01*
X88876644Y-85210491D01*
X88897482Y-85228548D01*
X88898136Y-85230438D01*
X88896826Y-85231949D01*
X88895782Y-85232021D01*
X88881601Y-85229200D01*
X88381999Y-85229200D01*
X88367026Y-85232178D01*
X88365132Y-85231535D01*
X88364742Y-85229573D01*
X88365101Y-85228933D01*
X88408289Y-85177254D01*
X88416920Y-85108539D01*
X88386956Y-85045909D01*
X88366118Y-85027852D01*
X88365464Y-85025962D01*
X88366774Y-85024451D01*
X88367818Y-85024379D01*
X88381999Y-85027200D01*
X88881601Y-85027200D01*
X88896574Y-85024222D01*
X88898468Y-85024865D01*
G37*
G36*
X89698468Y-85024865D02*
G01*
X89698858Y-85026827D01*
X89698499Y-85027467D01*
X89655311Y-85079146D01*
X89646680Y-85147861D01*
X89676644Y-85210491D01*
X89697482Y-85228548D01*
X89698136Y-85230438D01*
X89696826Y-85231949D01*
X89695782Y-85232021D01*
X89681601Y-85229200D01*
X89181999Y-85229200D01*
X89167026Y-85232178D01*
X89165132Y-85231535D01*
X89164742Y-85229573D01*
X89165101Y-85228933D01*
X89208289Y-85177254D01*
X89216920Y-85108539D01*
X89186956Y-85045909D01*
X89166118Y-85027852D01*
X89165464Y-85025962D01*
X89166774Y-85024451D01*
X89167818Y-85024379D01*
X89181999Y-85027200D01*
X89681601Y-85027200D01*
X89696574Y-85024222D01*
X89698468Y-85024865D01*
G37*
G36*
X88931067Y-84461501D02*
G01*
X88982746Y-84504689D01*
X89051461Y-84513320D01*
X89114091Y-84483356D01*
X89132148Y-84462518D01*
X89134038Y-84461864D01*
X89135549Y-84463174D01*
X89135621Y-84464218D01*
X89132800Y-84478399D01*
X89132800Y-84978001D01*
X89135778Y-84992974D01*
X89135135Y-84994868D01*
X89133173Y-84995258D01*
X89132533Y-84994899D01*
X89080854Y-84951711D01*
X89012139Y-84943080D01*
X88949509Y-84973044D01*
X88931452Y-84993882D01*
X88929562Y-84994536D01*
X88928051Y-84993226D01*
X88927979Y-84992182D01*
X88930800Y-84978001D01*
X88930800Y-84478399D01*
X88927822Y-84463426D01*
X88928465Y-84461532D01*
X88930427Y-84461142D01*
X88931067Y-84461501D01*
G37*
G36*
X74421875Y-84617284D02*
G01*
X74437063Y-84627433D01*
X74455999Y-84631200D01*
X75555601Y-84631200D01*
X75574538Y-84627433D01*
X75589573Y-84617386D01*
X75591568Y-84617255D01*
X75592680Y-84618918D01*
X75592593Y-84619647D01*
X75573698Y-84679988D01*
X75592755Y-84744890D01*
X75592283Y-84746833D01*
X75590364Y-84747397D01*
X75589725Y-84747116D01*
X75574537Y-84736967D01*
X75555601Y-84733200D01*
X74455999Y-84733200D01*
X74437062Y-84736967D01*
X74422027Y-84747014D01*
X74420032Y-84747145D01*
X74418920Y-84745482D01*
X74419007Y-84744753D01*
X74437902Y-84684412D01*
X74418845Y-84619510D01*
X74419317Y-84617567D01*
X74421236Y-84617003D01*
X74421875Y-84617284D01*
G37*
G36*
X82935433Y-83893717D02*
G01*
X82935997Y-83895636D01*
X82935716Y-83896275D01*
X82925567Y-83911463D01*
X82921800Y-83930399D01*
X82921800Y-84630001D01*
X82925567Y-84648938D01*
X82935614Y-84663973D01*
X82935745Y-84665968D01*
X82934082Y-84667080D01*
X82933353Y-84666993D01*
X82873012Y-84648098D01*
X82808110Y-84667155D01*
X82806167Y-84666683D01*
X82805603Y-84664764D01*
X82805884Y-84664125D01*
X82816033Y-84648937D01*
X82819800Y-84630001D01*
X82819800Y-83930399D01*
X82816033Y-83911462D01*
X82805986Y-83896427D01*
X82805855Y-83894432D01*
X82807518Y-83893320D01*
X82808247Y-83893407D01*
X82868588Y-83912302D01*
X82933490Y-83893245D01*
X82935433Y-83893717D01*
G37*
G36*
X83935433Y-83893717D02*
G01*
X83935997Y-83895636D01*
X83935716Y-83896275D01*
X83925567Y-83911463D01*
X83921800Y-83930399D01*
X83921800Y-84630001D01*
X83925567Y-84648938D01*
X83935614Y-84663973D01*
X83935745Y-84665968D01*
X83934082Y-84667080D01*
X83933353Y-84666993D01*
X83873012Y-84648098D01*
X83808110Y-84667155D01*
X83806167Y-84666683D01*
X83805603Y-84664764D01*
X83805884Y-84664125D01*
X83816033Y-84648937D01*
X83819800Y-84630001D01*
X83819800Y-83930399D01*
X83816033Y-83911462D01*
X83805986Y-83896427D01*
X83805855Y-83894432D01*
X83807518Y-83893320D01*
X83808247Y-83893407D01*
X83868588Y-83912302D01*
X83933490Y-83893245D01*
X83935433Y-83893717D01*
G37*
G36*
X84935433Y-83893717D02*
G01*
X84935997Y-83895636D01*
X84935716Y-83896275D01*
X84925567Y-83911463D01*
X84921800Y-83930399D01*
X84921800Y-84630001D01*
X84925567Y-84648938D01*
X84935614Y-84663973D01*
X84935745Y-84665968D01*
X84934082Y-84667080D01*
X84933353Y-84666993D01*
X84873012Y-84648098D01*
X84808110Y-84667155D01*
X84806167Y-84666683D01*
X84805603Y-84664764D01*
X84805884Y-84664125D01*
X84816033Y-84648937D01*
X84819800Y-84630001D01*
X84819800Y-83930399D01*
X84816033Y-83911462D01*
X84805986Y-83896427D01*
X84805855Y-83894432D01*
X84807518Y-83893320D01*
X84808247Y-83893407D01*
X84868588Y-83912302D01*
X84933490Y-83893245D01*
X84935433Y-83893717D01*
G37*
G36*
X84435433Y-83893717D02*
G01*
X84435997Y-83895636D01*
X84435716Y-83896275D01*
X84425567Y-83911463D01*
X84421800Y-83930399D01*
X84421800Y-84630001D01*
X84425567Y-84648938D01*
X84435614Y-84663973D01*
X84435745Y-84665968D01*
X84434082Y-84667080D01*
X84433353Y-84666993D01*
X84373012Y-84648098D01*
X84308110Y-84667155D01*
X84306167Y-84666683D01*
X84305603Y-84664764D01*
X84305884Y-84664125D01*
X84316033Y-84648937D01*
X84319800Y-84630001D01*
X84319800Y-83930399D01*
X84316033Y-83911462D01*
X84305986Y-83896427D01*
X84305855Y-83894432D01*
X84307518Y-83893320D01*
X84308247Y-83893407D01*
X84368588Y-83912302D01*
X84433490Y-83893245D01*
X84435433Y-83893717D01*
G37*
G36*
X83435433Y-83893717D02*
G01*
X83435997Y-83895636D01*
X83435716Y-83896275D01*
X83425567Y-83911463D01*
X83421800Y-83930399D01*
X83421800Y-84630001D01*
X83425567Y-84648938D01*
X83435614Y-84663973D01*
X83435745Y-84665968D01*
X83434082Y-84667080D01*
X83433353Y-84666993D01*
X83373012Y-84648098D01*
X83308110Y-84667155D01*
X83306167Y-84666683D01*
X83305603Y-84664764D01*
X83305884Y-84664125D01*
X83316033Y-84648937D01*
X83319800Y-84630001D01*
X83319800Y-83930399D01*
X83316033Y-83911462D01*
X83305986Y-83896427D01*
X83305855Y-83894432D01*
X83307518Y-83893320D01*
X83308247Y-83893407D01*
X83368588Y-83912302D01*
X83433490Y-83893245D01*
X83435433Y-83893717D01*
G37*
G36*
X88898468Y-84224865D02*
G01*
X88898858Y-84226827D01*
X88898499Y-84227467D01*
X88855311Y-84279146D01*
X88846680Y-84347861D01*
X88876644Y-84410491D01*
X88897482Y-84428548D01*
X88898136Y-84430438D01*
X88896826Y-84431949D01*
X88895782Y-84432021D01*
X88881601Y-84429200D01*
X88381999Y-84429200D01*
X88367026Y-84432178D01*
X88365132Y-84431535D01*
X88364742Y-84429573D01*
X88365101Y-84428933D01*
X88408289Y-84377254D01*
X88416920Y-84308539D01*
X88386956Y-84245909D01*
X88366118Y-84227852D01*
X88365464Y-84225962D01*
X88366774Y-84224451D01*
X88367818Y-84224379D01*
X88381999Y-84227200D01*
X88881601Y-84227200D01*
X88896574Y-84224222D01*
X88898468Y-84224865D01*
G37*
G36*
X89698468Y-84224865D02*
G01*
X89698858Y-84226827D01*
X89698499Y-84227467D01*
X89655311Y-84279146D01*
X89646680Y-84347861D01*
X89676644Y-84410491D01*
X89697482Y-84428548D01*
X89698136Y-84430438D01*
X89696826Y-84431949D01*
X89695782Y-84432021D01*
X89681601Y-84429200D01*
X89181999Y-84429200D01*
X89167026Y-84432178D01*
X89165132Y-84431535D01*
X89164742Y-84429573D01*
X89165101Y-84428933D01*
X89208289Y-84377254D01*
X89216920Y-84308539D01*
X89186956Y-84245909D01*
X89166118Y-84227852D01*
X89165464Y-84225962D01*
X89166774Y-84224451D01*
X89167818Y-84224379D01*
X89181999Y-84227200D01*
X89681601Y-84227200D01*
X89696574Y-84224222D01*
X89698468Y-84224865D01*
G37*
G36*
X73217684Y-84084821D02*
G01*
X73218592Y-84086603D01*
X73218079Y-84087839D01*
X73180562Y-84129379D01*
X73169300Y-84197713D01*
X73196826Y-84261424D01*
X73208008Y-84271355D01*
X73208639Y-84273252D01*
X73207311Y-84274748D01*
X73205772Y-84274632D01*
X73111363Y-84226528D01*
X72995800Y-84208225D01*
X72880237Y-84226528D01*
X72778074Y-84278583D01*
X72776077Y-84278478D01*
X72775169Y-84276696D01*
X72775665Y-84275479D01*
X72812431Y-84233758D01*
X72822859Y-84165290D01*
X72794549Y-84101909D01*
X72785883Y-84094213D01*
X72785252Y-84092316D01*
X72786580Y-84090820D01*
X72788119Y-84090936D01*
X72880237Y-84137872D01*
X72995800Y-84156175D01*
X73111363Y-84137872D01*
X73215687Y-84084716D01*
X73217684Y-84084821D01*
G37*
G36*
X74421875Y-84117284D02*
G01*
X74437063Y-84127433D01*
X74455999Y-84131200D01*
X75555601Y-84131200D01*
X75574538Y-84127433D01*
X75589573Y-84117386D01*
X75591568Y-84117255D01*
X75592680Y-84118918D01*
X75592593Y-84119647D01*
X75573698Y-84179988D01*
X75592755Y-84244890D01*
X75592283Y-84246833D01*
X75590364Y-84247397D01*
X75589725Y-84247116D01*
X75574537Y-84236967D01*
X75555601Y-84233200D01*
X74455999Y-84233200D01*
X74437062Y-84236967D01*
X74422027Y-84247014D01*
X74420032Y-84247145D01*
X74418920Y-84245482D01*
X74419007Y-84244753D01*
X74437902Y-84184412D01*
X74418845Y-84119510D01*
X74419317Y-84117567D01*
X74421236Y-84117003D01*
X74421875Y-84117284D01*
G37*
G36*
X88931067Y-83661501D02*
G01*
X88982746Y-83704689D01*
X89051461Y-83713320D01*
X89114091Y-83683356D01*
X89132148Y-83662518D01*
X89134038Y-83661864D01*
X89135549Y-83663174D01*
X89135621Y-83664218D01*
X89132800Y-83678399D01*
X89132800Y-84178001D01*
X89135778Y-84192974D01*
X89135135Y-84194868D01*
X89133173Y-84195258D01*
X89132533Y-84194899D01*
X89080854Y-84151711D01*
X89012139Y-84143080D01*
X88949509Y-84173044D01*
X88931452Y-84193882D01*
X88929562Y-84194536D01*
X88928051Y-84193226D01*
X88927979Y-84192182D01*
X88930800Y-84178001D01*
X88930800Y-83678399D01*
X88927822Y-83663426D01*
X88928465Y-83661532D01*
X88930427Y-83661142D01*
X88931067Y-83661501D01*
G37*
G36*
X73326979Y-83346076D02*
G01*
X73327315Y-83347536D01*
X73321825Y-83382200D01*
X73340128Y-83497763D01*
X73393249Y-83602018D01*
X73475982Y-83684751D01*
X73553753Y-83724377D01*
X73554842Y-83726054D01*
X73553934Y-83727836D01*
X73552249Y-83728068D01*
X73526392Y-83719990D01*
X73456842Y-83718793D01*
X73397941Y-83755230D01*
X73368250Y-83816861D01*
X73366597Y-83817987D01*
X73364795Y-83817119D01*
X73364473Y-83815680D01*
X73369775Y-83782200D01*
X73351472Y-83666637D01*
X73298351Y-83562382D01*
X73215618Y-83479649D01*
X73135655Y-83438906D01*
X73134566Y-83437229D01*
X73135474Y-83435447D01*
X73137136Y-83435208D01*
X73167056Y-83444155D01*
X73236613Y-83444503D01*
X73295067Y-83407349D01*
X73323528Y-83346377D01*
X73325166Y-83345231D01*
X73326979Y-83346076D01*
G37*
G36*
X74421875Y-83617284D02*
G01*
X74437063Y-83627433D01*
X74455999Y-83631200D01*
X75555601Y-83631200D01*
X75574538Y-83627433D01*
X75589573Y-83617386D01*
X75591568Y-83617255D01*
X75592680Y-83618918D01*
X75592593Y-83619647D01*
X75573698Y-83679988D01*
X75592755Y-83744890D01*
X75592283Y-83746833D01*
X75590364Y-83747397D01*
X75589725Y-83747116D01*
X75574537Y-83736967D01*
X75555601Y-83733200D01*
X74455999Y-83733200D01*
X74437062Y-83736967D01*
X74422027Y-83747014D01*
X74420032Y-83747145D01*
X74418920Y-83745482D01*
X74419007Y-83744753D01*
X74437902Y-83684412D01*
X74418845Y-83619510D01*
X74419317Y-83617567D01*
X74421236Y-83617003D01*
X74421875Y-83617284D01*
G37*
G36*
X88898468Y-83424865D02*
G01*
X88898858Y-83426827D01*
X88898499Y-83427467D01*
X88855311Y-83479146D01*
X88846680Y-83547861D01*
X88876644Y-83610491D01*
X88897482Y-83628548D01*
X88898136Y-83630438D01*
X88896826Y-83631949D01*
X88895782Y-83632021D01*
X88881601Y-83629200D01*
X88381999Y-83629200D01*
X88367026Y-83632178D01*
X88365132Y-83631535D01*
X88364742Y-83629573D01*
X88365101Y-83628933D01*
X88408289Y-83577254D01*
X88416920Y-83508539D01*
X88386956Y-83445909D01*
X88366118Y-83427852D01*
X88365464Y-83425962D01*
X88366774Y-83424451D01*
X88367818Y-83424379D01*
X88381999Y-83427200D01*
X88881601Y-83427200D01*
X88896574Y-83424222D01*
X88898468Y-83424865D01*
G37*
G36*
X89698468Y-83424865D02*
G01*
X89698858Y-83426827D01*
X89698499Y-83427467D01*
X89655311Y-83479146D01*
X89646680Y-83547861D01*
X89676644Y-83610491D01*
X89697482Y-83628548D01*
X89698136Y-83630438D01*
X89696826Y-83631949D01*
X89695782Y-83632021D01*
X89681601Y-83629200D01*
X89181999Y-83629200D01*
X89167026Y-83632178D01*
X89165132Y-83631535D01*
X89164742Y-83629573D01*
X89165101Y-83628933D01*
X89208289Y-83577254D01*
X89216920Y-83508539D01*
X89186956Y-83445909D01*
X89166118Y-83427852D01*
X89165464Y-83425962D01*
X89166774Y-83424451D01*
X89167818Y-83424379D01*
X89181999Y-83427200D01*
X89681601Y-83427200D01*
X89696574Y-83424222D01*
X89698468Y-83424865D01*
G37*
G36*
X88931067Y-82861501D02*
G01*
X88982746Y-82904689D01*
X89051461Y-82913320D01*
X89114091Y-82883356D01*
X89132148Y-82862518D01*
X89134038Y-82861864D01*
X89135549Y-82863174D01*
X89135621Y-82864218D01*
X89132800Y-82878399D01*
X89132800Y-83378001D01*
X89135778Y-83392974D01*
X89135135Y-83394868D01*
X89133173Y-83395258D01*
X89132533Y-83394899D01*
X89080854Y-83351711D01*
X89012139Y-83343080D01*
X88949509Y-83373044D01*
X88931452Y-83393882D01*
X88929562Y-83394536D01*
X88928051Y-83393226D01*
X88927979Y-83392182D01*
X88930800Y-83378001D01*
X88930800Y-82878399D01*
X88927822Y-82863426D01*
X88928465Y-82861532D01*
X88930427Y-82861142D01*
X88931067Y-82861501D01*
G37*
G36*
X88898468Y-82624865D02*
G01*
X88898858Y-82626827D01*
X88898499Y-82627467D01*
X88855311Y-82679146D01*
X88846680Y-82747861D01*
X88876644Y-82810491D01*
X88897482Y-82828548D01*
X88898136Y-82830438D01*
X88896826Y-82831949D01*
X88895782Y-82832021D01*
X88881601Y-82829200D01*
X88381999Y-82829200D01*
X88367026Y-82832178D01*
X88365132Y-82831535D01*
X88364742Y-82829573D01*
X88365101Y-82828933D01*
X88408289Y-82777254D01*
X88416920Y-82708539D01*
X88386956Y-82645909D01*
X88366118Y-82627852D01*
X88365464Y-82625962D01*
X88366774Y-82624451D01*
X88367818Y-82624379D01*
X88381999Y-82627200D01*
X88881601Y-82627200D01*
X88896574Y-82624222D01*
X88898468Y-82624865D01*
G37*
G36*
X89132158Y-81951982D02*
G01*
X89132800Y-81953450D01*
X89132800Y-82428001D01*
X89136567Y-82446938D01*
X89143914Y-82457933D01*
X89144045Y-82459929D01*
X89142382Y-82461040D01*
X89141140Y-82460707D01*
X89126374Y-82450841D01*
X89059993Y-82430055D01*
X88993203Y-82448378D01*
X88946876Y-82499952D01*
X88934750Y-82553393D01*
X88933392Y-82554860D01*
X88931442Y-82554418D01*
X88930800Y-82552950D01*
X88930800Y-82078399D01*
X88927033Y-82059462D01*
X88919686Y-82048467D01*
X88919555Y-82046471D01*
X88921218Y-82045360D01*
X88922460Y-82045693D01*
X88937226Y-82055559D01*
X89003607Y-82076345D01*
X89070397Y-82058022D01*
X89116724Y-82006448D01*
X89128850Y-81953007D01*
X89130208Y-81951540D01*
X89132158Y-81951982D01*
G37*
G36*
X95331067Y-81911501D02*
G01*
X95382746Y-81954689D01*
X95451461Y-81963320D01*
X95514091Y-81933356D01*
X95532148Y-81912518D01*
X95534038Y-81911864D01*
X95535549Y-81913174D01*
X95535621Y-81914218D01*
X95532800Y-81928399D01*
X95532800Y-82428001D01*
X95535778Y-82442974D01*
X95535135Y-82444868D01*
X95533173Y-82445258D01*
X95532533Y-82444899D01*
X95480854Y-82401711D01*
X95412139Y-82393080D01*
X95349509Y-82423044D01*
X95331452Y-82443882D01*
X95329562Y-82444536D01*
X95328051Y-82443226D01*
X95327979Y-82442182D01*
X95330800Y-82428001D01*
X95330800Y-81928399D01*
X95327822Y-81913426D01*
X95328465Y-81911532D01*
X95330427Y-81911142D01*
X95331067Y-81911501D01*
G37*
G36*
X91331067Y-81911501D02*
G01*
X91382746Y-81954689D01*
X91451461Y-81963320D01*
X91514091Y-81933356D01*
X91532148Y-81912518D01*
X91534038Y-81911864D01*
X91535549Y-81913174D01*
X91535621Y-81914218D01*
X91532800Y-81928399D01*
X91532800Y-82428001D01*
X91535778Y-82442974D01*
X91535135Y-82444868D01*
X91533173Y-82445258D01*
X91532533Y-82444899D01*
X91480854Y-82401711D01*
X91412139Y-82393080D01*
X91349509Y-82423044D01*
X91331452Y-82443882D01*
X91329562Y-82444536D01*
X91328051Y-82443226D01*
X91327979Y-82442182D01*
X91330800Y-82428001D01*
X91330800Y-81928399D01*
X91327822Y-81913426D01*
X91328465Y-81911532D01*
X91330427Y-81911142D01*
X91331067Y-81911501D01*
G37*
G36*
X90531067Y-81911501D02*
G01*
X90582746Y-81954689D01*
X90651461Y-81963320D01*
X90714091Y-81933356D01*
X90732148Y-81912518D01*
X90734038Y-81911864D01*
X90735549Y-81913174D01*
X90735621Y-81914218D01*
X90732800Y-81928399D01*
X90732800Y-82428001D01*
X90735778Y-82442974D01*
X90735135Y-82444868D01*
X90733173Y-82445258D01*
X90732533Y-82444899D01*
X90680854Y-82401711D01*
X90612139Y-82393080D01*
X90549509Y-82423044D01*
X90531452Y-82443882D01*
X90529562Y-82444536D01*
X90528051Y-82443226D01*
X90527979Y-82442182D01*
X90530800Y-82428001D01*
X90530800Y-81928399D01*
X90527822Y-81913426D01*
X90528465Y-81911532D01*
X90530427Y-81911142D01*
X90531067Y-81911501D01*
G37*
G36*
X92131067Y-81911501D02*
G01*
X92182746Y-81954689D01*
X92251461Y-81963320D01*
X92314091Y-81933356D01*
X92332148Y-81912518D01*
X92334038Y-81911864D01*
X92335549Y-81913174D01*
X92335621Y-81914218D01*
X92332800Y-81928399D01*
X92332800Y-82428001D01*
X92335778Y-82442974D01*
X92335135Y-82444868D01*
X92333173Y-82445258D01*
X92332533Y-82444899D01*
X92280854Y-82401711D01*
X92212139Y-82393080D01*
X92149509Y-82423044D01*
X92131452Y-82443882D01*
X92129562Y-82444536D01*
X92128051Y-82443226D01*
X92127979Y-82442182D01*
X92130800Y-82428001D01*
X92130800Y-81928399D01*
X92127822Y-81913426D01*
X92128465Y-81911532D01*
X92130427Y-81911142D01*
X92131067Y-81911501D01*
G37*
G36*
X89731067Y-81911501D02*
G01*
X89782746Y-81954689D01*
X89851461Y-81963320D01*
X89914091Y-81933356D01*
X89932148Y-81912518D01*
X89934038Y-81911864D01*
X89935549Y-81913174D01*
X89935621Y-81914218D01*
X89932800Y-81928399D01*
X89932800Y-82428001D01*
X89935778Y-82442974D01*
X89935135Y-82444868D01*
X89933173Y-82445258D01*
X89932533Y-82444899D01*
X89880854Y-82401711D01*
X89812139Y-82393080D01*
X89749509Y-82423044D01*
X89731452Y-82443882D01*
X89729562Y-82444536D01*
X89728051Y-82443226D01*
X89727979Y-82442182D01*
X89730800Y-82428001D01*
X89730800Y-81928399D01*
X89727822Y-81913426D01*
X89728465Y-81911532D01*
X89730427Y-81911142D01*
X89731067Y-81911501D01*
G37*
G36*
X92931067Y-81911501D02*
G01*
X92982746Y-81954689D01*
X93051461Y-81963320D01*
X93114091Y-81933356D01*
X93132148Y-81912518D01*
X93134038Y-81911864D01*
X93135549Y-81913174D01*
X93135621Y-81914218D01*
X93132800Y-81928399D01*
X93132800Y-82428001D01*
X93135778Y-82442974D01*
X93135135Y-82444868D01*
X93133173Y-82445258D01*
X93132533Y-82444899D01*
X93080854Y-82401711D01*
X93012139Y-82393080D01*
X92949509Y-82423044D01*
X92931452Y-82443882D01*
X92929562Y-82444536D01*
X92928051Y-82443226D01*
X92927979Y-82442182D01*
X92930800Y-82428001D01*
X92930800Y-81928399D01*
X92927822Y-81913426D01*
X92928465Y-81911532D01*
X92930427Y-81911142D01*
X92931067Y-81911501D01*
G37*
G36*
X93731067Y-81911501D02*
G01*
X93782746Y-81954689D01*
X93851461Y-81963320D01*
X93914091Y-81933356D01*
X93932148Y-81912518D01*
X93934038Y-81911864D01*
X93935549Y-81913174D01*
X93935621Y-81914218D01*
X93932800Y-81928399D01*
X93932800Y-82428001D01*
X93935778Y-82442974D01*
X93935135Y-82444868D01*
X93933173Y-82445258D01*
X93932533Y-82444899D01*
X93880854Y-82401711D01*
X93812139Y-82393080D01*
X93749509Y-82423044D01*
X93731452Y-82443882D01*
X93729562Y-82444536D01*
X93728051Y-82443226D01*
X93727979Y-82442182D01*
X93730800Y-82428001D01*
X93730800Y-81928399D01*
X93727822Y-81913426D01*
X93728465Y-81911532D01*
X93730427Y-81911142D01*
X93731067Y-81911501D01*
G37*
G36*
X96931067Y-81911501D02*
G01*
X96982746Y-81954689D01*
X97051461Y-81963320D01*
X97114091Y-81933356D01*
X97132148Y-81912518D01*
X97134038Y-81911864D01*
X97135549Y-81913174D01*
X97135621Y-81914218D01*
X97132800Y-81928399D01*
X97132800Y-82428001D01*
X97135778Y-82442974D01*
X97135135Y-82444868D01*
X97133173Y-82445258D01*
X97132533Y-82444899D01*
X97080854Y-82401711D01*
X97012139Y-82393080D01*
X96949509Y-82423044D01*
X96931452Y-82443882D01*
X96929562Y-82444536D01*
X96928051Y-82443226D01*
X96927979Y-82442182D01*
X96930800Y-82428001D01*
X96930800Y-81928399D01*
X96927822Y-81913426D01*
X96928465Y-81911532D01*
X96930427Y-81911142D01*
X96931067Y-81911501D01*
G37*
G36*
X94531067Y-81911501D02*
G01*
X94582746Y-81954689D01*
X94651461Y-81963320D01*
X94714091Y-81933356D01*
X94732148Y-81912518D01*
X94734038Y-81911864D01*
X94735549Y-81913174D01*
X94735621Y-81914218D01*
X94732800Y-81928399D01*
X94732800Y-82428001D01*
X94735778Y-82442974D01*
X94735135Y-82444868D01*
X94733173Y-82445258D01*
X94732533Y-82444899D01*
X94680854Y-82401711D01*
X94612139Y-82393080D01*
X94549509Y-82423044D01*
X94531452Y-82443882D01*
X94529562Y-82444536D01*
X94528051Y-82443226D01*
X94527979Y-82442182D01*
X94530800Y-82428001D01*
X94530800Y-81928399D01*
X94527822Y-81913426D01*
X94528465Y-81911532D01*
X94530427Y-81911142D01*
X94531067Y-81911501D01*
G37*
G36*
X96131067Y-81911501D02*
G01*
X96182746Y-81954689D01*
X96251461Y-81963320D01*
X96314091Y-81933356D01*
X96332148Y-81912518D01*
X96334038Y-81911864D01*
X96335549Y-81913174D01*
X96335621Y-81914218D01*
X96332800Y-81928399D01*
X96332800Y-82428001D01*
X96335778Y-82442974D01*
X96335135Y-82444868D01*
X96333173Y-82445258D01*
X96332533Y-82444899D01*
X96280854Y-82401711D01*
X96212139Y-82393080D01*
X96149509Y-82423044D01*
X96131452Y-82443882D01*
X96129562Y-82444536D01*
X96128051Y-82443226D01*
X96127979Y-82442182D01*
X96130800Y-82428001D01*
X96130800Y-81928399D01*
X96127822Y-81913426D01*
X96128465Y-81911532D01*
X96130427Y-81911142D01*
X96131067Y-81911501D01*
G37*
G36*
X88898468Y-81824865D02*
G01*
X88898858Y-81826827D01*
X88898499Y-81827467D01*
X88855311Y-81879146D01*
X88846680Y-81947861D01*
X88876644Y-82010491D01*
X88897482Y-82028548D01*
X88898136Y-82030438D01*
X88896826Y-82031949D01*
X88895782Y-82032021D01*
X88881601Y-82029200D01*
X88381999Y-82029200D01*
X88367026Y-82032178D01*
X88365132Y-82031535D01*
X88364742Y-82029573D01*
X88365101Y-82028933D01*
X88408289Y-81977254D01*
X88416920Y-81908539D01*
X88386956Y-81845909D01*
X88366118Y-81827852D01*
X88365464Y-81825962D01*
X88366774Y-81824451D01*
X88367818Y-81824379D01*
X88381999Y-81827200D01*
X88881601Y-81827200D01*
X88896574Y-81824222D01*
X88898468Y-81824865D01*
G37*
G36*
X95298468Y-81674865D02*
G01*
X95298858Y-81676827D01*
X95298499Y-81677467D01*
X95255311Y-81729146D01*
X95246680Y-81797861D01*
X95276644Y-81860491D01*
X95297482Y-81878548D01*
X95298136Y-81880438D01*
X95296826Y-81881949D01*
X95295782Y-81882021D01*
X95281601Y-81879200D01*
X94781999Y-81879200D01*
X94767026Y-81882178D01*
X94765132Y-81881535D01*
X94764742Y-81879573D01*
X94765101Y-81878933D01*
X94808289Y-81827254D01*
X94816920Y-81758539D01*
X94786956Y-81695909D01*
X94766118Y-81677852D01*
X94765464Y-81675962D01*
X94766774Y-81674451D01*
X94767818Y-81674379D01*
X94781999Y-81677200D01*
X95281601Y-81677200D01*
X95296574Y-81674222D01*
X95298468Y-81674865D01*
G37*
G36*
X96898468Y-81674865D02*
G01*
X96898858Y-81676827D01*
X96898499Y-81677467D01*
X96855311Y-81729146D01*
X96846680Y-81797861D01*
X96876644Y-81860491D01*
X96897482Y-81878548D01*
X96898136Y-81880438D01*
X96896826Y-81881949D01*
X96895782Y-81882021D01*
X96881601Y-81879200D01*
X96381999Y-81879200D01*
X96367026Y-81882178D01*
X96365132Y-81881535D01*
X96364742Y-81879573D01*
X96365101Y-81878933D01*
X96408289Y-81827254D01*
X96416920Y-81758539D01*
X96386956Y-81695909D01*
X96366118Y-81677852D01*
X96365464Y-81675962D01*
X96366774Y-81674451D01*
X96367818Y-81674379D01*
X96381999Y-81677200D01*
X96881601Y-81677200D01*
X96896574Y-81674222D01*
X96898468Y-81674865D01*
G37*
G36*
X92898468Y-81674865D02*
G01*
X92898858Y-81676827D01*
X92898499Y-81677467D01*
X92855311Y-81729146D01*
X92846680Y-81797861D01*
X92876644Y-81860491D01*
X92897482Y-81878548D01*
X92898136Y-81880438D01*
X92896826Y-81881949D01*
X92895782Y-81882021D01*
X92881601Y-81879200D01*
X92381999Y-81879200D01*
X92367026Y-81882178D01*
X92365132Y-81881535D01*
X92364742Y-81879573D01*
X92365101Y-81878933D01*
X92408289Y-81827254D01*
X92416920Y-81758539D01*
X92386956Y-81695909D01*
X92366118Y-81677852D01*
X92365464Y-81675962D01*
X92366774Y-81674451D01*
X92367818Y-81674379D01*
X92381999Y-81677200D01*
X92881601Y-81677200D01*
X92896574Y-81674222D01*
X92898468Y-81674865D01*
G37*
G36*
X90498468Y-81674865D02*
G01*
X90498858Y-81676827D01*
X90498499Y-81677467D01*
X90455311Y-81729146D01*
X90446680Y-81797861D01*
X90476644Y-81860491D01*
X90497482Y-81878548D01*
X90498136Y-81880438D01*
X90496826Y-81881949D01*
X90495782Y-81882021D01*
X90481601Y-81879200D01*
X89981999Y-81879200D01*
X89967026Y-81882178D01*
X89965132Y-81881535D01*
X89964742Y-81879573D01*
X89965101Y-81878933D01*
X90008289Y-81827254D01*
X90016920Y-81758539D01*
X89986956Y-81695909D01*
X89966118Y-81677852D01*
X89965464Y-81675962D01*
X89966774Y-81674451D01*
X89967818Y-81674379D01*
X89981999Y-81677200D01*
X90481601Y-81677200D01*
X90496574Y-81674222D01*
X90498468Y-81674865D01*
G37*
G36*
X91298468Y-81674865D02*
G01*
X91298858Y-81676827D01*
X91298499Y-81677467D01*
X91255311Y-81729146D01*
X91246680Y-81797861D01*
X91276644Y-81860491D01*
X91297482Y-81878548D01*
X91298136Y-81880438D01*
X91296826Y-81881949D01*
X91295782Y-81882021D01*
X91281601Y-81879200D01*
X90781999Y-81879200D01*
X90767026Y-81882178D01*
X90765132Y-81881535D01*
X90764742Y-81879573D01*
X90765101Y-81878933D01*
X90808289Y-81827254D01*
X90816920Y-81758539D01*
X90786956Y-81695909D01*
X90766118Y-81677852D01*
X90765464Y-81675962D01*
X90766774Y-81674451D01*
X90767818Y-81674379D01*
X90781999Y-81677200D01*
X91281601Y-81677200D01*
X91296574Y-81674222D01*
X91298468Y-81674865D01*
G37*
G36*
X92098468Y-81674865D02*
G01*
X92098858Y-81676827D01*
X92098499Y-81677467D01*
X92055311Y-81729146D01*
X92046680Y-81797861D01*
X92076644Y-81860491D01*
X92097482Y-81878548D01*
X92098136Y-81880438D01*
X92096826Y-81881949D01*
X92095782Y-81882021D01*
X92081601Y-81879200D01*
X91581999Y-81879200D01*
X91567026Y-81882178D01*
X91565132Y-81881535D01*
X91564742Y-81879573D01*
X91565101Y-81878933D01*
X91608289Y-81827254D01*
X91616920Y-81758539D01*
X91586956Y-81695909D01*
X91566118Y-81677852D01*
X91565464Y-81675962D01*
X91566774Y-81674451D01*
X91567818Y-81674379D01*
X91581999Y-81677200D01*
X92081601Y-81677200D01*
X92096574Y-81674222D01*
X92098468Y-81674865D01*
G37*
G36*
X93698468Y-81674865D02*
G01*
X93698858Y-81676827D01*
X93698499Y-81677467D01*
X93655311Y-81729146D01*
X93646680Y-81797861D01*
X93676644Y-81860491D01*
X93697482Y-81878548D01*
X93698136Y-81880438D01*
X93696826Y-81881949D01*
X93695782Y-81882021D01*
X93681601Y-81879200D01*
X93181999Y-81879200D01*
X93167026Y-81882178D01*
X93165132Y-81881535D01*
X93164742Y-81879573D01*
X93165101Y-81878933D01*
X93208289Y-81827254D01*
X93216920Y-81758539D01*
X93186956Y-81695909D01*
X93166118Y-81677852D01*
X93165464Y-81675962D01*
X93166774Y-81674451D01*
X93167818Y-81674379D01*
X93181999Y-81677200D01*
X93681601Y-81677200D01*
X93696574Y-81674222D01*
X93698468Y-81674865D01*
G37*
G36*
X89698468Y-81674865D02*
G01*
X89698858Y-81676827D01*
X89698499Y-81677467D01*
X89655311Y-81729146D01*
X89646680Y-81797861D01*
X89676644Y-81860491D01*
X89697482Y-81878548D01*
X89698136Y-81880438D01*
X89696826Y-81881949D01*
X89695782Y-81882021D01*
X89681601Y-81879200D01*
X89181999Y-81879200D01*
X89167026Y-81882178D01*
X89165132Y-81881535D01*
X89164742Y-81879573D01*
X89165101Y-81878933D01*
X89208289Y-81827254D01*
X89216920Y-81758539D01*
X89186956Y-81695909D01*
X89166118Y-81677852D01*
X89165464Y-81675962D01*
X89166774Y-81674451D01*
X89167818Y-81674379D01*
X89181999Y-81677200D01*
X89681601Y-81677200D01*
X89696574Y-81674222D01*
X89698468Y-81674865D01*
G37*
G36*
X97698468Y-81674865D02*
G01*
X97698858Y-81676827D01*
X97698499Y-81677467D01*
X97655311Y-81729146D01*
X97646680Y-81797861D01*
X97676644Y-81860491D01*
X97697482Y-81878548D01*
X97698136Y-81880438D01*
X97696826Y-81881949D01*
X97695782Y-81882021D01*
X97681601Y-81879200D01*
X97181999Y-81879200D01*
X97167026Y-81882178D01*
X97165132Y-81881535D01*
X97164742Y-81879573D01*
X97165101Y-81878933D01*
X97208289Y-81827254D01*
X97216920Y-81758539D01*
X97186956Y-81695909D01*
X97166118Y-81677852D01*
X97165464Y-81675962D01*
X97166774Y-81674451D01*
X97167818Y-81674379D01*
X97181999Y-81677200D01*
X97681601Y-81677200D01*
X97696574Y-81674222D01*
X97698468Y-81674865D01*
G37*
G36*
X96098468Y-81674865D02*
G01*
X96098858Y-81676827D01*
X96098499Y-81677467D01*
X96055311Y-81729146D01*
X96046680Y-81797861D01*
X96076644Y-81860491D01*
X96097482Y-81878548D01*
X96098136Y-81880438D01*
X96096826Y-81881949D01*
X96095782Y-81882021D01*
X96081601Y-81879200D01*
X95581999Y-81879200D01*
X95567026Y-81882178D01*
X95565132Y-81881535D01*
X95564742Y-81879573D01*
X95565101Y-81878933D01*
X95608289Y-81827254D01*
X95616920Y-81758539D01*
X95586956Y-81695909D01*
X95566118Y-81677852D01*
X95565464Y-81675962D01*
X95566774Y-81674451D01*
X95567818Y-81674379D01*
X95581999Y-81677200D01*
X96081601Y-81677200D01*
X96096574Y-81674222D01*
X96098468Y-81674865D01*
G37*
G36*
X94498468Y-81674865D02*
G01*
X94498858Y-81676827D01*
X94498499Y-81677467D01*
X94455311Y-81729146D01*
X94446680Y-81797861D01*
X94476644Y-81860491D01*
X94497482Y-81878548D01*
X94498136Y-81880438D01*
X94496826Y-81881949D01*
X94495782Y-81882021D01*
X94481601Y-81879200D01*
X93981999Y-81879200D01*
X93967026Y-81882178D01*
X93965132Y-81881535D01*
X93964742Y-81879573D01*
X93965101Y-81878933D01*
X94008289Y-81827254D01*
X94016920Y-81758539D01*
X93986956Y-81695909D01*
X93966118Y-81677852D01*
X93965464Y-81675962D01*
X93966774Y-81674451D01*
X93967818Y-81674379D01*
X93981999Y-81677200D01*
X94481601Y-81677200D01*
X94496574Y-81674222D01*
X94498468Y-81674865D01*
G37*
G36*
X89132158Y-81151982D02*
G01*
X89132800Y-81153450D01*
X89132800Y-81628001D01*
X89136567Y-81646938D01*
X89143914Y-81657933D01*
X89144045Y-81659929D01*
X89142382Y-81661040D01*
X89141140Y-81660707D01*
X89126374Y-81650841D01*
X89059993Y-81630055D01*
X88993203Y-81648378D01*
X88946876Y-81699952D01*
X88934750Y-81753393D01*
X88933392Y-81754860D01*
X88931442Y-81754418D01*
X88930800Y-81752950D01*
X88930800Y-81278399D01*
X88927033Y-81259462D01*
X88919686Y-81248467D01*
X88919555Y-81246471D01*
X88921218Y-81245360D01*
X88922460Y-81245693D01*
X88937226Y-81255559D01*
X89003607Y-81276345D01*
X89070397Y-81258022D01*
X89116724Y-81206448D01*
X89128850Y-81153007D01*
X89130208Y-81151540D01*
X89132158Y-81151982D01*
G37*
G36*
X97731067Y-81111501D02*
G01*
X97782746Y-81154689D01*
X97851461Y-81163320D01*
X97914091Y-81133356D01*
X97932148Y-81112518D01*
X97934038Y-81111864D01*
X97935549Y-81113174D01*
X97935621Y-81114218D01*
X97932800Y-81128399D01*
X97932800Y-81628001D01*
X97935778Y-81642974D01*
X97935135Y-81644868D01*
X97933173Y-81645258D01*
X97932533Y-81644899D01*
X97880854Y-81601711D01*
X97812139Y-81593080D01*
X97749509Y-81623044D01*
X97731452Y-81643882D01*
X97729562Y-81644536D01*
X97728051Y-81643226D01*
X97727979Y-81642182D01*
X97730800Y-81628001D01*
X97730800Y-81128399D01*
X97727822Y-81113426D01*
X97728465Y-81111532D01*
X97730427Y-81111142D01*
X97731067Y-81111501D01*
G37*
G36*
X96931067Y-81111501D02*
G01*
X96982746Y-81154689D01*
X97051461Y-81163320D01*
X97114091Y-81133356D01*
X97132148Y-81112518D01*
X97134038Y-81111864D01*
X97135549Y-81113174D01*
X97135621Y-81114218D01*
X97132800Y-81128399D01*
X97132800Y-81628001D01*
X97135778Y-81642974D01*
X97135135Y-81644868D01*
X97133173Y-81645258D01*
X97132533Y-81644899D01*
X97080854Y-81601711D01*
X97012139Y-81593080D01*
X96949509Y-81623044D01*
X96931452Y-81643882D01*
X96929562Y-81644536D01*
X96928051Y-81643226D01*
X96927979Y-81642182D01*
X96930800Y-81628001D01*
X96930800Y-81128399D01*
X96927822Y-81113426D01*
X96928465Y-81111532D01*
X96930427Y-81111142D01*
X96931067Y-81111501D01*
G37*
G36*
X93731067Y-81111501D02*
G01*
X93782746Y-81154689D01*
X93851461Y-81163320D01*
X93914091Y-81133356D01*
X93932148Y-81112518D01*
X93934038Y-81111864D01*
X93935549Y-81113174D01*
X93935621Y-81114218D01*
X93932800Y-81128399D01*
X93932800Y-81628001D01*
X93935778Y-81642974D01*
X93935135Y-81644868D01*
X93933173Y-81645258D01*
X93932533Y-81644899D01*
X93880854Y-81601711D01*
X93812139Y-81593080D01*
X93749509Y-81623044D01*
X93731452Y-81643882D01*
X93729562Y-81644536D01*
X93728051Y-81643226D01*
X93727979Y-81642182D01*
X93730800Y-81628001D01*
X93730800Y-81128399D01*
X93727822Y-81113426D01*
X93728465Y-81111532D01*
X93730427Y-81111142D01*
X93731067Y-81111501D01*
G37*
G36*
X96131067Y-81111501D02*
G01*
X96182746Y-81154689D01*
X96251461Y-81163320D01*
X96314091Y-81133356D01*
X96332148Y-81112518D01*
X96334038Y-81111864D01*
X96335549Y-81113174D01*
X96335621Y-81114218D01*
X96332800Y-81128399D01*
X96332800Y-81628001D01*
X96335778Y-81642974D01*
X96335135Y-81644868D01*
X96333173Y-81645258D01*
X96332533Y-81644899D01*
X96280854Y-81601711D01*
X96212139Y-81593080D01*
X96149509Y-81623044D01*
X96131452Y-81643882D01*
X96129562Y-81644536D01*
X96128051Y-81643226D01*
X96127979Y-81642182D01*
X96130800Y-81628001D01*
X96130800Y-81128399D01*
X96127822Y-81113426D01*
X96128465Y-81111532D01*
X96130427Y-81111142D01*
X96131067Y-81111501D01*
G37*
G36*
X89731067Y-81111501D02*
G01*
X89782746Y-81154689D01*
X89851461Y-81163320D01*
X89914091Y-81133356D01*
X89932148Y-81112518D01*
X89934038Y-81111864D01*
X89935549Y-81113174D01*
X89935621Y-81114218D01*
X89932800Y-81128399D01*
X89932800Y-81628001D01*
X89935778Y-81642974D01*
X89935135Y-81644868D01*
X89933173Y-81645258D01*
X89932533Y-81644899D01*
X89880854Y-81601711D01*
X89812139Y-81593080D01*
X89749509Y-81623044D01*
X89731452Y-81643882D01*
X89729562Y-81644536D01*
X89728051Y-81643226D01*
X89727979Y-81642182D01*
X89730800Y-81628001D01*
X89730800Y-81128399D01*
X89727822Y-81113426D01*
X89728465Y-81111532D01*
X89730427Y-81111142D01*
X89731067Y-81111501D01*
G37*
G36*
X90531067Y-81111501D02*
G01*
X90582746Y-81154689D01*
X90651461Y-81163320D01*
X90714091Y-81133356D01*
X90732148Y-81112518D01*
X90734038Y-81111864D01*
X90735549Y-81113174D01*
X90735621Y-81114218D01*
X90732800Y-81128399D01*
X90732800Y-81628001D01*
X90735778Y-81642974D01*
X90735135Y-81644868D01*
X90733173Y-81645258D01*
X90732533Y-81644899D01*
X90680854Y-81601711D01*
X90612139Y-81593080D01*
X90549509Y-81623044D01*
X90531452Y-81643882D01*
X90529562Y-81644536D01*
X90528051Y-81643226D01*
X90527979Y-81642182D01*
X90530800Y-81628001D01*
X90530800Y-81128399D01*
X90527822Y-81113426D01*
X90528465Y-81111532D01*
X90530427Y-81111142D01*
X90531067Y-81111501D01*
G37*
G36*
X95331067Y-81111501D02*
G01*
X95382746Y-81154689D01*
X95451461Y-81163320D01*
X95514091Y-81133356D01*
X95532148Y-81112518D01*
X95534038Y-81111864D01*
X95535549Y-81113174D01*
X95535621Y-81114218D01*
X95532800Y-81128399D01*
X95532800Y-81628001D01*
X95535778Y-81642974D01*
X95535135Y-81644868D01*
X95533173Y-81645258D01*
X95532533Y-81644899D01*
X95480854Y-81601711D01*
X95412139Y-81593080D01*
X95349509Y-81623044D01*
X95331452Y-81643882D01*
X95329562Y-81644536D01*
X95328051Y-81643226D01*
X95327979Y-81642182D01*
X95330800Y-81628001D01*
X95330800Y-81128399D01*
X95327822Y-81113426D01*
X95328465Y-81111532D01*
X95330427Y-81111142D01*
X95331067Y-81111501D01*
G37*
G36*
X94531067Y-81111501D02*
G01*
X94582746Y-81154689D01*
X94651461Y-81163320D01*
X94714091Y-81133356D01*
X94732148Y-81112518D01*
X94734038Y-81111864D01*
X94735549Y-81113174D01*
X94735621Y-81114218D01*
X94732800Y-81128399D01*
X94732800Y-81628001D01*
X94735778Y-81642974D01*
X94735135Y-81644868D01*
X94733173Y-81645258D01*
X94732533Y-81644899D01*
X94680854Y-81601711D01*
X94612139Y-81593080D01*
X94549509Y-81623044D01*
X94531452Y-81643882D01*
X94529562Y-81644536D01*
X94528051Y-81643226D01*
X94527979Y-81642182D01*
X94530800Y-81628001D01*
X94530800Y-81128399D01*
X94527822Y-81113426D01*
X94528465Y-81111532D01*
X94530427Y-81111142D01*
X94531067Y-81111501D01*
G37*
G36*
X92931067Y-81111501D02*
G01*
X92982746Y-81154689D01*
X93051461Y-81163320D01*
X93114091Y-81133356D01*
X93132148Y-81112518D01*
X93134038Y-81111864D01*
X93135549Y-81113174D01*
X93135621Y-81114218D01*
X93132800Y-81128399D01*
X93132800Y-81628001D01*
X93135778Y-81642974D01*
X93135135Y-81644868D01*
X93133173Y-81645258D01*
X93132533Y-81644899D01*
X93080854Y-81601711D01*
X93012139Y-81593080D01*
X92949509Y-81623044D01*
X92931452Y-81643882D01*
X92929562Y-81644536D01*
X92928051Y-81643226D01*
X92927979Y-81642182D01*
X92930800Y-81628001D01*
X92930800Y-81128399D01*
X92927822Y-81113426D01*
X92928465Y-81111532D01*
X92930427Y-81111142D01*
X92931067Y-81111501D01*
G37*
G36*
X91331067Y-81111501D02*
G01*
X91382746Y-81154689D01*
X91451461Y-81163320D01*
X91514091Y-81133356D01*
X91532148Y-81112518D01*
X91534038Y-81111864D01*
X91535549Y-81113174D01*
X91535621Y-81114218D01*
X91532800Y-81128399D01*
X91532800Y-81628001D01*
X91535778Y-81642974D01*
X91535135Y-81644868D01*
X91533173Y-81645258D01*
X91532533Y-81644899D01*
X91480854Y-81601711D01*
X91412139Y-81593080D01*
X91349509Y-81623044D01*
X91331452Y-81643882D01*
X91329562Y-81644536D01*
X91328051Y-81643226D01*
X91327979Y-81642182D01*
X91330800Y-81628001D01*
X91330800Y-81128399D01*
X91327822Y-81113426D01*
X91328465Y-81111532D01*
X91330427Y-81111142D01*
X91331067Y-81111501D01*
G37*
G36*
X92131067Y-81111501D02*
G01*
X92182746Y-81154689D01*
X92251461Y-81163320D01*
X92314091Y-81133356D01*
X92332148Y-81112518D01*
X92334038Y-81111864D01*
X92335549Y-81113174D01*
X92335621Y-81114218D01*
X92332800Y-81128399D01*
X92332800Y-81628001D01*
X92335778Y-81642974D01*
X92335135Y-81644868D01*
X92333173Y-81645258D01*
X92332533Y-81644899D01*
X92280854Y-81601711D01*
X92212139Y-81593080D01*
X92149509Y-81623044D01*
X92131452Y-81643882D01*
X92129562Y-81644536D01*
X92128051Y-81643226D01*
X92127979Y-81642182D01*
X92130800Y-81628001D01*
X92130800Y-81128399D01*
X92127822Y-81113426D01*
X92128465Y-81111532D01*
X92130427Y-81111142D01*
X92131067Y-81111501D01*
G37*
M02*
