M48
; DRILL file {KiCad 6.0.11+dfsg-1} date Wed May 20 13:10:23 2026
; FORMAT={-:-/ absolute / metric / decimal}
; #@! TF.CreationDate,2026-05-20T13:10:23+00:00
; #@! TF.GenerationSoftware,Kicad,Pcbnew,6.0.11+dfsg-1
; #@! TF.FileFunction,Plated,1,4,PTH
FMAT,2
METRIC
; #@! TA.AperFunction,Plated,PTH,ViaDrill
T1C0.200
; #@! TA.AperFunction,Plated,PTH,ViaDrill
T2C0.300
; #@! TA.AperFunction,Plated,PTH,ViaDrill
T3C0.400
; #@! TA.AperFunction,Plated,PTH,ComponentDrill
T4C0.450
; #@! TA.AperFunction,Plated,PTH,ComponentDrill
T5C0.650
; #@! TA.AperFunction,Plated,PTH,ComponentDrill
T6C2.200
; #@! TA.AperFunction,Plated,PTH,ComponentDrill
T7C8.500
%
G90
G05
T1
X70.09Y-95.545
X70.269Y-92.351
X71.631Y-94.317
X72.016Y-95.015
X72.052Y-92.351
X72.212Y-96.495
X73.492Y-92.364
X74.173Y-94.866
X74.6Y-92.25
X74.693Y-93.968
X74.917Y-96.52
X75.872Y-94.097
X75.898Y-86.486
X75.903Y-85.871
X76.298Y-113.339
X77.198Y-110.939
X77.208Y-113.68
X77.638Y-90.55
X77.755Y-91.1
X77.827Y-112.507
X78.298Y-114.339
X78.397Y-89.599
X78.435Y-92.281
X78.613Y-109.728
X79.157Y-91.999
X79.936Y-91.608
X80.856Y-91.266
X80.981Y-88.215
X81.499Y-77.103
X81.863Y-91.161
X82.02Y-88.73
X82.214Y-86.211
X82.403Y-82.911
X82.542Y-90.899
X82.68Y-74.635
X82.691Y-85.566
X83.832Y-90.988
X83.86Y-89.778
X83.911Y-87.709
X83.919Y-88.697
X84.006Y-84.997
X84.033Y-92.159
X84.676Y-85.037
X84.994Y-113.317
X85.038Y-92.206
X85.173Y-117.024
X85.182Y-91.043
X85.228Y-89.981
X85.5Y-76.7
X85.507Y-115.547
X85.665Y-114.728
X85.911Y-113.794
X85.959Y-85.491
X86.048Y-83.372
X86.064Y-115.11
X86.152Y-72.496
X86.376Y-87.998
X86.507Y-89.985
X86.628Y-86.538
X86.751Y-116.97
X86.768Y-91.957
X87.131Y-113.132
X87.3Y-81.438
X87.517Y-117.145
X87.6Y-118.798
X87.757Y-83.82
X87.848Y-90.074
X87.914Y-88.509
X87.928Y-113.717
X87.975Y-91.222
X88.039Y-87.038
X88.041Y-116.971
X88.073Y-86.486
X88.245Y-113.264
X88.285Y-83.981
X88.351Y-85.656
X88.434Y-91.528
X88.492Y-90.788
X88.624Y-115.432
X88.672Y-116.946
X88.961Y-121.719
X88.963Y-119.073
X89.017Y-92.249
X89.032Y-117.971
X89.078Y-95.809
X89.081Y-113.74
X89.292Y-91.278
X89.634Y-113.74
X90.008Y-114.969
X90.009Y-119.584
X90.021Y-85.725
X90.068Y-88.978
X90.149Y-91.207
X90.298Y-84.035
X90.317Y-113.945
X90.34Y-114.528
X90.399Y-85.115
X90.447Y-86.897
X90.474Y-115.267
X90.603Y-88.494
X90.616Y-89.048
X90.694Y-118.7
X90.891Y-121.669
X90.908Y-117.703
X91.029Y-94.894
X91.169Y-113.909
X91.294Y-118.856
X91.359Y-117.164
X91.62Y-119.302
X91.691Y-93.248
X91.933Y-121.669
X91.944Y-118.847
X92.4Y-82.797
X92.847Y-121.618
X92.88Y-92.87
X92.982Y-83.94
X92.982Y-88.772
X93.019Y-119.157
X93.247Y-113.353
X93.362Y-91.193
X93.523Y-95.704
X93.586Y-118.888
X93.682Y-112.894
X93.759Y-88.338
X93.81Y-91.975
X94.134Y-119.158
X94.143Y-113.318
X94.219Y-91.225
X94.22Y-89.184
X94.378Y-121.644
X94.458Y-105.664
X94.473Y-95.66
X94.488Y-104.775
X94.686Y-119.141
X94.779Y-92.78
X95.077Y-91.082
X95.077Y-89.072
X95.306Y-92.989
X95.315Y-113.41
X95.532Y-118.775
X95.536Y-88.673
X95.801Y-117.897
X95.971Y-112.982
X95.977Y-91.175
X96.022Y-88.952
X96.085Y-118.765
X96.278Y-118.176
X96.302Y-105.486
X96.636Y-91.998
X96.684Y-119.01
X96.834Y-91.138
X96.996Y-121.644
X97.161Y-115.843
X97.267Y-105.021
X97.39Y-91.144
X97.422Y-88.9
X98.247Y-91.389
X98.892Y-113.541
X99.118Y-120.47
X99.121Y-121.973
X99.187Y-115.33
X99.19Y-114.778
X99.356Y-117.874
X99.458Y-116.51
X99.543Y-91.389
X99.771Y-121.691
X99.982Y-113.568
X100.029Y-114.339
X100.112Y-117.63
X100.191Y-115.786
X100.328Y-121.92
X100.33Y-120.142
X100.415Y-119.198
X100.553Y-116.203
X100.838Y-91.389
X100.975Y-114.099
X101.28Y-119.306
X102.133Y-91.389
X109.2Y-114.607
T2
X86.094Y-73.82
X86.399Y-74.577
X91.032Y-91.248
X91.836Y-91.242
X96.073Y-114.099
X107.492Y-110.97
T3
X69.334Y-94.338
X70.167Y-96.462
X73.797Y-110.5
X76.079Y-91.857
X76.207Y-87.856
X76.403Y-90.263
X77.135Y-89.159
X77.33Y-84.927
X77.432Y-94.513
X78.219Y-83.732
X78.3Y-85.207
X78.976Y-115.591
X81.726Y-73.95
X82.677Y-95.631
X83.045Y-92.436
X83.058Y-76.551
X83.507Y-86.211
X84.77Y-115.369
X85.156Y-85.624
X85.613Y-91.721
X85.856Y-84.739
X86.418Y-91.211
X92.634Y-95.123
X95.021Y-83.223
X105.961Y-110.239
X108.425Y-112.799
X109.464Y-116.85
T4
X72.996Y-83.782
X72.996Y-84.582
X72.996Y-85.382
X72.996Y-86.982
X72.996Y-87.782
X72.996Y-88.582
X73.696Y-83.382
X73.696Y-84.982
X73.696Y-85.782
X73.696Y-86.582
X73.696Y-87.382
X73.696Y-88.982
T6
X80.594Y-93.929
X85.227Y-120.043
T7
X67.818Y-113.538
X99.568Y-137.668
X116.713Y-113.538
T5
G00X70.446Y-81.582
M15
G01X69.446Y-81.582
M16
G05
G00X70.446Y-90.782
M15
G01X69.446Y-90.782
M16
G05
G00X73.446Y-81.582
M15
G01X72.446Y-81.582
M16
G05
G00X73.446Y-90.782
M15
G01X72.446Y-90.782
M16
G05
T0
M30
